<svg viewBox="0 0 12 12" style="background-color:#ffffff00" xmlns="http://www.w3.org/2000/svg" width="12" height="12"><path d="M0 6c0-3.314 2.686-6 6-6s6 2.686 6 6-2.686 6-6 6-6-2.686-6-6z" fill="#333"/><path d="M6.247 7.45c0-.17.032.046.106-.074.064-.12.16-.22.265-.32.105-.09.233-.172.37-.252.138-.07.275-.15.413-.24.16-.1.308-.2.435-.31.127-.112.244-.232.34-.372.084-.14.158-.29.21-.462.054-.16.086-.36.086-.58 0-.352-.063-.653-.19-.913-.127-.25-.296-.462-.487-.632-.2-.16-.424-.28-.678-.36-.254-.07-.508-.11-.762-.11-.233-.002-.455.03-.667.09-.223.06-.424.15-.614.26-.19.12-.35.26-.498.42-.148.17-.254.36-.34.572l.88.602c.053-.09.117-.192.19-.292.075-.1.16-.2.265-.28.105-.08.21-.14.338-.2.117-.052.254-.082.402-.082.128 0 .244.02.36.06.117.04.223.09.308.17.084.08.16.17.222.282.053.11.085.24.085.38 0 .19-.053.362-.15.512-.104.15-.22.28-.37.39-.147.112-.285.202-.433.282-.148.08-.276.14-.37.2-.34.2-.573.442-.68.712-.104.27-.157.214-.157.545h1.143-.02zM6.28 9.88l.306-1.197-1.74-.194.3 1.392H6.28z" fill="#efeee2"/></svg>