<svg viewBox="0 0 22 21" style="background-color:#ffffff00" xmlns="http://www.w3.org/2000/svg" width="22" height="21"><path d="M.595 10.5C.595 4.7 5.387 0 11.297 0 17.21 0 22 4.7 22 10.5S17.21 21 11.297 21C5.387 21 .595 16.3.595 10.5z" fill="#dd4b39"/><g fill="#fff"><path d="M16.6 9.7h-1.63V8.11c0-.122-.1-.22-.225-.22h-.464c-.123 0-.224.098-.224.22V9.7h-1.63c-.124 0-.226.097-.226.22v.452c0 .12.102.22.226.22h1.63v1.59c0 .122.1.22.225.22h.466c.124 0 .225-.098.225-.22v-1.59h1.63c.125 0 .226-.1.226-.22v-.453c0-.123-.1-.22-.226-.22z"/><path d="M11.123 11.093c-.343-.238-.654-.585-.66-.692 0-.193.018-.285.465-.625.577-.44.895-1.02.895-1.633 0-.556-.174-1.05-.47-1.397h.23c.048 0 .094-.014.132-.04l.64-.454c.08-.055.115-.154.084-.245-.032-.09-.118-.15-.215-.15l-2.868-.002c-.314 0-.633.054-.945.16-1.045.35-1.776 1.22-1.776 2.11 0 1.264 1.003 2.222 2.344 2.252-.026.1-.04.198-.04.295 0 .195.05.38.155.557H9.06c-1.28 0-2.434.612-2.872 1.522-.114.236-.172.476-.172.712 0 .23.06.452.18.66.275.48.865.852 1.665 1.05.413.1.857.152 1.317.152.413 0 .808-.052 1.172-.155 1.136-.322 1.87-1.14 1.87-2.08 0-.905-.297-1.446-1.097-1.997zM7.5 13.163c0-.66.858-1.235 1.834-1.235h.026c.213.002.42.032.615.09.067.045.132.09.194.13.45.3.75.5.833.817.02.08.03.16.03.24 0 .818-.627 1.232-1.862 1.232-.935 0-1.67-.56-1.67-1.275zm.89-6.214c.152-.172.352-.26.576-.26h.026c.633.018 1.24.706 1.35 1.535.064.463-.042.9-.28 1.166-.154.17-.35.26-.584.26h-.01c-.62-.018-1.24-.732-1.352-1.56-.062-.463.038-.88.274-1.14z"/></g></svg>