<svg viewBox="0 0 24 20" style="background-color:#ffffff00" xmlns="http://www.w3.org/2000/svg" width="24" height="20"><path d="M15.832 11.665c-.918 0-1.663 1.024-1.663 2.287 0 1.264.744 2.288 1.662 2.288.918 0 1.662-1.024 1.662-2.288 0-1.263-.744-2.287-1.662-2.287zm5.79-5.954c.188-.463.197-3.1-.812-5.627 0 0-2.317.253-5.822 2.644-.735-.202-1.978-.303-3.222-.303-1.243 0-2.487.1-3.222.303C5.04.337 2.724.084 2.724.084 1.713 2.608 1.72 5.247 1.91 5.71.726 6.99 0 8.53 0 10.63c0 9.138 7.625 9.285 9.55 9.285.435 0 1.3 0 2.216.002.915-.002 1.782-.002 2.217-.002 1.925 0 9.55-.147 9.55-9.284 0-2.1-.726-3.64-1.912-4.92zM11.8 18.79h-.072c-4.824 0-8.58-.57-8.58-5.232 0-1.115.396-2.152 1.337-3.012 1.57-1.434 4.228-.674 7.243-.674h.072c3.016 0 5.673-.76 7.243.674.942.86 1.338 1.897 1.338 3.012 0 4.66-3.757 5.233-8.58 5.233zM7.7 11.667c-.918 0-1.662 1.023-1.662 2.286 0 1.264.744 2.288 1.662 2.288.92 0 1.663-1.024 1.663-2.288 0-1.263-.744-2.287-1.663-2.287z" fill="#fff"/></svg>