<svg viewBox="0 0 22 21" style="background-color:#ffffff00" xmlns="http://www.w3.org/2000/svg" width="22" height="21"><path d="M0 10.5C0 4.7 4.792 0 10.703 0c5.91 0 10.702 4.7 10.702 10.5S16.613 21 10.702 21C4.793 21 0 16.3 0 10.5z" fill="#55acee"/><path d="M16.488 7.602c-.426.182-.883.305-1.364.36.49-.282.867-.732 1.044-1.267-.458.262-.966.453-1.507.556-.433-.444-1.05-.723-1.732-.723-1.31 0-2.374 1.027-2.374 2.292 0 .18.02.354.062.522-1.973-.096-3.722-1.008-4.893-2.396-.204.34-.32.733-.32 1.154 0 .795.418 1.497 1.054 1.908-.388-.012-.754-.116-1.075-.287v.03c0 1.11.818 2.037 1.905 2.248-.2.05-.41.08-.626.08-.152 0-.3-.014-.446-.04.302.91 1.18 1.572 2.218 1.59-.813.615-1.836.982-2.948.982-.192 0-.38-.01-.567-.032 1.05.65 2.3 1.03 3.64 1.03 4.366 0 6.753-3.493 6.753-6.523 0-.1-.002-.198-.007-.297.464-.322.867-.726 1.184-1.186z" fill="#fff"/></svg>