<svg xmlns="http://www.w3.org/2000/svg"><symbol id="icon-arrow" viewBox="0 0 10 6"><path d="M4.863 5.085l.072-.005.073.005c.185 0 .364-.066.505-.187L9.156 1.77c.322-.277.36-.768.082-1.092-.267-.312-.78-.35-1.092-.083L4.936 3.35 1.725.595C1.412.327.9.365.633.678c-.278.324-.24.815.083 1.093L4.358 4.9c.14.12.32.187.505.187z"/></symbol><symbol id="icon-card-highlight" viewBox="0 0 35 56"><path d="M0 0h35v56l-18.657-8.75L0 56V0z"/><path d="M17.5 17.756L19.32 25l7.28-.462-6.153 4.016 2.677 6.958L17.5 30.75l-5.624 4.762 2.677-6.958L8.4 24.538l7.28.462 1.82-7.244z" fill="#fff"/></symbol><symbol id="icon-close" viewBox="0 0 9 9"><path d="M6.397 4.898c-.22-.22-.22-.577 0-.797L8.69 1.8c.2-.198.31-.464.31-.75S8.89.498 8.69.298C8.296-.1 7.59-.1 7.193.298L4.95 2.636c-.104.11-.248.17-.4.173-.17.004-.297-.06-.403-.166L1.807.298C1.407-.1.704-.1.307.298.11.498 0 .764 0 1.05s.11.552.308.75l2.366 2.295c.11.106.17.252.17.405 0 .153-.06.3-.17.405L.3 7.205c-.19.193-.3.46-.3.744 0 .285.11.552.308.75.396.4 1.1.4 1.5 0l2.34-2.344c.104-.106.247-.165.396-.165.13 0 .3.063.406.174L7.2 8.71c.383.383 1.095.388 1.49-.01.2-.198.31-.465.31-.75 0-.286-.11-.552-.31-.752l-2.293-2.3z" fill="#fff"/></symbol><symbol id="icon-creative-commons" viewBox="0 0 18 19"><g fill="#221e1f"><path d="M8.835 0c-2.427 0-4.556.933-6.2 2.68C.93 4.49 0 6.852 0 9.34c0 2.534.92 4.907 2.673 6.767C4.436 17.98 6.73 19 9.14 19s4.72-1.02 6.473-2.92c1.644-1.78 2.465-4.127 2.38-6.74-.08-2.565-1.036-4.876-2.773-6.635C13.47.933 11.262 0 8.835 0zm.05 1.666c1.997 0 3.793.785 5.22 2.236 1.408 1.433 2.2 3.337 2.26 5.437.063 2.14-.603 4.035-1.958 5.49-1.436 1.543-3.32 2.372-5.27 2.372-1.98 0-3.84-.83-5.274-2.345-1.427-1.508-2.228-3.48-2.234-5.518-.007-2.05.772-3.98 2.16-5.463 1.354-1.45 3.1-2.21 5.096-2.21z"/><path d="M8.868 7.766c-.522-.972-1.39-1.357-2.394-1.357-1.46 0-2.613 1.084-2.6 2.93.012 1.89 1.123 2.96 2.72 2.96 1.022 0 1.886-.594 2.353-1.495l-1.13-.602c-.24.634-.62.824-1.1.824-.83 0-1.217-.73-1.227-1.688-.01-.957.302-1.68 1.188-1.68.238 0 .718.137 1.005.765l1.185-.66zM14.05 7.766c-.53-.972-1.403-1.357-2.406-1.357-1.46 0-2.603 1.084-2.573 2.93.03 1.89 1.152 2.96 2.748 2.96 1.023 0 1.88-.594 2.34-1.495l-1.135-.602c-.236.634-.612.824-1.092.824-.83 0-1.224-.73-1.242-1.688-.02-.957.286-1.68 1.17-1.68.24 0 .72.137 1.014.765l1.18-.66z"/></g></symbol><symbol id="icon-data-burger" viewBox="0 0 23 24"><path d="M0 5.433C0 2.803 1.966.857 4.627.857h13.28c2.66 0 4.626 1.945 4.626 4.576v13.134c0 2.63-1.966 4.576-4.626 4.576H4.627C1.967 23.143 0 21.198 0 18.567V5.433z" fill="#fff"/><path fill="#a7a69e" d="M6.5 8h9v2h-9zM6.5 11h9v2h-9zM6.5 14h9v2h-9z"/></symbol><symbol id="icon-facebook" viewBox="0 0 12 22"><path d="M11.413 7.3H7.806V5.12c0-.82.59-1.01 1.004-1.01h2.545V.513L7.85.5C3.96.5 3.074 3.184 3.074 4.9v2.4H.824v3.708h2.25V21.5h4.732V11.008H11l.413-3.71z" fill="#fff"/></symbol><symbol id="icon-finder" viewBox="0 0 17 17"><g fill="#fff"><path d="M11.103 8.575l-2.44 2.346 5.434 5.6 2.44-2.372-5.434-5.573z"/><path d="M11.156 6.672c0 2.304-1.92 4.17-4.29 4.17s-4.29-1.866-4.29-4.17c0-2.303 1.92-4.17 4.29-4.17s4.29 1.867 4.29 4.17zm2.575 0C13.73 2.987 10.658 0 6.867 0 3.074 0 0 2.987 0 6.672c0 3.685 3.074 6.673 6.866 6.673 3.79 0 6.865-2.988 6.865-6.673z"/></g></symbol><symbol id="icon-github" viewBox="0 0 24 20"><path d="M15.832 11.665c-.918 0-1.663 1.024-1.663 2.287 0 1.264.744 2.288 1.662 2.288.918 0 1.662-1.024 1.662-2.288 0-1.263-.744-2.287-1.662-2.287zm5.79-5.954c.188-.463.197-3.1-.812-5.627 0 0-2.317.253-5.822 2.644-.735-.202-1.978-.303-3.222-.303-1.243 0-2.487.1-3.222.303C5.04.337 2.724.084 2.724.084 1.713 2.608 1.72 5.247 1.91 5.71.726 6.99 0 8.53 0 10.63c0 9.138 7.625 9.285 9.55 9.285.435 0 1.3 0 2.216.002.915-.002 1.782-.002 2.217-.002 1.925 0 9.55-.147 9.55-9.284 0-2.1-.726-3.64-1.912-4.92zM11.8 18.79h-.072c-4.824 0-8.58-.57-8.58-5.232 0-1.115.396-2.152 1.337-3.012 1.57-1.434 4.228-.674 7.243-.674h.072c3.016 0 5.673-.76 7.243.674.942.86 1.338 1.897 1.338 3.012 0 4.66-3.757 5.233-8.58 5.233zM7.7 11.667c-.918 0-1.662 1.023-1.662 2.286 0 1.264.744 2.288 1.662 2.288.92 0 1.663-1.024 1.663-2.288 0-1.263-.744-2.287-1.663-2.287z" fill="#fff"/></symbol><symbol id="icon-language--en-us" viewBox="0 0 23 22"><path d="M5.78 11.234h4.017V13H3.812V4h5.89v1.766h-3.92v1.468h3.36V9H5.78v2.234zM16.704 13L12.78 7.86V13h-1.967V4h1.546l3.968 5.297V4h1.97v9h-1.595zM0 0v17h23V0H0z"/><path d="M3 17l6 5v-5H3z" stroke="#ffffff00"/></symbol><symbol id="icon-language--es-es" viewBox="0 0 23 22"><path d="M6.78 11.234h4.017V13H4.812V4h5.89v1.766h-3.92v1.468h3.36V9H6.78v2.234zm11.017-6.296l-.86 1.64c-.03-.03-.125-.078-.265-.172-.156-.093-.328-.187-.547-.28-.22-.095-.453-.173-.703-.25-.25-.064-.516-.11-.766-.11-.344 0-.594.062-.78.187-.188.125-.267.313-.267.547 0 .156.03.297.124.39.08.094.188.188.344.266.14.078.328.157.547.22.22.06.47.14.766.218.407.125.766.25 1.094.39.328.14.61.313.844.516.235.203.422.453.547.734.125.297.188.64.188 1.047 0 .5-.094.94-.282 1.283-.186.343-.42.624-.718.843-.296.22-.64.36-1.015.453-.39.093-.78.14-1.188.14-.313 0-.64-.016-.97-.063-.328-.046-.64-.11-.953-.203-.312-.093-.624-.187-.906-.312-.296-.125-.56-.266-.81-.438l.858-1.734c.03.047.14.125.328.234.172.11.39.22.64.329.25.124.548.218.86.296.313.093.64.124.985.124.688 0 1.047-.218 1.047-.67 0-.158-.062-.298-.156-.408-.108-.11-.25-.203-.436-.297-.188-.08-.406-.157-.656-.235l-.813-.266c-.39-.126-.734-.25-1.016-.407-.297-.14-.532-.312-.72-.5-.187-.187-.328-.422-.42-.672-.095-.25-.142-.53-.142-.874 0-.468.078-.875.25-1.234.156-.36.39-.672.672-.922.28-.25.625-.438 1-.563.375-.125.78-.187 1.22-.187.296 0 .592.03.89.094.28.062.562.125.812.218.25.094.5.188.734.297.235.11.453.218.64.327zM0 0v17h23V0H0z"/><path d="M3 17l6 5v-5H3z" stroke="#ffffff00"/></symbol><symbol id="icon-language--pt-br" viewBox="0 0 23 22"><path d="M3 17l6 5v-5H3z" stroke="#ffffff00"/><path d="M6.547 13H4.89V4H8.5c.39 0 .75.094 1.078.266.328.17.61.406.86.687.234.28.42.61.562.97.14.358.22.718.22 1.077 0 .39-.08.766-.204 1.125-.125.36-.313.672-.547.953-.236.28-.517.5-.845.672-.328.172-.688.25-1.063.25H6.547v3zm12.72-9v1.5h-2.72V13H14.89V5.5h-2.718V4h7.094zM0 0v17h23V0H0zm6.547 5.5v3H8.47c.296 0 .546-.125.75-.406.202-.266.31-.625.31-1.094 0-.234-.03-.438-.092-.625-.063-.188-.157-.344-.25-.47-.11-.124-.235-.233-.376-.296-.14-.063-.28-.11-.42-.11H6.546z"/></symbol><symbol id="icon-pinterest" viewBox="0 0 17 22"><path d="M8.842.5C3.094.5.196 4.61.196 8.036c0 2.074.787 3.92 2.476 4.607.278.113.526.005.607-.302.054-.21.187-.744.246-.966.08-.303.05-.408-.175-.673-.486-.572-.798-1.313-.798-2.364 0-3.048 2.288-5.777 5.957-5.777 3.248 0 5.033 1.978 5.033 4.62 0 3.48-1.544 6.415-3.836 6.415-1.265 0-2.212-1.044-1.91-2.324.364-1.528 1.07-3.175 1.07-4.28 0-.987-.534-1.81-1.633-1.81C5.94 5.18 4.9 6.513 4.9 8.3c0 1.14.387 1.91.387 1.91L3.73 16.785c-.46 1.95-.07 4.341-.035 4.582.02.144.204.178.288.07.118-.155 1.66-2.05 2.183-3.947.15-.537.85-3.316.85-3.316.422.8 1.65 1.502 2.957 1.502 3.888 0 6.527-3.535 6.527-8.265C16.5 3.833 13.46.5 8.842.5z" fill="#fff"/></symbol><symbol id="icon-play" viewBox="0 0 60 61"><g fill="#fff"><path d="M30 .5C13.43.5 0 13.93 0 30.5c0 16.568 13.43 30 30 30 16.568 0 30-13.432 30-30 0-16.57-13.432-30-30-30zm0 54.706c-13.645 0-24.706-11.06-24.706-24.706C5.294 16.855 16.354 5.794 30 5.794c13.645 0 24.706 11.06 24.706 24.706 0 13.645-11.06 24.706-24.706 24.706z"/><path d="M24.568 42.347L40.45 30.5 24.568 18.653v23.694z"/></g></symbol><symbol id="icon-plus" viewBox="0 0 30 30"><path d="M12 0h7v30h-7z"/><path d="M0 12h30v7H0z"/></symbol><symbol id="icon-question" viewBox="0 0 12 12"><path d="M0 6c0-3.314 2.686-6 6-6s6 2.686 6 6-2.686 6-6 6-6-2.686-6-6z" fill="#333"/><path d="M6.247 7.45c0-.17.032.046.106-.074.064-.12.16-.22.265-.32.105-.09.233-.172.37-.252.138-.07.275-.15.413-.24.16-.1.308-.2.435-.31.127-.112.244-.232.34-.372.084-.14.158-.29.21-.462.054-.16.086-.36.086-.58 0-.352-.063-.653-.19-.913-.127-.25-.296-.462-.487-.632-.2-.16-.424-.28-.678-.36-.254-.07-.508-.11-.762-.11-.233-.002-.455.03-.667.09-.223.06-.424.15-.614.26-.19.12-.35.26-.498.42-.148.17-.254.36-.34.572l.88.602c.053-.09.117-.192.19-.292.075-.1.16-.2.265-.28.105-.08.21-.14.338-.2.117-.052.254-.082.402-.082.128 0 .244.02.36.06.117.04.223.09.308.17.084.08.16.17.222.282.053.11.085.24.085.38 0 .19-.053.362-.15.512-.104.15-.22.28-.37.39-.147.112-.285.202-.433.282-.148.08-.276.14-.37.2-.34.2-.573.442-.68.712-.104.27-.157.214-.157.545h1.143-.02zM6.28 9.88l.306-1.197-1.74-.194.3 1.392H6.28z" fill="#efeee2"/></symbol><symbol id="icon-rotate" viewBox="0 0 12 17"><path d="M6.078 2.454L6 .006c0-.188 6 4.04 6 4.04s-6 4.227-6 4.04l.3-3.264c-2.06.05-4.616 1.85-6.3 4.365v-.734c0-3.403 2.703-5.633 6.078-6zM5.922 14.596L6 16.994c0 .184-6-3.957-6-3.957s6-4.14 6-3.958l-.3 3.197c2.06-.05 4.616-1.815 6.3-4.277v.72c0 3.333-2.703 5.517-6.078 5.876z"/></symbol><symbol id="icon-social-facebook" viewBox="0 0 22 21"><path d="M.297 10.5C.297 4.7 5.09 0 11 0c5.91 0 10.703 4.7 10.703 10.5S16.91 21 11 21C5.09 21 .297 16.3.297 10.5z" fill="#3b5998"/><path d="M13.603 8.7H11.83V7.64c0-.4.29-.492.493-.492h1.252v-1.75l-1.724-.006c-1.912 0-2.347 1.305-2.347 2.14V8.7H8.397v1.804h1.106v5.104h2.327v-5.104h1.57l.203-1.804z" fill="#fff"/></symbol><symbol id="icon-social-plus" viewBox="0 0 22 21"><path d="M.595 10.5C.595 4.7 5.387 0 11.297 0 17.21 0 22 4.7 22 10.5S17.21 21 11.297 21C5.387 21 .595 16.3.595 10.5z" fill="#dd4b39"/><g fill="#fff"><path d="M16.6 9.7h-1.63V8.11c0-.122-.1-.22-.225-.22h-.464c-.123 0-.224.098-.224.22V9.7h-1.63c-.124 0-.226.097-.226.22v.452c0 .12.102.22.226.22h1.63v1.59c0 .122.1.22.225.22h.466c.124 0 .225-.098.225-.22v-1.59h1.63c.125 0 .226-.1.226-.22v-.453c0-.123-.1-.22-.226-.22z"/><path d="M11.123 11.093c-.343-.238-.654-.585-.66-.692 0-.193.018-.285.465-.625.577-.44.895-1.02.895-1.633 0-.556-.174-1.05-.47-1.397h.23c.048 0 .094-.014.132-.04l.64-.454c.08-.055.115-.154.084-.245-.032-.09-.118-.15-.215-.15l-2.868-.002c-.314 0-.633.054-.945.16-1.045.35-1.776 1.22-1.776 2.11 0 1.264 1.003 2.222 2.344 2.252-.026.1-.04.198-.04.295 0 .195.05.38.155.557H9.06c-1.28 0-2.434.612-2.872 1.522-.114.236-.172.476-.172.712 0 .23.06.452.18.66.275.48.865.852 1.665 1.05.413.1.857.152 1.317.152.413 0 .808-.052 1.172-.155 1.136-.322 1.87-1.14 1.87-2.08 0-.905-.297-1.446-1.097-1.997zM7.5 13.163c0-.66.858-1.235 1.834-1.235h.026c.213.002.42.032.615.09.067.045.132.09.194.13.45.3.75.5.833.817.02.08.03.16.03.24 0 .818-.627 1.232-1.862 1.232-.935 0-1.67-.56-1.67-1.275zm.89-6.214c.152-.172.352-.26.576-.26h.026c.633.018 1.24.706 1.35 1.535.064.463-.042.9-.28 1.166-.154.17-.35.26-.584.26h-.01c-.62-.018-1.24-.732-1.352-1.56-.062-.463.038-.88.274-1.14z"/></g></symbol><symbol id="icon-social-twitter" viewBox="0 0 22 21"><path d="M0 10.5C0 4.7 4.792 0 10.703 0c5.91 0 10.702 4.7 10.702 10.5S16.613 21 10.702 21C4.793 21 0 16.3 0 10.5z" fill="#55acee"/><path d="M16.488 7.602c-.426.182-.883.305-1.364.36.49-.282.867-.732 1.044-1.267-.458.262-.966.453-1.507.556-.433-.444-1.05-.723-1.732-.723-1.31 0-2.374 1.027-2.374 2.292 0 .18.02.354.062.522-1.973-.096-3.722-1.008-4.893-2.396-.204.34-.32.733-.32 1.154 0 .795.418 1.497 1.054 1.908-.388-.012-.754-.116-1.075-.287v.03c0 1.11.818 2.037 1.905 2.248-.2.05-.41.08-.626.08-.152 0-.3-.014-.446-.04.302.91 1.18 1.572 2.218 1.59-.813.615-1.836.982-2.948.982-.192 0-.38-.01-.567-.032 1.05.65 2.3 1.03 3.64 1.03 4.366 0 6.753-3.493 6.753-6.523 0-.1-.002-.198-.007-.297.464-.322.867-.726 1.184-1.186z" fill="#fff"/></symbol><symbol id="icon-twitter" viewBox="0 0 24 20"><path d="M23.697 2.877c-.865.375-1.796.628-2.773.74.998-.582 1.763-1.505 2.123-2.607-.933.54-1.966.933-3.066 1.145C19.1 1.24 17.847.667 16.46.667c-2.666 0-4.828 2.11-4.828 4.713 0 .368.042.728.125 1.073-4.012-.197-7.57-2.073-9.952-4.924-.415.695-.653 1.505-.653 2.37 0 1.634.852 3.076 2.147 3.92-.79-.024-1.535-.236-2.186-.59v.06c0 2.284 1.665 4.189 3.873 4.622-.405.107-.83.165-1.272.165-.31 0-.613-.03-.907-.085.614 1.872 2.397 3.235 4.51 3.273-1.653 1.264-3.734 2.017-5.996 2.017-.39 0-.774-.022-1.152-.066 2.137 1.338 4.675 2.117 7.4 2.117 8.88 0 13.737-7.18 13.737-13.408 0-.204-.004-.408-.014-.61.944-.663 1.762-1.494 2.41-2.44z" fill="#fff"/></symbol><symbol id="icon-youtube" viewBox="0 0 25 20"><path d="M21.66 1.133C20.956.9 16.603.666 12.25.666c-4.354 0-8.707.234-9.413.467C.953 1.717.482 5.8.482 10c0 4.2.47 8.283 2.353 8.867.706.233 5.06.466 9.413.466 4.354 0 8.707-.233 9.413-.466 1.883-.584 2.354-4.667 2.354-8.867 0-4.2-.47-8.283-2.353-8.867zM9.896 15.25V4.75l7.06 5.25-7.06 5.25z" fill="#fff"/></symbol><symbol id="icons"/></svg>