<svg viewBox="0 0 9 9" style="background-color:#ffffff00" xmlns="http://www.w3.org/2000/svg" width="9" height="9"><path d="M6.397 4.898c-.22-.22-.22-.577 0-.797L8.69 1.8c.2-.198.31-.464.31-.75S8.89.498 8.69.298C8.296-.1 7.59-.1 7.193.298L4.95 2.636c-.104.11-.248.17-.4.173-.17.004-.297-.06-.403-.166L1.807.298C1.407-.1.704-.1.307.298.11.498 0 .764 0 1.05s.11.552.308.75l2.366 2.295c.11.106.17.252.17.405 0 .153-.06.3-.17.405L.3 7.205c-.19.193-.3.46-.3.744 0 .285.11.552.308.75.396.4 1.1.4 1.5 0l2.34-2.344c.104-.106.247-.165.396-.165.13 0 .3.063.406.174L7.2 8.71c.383.383 1.095.388 1.49-.01.2-.198.31-.465.31-.75 0-.286-.11-.552-.31-.752l-2.293-2.3z" fill="#fff"/></svg>