<svg viewBox="0 0 260 176" style="background-color:#ffffff00" xmlns="http://www.w3.org/2000/svg" width="260" height="199"><path d="M.848 8.14C.848 1.61 2.242.217 8.775.217h187.062c6.533 0 7.926 1.392 7.926 7.92v106.663H.848V8.14z" fill="#313133"/><path d="M6.35 8.14h190.232v98.74H6.35V8.14z" fill="#45bfc4"/><path d="M74.828 127.474v13.73s-.085 2.972-8.983 6.863c-8.9 3.892-13.74 4.753-13.74 4.753v2.112h100.4v-2.112s-4.84-.86-13.738-4.753c-8.898-3.89-8.983-6.864-8.983-6.864v-13.73H74.828z" fill="#fff"/><path d="M52.105 153.348h100.4v2.112h-100.4v-2.112zM74.828 127.474h54.956v13.73H74.828v-13.73z" fill="#dadada"/><path d="M.848 114.273v8.89c0 5.814 3.78 9.59 9.598 9.59h183.72c5.816 0 9.597-3.776 9.597-9.59v-8.89H.848z" fill="#fff"/><path opacity=".502" d="M102.306 8.14h95.116v98.74h-95.116V8.14z" fill="#13858a"/><path d="M17.338 19.803H54.45v39.602H17.338V19.803z" fill="#f2c300"/><path opacity=".502" d="M18 65.602h31.915v3.36H18zM18 71.48h12.598v3.36H18zM18 81.556h31.915v1.68H18zM18 85.755h31.915v1.68H18zM18 89.953h16.798v1.68H18z"/><path d="M175.725 115.58c0 1.98.482 3.848 1.332 5.494-4.188 2.195-7.046 6.583-7.046 11.636 0 7.253 5.885 13.133 13.144 13.133 2.343 0 4.54-.61 6.445-1.684 2.288 3.1 5.972 5.11 10.124 5.11 4.404 0 8.28-2.262 10.525-5.688 2.084 4.056 6.31 6.83 11.188 6.83 4.637 0 8.69-2.51 10.868-6.242 1.846 1.065 3.988 1.673 6.273 1.673 6.942 0 12.57-5.624 12.57-12.562 0-6.936-5.628-12.56-12.57-12.56-4.638 0-8.69 2.507-10.87 6.24-1.845-1.064-3.987-1.673-6.273-1.673-4.404 0-8.28 2.262-10.525 5.688-2.084-4.056-6.31-6.83-11.188-6.83-1.616 0-3.162.307-4.582.863 2.79-2.196 4.582-5.603 4.582-9.427 0-6.622-5.372-11.99-12-11.99-6.626 0-12 5.368-12 11.99z" fill="#ededed"/><path d="M252.074 125.287h.103c3.787 0 6.857-3.067 6.857-6.852 0-3.784-3.07-6.85-6.857-6.85-2.386 0-4.486 1.217-5.714 3.065v-.212c0-5.36-4.35-9.706-9.714-9.706-3.718 0-6.95 2.084-8.583 5.15-.305-9.202-8.112-16.57-17.702-16.57-7.716 0-14.28 4.773-16.708 11.43l-.434-.01c-5.365 0-9.714 4.346-9.714 9.707 0 1.28.245 2.504.696 3.624-5.072 1.82-8.697 6.667-8.697 12.362 0 7.254 5.883 13.134 13.14 13.134 2.2 0 4.273-.538 6.093-1.49 2.3 2.317 5.63 3.773 9.336 3.773 3.303 0 6.31-1.156 8.553-3.05 2.305 2.56 5.807 4.192 9.73 4.192l.6-.01.544.01c3.6 0 6.812-1.663 8.908-4.26 2.07 1.252 4.495 1.976 7.09 1.976 7.575 0 13.715-6.134 13.715-13.703 0-2.038-.447-3.97-1.246-5.71z" fill="#fff"/><path d="M195.153 116.15l.006.293c.146-3.97 3.412-7.143 7.42-7.143 3.09 0 5.74 1.886 6.858 4.568.188.45.332.92.43 1.41.276-.477.608-.917.98-1.32 1.358-1.46 3.295-2.374 5.447-2.374 2.72 0 5.1 1.464 6.394 3.643.235.397.434.815.593 1.255.31-.23.643-.44.99-.622 1.03-.543 2.202-.85 3.45-.85 4.008 0 7.275 3.173 7.422 7.143l.006-.292c0-4.413-3.58-7.992-8-7.992-1.242 0-2.418.282-3.467.788-1.492-2.523-4.243-4.215-7.388-4.215-2.28 0-4.35.893-5.886 2.343-1.274-2.73-4.046-4.626-7.257-4.626-4.418 0-8 3.58-8 7.994z" fill="#ededed"/><g><path d="M100.558 111.165c0-35.81 29.058-64.836 64.903-64.836 35.846 0 64.904 29.026 64.904 64.835 0 35.808-29.058 64.835-64.903 64.835-35.844 0-64.902-29.027-64.902-64.835z" fill="#9ec0c2"/><path d="M109.83 84.7c-.248.807-.02 1.014 0 1.324.062.934-3.753 16.1-3.974 19.848-.22 3.75 2.43 7.277 2.65 9.262.22 1.985 3.752 5.513 5.298 6.616 1.545 1.103 2.87 3.528 3.974 5.293 1.103 1.764 2.207-.883 2.648-1.323.442-.442-2.87-2.647-3.973-3.97-1.104-1.323 1.545-2.206 2.65-3.97 1.103-1.763-1.988 0-3.975 0s-1.766-1.984-2.65-5.292c-.882-3.308 2.43-2.647 5.3-2.647 2.87 0 1.765 2.868 2.648 2.648.883-.22 1.766-2.206 2.65-5.293.883-3.087 5.74-6.837 7.947-7.94 2.207-1.102 4.194-.66 6.623-2.646 2.428-1.985-2.87-.882-3.974-2.647-1.104-1.764 4.636-1.764 6.623-1.323 1.987.44 2.207-2.205 2.65-3.97.44-1.764-3.975-2.425-3.975-3.97 0-1.543 1.545-1.1 1.325-2.645-.22-1.544-1.987.22-3.974 0-1.986-.22-.66-1.985-1.323-2.647-.663-.66-1.546 2.206-2.65 3.97-1.103 1.764-1.987 5.072-3.973 5.293-1.987.222-.442-2.205 0-2.646.44-.44-.442-.22 0-1.323.44-1.1-2.43-3.086-2.65-3.97-.22-.88 3.312-5.07 3.974-5.29.662-.222 4.857-1.765 5.298-1.324.442.44 2.65-2.646 2.65-2.646l-2.65-2.647 1.325-2.646-3.973 2.646v-2.646l1.325-3.97s-3.09-.66-2.65 0c.442.662-3.31 3.087-5.297 2.646-1.54-.34-.298-3.592.65-5.45-3.806 2.87-7.286 6.154-10.373 9.778.45 1.063.45 1.674.45 2.29 0 .882-1.324 1.323-1.324 1.323s-4.685 9.92-5.298 11.908z" fill="#4d8343"/><path d="M116.975 85.89c-.248.807-.02 1.014 0 1.324.063.933-3.753 16.099-3.973 19.847-.22 3.75 2.428 7.28 2.65 9.264.22 1.985 3.752 5.513 5.297 6.615 1.544 1.102 2.87 3.528 3.973 5.292 1.103 1.764 2.207-.882 2.65-1.323.44-.442-2.87-2.647-3.975-3.97-1.104-1.324 1.545-2.206 2.65-3.97 1.103-1.764-1.988 0-3.975 0-1.986 0-1.766-1.985-2.65-5.293-.882-3.308 2.43-2.646 5.3-2.646 2.87 0 1.766 2.868 2.65 2.647.882-.22 1.765-2.205 2.648-5.292.884-3.088 5.74-6.837 7.948-7.94 2.207-1.102 4.195-.66 6.623-2.646 2.43-1.986-2.87-.883-3.973-2.647-1.104-1.764 4.636-1.764 6.623-1.323 1.987.44 2.208-2.206 2.65-3.97.44-1.764-3.975-2.425-3.975-3.97 0-1.543 1.546-1.102 1.325-2.646-.22-1.543-1.987.22-3.974 0s-.662-1.984-1.324-2.646c-.663-.662-1.546 2.206-2.65 3.97-1.103 1.764-1.986 5.072-3.973 5.292-1.988.22-.443-2.205 0-2.646.44-.44-.443-.22 0-1.323.44-1.102-2.43-3.086-2.65-3.97-.22-.88 3.31-5.07 3.974-5.292.662-.22 4.856-1.764 5.298-1.322.44.44 2.65-2.647 2.65-2.647l-2.65-2.647 1.324-2.647-3.973 2.647v-2.647l1.324-3.97s-3.09-.66-2.65 0c.443.663-3.31 3.088-5.297 2.647-1.54-.342-.297-3.592.65-5.45-3.806 2.87-7.286 6.153-10.372 9.777.448 1.063.45 1.674.45 2.29 0 .88-1.325 1.322-1.325 1.322s-4.685 9.92-5.298 11.91z" fill="#4d8343"/><path d="M141.62 64.853s-2.484 1.406-2.65 1.324c-.166-.083.91 1.736 1.325 2.646.413.91-.994 4.218-1.325 5.293-.33 1.075-.58 3.556 0 3.97.58.413.828 1.9 1.325 1.322.496-.578.993-3.64 1.324-3.97.33-.33 1.655-5.788 1.324-5.29l-1.325-5.294zM149.7 61.06c.006-.005-.028-.053-.133-.176-.457-.39.115.194.134.176zm12.895-3.873c.066.02.157-.035.217-.272-.372-.054-.335.233-.217.272zM150.89 59.56c-1.158-.248-1.82.745-1.323 1.324.58.496.91 1.902 1.324 3.97.415 2.067-.165 5.457 0 7.94.167 2.48-1.323 5.29-2.648 6.614-1.325 1.323.497 3.143 2.65 2.647 2.15-.496 3.062-3.474 5.297-5.293 2.234-1.82 5.794-4.63 7.947-6.615 2.152-1.985 2.65-8.353 2.65-9.263 0-.91-.912-3.143-2.65-3.97-1.74-.826-1.16-.66-1.325 0 .58.083-1.076 1.572-2.65 1.323-1.572-.248-.827-2.232-2.648-2.646-1.822-.412-.828.828-1.325 2.647-.498 1.82-.332.662-1.325 1.323-.994.663-1.408-1.736-1.325-2.645.083-.91 1.076-2.316-1.324-2.647-2.4-.33-.994.497-2.65 1.323-1.655.828-1.82 1.16-3.973 2.647-2.153 1.49-3.31 1.572-3.974 2.647-.663 1.075.165 1.075 0 1.323-.166.248 2.234.496 2.648 0 .414-.496 2.65-2.398 2.65-2.647 0-.248 2.814-1.405 2.648-1.323-.165.083 2.65 0 2.65 0s-.166 1.572-1.325 1.323zM164.706 77.67c-.01.01.045.126.265.424.042-.08-.242-.44-.264-.423zm1.595-.908c-.826.197-1.335 1.33-1.33 1.332.643.868.772 1.562 1.33 1.314.56-.248.725.93 1.325 0s1.76-.6 1.325-1.323c-.435-.724-1.78-1.53-2.65-1.323zM197.25 55.59c.166.167-.828-.495-1.324 0-.497.498-.166 2.813 0 2.647.165-.165 2.98-.248 2.65 0-.332.25-1.49-2.81-1.326-2.646zM198.09 105.872c-.036-.02-.08-.016-.132 0 .16.057.236.052.132 0zm-2.65 1.323c1.18-.074 2.097-1.196 2.518-1.323-.346-.123-1.08-.53-1.193-1.323-.165-1.16 0-1.324 0-1.324s.083-1.407 1.325-1.324c1.242.083 1.16 1.572 2.65 2.647 1.49 1.074 2.483.743 3.973 1.322 1.49.58 1.987 1.902 1.324 2.647-.575.645-1.402 1.29-1.39 1.34.08-.03.11-.04.066-.02-.043.023-.065.03-.066.02-.543.217-3.476 1.45-3.908 1.305-.498-.166-1.325 0-1.325 0s-3.643-.083-3.974 0c-.33.082.332.744-1.323 1.323-1.656.578-1.325 0-1.325 0s-3.146-2.068-3.974-2.647c-.828-.577-2.65-2.314-3.974-1.32-1.324.99-4.884 3.802-6.622 3.968-1.74.165-5.96 4.796-6.623 5.292-.663.496-3.312 10.75-2.65 13.232.662 2.48 6.706 4.88 9.272 5.293 2.566.413 7.533 1.406 9.272 3.97 1.738 2.563.993 18.44 1.324 19.847.33 1.406.58 5.54 2.65 3.97 2.07-1.572 5.38-5.54 6.622-6.616 1.242-1.076 8.278-11.744 9.272-14.555.993-2.81 4.305-5.623 5.298-6.615.993-.993 4.222-4.962 2.65-6.616-1.574-1.655-3.147.744-3.974 0-.828-.746-1.904-3.31-2.65-3.97-.745-.662-3.89-4.135-3.973-6.617-.083-2.48-1.573-5.126 0-5.292 1.573-.165 1.904.497 2.65 1.324.744.827 1.986 8.435 2.648 9.263.488.607 2.047 2.067 2.577 2.566-.37-.58 1.854-1.462 2.722-2.566.91-1.16 2.152-5.955 2.648-7.94.497-1.984-.083-2.976-1.324-2.646-1.242.332-4.47.415-3.974-1.322.497-1.737 2.65-4.3 2.65-3.97 0 .33 4.552 2.564 5.297 2.647.745.082 3.394.248 3.974 1.323.58 1.075 1.326 13.728 1.326 13.232 0-.497 2.4-13.646 2.65-14.555.247-.91 2.317-1.737 2.648-1.324-.408-20.104-9.983-37.964-24.716-49.585-1.902-1.204-3.1-1.983-3.1-2.018 0-.165-2.235.745-2.65 1.323-.413.58-1.158 4.797-1.323 5.293-.166.497 2.65-1.323 3.973 0 1.325 1.324 2.567 1.655 2.65 2.647.082.992-.91 3.556-1.325 2.647-.414-.91-2.153-2.316-2.65-2.647-.496-.33-2.648 1.323-2.648 1.323-.828.248-1.656-.496-1.325 0 .33.496-1.242 3.225-1.325 3.97-.082.744-1.324 2.646-1.324 2.646-1.075-.91-1.738-3.31-1.323-3.97.413-.662-2.98-1.82-5.3-1.323-2.317.496-5.297 2.645-5.297 2.645v2.647s-.083.992-1.325 2.645c-1.24 1.654-1.324 2.646-1.324 2.646s-2.07-2.893-1.324 0c.745 2.896 3.974 5.377 5.3 5.294 1.323-.083 2.565-4.3 2.648-5.293.083-.99 1.076-5.622 1.324-5.29.248.33 1.325 2.066 1.325 2.645 0 .58 2.483 1.985 2.65 2.646.164.664.33 4.22 0 3.97-.332-.247-1.077 1.82-1.326 2.648-.248.827-3.228 2.315-3.973 2.646-.745.33-7.45.413-7.948 2.646-.496 2.233-2.318 3.473-2.65 5.293-.33 1.82 1.657 3.308 1.326 3.97-.33.66-3.726-.414-3.974 1.323-.248 1.736-2.152 2.067 0 3.97 2.153 1.9 3.726 4.548 5.298 1.323 1.573-3.227 1.325-6.122 3.974-6.618 2.65-.496 2.566-1.075 3.974 0 1.407 1.076 2.65 3.556 3.973 3.97 1.325.413.414-1.654 0-2.646-.414-.993-1.738-3.557-1.324-3.97.414-.413 1.904 1.158 2.65 1.323.744.165 1.323 6.698 2.648 6.615zM174.733 86.024c-.29.248-3.27 1.448-2.65 1.324.622-.124.83.992 1.325 1.323.497.33 3.063.456 2.65 0-.415-.454-1.035-2.894-1.325-2.646zM124.4 121.75s.616-2.083 0-2.647c-.616-.563-2.65-1.323-2.65-1.323v1.323l1.326 1.324 1.324 1.323zM128.374 129.69c-.51-.39-4.13.65-3.974 1.322.157.673.027 2.587 0 3.97-.026 1.383-3.16 2.886-2.65 3.97.51 1.083 1.483 5.817 2.65 6.615 1.168.798 8.467 8.353 9.272 10.585.804 2.232 1.83 6.032 2.65 7.94.818 1.907 5.72 5.543 6.622 6.615.35.417 1.14 1.214 2.013 1.992.844.28 1.697.546 2.556.793-1.504-1.51-4.69-3.847-4.57-4.11.167-.356-1.543-2.993 0-3.968 1.544-.975 3.19-3.464 3.974-5.293.785-1.83-1.717-3.633 1.325-3.97 3.042-.337 3.528-7.36 3.974-9.26.445-1.903-7.785-4.65-9.272-5.294-1.487-.646-8.056-6.242-9.272-7.94-1.216-1.697-4.788-3.58-5.298-3.97zM136.32 58.237c.412-.01-1.095-1.115-1.323 0-.23 1.116-.566 2.675 0 2.647.565-.028 3.144.82 2.648 0-.495-.82-1.736-2.634-1.324-2.647zM203.873 154.83c.02 0 .05-.007.08-.027-.307 0-.343.008-.08.026zm3.974-5.293c-.416-.32-3.232 4.835-3.895 5.266.246 0 .665.007 1.245.026 1.306.043 4.068-4.05 3.974-3.97-.093.08 1.836-4.39 1.326-3.97-.51.42-2.214 2.983-2.65 2.647zM127.05 124.397c-.05-.07 1.018-.064 1.284-.027-.01-.16.402-.908.04-1.297-.42-.45-1.24-.128-1.325 0-.086.128.06 1.408 0 1.324z" fill="#4d8343"/></g><path d="M175.333 118.573c1.165 0 2.11.95 2.11 2.117 0 1.166-.945 2.116-2.11 2.116-1.164 0-2.112-.95-2.112-2.117 0-1.168.95-2.117 2.113-2.117zm0-2.46c-2.522 0-4.566 2.05-4.566 4.576 0 2.527 2.044 4.575 4.566 4.575 2.52 0 4.565-2.048 4.565-4.576 0-2.528-2.044-4.576-4.565-4.576zM140.327 140.826c1.164 0 2.11.95 2.11 2.116 0 1.167-.946 2.117-2.11 2.117-1.165 0-2.113-.95-2.113-2.118 0-1.167.948-2.116 2.113-2.116zm0-2.46c-2.522 0-4.566 2.05-4.566 4.576 0 2.528 2.045 4.576 4.567 4.576 2.52 0 4.564-2.048 4.564-4.576 0-2.526-2.043-4.575-4.563-4.575zM123.53 99.504c1.164 0 2.11.95 2.11 2.116 0 1.167-.946 2.117-2.11 2.117-1.165 0-2.112-.95-2.112-2.117s.947-2.116 2.112-2.116zm0-2.46c-2.522 0-4.566 2.05-4.566 4.576 0 2.527 2.044 4.576 4.566 4.576 2.52 0 4.565-2.05 4.565-4.576 0-2.527-2.044-4.575-4.565-4.575z" fill="#fff"/><path d="M119.452 100.012l1.663-1.808-22.348-31.68h-35.05v2.46h34.09l21.645 31.028zM218.21 23.525H63.717v2.46H218.25l-.04-2.46z" fill="#fff"/><path d="M90.793 80.995l-27.44.003v2.46l26.467-.004 29.126 59.14h17.548v-2.46H119.92l-29.127-59.14zM118.06 36.324l-54.708.003v2.46l53.734-.004 37.462 82.398h17.548v-2.458H155.52l-37.46-82.398zM205.58 84.003c1.165 0 2.11.95 2.11 2.116 0 1.166-.945 2.116-2.11 2.116-1.164 0-2.112-.95-2.112-2.117 0-1.168.948-2.117 2.113-2.117zm0-2.46c-2.52 0-4.565 2.05-4.565 4.576s2.044 4.575 4.566 4.575c2.52 0 4.565-2.048 4.565-4.576 0-2.528-2.044-4.576-4.564-4.576zM221.58 23.003c1.165 0 2.11.95 2.11 2.116 0 1.166-.945 2.116-2.11 2.116-1.164 0-2.112-.95-2.112-2.117 0-1.168.948-2.117 2.113-2.117zm0-2.46c-2.52 0-4.565 2.05-4.565 4.576s2.044 4.575 4.566 4.575c2.52 0 4.565-2.05 4.565-4.576 0-2.528-2.044-4.576-4.564-4.576z" fill="#fff"/><path d="M147.83 51.79l-84.478.002v2.46l83.506-.003 21.482 32.018h34.345V83.81h-33.372L147.83 51.79z" fill="#fff"/><g><path d="M171.326 142.683c0 1.632.393 3.172 1.088 4.53-3.425 1.81-5.762 5.427-5.762 9.595 0 5.98 4.812 10.828 10.75 10.828 1.915 0 3.713-.503 5.27-1.388 1.873 2.557 4.886 4.213 8.282 4.213 3.602 0 6.773-1.863 8.61-4.69 1.704 3.346 5.16 5.633 9.15 5.633 3.792 0 7.107-2.068 8.89-5.146 1.51.878 3.26 1.38 5.13 1.38 5.68 0 10.282-4.638 10.282-10.36 0-5.72-4.603-10.357-10.282-10.357-3.793 0-7.107 2.067-8.89 5.146-1.51-.88-3.26-1.38-5.13-1.38-3.602 0-6.773 1.865-8.61 4.69-1.704-3.345-5.16-5.63-9.15-5.63-1.322 0-2.587.25-3.748.71 2.283-1.81 3.748-4.62 3.748-7.773 0-5.46-4.394-9.888-9.814-9.888s-9.814 4.427-9.814 9.888z" fill="#ededed"/><path d="M232.932 150.686h.084c3.097 0 5.608-2.53 5.608-5.65 0-3.12-2.51-5.65-5.608-5.65-1.952 0-3.67 1.005-4.673 2.53v-.175c0-4.42-3.557-8.004-7.945-8.004-3.04 0-5.684 1.72-7.02 4.247-.25-7.588-6.635-13.663-14.48-13.663-6.31 0-11.678 3.936-13.664 9.426l-.355-.01c-4.39 0-7.946 3.584-7.946 8.005 0 1.057.2 2.067.57 2.99-4.148 1.5-7.113 5.498-7.113 10.194 0 5.98 4.813 10.83 10.75 10.83 1.797 0 3.493-.444 4.982-1.23 1.882 1.91 4.605 3.112 7.636 3.112 2.702 0 5.162-.953 6.997-2.514 1.885 2.11 4.75 3.456 7.96 3.456l.49-.01.443.01c2.944 0 5.572-1.37 7.286-3.513 1.693 1.034 3.677 1.63 5.8 1.63 6.195 0 11.217-5.06 11.217-11.3 0-1.68-.365-3.275-1.018-4.71z" fill="#fff"/><path d="M187.215 143.153l.005.24c.12-3.273 2.792-5.89 6.07-5.89 2.528 0 4.694 1.556 5.61 3.767.153.37.27.76.35 1.163.227-.393.498-.757.804-1.088 1.11-1.204 2.694-1.958 4.453-1.958 2.225 0 4.17 1.207 5.23 3.004.193.328.356.674.486 1.036.255-.19.526-.362.81-.513.843-.448 1.8-.702 2.822-.702 3.278 0 5.95 2.618 6.07 5.892l.005-.24c0-3.64-2.93-6.592-6.543-6.592-1.016 0-1.978.233-2.837.65-1.22-2.08-3.47-3.475-6.043-3.475-1.863 0-3.557.735-4.813 1.93-1.042-2.25-3.308-3.814-5.936-3.814-3.613 0-6.543 2.953-6.543 6.593z" fill="#ededed"/></g></svg>