<svg xmlns="http://www.w3.org/2000/svg" width="300" height="215" viewBox="0 0 300 215"><path fill-rule="evenodd" clip-rule="evenodd" fill="#CCC" d="M101.31 85.8l-3.17-1.59 5.81-1.05-.52 2.64"/><path fill-rule="evenodd" clip-rule="evenodd" fill="#FFF" d="M229.4 164.75h.22l-.22.01v-.01zm-37.98 1.28l37.98-1.27.22-.01h1.29s2.14 9.87 2.57 11.3c.43 1.42 1.15 8.03.86 9.38s.29 3.9-4.29 4.47c-4.58.57-15.09 1.64-15.45 1.71-.36.07-5.44.49-7.51.42-2.08-.07-50 .43-50 .43l-.86-.85c-.28-.22.43-.64.43-.64l3.01-.43s19.48-1.522 26.39-2.34c6.91-.83 6.44-10.022 6.44-10.022l-1.08-12.15z"/><path fill-rule="evenodd" clip-rule="evenodd" fill="#DADADA" d="M229.4 164.75h.22l-.22.01v-.01zm2.79 11.08c-.35-2.13-2.57-11.08-2.57-11.08h1.29s2.14 9.87 2.57 11.3c.43 1.42 1.15 8.03.86 9.38s.29 3.9-4.29 4.47c-4.58.57-15.09 1.64-15.45 1.71-.36.07-5.44.49-7.51.42-2.08-.07-50 .43-50 .43l-.86-.85c.29.21 50.22-.64 50.22-.64l4.06-.32s6.38-.04 10.1-.96c3.72-.92 10.08-2.13 10.08-2.13s2.08 0 2.58-2.35c.5-2.34-.72-7.25-1.08-9.38z"/><path fill-rule="evenodd" clip-rule="evenodd" fill="#DADADA" d="M229.4 164.96h.22l-.22.01v-.01zm.22 0h1.29s2.14 9.88 2.57 11.3c.35 1.16.9 5.81.92 8.2l-43.1.1c1.37-2.84 1.2-6.17 1.2-6.17l-1.08-12.15 37.98-1.27.22-.01zM286.05 163.26l2.37-.17c2.74-.07 8.28-.21 8.58-5.38.29-5.16 3-148.15 3-148.15s-.01-.78-.21-1.27c-.21-.5-3.12-4.82-3.12-4.82l-7.54-.68-3.51 135.31-16.95 25.8 17.38-.64z"/><path fill-rule="evenodd" clip-rule="evenodd" fill="#FFF" d="M294.12 139.61l.1 15.12s1 7.67-6.87 8.31c-7.86.64-103.65 3.41-103.65 3.41l-82.18 2.99s-6.3.35-6.01-4.05c.29-4.41 2.33-15.53 2.33-15.53l94.66-4.08 101.62-6.17z"/><path fill-rule="evenodd" clip-rule="evenodd" fill="#313133" d="M290.34 1.48s6.8-2.42 6.87 3.62-.43 24.51-.43 24.51l-2.57 109.57-196.55 11.73S108.17 45.6 108.38 45.39c.22-.21-.16-5.28 5.8-6.4 5.95-1.12 176.16-37.51 176.16-37.51z"/><path fill-rule="evenodd" clip-rule="evenodd" fill="#10ADBC" d="M287.55 11.7L114.82 46.44l-9.44 96.88 179.17-11.94"/><path fill-rule="evenodd" clip-rule="evenodd" fill="#1695A4" d="M191.625 30.875L287.81 9.98l-3.247 121.458-96.313 6.343"/><path fill-rule="evenodd" clip-rule="evenodd" fill="#71797F" d="M277.4 63.01l.05-.03-.18-.07.13.1zm-10.79-37.22c6.94-1.34 12.37 3.16 12.01 10.09-.36 6.97-6.41 13.61-13.41 14.77-6.9 1.14-12.07-3.48-11.66-10.27.41-6.76 6.22-13.27 13.06-14.59zm6.44 35.72l4.22 1.4.18.07.36.11.06-.37c1.39-.87 2.602-1.72 3.93-2.79l-.61-5.24c1.312-1.23 2.36-2.37 3.48-3.78l5.49-.03c1.07-1.57 1.89-2.96 2.72-4.63l-3.36-3.63c.642-1.61 1.08-3.01 1.44-4.64l5.37-2.87c.21-1.72.28-3.18.21-4.84l-1.478-.28-2.46-1.75-.65 1.18-.59-.11c-.21-1.52-.52-2.78-1.02-4.16l3.73-4.84c-.632-1.27-1.28-2.32-2.12-3.41l.12-.28-4.222-1.58-1.72 3.43c-.94-.94-1.86-1.66-3-2.38l1.13-5.38c-1.36-.64-2.59-1.09-4.09-1.47l-4.35 4.16c-1.47-.22-2.77-.3-4.31-.24l-1.62-4.44h-.02l.01-.02-4.23-1.58-3.17 5.81 1.52-.31-.93 2.28c-1.54.57-2.84 1.18-4.31 2l-3.8-2.41c-1.48.99-2.71 1.91-4.07 3.09l.49 4.86c-1.22 1.2-2.19 2.3-3.22 3.65l-4.92.18c-.98 1.48-1.722 2.78-2.49 4.34l2.91 3.35c-.61 1.52-1.02 2.84-1.37 4.38l-4.79 2.67c-.23 1.61-.33 2.98-.312 4.55l4.56 1.01c.15 1.45.4 2.67.83 4.02l-2.65 3.49-.698.04-1.58 3.16 3.17 1.59.09-.42.21.31 5.07-1.63c.9 1.03 1.76 1.83 2.87 2.64l-1.14 5.32c1.27.73 2.43 1.26 3.85 1.75l4.25-3.96c1.09.24 2.08.39 3.17.46l-1.46 2.92s2.63.98 3.98 1.4l.148.44c1.66-.1 3.09-.31 4.78-.69l2.2-5.33c1.59-.51 2.95-1.07 4.49-1.86l-.278 1.29z"/><path fill-rule="evenodd" clip-rule="evenodd" fill="#DBF1FE" d="M263.97 24.21c6.94-1.34 12.37 3.15 12.01 10.09-.36 6.97-6.41 13.61-13.42 14.76-6.89 1.14-12.07-3.48-11.65-10.27.41-6.75 6.22-13.26 13.06-14.58zm-1.41-16.09c1.64-.47 3.05-.77 4.69-.99l1.62 4.45c1.54-.06 2.84.01 4.3.24l4.36-4.16c1.5.38 2.73.82 4.08 1.46l-1.12 5.38c1.19.76 2.13 1.51 3.12 2.51l5.52-1.92c.93 1.18 1.62 2.27 2.3 3.64l-3.73 4.84c.5 1.38.81 2.64 1.022 4.15l5.18.97c.07 1.66 0 3.12-.22 4.84l-5.37 2.86c-.36 1.63-.79 3.03-1.43 4.64l3.36 3.64c-.83 1.67-1.65 3.06-2.722 4.63l-5.49.03c-1.12 1.4-2.17 2.54-3.49 3.78l.62 5.24c-1.48 1.18-2.8 2.11-4.4 3.07l-4.07-2.78c-1.548.78-2.898 1.34-4.5 1.86l-2.198 5.32c-1.68.38-3.11.59-4.77.7l-1.6-4.72c-1.53-.04-2.81-.19-4.24-.51l-4.25 3.96c-1.43-.49-2.58-1.01-3.852-1.75l1.14-5.32c-1.108-.81-1.98-1.6-2.87-2.64l-5.078 1.64c-.8-1.19-1.4-2.29-1.98-3.63L239.93 49c-.42-1.35-.67-2.56-.82-4.02l-4.56-1.01c-.02-1.57.07-2.93.3-4.54l4.79-2.68c.35-1.54.77-2.86 1.37-4.37l-2.9-3.35c.76-1.56 1.51-2.87 2.48-4.35l4.92-.17c1.04-1.35 2.01-2.45 3.23-3.65l-.49-4.87c1.36-1.17 2.59-2.1 4.07-3.08l3.8 2.4c1.47-.82 2.77-1.42 4.3-1.99l2.14-5.2z"/><path fill-rule="evenodd" clip-rule="evenodd" fill="#9A4321" d="M223.99 28.76c3.42-.68 6.01 1.71 5.75 5.35-.26 3.66-3.27 7.15-6.7 7.78-3.41.63-5.93-1.8-5.66-5.4.27-3.6 3.22-7.05 6.61-7.73zm-2.13-6.11l-.47 1.02c-1.11.52-2.06 1.12-3.07 1.92l-3.56-.73c-.78.8-1.4 1.53-2.06 2.43l1.068 3.64c-.64 1.14-1.09 2.18-1.46 3.39l-3.67 2.42c-.16 1.02-.23 1.9-.23 2.89l3.41 1.06c.19 1.11.49 2.02.98 2.95l-.63 1.57c-.59.38-3.29 2.12-3.06 2.04.19-.06 1.5.52 2.2.85.48.56.96 1.02 1.56 1.49l3.81-2.16c.48.23.96.4 1.45.54-.59.88-1.19 1.92-1.09 1.92.13 0 2.56.94 3.68 1.37l.22.59c.96-.07 1.8-.22 2.78-.48l1.95-4.23c1.14-.51 2.12-1.09 3.16-1.89l3.73.85c.82-.81 1.47-1.56 2.16-2.49l-1.17-3.79c.66-1.17 1.13-2.25 1.51-3.49l3.89-2.51c.16-1.06.22-1.96.2-2.99l-3.65-1.04c-.21-1.13-.54-2.05-1.06-2.98l1.73-4.3c-.53-.61-1.05-1.08-1.68-1.55l-.01-.11-3.702-1.59-1.39 3.49c-.62-.17-1.24-.28-1.94-.33l-1.38-3.5-.23.02.18-.2-3.698-1.59-3.17 3.7 2.71 1.8z"/><path fill-rule="evenodd" clip-rule="evenodd" fill="#AB4B25" d="M220.29 27.18c3.42-.69 6.01 1.71 5.75 5.35-.25 3.65-3.27 7.14-6.7 7.77-3.41.63-5.93-1.8-5.66-5.4.27-3.59 3.22-7.05 6.61-7.72zm-.68-9.27c.97-.29 1.8-.47 2.76-.58l1.38 3.5c1.09.08 1.99.3 2.94.7l3.92-2.28c.72.5 1.28 1.01 1.86 1.67l-1.72 4.3c.51.94.84 1.86 1.05 2.98l3.65 1.05c.03 1.02-.04 1.93-.2 2.99l-3.892 2.5c-.38 1.25-.85 2.32-1.51 3.49l1.18 3.8c-.7.92-1.35 1.67-2.17 2.48l-3.73-.84c-1.04.8-2.02 1.38-3.148 1.89l-1.96 4.22c-.98.27-1.82.41-2.78.49l-1.37-3.63c-1.07-.11-1.96-.36-2.89-.8L209.17 48c-.68-.52-1.21-1.05-1.76-1.73l1.69-4.21c-.49-.93-.79-1.84-.98-2.95l-3.41-1.06c0-1 .07-1.87.23-2.9l3.67-2.41c.37-1.21.82-2.26 1.46-3.4L209 25.71c.66-.9 1.28-1.63 2.06-2.43l3.56.72c1.01-.8 1.96-1.39 3.07-1.92l1.92-4.17z"/><path fill-rule="evenodd" clip-rule="evenodd" fill="#937500" d="M222.54 76.88c8.63-1.23 15.27 5.24 14.65 14.53-.62 9.358-8.33 17.75-17.04 18.66-8.54.88-14.77-5.78-14.07-14.81.7-8.97 8-17.17 16.46-18.38zm-11.88 52.61l.43.08.17.03c1.06.19 2.05.3 3.19.36l2.94-5.83c1.22-.022 2.27-.11 3.51-.3l.65 1.63-2.4 2.05 3.78 1.42.14.34c1.41-.31 2.62-.65 4.02-1.13l.95-6.35c1.22-.522 2.25-1.022 3.44-1.69l.43.42.45 2.24 2.91.97.32.3c1.33-.84 2.43-1.62 3.68-2.61l-1.3-5.98c1.06-.94 1.92-1.8 2.88-2.86l5.53 1.8c1.04-1.27 1.86-2.398 2.77-3.77l-3.42-4.7c.72-1.24 1.28-2.33 1.87-3.63l6.17-.63c.58-1.52 1.01-2.82 1.43-4.36l-5.09-2.71c.28-1.36.46-2.51.58-3.86l5.92-2.98c.03-1.38 0-2.57-.1-3.89l.16-.17-.19-.09-.01-.13-.29-.02-3.74-1.87-1.14 1.6-.83-.04c-.2-1.27-.44-2.32-.79-3.52l4.82-4.83c-.5-1.31-.99-2.38-1.65-3.58l-.1.04.22-.23-4.23-1.58-1.58 1.58 1.01 1.77-1.37.47c-.64-1-1.24-1.8-2.01-2.68l3.07-5.93c-.82-.78-1.57-1.42-2.44-2.06l.15-.54s-4.58-1.5-4.75-1.59c-.16-.08-.11 4.02-.03 5.05l-1.05.81c-.98-.59-1.85-1.04-2.91-1.48l.98-6.15c-1.24-.4-2.33-.66-3.64-.89l-3.8 5.4c-1.17-.13-2.182-.16-3.39-.13l-1.09-5.39.128-.39-3.7-1.58-3.17 5.28 1.97-.18-1.09 3.36c-1.2.35-2.21.7-3.39 1.19l-2.98-4.21-.26.13-.06-.29-3.17-1.58-1.59 6.33h1.48l.05 3.23c-1.08.75-1.97 1.45-2.98 2.32l-4.37-2.42c-1.09 1.05-1.97 1.98-2.96 3.13l2.02 4.88c-.83 1.06-1.49 1.99-2.21 3.13l-5.18-.36c-.74 1.32-1.32 2.46-1.93 3.83l3.66 3.38c-.48 1.24-.83 2.3-1.18 3.56l-5.34 1.73c-.31 1.43-.51 2.64-.67 4.07l4.82 1.48c-.07 1.26-.07 2.32 0 3.55l-2.94 2.21-.23-.23s-4.58 4.05-4.76 4.23c-.14.13 2.56.71 3.71.95l.07.28 5.39-.63c.35 1.12.71 2.05 1.2 3.1l-1.52 2.1h-2.51l-1.58 4.23 3.478 1.31.41.56 5.27-2.72c.74.852 1.42 1.522 2.28 2.25l-1.42 4.22-.51-.34-1.06 2.642 3.06.87c.31.19.64.37.98.55l4.44-4.54c1.04.45 1.97.77 3.08 1.06l.02 3.08-3.65 1.62 3.66 1.37v.078zm.43.08l.13.05.04-.02-.17-.03z"/><path fill-rule="evenodd" clip-rule="evenodd" fill="#F2C300" d="M218.84 75.3c8.63-1.24 15.27 5.24 14.65 14.53-.61 9.35-8.33 17.74-17.04 18.65-8.54.89-14.77-5.77-14.07-14.8.7-8.97 8-17.17 16.46-18.38zm-.57-18.71c1.36-.31 2.53-.5 3.89-.64l1.13 5.53c1.2-.04 2.21 0 3.38.12l3.802-5.4c1.31.23 2.4.5 3.64.9l-.98 6.14c1.06.45 1.93.89 2.91 1.49l5.26-4.05c1.06.76 1.92 1.47 2.86 2.38l-3.07 5.92c.77.88 1.37 1.68 2.01 2.68l6.05-2.04c.66 1.2 1.15 2.27 1.65 3.58l-4.82 4.82c.36 1.2.59 2.26.79 3.52l6 .33c.14 1.48.18 2.77.14 4.29l-5.92 2.97c-.12 1.35-.3 2.51-.58 3.87l5.09 2.7c-.42 1.55-.84 2.85-1.43 4.36l-6.17.64c-.59 1.3-1.15 2.39-1.87 3.63l3.42 4.7c-.9 1.37-1.728 2.49-2.77 3.76L237.15 111c-.96 1.06-1.82 1.91-2.88 2.86l1.3 5.97c-1.25.99-2.35 1.78-3.68 2.62l-4.11-3.93c-1.19.67-2.22 1.17-3.44 1.69l-.95 6.35c-1.4.48-2.61.82-4.02 1.12l-2.17-5.44c-1.24.19-2.29.28-3.5.31l-2.95 5.83c-1.35-.08-2.49-.22-3.79-.47l-.03-6.15c-1.11-.3-2.04-.61-3.08-1.06l-4.44 4.54c-1.12-.6-2.04-1.18-3.06-1.93l2.01-6.02c-.85-.72-1.54-1.39-2.28-2.24l-5.27 2.72c-.75-1.03-1.34-1.95-1.97-3.08l3.69-5.13c-.49-1.04-.85-1.97-1.2-3.1l-5.39.63c-.31-1.3-.51-2.44-.67-3.812l4.83-3.63c-.08-1.23-.08-2.29-.01-3.55l-4.82-1.48c.16-1.42.36-2.64.67-4.06l5.35-1.73c.34-1.26.69-2.33 1.17-3.56l-3.66-3.39c.61-1.36 1.19-2.51 1.93-3.82l5.19.36c.71-1.14 1.37-2.08 2.2-3.14l-2.02-4.87c.99-1.15 1.87-2.09 2.96-3.13l4.37 2.41c1.01-.87 1.9-1.56 2.98-2.32l-.09-5.78c1.25-.79 2.34-1.4 3.64-2.04l2.978 4.22c1.18-.49 2.19-.85 3.4-1.19l1.932-5.99z"/><path fill-rule="evenodd" clip-rule="evenodd" fill="#71797F" d="M265.72 32.2c3.26-.61 5.79 1.52 5.61 4.75-.17 3.25-2.99 6.35-6.27 6.92-3.25.56-5.72-1.59-5.53-4.8.18-3.2 2.95-6.27 6.19-6.87zm.17-3.12c5.03-.96 8.94 2.3 8.68 7.29-.27 5.02-4.63 9.8-9.69 10.65-5 .85-8.77-2.47-8.478-7.39.287-4.9 4.518-9.61 9.49-10.55z"/><path fill-rule="evenodd" clip-rule="evenodd" fill="#DBF1FE" d="M263.6 30.62c3.27-.61 5.79 1.51 5.62 4.75-.18 3.25-2.99 6.35-6.27 6.91-3.26.56-5.73-1.59-5.54-4.79.19-3.2 2.95-6.27 6.19-6.87zm.18-3.13c5.03-.95 8.94 2.31 8.67 7.3-.26 5.01-4.62 9.79-9.68 10.65-5 .85-8.78-2.47-8.48-7.39.29-4.9 4.52-9.62 9.49-10.56z"/><path fill-rule="evenodd" clip-rule="evenodd" fill="#937500" d="M219.99 80.97c5.43-.74 9.55 3.34 9.16 9.14-.4 5.82-5.2 11.05-10.66 11.66-5.38.6-9.35-3.55-8.92-9.24.43-5.67 5.07-10.83 10.42-11.56zm.16-2.17c6.57-.91 11.58 4.02 11.1 11.04-.47 7.07-6.3 13.41-12.91 14.14-6.52.71-11.29-4.33-10.77-11.2.52-6.85 6.11-13.08 12.58-13.98z"/><path fill-rule="evenodd" clip-rule="evenodd" fill="#FEC110" d="M218.41 79.91c5.42-.73 9.55 3.34 9.15 9.14-.4 5.82-5.2 11.06-10.65 11.67-5.39.6-9.35-3.55-8.92-9.25.43-5.67 5.06-10.83 10.42-11.56zm.15-2.16c6.57-.91 11.58 4.01 11.11 11.04-.48 7.06-6.31 13.41-12.92 14.13-6.51.71-11.29-4.32-10.76-11.2.52-6.84 6.11-13.08 12.57-13.97z"/><path fill="#15161E" d="M260.49 46.832c-.353 0-.697-.022-1.027-.067-7.11-.24-22.75-2.722-33.1-4.364-4.23-.67-7.572-1.2-9.337-1.425-1.828-.255-3.118-1.037-3.84-2.324-.933-1.666-.79-4.093.405-6.83 1.957-4.523 5.007-5.473 7.22-5.473.454 0 .926.04 1.4.12 2.558.2 9.54.33 18.18.33 9.02 0 19.88-.15 23.817-.485 3.823.23 6.408 1.352 7.757 3.333 1.345 1.975 1.445 4.763.3 8.29-1.784 5.495-7.5 8.897-11.774 8.897zm-39.68-19.484c-2.782 0-4.902 1.64-6.3 4.87-1.067 2.447-1.227 4.558-.45 5.946.56 1 1.603 1.612 3.1 1.82 1.773.226 5.122.757 9.362 1.43 10.324 1.638 25.927 4.114 33.024 4.356.34.043.64.062.944.062 3.923 0 9.178-3.138 10.824-8.207 1.044-3.216.985-5.712-.176-7.417-1.166-1.713-3.494-2.688-6.92-2.9-3.892.338-14.788.49-23.828.49-8.665 0-15.678-.13-18.3-.34-.463-.075-.88-.11-1.28-.11z"/><path fill="#15161E" d="M216.103 104.125c-2.718 0-5.29-.838-7.44-2.423-2.07-1.61-3.238-4.114-3.386-7.247-.217-4.594 1.86-9.898 5.05-12.9 2.732-3.627 15.522-17.574 26.806-29.88 7.888-8.6 14.7-16.03 16.543-18.263 3.91-4.744 7.885-7.25 11.495-7.25 1.287 0 2.522.315 3.67.94 1.908 1.036 3.096 2.46 3.53 4.23.55 2.24-.18 5.008-2.054 7.797-6.905 12.647-41.658 57.91-42.01 58.365-2.892 4.144-7.46 6.63-12.203 6.63zM265.17 27.16c-3.302 0-7.01 2.38-10.724 6.887-1.86 2.254-8.68 9.692-16.578 18.304-11.27 12.29-24.04 26.218-26.8 29.87-3.05 2.88-4.997 7.865-4.793 12.188.093 1.975.687 4.705 2.99 6.497 1.967 1.45 4.334 2.22 6.837 2.22 4.417 0 8.68-2.326 11.397-6.22.362-.475 35.068-45.675 41.96-58.294 1.74-2.59 2.42-5.077 1.938-7.04-.365-1.485-1.387-2.693-3.037-3.59-1-.544-2.072-.82-3.19-.82z"/><path fill-rule="evenodd" clip-rule="evenodd" fill="#CCC" d="M192.2 32.99l1.06 3.17-4.23.53"/><path fill-rule="evenodd" clip-rule="evenodd" fill="#666D73" d="M147.68 57c4.72-.86 8.15 2.84 7.62 8.3-.53 5.47-4.85 10.54-9.59 11.28-4.68.73-7.98-3.04-7.43-8.4.56-5.34 4.74-10.33 9.4-11.18zm.4-3.97c6.66-1.24 11.54 3.95 10.8 11.66-.75 7.76-6.88 14.92-13.58 15.93-6.59 1-11.2-4.33-10.41-11.86.79-7.49 6.65-14.51 13.19-15.73z"/><path fill-rule="evenodd" clip-rule="evenodd" fill="#666D73" d="M149.08 43.68c11.59-2.32 20.25 6.61 18.99 20.1-1.26 13.62-12.08 26.14-23.81 27.77-11.39 1.57-19.23-7.78-17.83-20.72 1.38-12.82 11.39-24.91 22.65-27.15zm-.5-28.55l-4.75 11.8c-2.4 1.05-4.44 2.14-6.75 3.63l-6.68-4.69-.02-.27-4.23-1.58-1.06 4.22 1.39.01c-.87.8-1.73 1.62-2.63 2.53l.85 10.79c-1.86 2.2-3.35 4.22-4.92 6.68l-9.52 1.12c-1.33 2.53-2.35 4.75-3.4 7.39l5.82 6.88c-.82 2.72-1.36 5.08-1.78 7.8l-9.02 6.98c-.14 2.25-.158 4.2-.06 6.3l-1.04-1.04-2.11.53 3.17 1.59.04-.04v.13l9.1 1.06c.45 2.49 1.02 4.54 1.89 6.78L107 104.84c.2.36.39.71.58 1.05l-.98 2.61 3.6 1.35.36.47 9.8-5.37c1.67 1.52 3.242 2.64 5.21 3.7l-.58 12.25c2.13.79 4.04 1.29 6.35 1.66l7.36-10.72c2.45-.01 4.6-.25 7.13-.81l3.57 6.12-2.11 1.91 4.22 1.59.65-.36c2.25-.8 4.26-1.68 6.54-2.85l2.01-12.97c2.46-1.66 4.5-3.29 6.76-5.4l10.42 3.22c2.12-2.38 3.83-4.54 5.68-7.2l-4.63-10.7c1.58-2.8 2.76-5.31 3.91-8.28l11.85-4.54c.85-3.06 1.4-5.68 1.84-8.73l-9.92-4.43c.12-2.94 0-5.41-.38-8.18l9.09-10.55c-.72-2.58-1.51-4.68-2.608-6.99l-.38.11-3.84-1.92-.522 3.12-6.92 1.92c-1.33-2.04-2.66-3.61-4.38-5.21l3.48-12.52c-1.94-1.23-3.7-2.12-5.85-2.94l-9.5 9.22c-2.25-.52-4.272-.74-6.67-.72l-2.462-9.62.06-.15-.11-.05-.11-.44-.59.09-3.42-1.71-1.55 2.84c-.45.13-.91.27-1.378.42z"/><path fill-rule="evenodd" clip-rule="evenodd" fill="#DBF1FE" d="M145.38 42.09c11.59-2.31 20.25 6.61 18.99 20.1-1.26 13.63-12.08 26.15-23.81 27.77-11.39 1.58-19.23-7.77-17.83-20.72 1.38-12.82 11.39-24.9 22.65-27.15zm-.5-28.54c2.43-.78 4.52-1.27 6.94-1.65l2.62 10.26c2.41-.01 4.42.2 6.67.72l9.5-9.22c2.16.83 3.91 1.71 5.85 2.95l-3.48 12.52c1.72 1.59 3.05 3.16 4.38 5.2l11.66-3.22c1.1 2.3 1.89 4.4 2.61 6.98l-9.09 10.56c.38 2.76.5 5.23.38 8.18l9.92 4.43c-.44 3.04-.99 5.67-1.84 8.72l-11.85 4.54c-1.14 2.98-2.33 5.48-3.91 8.29l4.63 10.7c-1.85 2.65-3.56 4.82-5.68 7.2l-10.42-3.23c-2.26 2.11-4.3 3.74-6.75 5.4L155 115.85c-2.54 1.31-4.74 2.25-7.31 3.13l-5.56-9.53c-2.53.56-4.68.8-7.12.8l-7.37 10.73c-2.312-.37-4.222-.87-6.352-1.66l.58-12.25c-1.97-1.07-3.54-2.18-5.21-3.71l-9.8 5.38c-1.39-1.78-2.46-3.43-3.56-5.49l5.87-11.1c-.87-2.24-1.44-4.29-1.89-6.78l-9.1-1.07c-.16-2.56-.16-4.8 0-7.46l9.02-6.98c.42-2.73.96-5.09 1.78-7.81l-5.82-6.87c1.05-2.64 2.07-4.86 3.4-7.39l9.53-1.13c1.56-2.45 3.05-4.47 4.91-6.68l-.85-10.79c2-2.01 3.78-3.61 5.94-5.34l7.29 5.13c2.31-1.49 4.35-2.59 6.75-3.63l4.75-11.8z"/><path fill-rule="evenodd" clip-rule="evenodd" fill="#DBF1FE" d="M143.98 55.42c4.72-.86 8.15 2.84 7.62 8.29-.53 5.48-4.85 10.54-9.59 11.29-4.68.73-7.98-3.04-7.43-8.4.56-5.34 4.74-10.34 9.4-11.18zm.4-3.97c6.66-1.25 11.54 3.95 10.8 11.66-.75 7.75-6.87 14.91-13.58 15.93-6.582 1-11.2-4.34-10.412-11.87.79-7.49 6.652-14.5 13.19-15.72z"/><path fill-rule="evenodd" clip-rule="evenodd" fill="#063133" d="M43.01 113.68l77.43-45.82 7.76 18.34-77.22 45.7"/><path fill-rule="evenodd" clip-rule="evenodd" d="M43.01 113.68l77.43-45.82 4.11 9.72-77.32 45.76"/><path fill-rule="evenodd" clip-rule="evenodd" fill="#063133" d="M111.8 79.54c5.42 12.79 20.06 18.55 32.72 12.9 9.69-4.32 15.45-14.08 15.22-24.17l-6.72 12.72-18.73.68-9.87-17.39 8.13-13.92s16.79-1.44 16.2-.8c-.19.2.89.29 2.45.3-6.99-6.09-17.1-7.93-26.21-3.86-12.72 5.68-18.62 20.72-13.19 33.54z"/><path fill-rule="evenodd" clip-rule="evenodd" fill="#E9C094" d="M58.83 87.47s.93-4.3 3.21-4.3 4.29 3.22 4.29 3.22 1.88-5.77 5.36-5.36c3.49.4 5.37 5.36 5.37 5.36s.53-6.71 5.36-6.44c4.82.27 6.43 5.37 6.43 5.37s-.67-7.38 4.29-7.52c4.96-.13 5.36 7.52 5.36 7.52l-1.07 15.03s6.57 3.49 7.5 5.37c.94 1.88-5.76 18.39-6.43 20.4-.67 2.022-2.95 8.33-7.51 11.82-4.55 3.49-22.51 3.22-22.51 3.22s-11.66-7.12-11.8-12.89c-.13-5.77 2.15-40.8 2.15-40.8z"/><path fill-rule="evenodd" clip-rule="evenodd" fill="#F7F7F7" d="M97.61 135.01v11.01l-40-1v-10.01"/><path fill-rule="evenodd" clip-rule="evenodd" fill="#052729" d="M99.62 144.7l.05 48.46s-47.3.29-47.02 0c.29-.29 3.96-48.46 3.96-48.46h43.01z"/></svg>