<svg viewBox="0 0 1110 210" style="background-color:#ffffff00" xmlns="http://www.w3.org/2000/svg" width="1110" height="210"><g opacity=".071"><path d="M631.997 173.915L512.47 188.37l.106.99 119.528-14.455-.107-.99zM476.56 133.67l-.79.535 34.54 57.334.792-.538-34.54-57.334z"/><path d="M647.326 62.17l-169.52 73.233.354.922L647.68 63.09l-.354-.92zM510.896 190.512l-102.748-10.85.355.922 102.747 10.85-.354-.922zM227.292 152.6l-94.536 10.096.354.923 94.536-10.1-.354-.92z"/><path d="M648.103 62.255L510.85 189.452l.62.75L648.72 63.003l-.62-.75z"/><path d="M647.49 62.565L633.404 176.27l.932.13 14.088-113.705-.932-.13z"/><path d="M647.26 62.182l-.42.89 59.99 31.8.42-.89-59.99-31.8zM705.342 95.04l-74.988 80.944.67.7 74.988-80.945-.67-.7z"/><path d="M705.717 93.71l-29.996 59.744.83.47 29.997-59.744-.83-.47z"/><path d="M677.017 153.085l-43.612 22.232.83.47 43.61-22.232-.828-.47z"/><path d="M844.62 104.06l-171.337 49.626.248.962 171.34-49.626-.25-.96zM843.076 106.564l.008.994 151.836-19.62-.008-.993-151.836 19.62z"/><path d="M779.49 75.177l-.38.912 64.083 29.87.378-.91-64.08-29.873z"/><path d="M780.103 75.147l-75.898 18.79.213.972 75.898-18.792-.213-.97zM926.303 48.228l-84.533 55.89.497.844 84.533-55.89-.497-.844z"/><path d="M926.308 49.17l-.422.89 70.444 37.58.422-.89-70.444-37.58z"/><path d="M995.926 85.843l-.588.776 50.447 42.88.587-.776-50.447-42.88z"/><path d="M995.21 87.66l-.065.995 63.627 4.82.065-.995-63.626-4.82z"/><path d="M1058.372 90.855L1042.92 129.4l.864.388 15.453-38.545-.865-.388zM1059.464 91.564l-.41.897 47.72 24.574.41-.897-47.72-24.573z"/><path d="M1105.987 116.095l-60.9 11.563.166.98 60.9-11.562-.166-.98zM492.3 100.184l-15.675 34.59.847.433 15.674-34.59-.847-.433zM559.162 83.296l-67.494 14.92.19.975 67.496-14.92-.192-.974zM648.39 62.01L557.56 81.93l.19.975 90.827-19.922-.19-.974zM630.128 3.873l-.872.372 20.67 54.453.873-.372-20.672-54.453z"/><path d="M631.87 5.03l-73.915 76.367.656.713 73.915-76.365-.655-.714z"/><path d="M631.485 4.898l-114.63 22.578.172.98 114.63-22.58-.172-.978z"/><path d="M516.056 26.99l-.734.623 43.22 57.11.735-.624-43.22-57.11zM516.695 29.533l-102.728 67.07.493.85L517.188 30.38l-.493-.847z"/><path d="M412.975 95.865l-.03.996 82.06 2.658.027-.996-82.057-2.657z"/><path d="M411.302 95.923l-.44.88 68.275 38.515.442-.88L411.3 95.924z"/><path d="M413.117 93.03l-1.88 86.328.94.023 1.88-86.325-.94-.024zM474.78 135.897l-60.53 42.508.94.023 60.53-42.508-.94-.023z"/><path d="M413.152 97.503l-35.704 92.967.87.376 35.704-92.967-.87-.377z"/><path d="M347.352 71.325l-.324.936 68.276 26.563.324-.935-68.276-26.563zM345.134 68.992l-.9.288 33.826 118.867.9-.29-33.826-118.865z"/><path d="M347.998 73.625L333.59 118.78l.89.32 14.408-45.156-.89-.32zM249.48 71.96l-.013.995 97.09 1.328.012-.996-97.09-1.328z"/><path d="M250.94 73.342l-.43.886 83.937 45.82.43-.886-83.936-45.82z"/><path d="M252.3 74.752l-.645.722 60.76 61.093.647-.72-60.76-61.095zM311.646 136.808l-3.76 31.874.933.125 3.758-31.875-.932-.124z"/><path d="M331.202 143.153l-25.056 25.9.656.713 25.056-25.898-.656-.715zM312.902 135.74l-.327.933 16.913 6.64.326-.934-16.912-6.64z"/><path d="M329.692 144.342l-.082.992 21.297 1.993.082-.993-21.298-1.992zM351.33 148.533l-.764.58 26.935 39.843.764-.58-26.934-39.843z"/><path d="M413.48 178.885l-36.958 9.297.216.968 36.957-9.297-.216-.968zM198.962 101.24l-.455.87L309.38 167.19l.454-.872-110.872-65.077zM246.74 74.676l-45.725 26.562.45.874 45.728-26.563-.452-.874zM148.218 106.715l-.442.88 77.516 43.827.442-.88-77.516-43.827z"/><path d="M200.114 101.18l-49.8 3.485.063.994 49.798-3.487-.06-.994z"/><path d="M200.09 101.94l-.83.47 27.248 54.285.83-.47-27.25-54.285zM104.5 82.795l-.388.907 45.57 21.914.39-.907L104.5 82.794zM79.528 148.01l-.24.964 51.206 14.443.242-.963-51.208-14.443z"/><path d="M223.208 151.004l-.24.963 86.844 16.774.24-.962-86.844-16.774zM106.624 82.57l-.877.36 28.188 77.694.877-.358-28.188-77.695zM102.925 84.074l-23.02 67.236.884.34 23.02-67.235-.885-.34z"/><path d="M105.83 81.43l-31.946 39.345.712.65 31.946-39.345-.712-.65zM71.897 124.503l-12.684 80.184.926.166 12.684-80.184-.927-.167zM70.823 125.103L6.46 144.528l.258.957L71.08 126.06l-.257-.957zM7.87 147.15l-.68.69 51.207 56.777.68-.69-51.208-56.776z"/><path d="M79.913 148.3l-21.61 55.284.867.38 21.61-55.28-.867-.383z"/><path d="M64.696 204.947c0-2.79-2.134-5.055-4.767-5.055-2.634 0-4.768 2.264-4.768 5.055 0 2.79 2.134 5.053 4.767 5.053 2.632 0 4.766-2.264 4.766-5.053zM137.888 163.005c0-2.79-2.134-5.054-4.767-5.054-2.632 0-4.766 2.264-4.766 5.055 0 2.79 2.134 5.054 4.767 5.054 2.634 0 4.768-2.265 4.768-5.055zM84.27 149.465c0-2.79-2.134-5.055-4.767-5.055-2.633 0-4.767 2.264-4.767 5.055 0 2.79 2.134 5.053 4.767 5.053 2.633 0 4.767-2.263 4.767-5.053zM77.645 123.335c0-2.79-2.134-5.054-4.767-5.054-2.633 0-4.767 2.264-4.767 5.055 0 2.79 2.135 5.054 4.768 5.054s4.767-2.265 4.767-5.055zM9.534 145.53c0-2.79-2.134-5.053-4.767-5.053-2.633 0-4.767 2.263-4.767 5.054 0 2.79 2.134 5.054 4.767 5.054 2.633 0 4.767-2.263 4.767-5.053zM109.448 82.597c0-2.79-2.135-5.054-4.768-5.054s-4.767 2.263-4.767 5.054c0 2.79 2.135 5.053 4.767 5.053 2.633 0 4.768-2.263 4.768-5.053zM156.622 107.04c0-2.79-2.135-5.055-4.768-5.055s-4.767 2.264-4.767 5.055c0 2.79 2.134 5.053 4.767 5.053 2.633 0 4.768-2.263 4.768-5.053zM204.856 101.42c0-2.79-2.135-5.054-4.768-5.054s-4.767 2.264-4.767 5.054c0 2.79 2.135 5.054 4.768 5.054s4.768-2.264 4.768-5.054zM231.888 153.4c0-2.792-2.134-5.055-4.767-5.055-2.632 0-4.766 2.263-4.766 5.054 0 2.79 2.134 5.053 4.767 5.053 2.634 0 4.768-2.263 4.768-5.054zM254.415 74.73c0-2.79-2.134-5.053-4.767-5.053-2.633 0-4.767 2.263-4.767 5.054 0 2.79 2.135 5.055 4.768 5.055s4.767-2.263 4.767-5.054zM317.49 136.823c0-2.79-2.133-5.054-4.766-5.054s-4.768 2.262-4.768 5.053c0 2.79 2.135 5.053 4.768 5.053s4.767-2.263 4.767-5.053zM337.368 143.004c0-2.79-2.135-5.055-4.768-5.055s-4.767 2.263-4.767 5.054c0 2.79 2.134 5.053 4.767 5.053 2.633 0 4.768-2.263 4.768-5.053zM340.017 119.403c0-2.79-2.134-5.054-4.767-5.054-2.633 0-4.767 2.262-4.767 5.053 0 2.79 2.134 5.053 4.767 5.053 2.633 0 4.767-2.263 4.767-5.053zM352.21 72.765c0-2.79-2.135-5.055-4.768-5.055s-4.768 2.264-4.768 5.055c0 2.79 2.135 5.053 4.768 5.053 2.632 0 4.767-2.264 4.767-5.053zM356.45 147.78c0-2.79-2.135-5.054-4.768-5.054s-4.767 2.263-4.767 5.054c0 2.79 2.134 5.053 4.767 5.053 2.633 0 4.767-2.263 4.767-5.053zM314.045 168.57c0-2.79-2.134-5.053-4.767-5.053-2.633 0-4.767 2.263-4.767 5.054 0 2.79 2.135 5.055 4.768 5.055s4.767-2.264 4.767-5.054zM381.096 187.957c0-2.79-2.134-5.055-4.767-5.055-2.634 0-4.768 2.264-4.768 5.055 0 2.79 2.134 5.053 4.767 5.053 2.632 0 4.766-2.263 4.766-5.053zM415.02 178.967c0-2.79-2.135-5.055-4.768-5.055s-4.767 2.264-4.767 5.055c0 2.79 2.134 5.053 4.767 5.053 2.633 0 4.767-2.264 4.767-5.053zM418.2 96.646c0-2.79-2.135-5.054-4.768-5.054s-4.767 2.264-4.767 5.054c0 2.79 2.134 5.053 4.767 5.053 2.633 0 4.768-2.264 4.768-5.054zM482.865 135.137c0-2.79-2.134-5.054-4.767-5.054-2.633 0-4.767 2.264-4.767 5.054 0 2.79 2.135 5.053 4.768 5.053s4.767-2.263 4.767-5.053zM497.177 99.175c0-2.79-2.135-5.054-4.768-5.054-2.634 0-4.768 2.265-4.768 5.055 0 2.79 2.135 5.053 4.767 5.053 2.632 0 4.767-2.263 4.767-5.053zM564.228 82.6c0-2.792-2.135-5.056-4.768-5.056s-4.767 2.264-4.767 5.055c0 2.79 2.135 5.052 4.767 5.052 2.633 0 4.768-2.263 4.768-5.053zM637.7 174.81c0-2.792-2.134-5.056-4.768-5.056-2.633 0-4.767 2.264-4.767 5.055 0 2.788 2.134 5.05 4.767 5.05 2.634 0 4.768-2.262 4.768-5.05zM680.275 154.535c0-2.79-2.134-5.054-4.768-5.054-2.633 0-4.767 2.265-4.767 5.055 0 2.79 2.134 5.054 4.767 5.054 2.634 0 4.768-2.265 4.768-5.055zM711.665 94.483c0-2.79-2.134-5.055-4.768-5.055-2.633 0-4.768 2.264-4.768 5.055 0 2.79 2.134 5.053 4.767 5.053 2.634 0 4.768-2.264 4.768-5.053zM785.632 75.74c0-2.792-2.135-5.055-4.768-5.055-2.634 0-4.768 2.263-4.768 5.054 0 2.79 2.135 5.053 4.768 5.053s4.768-2.264 4.768-5.054zM846.248 104.045c0-2.79-2.135-5.055-4.768-5.055s-4.768 2.264-4.768 5.055c0 2.79 2.135 5.053 4.768 5.053 2.634 0 4.768-2.263 4.768-5.053zM515.935 190.79c0-2.79-2.134-5.053-4.767-5.053-2.634 0-4.768 2.264-4.768 5.054 0 2.79 2.134 5.055 4.768 5.055 2.633 0 4.767-2.264 4.767-5.054zM932.12 48.58c0-2.79-2.133-5.053-4.767-5.053-2.633 0-4.767 2.264-4.767 5.054 0 2.79 2.134 5.055 4.767 5.055 2.634 0 4.768-2.264 4.768-5.054zM1000.313 85.684c0-2.79-2.134-5.055-4.767-5.055-2.634 0-4.768 2.263-4.768 5.054 0 2.79 2.134 5.053 4.768 5.053 2.633 0 4.767-2.264 4.767-5.053zM1048.662 127.377c0-2.79-2.135-5.055-4.768-5.055s-4.768 2.264-4.768 5.055c0 2.79 2.135 5.053 4.768 5.053s4.768-2.263 4.768-5.053zM1110 116.285c0-2.79-2.134-5.054-4.768-5.054-2.633 0-4.767 2.264-4.767 5.055 0 2.79 2.134 5.053 4.767 5.053 2.634 0 4.768-2.264 4.768-5.053zM1063.094 91.422c0-2.79-2.134-5.055-4.768-5.055-2.633 0-4.767 2.264-4.767 5.055 0 2.79 2.133 5.053 4.766 5.053 2.634 0 4.768-2.264 4.768-5.053zM634.723 5.054c0-2.79-2.134-5.054-4.766-5.054-2.633 0-4.767 2.264-4.767 5.054 0 2.79 2.134 5.053 4.766 5.053 2.633 0 4.767-2.263 4.767-5.053zM653.01 62.09c0-2.792-2.134-5.056-4.766-5.056-2.633 0-4.767 2.264-4.767 5.055 0 2.788 2.134 5.052 4.767 5.052 2.632 0 4.766-2.264 4.766-5.053zM521.294 29.78c0-2.792-2.134-5.055-4.767-5.055-2.633 0-4.767 2.263-4.767 5.054 0 2.79 2.134 5.053 4.767 5.053 2.633 0 4.767-2.264 4.767-5.054z"/></g></svg>