<svg viewBox="0 0 760 143" style="background-color:#ffffff00" xmlns="http://www.w3.org/2000/svg" width="760" height="143"><g opacity=".071"><path d="M432.72 118.428l-81.84 9.843.073.675 81.84-9.843-.074-.674zM326.294 91.022l-.542.365 23.65 39.042.54-.367-23.648-39.04z"/><path d="M443.214 42.334l-116.068 49.87.243.627 116.067-49.868-.243-.628zM349.803 129.73l-70.35-7.39.242.63 70.35 7.387-.242-.628zM155.624 103.912l-64.728 6.876.242.63 64.728-6.878-.243-.628z"/><path d="M443.746 42.393l-93.974 86.615.423.51 93.975-86.615-.424-.51z"/><path d="M443.327 42.603l-9.646 77.43.64.087 9.646-77.428-.64-.09z"/><path d="M443.17 42.343l-.29.607 41.076 21.653.287-.607-41.074-21.653zM482.937 64.718l-51.343 55.12.458.475 51.343-55.12-.458-.475z"/><path d="M483.194 63.812l-20.538 40.683.568.32 20.538-40.683-.568-.32z"/><path d="M463.543 104.244l-29.86 15.14.568.318 29.86-15.138-.567-.32z"/><path d="M578.3 70.86l-117.313 33.793.17.654 117.312-33.792-.17-.654zM577.24 72.565l.007.677 103.96-13.36-.006-.676-103.96 13.36z"/><path d="M533.705 51.192l-.26.62 43.876 20.343.26-.622-43.875-20.34z"/><path d="M534.125 51.172l-51.967 12.796.146.66 51.966-12.795-.145-.66zM634.225 32.84L576.347 70.9l.34.574 57.88-38.058-.342-.575z"/><path d="M634.23 33.482l-.29.606 48.232 25.59.29-.605-48.233-25.59z"/><path d="M681.895 58.455l-.402.528 34.54 29.2.402-.528-34.54-29.2z"/><path d="M681.406 59.693l-.046.677 43.565 3.28.045-.676-43.564-3.28z"/><path d="M724.65 61.868l-10.58 26.247.593.264 10.58-26.248-.592-.264zM725.4 62.35l-.283.612 32.674 16.733.283-.61L725.4 62.35z"/><path d="M757.253 79.055l-41.697 7.874.113.667 41.696-7.874-.113-.668zM337.07 68.22l-10.732 23.555.58.294 10.732-23.555-.58-.294zM382.85 56.72l-46.213 10.16.132.665 46.21-10.16-.13-.664zM443.942 42.225L381.754 55.79l.13.665 62.188-13.566-.13-.665zM431.44 2.638l-.598.253 14.153 37.08.597-.252-14.153-37.08z"/><path d="M432.632 3.426l-50.61 52 .45.487 50.608-52-.448-.487z"/><path d="M432.368 3.336L353.883 18.71l.118.666 78.486-15.374-.118-.666z"/><path d="M353.335 18.38l-.502.424 29.593 38.887.502-.423-29.593-38.888zM353.773 20.11l-70.336 45.672.337.578 70.337-45.672-.337-.577z"/><path d="M282.757 65.28l-.02.678 56.185 1.81.02-.68-56.185-1.808z"/><path d="M281.612 65.32l-.302.598 46.748 26.227.302-.598-46.748-26.228z"/><path d="M282.855 63.35l-1.287 58.784.644.016 1.286-58.784-.643-.016zM325.075 92.54l-41.444 28.945.645.016 41.443-28.945-.643-.016z"/><path d="M282.88 66.395L258.432 129.7l.595.257 24.446-63.306-.595-.255z"/><path d="M237.826 48.57l-.22.636 46.746 18.088.222-.637-46.748-18.088zM236.308 46.98l-.616.197 23.16 80.942.615-.197-23.16-80.943z"/><path d="M238.27 50.135l-9.866 30.75.61.216 9.864-30.747-.61-.218zM170.814 49l-.008.68 66.476.903.01-.678L170.813 49z"/><path d="M171.815 49.943l-.294.602 57.47 31.202.295-.603-57.47-31.2z"/><path d="M172.747 50.903l-.443.49 41.602 41.603.443-.49-41.603-41.603zM213.38 93.16l-2.574 21.705.638.084 2.573-21.706-.638-.085z"/><path d="M226.77 97.48l-17.157 17.636.45.487 17.155-17.636-.45-.486zM214.24 92.432l-.225.636 11.58 4.52.224-.634-11.58-4.522z"/><path d="M225.735 98.29l-.056.676 14.58 1.357.057-.676-14.582-1.357zM240.55 101.144l-.523.394 18.442 27.132.522-.395-18.442-27.13z"/><path d="M283.103 121.813l-25.304 6.33.147.66 25.304-6.33-.147-.66zM136.226 68.94l-.31.593 75.91 44.314.312-.594-75.912-44.314zM168.94 50.85l-31.308 18.09.31.594 31.307-18.088-.31-.595zM101.483 72.668l-.303.6 53.074 29.843.303-.598-53.074-29.844z"/><path d="M137.015 68.898l-34.096 2.374.04.677 34.097-2.375-.042-.677z"/><path d="M136.998 69.416l-.568.32 18.656 36.966.568-.32-18.656-36.966zM71.55 56.38l-.266.617 31.2 14.922.267-.618-31.2-14.922zM54.452 100.788l-.166.656 35.06 9.835.167-.657-35.06-9.835z"/><path d="M152.827 102.826l-.165.656 59.46 11.422.166-.655-59.46-11.424zM73.004 56.227l-.6.244 19.3 52.907.6-.244-19.3-52.906zM70.47 57.25l-15.76 45.785.605.232 15.76-45.784-.604-.232z"/><path d="M72.46 55.45L50.587 82.242l.488.442 21.873-26.792-.488-.442zM49.227 84.78l-8.685 54.602.635.114 8.684-54.602-.633-.113zM48.49 85.19L4.425 98.416l.176.652L48.667 85.84l-.176-.65zM5.388 100.203l-.465.47 35.06 38.66.466-.468-35.063-38.662z"/><path d="M54.715 100.986L39.92 138.63l.593.26 14.797-37.644-.595-.26z"/><path d="M44.297 139.56c0-1.902-1.462-3.443-3.265-3.443-1.802 0-3.264 1.54-3.264 3.442 0 1.898 1.462 3.44 3.264 3.44 1.803 0 3.265-1.542 3.265-3.44zM94.41 111c0-1.902-1.46-3.443-3.264-3.443-1.803 0-3.264 1.54-3.264 3.442 0 1.898 1.46 3.44 3.264 3.44 1.803 0 3.264-1.542 3.264-3.44zM57.7 101.778c0-1.9-1.463-3.442-3.265-3.442-1.803 0-3.264 1.542-3.264 3.442 0 1.9 1.462 3.44 3.265 3.44 1.802 0 3.264-1.54 3.264-3.44zM53.163 83.985c0-1.9-1.462-3.44-3.264-3.44-1.804 0-3.266 1.54-3.266 3.44s1.462 3.442 3.265 3.442c1.8 0 3.263-1.542 3.263-3.442zM6.528 99.1c0-1.9-1.46-3.442-3.264-3.442C1.46 95.658 0 97.198 0 99.1c0 1.9 1.46 3.44 3.264 3.44 1.803 0 3.264-1.54 3.264-3.44zM74.937 56.244c0-1.9-1.46-3.44-3.264-3.44-1.803 0-3.264 1.54-3.264 3.44s1.46 3.442 3.263 3.442 3.264-1.542 3.264-3.442zM107.236 72.89c0-1.9-1.46-3.443-3.264-3.443-1.802 0-3.264 1.54-3.264 3.442 0 1.9 1.462 3.44 3.264 3.44 1.803 0 3.264-1.54 3.264-3.44zM140.262 69.062c0-1.9-1.462-3.44-3.264-3.44-1.803 0-3.265 1.54-3.265 3.44s1.462 3.442 3.264 3.442c1.803 0 3.265-1.542 3.265-3.442zM158.77 104.458c0-1.9-1.46-3.442-3.264-3.442-1.802 0-3.264 1.54-3.264 3.442 0 1.9 1.462 3.44 3.264 3.44 1.803 0 3.264-1.54 3.264-3.44zM174.194 50.89c0-1.902-1.46-3.444-3.264-3.444-1.803 0-3.264 1.542-3.264 3.443 0 1.9 1.46 3.44 3.264 3.44 1.803 0 3.264-1.54 3.264-3.44zM217.38 93.17c0-1.9-1.46-3.442-3.263-3.442s-3.264 1.54-3.264 3.442c0 1.9 1.46 3.44 3.264 3.44 1.803 0 3.264-1.54 3.264-3.44zM230.99 97.38c0-1.902-1.46-3.443-3.264-3.443-1.802 0-3.264 1.54-3.264 3.442 0 1.9 1.462 3.44 3.264 3.44 1.803 0 3.264-1.54 3.264-3.44zM232.805 81.308c0-1.9-1.462-3.442-3.264-3.442-1.802 0-3.263 1.54-3.263 3.442 0 1.9 1.46 3.44 3.264 3.44 1.803 0 3.265-1.54 3.265-3.44zM241.152 49.55c0-1.9-1.46-3.443-3.264-3.443-1.803 0-3.264 1.542-3.264 3.442 0 1.9 1.46 3.44 3.264 3.44 1.803 0 3.264-1.54 3.264-3.44zM244.055 100.63c0-1.9-1.46-3.44-3.264-3.44-1.8 0-3.263 1.54-3.263 3.44s1.462 3.442 3.264 3.442c1.804 0 3.265-1.54 3.265-3.44zM215.022 114.79c0-1.902-1.46-3.443-3.264-3.443-1.803 0-3.264 1.54-3.264 3.442 0 1.898 1.46 3.44 3.264 3.44 1.803 0 3.264-1.54 3.264-3.44zM260.93 127.99c0-1.9-1.46-3.442-3.263-3.442s-3.264 1.54-3.264 3.442c0 1.9 1.46 3.44 3.264 3.44 1.803 0 3.264-1.54 3.264-3.44zM284.157 121.868c0-1.9-1.46-3.442-3.264-3.442-1.802 0-3.264 1.54-3.264 3.442 0 1.9 1.46 3.44 3.263 3.44s3.264-1.54 3.264-3.44zM286.335 65.81c0-1.9-1.462-3.44-3.264-3.44-1.802 0-3.263 1.54-3.263 3.44s1.46 3.442 3.264 3.442c1.803 0 3.265-1.54 3.265-3.44zM330.61 92.022c0-1.9-1.46-3.44-3.264-3.44-1.802 0-3.264 1.54-3.264 3.44s1.462 3.44 3.264 3.44c1.803 0 3.265-1.54 3.265-3.44zM340.41 67.533c0-1.9-1.462-3.44-3.265-3.44-1.803 0-3.264 1.54-3.264 3.44s1.462 3.442 3.265 3.442c1.803 0 3.264-1.542 3.264-3.442zM386.318 56.246c0-1.9-1.46-3.442-3.264-3.442-1.803 0-3.264 1.542-3.264 3.442 0 1.9 1.46 3.44 3.264 3.44 1.803 0 3.264-1.54 3.264-3.44zM436.623 119.036c0-1.9-1.46-3.442-3.264-3.442-1.804 0-3.265 1.542-3.265 3.442 0 1.9 1.46 3.44 3.264 3.44 1.802 0 3.263-1.54 3.263-3.44zM465.774 105.23c0-1.9-1.46-3.44-3.264-3.44-1.804 0-3.265 1.54-3.265 3.44s1.46 3.443 3.264 3.443c1.803 0 3.264-1.542 3.264-3.442zM487.266 64.338c0-1.9-1.46-3.442-3.264-3.442-1.803 0-3.265 1.542-3.265 3.442 0 1.9 1.462 3.44 3.265 3.44 1.803 0 3.264-1.54 3.264-3.44zM537.91 51.575c0-1.9-1.46-3.442-3.264-3.442-1.803 0-3.265 1.54-3.265 3.442 0 1.9 1.462 3.44 3.266 3.44 1.803 0 3.264-1.54 3.264-3.44zM579.413 70.85c0-1.9-1.46-3.442-3.265-3.442-1.803 0-3.264 1.54-3.264 3.442 0 1.9 1.46 3.44 3.264 3.44 1.804 0 3.265-1.54 3.265-3.44zM353.253 129.92c0-1.9-1.46-3.442-3.264-3.442-1.804 0-3.266 1.542-3.266 3.44 0 1.9 1.462 3.443 3.265 3.443 1.802 0 3.263-1.54 3.263-3.44zM638.21 33.08c0-1.9-1.462-3.44-3.266-3.44-1.803 0-3.264 1.54-3.264 3.44s1.462 3.443 3.264 3.443c1.804 0 3.265-1.542 3.265-3.442zM684.9 58.347c0-1.9-1.462-3.443-3.265-3.443-1.803 0-3.264 1.542-3.264 3.443 0 1.9 1.462 3.44 3.265 3.44 1.803 0 3.264-1.54 3.264-3.44zM718.003 86.737c0-1.9-1.462-3.44-3.265-3.44-1.803 0-3.264 1.54-3.264 3.44s1.46 3.442 3.264 3.442c1.803 0 3.265-1.543 3.265-3.443zM760 79.184c0-1.9-1.46-3.44-3.264-3.44-1.803 0-3.265 1.54-3.265 3.44s1.463 3.442 3.266 3.442S760 81.084 760 79.184zM727.884 62.254c0-1.9-1.46-3.442-3.264-3.442-1.803 0-3.264 1.54-3.264 3.442 0 1.9 1.46 3.44 3.264 3.44 1.803 0 3.264-1.54 3.264-3.44zM434.585 3.442c0-1.9-1.46-3.442-3.263-3.442s-3.264 1.542-3.264 3.442c0 1.9 1.46 3.44 3.264 3.44 1.802 0 3.263-1.54 3.263-3.44zM447.106 42.28c0-1.9-1.46-3.442-3.264-3.442-1.802 0-3.263 1.54-3.263 3.44s1.46 3.443 3.262 3.443c1.803 0 3.264-1.54 3.264-3.44zM356.922 20.278c0-1.9-1.46-3.442-3.264-3.442-1.803 0-3.264 1.542-3.264 3.442 0 1.9 1.462 3.44 3.264 3.44 1.803 0 3.264-1.54 3.264-3.44z"/></g></svg>