<svg viewBox="0 0 211 200" style="background-color:#ffffff00" xmlns="http://www.w3.org/2000/svg" width="211" height="200"><path d="M108.575 165.027l-37.977-1.27-.217-.008h-1.287s-2.145 9.875-2.575 11.296c-.43 1.42-1.144 8.03-.858 9.38.286 1.35-.286 3.907 4.292 4.476 4.577.568 15.09 1.634 15.45 1.705.357.072 5.435.498 7.51.427 2.073-.072 49.995.426 49.995.426l.86-.853c.285-.213-.43-.64-.43-.64l-3.004-.425s-19.484-1.52-26.393-2.345c-6.91-.827-6.438-10.02-6.438-10.02l1.073-12.15zm-37.98-1.278h-.214l.218.006-.003-.007z" fill="#fff"/><path d="M67.806 174.833c.358-2.132 2.575-11.084 2.575-11.084h-1.287s-2.145 9.875-2.575 11.296c-.43 1.42-1.144 8.03-.858 9.38.286 1.35-.286 3.907 4.292 4.476 4.577.568 15.09 1.634 15.45 1.705.357.072 5.435.498 7.51.427 2.073-.072 49.995.426 49.995.426l.86-.853c-.287.213-50.212-.64-50.212-.64l-4.07-.316s-6.373-.038-10.092-.962c-3.72-.923-10.085-2.13-10.085-2.13s-2.074 0-2.575-2.346c-.5-2.345.715-7.247 1.073-9.38zm2.79-11.084h-.215l.218.006-.003-.007z" fill="#dadada"/><path d="M69.54 163.962h-1.287s-2.145 9.876-2.574 11.298c-.353 1.164-.897 5.812-.924 8.196l43.108.1c-1.372-2.83-1.2-6.165-1.2-6.165l1.07-12.15-37.976-1.27-.217-.008zm.215 0h-.214l.218.007-.002-.008z" fill="#dadada"/><path d="M13.947 162.256l-2.37-.165c-2.738-.067-8.282-.21-8.573-5.376C2.714 151.548 0 8.564 0 8.564s.005-.787.215-1.28c.21-.49 3.118-4.814 3.118-4.814l7.54-.68 3.504 135.313 16.95 25.792-17.38-.64z" stroke="#ffffff00" fill="#dadada"/><path d="M5.882 138.608l-.102 15.12s-1 7.676 6.866 8.315c7.868.64 103.654 3.41 103.654 3.41l82.182 2.985s6.295.356 6.01-4.05c-.288-4.406-2.33-15.525-2.33-15.525l-94.66-4.086-101.62-6.17z" stroke="#ffffff00" fill="#fff"/><path d="M8.816.477S2.02-1.938 1.95 4.101c-.072 6.04.43 24.515.43 24.515l2.574 109.567 196.55 11.724S190.992 44.602 190.777 44.39c-.214-.214.16-5.277-5.793-6.396C179.028 36.874 8.816.477 8.816.477z" stroke="#ffffff00" fill="#313133"/><path d="M12.445 10.696L185.18 45.442l9.44 96.878-179.17-11.937-3.005-119.687z" fill="#10adbc"/><path d="M203.972 103.015h.528-.528z" fill="#6ea1a4"/><path d="M108.552 29.744l78.318 15.994 8.006 96.007-82.882-5.226-3.442-106.776z" fill="#1695a4"/><g><path d="M28.115 123.33h2.672l-1.145-3.074-1.527 3.073zM37.807 123.164l2.722.284-.83-3.273-1.893 2.99zM16.137 123.06l2.67-.18-1.456-2.973-1.213 3.153z" fill="#333"/><path d="M25.748 127.554l1.527-4.225h2.672l1.527 4.224h-5.726zM36.633 127.322l2.014-4.158 2.722.284 1.08 4.463-5.817-.588zM15.88 127.356l1.096-4.296 2.672-.18 1.956 4.093-5.725.383z" fill="#e99432"/><path d="M7.886 159.434c0-2.758 8.97-4.994 20.038-4.994 11.067 0 20.038 2.236 20.038 4.994 0 2.758-8.97 4.993-20.038 4.993-11.067 0-20.038-2.235-20.038-4.993z" fill="#0a494d"/><path d="M10.176 158.906c0-1.485 7.946-3.073 17.748-3.073 9.802 0 17.748 1.588 17.748 3.073 0 1.485-7.946 3.072-17.748 3.072-9.802 0-17.748-1.587-17.748-3.072z" fill="#021819"/><path d="M25.748 127.025v45.325h5.726v-45.325h-5.726z" fill="#ab4b25"/><path d="M36.633 127.322l-4.696 44.8 5.66.37 4.854-44.58-5.817-.59z" fill="#f2c300"/><path d="M15.88 127.885l4.6 44.993 5.726-.385-4.602-44.992-5.725.385z" fill="#137f7f"/><path opacity=".102" d="M29.642 127.025v45.325h2.67v-45.325h-2.67zM39.743 127.637l-4.78 44.684 2.634.173 4.854-44.582-2.707-.273zM18.932 127.68l4.603 44.993 2.67-.18-4.6-44.992-2.673.18z"/><path d="M47.98 159.053l-.017.008c-.025 2.754-8.987 4.983-20.04 4.983-11.066 0-20.037-2.235-20.037-4.993l-.065-.222s4.646 34.622 4.646 34.983c0 3.077 7.006 5.57 15.65 5.57 8.097 0 14.758-2.19 15.566-4.995l4.3-35.332z" fill="#063133"/><path d="M7.886 159.746c0 2.757 8.97 4.993 20.038 4.993 11.067 0 20.038-2.237 20.038-4.994h-2.29c0 1.484-7.946 3.072-17.748 3.072-9.802 0-17.748-1.588-17.748-3.072h-2.29z" fill="#0a494d"/></g><g><path d="M171.817 163.695c2.237-3.803.018.008.018.008.025 2.625 8.714 4.752 19.43 4.752 10.732 0 19.493-4.975 19.493-4.975.662 12.947-6.947 29.87-6.947 30.214 0 2.934-4.35 5.312-12.73 5.312-7.852 0-11.868-2.088-12.65-4.764 0 0-8.332-19.32-6.613-30.547z" fill="#bec3c7"/><path d="M210.8 163.922c0-2.5-8.884-4.528-19.842-4.528-10.958 0-19.84 2.027-19.84 4.528 0 2.5 8.882 4.527 19.84 4.527s19.84-2.028 19.84-4.528z" fill="#eaeff2"/><path d="M174.965 171.79c-1.16-1.14-8.002-4.44-9.22.38-1.032 4.078.257 9.346 9.772 11.21 9.515 1.865 4.07 0 4.07 0l-2.442-3.203s-8.17-1.478-8.143-4.805c.026-3.327 3.065-2.258 6.515 0 3.45 2.258-.552-3.58-.552-3.58z" stroke="#ffffff00" fill="#bec3c7"/><path opacity=".302" d="M187.803 120.915c-.804 1.22-4.616 5.593 0 11.212 4.617 5.62 11.443 11.516 9.772 16.817-1.67 5.302-12.215 12.013-12.215 12.013s9.566-6.653 8.958-12.013c-.608-5.36-5.7-11.212-5.7-11.212s4.177 6.303 4.07 10.412c-.14 5.467-5.7 9.61-5.7 9.61s5.948-5.92 1.63-12.814c-2.73-4.355-10.395-18.11-.815-24.025z" fill="#fff"/><path d="M191.525 199.006v-30.55c10.612-.08 19.233-4.975 19.233-4.975.662 12.947-6.947 29.87-6.947 30.214 0 2.882-4.196 5.23-12.285 5.312z" fill="#eaeff2"/><path d="M178.246 165.688c-8.735-1.456-5.647-3.553 5.72-4.222 9.055-.533 18.79.195 22.76 1.378 3.488 1.04 2.155 2.335-3.352 3.103-6.543.913-17.867.95-25.128-.26z" fill="#bd9372"/><path d="M180.213 165.426c-7.132-1.237-4.61-2.995 4.81-3.596 7.76-.494 16.373.103 19.98 1.14 3.214.923 1.998 2.08-3.022 2.75-5.845.78-15.67.764-21.767-.294z" fill="#452507"/><path d="M198.507 166.12c-.544-.177-.342-.447.447-.6.776-.152 1.814-.13 2.325.045.502.172.314.432-.43.584-.754.155-1.806.143-2.343-.03zM203.703 164.86c-.83-.344-.51-.805.7-1.018 1.178-.206 2.725-.09 3.472.245.73.33.445.762-.652.977-1.126.22-2.708.135-3.52-.203z" fill="#bd9372"/><path d="M203.812 164.805c-.14-.036-.087-.085.12-.11.207-.026.486-.017.624.018.137.035.084.084-.12.11-.203.025-.483.017-.624-.018zM203.788 164.515c-.086-.022-.053-.052.073-.067.127-.014.297-.01.38.013.086.022.053.053-.07.067-.126.016-.296.01-.382-.012zM203.262 165.297c-.407-.1-.25-.24.344-.316.585-.073 1.365-.052 1.746.045.376.096.23.232-.33.307-.568.076-1.358.062-1.76-.035zM201.582 164.297c-.406-.1-.25-.24.344-.316.585-.073 1.365-.052 1.746.045.377.096.23.232-.328.307-.57.076-1.36.062-1.762-.035zM205.11 164.698c-.386-.1-.237-.238.328-.306.556-.067 1.296-.04 1.657.058.356.097.217.23-.315.298-.54.07-1.29.048-1.67-.05zM194.54 165.046c.286-.137 1.207-.225 2.04-.197.815.027 1.25.155.983.288-.267.132-1.148.223-1.983.202-.855-.024-1.328-.155-1.04-.294zM191.384 165.978c.92-.015 1.637.08 1.626.214-.01.132-.748.256-1.664.277-.938.02-1.707-.075-1.697-.212.01-.14.795-.265 1.734-.28z" fill="#bd9372"/></g><g><path d="M25.24 25.833l39.42 7.223 1.81 44.748-40.032-5.254-1.197-46.717z" fill="#f2c300"/><path opacity=".502" d="M27.352 79.656h34.814v8.166H27.352z"/><path opacity=".502" d="M27.536 86.762h14.17v5.63h-14.17zM27.854 99.033h34.96v5.512h-34.96zM71.075 34.79h30.687v7.37H71.075zM72.136 59.032h30.92v6.57h-30.92zM73.258 84.68h31.163v5.705H73.26zM119.68 47.57h27.58v6.567h-27.58zM73.68 94.304h31.255v5.375H73.68zM120.217 56.395h27.65v6.29h-27.65zM121.084 70.64h27.762v5.84h-27.762zM121.63 79.62h27.832v5.553H121.63z"/><path opacity=".502" d="M121.356 75.123h27.797v5.696h-27.797zM121.904 84.132h8.35v2.877h-8.35zM71.93 54.335h30.874v6.726H71.93zM73.05 79.894h31.117v5.867H73.05zM119.413 43.18h27.544v6.703h-27.544zM27.987 104.177h35.017v5.324H27.987zM71.278 39.418h30.73v7.22H71.28zM72.342 63.744h30.964v6.41H72.342zM73.47 89.484h31.208v5.54h-31.21zM119.948 51.976h27.614v6.43h-27.614zM73.89 99.142h31.302v5.21h-31.3z"/><path opacity=".502" d="M28.12 109.342h18.836v3.714H28.12zM74.53 113.758h31.44v4.703H74.53zM71.48 44.062H88v4.65H71.48zM72.582 68.892l24.595 3.52.097 1.843-24.61-3.467-.082-1.896zM74.138 104.425l9.29.94.09 1.927-9.295-.92-.085-1.947zM120.85 66.564l3 .463.11 1.78-3-.457-.11-1.785z"/></g><g><path d="M47.152 186.41c-1.392.743-3.777 1.586-3.36 2.52.418.934.06 1.73 2.52 1.68 2.46-.052 4.04.454 5.88-.84 1.84-1.295 5.836-3.823 7.557-5.04 1.72-1.214 9.896-.76 10.917-.838 1.022-.078 25.195 0 25.195 0s-1.115-1.198-.84-1.68c.276-.48-36.952-.84-36.952-.84s-9.396 4.227-10.918 5.04z" stroke="#ffffff00" fill="#2a2a28"/><path d="M97.542 185.57s4.03 2.154 3.36 2.52c-.67.367-2.98 1.052-4.2 0-1.22-1.05-7.66-3.802-7.558-4.198.1-.397-39.473-.84-39.473-.84l.84-1.68 40.313.84 6.72 3.36z" stroke="#ffffff00" fill="#2a2a28"/><path opacity=".2" d="M65.628 181.373s7 .378 7.56 3.358c.557 2.982-1.443 6.713-3.36 7.56-1.918.844-3.594.9-5.88.838-2.284-.063-6.206.415-8.398-3.358-2.192-3.773-1.82-5.682-.84-6.718.982-1.036 3.707-1.5 5.88-1.68 2.172-.18 5.038 0 5.038 0zM79.906 184.73s1.548 3.36 3.36 5.04c1.81 1.68 4.277 1.967 6.718 1.68 2.44-.29 3.963-1.418 4.2-3.36.235-1.942.314-2.834 0-3.36-.316-.523-1.523-1.81-3.36-2.518-1.838-.708-6.982-.524-8.4 0-1.416.525-2.623.814-2.52 2.52z" stroke="#ffffff00" fill="#fff"/><path d="M65.628 181.373s7 .378 7.56 3.358c.557 2.982-1.443 6.713-3.36 7.56-1.918.844-3.594.9-5.88.838-2.284-.063-6.206.415-8.398-3.358-2.192-3.773-1.82-5.682-.84-6.718.982-1.036 3.707-1.5 5.88-1.68 2.172-.18 5.038 0 5.038 0zm14.278 3.358c-.105-1.704 1.102-1.993 2.52-2.518 1.416-.524 6.56-.708 8.397 0 1.838.71 3.045 1.995 3.36 2.52.315.524.236 1.416 0 3.358-.237 1.942-1.76 3.07-4.2 3.36-2.44.287-4.907 0-6.718-1.68-1.81-1.68-3.36-5.04-3.36-5.04zm-4.2-.838c.71-.23 2.5.96 2.532.87-.02-.037-.024-.047-.012-.03.01.015.014.023.013.03.322.556 4.424 6.98 7.544 7.527 3.324.582 9.002-.927 9.24-1.68.235-.755-.122-3.06 0-4.2.12-1.137.05-2.042.838-2.518.79-.476.488-1.374 0-1.68-.487-.305-.783-.51-5.04-.84-4.025-.312-9.85-.07-10.916 0-1.068.07-2.286.913-3.36.84-1.074-.072-3.953-1.255-5.88-1.68-1.924-.423-16.795 0-16.795 0h-1.68s-2.727.48-3.358.84c-.63.36.624 2.184 1.68 2.52 1.054.336.45.647.84.84.388.192 4.228 7.55 6.718 8.396 2.49.847 8.956 1.185 11.758 0 2.8-1.184 5.013-4.71 5.038-6.717.026-2.008.088-2.274.84-2.518z" fill="#141312"/></g></svg>