<svg viewBox="0 0 23 22" style="background-color:#ffffff00" xmlns="http://www.w3.org/2000/svg" width="23" height="22"><path d="M3 17l6 5v-5H3z" stroke="#ffffff00"/><path d="M6.547 13H4.89V4H8.5c.39 0 .75.094 1.078.266.328.17.61.406.86.687.234.28.42.61.562.97.14.358.22.718.22 1.077 0 .39-.08.766-.204 1.125-.125.36-.313.672-.547.953-.236.28-.517.5-.845.672-.328.172-.688.25-1.063.25H6.547v3zm12.72-9v1.5h-2.72V13H14.89V5.5h-2.718V4h7.094zM0 0v17h23V0H0zm6.547 5.5v3H8.47c.296 0 .546-.125.75-.406.202-.266.31-.625.31-1.094 0-.234-.03-.438-.092-.625-.063-.188-.157-.344-.25-.47-.11-.124-.235-.233-.376-.296-.14-.063-.28-.11-.42-.11H6.546z"/></svg>