<svg viewBox="0 0 17 22" style="background-color:#ffffff00" xmlns="http://www.w3.org/2000/svg" width="17" height="22"><path d="M8.842.5C3.094.5.196 4.61.196 8.036c0 2.074.787 3.92 2.476 4.607.278.113.526.005.607-.302.054-.21.187-.744.246-.966.08-.303.05-.408-.175-.673-.486-.572-.798-1.313-.798-2.364 0-3.048 2.288-5.777 5.957-5.777 3.248 0 5.033 1.978 5.033 4.62 0 3.48-1.544 6.415-3.836 6.415-1.265 0-2.212-1.044-1.91-2.324.364-1.528 1.07-3.175 1.07-4.28 0-.987-.534-1.81-1.633-1.81C5.94 5.18 4.9 6.513 4.9 8.3c0 1.14.387 1.91.387 1.91L3.73 16.785c-.46 1.95-.07 4.341-.035 4.582.02.144.204.178.288.07.118-.155 1.66-2.05 2.183-3.947.15-.537.85-3.316.85-3.316.422.8 1.65 1.502 2.957 1.502 3.888 0 6.527-3.535 6.527-8.265C16.5 3.833 13.46.5 8.842.5z" fill="#fff"/></svg>