<svg viewBox="0 0 24 20" style="background-color:#ffffff00" xmlns="http://www.w3.org/2000/svg" width="24" height="20"><path d="M23.697 2.877c-.865.375-1.796.628-2.773.74.998-.582 1.763-1.505 2.123-2.607-.933.54-1.966.933-3.066 1.145C19.1 1.24 17.847.667 16.46.667c-2.666 0-4.828 2.11-4.828 4.713 0 .368.042.728.125 1.073-4.012-.197-7.57-2.073-9.952-4.924-.415.695-.653 1.505-.653 2.37 0 1.634.852 3.076 2.147 3.92-.79-.024-1.535-.236-2.186-.59v.06c0 2.284 1.665 4.189 3.873 4.622-.405.107-.83.165-1.272.165-.31 0-.613-.03-.907-.085.614 1.872 2.397 3.235 4.51 3.273-1.653 1.264-3.734 2.017-5.996 2.017-.39 0-.774-.022-1.152-.066 2.137 1.338 4.675 2.117 7.4 2.117 8.88 0 13.737-7.18 13.737-13.408 0-.204-.004-.408-.014-.61.944-.663 1.762-1.494 2.41-2.44z" fill="#fff"/></svg>