<svg viewBox="0 0 18 19" style="background-color:#ffffff00" xmlns="http://www.w3.org/2000/svg" width="18" height="19"><g fill="#221e1f"><path d="M8.835 0c-2.427 0-4.556.933-6.2 2.68C.93 4.49 0 6.852 0 9.34c0 2.534.92 4.907 2.673 6.767C4.436 17.98 6.73 19 9.14 19s4.72-1.02 6.473-2.92c1.644-1.78 2.465-4.127 2.38-6.74-.08-2.565-1.036-4.876-2.773-6.635C13.47.933 11.262 0 8.835 0zm.05 1.666c1.997 0 3.793.785 5.22 2.236 1.408 1.433 2.2 3.337 2.26 5.437.063 2.14-.603 4.035-1.958 5.49-1.436 1.543-3.32 2.372-5.27 2.372-1.98 0-3.84-.83-5.274-2.345-1.427-1.508-2.228-3.48-2.234-5.518-.007-2.05.772-3.98 2.16-5.463 1.354-1.45 3.1-2.21 5.096-2.21z"/><path d="M8.868 7.766c-.522-.972-1.39-1.357-2.394-1.357-1.46 0-2.613 1.084-2.6 2.93.012 1.89 1.123 2.96 2.72 2.96 1.022 0 1.886-.594 2.353-1.495l-1.13-.602c-.24.634-.62.824-1.1.824-.83 0-1.217-.73-1.227-1.688-.01-.957.302-1.68 1.188-1.68.238 0 .718.137 1.005.765l1.185-.66zM14.05 7.766c-.53-.972-1.403-1.357-2.406-1.357-1.46 0-2.603 1.084-2.573 2.93.03 1.89 1.152 2.96 2.748 2.96 1.023 0 1.88-.594 2.34-1.495l-1.135-.602c-.236.634-.612.824-1.092.824-.83 0-1.224-.73-1.242-1.688-.02-.957.286-1.68 1.17-1.68.24 0 .72.137 1.014.765l1.18-.66z"/></g></svg>