<svg viewBox="0 0 23 22" style="background-color:#ffffff00" xmlns="http://www.w3.org/2000/svg" width="23" height="22"><path d="M6.78 11.234h4.017V13H4.812V4h5.89v1.766h-3.92v1.468h3.36V9H6.78v2.234zm11.017-6.296l-.86 1.64c-.03-.03-.125-.078-.265-.172-.156-.093-.328-.187-.547-.28-.22-.095-.453-.173-.703-.25-.25-.064-.516-.11-.766-.11-.344 0-.594.062-.78.187-.188.125-.267.313-.267.547 0 .156.03.297.124.39.08.094.188.188.344.266.14.078.328.157.547.22.22.06.47.14.766.218.407.125.766.25 1.094.39.328.14.61.313.844.516.235.203.422.453.547.734.125.297.188.64.188 1.047 0 .5-.094.94-.282 1.283-.186.343-.42.624-.718.843-.296.22-.64.36-1.015.453-.39.093-.78.14-1.188.14-.313 0-.64-.016-.97-.063-.328-.046-.64-.11-.953-.203-.312-.093-.624-.187-.906-.312-.296-.125-.56-.266-.81-.438l.858-1.734c.03.047.14.125.328.234.172.11.39.22.64.329.25.124.548.218.86.296.313.093.64.124.985.124.688 0 1.047-.218 1.047-.67 0-.158-.062-.298-.156-.408-.108-.11-.25-.203-.436-.297-.188-.08-.406-.157-.656-.235l-.813-.266c-.39-.126-.734-.25-1.016-.407-.297-.14-.532-.312-.72-.5-.187-.187-.328-.422-.42-.672-.095-.25-.142-.53-.142-.874 0-.468.078-.875.25-1.234.156-.36.39-.672.672-.922.28-.25.625-.438 1-.563.375-.125.78-.187 1.22-.187.296 0 .592.03.89.094.28.062.562.125.812.218.25.094.5.188.734.297.235.11.453.218.64.327zM0 0v17h23V0H0z"/><path d="M3 17l6 5v-5H3z" stroke="#ffffff00"/></svg>