<?xml version="1.0" standalone="no"?><!-- Generator: Adobe Fireworks CS6, Export SVG Extension by Aaron Beall (http://fireworks.abeall.com) . Version: 0.6.1  --><!DOCTYPE svg PUBLIC "-//W3C//DTD SVG 1.1//EN" "http://www.w3.org/Graphics/SVG/1.1/DTD/svg11.dtd"><svg id="Untitled-Page%201" viewBox="0 0 12 12" style="background-color:#ffffff00" version="1.1"	xmlns="http://www.w3.org/2000/svg" xmlns:xlink="http://www.w3.org/1999/xlink" xml:space="preserve"	x="0px" y="0px" width="12px" height="12px">	<g id="Layer%201">		<g>			<path id="Ellipse" d="M 0 6 C 0 2.6863 2.6863 0 6 0 C 9.3137 0 12 2.6863 12 6 C 12 9.3137 9.3137 12 6 12 C 2.6863 12 0 9.3137 0 6 Z" fill="#333333"/>			<g>				<path d="M 6.2471 7.4489 C 6.2471 7.2786 6.2788 7.496 6.3529 7.3756 C 6.4165 7.2554 6.5117 7.155 6.6177 7.0548 C 6.7235 6.9646 6.8506 6.8844 6.9883 6.8042 C 7.1259 6.734 7.2635 6.6538 7.4011 6.5635 C 7.5599 6.4633 7.7083 6.363 7.8352 6.2527 C 7.9624 6.1423 8.0789 6.0221 8.1741 5.8817 C 8.2588 5.7413 8.3329 5.5909 8.3859 5.4204 C 8.4387 5.26 8.4706 5.0594 8.4706 4.8389 C 8.4706 4.488 8.4071 4.1871 8.28 3.9265 C 8.153 3.6758 7.9835 3.4652 7.793 3.2948 C 7.5918 3.1344 7.3694 3.014 7.1152 2.9338 C 6.8611 2.8636 6.6071 2.8235 6.3529 2.8235 C 6.12 2.8235 5.8976 2.8536 5.6859 2.9138 C 5.4635 2.9739 5.2623 3.0642 5.0718 3.1744 C 4.8812 3.2948 4.7224 3.4352 4.5741 3.5956 C 4.4259 3.766 4.3199 3.9565 4.2354 4.1671 L 5.1141 4.7687 C 5.167 4.6785 5.2306 4.5781 5.3047 4.4779 C 5.3788 4.3777 5.4635 4.2773 5.5695 4.1973 C 5.6753 4.1169 5.7811 4.0568 5.9082 3.9966 C 6.0247 3.9465 6.1624 3.9164 6.3105 3.9164 C 6.4376 3.9164 6.5542 3.9365 6.6707 3.9766 C 6.7871 4.0167 6.8929 4.0669 6.9777 4.1471 C 7.0624 4.2273 7.1365 4.3175 7.2 4.4277 C 7.2529 4.5381 7.2847 4.6685 7.2847 4.8088 C 7.2847 4.9993 7.2317 5.1698 7.1365 5.3202 C 7.0305 5.4706 6.9142 5.601 6.7659 5.7112 C 6.6177 5.8215 6.48 5.9117 6.3318 5.9919 C 6.1836 6.0723 6.0564 6.1323 5.9612 6.1925 C 5.6223 6.3931 5.3894 6.6337 5.2834 6.9044 C 5.1776 7.1752 5.1248 7.1182 5.1248 7.4489 L 6.2676 7.4489 L 6.2471 7.4489 ZM 6.2788 9.8823 L 6.5862 8.6849 L 4.8452 8.4915 L 5.1459 9.8823 L 6.2788 9.8823 L 6.2788 9.8823 Z" fill="#efeee2"/>			</g>		</g>	</g></svg>