<?xml version="1.0" standalone="no"?><!-- Generator: Adobe Fireworks CS6, Export SVG Extension by Aaron Beall (http://fireworks.abeall.com) . Version: 0.6.1  --><!DOCTYPE svg PUBLIC "-//W3C//DTD SVG 1.1//EN" "http://www.w3.org/Graphics/SVG/1.1/DTD/svg11.dtd"><svg id="Untitled-Page%201" viewBox="0 0 60 61" style="background-color:#ffffff00" version="1.1"	xmlns="http://www.w3.org/2000/svg" xmlns:xlink="http://www.w3.org/1999/xlink" xml:space="preserve"	x="0px" y="0px" width="60px" height="61px">	<g id="Layer%201">		<g>			<path d="M 30 0.5 C 13.4308 0.5 0 13.9307 0 30.5 C 0 47.0679 13.4308 60.5 30 60.5 C 46.5682 60.5 60 47.0679 60 30.5 C 60 13.9307 46.5682 0.5 30 0.5 ZM 30 55.2061 C 16.3554 55.2061 5.2941 44.1455 5.2941 30.5 C 5.2941 16.8555 16.3554 5.7939 30 5.7939 C 43.6454 5.7939 54.7059 16.8555 54.7059 30.5 C 54.7059 44.1455 43.6454 55.2061 30 55.2061 Z" fill="#ffffff"/>			<path d="M 24.568 42.3467 L 40.4503 30.5 L 24.568 18.6533 L 24.568 42.3467 Z" fill="#ffffff"/>		</g>	</g></svg>