<?xml version="1.0" standalone="no"?><!-- Generator: Adobe Fireworks CS6, Export SVG Extension by Aaron Beall (http://fireworks.abeall.com) . Version: 0.6.1  --><!DOCTYPE svg PUBLIC "-//W3C//DTD SVG 1.1//EN" "http://www.w3.org/Graphics/SVG/1.1/DTD/svg11.dtd"><svg id="Untitled-Page%201" viewBox="0 0 12 17" style="background-color:#ffffff00" version="1.1"	xmlns="http://www.w3.org/2000/svg" xmlns:xlink="http://www.w3.org/1999/xlink" xml:space="preserve"	x="0px" y="0px" width="12px" height="17px">	<g id="Layer%201">		<g>			<path d="M 6.0781 2.4541 L 6 0.0061 C 6 -0.1819 12 4.0459 12 4.0459 C 12 4.0459 6 8.2729 6 8.0857 L 6.3015 4.8218 C 4.239 4.8713 1.6838 6.6733 0 9.1873 L 0 8.4529 C 0 5.05 2.7031 2.8201 6.0781 2.4541 Z"/>			<path d="M 5.9219 14.5957 L 6 16.9941 C 6 17.1782 0 13.0366 0 13.0366 C 0 13.0366 6 8.8958 6 9.0791 L 5.6985 12.2766 C 7.761 12.228 10.3162 10.4624 12 8 L 12 8.7192 C 12 12.0527 9.2969 14.2373 5.9219 14.5957 Z"/>		</g>	</g></svg>