<?xml version="1.0" standalone="no"?><!-- Generator: Adobe Fireworks CS6, Export SVG Extension by Aaron Beall (http://fireworks.abeall.com) . Version: 0.6.1  --><!DOCTYPE svg PUBLIC "-//W3C//DTD SVG 1.1//EN" "http://www.w3.org/Graphics/SVG/1.1/DTD/svg11.dtd"><svg id="Untitled-Page%201" viewBox="0 0 24 20" style="background-color:#ffffff00" version="1.1"	xmlns="http://www.w3.org/2000/svg" xmlns:xlink="http://www.w3.org/1999/xlink" xml:space="preserve"	x="0px" y="0px" width="24px" height="20px">	<g id="Layer%201">		<path d="M 23.697 2.8765 C 22.832 3.252 21.9011 3.5049 20.9242 3.6177 C 21.9215 3.0352 22.6866 2.1118 23.0471 1.0103 C 22.1141 1.5513 21.0814 1.9434 19.9814 2.1553 C 19.1006 1.2402 17.8458 0.6665 16.4576 0.6665 C 13.7916 0.6665 11.6298 2.7769 11.6298 5.3799 C 11.6298 5.7476 11.6723 6.1079 11.7548 6.4531 C 7.7427 6.2563 4.1848 4.3804 1.8033 1.5293 C 1.3878 2.2251 1.1503 3.0347 1.1503 3.8989 C 1.1503 5.5337 2.0021 6.9761 3.2974 7.8213 C 2.5068 7.7964 1.7617 7.5845 1.111 7.2314 C 1.1106 7.251 1.1106 7.2705 1.1106 7.291 C 1.1106 9.5737 2.7745 11.4785 4.9834 11.9116 C 4.5784 12.019 4.1516 12.0771 3.7112 12.0771 C 3.4001 12.0771 3.0974 12.0479 2.803 11.9922 C 3.4174 13.8638 5.2003 15.2266 7.3126 15.2646 C 5.6602 16.5288 3.5792 17.2822 1.3168 17.2822 C 0.9272 17.2822 0.5428 17.2598 0.1649 17.2158 C 2.302 18.5542 4.8397 19.3335 7.5658 19.3335 C 16.4464 19.3335 21.302 12.1528 21.302 5.9248 C 21.302 5.7212 21.2978 5.5171 21.2885 5.3149 C 22.2318 4.6519 23.0505 3.8213 23.697 2.8765 Z" fill="#ffffff"/>	</g></svg>