<?xml version="1.0" standalone="no"?><!-- Generator: Adobe Fireworks CS6, Export SVG Extension by Aaron Beall (http://fireworks.abeall.com) . Version: 0.6.1  --><!DOCTYPE svg PUBLIC "-//W3C//DTD SVG 1.1//EN" "http://www.w3.org/Graphics/SVG/1.1/DTD/svg11.dtd"><svg id="Untitled-Page%201" viewBox="0 0 18 19" style="background-color:#ffffff00" version="1.1"	xmlns="http://www.w3.org/2000/svg" xmlns:xlink="http://www.w3.org/1999/xlink" xml:space="preserve"	x="0px" y="0px" width="18px" height="19px">	<g id="Layer%201">		<g>			<path d="M 8.835 0 C 6.4077 0 4.2789 0.9326 2.634 2.6797 C 0.9297 4.4897 0 6.8521 0 9.3394 C 0 11.8745 0.9211 14.2471 2.673 16.1069 C 4.4363 17.979 6.729 19 9.1395 19 C 11.55 19 13.8604 17.979 15.6128 16.0806 C 17.2571 14.3003 18.0781 11.9531 17.9941 9.3394 C 17.9119 6.7749 16.9568 4.4644 15.22 2.7051 C 13.4695 0.9326 11.2622 0 8.835 0 ZM 8.886 1.666 C 10.8823 1.666 12.6775 2.4512 14.1042 3.9019 C 15.5128 5.335 16.3037 7.2393 16.3651 9.3394 C 16.4276 11.481 15.762 13.375 14.4067 14.8306 C 12.9714 16.3735 11.0881 17.2021 9.1357 17.2021 C 7.1584 17.2021 5.2983 16.3735 3.8634 14.8569 C 2.436 13.3486 1.6348 11.376 1.6289 9.3394 C 1.623 7.291 2.4016 5.3608 3.7886 3.8765 C 5.1438 2.4263 6.8896 1.666 8.886 1.666 Z" fill="#221e1f"/>			<path d="M 8.8682 7.7656 C 8.3462 6.7944 7.4768 6.4092 6.4741 6.4092 C 5.0146 6.4092 3.8606 7.4937 3.8733 9.3394 C 3.8865 11.2285 4.9974 12.3003 6.5928 12.3003 C 7.6161 12.3003 8.48 11.7056 8.9467 10.8052 L 7.8176 10.2031 C 7.5762 10.8369 7.1985 11.0273 6.7179 11.0273 C 5.887 11.0273 5.4996 10.2983 5.4902 9.3394 C 5.481 8.3833 5.7922 7.6606 6.6777 7.6606 C 6.9164 7.6606 7.3958 7.7969 7.6831 8.4253 L 8.8682 7.7656 Z" fill="#221e1f"/>			<path d="M 14.051 7.7656 C 13.5199 6.7944 12.6471 6.4092 11.6443 6.4092 C 10.1849 6.4092 9.0408 7.4937 9.0708 9.3394 C 9.1013 11.2285 10.2224 12.3003 11.8175 12.3003 C 12.8408 12.3003 13.6992 11.7056 14.1576 10.8052 L 13.0229 10.2031 C 12.7875 10.8369 12.4114 11.0273 11.9309 11.0273 C 11.1002 11.0273 10.7058 10.2983 10.6875 9.3394 C 10.6692 8.3833 10.9739 7.6606 11.8594 7.6606 C 12.0981 7.6606 12.5789 7.7969 12.8721 8.4253 L 14.051 7.7656 Z" fill="#221e1f"/>		</g>	</g></svg>