<?xml version="1.0" standalone="no"?><!-- Generator: Adobe Fireworks CS6, Export SVG Extension by Aaron Beall (http://fireworks.abeall.com) . Version: 0.6.1  --><!DOCTYPE svg PUBLIC "-//W3C//DTD SVG 1.1//EN" "http://www.w3.org/Graphics/SVG/1.1/DTD/svg11.dtd"><svg id="Untitled-Page%201" viewBox="0 0 24 20" style="background-color:#ffffff00" version="1.1"	xmlns="http://www.w3.org/2000/svg" xmlns:xlink="http://www.w3.org/1999/xlink" xml:space="preserve"	x="0px" y="0px" width="24px" height="20px">	<g id="Layer%201">		<g>			<path d="M 15.8322 11.6655 C 14.9138 11.6655 14.1689 12.689 14.1689 13.9521 C 14.1689 15.2163 14.9138 16.2402 15.8322 16.2402 C 16.7498 16.2402 17.4942 15.2163 17.4942 13.9521 C 17.4942 12.689 16.7498 11.6655 15.8322 11.6655 ZM 21.6206 5.7109 C 21.8099 5.2466 21.8194 2.6089 20.8099 0.0835 C 20.8099 0.0835 18.493 0.3359 14.9883 2.7271 C 14.2534 2.5249 13.0096 2.4243 11.7661 2.4243 C 10.5228 2.4243 9.2789 2.5249 8.5436 2.7271 C 5.0388 0.3359 2.7229 0.0835 2.7229 0.0835 C 1.7129 2.6089 1.7218 5.2466 1.9114 5.7109 C 0.7249 6.9912 0 8.5293 0 10.6313 C 0 19.7676 7.6246 19.9146 9.5494 19.9146 C 9.985 19.9146 10.8508 19.9155 11.7661 19.9165 C 12.6812 19.9155 13.5476 19.9146 13.9827 19.9146 C 15.9075 19.9146 23.5321 19.7676 23.5321 10.6313 C 23.5321 8.5293 22.8071 6.9912 21.6206 5.7109 ZM 11.8022 18.7905 L 11.7301 18.7905 C 6.9064 18.7905 3.15 18.2188 3.15 13.5581 C 3.15 12.4429 3.5462 11.4058 4.4875 10.5459 C 6.0582 9.1123 8.7148 9.8721 11.7301 9.8721 C 11.7416 9.8721 11.754 9.8721 11.7664 9.8711 C 11.7786 9.8721 11.7909 9.8721 11.8024 9.8721 C 14.8178 9.8721 17.4752 9.1133 19.0451 10.5459 C 19.9866 11.4058 20.3827 12.4429 20.3827 13.5581 C 20.3823 18.2188 16.6259 18.7905 11.8022 18.7905 ZM 7.7002 11.6655 C 6.7823 11.6655 6.038 12.689 6.038 13.9521 C 6.038 15.2163 6.7823 16.2402 7.7002 16.2402 C 8.6188 16.2402 9.3632 15.2163 9.3632 13.9521 C 9.3628 12.689 8.6186 11.6655 7.7002 11.6655 Z" fill="#ffffff"/>		</g>	</g></svg>