<?xml version="1.0" standalone="no"?><!-- Generator: Adobe Fireworks CS6, Export SVG Extension by Aaron Beall (http://fireworks.abeall.com) . Version: 0.6.1  --><!DOCTYPE svg PUBLIC "-//W3C//DTD SVG 1.1//EN" "http://www.w3.org/Graphics/SVG/1.1/DTD/svg11.dtd"><svg id="Untitled-Page%201" viewBox="0 0 22 21" style="background-color:#ffffff00" version="1.1"	xmlns="http://www.w3.org/2000/svg" xmlns:xlink="http://www.w3.org/1999/xlink" xml:space="preserve"	x="0px" y="0px" width="22px" height="21px">	<g id="Layer%201">		<g>			<path id="Ellipse" d="M 0.595 10.5 C 0.595 4.7007 5.3867 0 11.2975 0 C 17.2085 0 22 4.7007 22 10.5 C 22 16.2993 17.2085 21 11.2975 21 C 5.3867 21 0.595 16.2993 0.595 10.5 Z" fill="#dd4b39"/>			<g>				<path d="M 16.6005 9.6992 L 14.9707 9.6992 L 14.9707 8.1094 C 14.9707 7.9878 14.8696 7.8892 14.7455 7.8892 L 14.2814 7.8892 C 14.1565 7.8892 14.0557 7.9878 14.0557 8.1094 L 14.0557 9.6992 L 12.4257 9.6992 C 12.3015 9.6992 12.2001 9.7969 12.2001 9.9189 L 12.2001 10.3721 C 12.2001 10.4932 12.3015 10.5918 12.4257 10.5918 L 14.0557 10.5918 L 14.0557 12.1816 C 14.0557 12.3037 14.1565 12.4014 14.2814 12.4014 L 14.7455 12.4014 C 14.8696 12.4014 14.9707 12.3037 14.9707 12.1816 L 14.9707 10.5918 L 16.6005 10.5918 C 16.7246 10.5918 16.826 10.4927 16.826 10.3711 L 16.826 9.9189 C 16.826 9.7969 16.7246 9.6992 16.6005 9.6992 Z" fill="#ffffff"/>				<path d="M 11.1232 11.0928 C 10.7803 10.8555 10.4685 10.5078 10.4633 10.4014 C 10.4633 10.207 10.481 10.1147 10.9276 9.7754 C 11.5054 9.334 11.8232 8.7539 11.8232 8.1416 C 11.8232 7.5859 11.6493 7.0923 11.3531 6.7451 L 11.5831 6.7451 C 11.6306 6.7451 11.6771 6.731 11.7151 6.7036 L 12.3562 6.2515 C 12.4359 6.1953 12.4696 6.0957 12.439 6.0049 C 12.4083 5.915 12.3223 5.8535 12.2246 5.8535 L 9.3569 5.8535 C 9.0432 5.8535 8.7244 5.9067 8.4116 6.0122 C 7.3666 6.3633 6.6356 7.2319 6.6356 8.1235 C 6.6356 9.3867 7.6392 10.3447 8.9803 10.3745 C 8.9541 10.4746 8.9408 10.5728 8.9408 10.6699 C 8.9408 10.8647 8.9912 11.0493 9.0955 11.2271 C 9.0833 11.2271 9.0717 11.2271 9.0586 11.2271 C 7.7802 11.2271 6.626 11.8389 6.188 12.749 C 6.074 12.9858 6.0159 13.2256 6.0159 13.4624 C 6.0159 13.6919 6.0763 13.9136 6.1952 14.1206 C 6.4705 14.6016 7.0615 14.9736 7.861 15.1709 C 8.2732 15.2725 8.7167 15.3242 9.1768 15.3242 C 9.5903 15.3242 9.9847 15.272 10.3492 15.1689 C 11.4857 14.8477 12.2206 14.0313 12.2206 13.0889 C 12.2205 12.1855 11.9227 11.644 11.1232 11.0928 ZM 7.5012 13.1621 C 7.5012 12.5039 8.3578 11.9277 9.334 11.9277 L 9.3604 11.9277 C 9.5725 11.9297 9.7799 11.96 9.9753 12.0186 C 10.0421 12.0635 10.1069 12.1069 10.1689 12.1479 C 10.621 12.4482 10.9198 12.647 11.0029 12.9648 C 11.0226 13.0454 11.0325 13.1255 11.0325 13.2036 C 11.0325 14.0225 10.4063 14.4375 9.1709 14.4375 C 8.2347 14.4375 7.5012 13.8774 7.5012 13.1621 ZM 8.3896 6.9487 C 8.542 6.7783 8.7419 6.6885 8.9663 6.6885 L 8.9918 6.689 C 9.6255 6.708 10.2319 7.3965 10.3435 8.2246 C 10.4063 8.6885 10.3005 9.1255 10.0613 9.3906 C 9.9082 9.561 9.7112 9.6504 9.4777 9.6504 C 9.4777 9.6504 9.4777 9.6504 9.4774 9.6504 L 9.4672 9.6504 C 8.8466 9.6318 8.2267 8.9175 8.116 8.0898 C 8.0537 7.627 8.1536 7.2114 8.3896 6.9487 Z" fill="#ffffff"/>			</g>		</g>	</g></svg>