<?xml version="1.0" standalone="no"?><!-- Generator: Adobe Fireworks CS6, Export SVG Extension by Aaron Beall (http://fireworks.abeall.com) . Version: 0.6.1  --><!DOCTYPE svg PUBLIC "-//W3C//DTD SVG 1.1//EN" "http://www.w3.org/Graphics/SVG/1.1/DTD/svg11.dtd"><svg id="Untitled-Page%201" viewBox="0 0 17 17" style="background-color:#ffffff00" version="1.1"	xmlns="http://www.w3.org/2000/svg" xmlns:xlink="http://www.w3.org/1999/xlink" xml:space="preserve"	x="0px" y="0px" width="17px" height="17px">	<g id="Layer%201">		<g>			<path d="M 11.1029 8.5751 L 8.6624 10.9209 L 14.0966 16.5198 L 16.537 14.1479 L 11.1029 8.5751 Z" fill="#ffffff"/>			<path d="M 11.1565 6.6724 C 11.1565 8.9758 9.2356 10.8427 6.8656 10.8427 C 4.4958 10.8427 2.5746 8.9758 2.5746 6.6724 C 2.5746 4.3694 4.4958 2.5022 6.8656 2.5022 C 9.2356 2.5022 11.1565 4.3694 11.1565 6.6724 ZM 13.7311 6.6724 C 13.7311 2.9872 10.657 0 6.8656 0 C 3.0736 0 0 2.9872 0 6.6724 C 0 10.3572 3.0736 13.3448 6.8656 13.3448 C 10.657 13.3448 13.7311 10.3572 13.7311 6.6724 Z" fill="#ffffff"/>		</g>	</g></svg>