<?xml version="1.0" standalone="no"?><!-- Generator: Adobe Fireworks CS6, Export SVG Extension by Aaron Beall (http://fireworks.abeall.com) . Version: 0.6.1  --><!DOCTYPE svg PUBLIC "-//W3C//DTD SVG 1.1//EN" "http://www.w3.org/Graphics/SVG/1.1/DTD/svg11.dtd"><svg id="Untitled-Page%201" viewBox="0 0 23 22" style="background-color:#ffffff00" version="1.1"	xmlns="http://www.w3.org/2000/svg" xmlns:xlink="http://www.w3.org/1999/xlink" xml:space="preserve"	x="0px" y="0px" width="23px" height="22px">	<g id="Layer%201">		<g>			<path d="M 3 17 L 9 22 L 9 17 L 3 17 Z" stroke="#ffffff00" stroke-width="1"/>			<path d="M 6.5469 13 L 4.8906 13 L 4.8906 4 L 8.5 4 C 8.8906 4 9.25 4.0938 9.5781 4.2656 C 9.9063 4.4375 10.1875 4.6719 10.4375 4.9531 C 10.6719 5.2344 10.8594 5.5625 11 5.9219 C 11.1406 6.2813 11.2188 6.6406 11.2188 7 C 11.2188 7.3906 11.1406 7.7656 11.0156 8.125 C 10.8906 8.4844 10.7031 8.7969 10.4688 9.0781 C 10.2344 9.3594 9.9531 9.5781 9.625 9.75 C 9.2969 9.9219 8.9375 10 8.5625 10 L 6.5469 10 L 6.5469 13 ZM 19.2656 4 L 19.2656 5.5 L 16.5469 5.5 L 16.5469 13 L 14.8906 13 L 14.8906 5.5 L 12.1719 5.5 L 12.1719 4 L 19.2656 4 ZM 0 0 L 0 17 L 23 17 L 23 0 L 0 0 ZM 6.5469 5.5 L 6.5469 8.5 L 8.4688 8.5 C 8.7656 8.5 9.0156 8.375 9.2188 8.0938 C 9.4219 7.8281 9.5313 7.4688 9.5313 7 C 9.5313 6.7656 9.5 6.5625 9.4375 6.375 C 9.375 6.1875 9.2813 6.0313 9.1875 5.9063 C 9.0781 5.7813 8.9531 5.6719 8.8125 5.6094 C 8.6719 5.5469 8.5313 5.5 8.3906 5.5 L 6.5469 5.5 Z"/>		</g>	</g></svg>