<?xml version="1.0" standalone="no"?><!-- Generator: Adobe Fireworks CS6, Export SVG Extension by Aaron Beall (http://fireworks.abeall.com) . Version: 0.6.1  --><!DOCTYPE svg PUBLIC "-//W3C//DTD SVG 1.1//EN" "http://www.w3.org/Graphics/SVG/1.1/DTD/svg11.dtd"><svg id="Untitled-Page%201" viewBox="0 0 9 9" style="background-color:#ffffff00" version="1.1"	xmlns="http://www.w3.org/2000/svg" xmlns:xlink="http://www.w3.org/1999/xlink" xml:space="preserve"	x="0px" y="0px" width="9px" height="9px">	<g id="Layer%201">		<path d="M 6.3966 4.8983 C 6.1769 4.6782 6.1769 4.3214 6.3966 4.1012 L 8.6913 1.8013 C 8.8901 1.6021 9 1.3357 9 1.0499 C 9 0.7642 8.8901 0.4978 8.6913 0.2985 C 8.2948 -0.0989 7.5906 -0.1001 7.1919 0.2985 L 4.9498 2.6359 C 4.8455 2.7449 4.7015 2.807 4.5499 2.8087 C 4.3787 2.8142 4.2534 2.7504 4.1469 2.6436 L 1.807 0.2985 C 1.4083 -0.1001 0.7041 -0.0989 0.3076 0.2985 C 0.1088 0.4978 0 0.7642 0 1.0499 C 0 1.3357 0.1088 1.6021 0.3076 1.8013 L 2.6737 4.0946 C 2.7836 4.2009 2.8451 4.3468 2.8451 4.4998 C 2.8451 4.6528 2.7836 4.7987 2.6737 4.9049 L 0.301 7.2048 C 0.1088 7.3976 0 7.6639 0 7.9491 C 0 8.2354 0.1088 8.5018 0.3076 8.7012 C 0.7041 9.0985 1.4083 9.1007 1.807 8.7012 L 4.1469 6.3561 C 4.2523 6.2504 4.3951 6.1909 4.5444 6.1909 C 4.6752 6.1897 4.8433 6.2526 4.9498 6.3638 L 7.1996 8.7087 C 7.5829 9.093 8.2948 9.0985 8.6913 8.7012 C 8.8901 8.5018 9 8.2354 9 7.9491 C 9 7.6639 8.8901 7.3976 8.6913 7.1982 L 6.3966 4.8983 Z" fill="#ffffff"/>	</g></svg>