<?xml version="1.0" standalone="no"?><!-- Generator: Adobe Fireworks CS6, Export SVG Extension by Aaron Beall (http://fireworks.abeall.com) . Version: 0.6.1  --><!DOCTYPE svg PUBLIC "-//W3C//DTD SVG 1.1//EN" "http://www.w3.org/Graphics/SVG/1.1/DTD/svg11.dtd"><svg id="Untitled-Page%201" viewBox="0 0 23 22" style="background-color:#ffffff00" version="1.1"	xmlns="http://www.w3.org/2000/svg" xmlns:xlink="http://www.w3.org/1999/xlink" xml:space="preserve"	x="0px" y="0px" width="23px" height="22px">	<g id="Layer%201">		<g>			<path d="M 5.7813 11.2344 L 9.7969 11.2344 L 9.7969 13 L 3.8125 13 L 3.8125 4 L 9.7031 4 L 9.7031 5.7656 L 5.7813 5.7656 L 5.7813 7.2344 L 9.1406 7.2344 L 9.1406 9 L 5.7813 9 L 5.7813 11.2344 ZM 16.7031 13 L 12.7813 7.8594 L 12.7813 13 L 10.8125 13 L 10.8125 4 L 12.3594 4 L 16.3281 9.2969 L 16.3281 4 L 18.2969 4 L 18.2969 13 L 16.7031 13 ZM 0 0 L 0 17 L 23 17 L 23 0 L 0 0 Z"/>			<path d="M 3 17 L 9 22 L 9 17 L 3 17 Z" stroke="#ffffff00" stroke-width="1"/>		</g>	</g></svg>