<?xml version="1.0" standalone="no"?><!-- Generator: Adobe Fireworks CS6, Export SVG Extension by Aaron Beall (http://fireworks.abeall.com) . Version: 0.6.1  --><!DOCTYPE svg PUBLIC "-//W3C//DTD SVG 1.1//EN" "http://www.w3.org/Graphics/SVG/1.1/DTD/svg11.dtd"><svg id="Untitled-Page%201" viewBox="0 0 22 21" style="background-color:#ffffff00" version="1.1"	xmlns="http://www.w3.org/2000/svg" xmlns:xlink="http://www.w3.org/1999/xlink" xml:space="preserve"	x="0px" y="0px" width="22px" height="21px">	<g id="Layer%201">		<path id="Ellipse" d="M 0 10.5 C 0 4.7007 4.7915 0 10.7025 0 C 16.6133 0 21.405 4.7007 21.405 10.5 C 21.405 16.2993 16.6133 21 10.7025 21 C 4.7915 21 0 16.2993 0 10.5 Z" fill="#55acee"/>		<path d="M 16.4875 7.6021 C 16.0623 7.7842 15.6046 7.9072 15.1243 7.9629 C 15.6147 7.6797 15.9908 7.23 16.1682 6.6948 C 15.7095 6.957 15.2015 7.1479 14.6606 7.251 C 14.2275 6.8057 13.6106 6.5273 12.9282 6.5273 C 11.6172 6.5273 10.5544 7.5537 10.5544 8.8193 C 10.5544 8.999 10.5752 9.1738 10.616 9.3418 C 8.6432 9.2461 6.8938 8.3335 5.7229 6.9463 C 5.5186 7.2852 5.4019 7.6792 5.4019 8.0996 C 5.4019 8.8945 5.8206 9.5967 6.4575 10.0078 C 6.0688 9.9961 5.7026 9.8921 5.3824 9.7207 C 5.3823 9.7305 5.3823 9.7402 5.3823 9.75 C 5.3823 10.8599 6.2004 11.7871 7.2866 11.9976 C 7.0874 12.0493 6.8774 12.0781 6.6609 12.0781 C 6.5079 12.0781 6.3591 12.0635 6.2144 12.0371 C 6.5165 12.9473 7.3931 13.6104 8.4316 13.6284 C 7.6191 14.2432 6.5962 14.6104 5.4836 14.6104 C 5.2922 14.6104 5.103 14.5991 4.9172 14.5781 C 5.968 15.2285 7.2158 15.6084 8.5564 15.6084 C 12.9226 15.6084 15.3101 12.1152 15.3101 9.085 C 15.3101 8.9858 15.3079 8.8867 15.3035 8.7881 C 15.7671 8.4658 16.1697 8.062 16.4875 7.6021 Z" fill="#ffffff"/>	</g></svg>