<?xml version="1.0" standalone="no"?><!-- Generator: Adobe Fireworks CS6, Export SVG Extension by Aaron Beall (http://fireworks.abeall.com) . Version: 0.6.1  --><!DOCTYPE svg PUBLIC "-//W3C//DTD SVG 1.1//EN" "http://www.w3.org/Graphics/SVG/1.1/DTD/svg11.dtd"><svg id="Untitled-Page%201" viewBox="0 0 17 22" style="background-color:#ffffff00" version="1.1"	xmlns="http://www.w3.org/2000/svg" xmlns:xlink="http://www.w3.org/1999/xlink" xml:space="preserve"	x="0px" y="0px" width="17px" height="22px">	<g id="Layer%201">		<path d="M 8.8418 0.5 C 3.094 0.5 0.1957 4.6089 0.1957 8.0356 C 0.1957 10.1104 0.9832 11.9561 2.6725 12.6431 C 2.9497 12.7563 3.198 12.6475 3.2786 12.3413 C 3.3345 12.1304 3.4666 11.5957 3.5256 11.3735 C 3.6062 11.0708 3.575 10.9658 3.3513 10.7007 C 2.8643 10.1284 2.5522 9.3872 2.5522 8.3359 C 2.5522 5.2876 4.8398 2.5586 8.5088 2.5586 C 11.7578 2.5586 13.5427 4.5376 13.5427 7.1807 C 13.5427 10.6592 11.9987 13.5947 9.7073 13.5947 C 8.4419 13.5947 7.4949 12.5513 7.7977 11.271 C 8.1614 9.7422 8.8657 8.0947 8.8657 6.9902 C 8.8657 6.0034 8.3335 5.1792 7.2341 5.1792 C 5.9407 5.1792 4.9011 6.5142 4.9011 8.3013 C 4.9011 9.4404 5.287 10.2109 5.287 10.2109 C 5.287 10.2109 3.9628 15.8037 3.7306 16.7837 C 3.2688 18.7344 3.6611 21.1255 3.6947 21.3662 C 3.7141 21.5103 3.8987 21.5444 3.9827 21.4365 C 4.1012 21.2813 5.6431 19.3848 6.1661 17.4888 C 6.3149 16.9526 7.0173 14.1738 7.0173 14.1738 C 7.4379 14.9736 8.6661 15.6763 9.9727 15.6763 C 13.8611 15.6763 16.5 12.1411 16.5 7.4106 C 16.5004 3.832 13.4608 0.5 8.8418 0.5 Z" fill="#ffffff"/>	</g></svg>