<?xml version="1.0" standalone="no"?><!-- Generator: Adobe Fireworks CS6, Export SVG Extension by Aaron Beall (http://fireworks.abeall.com) . Version: 0.6.1  --><!DOCTYPE svg PUBLIC "-//W3C//DTD SVG 1.1//EN" "http://www.w3.org/Graphics/SVG/1.1/DTD/svg11.dtd"><svg id="Untitled-Page%201" viewBox="0 0 23 22" style="background-color:#ffffff00" version="1.1"	xmlns="http://www.w3.org/2000/svg" xmlns:xlink="http://www.w3.org/1999/xlink" xml:space="preserve"	x="0px" y="0px" width="23px" height="22px">	<g id="Layer%201">		<g>			<path d="M 6.7813 11.2344 L 10.7969 11.2344 L 10.7969 13 L 4.8125 13 L 4.8125 4 L 10.7031 4 L 10.7031 5.7656 L 6.7813 5.7656 L 6.7813 7.2344 L 10.1406 7.2344 L 10.1406 9 L 6.7813 9 L 6.7813 11.2344 ZM 17.7969 4.9375 L 16.9375 6.5781 C 16.9063 6.5469 16.8125 6.5 16.6719 6.4063 C 16.5156 6.3125 16.3438 6.2188 16.125 6.125 C 15.9063 6.0313 15.6719 5.9531 15.4219 5.875 C 15.1719 5.8125 14.9063 5.7656 14.6563 5.7656 C 14.3125 5.7656 14.0625 5.8281 13.875 5.9531 C 13.6875 6.0781 13.6094 6.2656 13.6094 6.5 C 13.6094 6.6563 13.6406 6.7969 13.7344 6.8906 C 13.8125 6.9844 13.9219 7.0781 14.0781 7.1563 C 14.2188 7.2344 14.4063 7.3125 14.625 7.375 C 14.8438 7.4375 15.0938 7.5156 15.3906 7.5938 C 15.7969 7.7188 16.1563 7.8438 16.4844 7.9844 C 16.8125 8.125 17.0938 8.2969 17.3281 8.5 C 17.5625 8.7031 17.75 8.9531 17.875 9.2344 C 18 9.5313 18.0625 9.875 18.0625 10.2813 C 18.0625 10.7813 17.9688 11.2188 17.7813 11.5625 C 17.5938 11.9063 17.3594 12.1875 17.0625 12.4063 C 16.7656 12.625 16.4219 12.7656 16.0469 12.8594 C 15.6563 12.9531 15.2656 13 14.8594 13 C 14.5469 13 14.2188 12.9844 13.8906 12.9375 C 13.5625 12.8906 13.25 12.8281 12.9375 12.7344 C 12.625 12.6406 12.3125 12.5469 12.0313 12.4219 C 11.7344 12.2969 11.4688 12.1563 11.2188 11.9844 L 12.0781 10.25 C 12.1094 10.2969 12.2188 10.375 12.4063 10.4844 C 12.5781 10.5938 12.7969 10.7031 13.0469 10.8125 C 13.2969 10.9375 13.5938 11.0313 13.9063 11.1094 C 14.2188 11.2031 14.5469 11.2344 14.8906 11.2344 C 15.5781 11.2344 15.9375 11.0156 15.9375 10.5625 C 15.9375 10.4063 15.875 10.2656 15.7813 10.1563 C 15.6719 10.0469 15.5313 9.9531 15.3438 9.8594 C 15.1563 9.7813 14.9375 9.7031 14.6875 9.625 L 13.875 9.3594 C 13.4844 9.2344 13.1406 9.1094 12.8594 8.9531 C 12.5625 8.8125 12.3281 8.6406 12.1406 8.4531 C 11.9531 8.2656 11.8125 8.0313 11.7188 7.7813 C 11.625 7.5313 11.5781 7.25 11.5781 6.9063 C 11.5781 6.4375 11.6563 6.0313 11.8281 5.6719 C 11.9844 5.3125 12.2188 5 12.5 4.75 C 12.7813 4.5 13.125 4.3125 13.5 4.1875 C 13.875 4.0625 14.2813 4 14.7188 4 C 15.0156 4 15.3125 4.0313 15.6094 4.0938 C 15.8906 4.1563 16.1719 4.2188 16.4219 4.3125 C 16.6719 4.4063 16.9219 4.5 17.1563 4.6094 C 17.3906 4.7188 17.6094 4.8281 17.7969 4.9375 ZM 0 0 L 0 17 L 23 17 L 23 0 L 0 0 Z"/>			<path d="M 3 17 L 9 22 L 9 17 L 3 17 Z" stroke="#ffffff00" stroke-width="1"/>		</g>	</g></svg>