<?xml version="1.0" standalone="no"?><!-- Generator: Adobe Fireworks CS6, Export SVG Extension by Aaron Beall (http://fireworks.abeall.com) . Version: 0.6.1  --><!DOCTYPE svg PUBLIC "-//W3C//DTD SVG 1.1//EN" "http://www.w3.org/Graphics/SVG/1.1/DTD/svg11.dtd"><svg id="Untitled-Page%201" viewBox="0 0 22 21" style="background-color:#ffffff00" version="1.1"	xmlns="http://www.w3.org/2000/svg" xmlns:xlink="http://www.w3.org/1999/xlink" xml:space="preserve"	x="0px" y="0px" width="22px" height="21px">	<g id="Layer%201">		<g>			<path id="Ellipse" d="M 0.2975 10.5 C 0.2975 4.7007 5.0892 0 11 0 C 16.9108 0 21.7025 4.7007 21.7025 10.5 C 21.7025 16.2993 16.9108 21 11 21 C 5.0892 21 0.2975 16.2993 0.2975 10.5 Z" fill="#3b5998"/>			<path d="M 13.6034 8.6997 L 11.83 8.6997 L 11.83 7.6396 C 11.83 7.2412 12.1194 7.1479 12.3234 7.1479 C 12.5267 7.1479 13.5748 7.1479 13.5748 7.1479 L 13.5748 5.3979 L 11.8512 5.3916 C 9.9382 5.3916 9.5029 6.6973 9.5029 7.5332 L 9.5029 8.6997 L 8.3966 8.6997 L 8.3966 10.5039 L 9.5029 10.5039 C 9.5029 12.8184 9.5029 15.6084 9.5029 15.6084 L 11.83 15.6084 C 11.83 15.6084 11.83 12.791 11.83 10.5039 L 13.4003 10.5039 L 13.6034 8.6997 Z" fill="#ffffff"/>		</g>	</g></svg>