<?xml version="1.0" standalone="no"?><!-- Generator: Adobe Fireworks CS6, Export SVG Extension by Aaron Beall (http://fireworks.abeall.com) . Version: 0.6.1  --><!DOCTYPE svg PUBLIC "-//W3C//DTD SVG 1.1//EN" "http://www.w3.org/Graphics/SVG/1.1/DTD/svg11.dtd"><svg id="Untitled-Page%201" viewBox="0 0 25 20" style="background-color:#ffffff00" version="1.1"	xmlns="http://www.w3.org/2000/svg" xmlns:xlink="http://www.w3.org/1999/xlink" xml:space="preserve"	x="0px" y="0px" width="25px" height="20px">	<g id="Layer%201">		<path d="M 21.6609 1.1333 C 20.9554 0.9004 16.6017 0.6665 12.2481 0.6665 C 7.8944 0.6665 3.5414 0.9004 2.8353 1.1333 C 0.9526 1.7168 0.4821 5.7988 0.4821 10 C 0.4821 14.1997 0.9526 18.2827 2.8353 18.8667 C 3.5414 19.0996 7.8944 19.3335 12.2481 19.3335 C 16.6017 19.3335 20.9554 19.0996 21.6609 18.8667 C 23.543 18.2827 24.0141 14.1997 24.0141 10 C 24.0141 5.7988 23.543 1.7168 21.6609 1.1333 L 21.6609 1.1333 ZM 9.8949 15.25 L 9.8949 4.75 L 16.9545 10 L 9.8949 15.25 L 9.8949 15.25 Z" fill="#ffffff"/>	</g></svg>