<?xml version="1.0" standalone="no"?><!-- Generator: Adobe Fireworks CS6, Export SVG Extension by Aaron Beall (http://fireworks.abeall.com) . Version: 0.6.1  --><!DOCTYPE svg PUBLIC "-//W3C//DTD SVG 1.1//EN" "http://www.w3.org/Graphics/SVG/1.1/DTD/svg11.dtd"><svg id="Untitled-Page%201" viewBox="0 0 406 337" style="background-color:#ffffff00" version="1.1"	xmlns="http://www.w3.org/2000/svg" xmlns:xlink="http://www.w3.org/1999/xlink" xml:space="preserve"	x="0px" y="0px" width="406px" height="337px">	<g id="Layer%201">		<g>			<g>				<path d="M 2.667 219.5376 L 0.167 219.5376 L 0.167 218.5376 L 2.667 218.5376 L 2.667 219.5376 Z" fill="#bababa"/>				<path d="M 237.7163 219.5376 L 233.7534 219.5376 L 233.7534 218.5376 L 237.7163 218.5376 L 237.7163 219.5376 ZM 230.8032 219.5376 L 226.8403 219.5376 L 226.8403 218.5376 L 230.8032 218.5376 L 230.8032 219.5376 ZM 223.8896 219.5376 L 219.9268 219.5376 L 219.9268 218.5376 L 223.8896 218.5376 L 223.8896 219.5376 ZM 216.9766 219.5376 L 213.0137 219.5376 L 213.0137 218.5376 L 216.9766 218.5376 L 216.9766 219.5376 ZM 210.0635 219.5376 L 206.1006 219.5376 L 206.1006 218.5376 L 210.0635 218.5376 L 210.0635 219.5376 ZM 203.1504 219.5376 L 199.1875 219.5376 L 199.1875 218.5376 L 203.1504 218.5376 L 203.1504 219.5376 ZM 196.2368 219.5376 L 192.2739 219.5376 L 192.2739 218.5376 L 196.2368 218.5376 L 196.2368 219.5376 ZM 189.3237 219.5376 L 185.3608 219.5376 L 185.3608 218.5376 L 189.3237 218.5376 L 189.3237 219.5376 ZM 182.4106 219.5376 L 178.4478 219.5376 L 178.4478 218.5376 L 182.4106 218.5376 L 182.4106 219.5376 ZM 175.4971 219.5376 L 171.5347 219.5376 L 171.5347 218.5376 L 175.4971 218.5376 L 175.4971 219.5376 ZM 168.584 219.5376 L 164.6211 219.5376 L 164.6211 218.5376 L 168.584 218.5376 L 168.584 219.5376 ZM 161.6709 219.5376 L 157.708 219.5376 L 157.708 218.5376 L 161.6709 218.5376 L 161.6709 219.5376 ZM 154.7578 219.5376 L 150.7949 219.5376 L 150.7949 218.5376 L 154.7578 218.5376 L 154.7578 219.5376 ZM 147.8442 219.5376 L 143.8818 219.5376 L 143.8818 218.5376 L 147.8442 218.5376 L 147.8442 219.5376 ZM 140.9312 219.5376 L 136.9683 219.5376 L 136.9683 218.5376 L 140.9312 218.5376 L 140.9312 219.5376 ZM 134.0181 219.5376 L 130.0552 219.5376 L 130.0552 218.5376 L 134.0181 218.5376 L 134.0181 219.5376 ZM 127.105 219.5376 L 123.1421 219.5376 L 123.1421 218.5376 L 127.105 218.5376 L 127.105 219.5376 ZM 120.1914 219.5376 L 116.2285 219.5376 L 116.2285 218.5376 L 120.1914 218.5376 L 120.1914 219.5376 ZM 113.2783 219.5376 L 109.3154 219.5376 L 109.3154 218.5376 L 113.2783 218.5376 L 113.2783 219.5376 ZM 106.3652 219.5376 L 102.4023 219.5376 L 102.4023 218.5376 L 106.3652 218.5376 L 106.3652 219.5376 ZM 99.4521 219.5376 L 95.4893 219.5376 L 95.4893 218.5376 L 99.4521 218.5376 L 99.4521 219.5376 ZM 92.5386 219.5376 L 88.5757 219.5376 L 88.5757 218.5376 L 92.5386 218.5376 L 92.5386 219.5376 ZM 57.9727 219.5376 L 54.0098 219.5376 L 54.0098 218.5376 L 57.9727 218.5376 L 57.9727 219.5376 ZM 51.0596 219.5376 L 47.0967 219.5376 L 47.0967 218.5376 L 51.0596 218.5376 L 51.0596 219.5376 ZM 44.146 219.5376 L 40.1831 219.5376 L 40.1831 218.5376 L 44.146 218.5376 L 44.146 219.5376 ZM 37.2329 219.5376 L 33.27 219.5376 L 33.27 218.5376 L 37.2329 218.5376 L 37.2329 219.5376 ZM 30.3198 219.5376 L 26.3569 219.5376 L 26.3569 218.5376 L 30.3198 218.5376 L 30.3198 219.5376 ZM 23.4063 219.5376 L 19.4438 219.5376 L 19.4438 218.5376 L 23.4063 218.5376 L 23.4063 219.5376 ZM 16.4932 219.5376 L 12.5303 219.5376 L 12.5303 218.5376 L 16.4932 218.5376 L 16.4932 219.5376 ZM 9.5801 219.5376 L 5.6172 219.5376 L 5.6172 218.5376 L 9.5801 218.5376 L 9.5801 219.5376 Z" fill="#bababa"/>				<path d="M 243.167 219.5376 L 240.667 219.5376 L 240.667 218.5376 L 243.167 218.5376 L 243.167 219.5376 Z" fill="#bababa"/>			</g>			<path id="Ellipse" d="M 107 68.5 C 107 30.668 139.6827 0 180 0 C 220.3174 0 253 30.668 253 68.5 C 253 106.332 220.3174 137 180 137 C 139.6827 137 107 106.332 107 68.5 Z" fill="#000000"/>			<g>				<path d="M 151.193 39.7119 C 151.3425 39.8608 151.4493 40.123 151.5106 40.4873 C 151.6057 40.9473 151.6871 41.25 151.7527 41.3838 C 151.8695 41.6895 151.9989 41.9009 152.1409 42.0171 C 152.3199 42.1938 152.5475 42.2334 152.8265 42.146 C 153.1516 42.0601 153.3641 41.8848 153.486 41.6157 C 153.5859 41.3521 153.5691 41.0806 153.4355 40.8013 C 153.312 40.5659 152.8918 39.4468 152.1774 37.4546 C 152.0942 37.2446 151.9447 37.0952 151.7447 37.0264 C 151.5473 36.9688 151.3322 36.9839 151.1129 37.0801 C 150.9348 37.1558 150.813 37.2754 150.7341 37.4312 C 150.6551 37.5874 150.6492 37.7607 150.6946 37.9565 C 150.7148 38.0439 150.8728 38.627 151.193 39.7119 L 151.193 39.7119 ZM 156.6826 39.4229 C 156.3624 38.3384 156.1909 37.7466 156.1573 37.6514 C 156.0632 37.4434 155.9052 37.3076 155.6943 37.2417 C 155.5019 37.2056 155.2977 37.2183 155.0684 37.271 C 154.8878 37.3354 154.7659 37.4551 154.687 37.6113 C 154.608 37.7671 154.5887 37.9321 154.6316 38.1172 C 154.7148 38.4766 154.8888 39.0791 155.1644 39.9219 C 155.1921 40.0415 155.2401 40.2485 155.2947 40.5342 C 155.3275 40.8247 155.367 41.0449 155.4191 41.1709 C 155.4889 41.3726 155.6006 41.5073 155.735 41.5913 C 155.8964 41.6919 156.1274 41.6958 156.4172 41.6064 C 156.6794 41.5459 156.8693 41.4219 156.965 41.2393 C 157.0381 41.1079 157.0524 40.9209 157.0237 40.6982 C 156.9935 40.5674 156.9431 40.3496 156.8506 40.0498 C 156.7523 39.7739 156.6935 39.5698 156.6826 39.4229 L 156.6826 39.4229 Z" fill="#ffffff"/>				<path d="M 174.9857 33.8101 C 175.1393 33.7285 175.4611 33.6777 175.9509 33.6567 C 176.4786 33.6499 176.8818 33.603 177.1557 33.4941 C 177.5716 33.3525 177.8589 33.1025 178.0017 32.7256 C 178.1436 32.3945 178.1394 32.0288 177.994 31.6489 C 177.8074 31.1416 177.3008 31.04 176.4741 31.3452 C 175.9675 31.542 173.8496 32.2822 170.0984 33.5698 C 167.5234 34.4727 165.4315 35.2754 163.8008 35.9834 C 162.5071 36.5566 161.4443 36.8354 160.6369 36.8267 C 159.6472 36.8247 159.0742 36.9336 158.907 37.1558 C 158.7374 37.3672 158.8013 37.8916 159.0878 38.7314 C 159.8207 40.9033 160.2921 42.3433 160.4913 43.0547 C 160.9292 44.6973 161.1251 46.1895 161.0731 47.5547 C 161.0631 48.1079 161.2866 48.5269 161.7815 48.8257 C 162.0882 49.0073 162.3672 49.5171 162.6134 50.332 C 162.6849 50.5908 162.8311 51.0732 163.0681 51.7988 C 163.2555 52.4097 163.4017 52.8921 163.4984 53.2598 C 163.8152 54.3799 164.5184 54.7344 165.6241 54.3423 C 166.0727 54.1929 166.6179 53.9644 167.2648 53.6777 C 170.8605 52.1157 173.496 51.1763 175.1738 50.8706 C 176.2156 50.6992 176.6205 50.1128 176.3885 49.1108 C 176.2977 48.7188 176.0624 48.4976 175.7096 48.4644 C 175.5004 48.4551 175.1702 48.5195 174.7081 48.6606 C 173.7235 48.979 173.0858 49.2061 172.7952 49.3418 C 172.1474 49.6743 171.1998 50.0532 169.9496 50.4673 C 168.6122 50.9014 167.6595 51.2583 167.0891 51.5269 C 166.2002 51.9609 165.5861 52.0908 165.2516 51.9385 C 164.9442 51.8027 164.6114 51.2603 164.2584 50.332 C 164.2509 50.2993 164.2122 50.1821 164.1509 49.9668 C 164.1046 49.8164 164.0551 49.7017 164.0105 49.6089 C 163.766 49.1489 163.7021 48.7734 163.8298 48.4805 C 163.949 48.2007 164.2691 47.9434 164.8009 47.7061 C 167.8145 46.3125 170.239 45.3071 172.0831 44.6763 C 172.8107 44.4399 173.3357 44.124 173.6524 43.7529 C 173.9691 43.3818 174.0027 43.0298 173.7582 42.7192 C 173.407 42.2949 172.9961 42.1602 172.5256 42.3145 C 172.3777 42.3716 172.1719 42.4761 171.9249 42.6021 C 171.6225 42.7861 171.4167 42.8911 171.31 42.9268 C 168.4267 44.187 166.3222 45.0845 164.9855 45.6216 C 164.0379 46.0005 163.4187 46.1089 163.1331 45.9678 C 162.8608 45.8354 162.5961 45.2886 162.3364 44.3159 C 162.2397 43.9482 162.0986 43.3384 161.9078 42.4644 C 161.7237 41.6694 161.58 41.0488 161.4573 40.6182 C 161.2724 40.0181 161.2866 39.5332 161.5 39.1631 C 161.6965 38.8193 162.1014 38.5313 162.7064 38.3115 L 168.6973 36.0146 C 171.1505 35.083 173.2466 34.3481 174.9857 33.8101 L 174.9857 33.8101 Z" fill="#ffffff"/>				<path d="M 191.8812 33.8438 C 192.1738 36.5981 192.321 38.0786 192.3311 38.2715 C 192.4716 40.5679 191.8787 42.9756 190.5657 45.5029 C 189.6526 47.2734 188.4866 47.4043 187.0623 45.8735 C 186.7557 45.543 186.5355 45.2378 186.3935 44.9722 C 184.3826 41.1563 183.196 37.4722 182.8226 33.9214 C 182.8167 33.7969 182.8209 33.5664 182.8351 33.2305 C 182.8544 32.9165 182.8561 32.6748 182.8317 32.52 C 182.7703 32.0063 182.4401 31.7729 181.8411 31.8188 C 181.2858 31.855 180.9733 32.145 180.9011 32.6777 C 180.8658 32.8232 180.8953 33.2983 180.9676 34.1079 C 181.3586 38.3311 182.8898 42.6587 185.572 47.0889 C 186.377 48.4292 187.434 49.0688 188.7513 48.9951 C 190.0469 48.9263 191.1063 48.2349 191.9412 46.8726 C 193.0954 45.001 193.8286 42.3545 194.1577 38.9063 C 194.2609 37.8613 194.1162 36.3921 193.7321 34.4844 C 193.3328 32.5117 193.1529 31.0386 193.1948 30.0771 C 193.1973 29.939 192.9897 29.5391 192.5637 28.8916 C 191.9755 28.0405 191.3572 27.8042 190.6843 28.1772 C 190.3574 28.3555 190.2004 28.6211 190.2155 28.9849 C 190.2113 29.2153 190.2953 29.5283 190.4677 29.9248 C 191.355 32.1182 191.829 33.4199 191.8812 33.8438 L 191.8812 33.8438 Z" fill="#ffffff"/>				<path d="M 131.4495 67.624 C 130.6925 67.6836 129.902 67.9458 129.0829 68.4326 C 128.8493 68.5664 128.7535 68.749 128.793 68.9697 C 128.8233 69.1001 128.8813 69.2017 128.9838 69.2471 C 129.0754 69.2944 129.1812 69.3047 129.2963 69.2554 C 129.5702 69.1465 129.7903 69.1528 129.9374 69.291 C 130.0121 69.3657 130.1038 69.5625 130.218 69.8574 L 130.8181 71.4058 C 131.0643 72.0718 131.2643 72.5879 131.3962 72.959 C 131.9635 74.5146 132.4341 75.8516 132.8081 76.9697 C 132.8779 77.1719 132.9543 77.3032 133.04 77.3755 C 133.1417 77.4668 133.2853 77.4912 133.4601 77.4507 C 133.5912 77.4204 133.6877 77.3408 133.7499 77.2119 C 133.7617 77.1636 133.7886 77.0308 133.8306 76.8149 C 133.8675 76.5771 133.7288 76.127 133.4095 75.4434 C 133.0238 74.6719 132.6179 73.6641 132.1918 72.4199 C 131.5086 70.5127 131.1439 69.4839 131.1027 69.3555 C 130.9884 69.0605 130.9598 68.8379 131.0388 68.6821 C 131.1068 68.5288 131.3101 68.4131 131.6378 68.3374 C 133.1836 67.959 134.8051 68.0557 136.483 68.6445 C 137.3635 68.9697 137.8735 69.6323 138.0266 70.6411 C 138.1207 71.2959 138.0544 71.9536 137.8276 72.6138 C 137.4059 73.8237 136.986 74.792 136.5567 75.522 C 135.9813 76.5146 135.2925 77.3159 134.4792 77.9272 C 134.0878 78.2241 134.0223 78.5371 134.2996 78.8403 C 134.6138 79.2041 134.9515 79.1724 135.3237 78.7422 C 135.7236 78.2832 136.0915 77.7856 136.4384 77.2471 C 137.8396 75.1006 138.63 73.1978 138.7987 71.5415 C 138.9666 69.7822 138.254 68.5928 136.6694 67.9595 C 134.7958 67.2207 133.055 67.105 131.4495 67.624 L 131.4495 67.624 Z" fill="#ffffff"/>				<path d="M 149.1538 64.7412 C 149.2361 64.6992 149.4352 64.665 149.7318 64.6538 C 150.0528 64.6489 150.2872 64.6182 150.4569 64.5562 C 150.7031 64.4766 150.8744 64.3223 150.9601 64.0962 C 151.0399 63.894 151.0356 63.6772 150.9584 63.4424 C 150.8441 63.1475 150.5408 63.0796 150.0425 63.2632 C 149.7359 63.3799 148.4606 63.834 146.2225 64.6016 C 144.6683 65.1431 143.4114 65.6274 142.4386 66.0464 C 141.6547 66.3872 141.0263 66.5547 140.5424 66.5518 C 139.9442 66.5518 139.6031 66.6187 139.5057 66.7441 C 139.3998 66.8833 139.4377 67.1958 139.6108 67.6953 C 140.052 69.0044 140.3327 69.8691 140.4529 70.2891 C 140.7151 71.2725 140.832 72.1748 140.801 72.9849 C 140.7976 73.3184 140.9371 73.5728 141.2303 73.7461 C 141.4185 73.8638 141.579 74.1592 141.7278 74.6528 C 141.7631 74.8052 141.8555 75.105 142.0001 75.5308 C 142.1077 75.896 142.2001 76.1958 142.2615 76.4111 C 142.4421 77.0923 142.8707 77.3032 143.5276 77.0601 C 143.8066 76.9731 144.1325 76.8408 144.5165 76.6606 C 146.6705 75.729 148.255 75.1689 149.259 74.9839 C 149.8782 74.8755 150.1293 74.5195 149.9907 73.9204 C 149.9352 73.6812 149.7906 73.5537 149.5789 73.5337 C 149.4622 73.5259 149.2631 73.5605 148.9841 73.6475 C 148.3851 73.8428 148.002 73.9771 147.8373 74.0605 C 147.4475 74.2651 146.8779 74.4883 146.131 74.7402 C 145.327 74.9941 144.7549 75.2061 144.4147 75.3765 C 143.877 75.6377 143.5141 75.71 143.3091 75.6191 C 143.1284 75.5347 142.9276 75.2139 142.7175 74.6543 C 142.7125 74.6323 142.6864 74.5698 142.6452 74.4414 C 142.6251 74.3545 142.5965 74.2808 142.5595 74.2202 C 142.415 73.9438 142.3864 73.7212 142.4603 73.5435 C 142.5258 73.3794 142.7191 73.2202 143.0425 73.0767 C 144.8521 72.2471 146.2988 71.6387 147.4069 71.2573 C 147.8446 71.1108 148.1605 70.9351 148.3495 70.708 C 148.5385 70.481 148.5612 70.2808 148.4125 70.0854 C 148.205 69.835 147.9562 69.7544 147.6773 69.8418 C 147.584 69.8862 147.4581 69.938 147.3152 70.0166 C 147.1338 70.1274 147.0103 70.1904 146.9473 70.2163 C 145.2124 70.9712 143.9438 71.5044 143.144 71.8257 C 142.5744 72.0488 142.2006 72.1235 142.0417 72.0337 C 141.8746 71.9575 141.7174 71.6265 141.5594 71.0435 C 141.498 70.8281 141.4124 70.458 141.3022 69.9326 C 141.1913 69.4536 141.1055 69.083 141.0341 68.8242 C 140.9265 68.459 140.929 68.1719 141.0634 67.957 C 141.176 67.748 141.4238 67.5762 141.7851 67.4468 L 145.3774 66.0693 C 146.8452 65.502 148.1011 65.064 149.1538 64.7412 L 149.1538 64.7412 Z" fill="#ffffff"/>				<path d="M 152.8135 64.5986 C 153.0059 64.7837 153.1051 64.8638 153.116 64.8613 C 153.8116 64.7358 154.3636 64.8838 154.7636 65.3198 C 155.009 65.5845 155.2635 66.0879 155.5493 66.8252 L 156.2224 68.689 C 156.3191 69.0566 156.7973 70.5757 157.6595 73.2563 C 157.757 73.5781 157.9175 73.7246 158.1216 73.7119 C 158.4157 73.6904 158.6064 73.52 158.6618 73.1631 C 158.6979 72.9717 158.6567 72.6943 158.5273 72.334 C 158.1492 71.2969 157.8819 70.5898 157.7365 70.2104 C 157.5231 69.686 157.4617 69.3213 157.5306 69.1221 C 157.5995 68.9229 157.8809 68.6973 158.3749 68.4458 C 158.4354 68.4092 158.6025 68.3359 158.8983 68.2222 C 160.2702 67.6885 161.1675 67.3901 161.59 67.3271 C 161.8463 67.291 162.0336 67.1563 162.1412 66.9248 C 162.2537 66.7153 162.2495 66.4985 162.1369 66.2607 C 162.0294 66.0444 161.8789 65.9414 161.6992 65.96 C 161.6664 65.9673 161.4992 66.0405 161.1976 66.1787 C 160.7918 66.3638 160.2079 66.6245 159.4434 66.9497 C 158.6487 67.293 158.0648 67.5537 157.6867 67.7095 C 157.459 67.8193 157.2818 67.8486 157.1574 67.8086 C 157.0112 67.7734 156.886 67.6299 156.7978 67.3979 C 156.4575 66.5239 156.139 65.7944 155.8423 65.209 C 155.7062 64.9189 155.6776 64.6963 155.7541 64.5293 C 155.8246 64.3872 156.001 64.2549 156.2943 64.1299 C 158.1434 63.3716 159.0667 62.9868 159.0557 62.9893 C 159.4111 62.8848 160.1832 62.5923 161.3669 62.0903 C 162.3146 61.7114 163.0942 61.4517 163.7327 61.3276 C 164.0108 61.2866 164.22 61.1465 164.3603 60.9077 C 164.4921 60.6826 164.5013 60.4741 164.3904 60.293 C 164.2661 60.1035 164.0989 60.0273 163.8973 60.0508 C 163.8317 60.0659 163.7469 60.0972 163.6402 60.1328 C 163.5032 60.1875 163.4184 60.2183 163.3747 60.2285 C 163.2789 60.2622 163.0983 60.3267 162.8463 60.4307 L 156.2925 63.1782 C 155.9254 63.3315 155.6599 63.4268 155.5045 63.4512 C 155.2154 63.4951 154.934 63.4219 154.687 63.2495 C 154.5525 63.1655 154.4063 63.1304 154.2425 63.1685 C 154.0652 63.1978 153.9686 63.2773 153.9526 63.4072 C 153.9073 63.6582 153.7267 63.8721 153.4218 64.0454 C 153.0756 64.2397 152.8765 64.4233 152.8135 64.5986 L 152.8135 64.5986 Z" fill="#ffffff"/>				<path d="M 175.7156 58.6265 C 175.7979 58.5845 175.997 58.5503 176.2936 58.5391 C 176.6146 58.5342 176.8489 58.5034 177.0187 58.4414 C 177.2648 58.3618 177.4362 58.2075 177.5219 57.9814 C 177.6017 57.7793 177.5974 57.5625 177.5201 57.3276 C 177.4058 57.0327 177.1025 56.9648 176.6043 57.1484 C 176.2977 57.2651 175.0224 57.7192 172.7843 58.4868 C 171.23 59.0283 169.9732 59.5127 169.0004 59.9316 C 168.2165 60.2725 167.5881 60.4399 167.1042 60.437 C 166.506 60.437 166.1649 60.5039 166.0674 60.6294 C 165.9616 60.7686 165.9995 61.0811 166.1725 61.5806 C 166.6138 62.8896 166.8945 63.7544 167.0146 64.1743 C 167.2769 65.1577 167.3937 66.0601 167.3627 66.8701 C 167.3594 67.2036 167.4989 67.458 167.7921 67.6313 C 167.9803 67.749 168.1408 68.0444 168.2896 68.5381 C 168.3249 68.6904 168.4173 68.9902 168.5619 69.416 C 168.6694 69.7813 168.7619 70.0811 168.8232 70.2964 C 169.0039 70.9775 169.4324 71.1885 170.0894 70.9458 C 170.3683 70.8584 170.6943 70.7261 171.0782 70.5459 C 173.2323 69.6143 174.8168 69.0542 175.8207 68.8691 C 176.4399 68.7607 176.6911 68.4048 176.5524 67.8057 C 176.4969 67.5664 176.3524 67.439 176.1407 67.4189 C 176.0239 67.4111 175.8248 67.4458 175.5459 67.5327 C 174.9469 67.728 174.5638 67.8623 174.3991 67.9458 C 174.0093 68.1504 173.4397 68.3735 172.6928 68.6255 C 171.8889 68.8794 171.3167 69.0913 170.9764 69.2617 C 170.4388 69.5229 170.0759 69.5952 169.8708 69.5044 C 169.6902 69.4199 169.4894 69.0991 169.2793 68.5396 C 169.2742 68.5176 169.2482 68.4551 169.207 68.3267 C 169.1868 68.2397 169.1583 68.166 169.1213 68.1055 C 168.9767 67.8291 168.9482 67.6064 169.0221 67.4287 C 169.0876 67.2646 169.2808 67.1055 169.6042 66.9619 C 171.4139 66.1323 172.8605 65.5239 173.9687 65.1426 C 174.4064 64.9961 174.7223 64.8203 174.9113 64.5933 C 175.1003 64.3662 175.123 64.166 174.9742 63.9707 C 174.7667 63.7202 174.518 63.6396 174.2391 63.7271 C 174.1458 63.7715 174.0198 63.8232 173.877 63.9019 C 173.6956 64.0127 173.572 64.0757 173.509 64.1016 C 171.7742 64.8564 170.5056 65.3896 169.7058 65.7114 C 169.1362 65.9341 168.7623 66.0088 168.6035 65.9189 C 168.4363 65.8428 168.2792 65.5117 168.1212 64.9287 C 168.0598 64.7134 167.9741 64.3433 167.864 63.8179 C 167.7531 63.3389 167.6673 62.9688 167.5959 62.7095 C 167.4883 62.3442 167.4908 62.0571 167.6252 61.8428 C 167.7377 61.6333 167.9856 61.4614 168.3469 61.3325 L 171.9392 59.9546 C 173.4069 59.3872 174.6629 58.9492 175.7156 58.6265 L 175.7156 58.6265 Z" fill="#ffffff"/>				<path d="M 181.9641 61.0195 C 182.2304 61.0269 182.4917 61.1616 182.7371 61.4268 L 186.9568 66.2368 C 187.266 66.5786 187.4097 66.752 187.4046 66.73 C 187.6054 66.9019 187.8171 66.9219 188.0448 66.812 C 188.2641 66.7158 188.4061 66.5337 188.4816 66.2642 C 188.5169 66.1182 188.5404 65.8721 188.5496 65.5142 C 188.5463 65.4004 188.5017 65.1582 188.4378 64.7832 C 188.3411 64.2661 188.1646 63.5039 187.9218 62.5044 C 187.6847 61.4805 187.5107 60.729 187.4191 60.2339 C 187.0762 58.4546 187.0063 56.9106 187.2153 55.5776 C 187.2455 55.4102 187.1968 55.249 187.0851 55.1143 C 186.9624 54.9819 186.8062 54.9033 186.6028 54.8696 C 186.2281 54.8413 185.9962 55.0322 185.8904 55.4697 C 185.8492 55.6396 185.8484 55.835 185.8879 56.0552 C 186.014 56.8979 186.2007 58.1514 186.4588 59.8125 C 186.7059 61.4766 186.9035 62.7271 187.0245 63.5483 L 187.08 63.7876 C 187.1052 63.8965 187.112 63.9756 187.1136 64.0322 C 187.1129 64.2275 187.012 64.3887 186.7869 64.5093 C 184.6838 62.1826 183.0385 60.0952 181.8293 58.2515 C 181.7815 58.1938 181.705 58.062 181.6025 57.8677 C 181.5075 57.7061 181.4336 57.5854 181.3756 57.4839 C 181.2159 57.2915 180.9966 57.2388 180.7009 57.3525 C 180.4926 57.4463 180.3893 57.5962 180.3935 57.8135 C 180.3952 58.0195 180.4053 58.2124 180.4507 58.4082 L 181.24 62.8608 C 181.4973 64.5684 181.5705 66.0771 181.4816 67.3823 C 181.4581 67.7778 181.6177 67.9707 181.9739 67.9688 C 182.137 67.9771 182.2764 67.9336 182.3898 67.8271 C 182.4948 67.7344 182.5545 67.5942 182.5629 67.4316 C 182.5998 66.8955 182.5897 66.4048 182.5409 65.9453 C 182.4938 65.5435 182.3088 63.8999 181.9641 61.0195 L 181.9641 61.0195 Z" fill="#ffffff"/>				<path d="M 191.563 53.7852 C 190.806 53.8447 190.0154 54.1069 189.1964 54.5938 C 188.9628 54.728 188.867 54.9106 188.9066 55.1309 C 188.9368 55.2617 188.9948 55.3628 189.0973 55.4082 C 189.1888 55.4561 189.2947 55.4658 189.4098 55.4165 C 189.6837 55.3076 189.9038 55.3145 190.0508 55.4526 C 190.1256 55.5273 190.2172 55.7241 190.3315 56.019 L 190.9315 57.5669 C 191.1778 58.2329 191.3778 58.749 191.5097 59.1201 C 192.077 60.6758 192.5476 62.0127 192.9216 63.1313 C 192.9913 63.333 193.0678 63.4648 193.1535 63.5366 C 193.2551 63.6279 193.3988 63.6523 193.5735 63.6123 C 193.7047 63.582 193.8013 63.5024 193.8634 63.3735 C 193.8752 63.3247 193.902 63.1924 193.944 62.9761 C 193.981 62.7383 193.8423 62.2886 193.5229 61.605 C 193.1373 60.8335 192.7314 59.8257 192.3053 58.5815 C 191.6221 56.6738 191.2573 55.645 191.2162 55.5171 C 191.1019 55.2222 191.0733 54.999 191.1522 54.8433 C 191.2203 54.6899 191.4236 54.5742 191.7512 54.499 C 193.2971 54.1201 194.9186 54.2173 196.5964 54.8062 C 197.477 55.1309 197.987 55.7935 198.14 56.8022 C 198.2342 57.4575 198.1678 58.1152 197.9411 58.7754 C 197.5194 59.9849 197.0994 60.9536 196.6702 61.6831 C 196.0948 62.6763 195.4059 63.4771 194.5927 64.0889 C 194.2012 64.3853 194.1357 64.6987 194.413 65.002 C 194.7273 65.3657 195.065 65.3335 195.4371 64.9038 C 195.837 64.4448 196.205 63.9473 196.5519 63.4082 C 197.9531 61.2617 198.7435 59.3594 198.9122 57.7026 C 199.0801 55.9434 198.3675 54.7539 196.7829 54.1206 C 194.9093 53.3818 193.1685 53.2666 191.563 53.7852 L 191.563 53.7852 Z" fill="#ffffff"/>				<path d="M 208.2626 61.1714 C 207.036 61.3389 206.0438 61.3267 205.291 61.1558 C 204.2727 60.9312 203.4367 60.4009 202.7939 59.5625 C 201.3116 57.6323 201.1325 55.666 202.2674 53.6611 C 202.6017 53.0679 202.9302 52.6484 203.2612 52.3887 C 203.7081 52.0332 204.2407 51.8989 204.8566 51.9751 C 205.3094 52.043 205.543 51.9092 205.5329 51.5674 C 205.5396 51.1987 205.3505 50.9785 204.9716 50.8818 C 204.1104 50.6904 203.3727 50.8828 202.7477 51.4629 C 201.5078 52.666 200.7618 53.916 200.5343 55.2188 C 200.3109 56.4404 200.4077 57.5537 200.8052 58.5747 C 201.2051 59.6069 201.8933 60.4922 202.8722 61.2422 C 204.556 62.5522 206.6102 62.7793 209.0617 61.9395 C 211.0754 61.2466 212.3187 59.5605 212.7864 56.8604 C 213.0182 55.4766 212.5375 54.2451 211.32 53.1602 C 210.2361 52.2051 209.022 51.6816 207.6753 51.5786 C 207.4904 51.5757 207.3375 51.6108 207.2191 51.6953 C 207.0813 51.7959 206.9838 51.9214 206.9536 52.0889 C 206.8763 52.4512 207.0327 52.6787 207.4359 52.7813 C 207.5956 52.8247 207.8014 52.8691 208.0619 52.9009 C 208.3845 52.9526 208.5988 52.9839 208.6937 52.9961 C 209.4767 53.1484 210.1346 53.4561 210.6673 53.9185 C 211.205 54.4028 211.5504 55 211.7034 55.7104 C 211.9623 57.0273 211.717 58.2539 210.9627 59.3682 C 210.2336 60.4424 209.3363 61.0386 208.2626 61.1714 L 208.2626 61.1714 Z" fill="#ffffff"/>				<path d="M 222.0274 48.9746 C 222.3148 49.0229 222.5164 49.1489 222.6432 49.3491 C 223.5978 50.9878 224.1381 51.9302 224.2642 52.1763 C 224.4768 52.5977 224.5533 52.8784 224.4911 53.0073 C 224.4205 53.1499 224.1433 53.2939 223.6619 53.4507 C 223.1747 53.6318 222.6302 53.8145 222.0505 53.9937 C 221.8153 54.0708 221.6523 54.0625 221.5372 53.9629 C 221.4355 53.8716 221.4003 53.7188 221.4263 53.4834 L 222.0274 48.9746 L 222.0274 48.9746 ZM 219.938 58.7817 C 219.9985 59.043 220.1237 59.1865 220.3514 59.2256 C 220.6522 59.2827 220.8505 59.145 220.9378 58.8267 C 220.9579 58.7651 220.9781 58.5537 221.0092 58.1909 C 221.1023 56.9536 221.1585 56.2524 221.1669 56.0898 C 221.1744 55.5259 221.4667 55.1489 222.0414 54.9478 C 223.2479 54.5439 223.9922 54.2808 224.2854 54.1563 C 224.592 54.0396 224.8373 54.0059 225.0129 54.0688 C 225.2129 54.1377 225.3751 54.3413 225.5054 54.6553 C 225.5625 54.8027 225.9894 55.7026 226.8129 57.3711 C 226.991 57.7432 227.2364 57.8589 227.5489 57.7178 C 227.8421 57.5933 227.9555 57.3374 227.9109 56.9463 C 227.9034 56.9136 227.8033 56.73 227.6 56.3984 C 227.0664 55.5347 226.7891 55.0825 226.7791 55.0386 C 226.7371 54.9565 226.6656 54.8472 226.5757 54.707 C 226.4564 54.5396 226.3824 54.4189 226.3539 54.3452 C 226.2009 54.082 226.1564 53.8398 226.2253 53.6406 C 226.2966 53.4521 226.4731 53.3198 226.757 53.2544 L 227.1393 53.1665 C 227.2972 53.1528 227.4283 53.1226 227.5132 53.0918 C 227.6333 53.064 227.7156 53.022 227.7543 52.9902 C 227.9971 52.7969 228.0483 52.521 227.908 52.1636 C 227.8038 51.9121 227.5845 51.8594 227.2417 52.0186 C 227.077 52.1025 226.951 52.1543 226.8905 52.1914 C 226.2881 52.4219 225.9193 52.5181 225.7706 52.4722 C 225.6219 52.4258 225.4043 52.1318 225.1177 51.5898 C 224.2783 50.0508 223.4203 48.6309 222.5196 47.3242 C 222.3658 47.1069 222.2381 46.9531 222.128 46.875 C 221.9617 46.7529 221.7718 46.7275 221.5643 46.7754 C 221.2416 46.8726 221.103 47.1685 221.1459 47.6519 C 221.2158 48.4502 221.1486 49.4521 220.9664 50.6528 C 220.6818 52.4048 220.5332 53.4023 220.5181 53.6353 C 220.4879 53.9521 220.424 54.1733 220.34 54.3071 C 220.225 54.5059 220.0057 54.6021 219.6906 54.583 C 219.4705 54.5762 219.3546 54.6719 219.3319 54.8721 C 219.3109 54.98 219.3311 55.0669 219.384 55.1465 C 219.426 55.229 219.5042 55.2681 219.5991 55.2808 C 220.0057 55.3477 220.2335 55.5361 220.299 55.8193 C 220.3293 55.9502 220.3049 56.2422 220.2504 56.7021 C 220.2344 56.832 220.1295 57.5215 219.938 58.7817 L 219.938 58.7817 Z" fill="#ffffff"/>				<path d="M 137.6034 91.123 C 137.7379 91.5049 137.8681 92.1172 138.0135 92.9443 C 138.2119 94.1489 138.3372 94.8887 138.4002 95.1606 C 138.4902 95.5991 138.707 95.79 139.0397 95.7363 C 139.3505 95.6875 139.553 95.4692 139.6395 95.0479 C 139.6646 94.8584 139.6041 94.5967 139.4554 94.2524 C 139.1411 93.5908 138.8369 92.5254 138.562 91.04 C 138.4326 90.3813 137.9896 88.4185 137.2272 85.1753 C 137.2197 85.1431 137.1255 84.9351 136.9424 84.5415 C 136.7802 84.1885 136.5735 84.041 136.3358 84.1074 C 136.0787 84.1895 135.9199 84.3979 135.8485 84.7358 C 135.7964 84.9082 135.8595 85.1807 135.9998 85.5386 C 136.4738 86.6909 137.0083 88.5527 137.6034 91.123 L 137.6034 91.123 Z" fill="#ffffff"/>				<path d="M 141.451 87.9658 C 141.7173 87.9731 141.9786 88.1079 142.2239 88.373 L 146.4437 93.1831 C 146.7529 93.5249 146.8966 93.6982 146.8915 93.6763 C 147.0923 93.8481 147.3041 93.8682 147.5317 93.7583 C 147.751 93.6621 147.893 93.4805 147.9686 93.2104 C 148.0038 93.0649 148.0273 92.8184 148.0366 92.4604 C 148.0332 92.3467 147.9886 92.1045 147.9247 91.7295 C 147.8281 91.2124 147.6516 90.4502 147.4087 89.4507 C 147.1716 88.4268 146.9977 87.6753 146.9061 87.1802 C 146.5631 85.4009 146.4932 83.8569 146.7023 82.5239 C 146.7325 82.3564 146.6838 82.1958 146.572 82.0605 C 146.4493 81.9282 146.293 81.8496 146.0897 81.8159 C 145.715 81.7876 145.4832 81.9785 145.3773 82.416 C 145.3362 82.5859 145.3354 82.7813 145.3749 83.0015 C 145.501 83.8442 145.6876 85.0977 145.9457 86.7588 C 146.1929 88.4229 146.3904 89.6733 146.5115 90.4946 L 146.567 90.7344 C 146.5922 90.8433 146.5989 90.9219 146.6006 90.979 C 146.5998 91.1738 146.499 91.335 146.2738 91.4556 C 144.1707 89.1294 142.5255 87.0415 141.3163 85.1978 C 141.2684 85.1401 141.192 85.0083 141.0894 84.814 C 140.9944 84.6523 140.9205 84.5317 140.8625 84.4302 C 140.7029 84.2378 140.4836 84.1851 140.1879 84.2988 C 139.9796 84.3926 139.8762 84.543 139.8804 84.7598 C 139.8821 84.9658 139.8922 85.1587 139.9376 85.3545 L 140.7269 89.8071 C 140.9842 91.5146 141.0574 93.0234 140.9685 94.3286 C 140.945 94.7241 141.1047 94.917 141.4609 94.915 C 141.6239 94.9233 141.7634 94.8799 141.8768 94.7734 C 141.9818 94.6807 142.0414 94.5405 142.0498 94.3779 C 142.0867 93.8418 142.0766 93.3511 142.0278 92.8916 C 141.9807 92.4897 141.7957 90.8462 141.451 87.9658 L 141.451 87.9658 Z" fill="#ffffff"/>				<path d="M 157.1293 80.6055 C 158.3416 80.3262 159.0078 80.1729 159.1254 80.1343 C 159.4943 80.0381 159.7379 79.9478 159.8757 79.8472 C 160.1176 79.6997 160.2033 79.4731 160.1327 79.1685 C 160.0486 78.855 159.8638 78.7026 159.5756 78.7002 C 159.4017 78.6943 159.153 78.7632 158.8296 78.9063 C 158.5364 79.0313 157.3182 79.3345 155.175 79.8164 C 154.4542 79.9824 152.4109 80.4985 149.0672 81.3599 C 148.8101 81.4424 148.6287 81.5527 148.5228 81.6919 C 148.3783 81.8628 148.3641 82.0498 148.4498 82.271 C 148.5742 82.6094 148.8934 82.6963 149.4101 82.543 C 149.5411 82.5127 150.1536 82.3262 151.2256 81.9873 C 151.9338 81.7671 152.4001 81.6938 152.627 81.7793 C 152.8538 81.8647 153.1244 82.2388 153.4337 82.8784 C 154.674 85.5527 155.4026 88.1035 155.6246 90.5532 C 155.6558 90.936 155.692 91.1914 155.7331 91.3198 C 155.8146 91.6221 156.0104 91.772 156.3154 91.748 C 156.5195 91.7354 156.6901 91.627 156.8001 91.4067 C 157.0059 91.0039 157.0151 90.4971 156.8521 89.8921 C 156.7084 89.4204 156.5352 88.772 156.3217 87.9492 L 155.8074 86.0259 C 155.3863 84.5054 154.9443 83.2422 154.4947 82.2441 C 154.1729 81.5498 154.387 81.1333 155.1154 81 L 157.1141 80.54 L 157.1293 80.6055 L 157.1293 80.6055 Z" fill="#ffffff"/>				<path d="M 171.5502 77.2051 C 171.6325 77.1636 171.8317 77.1289 172.1282 77.1182 C 172.4492 77.1133 172.6835 77.082 172.8533 77.02 C 173.0994 76.9404 173.2708 76.7861 173.3564 76.5601 C 173.4363 76.3579 173.4321 76.1411 173.3547 75.9067 C 173.2404 75.6118 172.9371 75.5439 172.439 75.7275 C 172.1323 75.8438 170.857 76.2979 168.6189 77.0654 C 167.0646 77.6069 165.8078 78.0913 164.835 78.5103 C 164.0511 78.8516 163.4227 79.019 162.9388 79.0156 C 162.3406 79.0156 161.9995 79.0825 161.902 79.2085 C 161.7962 79.3477 161.834 79.6602 162.0071 80.1592 C 162.4484 81.4688 162.7291 82.333 162.8492 82.7529 C 163.1115 83.7363 163.2283 84.6387 163.1973 85.4487 C 163.194 85.7822 163.3335 86.0371 163.6267 86.2104 C 163.8149 86.3276 163.9754 86.6235 164.1242 87.1167 C 164.1595 87.269 164.252 87.5693 164.3965 87.9946 C 164.504 88.3599 164.5965 88.6602 164.6578 88.875 C 164.8386 89.5562 165.267 89.7676 165.924 89.5244 C 166.2029 89.437 166.5289 89.3047 166.9128 89.1245 C 169.0669 88.1929 170.6514 87.6333 171.6553 87.4478 C 172.2745 87.3398 172.5257 86.9839 172.387 86.3848 C 172.3315 86.145 172.1871 86.0176 171.9753 85.9976 C 171.8585 85.9902 171.6594 86.0244 171.3805 86.1118 C 170.7815 86.3071 170.3984 86.4409 170.2337 86.5249 C 169.8439 86.729 169.2743 86.9521 168.5275 87.2046 C 167.7234 87.4585 167.1513 87.6704 166.811 87.8403 C 166.2734 88.1021 165.9105 88.1738 165.7054 88.0835 C 165.5248 87.999 165.324 87.6782 165.1139 87.1182 C 165.1088 87.0967 165.0828 87.0337 165.0416 86.9058 C 165.0214 86.8184 164.9929 86.7446 164.9559 86.6846 C 164.8113 86.4082 164.7828 86.1851 164.8567 86.0073 C 164.9222 85.8433 165.1154 85.6841 165.4388 85.541 C 167.2485 84.7114 168.6952 84.103 169.8033 83.7217 C 170.241 83.5752 170.5569 83.3989 170.7459 83.1719 C 170.9349 82.9448 170.9576 82.7446 170.8088 82.5493 C 170.6013 82.2988 170.3526 82.2188 170.0737 82.3057 C 169.9805 82.3501 169.8544 82.4023 169.7116 82.481 C 169.5302 82.5913 169.4067 82.6543 169.3436 82.6802 C 167.6088 83.4355 166.3402 83.9683 165.5404 84.29 C 164.9708 84.5127 164.5969 84.5874 164.4382 84.498 C 164.2709 84.4219 164.1138 84.0908 163.9558 83.5078 C 163.8945 83.2925 163.8087 82.9219 163.6986 82.397 C 163.5876 81.9175 163.502 81.5474 163.4305 81.2886 C 163.3229 80.9233 163.3254 80.6357 163.4598 80.4214 C 163.5724 80.2119 163.8202 80.04 164.1815 79.9111 L 167.7738 78.5337 C 169.2415 77.9663 170.4975 77.5278 171.5502 77.2051 L 171.5502 77.2051 Z" fill="#ffffff"/>				<path d="M 183.0457 82.7837 C 183.5599 82.7686 184.3303 82.7178 185.3595 82.6411 C 186.3778 82.5674 187.1373 82.5186 187.6489 82.4927 C 189.3956 82.4346 190.8936 82.5947 192.1429 82.9722 C 192.4294 83.0669 192.6353 83.1113 192.7496 83.1079 C 192.9562 83.1064 193.1243 82.9873 193.2536 82.751 C 193.2872 82.6973 193.3376 82.6172 193.4241 82.4937 C 193.5023 82.3843 193.5611 82.2905 193.5922 82.2256 C 193.7047 82.0161 193.6921 81.813 193.5787 81.6211 C 193.4039 81.3628 193.0283 81.2314 192.4545 81.2373 C 192.147 81.251 190.7851 81.2314 188.3579 81.1826 C 186.6944 81.1523 185.3367 81.2012 184.2605 81.3228 C 183.5463 81.4185 183.0616 81.312 182.7893 81.0303 C 182.7414 80.8232 182.7885 80.6289 182.9086 80.4521 C 182.9422 80.3989 183.0085 80.3374 183.0808 80.252 C 183.1833 80.1479 183.2496 80.0869 183.2664 80.0601 C 185.4582 77.5024 186.5167 76.2607 186.4553 76.3438 C 186.9652 75.6641 187.1063 75.0811 186.8811 74.605 C 186.6475 74.1426 186.1005 73.8672 185.2486 73.7651 C 183.4683 73.5781 181.2436 73.7578 178.572 74.2925 C 177.4638 74.5249 176.4506 74.9185 175.5214 75.4766 C 175.3181 75.5923 175.172 75.7061 175.1022 75.8027 C 174.9771 75.9575 174.9687 76.1201 175.0468 76.3086 C 175.2191 76.7046 175.5283 76.7485 175.9634 76.4419 C 176.4591 76.0981 177.3757 75.7837 178.6998 75.4907 C 180.6077 75.0859 181.6041 74.8677 181.7133 74.8428 C 182.8694 74.6685 183.8893 74.6514 184.7866 74.8008 C 185.242 74.8794 185.5117 75.0005 185.6008 75.1865 C 185.6898 75.3726 185.6277 75.6509 185.3875 76.0044 C 185.1245 76.4092 183.8989 77.7236 181.6995 79.9507 C 181.0341 79.0142 180.5416 77.8311 180.2087 76.3936 C 180.1331 76.0669 179.9727 75.9204 179.7382 75.9512 C 179.5366 75.9746 179.3812 76.1479 179.2779 76.4473 C 179.1746 76.7466 179.1981 77.0967 179.3427 77.522 C 179.7385 78.6353 179.9721 79.2471 180.0461 79.3677 C 180.2545 79.7212 180.3444 80.1592 180.3243 80.6685 C 180.279 81.5166 180.2606 81.9336 180.258 81.9229 C 180.2648 82.1509 180.5336 82.4673 181.0538 82.8755 C 181.552 83.2881 181.7974 83.7021 181.8008 84.1143 C 181.8025 84.3203 181.9159 84.6616 182.152 85.1348 C 182.3302 85.5068 182.5529 85.6733 182.8334 85.6431 C 183.1275 85.6216 183.3712 85.3818 183.54 84.9185 C 183.6265 84.646 183.5836 84.312 183.4113 83.9155 C 183.1811 83.418 183.0601 83.0444 183.0457 82.7837 L 183.0457 82.7837 Z" fill="#ffffff"/>				<path d="M 195.2735 75.5752 C 195.5399 75.583 195.8011 75.7178 196.0465 75.9824 L 200.2662 80.7925 C 200.5754 81.1343 200.7191 81.3076 200.7141 81.2861 C 200.9149 81.4575 201.1266 81.478 201.3542 81.3682 C 201.5735 81.2715 201.7155 81.0898 201.7911 80.8203 C 201.8264 80.6743 201.8499 80.4282 201.8591 80.0703 C 201.8557 79.9565 201.8112 79.7144 201.7473 79.3389 C 201.6506 78.8223 201.4741 78.0596 201.2312 77.0601 C 200.9942 76.0366 200.8202 75.2852 200.7286 74.79 C 200.3856 73.0107 200.3157 71.4663 200.5248 70.1338 C 200.5551 69.9658 200.5063 69.8052 200.3945 69.6704 C 200.2719 69.5381 200.1156 69.4595 199.9123 69.4258 C 199.5375 69.3975 199.3057 69.5884 199.1999 70.0259 C 199.1587 70.1958 199.1579 70.3911 199.1974 70.6113 C 199.3235 71.4541 199.5101 72.7075 199.7682 74.3687 C 200.0154 76.0322 200.213 77.2832 200.334 78.104 L 200.3895 78.3438 C 200.4147 78.4526 200.4214 78.5313 200.4231 78.5884 C 200.4223 78.7837 200.3215 78.9443 200.0963 79.0649 C 197.9932 76.7388 196.348 74.6514 195.1389 72.8076 C 195.0909 72.7495 195.0145 72.6182 194.9119 72.4238 C 194.817 72.2622 194.743 72.1416 194.6851 72.04 C 194.5254 71.8472 194.3062 71.7944 194.0104 71.9087 C 193.8021 72.0024 193.6987 72.1523 193.7029 72.3691 C 193.7047 72.5757 193.7148 72.7681 193.7601 72.9644 L 194.5495 77.417 C 194.8067 79.124 194.8799 80.6333 194.791 81.9385 C 194.7676 82.334 194.9272 82.5264 195.2834 82.5249 C 195.4464 82.5332 195.5859 82.4897 195.6993 82.3833 C 195.8043 82.29 195.864 82.1504 195.8723 81.9878 C 195.9092 81.4517 195.8991 80.9604 195.8503 80.5015 C 195.8032 80.0991 195.6183 78.4556 195.2735 75.5752 L 195.2735 75.5752 Z" fill="#ffffff"/>				<path d="M 212.0919 67.8721 C 212.1742 67.8306 212.3733 67.7959 212.6699 67.7852 C 212.9908 67.7803 213.2252 67.749 213.3949 67.687 C 213.6411 67.6074 213.8124 67.4531 213.8981 67.2271 C 213.9779 67.0249 213.9737 66.8081 213.8964 66.5737 C 213.7821 66.2788 213.4788 66.2109 212.9806 66.3945 C 212.674 66.5107 211.3986 66.9648 209.1605 67.7324 C 207.6063 68.2739 206.3495 68.7583 205.3766 69.1772 C 204.5928 69.5186 203.9644 69.686 203.4804 69.6826 C 202.8823 69.6826 202.5411 69.7495 202.4437 69.8755 C 202.3378 70.0146 202.3757 70.3271 202.5488 70.8262 C 202.99 72.1357 203.2707 73 203.3909 73.4199 C 203.6531 74.4033 203.77 75.3057 203.739 76.1157 C 203.7357 76.4492 203.8751 76.7041 204.1684 76.8774 C 204.3566 76.9946 204.5171 77.2905 204.6658 77.7837 C 204.7011 77.936 204.7936 78.2363 204.9381 78.6616 C 205.0457 79.0269 205.1381 79.3271 205.1995 79.542 C 205.3802 80.2231 205.8087 80.4346 206.4657 80.1914 C 206.7446 80.104 207.0706 79.9717 207.4545 79.7915 C 209.6086 78.8599 211.1931 78.3003 212.197 78.1147 C 212.8162 78.0068 213.0674 77.6509 212.9287 77.0518 C 212.8732 76.812 212.7287 76.6846 212.517 76.6646 C 212.4002 76.6572 212.201 76.6914 211.9222 76.7788 C 211.3231 76.9741 210.9401 77.1079 210.7754 77.1919 C 210.3856 77.396 209.816 77.6191 209.0691 77.8716 C 208.2651 78.1255 207.6929 78.3374 207.3527 78.5073 C 206.8151 78.769 206.4521 78.8408 206.2471 78.7505 C 206.0665 78.666 205.8656 78.3452 205.6555 77.7852 C 205.6505 77.7637 205.6245 77.7007 205.5833 77.5728 C 205.5631 77.4854 205.5345 77.4116 205.4976 77.3516 C 205.353 77.0752 205.3244 76.8521 205.3983 76.6743 C 205.4639 76.5103 205.657 76.3511 205.9805 76.208 C 207.7902 75.3784 209.2368 74.77 210.345 74.3887 C 210.7827 74.2422 211.0985 74.0659 211.2875 73.8389 C 211.4766 73.6118 211.4992 73.4116 211.3505 73.2163 C 211.1429 72.9658 210.8943 72.8857 210.6154 72.9727 C 210.5221 73.0171 210.3961 73.0693 210.2532 73.1479 C 210.0718 73.2583 209.9483 73.3213 209.8853 73.3472 C 208.1505 74.1025 206.8818 74.6353 206.082 74.957 C 205.5125 75.1797 205.1386 75.2544 204.9798 75.165 C 204.8126 75.0889 204.6555 74.7578 204.4974 74.1748 C 204.4361 73.9595 204.3503 73.5889 204.2402 73.064 C 204.1293 72.5845 204.0436 72.2144 203.9722 71.9556 C 203.8646 71.5903 203.8671 71.3027 204.0015 71.0884 C 204.114 70.8789 204.3619 70.707 204.7231 70.5781 L 208.3155 69.2007 C 209.7832 68.6333 211.0392 68.1948 212.0919 67.8721 L 212.0919 67.8721 Z" fill="#ffffff"/>				<path d="M 224.2327 65.1577 C 225.445 64.8784 226.1112 64.7251 226.2288 64.6865 C 226.5977 64.5903 226.8413 64.5 226.9791 64.3994 C 227.221 64.252 227.3067 64.0254 227.2361 63.7207 C 227.152 63.4072 226.9672 63.2549 226.679 63.2524 C 226.5051 63.2466 226.2564 63.3154 225.933 63.4585 C 225.6398 63.5835 224.4216 63.8867 222.2784 64.3687 C 221.5576 64.5347 219.5143 65.0508 216.1706 65.9126 C 215.9135 65.9946 215.7321 66.105 215.6262 66.2441 C 215.4818 66.415 215.4675 66.6021 215.5532 66.8232 C 215.6776 67.1616 215.9968 67.2485 216.5135 67.0952 C 216.6446 67.0649 217.257 66.8784 218.329 66.5396 C 219.0373 66.3193 219.5035 66.2466 219.7304 66.3315 C 219.9573 66.417 220.2278 66.791 220.537 67.4307 C 221.7774 70.105 222.506 72.6558 222.7281 75.1055 C 222.7592 75.4883 222.7953 75.7437 222.8365 75.8721 C 222.918 76.1743 223.1138 76.3242 223.4188 76.3003 C 223.6229 76.2876 223.7935 76.1792 223.9035 75.959 C 224.1093 75.5562 224.1185 75.0493 223.9555 74.4443 C 223.8118 73.9727 223.6386 73.3242 223.4252 72.5015 L 222.9108 70.5781 C 222.4897 69.0576 222.0477 67.7944 221.5981 66.7964 C 221.2762 66.1021 221.4905 65.6855 222.2189 65.5522 L 224.2175 65.0923 L 224.2327 65.1577 L 224.2327 65.1577 Z" fill="#ffffff"/>				<path d="M 155.411 114.0269 C 156.7267 113.896 157.4214 113.8164 157.5089 113.7964 C 157.8751 113.689 158.149 113.4312 158.3279 113.0112 C 158.5093 112.6025 158.5244 112.2202 158.3538 111.8809 C 158.0648 111.3281 157.6867 111.1855 157.2028 111.4805 C 156.3887 111.9893 155.2201 112.4072 153.6995 112.7461 C 151.8755 113.166 150.6733 113.4888 150.0953 113.7246 C 149.0048 114.1821 148.2764 113.8682 147.9268 112.7559 C 147.8957 112.6709 147.7242 112.229 147.4066 111.4531 C 144.7006 104.7344 143.2695 101.1865 143.1376 100.8154 C 142.9762 100.4165 142.8098 100.145 142.6603 99.9961 C 142.425 99.7749 142.1402 99.7373 141.8083 99.894 C 141.2682 100.1445 141.1851 100.6797 141.5565 101.4893 C 143.7741 106.3472 145.5934 110.8267 147.0011 114.9189 C 147.2751 115.7046 147.5633 116.1548 147.8926 116.2852 C 148.2061 116.3965 148.7899 116.2852 149.6284 115.9316 C 151.6254 115.1162 153.5484 114.4785 155.411 114.0269 L 155.411 114.0269 Z" fill="#ffffff"/>				<path d="M 159.396 106.5938 C 159.5842 107.1582 159.7775 108.043 159.9894 109.2563 C 160.2786 111.002 160.4711 112.082 160.5643 112.4849 C 160.6888 113.1216 160.9963 113.4063 161.4844 113.3286 C 161.9507 113.2554 162.2422 112.9243 162.3564 112.3247 C 162.4076 112.0488 162.3193 111.668 162.0891 111.1704 C 161.6362 110.2075 161.205 108.6436 160.7982 106.4888 C 160.6065 105.5122 159.9568 102.6563 158.8381 97.9238 C 158.828 97.8799 158.6894 97.5796 158.4305 97.0078 C 158.1953 96.4888 157.892 96.2715 157.545 96.3628 C 157.1703 96.4839 156.9308 96.791 156.8267 97.2856 C 156.7704 97.5396 156.8503 97.9341 157.0638 98.4585 C 157.7402 100.1382 158.5176 102.8496 159.396 106.5938 L 159.396 106.5938 Z" fill="#ffffff"/>				<path d="M 169.7502 107.7891 C 169.2469 107.8018 168.863 107.6836 168.5899 107.4482 C 168.5176 107.3848 168.337 107.1509 168.0395 106.7607 C 167.5463 106.0713 166.3598 104.4746 164.4885 101.957 C 163.9575 101.2534 163.3912 101.1431 162.7788 101.6279 C 162.4587 101.8853 162.3041 102.1616 162.3286 102.4658 C 162.3504 102.7588 162.5 103.0571 162.7966 103.3447 C 163.6301 104.1621 164.6342 105.3188 165.798 106.8179 C 167.2617 108.7178 168.2188 109.9199 168.6691 110.4238 C 168.6901 110.4653 168.7885 110.5918 168.9531 110.8062 C 169.0724 110.9736 169.1817 111.0977 169.2783 111.167 C 169.5539 111.4136 169.8715 111.4434 170.2386 111.29 C 170.7729 111.064 171.1089 110.5278 171.2551 109.668 C 171.2736 109.5493 171.2953 109.395 171.2936 109.189 C 171.3012 108.9233 171.2961 108.7524 171.3029 108.6821 C 171.7073 103.4727 172.4865 98.7393 173.6455 94.5034 C 173.7766 94.0259 173.8051 93.6523 173.7202 93.3848 C 173.6009 93.0684 173.3135 92.8706 172.8607 92.8027 C 172.0356 92.7173 171.6273 93.1899 171.6274 94.2339 C 171.5999 95.7544 171.2792 97.9961 170.6787 100.9678 C 170.0674 103.9419 169.7542 106.2168 169.7502 107.7891 L 169.7502 107.7891 Z" fill="#ffffff"/>				<path d="M 187.4468 103.2334 C 188.2029 103.2202 189.3245 103.1455 190.825 103.0181 C 192.3062 102.9063 193.4194 102.8452 194.1705 102.8101 C 196.717 102.7285 198.8989 102.96 200.7188 103.5161 C 201.143 103.6597 201.4438 103.7163 201.6017 103.7031 C 201.9117 103.7007 202.1596 103.5288 202.3369 103.2012 C 202.3763 103.123 202.4628 103 202.5804 102.8125 C 202.7031 102.6465 202.7896 102.5234 202.835 102.4214 C 202.9929 102.1094 202.9819 101.814 202.8156 101.5425 C 202.5668 101.1636 202.0157 100.9692 201.1671 100.981 C 200.721 100.9922 198.7256 100.9697 195.1894 100.9004 C 192.7866 100.8569 190.8004 100.9243 189.231 101.1021 C 188.1901 101.2271 187.4692 101.0947 187.0768 100.6919 C 187.0062 100.3867 187.0659 100.0977 187.2498 99.8491 C 187.3002 99.7686 187.3918 99.667 187.5136 99.5474 C 187.6606 99.3872 187.7413 99.2886 187.769 99.2593 C 190.9579 95.5425 192.5187 93.7378 192.4297 93.8501 C 193.1655 92.8545 193.3713 92.0044 193.0385 91.3125 C 192.6974 90.6338 191.9109 90.2183 190.6625 90.0928 C 188.0681 89.8184 184.8276 90.0825 180.936 90.8633 C 179.3095 91.1919 177.8309 91.7617 176.4783 92.5781 C 176.1759 92.7622 175.9692 92.9131 175.8634 93.0522 C 175.6853 93.2769 175.6643 93.5342 175.7845 93.8047 C 176.0408 94.3647 176.4911 94.4219 177.1246 93.978 C 177.8513 93.4893 179.1812 93.0225 181.1085 92.6021 L 185.5032 91.6592 C 187.191 91.3965 188.6815 91.3745 189.9989 91.5991 C 190.6467 91.7139 191.0457 91.8975 191.1852 92.1519 C 191.3163 92.4199 191.2139 92.8223 190.8644 93.3501 C 190.473 93.9448 188.687 95.8701 185.4905 99.1069 C 184.5175 97.7363 183.7931 95.999 183.309 93.9077 C 183.2031 93.4502 182.9678 93.229 182.6191 93.2637 C 182.3301 93.3071 182.1108 93.5527 181.9614 94 C 181.8068 94.4258 181.8354 94.9468 182.0581 95.561 C 182.6405 97.1816 182.975 98.0801 183.0859 98.2607 C 183.3867 98.7651 183.522 99.3994 183.4868 100.1416 C 183.418 101.3848 183.3879 102 183.3853 101.9888 C 183.4064 102.3281 183.7896 102.7905 184.5457 103.3735 C 185.2801 103.9619 185.6389 104.5674 185.6415 105.1748 C 185.6415 105.4731 185.8037 105.9746 186.1474 106.6641 C 186.4095 107.2002 186.7313 107.4478 187.1371 107.4116 C 187.5782 107.3789 187.9218 107.0244 188.1679 106.3481 C 188.2972 105.9629 188.23 105.4736 187.9771 104.8779 C 187.6367 104.1533 187.4644 103.6079 187.4468 103.2334 L 187.4468 103.2334 Z" fill="#ffffff"/>				<path d="M 215.917 84.6919 C 216.0489 84.6157 216.327 84.5747 216.7488 84.5576 C 217.2192 84.5527 217.5763 84.5049 217.809 84.417 C 218.1703 84.2881 218.4189 84.0698 218.55 83.7417 C 218.6667 83.4507 218.6751 83.1392 218.5507 82.8008 C 218.3793 82.3584 217.9348 82.2773 217.2123 82.5352 C 216.7687 82.7065 214.9163 83.3506 211.6356 84.4844 C 209.3807 85.2788 207.5517 85.9751 206.1294 86.5894 C 204.9919 87.0923 204.071 87.3389 203.3561 87.3311 C 202.4916 87.3237 201.9841 87.4175 201.8447 87.6104 C 201.6943 87.8057 201.7431 88.2646 202.0045 88.9961 C 202.6524 90.8999 203.0591 92.1602 203.2247 92.7759 C 203.6038 94.2144 203.7812 95.5269 203.735 96.7192 C 203.7318 97.2017 203.9318 97.5688 204.3594 97.8257 C 204.6283 97.9932 204.8677 98.4316 205.0804 99.1514 C 205.1443 99.3774 205.2779 99.8057 205.4788 100.4243 C 205.6485 100.959 205.7822 101.3872 205.8662 101.7002 C 206.1418 102.6924 206.7535 102.999 207.7222 102.6611 C 208.1162 102.5244 208.5984 102.3218 209.163 102.0771 C 212.2983 100.7129 214.6028 99.8843 216.0705 99.6152 C 216.9787 99.4634 217.3441 98.9551 217.1424 98.0835 C 217.0617 97.7349 216.8584 97.5522 216.5408 97.5225 C 216.3535 97.5083 216.067 97.5625 215.6679 97.6772 C 214.8009 97.9575 214.2372 98.1558 213.9902 98.2817 C 213.4247 98.5723 212.5922 98.9019 211.5034 99.2671 C 210.3381 99.6499 209.5005 99.9575 209.004 100.1982 C 208.2277 100.5718 207.6901 100.6841 207.3935 100.5459 C 207.1238 100.4243 206.833 99.9639 206.5272 99.1392 C 206.5221 99.1177 206.486 99.0112 206.4322 98.8286 C 206.391 98.7002 206.3439 98.5962 206.3019 98.5142 C 206.0919 98.104 206.0406 97.7832 206.1539 97.5273 C 206.259 97.2852 206.5404 97.0601 206.9982 96.8511 C 209.6362 95.6245 211.7567 94.7466 213.3765 94.1899 C 214.0082 93.9873 214.4644 93.7217 214.745 93.3931 C 215.0146 93.0674 215.0474 92.7612 214.8348 92.4893 C 214.5315 92.123 214.1694 92 213.7644 92.1392 C 213.6274 92.1934 213.4493 92.269 213.2326 92.376 C 212.9604 92.542 212.7764 92.6416 212.6916 92.6729 C 210.1754 93.7798 208.3314 94.5601 207.1619 95.0239 C 206.3293 95.3535 205.7891 95.4546 205.5413 95.3281 C 205.3069 95.2104 205.0682 94.7261 204.8497 93.8813 C 204.7522 93.5601 204.6287 93.0264 204.4765 92.2695 C 204.3151 91.5728 204.1781 91.0308 204.0681 90.6543 C 203.9092 90.1177 203.9251 89.6895 204.1158 89.3701 C 204.2872 89.0669 204.6341 88.8267 205.1651 88.6353 L 210.4167 86.6235 C 212.5523 85.8105 214.3914 85.1577 215.917 84.6919 L 215.917 84.6919 Z" fill="#ffffff"/>				<path d="M 224.0871 89.0742 C 223.9686 88.7114 223.556 87.4761 222.8333 85.3481 C 222.3223 83.8369 221.8937 82.582 221.5718 81.5894 C 221.4919 81.3438 221.3945 81.1709 221.2794 81.0713 C 221.1374 80.9551 220.9366 80.9326 220.6854 80.9902 C 220.188 81.1274 220.0192 81.4419 220.157 81.938 C 220.1973 82.1118 220.2898 82.4121 220.4537 82.8218 C 220.5772 83.2061 220.6697 83.5059 220.7176 83.7129 C 220.7831 83.9961 221.1747 85.1909 221.89 87.2861 C 222.3614 88.7261 222.6001 89.9561 222.5952 90.978 C 222.5859 91.1865 222.6532 91.3774 222.8052 91.5376 C 222.9598 91.7085 223.1456 91.8149 223.3791 91.8301 C 223.6396 91.8618 223.8614 91.7764 224.0361 91.5869 C 224.1445 91.4585 224.2654 91.2358 224.3906 90.9316 C 224.4955 90.6895 224.4821 90.3828 224.372 90.0068 C 224.1964 89.4966 224.1014 89.186 224.0871 89.0742 L 224.0871 89.0742 ZM 224.5952 95.8403 C 223.9206 96.1563 223.6669 96.6504 223.8182 97.3037 C 223.8838 97.5869 224.0106 97.7871 224.1989 97.9043 C 224.3921 98.0435 224.6391 98.0669 224.9205 97.9907 C 225.6666 97.7847 225.9606 97.3154 225.811 96.5698 C 225.7101 96.1343 225.3093 95.8936 224.5952 95.8403 L 224.5952 95.8403 Z" fill="#ffffff"/>				<path d="M 224.888 82.9937 C 225.0107 83.126 225.1099 83.3555 225.1721 83.6738 C 225.2435 84.082 225.3149 84.3408 225.3755 84.4531 C 225.4847 84.7261 225.5956 84.9072 225.7133 85.0176 C 225.8737 85.1646 226.0796 85.209 226.3257 85.1289 C 226.6072 85.0527 226.7895 84.896 226.8945 84.6543 C 226.9802 84.4277 226.9734 84.2002 226.8583 83.9512 C 226.7423 83.7485 226.3768 82.7656 225.7422 81.019 C 225.675 80.8281 225.5439 80.709 225.3683 80.6465 C 225.1953 80.5942 225.0046 80.6152 224.8156 80.6934 C 224.6568 80.7529 224.5433 80.8594 224.4837 80.999 C 224.4241 81.1392 224.4131 81.2905 224.451 81.4541 C 224.4686 81.5303 224.6115 82.0479 224.888 82.9937 L 224.888 82.9937 ZM 229.6971 82.7471 C 229.4071 81.793 229.2533 81.2778 229.2332 81.1904 C 229.1466 81.0156 229.0155 80.8965 228.829 80.8359 C 228.6609 80.8062 228.4786 80.8135 228.282 80.8589 C 228.1233 80.9185 228.0073 81.0137 227.9477 81.1538 C 227.8637 81.2876 227.8528 81.4395 227.8906 81.603 C 227.9637 81.9185 228.1201 82.4448 228.3596 83.1812 C 228.3848 83.29 228.4251 83.4644 228.4722 83.7173 C 228.5084 83.9727 228.5403 84.1606 228.5873 84.2642 C 228.652 84.4443 228.7394 84.5737 228.8604 84.6489 C 229.0058 84.73 229.2015 84.731 229.4612 84.6597 C 229.7014 84.6045 229.8585 84.4878 229.9375 84.332 C 230.0022 84.2139 230.0131 84.0625 229.9896 83.8613 C 229.9643 83.7524 229.9189 83.5562 229.834 83.2891 C 229.7567 83.0547 229.7029 82.8721 229.6971 82.7471 L 229.6971 82.7471 Z" fill="#ffffff"/>			</g>			<path d="M 181.2766 134.3765 L 201.8831 147 L 199.7659 121.7524 L 181.2766 134.3765 Z" fill="#000000"/>			<g>				<path d="M 73.7277 217.5298 L 73.6161 217.5298 C 70.4911 212.4214 66.6964 209.8677 62.2321 209.8677 L 62.1206 209.8677 C 60.8929 209.8677 60.186 211.458 60 214.6387 C 60 215.9878 60.8929 217.8677 62.6786 220.2769 C 65.7813 223.439 67.6042 225.1733 68.1473 225.4819 L 73.6161 230.8315 C 74.4866 232.2769 75.0446 233 75.2902 233 C 75.5878 233 75.8481 232.7593 76.0714 232.2769 L 76.0714 231.9878 L 75.8481 231.1206 L 75.9598 230.9761 C 76.5327 229.7036 78.2441 227.1978 81.0938 223.458 C 83.378 219.7471 84.6801 216.7109 85 214.3496 L 84.7769 212.1807 C 84.2188 210.0601 83.3259 209 82.0981 209 L 81.5402 209 C 77.8943 209 75.2902 211.8433 73.7277 217.5298 L 73.7277 217.5298 ZM 74.5089 220.7109 C 75.8631 214.3496 78.1324 211.1685 81.3169 211.1685 L 82.0981 211.1685 C 82.9167 211.1685 83.3259 212.1807 83.3259 214.2051 L 83.3259 214.3496 C 83.3259 215.3613 82.3214 217.771 80.3125 221.5786 C 78.0209 224.5664 76.1979 227.1685 74.8438 229.3853 L 74.7321 229.3853 L 67.2544 222.1567 C 63.8691 219.2939 62.0089 216.8364 61.6741 214.7832 C 61.6741 213.3374 61.8229 212.4214 62.1206 212.0361 C 65.8408 212.0361 68.9286 213.771 71.3839 217.2407 C 72.366 219.2651 73.1846 220.5664 73.8394 221.1445 L 74.5089 220.7109 L 74.5089 220.7109 Z" fill="#bbbbbb"/>			</g>			<g>				<path d="M 335.6367 136.2241 L 352.5928 111.7788 L 345.2061 106.7993 L 329.3611 132.375 L 335.6367 136.2241 L 335.6367 136.2241 ZM 323.7971 147.7803 C 326.3932 149.291 329.3701 148.2109 331.1333 145.4673 C 332.9906 142.5781 332.4116 139.6338 330.0029 138.1782 C 327.7448 136.813 324.504 137.4863 322.5693 140.3872 C 320.7324 143.1421 321.2953 146.3237 323.7971 147.7803 L 323.7971 147.7803 Z" fill="#999999"/>			</g>			<g>				<path d="M 150 163.3638 C 150 156.4702 151.4695 155 158.3594 155 L 355.6406 155 C 362.5305 155 364 156.4702 364 163.3638 L 364 309 L 150 309 L 150 163.3638 Z" fill="#1c1c1c"/>				<path d="M 158.5 165 L 355.5 165 L 355.5 299 L 158.5 299 L 158.5 165 Z" fill="#ffffff"/>				<path d="M 150 308 L 110 322 L 406 322 L 365 309 L 150 308 Z" fill="#9f9f9f"/>				<path d="M 169 310 L 159 315 L 354 315 L 344 310 L 169 310 Z" fill="#1c1c1c"/>				<path d="M 109 322 L 405 322 L 405 331 C 405 331 407.3334 336 392 336 C 376.6666 336 123 336 123 336 C 123 336 110.241 338.9282 109 329 C 108.6667 326.3335 109 322 109 322 Z" fill="#c9c9c9"/>				<path d="M 227 316 L 220 320 L 293 320 L 287 316 L 227 316 Z" fill="#c7c7c7"/>				<path d="M 278 324.5 C 278 325.8809 276.8807 327 275.5 327 L 238.5 327 C 237.1193 327 236 325.8809 236 324.5 L 278 324.5 Z" fill="#858585"/>				<rect x="373" y="330" width="11" height="1" fill="#737373"/>			</g>			<path opacity="0.502" d="M 257.9688 165.0156 L 355.9688 165.0156 L 355.8855 299.1147 L 257.8855 299.1147 L 257.9688 165.0156 Z" fill="#ffffff"/>			<g>				<path d="M 220 167 L 201 192 C 201 192 202.75 227.5 203 228 C 203.25 228.5 232.6902 272.3052 259.425 271.3604 C 288.717 270.3252 308.5 248.25 313 220 C 317.5 191.75 313.25 171.75 313 171 C 312.75 170.25 220 167 220 167 Z" fill="#e9b989"/>				<path d="M 218 202 C 217.9463 201.9644 218.085 201.813 218.3748 201.5806 C 220.1082 200.1904 228.0016 196.1431 231.75 196.25 C 236.125 196.375 241.75 200 244 198 C 246.25 196 241.2533 193.1987 238 193 C 221.625 192 218.375 202.25 218 202 Z" stroke="#ffffff00" stroke-width="1" fill="#402000"/>				<path d="M 302.5522 202 C 302.606 201.9644 302.4673 201.813 302.1775 201.5806 C 300.4441 200.1904 292.5507 196.1431 288.8022 196.25 C 284.4272 196.375 278.8022 200 276.5522 198 C 274.3022 196 279.299 193.1987 282.5522 193 C 298.9272 192 302.1772 202.25 302.5522 202 Z" stroke="#ffffff00" stroke-width="1" fill="#402000"/>				<path d="M 215 178 C 215.8751 177.9102 251.8667 192.1431 272 190 C 292.1333 187.8569 308 184 308 184 C 308 184 308.1178 199 308 206 C 307.8822 213 308 213 308 213 L 309 223 L 315 219 C 315 219 322.0925 192.5107 323 183 C 323.9075 173.4893 318.7236 164.1807 318 164 C 317.2764 163.8193 323 166 323 166 C 323 166 316.9768 154.3374 313 151 C 309.0232 147.6626 309 146 309 146 C 309 146 311.5098 145.8765 314 148 C 316.4902 150.1235 317 151 317 151 C 317 151 314.5652 142.9321 307 138 C 299.4348 133.0679 292.1172 131.2231 292 131 C 291.8828 130.7769 293.4622 128.7988 297 130 C 300.5378 131.2012 300 131 300 131 C 300 131 295.573 124.6416 281 123 C 266.427 121.3584 258.5189 122.8599 257 123 C 255.4811 123.1401 254.9431 121.8779 255 122 C 255.0569 122.1221 255.3311 119.1025 256 119 C 256.6689 118.8975 241.2356 121.0654 233 128 C 224.7644 134.9346 218.9208 138.0952 219 138 C 219.072 137.9136 206.8612 148.8003 203.3818 157.5229 C 199.9026 166.2456 203 158 203 158 C 203 158 196.8702 168.2476 196.5 176.5 C 196.1298 184.7524 196.3185 199.4365 196.75 202.25 C 198.3125 212.4375 200.8353 218.0933 201.4713 220.3589 C 202.1073 222.625 203.6221 206.9741 204.5007 206.5244 C 205.3794 206.0752 211.9635 201.2197 212 201 C 212.0365 200.7803 213.2847 192.4082 213 189 C 212.7153 185.5918 214.1249 178.0898 215 178 Z" stroke="#ffffff00" stroke-width="1" fill="#402000"/>				<rect x="253" y="268" width="14" height="8" stroke="#ffffff00" stroke-width="1" fill="#e9b989"/>				<path d="M 204.8448 228 C 204.5011 227.8438 203.8448 222 203.8448 222 C 203.8448 222 205.0323 223.3125 203.8448 222 C 202.6573 220.6875 201.3448 218.8125 198.8448 220 C 196.3448 221.1875 195.3448 224.4375 196.8448 227 C 198.3448 229.5625 203.0948 232.1563 204.8448 232 C 206.5948 231.8438 205.1886 228.1563 204.8448 228 Z" stroke="#ffffff00" stroke-width="1" fill="#f8c19a"/>				<path d="M 236 241 C 236 241 248.8982 243.8667 259 244 C 269.1018 244.1333 285 242 285 242 C 285 242 277.2917 252.6943 274 255 C 270.7083 257.3057 262 259 262 259 L 249 258 C 249 258 242.7036 253.939 240 250 C 237.2964 246.061 236 241 236 241 Z" stroke="#ffffff00" stroke-width="1" fill="#370201"/>				<path d="M 244 270 C 243.9181 270.4961 213.8086 272.3159 210 272 C 206.1914 271.6841 199.3351 266.7725 199 267 C 198.6649 267.2275 197 266 197 266 L 194 274 C 194 274 197.8496 275.6611 199 276 C 200.1504 276.3389 205.939 278.2285 205.939 278.2285 C 212.9642 280.4751 224.618 278.4536 231 278 C 237.382 277.5464 239.35 275.7603 240 276 C 240.65 276.2397 238 296 238 296 L 237 299 L 279 299 L 276.8756 275.5474 L 302 271 C 311.0295 269.4995 330 264 330 264 L 322 253 C 322 253 312.2524 258.6494 300 263 C 291.4392 266.04 276.4072 269.5264 276.4072 269.5264 C 276.4072 269.5264 273.8752 269.9722 272 269 C 269.782 267.8506 261.8545 272.2114 258.995 273.1948 L 244 270 Z" stroke="#ffffff00" stroke-width="1" fill="#c6c6c6"/>				<path id="Ellipse2" d="M 235.858 219.3804 C 235.858 215.043 237.6193 211.5273 239.792 211.5273 C 241.9647 211.5273 243.7258 215.043 243.7258 219.3804 C 243.7258 223.7173 241.9647 227.2334 239.792 227.2334 C 237.6193 227.2334 235.858 223.7173 235.858 219.3804 Z" fill="#000000"/>				<path id="Ellipse3" d="M 274.2137 219.3804 C 274.2137 215.043 275.975 211.5273 278.1477 211.5273 C 280.3204 211.5273 282.0815 215.043 282.0815 219.3804 C 282.0815 223.7173 280.3204 227.2334 278.1477 227.2334 C 275.975 227.2334 274.2137 223.7173 274.2137 219.3804 Z" fill="#000000"/>				<g>					<g opacity="0.6">						<path d="M 298.8174 204.7373 C 298.8174 204.7373 306.7896 206.1367 306.8892 212.3354 C 306.9889 218.5327 304.7964 227.73 304.7964 227.73 C 304.7964 227.73 305.2948 226.7305 304.7964 228.0298 C 304.298 229.3296 302.5045 233.0283 297.7209 233.7285 C 292.9373 234.4277 281.9755 235.2275 277.6904 233.0283 C 273.405 230.8291 268.8209 222.8315 268.7216 214.9341 C 268.6216 207.0371 272.7075 205.5371 281.5768 204.3374 C 290.446 203.1377 295.8275 204.3374 298.8174 204.7373 Z" fill="#e0f3f7"/>						<path d="M 293.5211 205.0122 C 291.405 204.8135 288.8191 204.7129 285.7028 204.9102 L 275.0354 231.9497 C 275.905 232.8481 276.804 233.5547 277.6904 234.0103 C 277.9602 234.1489 278.2568 234.2754 278.5767 234.3906 L 293.5211 205.0122 Z" fill="#f1fbfc"/>					</g>					<path d="M 315.89 202.1523 C 312.2705 201.0205 282.406 199.8892 274.5688 201.6201 C 266.7283 203.3521 263.5834 206.019 259.4656 206.019 C 255.3439 206.019 250.8717 202.0205 242.3691 201.4883 C 233.8627 200.9526 216.3909 200.0889 203.2368 201.8203 C 203.2368 201.8203 201.3113 202.0205 201.4427 204.4194 C 201.5745 206.8188 202.24 210.2852 202.24 210.2852 C 202.24 210.2852 202.24 211.4849 203.5674 211.6172 C 204.8989 211.749 205.429 212.0171 206.2263 213.2168 C 207.0236 214.4165 207.3142 235.3813 216.6901 237.4092 C 223.933 238.9761 242.7678 240.1401 247.6827 234.6777 C 252.5977 229.2119 254.4592 222.2817 255.3882 219.7461 C 256.3208 217.2153 254.9453 213.6162 259.4656 214.0166 C 263.9821 214.4165 262.7422 217.2153 263.4076 219.7461 C 264.0695 222.2817 267.657 231.8789 271.2446 234.4097 C 274.8323 236.9409 278.9537 239.4761 289.8481 238.9404 C 300.7427 238.4082 306.1917 237.0767 308.1848 231.0786 C 310.1777 225.0806 312.1709 214.8159 312.1709 214.8159 C 312.1709 214.8159 312.4379 211.8853 313.897 211.749 C 315.3599 211.6172 315.627 211.8853 316.1572 210.8179 L 316.6873 209.75 L 317.4846 204.2876 C 317.4846 204.2876 317.6162 202.6919 315.89 202.1523 ZM 241.1056 234.0103 C 236.8203 236.2095 225.8584 235.4092 221.075 234.71 C 216.2915 234.0103 214.4976 230.3115 213.9991 229.0112 C 213.5012 227.7119 213.9991 228.7114 213.9991 228.7114 C 213.9991 228.7114 211.8069 219.5142 211.9065 213.3169 C 212.0061 207.1182 219.9788 205.7188 219.9788 205.7188 C 222.9683 205.3188 228.3496 204.1191 237.2188 205.3188 C 246.0881 206.5186 250.174 208.0186 250.0745 215.9155 C 249.9749 223.8135 245.3906 231.8105 241.1056 234.0103 ZM 304.7964 228.7114 C 304.7964 228.7114 305.2948 227.7119 304.7964 229.0112 C 304.298 230.3115 302.5045 234.0103 297.7209 234.71 C 292.9373 235.4092 281.9755 236.2095 277.6904 234.0103 C 273.405 231.8105 268.8209 223.8135 268.7216 215.9155 C 268.6216 208.0186 272.7075 206.5186 281.5768 205.3188 C 290.446 204.1191 295.8275 205.3188 298.8174 205.7188 C 298.8174 205.7188 306.7896 207.1182 306.8892 213.3169 C 306.9889 219.5142 304.7964 228.7114 304.7964 228.7114 Z" fill="#171518"/>					<g opacity="0.6">						<path d="M 219.9788 204.7373 C 219.9788 204.7373 212.0061 206.1367 211.9065 212.3354 C 211.8069 218.5327 213.9991 227.73 213.9991 227.73 C 213.9991 227.73 213.5012 226.7305 213.9991 228.0298 C 214.4976 229.3296 216.2915 233.0283 221.075 233.7285 C 225.8584 234.4277 236.8203 235.2275 241.1056 233.0283 C 245.3906 230.8291 249.9749 222.8315 250.0745 214.9341 C 250.174 207.0371 246.0881 205.5371 237.2188 204.3374 C 228.3496 203.1377 222.9683 204.3374 219.9788 204.7373 Z" fill="#e0f3f7"/>						<path d="M 237.2188 204.3374 C 233.6099 203.8496 230.5876 203.7612 228.0596 203.8525 L 220.1714 233.5513 C 220.4604 233.6221 220.7604 233.6816 221.075 233.7285 C 223.5391 234.0889 227.6428 234.4746 231.6287 234.4644 L 243.7958 205.624 C 242.0032 205.0679 239.8181 204.6895 237.2188 204.3374 Z" fill="#f1fbfc"/>						<path d="M 247.0928 208.1689 L 236.9531 235.1294 C 238.6106 234.9053 240.0579 234.5474 241.1056 234.0103 C 245.3906 231.8105 249.9749 223.8135 250.0745 215.9155 C 250.1233 212.0205 249.1522 209.6826 247.0928 208.1689 Z" fill="#f1fbfc"/>					</g>				</g>				<path d="M 258.478 274.3882 L 257.4946 275.3696 L 259.4615 278.3145 L 261.4285 276.3516 L 260.4451 274.3882 L 258.478 274.3882 Z" fill="#13848a"/>				<path d="M 260.3191 276.4849 L 258.478 276.3516 L 257.4946 285.186 L 256.525 299 L 262.4 299 L 261.4285 285.186 L 260.3191 276.4849 Z" fill="#13848a"/>				<path opacity="0.4" d="M 293.2684 104.728 L 297.4556 104.7578 L 295.7126 119.8511 L 293.2684 104.728 Z" fill="#000000"/>				<path opacity="0.4" d="M 308.9221 105.3203 L 312.3579 107.4136 L 303.9912 121.5981 L 308.9221 105.3203 Z" fill="#000000"/>				<path opacity="0.4" d="M 323.2871 115.0405 L 324.3392 118.9604 L 309.1282 126.1152 L 323.2871 115.0405 Z" fill="#000000"/>				<path d="M 183.7804 242.8184 C 183.5024 242.6597 181.0806 241.626 178.0632 242.1826 C 175.0458 242.7388 169.2095 246.9912 167.8994 249.1768 C 166.5891 251.3628 165.4377 255.8535 165.9937 258.0791 C 166.5496 260.3047 168.0581 264.4775 167.8994 264.4375 C 167.7405 264.3979 178.6985 264.4375 178.6985 264.4375 L 179.3337 256.1714 L 180.3782 257.7397 L 180.6041 258.0791 C 180.6041 258.0791 182.6687 258.3174 182.5099 258.0791 C 182.3511 257.8408 183.5024 258.1587 183.7804 255.5356 C 184.0583 252.9126 184.4156 251.0845 184.4156 251.0845 L 186.3213 245.3618 C 186.3213 245.3618 184.0583 242.9775 183.7804 242.8184 Z" stroke="#ffffff00" stroke-width="1" fill="#f4caa4"/>				<g>					<path d="M 181.1304 193.3574 L 195.8933 219.5767 L 209.2502 225.2456 L 215.5774 228.0801 C 215.5774 228.0801 220.7327 231.1504 218.3893 238.7095 C 216.046 246.2681 211.4766 249.2207 209.2502 248.6299 C 207.0242 248.0396 200.1113 246.0317 200.1113 245.7954 C 200.1113 245.5596 188.0431 242.0161 187.4573 242.2524 C 186.8715 242.4888 162.8523 251.4644 162.8523 251.4644 L 181.1304 193.3574 Z" stroke="#ffffff00" stroke-width="1" fill="#e0dbd7"/>					<path d="M 208.5474 225.9541 C 208.4594 227.3711 208.3716 236.3179 205.0322 240.835 C 201.6931 245.3525 201.6931 246.1499 200.8142 246.5039 C 199.9355 246.8584 198.0023 247.2129 198.0023 247.2129 L 193.7843 255.0073 C 193.7843 255.0073 188.0789 267.2632 187.991 266.9976 C 187.9031 266.7319 183.2742 266.7231 183.2742 266.7231 L 179.0212 273.4316 L 189.5663 245.7954 L 189.5663 243.6694 L 191.6753 240.835 L 195.1903 236.5835 C 195.1903 236.5835 197.4751 232.8633 197.2993 233.0405 C 197.1235 233.2173 198.0023 228.0801 198.0023 228.0801 L 198.0023 221.7021 L 197.2993 219.5767 C 197.2993 219.5767 208.6353 224.5371 208.5474 225.9541 Z" stroke="#ffffff00" stroke-width="1" fill="#e65051"/>					<path d="M 207.3756 239.7725 L 215.5774 240.835 C 215.5774 240.835 215.343 245.5596 211.3594 245.7954 C 207.3756 246.0317 202.9233 245.7954 202.9233 245.7954 L 207.3756 239.7725 Z" stroke="#ffffff00" stroke-width="1" fill="#c9c7c8"/>					<path d="M 162.8523 185.563 " stroke="#ffffff00" stroke-width="1" fill="none"/>					<path d="M 178.3182 233.0405 L 193.0813 236.5835 L 190.2693 240.1265 C 190.2693 240.1265 186.52 241.0713 186.7543 240.835 C 186.9885 240.5991 169.8823 247.2129 169.8823 247.2129 L 178.3182 233.0405 Z" stroke="#ffffff00" stroke-width="1" fill="#c9c7c8"/>					<path d="M 200.6484 235.6221 C 200.1013 236.0781 199.376 236.8643 199.9128 237.5059 C 200.3361 238.0117 201.2847 237.7261 202.0404 237.0449 C 202.7751 236.3823 202.5583 235.5469 202.2192 235.3013 C 201.8804 235.0552 201.2251 235.1406 200.6484 235.6221 Z" stroke="#ffffff00" stroke-width="1" fill="#e72c2c"/>					<path d="M 198.5396 240.582 C 197.9924 241.0386 197.267 241.8247 197.8037 242.4663 C 198.2272 242.9717 199.1758 242.6865 199.9314 242.0054 C 200.666 241.3428 200.4493 240.5073 200.1104 240.2612 C 199.7715 240.0156 199.1162 240.1011 198.5396 240.582 Z" stroke="#ffffff00" stroke-width="1" fill="#e72c2c"/>					<path d="M 196.5962 219.5767 " stroke="#ffffff00" stroke-width="1" fill="none"/>					<path d="M 190.2693 242.9609 C 190.1814 243.2266 192.0267 244.2012 192.3782 244.3784 C 192.7297 244.5552 187.4573 252.8818 187.4573 252.8818 L 184.1304 265.5576 C 184.1304 265.5576 179.6487 263.0771 179.9124 262.7231 C 180.1759 262.3687 183.9424 252.8818 183.9424 252.8818 L 186.7543 246.5039 C 186.7543 246.5039 187.7209 242.0752 187.4573 242.2524 C 187.1936 242.4297 189.4785 241.2783 189.5663 241.5439 C 189.6542 241.8096 194.9706 237.4692 195.8933 235.166 C 196.8159 232.8633 198.4417 225.3784 198.0023 223.1196 C 197.563 220.8608 195.8933 219.5767 195.8933 219.5767 L 196.5962 219.5767 C 196.5962 219.5767 199.1007 221.481 198.7053 225.9541 C 198.3098 230.4272 197.6454 233.2344 196.3767 235.875 C 195.0146 238.7095 190.3572 242.6953 190.2693 242.9609 Z" stroke="#ffffff00" stroke-width="1" fill="#e72c2c"/>					<path d="M 163.5553 177.7681 C 187.7489 183.1528 185.6135 208.5508 183.8241 217.4097 C 181.5013 228.9082 177.8087 236.5674 173.3972 242.5439 C 166.9048 251.3389 162.0667 254.5908 155.1193 253.5903 C 148.172 252.5898 135.9729 245.0869 137.5442 217.4507 C 139.1157 189.8145 157.2502 176.709 163.5553 177.7681 Z" stroke="#ffffff00" stroke-width="1" fill="#e72727"/>					<path d="M 162.1492 177.0596 C 187.7489 188.0898 182.1249 210.9307 181.4036 216.9409 C 180.1794 227.1421 176.0765 235.3008 171.9913 240.835 C 165.4988 249.6304 160.6605 253.8818 153.7133 252.8818 C 146.766 251.8813 134.5669 244.3784 136.1382 216.7422 C 137.7097 189.106 155.8442 176 162.1492 177.0596 Z" stroke="#ffffff00" stroke-width="1" fill="#e65051"/>					<path d="M 161.4463 184.854 C 161.4463 184.854 153.0103 183.7705 148.0892 191.9404 C 143.1682 200.1104 139.6118 209.1558 139.6533 219.5767 C 139.6947 229.9976 141.969 240.4185 145.9802 242.9609 C 149.9915 245.5039 150.6531 245.6704 154.4163 245.0869 C 158.1794 244.5034 160.7336 243.0313 164.042 240.2383 C 167.3503 237.4458 161.4463 184.854 161.4463 184.854 Z" stroke="#ffffff00" stroke-width="1" fill="#c8c8c8"/>					<path d="M 162.5215 184.854 C 160.0403 185.6045 154.2509 193.1494 152.3073 200.4438 C 150.3636 207.7383 148.0892 215.9082 148.7922 221.7021 C 149.4952 227.4966 151.3562 236.75 153.7133 240.1265 C 156.0703 243.5029 157.2283 244.3784 157.2283 244.3784 C 157.2283 244.3784 169.0552 238.751 171.9913 227.3711 C 174.9274 215.9917 175.8259 204.9487 173.8108 197.9844 C 171.2056 188.981 164.5065 185.4795 162.5215 184.854 Z" fill="#9d9d9d"/>					<path d="M 174.8032 211.7817 L 161.4463 207.5303 C 161.4463 207.5303 158.4585 206.8213 155.8223 207.5303 C 153.186 208.2388 152.1316 212.3135 151.6042 214.6162 C 151.077 216.9194 151.4285 221.8794 154.4163 223.8281 C 157.4041 225.7769 168.4763 232.3315 168.4763 232.3315 C 168.4763 232.3315 171.6399 227.0171 172.6943 223.1196 C 173.7488 219.2222 174.8032 211.7817 174.8032 211.7817 Z" fill="#e0dbd7"/>					<path d="M 165.6643 208.9473 C 165.6643 208.9473 169.3054 213.0586 169.8823 216.0332 C 170.459 219.0083 170.7471 224.7822 169.1792 227.3711 C 167.6116 229.9604 167.4282 231.9263 167.0703 231.623 C 166.7124 231.3198 168.4763 232.3315 168.4763 232.3315 C 168.4763 232.3315 172.2891 226.3428 173.3972 222.4111 C 174.5055 218.4795 174.8762 211.4287 174.8032 211.7817 C 174.7302 212.1348 165.6643 208.9473 165.6643 208.9473 Z" fill="#c8c8c8"/>					<path d="M 157.2705 208.207 C 155.4722 208.0557 153.3208 211.1309 153.0103 214.6162 C 152.6997 218.1016 152.7745 221.7271 154.573 222.105 C 156.7318 222.5581 159.0809 219.3638 159.3373 214.6162 C 159.5936 209.8687 158.7555 208.6919 157.2705 208.207 Z" stroke="#ffffff00" stroke-width="1" fill="#c8c8c8"/>				</g>				<path d="M 181.2394 263.8018 " stroke="#ffffff00" stroke-width="1" fill="none"/>				<path d="M 195.2147 251.0845 C 195.2147 251.0845 195.7998 256.4688 195.2147 258.0791 C 194.6296 259.6895 192.2996 266.1519 192.0386 266.981 C 191.7773 267.8101 190.3206 271.5039 188.8623 272.0679 C 187.4041 272.6318 187.5918 272.7036 187.5918 272.7036 L 192.6738 272.7036 C 192.6738 272.7036 194.2181 270.6563 195.85 266.981 C 197.4818 263.3057 198.3494 256.1401 198.3909 255.5356 C 198.4325 254.9312 195.2147 250.4487 195.2147 250.4487 L 195.2147 251.0845 Z" stroke="#ffffff00" stroke-width="1" fill="#e9b989"/>				<path d="M 178.0632 251.0845 L 180.6041 250.4487 C 180.6041 250.4487 182.8672 252.1973 183.1451 252.3564 C 183.4231 252.5151 185.1304 255.8535 183.7804 257.4434 C 182.8149 258.5801 181.9307 259.0664 181.5054 259.2515 C 181.3359 259.3252 181.2394 259.3506 181.2394 259.3506 C 181.2394 259.3506 175.8795 257.7212 175.5222 257.4434 C 175.1649 257.165 178.0632 251.0845 178.0632 251.0845 Z" stroke="#ffffff00" stroke-width="1" fill="#fad3b2"/>				<path d="M 180.0632 243.0845 L 182.6041 242.4487 C 182.6041 242.4487 184.8672 244.1973 185.1451 244.3564 C 185.4231 244.5151 187.1304 247.8535 185.7804 249.4434 C 184.8149 250.5801 183.9307 251.0664 183.5054 251.2515 C 183.3359 251.3252 183.2394 251.3506 183.2394 251.3506 C 183.2394 251.3506 177.8795 249.7212 177.5222 249.4434 C 177.1649 249.165 180.0632 243.0845 180.0632 243.0845 Z" stroke="#ffffff00" stroke-width="1" fill="#f4caa4"/>				<path d="M 173.6165 264.4375 C 173.6165 264.4375 175.755 265.5088 177.428 265.0732 C 178.7039 264.7412 178.7983 267.8237 179.7448 266.917 C 180.0393 266.6348 181.7206 262.9634 181.8746 262.5303 C 182.5236 260.7041 183.9454 259.1938 180.6041 257.4434 C 177.2629 255.6924 173.7012 255.6382 171.7108 256.8076 C 169.7205 257.9766 167.0261 258.8994 167.2642 262.5303 C 167.502 266.1606 170.2151 269.0845 171.7108 270.1602 C 173.2063 271.2363 178.7566 274.3042 182.5099 273.9756 C 186.2632 273.647 187.9812 273.5283 190.1328 270.7964 C 192.2844 268.064 194.9758 261.0366 195.2147 258.0791 C 195.4536 255.1211 195.7365 251.6792 195.2147 251.0845 C 194.693 250.4897 193.9442 249.813 193.9442 249.813 C 193.9442 249.813 194.2703 253.2163 193.309 254.2637 C 192.3479 255.3115 191.0994 258.1001 189.8945 257.6816 C 188.6898 257.2632 190.0114 258.2422 190.0137 258.0791 C 190.016 257.9155 189.5769 262.5303 189.5769 262.5303 C 189.5769 262.5303 189.2468 267.8374 189.0015 268.0391 C 189.0015 268.0391 181.031 266.8423 181.4277 266.917 C 181.8246 266.9922 175.7465 265.7656 175.5222 265.7095 C 175.2981 265.6528 173.6165 264.4375 173.6165 264.4375 Z" stroke="#ffffff00" stroke-width="1" fill="#f7d3b2"/>				<path d="M 173.6165 265.0732 C 173.6165 265.0732 176.2649 265.5088 178.0632 265.0732 C 179.8616 264.6377 181.2394 263.8018 181.2394 263.8018 L 183.1451 263.8018 C 183.1451 263.8018 182.8103 264.4941 181.8746 265.0732 C 180.939 265.6528 178.7944 266.5933 176.7927 266.3452 C 174.791 266.0972 173.6165 265.7095 173.6165 265.7095 L 173.6165 265.0732 Z" stroke="#ffffff00" stroke-width="1" fill="#fbcaa9"/>				<path d="M 195.2147 257.4434 C 193.7522 258.8081 192.7277 259.7637 190.7681 258.7148 C 188.8083 257.666 187.96 256.5742 187.5918 254.8999 C 187.2239 253.2251 187.3894 250.585 187.5918 249.1768 C 187.7942 247.769 189.3108 244.6016 192.0386 244.7261 C 194.7664 244.8506 196.2393 247.9839 196.4852 249.1768 C 196.7312 250.3701 196.6772 256.0781 195.2147 257.4434 Z" stroke="#ffffff00" stroke-width="1" fill="#e9b989"/>				<path d="M 193.309 255.5356 C 191.8464 256.9004 190.822 257.856 188.8623 256.8076 C 186.9026 255.7588 186.0542 254.667 185.686 252.9922 C 185.3181 251.3174 185.4836 248.6777 185.686 247.2695 C 185.8884 245.8613 187.405 242.6938 190.1328 242.8184 C 192.8606 242.9429 194.3335 246.0762 194.5795 247.2695 C 194.8254 248.4624 194.7715 254.1709 193.309 255.5356 Z" stroke="#ffffff00" stroke-width="1" fill="#f7d3b2"/>				<path d="M 196 265 L 199 268 C 199 268 197.079 274.9487 195 275 C 192.921 275.0513 190 273 190 273 C 190 273 193.0984 272.6924 194 271 C 194.9016 269.3076 195 269 195 269 L 196 265 Z" stroke="#ffffff00" stroke-width="1" fill="#ffffff"/>				<path d="M 253 270 L 259 273 L 254 276 L 246 270 L 253 270 Z" fill="#d6dfe0"/>				<path d="M 174.887 245.3618 C 174.887 245.3618 177.15 244.0503 179.3337 244.0903 C 181.5173 244.1299 184.9565 245.4678 184.9565 245.4678 C 184.9565 245.4678 184.7976 244.0771 184.9565 244.1963 C 185.1152 244.3154 181.4775 243.5337 179.3337 243.4541 C 177.1897 243.375 174.887 245.3618 174.887 245.3618 Z" stroke="#ffffff00" stroke-width="1" fill="#e9b989"/>				<path d="M 172.3459 250.4487 C 172.1475 250.4487 175.1252 248.8989 176.7927 249.1768 C 178.4602 249.4551 181.835 251.3232 182.5099 252.3564 C 183.1848 253.3896 183.8599 253.8662 183.7804 253.6279 C 183.7009 253.3896 182.2717 250.3296 179.969 249.1768 C 177.6663 248.0244 176.1178 248.2627 174.887 248.541 C 173.6563 248.8193 172.5446 250.4487 172.3459 250.4487 Z" stroke="#ffffff00" stroke-width="1" fill="#e9b989"/>				<path d="M 323 254 C 322.7032 253.7031 324.7551 251.9971 325.6241 251.2983 C 325.8531 251.1143 326 251 326 251 L 334 262 L 330 264 C 330 264 330.0625 263.625 330 264 C 329.9375 264.375 323.375 254.375 323 254 Z" stroke="#ffffff00" stroke-width="1" fill="#ffffff"/>				<g>					<path d="M 346.3334 252.3418 C 346.3334 252.3418 344.916 253.6494 343.5144 253.6821 C 342.4454 253.707 341.1926 253.8594 340.248 253.3643 C 339.9541 253.2104 339.6899 252.9937 339.4705 252.6904 C 338.5461 251.4146 337.0928 250.5557 339.2898 248.4521 C 341.4868 246.3491 344.2454 245.5166 346.0624 245.9844 C 347.8795 246.4517 350.1877 246.5718 350.8369 249.4482 C 351.4862 252.3247 350.0475 255.2012 349.1312 256.3696 C 348.2148 257.5381 344.6021 261.1563 341.6067 261.7334 C 338.6112 262.311 337.2476 262.6001 334.9456 260.9526 C 332.6438 259.3047 328.9349 254.4365 328.0693 252.189 C 327.2039 249.9419 326.1926 247.3271 326.4619 246.749 C 326.7312 246.1709 334.0081 239.7236 334.0081 239.7236 C 334.0081 239.7236 340.5485 253.3926 340.2568 253.5391 C 339.9653 253.6851 344.9816 253.8472 345.1431 253.7539 C 345.3046 253.6602 346.3334 252.3418 346.3334 252.3418 Z" stroke="#ffffff00" stroke-width="1" fill="#f7d3b2"/>					<path d="M 333.4578 237.7822 C 333.6375 237.5972 335.2842 236.2559 337.7594 236.019 C 340.2346 235.7822 345.7524 237.7944 347.2739 239.2036 C 348.7957 240.6128 350.7234 243.8501 350.8025 245.7046 C 350.8815 247.5586 350.6667 251.1392 350.7811 251.0728 C 350.8955 251.0068 342.3798 253.4692 342.3798 253.4692 L 339.986 247.1812 L 339.5337 248.6328 L 339.4359 248.9468 C 339.4359 248.9468 337.8845 249.5903 337.9534 249.3696 C 338.022 249.1489 337.1995 249.6519 336.3804 247.6733 C 335.5614 245.6953 334.8633 244.3525 334.8633 244.3525 L 332.0654 240.3247 C 332.0654 240.3247 333.2781 237.9678 333.4578 237.7822 Z" stroke="#ffffff00" stroke-width="1" fill="#f4caa4"/>					<path d="M 340.2568 253.5391 " stroke="#ffffff00" stroke-width="1" fill="none"/>					<path d="M 326.4619 246.749 C 326.4619 246.749 327.2441 251.0664 328.0693 252.189 C 328.8948 253.3115 332.1926 257.8213 332.5862 258.4082 C 332.98 258.9951 334.9622 261.5444 336.2263 261.6597 C 337.4904 261.7744 337.3608 261.8721 337.3608 261.8721 L 333.4072 263 C 333.4072 263 331.7354 261.7505 329.6211 259.2539 C 327.5068 256.7573 325.1852 251.377 325.0139 250.916 C 324.8425 250.4546 326.3158 246.2544 326.3158 246.2544 L 326.4619 246.749 Z" stroke="#ffffff00" stroke-width="1" fill="#e9b989"/>					<path d="M 339.8052 242.9429 L 337.6824 243.0122 C 337.6824 243.0122 336.3236 244.8745 336.1439 245.0596 C 335.9642 245.2451 335.4033 248.2202 336.8188 249.1572 C 337.8312 249.8271 338.6309 250.0093 339.0043 250.0586 C 339.1528 250.0781 339.2339 250.0771 339.2339 250.0771 C 339.2339 250.0771 343.0293 247.6201 343.2434 247.3242 C 343.4574 247.0288 339.8052 242.9429 339.8052 242.9429 Z" stroke="#ffffff00" stroke-width="1" fill="#fad3b2"/>					<path d="M 345.345 252.6235 C 345.345 252.6235 343.9276 253.9316 342.5259 253.9639 C 341.457 253.9888 340.2043 254.1411 339.2596 253.6465 C 338.9657 253.4922 338.7014 253.2754 338.4821 252.9727 C 337.5576 251.6968 336.1044 250.8374 338.3014 248.7344 C 340.4984 246.6309 343.2568 245.7988 345.074 246.2661 C 346.8911 246.7334 349.1992 246.8535 349.8486 249.7305 C 350.4978 252.6069 349.0591 255.4834 348.1428 256.6519 C 347.2266 257.8203 343.6138 261.438 340.6183 262.0156 C 337.6228 262.5928 336.2592 262.8818 333.9573 261.2344 C 331.6553 259.5869 327.9465 254.7188 327.0811 252.4712 C 326.2156 250.2236 325.2043 247.6094 325.4736 247.0313 C 325.7427 246.4526 326.1697 245.7598 326.1697 245.7598 C 326.1697 245.7598 326.6982 248.479 327.6868 249.0811 C 328.6753 249.6826 330.2876 251.5742 331.1287 250.9814 C 331.9696 250.3887 331.1665 251.4434 331.1272 251.3169 C 331.0879 251.1904 332.49 254.6816 332.49 254.6816 C 332.49 254.6816 332.9641 256.4209 333.2015 256.5234 C 333.2015 256.5234 339.5601 253.6743 339.2686 253.8208 C 338.9771 253.9668 343.9932 254.1294 344.1548 254.0356 C 344.3162 253.9419 345.345 252.6235 345.345 252.6235 Z" stroke="#ffffff00" stroke-width="1" fill="#f7d3b2"/>					<path d="M 346.4795 252.8364 C 346.4795 252.8364 344.5193 253.7627 343.0203 253.8232 C 341.521 253.8833 340.2568 253.5391 340.2568 253.5391 L 338.7744 253.9619 C 338.7744 253.9619 339.1938 254.4258 340.0549 254.6689 C 340.916 254.9121 342.8005 255.1675 344.3008 254.5303 C 345.801 253.8931 346.6257 253.3311 346.6257 253.3311 L 346.4795 252.8364 Z" stroke="#ffffff00" stroke-width="1" fill="#e9b989"/>					<path d="M 338.2109 246.6152 C 338.2109 246.6152 336.5657 250.7446 337.8418 252.6191 C 339.1178 254.4932 339.2126 255.4453 339.2126 255.4453 L 336.2476 256.291 C 336.2476 256.291 336.4165 255.9165 335.865 253.1826 C 335.3135 250.4492 332.5869 248.4756 332.7749 248.1655 C 332.9629 247.8555 331.7559 240.4595 332.0654 240.3247 C 332.375 240.1895 334.6826 240.1143 334.6826 240.1143 L 338.2109 246.6152 Z" stroke="#ffffff00" stroke-width="1" fill="#e9b989"/>					<path d="M 340.9611 237.7871 C 340.9611 237.7871 338.899 237.269 337.2095 237.7847 C 335.5198 238.3003 335.1768 239.9731 335.1768 239.9731 C 335.1768 239.9731 334.9807 238.856 334.8845 238.9844 C 334.7883 239.1123 335.4136 237.8276 337.0632 237.29 C 338.7129 236.7524 340.9611 237.7871 340.9611 237.7871 Z" stroke="#ffffff00" stroke-width="1" fill="#e9b989"/>					<path d="M 344.1069 241.1797 C 344.2612 241.1357 341.5886 240.5908 340.3552 241.1772 C 339.1218 241.7637 336.9258 243.9653 336.6382 244.9189 C 336.3506 245.8721 335.9351 246.3931 335.9419 246.1899 C 335.949 245.9868 336.3577 243.2896 337.8843 241.8823 C 339.4109 240.4746 340.6702 240.3164 341.6917 240.2598 C 342.7131 240.2031 343.9524 241.2236 344.1069 241.1797 Z" stroke="#ffffff00" stroke-width="1" fill="#e9b989"/>					<path d="M 327.9232 251.6943 C 329.3748 252.4316 330.3914 252.9473 331.6749 251.6968 C 332.9585 250.4463 333.3677 249.4087 333.269 248.0249 C 333.1705 246.6406 332.4349 244.624 331.9539 243.5737 C 331.4729 242.5234 329.5651 240.3965 327.4716 241.0986 C 325.3781 241.8008 324.9523 244.5649 325.0352 245.5474 C 325.1179 246.5298 326.4717 250.9575 327.9232 251.6943 Z" stroke="#ffffff00" stroke-width="1" fill="#e9b989"/>					<path d="M 328.9674 249.7881 C 330.4189 250.5249 331.4355 251.041 332.7191 249.79 C 334.0027 248.5396 334.4119 247.5024 334.3132 246.1182 C 334.2147 244.7339 333.4791 242.7173 332.998 241.667 C 332.5171 240.6172 330.6093 238.4897 328.5157 239.1919 C 326.4224 239.8945 325.9965 242.6582 326.0793 243.6406 C 326.1621 244.6235 327.5159 249.0508 328.9674 249.7881 Z" stroke="#ffffff00" stroke-width="1" fill="#f7d3b2"/>				</g>				<path d="M 258 273 L 264 277 L 273 269 C 273 269 267.5792 270.1865 267 270 C 266.4208 269.8135 262 273 262 273 L 258 273 Z" stroke="#ffffff00" stroke-width="1" fill="#d5dadd"/>				<path d="M 239 242 C 239.5741 241.9971 251.1318 242.8906 260 243 C 268.8682 243.1094 282 242 282 242 C 282 242 274.0432 249.3281 262 249 C 249.9568 248.6719 238.4259 242.0029 239 242 Z" stroke="#ffffff00" stroke-width="1" fill="#fefffd"/>				<path d="M 248 258 C 247.9448 257.7886 252.1118 252.8281 260 253 C 267.8882 253.1719 272 257 272 257 C 272 257 266.4475 261.1079 260.3171 260.7432 C 254.1866 260.3779 248.0552 258.2114 248 258 Z" stroke="#ffffff00" stroke-width="1" fill="#fc706c"/>				<path d="M 310 228 C 310.3438 227.8438 311 222 311 222 C 311 222 309.8125 223.3125 311 222 C 312.1875 220.6875 313.5 218.8125 316 220 C 318.5 221.1875 319.5 224.4375 318 227 C 316.5 229.5625 311.75 232.1563 310 232 C 308.25 231.8438 309.6563 228.1563 310 228 Z" stroke="#ffffff00" stroke-width="1" fill="#f4caa4"/>			</g>		</g>	</g></svg>