<svg xmlns="http://www.w3.org/2000/svg" width="406" height="337" style="background-color:#ffffff00"><g><g fill="#bababa"><path d="M2.67 219.54H.17v-1h2.5v1zM237.72 219.54h-3.97v-1h3.97v1zm-6.92 0h-3.96v-1h3.96v1zm-6.9 0h-3.97v-1h3.96v1zm-6.92 0H213v-1H217v1zm-6.92 0h-3.96v-1h3.96v1zm-6.9 0h-3.97v-1h3.95v1zm-6.92 0h-3.97v-1h3.97v1zm-6.92 0h-3.96v-1h3.96v1zm-6.9 0h-3.97v-1h3.96v1zm-6.92 0h-3.97v-1h3.97v1zm-6.92 0h-3.96v-1h3.96v1zm-6.9 0h-3.97v-1h3.97v1zm-6.92 0h-3.97v-1h3.96v1zm-6.92 0h-3.96v-1h3.96v1zm-6.9 0h-3.97v-1h3.96v1zm-6.92 0h-3.96v-1h3.96v1zm-6.92 0h-3.96v-1h3.97v1zm-6.9 0h-3.97v-1h3.96v1zm-6.92 0h-3.96v-1h3.96v1zm-6.9 0h-3.98v-1h3.97v1zm-6.93 0H95.5v-1h3.95v1zm-6.9 0h-3.97v-1h3.96v1zm-34.58 0H54v-1h3.97v1zm-6.9 0H47.1v-1h3.96v1zm-6.92 0h-3.97v-1h3.97v1zm-6.92 0h-3.96v-1h3.96v1zm-6.9 0h-3.97v-1h3.96v1zm-6.92 0h-3.96v-1h3.97v1zm-6.9 0h-3.97v-1h3.96v1zm-6.92 0H5.62v-1h3.96v1zM243.17 219.54h-2.5v-1h2.5v1z"/></g><path d="M107 68.5C107 30.67 139.68 0 180 0s73 30.67 73 68.5-32.68 68.5-73 68.5-73-30.67-73-68.5z"/><g fill="#fff"><path d="M151.2 39.7c.14.16.25.42.3.8.1.45.2.75.25.88.12.3.25.52.4.64.17.17.4.2.68.13.32-.1.53-.27.66-.53.1-.27.07-.54-.06-.82-.13-.23-.55-1.35-1.26-3.35-.1-.2-.24-.35-.44-.42-.2-.06-.4-.05-.63.05-.17.08-.3.2-.37.35-.07.16-.08.33-.04.53 0 .08.17.67.5 1.75zm5.48-.28c-.32-1.08-.5-1.67-.52-1.77-.1-.2-.25-.34-.47-.4-.2-.04-.4-.03-.63.02-.18.07-.3.2-.38.34-.1.17-.1.33-.07.52.08.36.26.96.53 1.8.03.12.08.33.13.6.03.3.07.52.12.65.07.2.18.34.32.42.16.1.4.1.68 0 .26-.05.45-.18.55-.36.07-.13.08-.32.05-.54-.03-.13-.08-.35-.17-.65-.1-.28-.16-.48-.17-.63zM175 33.8c.14-.07.46-.12.95-.14.53 0 .93-.06 1.2-.17.42-.15.7-.4.85-.77.14-.34.14-.7 0-1.08-.2-.5-.7-.6-1.53-.3-.5.2-2.62.93-6.37 2.22-2.58.9-4.67 1.7-6.3 2.4-1.3.6-2.36.87-3.16.86-1 0-1.57.1-1.73.33-.16.2-.1.73.2 1.57.72 2.17 1.2 3.6 1.4 4.32.43 1.65.63 3.14.57 4.5 0 .56.22.98.7 1.28.32.18.6.7.84 1.5.08.26.23.74.47 1.47.2.6.33 1.1.43 1.46.32 1.12 1.02 1.47 2.12 1.08.45-.15 1-.38 1.64-.66 3.6-1.56 6.24-2.5 7.9-2.8 1.06-.18 1.46-.77 1.23-1.77-.1-.38-.34-.6-.7-.64-.2 0-.53.06-1 .2-.98.32-1.6.55-1.9.68-.65.33-1.6.7-2.85 1.13-1.34.43-2.3.8-2.86 1.06-.9.43-1.5.56-1.85.4-.3-.13-.64-.67-1-1.6 0-.03-.04-.15-.1-.36-.05-.15-.1-.27-.14-.36-.23-.45-.3-.83-.17-1.12.12-.28.44-.54.97-.77 3-1.4 5.44-2.4 7.28-3.02.73-.24 1.26-.56 1.57-.93.32-.37.35-.72.1-1.03-.34-.43-.75-.56-1.22-.4-.15.05-.36.16-.6.28-.3.2-.5.3-.62.33-2.87 1.26-4.98 2.15-6.3 2.7-.96.37-1.58.48-1.87.34-.27-.13-.53-.68-.8-1.65-.1-.37-.23-.98-.42-1.86-.18-.8-.32-1.4-.44-1.84-.2-.6-.17-1.1.04-1.46.2-.34.6-.63 1.2-.85l6-2.3c2.45-.92 4.55-1.65 6.3-2.2zM191.88 33.84c.3 2.76.44 4.24.45 4.43.14 2.3-.45 4.7-1.76 7.23-.92 1.77-2.08 1.9-3.5.37-.3-.33-.53-.63-.68-.9-2.02-3.8-3.2-7.5-3.58-11.05 0-.12 0-.35.02-.7 0-.3.02-.55 0-.7-.07-.5-.4-.75-1-.7-.55.04-.87.33-.94.86-.03.14 0 .62.07 1.43.4 4.23 1.92 8.56 4.6 13 .8 1.33 1.86 1.97 3.18 1.9 1.3-.07 2.36-.77 3.2-2.13 1.15-1.87 1.88-4.52 2.2-7.96.1-1.04-.03-2.5-.42-4.42-.4-1.97-.58-3.44-.54-4.4 0-.14-.2-.54-.64-1.2-.58-.84-1.2-1.08-1.88-.7-.32.18-.48.44-.46.8 0 .24.08.55.25.94.88 2.2 1.36 3.5 1.4 3.92zM131.45 67.62c-.76.06-1.55.33-2.37.8-.23.15-.33.33-.3.55.04.13.1.23.2.28.1.04.2.05.32 0 .27-.1.5-.1.64.04.07.07.16.26.28.56l.6 1.55c.24.67.44 1.2.58 1.56.56 1.55 1.03 2.9 1.4 4 .08.2.15.34.24.42.1.1.25.1.42.07.13-.03.23-.1.3-.24 0-.04.03-.17.07-.4.04-.22-.1-.67-.42-1.36-.38-.77-.78-1.78-1.2-3.02-.7-1.9-1.06-2.94-1.1-3.06-.1-.3-.14-.52-.06-.68.07-.15.27-.27.6-.34 1.54-.38 3.17-.28 4.84.3.88.33 1.4 1 1.55 2 .1.66.02 1.3-.2 1.97-.42 1.22-.84 2.2-1.27 2.92-.58 1-1.27 1.8-2.08 2.4-.4.3-.46.62-.18.92.3.36.65.33 1.02-.1.4-.46.77-.95 1.12-1.5 1.4-2.14 2.2-4.04 2.36-5.7.17-1.76-.55-2.95-2.13-3.58-1.87-.74-3.6-.85-5.22-.34zM149.15 64.74c.1-.04.3-.07.58-.1.32 0 .56-.02.73-.08.24-.08.4-.24.5-.46.08-.2.08-.42 0-.66-.12-.3-.42-.36-.92-.18-.3.12-1.58.57-3.82 1.34-1.55.54-2.8 1.03-3.78 1.45-.8.34-1.4.5-1.9.5-.6 0-.94.07-1.03.2-.1.13-.06.45.1.95.45 1.3.73 2.17.85 2.6.27.97.38 1.87.35 2.68 0 .34.14.6.43.77.2.1.35.4.5.9.03.16.13.45.27.88.1.37.2.67.26.88.18.7.6.9 1.27.66.28-.1.6-.22 1-.4 2.14-.93 3.72-1.5 4.73-1.68.62-.1.87-.46.73-1.06-.06-.24-.2-.37-.42-.4-.12 0-.32.04-.6.13-.6.2-.98.33-1.14.4-.4.22-.96.44-1.7.7-.8.24-1.4.46-1.73.63-.52.26-.9.33-1.1.24-.17-.1-.37-.4-.58-.97 0-.02-.03-.08-.07-.2-.02-.1-.05-.17-.1-.23-.14-.28-.16-.5-.1-.68.08-.16.27-.32.6-.46 1.8-.83 3.25-1.44 4.36-1.82.44-.15.76-.32.95-.55.2-.22.2-.42.06-.6-.2-.27-.44-.35-.72-.26-.1.05-.22.1-.36.18-.2.1-.3.17-.37.2-1.74.75-3 1.28-3.8 1.6-.58.23-.95.3-1.1.2-.18-.06-.33-.4-.5-.98-.05-.2-.14-.58-.25-1.1-.1-.5-.2-.86-.27-1.12-.1-.36-.1-.65.03-.86.12-.2.36-.38.73-.5l3.58-1.4c1.47-.56 2.72-1 3.77-1.32zM152.8 64.6c.2.18.3.26.32.26.7-.12 1.24.02 1.64.46.25.26.5.77.8 1.5l.66 1.87c.1.36.58 1.88 1.44 4.56.1.32.26.46.46.45.3 0 .5-.18.54-.54.04-.2 0-.47-.13-.83-.38-1.03-.65-1.74-.8-2.12-.2-.5-.27-.88-.2-1.08.07-.2.35-.42.84-.67.07-.04.23-.1.53-.23 1.37-.53 2.27-.83 2.7-.9.25-.03.43-.16.54-.4.1-.2.1-.42 0-.66-.1-.22-.26-.32-.44-.3-.03 0-.2.08-.5.22-.4.18-1 .44-1.76.77-.8.34-1.38.6-1.75.76-.24.12-.42.15-.54.1-.15-.03-.27-.17-.36-.4-.34-.88-.66-1.6-.96-2.2-.13-.28-.16-.5-.1-.67.08-.14.26-.28.55-.4 1.84-.76 2.77-1.14 2.76-1.14.35-.12 1.12-.4 2.3-.9.95-.4 1.73-.65 2.37-.77.28-.04.5-.18.63-.42.13-.22.14-.43.03-.6-.13-.2-.3-.27-.5-.25-.07.02-.15.05-.26.08-.14.06-.22.1-.27.1-.1.03-.27.1-.52.2l-6.56 2.75c-.37.15-.64.25-.8.27-.28.05-.57-.03-.8-.2-.15-.08-.3-.12-.46-.08-.17.03-.27.1-.3.24-.03.26-.2.47-.52.65-.34.2-.54.37-.6.55zM175.72 58.63c.08-.05.28-.08.57-.1.3 0 .55-.03.72-.1.24-.07.42-.22.5-.45.08-.2.08-.42 0-.65-.1-.3-.42-.37-.92-.18-.3.12-1.58.57-3.82 1.34-1.55.53-2.8 1-3.78 1.43-.78.34-1.4.5-1.9.5-.6 0-.94.07-1.03.2-.1.14-.07.45.1.95.44 1.3.72 2.17.84 2.6.28.98.4 1.88.36 2.7 0 .32.14.58.43.75.18.12.34.4.5.9.02.16.12.46.26.9.1.35.2.65.26.87.18.68.6.9 1.27.65.27-.1.6-.22.98-.4 2.15-.94 3.74-1.5 4.74-1.68.62-.1.87-.47.73-1.06-.05-.23-.2-.36-.4-.38-.13 0-.33.03-.6.1-.6.2-1 .34-1.15.43-.4.2-.96.42-1.7.68-.8.25-1.38.46-1.72.63-.54.26-.9.34-1.1.24-.2-.08-.4-.4-.6-.96 0-.02-.03-.08-.07-.2 0-.1-.04-.17-.08-.23-.14-.27-.17-.5-.1-.67.07-.17.26-.32.58-.47 1.8-.83 3.26-1.44 4.37-1.82.44-.14.75-.32.94-.55.2-.23.22-.43.07-.63-.2-.25-.45-.33-.73-.24-.1.04-.22.1-.36.17-.18.1-.3.18-.37.2-1.73.76-3 1.3-3.8 1.6-.56.23-.94.3-1.1.22-.16-.08-.32-.4-.48-1-.06-.2-.15-.58-.26-1.1-.1-.48-.2-.85-.26-1.1-.1-.38-.1-.66.03-.88.1-.2.36-.38.72-.5l3.6-1.4c1.46-.55 2.7-1 3.77-1.3zM181.96 61.02c.27 0 .53.14.78.4l4.22 4.82c.3.34.45.5.44.5.2.16.42.18.64.07.22-.08.37-.27.44-.54.04-.14.06-.4.07-.75 0-.1-.05-.34-.1-.72-.1-.5-.3-1.28-.53-2.28-.24-1.02-.4-1.77-.5-2.27-.34-1.78-.4-3.32-.2-4.65.03-.17-.02-.33-.13-.47-.14-.12-.3-.2-.5-.23-.37-.03-.6.16-.7.6-.05.17-.05.37 0 .6.1.83.3 2.08.56 3.74.25 1.68.44 2.93.56 3.75l.06.24c.03.1.03.18.03.23 0 .2-.1.36-.3.48-2.12-2.32-3.76-4.4-4.97-6.25-.05-.06-.13-.2-.23-.38-.1-.16-.17-.28-.22-.4-.16-.18-.38-.23-.68-.12-.2.1-.3.25-.3.46 0 .22 0 .4.05.6l.8 4.46c.25 1.7.32 3.22.23 4.52-.02.4.14.6.5.6.16 0 .3-.05.4-.15.1-.1.17-.24.18-.4.04-.53.03-1.03-.02-1.48-.05-.4-.23-2.05-.58-4.93zM191.56 53.8c-.75.04-1.54.3-2.36.8-.24.13-.33.3-.3.53.04.13.1.23.2.28.1.06.2.07.3.02.28-.1.5-.1.65.03.08.08.17.27.28.57l.6 1.55c.25.66.45 1.18.58 1.55.58 1.56 1.05 2.9 1.42 4 .07.2.15.34.23.42.1.1.25.1.42.07.13-.02.23-.1.3-.23 0-.05.03-.18.07-.4.04-.23-.1-.68-.42-1.37-.38-.77-.8-1.77-1.2-3.02-.7-1.9-1.06-2.93-1.1-3.06-.12-.3-.15-.52-.07-.68.07-.15.27-.27.6-.34 1.55-.38 3.17-.28 4.85.3.88.33 1.4 1 1.54 2 .1.66.03 1.32-.2 1.98-.42 1.2-.84 2.17-1.27 2.9-.58 1-1.26 1.8-2.08 2.4-.4.3-.46.62-.2.92.33.37.66.33 1.04-.1.4-.46.77-.95 1.1-1.5 1.4-2.14 2.2-4.04 2.37-5.7.18-1.76-.53-2.95-2.12-3.58-1.87-.74-3.6-.85-5.22-.33zM208.26 61.17c-1.22.17-2.22.16-2.97 0-1.03-.24-1.86-.77-2.5-1.6-1.5-1.94-1.67-3.9-.53-5.9.33-.6.66-1.02 1-1.28.44-.37.97-.5 1.6-.42.44.06.67-.07.66-.4 0-.38-.18-.6-.56-.7-.86-.2-1.6 0-2.22.58-1.24 1.2-2 2.46-2.22 3.76-.22 1.22-.12 2.33.28 3.35.4 1.04 1.1 1.92 2.07 2.67 1.7 1.3 3.74 1.54 6.2.7 2-.7 3.25-2.38 3.72-5.08.22-1.38-.26-2.6-1.48-3.7-1.08-.95-2.3-1.48-3.64-1.58-.2 0-.34.03-.46.12-.14.1-.24.22-.27.4-.07.35.08.58.5.68.15.04.35.1.6.12.33.05.55.08.64.1.78.15 1.43.46 1.97.92.54.48.88 1.08 1.03 1.8.26 1.3.02 2.53-.74 3.65-.73 1.07-1.62 1.67-2.7 1.8zM222.03 48.97c.28.05.5.18.6.38.97 1.64 1.5 2.58 1.63 2.83.22.42.3.7.23.83-.08.15-.36.3-.84.45-.5.18-1.03.36-1.6.54-.24.07-.4.06-.52-.04-.1-.1-.14-.24-.1-.48l.6-4.5zm-2.1 9.8c.07.27.2.42.42.46.3.05.5-.08.6-.4 0-.06.03-.28.06-.64.1-1.25.16-1.95.17-2.1 0-.57.3-.95.87-1.15 1.2-.4 1.95-.67 2.25-.8.3-.1.54-.14.7-.08.2.07.38.27.5.6.06.13.5 1.03 1.3 2.7.2.37.44.5.75.35.3-.13.4-.38.36-.77 0-.04-.1-.22-.3-.55-.53-.87-.8-1.32-.82-1.36-.04-.08-.1-.2-.2-.33-.12-.16-.2-.28-.23-.35-.15-.27-.2-.5-.12-.7.07-.2.24-.33.53-.4l.38-.08c.16-.02.3-.05.37-.08.13-.04.22-.08.25-.1.25-.2.3-.48.16-.84-.1-.25-.32-.3-.66-.14-.16.08-.3.13-.35.17-.6.22-.98.32-1.13.27-.15-.04-.37-.34-.65-.88-.84-1.55-1.7-2.97-2.6-4.28-.15-.2-.28-.37-.4-.45-.16-.12-.35-.14-.56-.1-.32.1-.46.4-.4.88.06.8 0 1.8-.2 3-.28 1.75-.43 2.75-.44 3-.03.3-.1.52-.18.66-.12.2-.33.3-.65.28-.23 0-.35.1-.37.3-.02.1 0 .2.05.27.05.08.12.12.22.13.4.07.63.26.7.54.03.13 0 .42-.05.88-.02.13-.12.82-.3 2.08zM137.6 91.12c.14.38.27 1 .4 1.82.2 1.2.34 1.95.4 2.22.1.44.3.63.64.58.3-.05.5-.27.6-.7.02-.18-.04-.44-.18-.8-.32-.65-.62-1.7-.9-3.2-.13-.66-.57-2.62-1.33-5.86 0-.04-.1-.24-.3-.64-.15-.35-.36-.5-.6-.43-.25.1-.4.3-.48.64-.05.17 0 .44.15.8.47 1.15 1 3 1.6 5.58zM141.45 87.97c.27 0 .53.14.77.4l4.22 4.8c.3.35.46.53.45.5.2.18.4.2.63.1.22-.1.36-.3.44-.56.03-.14.06-.38.07-.74 0-.1-.05-.36-.12-.73-.1-.52-.27-1.28-.5-2.28-.25-1.02-.42-1.77-.5-2.27-.36-1.78-.43-3.32-.22-4.66.03-.16-.02-.32-.13-.46-.12-.13-.28-.2-.48-.24-.38-.03-.62.16-.72.6-.04.17-.04.36 0 .58.12.84.3 2.1.57 3.76.24 1.66.44 2.9.56 3.73l.07.23c.02.1.03.2.03.25 0 .2-.1.35-.33.48-2.1-2.33-3.74-4.42-4.95-6.26-.05-.06-.13-.2-.23-.4-.1-.15-.18-.27-.24-.37-.16-.2-.38-.24-.67-.13-.22.1-.32.24-.32.46 0 .2 0 .4.06.6l.8 4.45c.24 1.7.32 3.22.23 4.53-.03.4.13.6.5.6.15 0 .3-.05.4-.16.1-.1.17-.23.18-.4.04-.53.03-1.02-.02-1.48-.05-.4-.23-2.05-.58-4.93zM157.13 80.6c1.2-.27 1.88-.43 2-.47.36-.1.6-.18.75-.28.24-.15.32-.38.25-.68-.08-.3-.27-.47-.55-.47-.18 0-.43.06-.75.2-.3.13-1.5.43-3.66.92-.72.16-2.76.68-6.1 1.54-.26.08-.44.2-.55.33-.14.16-.16.35-.07.57.12.34.44.43.96.27.14-.03.75-.2 1.83-.55.7-.23 1.17-.3 1.4-.22.22.08.5.46.8 1.1 1.24 2.67 1.97 5.22 2.2 7.67.03.4.06.64.1.77.08.3.28.45.6.43.2 0 .36-.12.47-.34.2-.4.22-.9.05-1.5-.14-.48-.3-1.13-.53-1.95l-.5-1.92c-.43-1.52-.88-2.8-1.33-3.8-.33-.68-.1-1.1.62-1.23l2-.46v.07zM171.55 77.2c.08-.04.28-.07.58-.08.32 0 .55-.04.72-.1.25-.08.42-.23.5-.46.1-.2.08-.42 0-.65-.1-.3-.4-.36-.9-.17-.32.1-1.6.57-3.83 1.34-1.56.54-2.8 1.02-3.78 1.44-.8.35-1.42.52-1.9.52-.6 0-.94.06-1.04.2-.1.13-.07.44.1.94.45 1.3.73 2.17.85 2.6.26.98.38 1.88.35 2.7 0 .32.13.58.43.75.18.13.35.42.5.92.03.15.12.45.27.87.1.36.2.66.26.88.18.68.6.9 1.26.64.28-.08.6-.22 1-.4 2.15-.93 3.73-1.5 4.74-1.67.6-.1.87-.47.73-1.07-.07-.23-.2-.36-.42-.38-.12 0-.32.02-.6.1-.6.2-.98.34-1.15.42-.4.2-.96.43-1.7.68-.8.26-1.38.47-1.72.64-.53.26-.9.33-1.1.24-.18-.08-.38-.4-.6-.96 0-.02-.02-.1-.06-.2-.02-.1-.05-.18-.08-.24-.15-.27-.18-.5-.1-.67.06-.16.26-.32.58-.46 1.8-.83 3.26-1.44 4.36-1.82.44-.14.76-.32.95-.55.18-.23.2-.43.06-.62-.2-.25-.45-.33-.73-.24-.1.05-.22.1-.36.18-.17.1-.3.17-.36.2-1.73.76-3 1.3-3.8 1.6-.57.23-.94.3-1.1.22-.17-.08-.33-.4-.48-1-.07-.2-.15-.58-.26-1.1-.1-.48-.2-.85-.27-1.1-.1-.38-.1-.66.03-.88.1-.2.36-.38.72-.5l3.6-1.4c1.46-.55 2.72-1 3.77-1.3zM183.05 82.78c.5 0 1.28-.06 2.3-.14 1.03-.07 1.8-.12 2.3-.15 1.75-.07 3.24.1 4.5.47.28.1.5.14.6.14.2 0 .37-.1.5-.35.04-.05.1-.13.17-.26.08-.12.14-.2.17-.27.1-.2.1-.42-.02-.6-.18-.27-.55-.4-1.13-.4-.3.02-1.66 0-4.1-.05-1.66-.03-3 .02-4.1.14-.7.1-1.2 0-1.46-.3-.06-.2 0-.4.1-.57.04-.05.1-.1.18-.2.1-.1.17-.16.2-.2 2.18-2.55 3.24-3.8 3.18-3.7.5-.7.65-1.27.42-1.74-.23-.46-.78-.73-1.63-.83-1.78-.2-4 0-6.68.52-1.1.22-2.12.62-3.05 1.18-.2.1-.35.23-.42.32-.12.16-.13.32-.05.5.17.4.48.45.9.14.5-.34 1.43-.66 2.75-.95 1.9-.4 2.9-.63 3-.66 1.17-.17 2.2-.2 3.1-.04.44.08.7.2.8.4.1.17.03.45-.2.8-.28.4-1.5 1.72-3.7 3.95-.67-.94-1.16-2.12-1.5-3.56-.07-.33-.23-.48-.46-.45-.2.02-.36.2-.46.5-.1.3-.08.65.06 1.07.4 1.12.63 1.73.7 1.85.2.35.3.8.28 1.3-.04.85-.06 1.26-.06 1.25 0 .23.27.55.8.96.5.4.74.82.74 1.23 0 .22.12.56.35 1.03.18.38.4.54.68.5.3 0 .54-.25.7-.7.1-.28.05-.62-.12-1-.22-.5-.34-.9-.35-1.15zM195.27 75.58c.27 0 .53.14.78.4l4.22 4.8c.3.35.45.53.44.5.2.18.43.2.65.1.22-.1.37-.3.44-.56.03-.15.05-.4.06-.75 0-.1-.05-.36-.1-.73-.1-.52-.3-1.28-.53-2.28-.24-1.02-.4-1.77-.5-2.27-.34-1.8-.4-3.33-.2-4.67.03-.16-.02-.32-.14-.46-.13-.13-.28-.2-.5-.24-.36-.03-.6.16-.7.6-.04.17-.04.36 0 .58.12.85.3 2.1.57 3.77.25 1.66.44 2.9.56 3.73l.06.24c0 .1.02.2.02.25 0 .18-.1.34-.32.46-2.1-2.32-3.75-4.4-4.96-6.25-.05-.05-.13-.18-.23-.38-.08-.16-.16-.28-.2-.38-.17-.2-.4-.25-.7-.13-.2.1-.3.25-.3.47 0 .2 0 .4.06.6l.8 4.45c.25 1.7.32 3.2.23 4.52-.03.4.13.6.48.58.17 0 .3-.03.42-.14.1-.1.16-.23.17-.4.04-.53.03-1.02-.02-1.48-.05-.4-.23-2.04-.58-4.92zM212.1 67.87c.07-.04.27-.07.57-.08.32-.02.56-.05.72-.1.24-.1.4-.25.5-.47.08-.2.07-.42 0-.66-.12-.3-.42-.36-.92-.18-.3.1-1.58.56-3.82 1.33-1.55.54-2.8 1.03-3.78 1.45-.8.34-1.42.5-1.9.5-.6 0-.94.07-1.04.2-.1.13-.06.45.1.95.45 1.3.73 2.17.85 2.6.25.97.37 1.88.34 2.7 0 .32.14.57.43.75.2.1.35.4.5.9.03.16.12.46.27.88.1.37.2.67.26.88.18.68.6.9 1.27.65.27-.1.6-.23.98-.4 2.16-.94 3.74-1.5 4.75-1.7.62-.1.87-.45.73-1.05-.06-.24-.2-.37-.4-.4-.13 0-.33.04-.6.13-.6.2-1 .33-1.15.4-.4.22-.96.44-1.7.7-.8.25-1.4.46-1.73.63-.53.27-.9.34-1.1.25-.18-.08-.38-.4-.6-.96 0-.04-.03-.1-.07-.23-.02-.08-.05-.16-.08-.22-.15-.27-.18-.5-.1-.68.06-.16.26-.32.58-.46 1.8-.82 3.26-1.43 4.37-1.8.43-.16.75-.33.94-.56.18-.23.2-.43.05-.62-.2-.25-.46-.33-.73-.25-.1.05-.22.1-.37.18-.18.1-.3.17-.36.2-1.75.75-3.02 1.3-3.82 1.6-.57.23-.94.3-1.1.22-.17-.08-.32-.4-.48-1-.06-.2-.15-.58-.26-1.1-.1-.5-.2-.86-.27-1.1-.1-.38-.1-.67.03-.88.1-.22.36-.4.72-.52l3.6-1.38c1.46-.57 2.72-1 3.77-1.33zM224.23 65.16c1.22-.28 1.88-.43 2-.47.37-.1.6-.2.75-.3.24-.15.33-.37.26-.68-.1-.3-.27-.47-.56-.47-.17 0-.42.07-.75.2-.3.13-1.5.44-3.65.92-.72.16-2.77.68-6.1 1.54-.27.1-.45.2-.55.34-.15.18-.16.36-.08.58.13.34.45.43.96.28.14-.04.76-.22 1.83-.56.7-.22 1.17-.3 1.4-.2.23.08.5.45.8 1.1 1.25 2.67 1.98 5.22 2.2 7.67.03.4.07.64.1.77.1.3.28.45.6.43.2 0 .36-.12.47-.34.2-.4.22-.9.06-1.52-.15-.47-.32-1.12-.53-1.94l-.52-1.92c-.4-1.52-.85-2.8-1.3-3.78-.32-.7-.1-1.1.62-1.25l2-.46v.06zM155.4 114.03c1.33-.13 2.02-.2 2.1-.23.38-.1.65-.37.83-.8.18-.4.2-.78.02-1.12-.3-.55-.66-.7-1.15-.4-.8.5-1.98.93-3.5 1.27-1.82.42-3.03.74-3.6.97-1.1.46-1.82.15-2.17-.96-.03-.1-.2-.53-.52-1.3-2.7-6.73-4.13-10.27-4.26-10.64-.16-.4-.33-.67-.48-.82-.23-.23-.52-.26-.85-.1-.53.24-.6.78-.24 1.6 2.2 4.85 4.03 9.33 5.44 13.42.28.78.56 1.23.9 1.37.3.1.9 0 1.73-.37 2-.8 3.92-1.45 5.78-1.9zM159.4 106.6c.18.56.38 1.44.6 2.66.28 1.74.47 2.82.56 3.22.13.64.44.93.92.85.47-.07.76-.4.88-1 .05-.28-.04-.66-.27-1.16-.46-.96-.9-2.53-1.3-4.68-.2-1-.84-3.84-1.96-8.58 0-.04-.15-.34-.4-.9-.24-.53-.55-.75-.9-.66-.37.12-.6.43-.7.93-.07.24 0 .63.22 1.16.68 1.68 1.46 4.4 2.34 8.13zM169.75 107.8c-.5 0-.9-.12-1.16-.35-.08-.07-.26-.3-.56-.7-.5-.68-1.68-2.28-3.55-4.8-.54-.7-1.1-.8-1.72-.32-.32.26-.48.53-.45.84.02.3.17.6.47.87.83.82 1.83 1.98 3 3.48 1.46 1.9 2.42 3.1 2.87 3.6.02.05.12.17.28.4.12.15.23.28.33.35.27.24.6.27.96.12.53-.24.87-.77 1.02-1.63 0-.12.04-.28.03-.48 0-.28 0-.45 0-.52.4-5.2 1.2-9.94 2.35-14.18.13-.47.16-.85.07-1.12-.12-.3-.4-.5-.86-.58-.82-.08-1.23.4-1.23 1.43-.03 1.52-.35 3.77-.95 6.74s-.93 5.25-.93 6.82zM187.45 103.23c.75 0 1.87-.08 3.38-.2 1.48-.12 2.6-.18 3.34-.22 2.55-.07 4.73.16 6.55.72.42.14.72.2.88.18.3 0 .56-.17.74-.5.04-.08.12-.2.24-.4.12-.15.2-.28.25-.38.16-.3.15-.6 0-.88-.26-.38-.8-.57-1.66-.56-.45 0-2.44 0-5.98-.08-2.4-.04-4.4.02-5.97.2-1.04.13-1.76 0-2.15-.4-.07-.3 0-.6.17-.85.05-.08.14-.18.26-.3.16-.16.24-.26.27-.3 3.2-3.7 4.75-5.5 4.66-5.4.74-1 .94-1.85.6-2.54-.33-.67-1.12-1.08-2.37-1.2-2.6-.28-5.83-.02-9.72.76-1.63.33-3.1.9-4.46 1.72-.3.18-.5.33-.62.47-.17.23-.2.48-.08.75.26.56.7.62 1.34.18.73-.5 2.06-.96 4-1.38l4.38-.94c1.7-.26 3.18-.3 4.5-.06.65.1 1.05.3 1.2.55.12.27 0 .67-.34 1.2-.4.6-2.17 2.52-5.37 5.76-.98-1.36-1.7-3.1-2.2-5.2-.1-.45-.33-.67-.68-.64-.3.05-.5.3-.66.74-.15.43-.12.95.1 1.56.58 1.62.9 2.52 1.03 2.7.3.5.42 1.14.4 1.88-.08 1.24-.1 1.86-.1 1.85 0 .33.4.8 1.15 1.37.73.6 1.1 1.2 1.1 1.8 0 .3.15.8.5 1.5.26.53.58.78 1 .74.43-.02.77-.38 1.02-1.05.13-.4.06-.88-.2-1.47-.33-.73-.5-1.27-.52-1.65zM215.92 84.7c.13-.08.4-.13.83-.14.47 0 .83-.06 1.06-.14.37-.13.62-.35.75-.68.12-.3.13-.6 0-.94-.17-.44-.62-.52-1.34-.26-.43.17-2.28.8-5.56 1.94-2.26.8-4.1 1.5-5.5 2.1-1.15.5-2.07.76-2.78.75-.87 0-1.38.1-1.52.28-.15.2-.1.66.16 1.4.65 1.9 1.06 3.16 1.22 3.78.38 1.43.56 2.75.52 3.94 0 .48.2.85.62 1.1.27.17.5.6.72 1.33.06.23.2.66.4 1.27.17.54.3.97.4 1.28.26 1 .87 1.3 1.84.96.4-.14.88-.34 1.44-.58 3.14-1.37 5.44-2.2 6.9-2.46.92-.16 1.28-.66 1.08-1.54-.08-.35-.28-.53-.6-.56-.2 0-.47.04-.87.16-.87.28-1.43.48-1.68.6-.58.3-1.4.62-2.5 1-1.16.37-2 .68-2.5.92-.77.37-1.3.48-1.6.35-.28-.13-.57-.6-.87-1.4 0-.03-.04-.14-.1-.32-.04-.13-.1-.23-.13-.32-.2-.4-.26-.72-.15-.97.1-.24.4-.47.85-.68 2.64-1.23 4.76-2.1 6.38-2.66.63-.2 1.08-.48 1.37-.8.26-.33.3-.64.08-.9-.3-.38-.66-.5-1.07-.36-.13.05-.3.13-.53.24-.27.16-.45.26-.54.3-2.52 1.1-4.37 1.88-5.54 2.34-.83.33-1.37.43-1.62.3-.23-.1-.47-.6-.7-1.44-.1-.32-.2-.85-.36-1.6-.16-.7-.3-1.25-.4-1.63-.17-.53-.15-.96.04-1.28.17-.3.5-.54 1.05-.73l5.25-2.02c2.13-.8 3.97-1.46 5.5-1.93zM224.1 89.07c-.13-.36-.54-1.6-1.27-3.72-.5-1.5-.94-2.77-1.26-3.76-.08-.26-.18-.43-.3-.53-.13-.1-.33-.14-.58-.08-.5.13-.68.44-.54.94.04.17.13.47.3.88.12.4.2.7.26.9.06.28.45 1.47 1.17 3.57.46 1.43.7 2.66.7 3.68 0 .2.05.4.2.56.16.17.35.27.58.3.26.02.48-.06.66-.25.1-.14.23-.36.35-.67.1-.24.08-.55-.03-.92-.17-.5-.27-.8-.28-.93zm.5 6.77c-.68.32-.93.8-.78 1.46.06.3.2.5.38.6.2.14.44.17.72.1.75-.22 1.04-.68.9-1.43-.1-.44-.5-.68-1.22-.73zM224.9 83c.1.13.2.36.27.67.07.4.14.67.2.78.1.28.23.46.34.57.17.14.38.2.63.1.28-.07.46-.22.56-.47.08-.22.07-.45-.04-.7-.12-.2-.48-1.18-1.12-2.93-.06-.2-.2-.3-.37-.37-.17-.06-.37-.03-.55.04-.16.05-.28.16-.34.3-.06.14-.07.3-.03.45.02.08.16.6.44 1.54zm4.8-.25c-.3-.96-.45-1.47-.47-1.56-.08-.18-.2-.3-.4-.36-.17-.03-.35-.03-.55.02-.16.06-.27.15-.33.3-.1.13-.1.28-.06.44.06.32.22.84.46 1.58.02.1.07.28.1.54.05.25.08.44.13.54.05.18.14.3.26.4.15.07.34.07.6 0 .24-.06.4-.17.48-.33.06-.12.07-.27.05-.47-.04-.1-.08-.3-.17-.57-.07-.25-.13-.43-.13-.55z"/></g><path d="M181.28 134.38l20.6 12.62-2.1-25.25-18.5 12.63z"/><path fill="#bbb" d="M73.73 217.53h-.1c-3.14-5.1-6.93-7.66-11.4-7.66h-.1c-1.24 0-1.94 1.6-2.13 4.77 0 1.35.9 3.23 2.68 5.64 3.1 3.16 4.92 4.9 5.47 5.2l5.47 5.35c.87 1.45 1.42 2.17 1.67 2.17.3 0 .55-.24.77-.72v-.3l-.22-.86.1-.14c.58-1.28 2.3-3.78 5.14-7.52 2.28-3.7 3.58-6.75 3.9-9.1l-.22-2.18c-.56-2.12-1.45-3.18-2.68-3.18h-.56c-3.65 0-6.25 2.84-7.8 8.53zm.78 3.18c1.36-6.35 3.63-9.53 6.82-9.53h.78c.82 0 1.23 1 1.23 3.04v.15c0 1-1 3.42-3.02 7.23-2.28 3-4.1 5.6-5.46 7.8h-.1l-7.5-7.22c-3.37-2.87-5.23-5.32-5.57-7.38 0-1.44.15-2.36.45-2.74 3.72 0 6.8 1.73 9.26 5.2 1 2.03 1.8 3.33 2.46 3.9l.67-.43z"/><path fill="#999" d="M335.64 136.22l16.95-24.44-7.4-4.98-15.84 25.58 6.28 3.84zm-11.84 11.56c2.6 1.5 5.57.43 7.33-2.3 1.86-2.9 1.28-5.85-1.13-7.3-2.26-1.37-5.5-.7-7.43 2.2-1.84 2.76-1.27 5.94 1.23 7.4z"/><path fill="#1c1c1c" d="M150 163.36c0-6.9 1.47-8.36 8.36-8.36h197.28c6.9 0 8.36 1.47 8.36 8.36V309H150V163.36z"/><path fill="#fff" d="M158.5 165h197v134h-197V165z"/><path fill="#9f9f9f" d="M150 308l-40 14h296l-41-13-215-1z"/><path fill="#1c1c1c" d="M169 310l-10 5h195l-10-5H169z"/><path fill="#c9c9c9" d="M109 322h296v9s2.33 5-13 5-269 0-269 0-12.76 2.93-14-7c-.33-2.67 0-7 0-7z"/><path fill="#c7c7c7" d="M227 316l-7 4h73l-6-4h-60z"/><path fill="#858585" d="M278 324.5c0 1.38-1.12 2.5-2.5 2.5h-37c-1.38 0-2.5-1.12-2.5-2.5h42z"/><path fill="#737373" d="M373 330h11v1h-11z"/><path fill="#fff" d="M257.97 165.02h98l-.08 134.1h-98l.07-134.1z" opacity=".502"/><path fill="#e9b989" d="M220 167l-19 25s1.75 35.5 2 36 29.7 44.3 56.43 43.36c29.3-1.03 49.07-23.1 53.57-51.36 4.5-28.25.25-48.25 0-49s-93-4-93-4z"/><path fill="#402000" stroke="#ffffff00" d="M218 202c-.05-.04.1-.2.37-.42 1.74-1.4 9.63-5.44 13.38-5.33 4.38.13 10 3.75 12.25 1.75s-2.75-4.8-6-5c-16.38-1-19.63 9.25-20 9zM302.55 202c.06-.04-.08-.2-.37-.42-1.74-1.4-9.63-5.44-13.38-5.33-4.37.13-10 3.75-12.25 1.75s2.75-4.8 6-5c16.38-1 19.63 9.25 20 9zM215 178c.88-.1 36.87 14.14 57 12 20.13-2.14 36-6 36-6s.12 15 0 22 0 7 0 7l1 10 6-4s7.1-26.5 8-36c.9-9.5-4.28-18.82-5-19-.72-.18 5 2 5 2s-6.02-11.66-10-15c-3.98-3.34-4-5-4-5s2.5-.12 5 2 3 3 3 3-2.43-8.07-10-13-14.88-6.78-15-7c-.12-.22 1.46-2.2 5-1 3.54 1.2 3 1 3 1s-4.43-6.36-19-8c-14.57-1.64-22.48-.14-24 0-1.52.14-2.06-1.12-2-1 .06.12.33-2.9 1-3 .67-.1-14.76 2.07-23 9s-14.08 10.1-14 10c.07-.1-12.14 10.8-15.62 19.52-3.48 8.73-.38.48-.38.48s-6.13 10.25-6.5 18.5c-.37 8.25-.18 22.94.25 25.75 1.56 10.2 4.1 15.84 4.72 18.1.64 2.28 2.15-13.38 3.03-13.83.88-.44 7.46-5.3 7.5-5.52.04-.22 1.28-8.6 1-12-.28-3.4 1.12-10.9 2-11z"/><path fill="#e9b989" stroke="#ffffff00" d="M253 268h14v8h-14z"/><path fill="#f8c19a" stroke="#ffffff00" d="M204.84 228c-.34-.16-1-6-1-6s1.2 1.3 0 0c-1.18-1.3-2.5-3.2-5-2-2.5 1.2-3.5 4.44-2 7 1.5 2.56 6.25 5.16 8 5 1.75-.16.35-3.84 0-4z"/><path fill="#370201" stroke="#ffffff00" d="M236 241s12.9 2.87 23 3c10.1.13 26-2 26-2s-7.7 10.7-11 13c-3.3 2.3-12 4-12 4l-13-1s-6.3-4.06-9-8c-2.7-3.94-4-9-4-9z"/><path fill="#c6c6c6" stroke="#ffffff00" d="M244 270c-.08.5-30.2 2.32-34 2-3.8-.32-10.66-5.23-11-5-.34.23-2-1-2-1l-3 8s3.85 1.66 5 2c1.15.34 6.94 2.23 6.94 2.23 7.02 2.25 18.68.22 25.06-.23 6.38-.45 8.35-2.24 9-2 .65.24-2 20-2 20l-1 3h42l-2.12-23.45L302 271c9.03-1.5 28-7 28-7l-8-11s-9.75 5.65-22 10c-8.56 3.04-23.6 6.53-23.6 6.53s-2.52.44-4.4-.53c-2.22-1.15-10.15 3.2-13 4.2l-15-3.2z"/><path d="M235.86 219.38c0-4.34 1.76-7.85 3.93-7.85 2.16 0 3.93 3.5 3.93 7.85 0 4.34-1.77 7.85-3.94 7.85-2.18 0-3.94-3.5-3.94-7.85z"/><path d="M274.2 219.38c0-4.34 1.78-7.85 3.95-7.85s3.93 3.5 3.93 7.85c0 4.34-1.76 7.85-3.93 7.85s-3.94-3.5-3.94-7.85z"/><g opacity=".6"><path fill="#e0f3f7" d="M298.82 204.74s7.97 1.4 8.07 7.6c.1 6.2-2.1 15.4-2.1 15.4s.5-1 0 .3-2.3 5-7.08 5.7c-4.78.7-15.74 1.5-20.03-.7-4.3-2.2-8.88-10.2-8.98-18.1-.1-7.9 4-9.4 12.86-10.6 8.87-1.2 14.25 0 17.24.4z"/><path fill="#f1fbfc" d="M293.52 205c-2.12-.2-4.7-.3-7.82-.1l-10.66 27.05c.86.9 1.76 1.6 2.65 2.06.26.15.56.28.88.4l14.94-29.4z"/></g><path fill="#171518" d="M315.9 202.15c-3.63-1.13-33.5-2.26-41.33-.53-7.84 1.73-11 4.4-15.1 4.4-4.13 0-8.6-4-17.1-4.53-8.5-.55-25.98-1.4-39.13.32 0 0-1.93.2-1.8 2.6.13 2.4.8 5.87.8 5.87s0 1.18 1.33 1.32c1.33.13 1.86.4 2.66 1.6.8 1.2 1.08 22.16 10.46 24.2 7.23 1.56 26.07 2.72 30.98-2.74 4.92-5.47 6.78-12.4 7.7-14.93.94-2.53-.43-6.13 4.1-5.73 4.5.4 3.26 3.2 3.93 5.73.67 2.53 4.26 12.13 7.84 14.66 3.6 2.54 7.7 5.08 18.6 4.54 10.9-.53 16.35-1.86 18.34-7.86 2-6 4-16.26 4-16.26s.26-2.93 1.72-3.07c1.46-.13 1.73.14 2.26-.93l.53-1.07.78-5.46s.14-1.6-1.6-2.15zM241.1 234c-4.28 2.2-15.24 1.4-20.03.7-4.78-.7-6.57-4.4-7.07-5.7-.5-1.3 0-.3 0-.3s-2.2-9.2-2.1-15.38c.1-6.2 8.08-7.6 8.08-7.6 3-.4 8.37-1.6 17.24-.4 8.87 1.2 12.95 2.7 12.85 10.6-.1 7.9-4.68 15.9-8.96 18.1zm63.7-5.3s.5-1 0 .3-2.3 5-7.08 5.7c-4.78.7-15.74 1.5-20.03-.7-4.3-2.2-8.88-10.2-8.98-18.08-.1-7.9 4-9.4 12.86-10.6 8.87-1.2 14.25 0 17.24.4 0 0 7.97 1.4 8.07 7.6.1 6.2-2.1 15.4-2.1 15.4z"/><g opacity=".6"><path fill="#e0f3f7" d="M219.98 204.74s-7.97 1.4-8.07 7.6c-.1 6.2 2.1 15.4 2.1 15.4s-.5-1 0 .3 2.3 5 7.07 5.7c4.8.7 15.75 1.5 20.04-.7 4.3-2.2 8.87-10.2 8.97-18.1.1-7.9-3.98-9.4-12.85-10.6-8.87-1.2-14.25 0-17.24.4z"/><path fill="#f1fbfc" d="M237.22 204.34c-3.6-.5-6.63-.58-9.16-.5l-7.9 29.7c.3.08.6.14.9.2 2.48.35 6.58.73 10.57.72l12.17-28.84c-1.8-.55-3.98-.93-6.58-1.28zM247.1 208.17l-10.15 26.96c1.66-.22 3.1-.58 4.16-1.12 4.3-2.2 8.87-10.2 8.97-18.08.05-3.9-.92-6.24-2.98-7.75z"/></g><path fill="#13848a" d="M258.48 274.4l-1 .97 1.98 2.94 1.97-1.95-.98-1.96h-1.97zM260.32 276.48l-1.84-.13-1 8.84-.96 13.8h5.88l-.97-13.8-1.1-8.72z"/><path d="M293.27 104.73l4.2.03-1.76 15.1-2.43-15.13zM308.92 105.32l3.44 2.1L304 121.6l4.92-16.28zM323.3 115.04l1.04 3.92-15.2 7.16 14.15-11.08z" opacity=".4"/><path fill="#f4caa4" stroke="#ffffff00" d="M183.78 242.82c-.28-.16-2.7-1.2-5.72-.64-3 .56-8.85 4.8-10.16 7-1.3 2.18-2.46 6.67-1.9 8.9.55 2.22 2.06 6.4 1.9 6.36-.16-.04 10.8 0 10.8 0l.63-8.27 1.05 1.57.22.34s2.07.24 1.9 0c-.15-.24 1 .08 1.28-2.54.28-2.63.64-4.46.64-4.46l1.9-5.72s-2.26-2.38-2.54-2.54z"/><path fill="#e0dbd7" stroke="#ffffff00" d="M181.13 193.36l14.76 26.22 13.35 5.67 6.33 2.83s5.15 3.07 2.8 10.63c-2.33 7.57-6.9 10.52-9.13 9.93-2.23-.6-9.14-2.6-9.14-2.83 0-.24-12.06-3.78-12.64-3.55-.6.24-24.6 9.2-24.6 9.2l18.27-58.1z"/><path fill="#e65051" stroke="#ffffff00" d="M208.55 225.95c-.1 1.42-.18 10.37-3.52 14.9-3.34 4.5-3.34 5.3-4.22 5.65-.86.36-2.8.7-2.8.7l-4.22 7.8s-5.7 12.26-5.8 12c-.08-.27-4.7-.28-4.7-.28l-4.26 6.7 10.55-27.62v-2.13l2.1-2.83 3.52-4.26s2.28-3.72 2.1-3.54c-.18.18.7-4.96.7-4.96v-6.38l-.7-2.12s11.34 4.96 11.25 6.37z"/><path fill="#c9c7c8" stroke="#ffffff00" d="M207.38 239.77l8.2 1.06s-.24 4.73-4.22 4.97c-3.98.23-8.44 0-8.44 0l4.46-6.03z"/><path fill="none" stroke="#ffffff00" d="M162.85 185.56"/><path fill="#c9c7c8" stroke="#ffffff00" d="M178.32 233.04l14.76 3.54-2.8 3.55s-3.76.94-3.53.7c.24-.23-16.87 6.38-16.87 6.38l8.44-14.16z"/><path fill="#e72c2c" stroke="#ffffff00" d="M200.65 235.62c-.55.46-1.27 1.24-.74 1.9.44.5 1.38.2 2.14-.48.74-.66.52-1.5.18-1.74s-1-.16-1.57.32zM198.54 240.58c-.55.46-1.27 1.24-.74 1.9.43.5 1.38.2 2.13-.47.74-.66.52-1.5.18-1.74-.33-.24-.98-.16-1.56.32z"/><path fill="none" stroke="#ffffff00" d="M196.6 219.58"/><path fill="#e72c2c" stroke="#ffffff00" d="M190.27 242.96c-.1.27 1.76 1.24 2.1 1.42.36.18-4.9 8.5-4.9 8.5l-3.34 12.68s-4.48-2.48-4.22-2.84c.28-.35 4.04-9.84 4.04-9.84l2.8-6.38s.98-4.42.72-4.25c-.27.18 2.02-.97 2.1-.7.1.26 5.4-4.08 6.33-6.38.92-2.3 2.54-9.8 2.1-12.05-.44-2.26-2.1-3.54-2.1-3.54h.7s2.5 1.9 2.1 6.37c-.4 4.48-1.05 7.28-2.32 9.93-1.37 2.83-6.02 6.82-6.1 7.08z"/><path fill="#e72727" stroke="#ffffff00" d="M163.56 177.77c24.2 5.38 22.05 30.78 20.26 39.64-2.32 11.5-6 19.17-10.42 25.14-6.5 8.8-11.33 12.05-18.28 11.05-6.95-1-19.15-8.5-17.58-36.15 1.58-27.64 19.7-40.74 26.02-39.68z"/><path fill="#e65051" stroke="#ffffff00" d="M162.15 177.06c25.6 11.03 19.97 33.87 19.25 39.88-1.22 10.2-5.32 18.36-9.4 23.9-6.5 8.8-11.34 13.04-18.3 12.04-6.93-1-19.13-8.5-17.56-36.14 1.57-27.63 19.7-40.74 26-39.68z"/><path fill="#c8c8c8" stroke="#ffffff00" d="M161.45 184.85s-8.44-1.08-13.36 7.1c-4.93 8.16-8.5 17.2-8.45 27.63.04 10.42 2.32 20.84 6.33 23.38 4 2.54 4.67 2.7 8.44 2.13 3.76-.6 6.3-2.07 9.62-4.86 3.3-2.8-2.6-55.4-2.6-55.4z"/><path fill="#9d9d9d" d="M162.52 184.85c-2.48.75-8.27 8.3-10.2 15.6-1.96 7.3-4.23 15.46-3.53 21.25.7 5.8 2.56 15.05 4.9 18.43 2.37 3.37 3.53 4.25 3.53 4.25s11.83-5.63 14.76-17c2.93-11.4 3.83-22.43 1.8-29.4-2.6-9-9.3-12.5-11.28-13.13z"/><path fill="#e0dbd7" d="M174.8 211.78l-13.35-4.25s-3-.7-5.63 0-3.7 4.78-4.22 7.1c-.52 2.3-.17 7.25 2.82 9.2 2.98 1.95 14.06 8.5 14.06 8.5s3.16-5.3 4.2-9.2c1.07-3.9 2.12-11.35 2.12-11.35z"/><path fill="#c8c8c8" d="M165.66 208.95s3.65 4.1 4.22 7.08c.58 2.98.87 8.75-.7 11.34-1.57 2.6-1.75 4.56-2.1 4.25-.37-.3 1.4.7 1.4.7s3.8-5.98 4.92-9.9c1.1-3.94 1.48-11 1.4-10.64-.07.35-9.14-2.83-9.14-2.83z"/><path fill="#c8c8c8" stroke="#ffffff00" d="M157.27 208.2c-1.8-.14-3.95 2.93-4.26 6.42-.3 3.48-.23 7.1 1.57 7.48 2.16.46 4.5-2.74 4.77-7.48.25-4.75-.58-5.93-2.07-6.4z"/><path fill="none" stroke="#ffffff00" d="M181.24 263.8"/><path fill="#e9b989" stroke="#ffffff00" d="M195.2 251.08s.6 5.4 0 7c-.57 1.6-2.9 8.07-3.16 8.9-.26.83-1.72 4.52-3.18 5.1-1.46.55-1.27.62-1.27.62h5.07s1.55-2.04 3.18-5.72c1.63-3.67 2.5-10.84 2.54-11.44.03-.6-3.2-5.1-3.2-5.1v.64z"/><path fill="#fad3b2" stroke="#ffffff00" d="M178.06 251.08l2.54-.63s2.27 1.75 2.55 1.9c.27.17 1.98 3.5.63 5.1-.97 1.13-1.85 1.62-2.27 1.8-.16.08-.26.1-.26.1s-5.36-1.63-5.72-1.9c-.36-.28 2.54-6.37 2.54-6.37z"/><path fill="#f4caa4" stroke="#ffffff00" d="M180.06 243.08l2.54-.63s2.27 1.75 2.55 1.9c.27.17 1.98 3.5.63 5.1-.97 1.13-1.85 1.62-2.27 1.8-.16.08-.26.1-.26.1s-5.36-1.63-5.72-1.9c-.36-.28 2.54-6.37 2.54-6.37z"/><path fill="#f7d3b2" stroke="#ffffff00" d="M173.62 264.44s2.13 1.07 3.8.63c1.28-.33 1.38 2.75 2.32 1.85.3-.3 1.98-3.96 2.13-4.4.65-1.82 2.08-3.33-1.27-5.08-3.34-1.75-6.9-1.8-8.9-.63-1.98 1.18-4.67 2.1-4.44 5.73.24 3.63 2.96 6.55 4.45 7.63 1.5 1.08 7.06 4.14 10.8 3.82 3.76-.33 5.48-.45 7.63-3.18 2.15-2.74 4.85-9.76 5.08-12.72.25-2.96.54-6.4 0-7-.5-.6-1.26-1.27-1.26-1.27s.33 3.42-.63 4.46c-.95 1.05-2.2 3.84-3.4 3.42-1.2-.42.1.56.1.4.02-.16-.42 4.45-.42 4.45s-.33 5.3-.58 5.5c0 0-7.97-1.2-7.57-1.1.4.06-5.68-1.16-5.9-1.22-.23-.05-1.9-1.26-1.9-1.26z"/><path fill="#fbcaa9" stroke="#ffffff00" d="M173.62 265.07s2.64.44 4.44 0c1.8-.43 3.18-1.27 3.18-1.27h1.9s-.33.7-1.27 1.27c-.93.58-3.08 1.52-5.08 1.28-2-.25-3.18-.64-3.18-.64v-.63z"/><path fill="#e9b989" stroke="#ffffff00" d="M195.2 257.44c-1.45 1.37-2.47 2.32-4.43 1.27-1.96-1.03-2.8-2.13-3.18-3.8-.38-1.67-.2-4.3 0-5.72.2-1.4 1.7-4.58 4.44-4.45 2.73.12 4.2 3.25 4.45 4.45.23 1.2.18 6.9-1.3 8.26z"/><path fill="#f7d3b2" stroke="#ffffff00" d="M193.3 255.54c-1.45 1.36-2.48 2.32-4.44 1.27-1.96-1.04-2.8-2.13-3.17-3.8-.38-1.68-.22-4.32 0-5.73.2-1.4 1.7-4.58 4.43-4.45 2.73.12 4.2 3.26 4.45 4.45.25 1.2.2 6.9-1.27 8.27z"/><path fill="#fff" stroke="#ffffff00" d="M196 265l3 3s-1.92 6.95-4 7c-2.08.05-5-2-5-2s3.1-.3 4-2c.9-1.7 1-2 1-2l1-4z"/><path fill="#d6dfe0" d="M253 270l6 3-5 3-8-6h7z"/><path fill="#e9b989" stroke="#ffffff00" d="M174.9 245.36s2.25-1.3 4.43-1.27c2.2.03 5.63 1.37 5.63 1.37s-.16-1.4 0-1.27c.16.12-3.48-.67-5.63-.75-2.14-.07-4.44 1.9-4.44 1.9zM172.35 250.45c-.2 0 2.78-1.55 4.44-1.27 1.66.28 5.03 2.14 5.7 3.18.68 1.03 1.36 1.5 1.28 1.27-.08-.24-1.5-3.3-3.8-4.45-2.3-1.16-3.86-.92-5.1-.64-1.22.28-2.34 1.9-2.53 1.9z"/><path fill="#fff" stroke="#ffffff00" d="M323 254c-.3-.3 1.76-2 2.62-2.7.23-.2.38-.3.38-.3l8 11-4 2s.06-.38 0 0-6.63-9.63-7-10z"/><g stroke="#ffffff00"><path fill="#f7d3b2" d="M346.33 252.34s-1.4 1.3-2.82 1.34c-1.05.03-2.3.18-3.25-.32-.3-.15-.56-.37-.78-.67-.92-1.3-2.38-2.14-.18-4.25 2.2-2.1 4.95-2.93 6.76-2.47 1.82.47 4.13.6 4.78 3.47.65 2.87-.8 5.75-1.7 6.92-.93 1.17-4.54 4.8-7.53 5.36-3 .58-4.35.87-6.65-.78-2.3-1.65-6.02-6.5-6.88-8.76-.87-2.26-1.88-4.87-1.6-5.45.26-.58 7.54-7.03 7.54-7.03s6.55 13.67 6.26 13.82c-.3.15 4.72.3 4.88.2.16-.08 1.2-1.4 1.2-1.4z"/><path fill="#f4caa4" d="M333.46 237.78c.18-.18 1.82-1.52 4.3-1.76 2.47-.24 8 1.77 9.5 3.18 1.54 1.4 3.46 4.65 3.54 6.5.08 1.86-.13 5.44-.02 5.37.12-.06-8.4 2.4-8.4 2.4l-2.4-6.3-.45 1.46-.1.32s-1.55.64-1.48.42c.07-.22-.75.28-1.57-1.7-.82-1.97-1.52-3.32-1.52-3.32l-2.8-4.03s1.22-2.35 1.4-2.54z"/><path fill="none" d="M340.26 253.54"/><path fill="#e9b989" d="M326.46 246.75s.78 4.32 1.6 5.44c.83 1.1 4.13 5.62 4.53 6.2.38.6 2.36 3.14 3.63 3.26 1.26.1 1.13.2 1.13.2L333.4 263s-1.66-1.25-3.78-3.75c-2.1-2.5-4.43-7.87-4.6-8.33-.18-.47 1.3-4.67 1.3-4.67l.14.5z"/><path fill="#fad3b2" d="M339.8 242.94l-2.12.07s-1.36 1.87-1.54 2.06c-.18.2-.74 3.16.68 4.1 1 .67 1.8.85 2.18.9.15.02.23.02.23.02s3.8-2.46 4-2.76c.23-.3-3.42-4.38-3.42-4.38z"/><path fill="#f7d3b2" d="M345.35 252.62s-1.42 1.3-2.82 1.34c-1.07.03-2.33.18-3.27-.3-.3-.17-.56-.38-.78-.7-.92-1.26-2.38-2.12-.18-4.23 2.2-2.1 4.96-2.93 6.77-2.46 1.82.46 4.13.58 4.78 3.46.65 2.88-.8 5.75-1.7 6.92-.92 1.17-4.54 4.8-7.53 5.37-3 .57-4.36.86-6.66-.8-2.3-1.63-6-6.5-6.88-8.75-.86-2.25-1.88-4.86-1.6-5.44.26-.58.7-1.27.7-1.27s.52 2.72 1.5 3.32c1 .6 2.6 2.5 3.45 1.9.84-.6.04.46 0 .34-.04-.13 1.36 3.36 1.36 3.36s.46 1.74.7 1.84c0 0 6.36-2.85 6.07-2.7-.3.15 4.72.3 4.88.22.17-.1 1.2-1.42 1.2-1.42z"/><path fill="#e9b989" d="M346.48 252.84s-1.96.92-3.46.98c-1.5.06-2.76-.28-2.76-.28l-1.5.42s.43.47 1.3.7c.86.25 2.74.5 4.24-.13 1.5-.64 2.33-1.2 2.33-1.2l-.15-.5zM338.2 246.62s-1.63 4.12-.36 6c1.28 1.87 1.37 2.83 1.37 2.83l-2.95.84s.17-.38-.38-3.12c-.56-2.73-3.28-4.7-3.1-5 .2-.32-1-7.72-.7-7.86.3-.13 2.6-.2 2.6-.2l3.54 6.5zM340.96 237.8s-2.06-.53-3.75-.02c-1.68.52-2.02 2.2-2.02 2.2s-.2-1.12-.3-1c-.1.13.53-1.15 2.18-1.7 1.65-.53 3.9.5 3.9.5zM344.1 241.18c.16-.04-2.5-.6-3.74 0-1.24.58-3.43 2.8-3.72 3.74-.3.95-.7 1.47-.7 1.27 0-.2.42-2.9 1.94-4.32 1.53-1.4 2.8-1.56 3.8-1.62 1.03-.06 2.27.96 2.43.92zM327.92 251.7c1.45.73 2.47 1.25 3.75 0 1.3-1.25 1.7-2.3 1.6-3.68-.1-1.38-.84-3.4-1.32-4.45-.48-1.05-2.38-3.17-4.48-2.47-2.1.7-2.52 3.46-2.43 4.45.08.98 1.43 5.4 2.88 6.14z"/><path fill="#f7d3b2" d="M328.97 249.8c1.45.72 2.47 1.24 3.75 0 1.28-1.26 1.7-2.3 1.6-3.68-.1-1.4-.84-3.4-1.32-4.45-.48-1.05-2.4-3.18-4.48-2.48-2.1.7-2.52 3.46-2.44 4.44.08.98 1.44 5.4 2.9 6.15z"/></g><path fill="#d5dadd" stroke="#ffffff00" d="M258 273l6 4 9-8s-5.42 1.2-6 1c-.58-.2-5 3-5 3h-4z"/><path fill="#fefffd" stroke="#ffffff00" d="M239 242c.57 0 12.13.9 21 1 8.87.1 22-1 22-1s-7.96 7.33-20 7c-12.04-.33-23.57-7-23-7z"/><path fill="#fc706c" stroke="#ffffff00" d="M248 258c-.06-.2 4.1-5.17 12-5 7.9.17 12 4 12 4s-5.55 4.1-11.68 3.74c-6.13-.36-12.26-2.53-12.32-2.74z"/><path fill="#f4caa4" stroke="#ffffff00" d="M310 228c.34-.16 1-6 1-6s-1.2 1.3 0 0 2.5-3.2 5-2c2.5 1.2 3.5 4.44 2 7-1.5 2.56-6.25 5.16-8 5-1.75-.16-.34-3.84 0-4z"/></g></svg>