<?xml version="1.0" standalone="no"?><!-- Generator: Adobe Fireworks CS6, Export SVG Extension by Aaron Beall (http://fireworks.abeall.com) . Version: 0.6.1  --><!DOCTYPE svg PUBLIC "-//W3C//DTD SVG 1.1//EN" "http://www.w3.org/Graphics/SVG/1.1/DTD/svg11.dtd"><svg id="Untitled-Page%201" viewBox="0 0 156 58" style="background-color:#ffffff00" version="1.1"	xmlns="http://www.w3.org/2000/svg" xmlns:xlink="http://www.w3.org/1999/xlink" xml:space="preserve"	x="0px" y="0px" width="156px" height="58px">	<g id="Layer%201">		<g>			<path d="M 69.2495 37.6104 L 69.2495 37.3223 L 70.0518 37.3223 L 70.0518 36.3975 C 70.0518 35.77 70.4966 35.5078 71.0371 35.5078 C 71.168 35.5078 71.2986 35.5254 71.4294 35.5518 L 71.4294 35.8394 C 71.2986 35.813 71.168 35.7954 71.0371 35.7954 C 70.6709 35.7954 70.3833 35.9263 70.3833 36.4238 L 70.3833 37.3223 L 71.3162 37.3223 L 71.3162 37.6104 L 70.3833 37.6104 L 70.3833 41.8076 L 70.0518 41.8076 L 70.0518 37.6104 L 69.2495 37.6104 Z" fill="#282828"/>			<path d="M 73.5574 37.2178 C 74.874 37.2178 75.615 38.2915 75.615 39.5649 C 75.615 40.8389 74.874 41.9121 73.5574 41.9121 C 72.2407 41.9121 71.4994 40.8389 71.4994 39.5649 C 71.4994 38.2915 72.2407 37.2178 73.5574 37.2178 ZM 73.5574 41.624 C 74.6821 41.624 75.2839 40.6382 75.2839 39.5649 C 75.2839 38.4917 74.6821 37.5063 73.5574 37.5063 C 72.4323 37.5063 71.8308 38.4917 71.8308 39.5649 C 71.8308 40.6382 72.4323 41.624 73.5574 41.624 Z" fill="#282828"/>			<path d="M 76.5916 38.3169 L 76.6178 38.3169 C 76.7925 37.7334 77.5249 37.2612 78.3357 37.2964 L 78.3357 37.6279 C 77.9868 37.5845 77.4987 37.6719 77.0977 38.0645 C 76.7662 38.4048 76.6267 38.6836 76.5916 39.3555 L 76.5916 41.8076 L 76.2605 41.8076 L 76.2605 37.3223 L 76.5916 37.3223 L 76.5916 38.3169 Z" fill="#282828"/>			<path d="M 84.3088 40.8477 L 84.2913 40.8477 C 83.925 41.5542 83.3757 41.9121 82.5734 41.9121 C 81.2219 41.9121 80.6377 40.813 80.6377 39.5742 C 80.6377 38.2471 81.283 37.2178 82.6346 37.2178 C 83.3669 37.2178 84.0557 37.6196 84.2913 38.3262 L 84.3088 38.3262 L 84.3088 35.5776 L 84.6399 35.5776 L 84.6399 41.8076 L 84.3088 41.8076 L 84.3088 40.8477 ZM 84.2998 39.5742 C 84.2998 38.5269 83.7855 37.5063 82.6346 37.5063 C 81.4486 37.5063 80.969 38.4917 80.969 39.5742 C 80.969 40.6294 81.4923 41.624 82.6433 41.624 C 83.7766 41.624 84.2998 40.603 84.2998 39.5742 Z" fill="#282828"/>			<path d="M 85.0427 39.6079 C 85.0254 40.6641 85.5835 41.624 86.6907 41.624 C 87.5367 41.624 88.1383 41.1182 88.2954 40.2891 L 88.6267 40.2891 C 88.4521 41.3359 87.7545 41.9121 86.6907 41.9121 C 85.3827 41.9121 84.6941 40.8818 84.7113 39.6436 C 84.6941 38.4136 85.3392 37.2178 86.6907 37.2178 C 88.0948 37.2178 88.7225 38.3262 88.6615 39.6079 L 85.0427 39.6079 ZM 88.3301 39.3208 C 88.3125 38.3784 87.7197 37.5063 86.6907 37.5063 C 85.6969 37.5063 85.1125 38.4302 85.0427 39.3208 L 88.3301 39.3208 Z" fill="#282828"/>			<path d="M 91.6685 41.8076 L 91.2585 41.8076 L 89.4534 37.3223 L 89.8372 37.3223 L 91.4591 41.4233 L 91.4766 41.4233 L 92.9938 37.3223 L 93.36 37.3223 L 91.6685 41.8076 Z" fill="#282828"/>			<path d="M 93.8308 39.6079 C 93.8136 40.6641 94.3717 41.624 95.4789 41.624 C 96.325 41.624 96.9264 41.1182 97.0835 40.2891 L 97.4148 40.2891 C 97.2402 41.3359 96.5427 41.9121 95.4789 41.9121 C 94.1709 41.9121 93.4822 40.8818 93.4995 39.6436 C 93.4822 38.4136 94.1274 37.2178 95.4789 37.2178 C 96.8831 37.2178 97.5107 38.3262 97.4497 39.6079 L 93.8308 39.6079 ZM 97.1183 39.3208 C 97.1007 38.3784 96.5078 37.5063 95.4789 37.5063 C 94.485 37.5063 93.9008 38.4302 93.8308 39.3208 L 97.1183 39.3208 Z" fill="#282828"/>			<path d="M 98.5049 35.5776 L 98.5049 41.8076 L 98.1735 41.8076 L 98.1735 35.5776 L 98.5049 35.5776 Z" fill="#282828"/>			<path d="M 101.278 37.2178 C 102.5946 37.2178 103.3356 38.2915 103.3356 39.5649 C 103.3356 40.8389 102.5946 41.9121 101.278 41.9121 C 99.9613 41.9121 99.22 40.8389 99.22 39.5649 C 99.22 38.2915 99.9613 37.2178 101.278 37.2178 ZM 101.278 41.624 C 102.4027 41.624 103.0045 40.6382 103.0045 39.5649 C 103.0045 38.4917 102.4027 37.5063 101.278 37.5063 C 100.1528 37.5063 99.5514 38.4917 99.5514 39.5649 C 99.5514 40.6382 100.1528 41.624 101.278 41.624 Z" fill="#282828"/>			<path d="M 104.3907 38.3521 L 104.4083 38.3521 C 104.5479 37.9067 105.0535 37.2178 106.0388 37.2178 C 107.4167 37.2178 108.0531 38.3081 108.0531 39.5742 C 108.0531 40.9351 107.4078 41.9121 106.0388 41.9121 C 105.2979 41.9121 104.6698 41.5977 104.4083 40.8735 L 104.3907 40.8735 L 104.3907 43.4131 L 104.0593 43.4131 L 104.0593 37.3223 L 104.3907 37.3223 L 104.3907 38.3521 ZM 107.7219 39.5742 C 107.7219 38.5532 107.2422 37.5063 106.0388 37.5063 C 104.8441 37.5063 104.3994 38.5098 104.3994 39.5742 C 104.3994 40.6382 104.7745 41.624 106.0388 41.624 C 107.2073 41.624 107.7219 40.6821 107.7219 39.5742 Z" fill="#282828"/>			<path d="M 108.7073 37.3223 L 109.0386 37.3223 L 109.0386 38.2388 L 109.0558 38.2388 C 109.1953 37.6719 109.7886 37.2178 110.46 37.2178 C 111.3142 37.2178 111.7156 37.7065 111.8114 38.1685 L 111.829 38.1685 C 112.0903 37.5586 112.5266 37.2178 113.2502 37.2178 C 114.0613 37.2178 114.6541 37.6895 114.6541 38.7451 L 114.6541 41.8076 L 114.3228 41.8076 L 114.3228 38.7363 C 114.3228 37.5933 113.5117 37.5063 113.2502 37.5063 C 112.4393 37.5063 111.8462 38.0815 111.8462 39.1543 L 111.8462 41.8076 L 111.5148 41.8076 L 111.5148 38.7363 C 111.5148 37.6104 110.7476 37.5063 110.46 37.5063 C 109.8234 37.5063 109.0386 38.0029 109.0386 39.1543 L 109.0386 41.8076 L 108.7073 41.8076 L 108.7073 37.3223 Z" fill="#282828"/>			<path d="M 114.9869 39.6079 C 114.9697 40.6641 115.5277 41.624 116.635 41.624 C 117.481 41.624 118.0825 41.1182 118.2396 40.2891 L 118.571 40.2891 C 118.3964 41.3359 117.6987 41.9121 116.635 41.9121 C 115.3269 41.9121 114.6383 40.8818 114.6555 39.6436 C 114.6383 38.4136 115.2836 37.2178 116.635 37.2178 C 118.0391 37.2178 118.6667 38.3262 118.6057 39.6079 L 114.9869 39.6079 ZM 118.2744 39.3208 C 118.2568 38.3784 117.6639 37.5063 116.635 37.5063 C 115.6411 37.5063 115.0569 38.4302 114.9869 39.3208 L 118.2744 39.3208 Z" fill="#282828"/>			<path d="M 119.9034 37.3223 L 120.2349 37.3223 L 120.2349 38.2827 L 120.2524 38.2827 C 120.479 37.6104 121.1594 37.2178 121.8567 37.2178 C 123.4351 37.2178 123.4526 38.4824 123.4526 39.0327 L 123.4526 41.8076 L 123.1212 41.8076 L 123.1212 38.9717 C 123.1212 38.5098 123.0688 37.5063 121.848 37.5063 C 120.8452 37.5063 120.2349 38.2827 120.2349 39.3813 L 120.2349 41.8076 L 119.9034 41.8076 L 119.9034 37.3223 Z" fill="#282828"/>			<path d="M 125.9467 37.6104 L 124.9701 37.6104 L 124.9701 40.7427 C 124.9701 41.4673 125.3102 41.5366 125.9377 41.5195 L 125.9377 41.8076 C 125.2578 41.8511 124.6036 41.7554 124.6387 40.7427 L 124.6387 37.6104 L 123.8102 37.6104 L 123.8102 37.3223 L 124.6387 37.3223 L 124.6387 35.9263 L 124.9701 35.9263 L 124.9701 37.3223 L 125.9467 37.3223 L 125.9467 37.6104 Z" fill="#282828"/>			<path d="M 129.1292 38.3521 L 129.1467 38.3521 C 129.2861 37.9067 129.7919 37.2178 130.7771 37.2178 C 132.155 37.2178 132.7914 38.3081 132.7914 39.5742 C 132.7914 40.9351 132.1462 41.9121 130.7771 41.9121 C 130.0361 41.9121 129.4082 41.5977 129.1467 40.8735 L 129.1292 40.8735 L 129.1292 43.4131 L 128.7977 43.4131 L 128.7977 37.3223 L 129.1292 37.3223 L 129.1292 38.3521 ZM 132.4603 39.5742 C 132.4603 38.5532 131.9805 37.5063 130.7771 37.5063 C 129.5825 37.5063 129.1381 38.5098 129.1381 39.5742 C 129.1381 40.6382 129.5128 41.624 130.7771 41.624 C 131.9456 41.624 132.4603 40.6821 132.4603 39.5742 Z" fill="#282828"/>			<path d="M 133.6846 35.5776 L 133.6846 41.8076 L 133.3533 41.8076 L 133.3533 35.5776 L 133.6846 35.5776 Z" fill="#282828"/>			<path d="M 137.7609 40.9785 C 137.7609 41.2402 137.7609 41.5195 138.0574 41.5195 C 138.1184 41.5195 138.1969 41.5107 138.3013 41.4932 L 138.3013 41.7725 C 138.2054 41.7896 138.1184 41.8076 138.0311 41.8076 C 137.5079 41.8076 137.4293 41.5195 137.4293 41.1533 L 137.4293 40.9175 L 137.4119 40.9175 C 137.2026 41.4492 136.6008 41.9121 135.7465 41.9121 C 134.9005 41.9121 134.2466 41.5889 134.2466 40.647 C 134.2466 39.6001 135.1536 39.3813 135.8947 39.3208 C 137.377 39.2153 137.438 39.1206 137.438 38.3872 C 137.438 38.1865 137.2112 37.5063 136.1913 37.5063 C 135.3889 37.5063 134.8571 37.9248 134.8134 38.7007 L 134.4819 38.7007 C 134.5256 37.7153 135.1361 37.2178 136.1913 37.2178 C 136.976 37.2178 137.7609 37.4624 137.7609 38.3872 L 137.7609 40.9785 ZM 137.4293 39.2593 C 137.1678 39.5562 136.4529 39.521 135.8075 39.6079 C 135.0227 39.6958 134.578 39.9746 134.578 40.647 C 134.578 41.1885 134.9705 41.624 135.7551 41.624 C 137.2637 41.624 137.4293 40.333 137.4293 40.0967 L 137.4293 39.2593 Z" fill="#282828"/>			<path d="M 140.3334 37.6104 L 139.3567 37.6104 L 139.3567 40.7427 C 139.3567 41.4673 139.6968 41.5366 140.3243 41.5195 L 140.3243 41.8076 C 139.6444 41.8511 138.9902 41.7554 139.0254 40.7427 L 139.0254 37.6104 L 138.1969 37.6104 L 138.1969 37.3223 L 139.0254 37.3223 L 139.0254 35.9263 L 139.3567 35.9263 L 139.3567 37.3223 L 140.3334 37.3223 L 140.3334 37.6104 Z" fill="#282828"/>			<path d="M 140.6398 37.6104 L 140.6398 37.3223 L 141.4421 37.3223 L 141.4421 36.3975 C 141.4421 35.77 141.8868 35.5078 142.4274 35.5078 C 142.5581 35.5078 142.6888 35.5254 142.8198 35.5518 L 142.8198 35.8394 C 142.6888 35.813 142.5581 35.7954 142.4274 35.7954 C 142.0612 35.7954 141.7736 35.9263 141.7736 36.4238 L 141.7736 37.3223 L 142.7064 37.3223 L 142.7064 37.6104 L 141.7736 37.6104 L 141.7736 41.8076 L 141.4421 41.8076 L 141.4421 37.6104 L 140.6398 37.6104 Z" fill="#282828"/>			<path d="M 144.9473 37.2178 C 146.2639 37.2178 147.0049 38.2915 147.0049 39.5649 C 147.0049 40.8389 146.2639 41.9121 144.9473 41.9121 C 143.6306 41.9121 142.8894 40.8389 142.8894 39.5649 C 142.8894 38.2915 143.6306 37.2178 144.9473 37.2178 ZM 144.9473 41.624 C 146.072 41.624 146.6738 40.6382 146.6738 39.5649 C 146.6738 38.4917 146.072 37.5063 144.9473 37.5063 C 143.8223 37.5063 143.2207 38.4917 143.2207 39.5649 C 143.2207 40.6382 143.8223 41.624 144.9473 41.624 Z" fill="#282828"/>			<path d="M 147.8226 38.3169 L 147.8485 38.3169 C 148.0236 37.7334 148.7559 37.2612 149.5664 37.2964 L 149.5664 37.6279 C 149.2178 37.5845 148.7294 37.6719 148.3284 38.0645 C 147.9969 38.4048 147.8577 38.6836 147.8226 39.3555 L 147.8226 41.8076 L 147.4912 41.8076 L 147.4912 37.3223 L 147.8226 37.3223 L 147.8226 38.3169 Z" fill="#282828"/>			<path d="M 150.0531 37.3223 L 150.3845 37.3223 L 150.3845 38.2388 L 150.4016 38.2388 C 150.5413 37.6719 151.1345 37.2178 151.8059 37.2178 C 152.6603 37.2178 153.0615 37.7065 153.1573 38.1685 L 153.1748 38.1685 C 153.4363 37.5586 153.8724 37.2178 154.5962 37.2178 C 155.4071 37.2178 156 37.6895 156 38.7451 L 156 41.8076 L 155.6686 41.8076 L 155.6686 38.7363 C 155.6686 37.5933 154.8577 37.5063 154.5962 37.5063 C 153.7853 37.5063 153.1921 38.0815 153.1921 39.1543 L 153.1921 41.8076 L 152.8607 41.8076 L 152.8607 38.7363 C 152.8607 37.6104 152.0935 37.5063 151.8059 37.5063 C 151.1693 37.5063 150.3845 38.0029 150.3845 39.1543 L 150.3845 41.8076 L 150.0531 41.8076 L 150.0531 37.3223 Z" fill="#282828"/>			<path d="M 43.314 32.8599 C 43.314 34.0068 43.1499 35.0464 42.8228 35.9785 C 42.4951 36.9106 42.0344 37.7139 41.4412 38.3896 C 40.847 39.0664 40.1362 39.5879 39.3071 39.9561 C 38.478 40.3252 37.5516 40.5098 36.5286 40.5098 C 35.5048 40.5098 34.5786 40.3252 33.7498 39.9561 C 32.9208 39.5879 32.2041 39.0664 31.6003 38.3896 C 30.9965 37.7139 30.5308 36.9106 30.2034 35.9785 C 29.8757 35.0464 29.7122 34.0068 29.7122 32.8599 C 29.7122 31.7334 29.8809 30.7046 30.2188 29.772 C 30.5566 28.8408 31.0272 28.042 31.6312 27.3755 C 32.2346 26.7109 32.9561 26.1987 33.7957 25.8398 C 34.635 25.4814 35.546 25.3027 36.5286 25.3027 C 37.531 25.3027 38.4475 25.4814 39.2764 25.8398 C 40.1055 26.1987 40.8218 26.7109 41.4258 27.3755 C 42.0291 28.042 42.4951 28.8408 42.8228 29.772 C 43.1499 30.7046 43.314 31.7334 43.314 32.8599 ZM 57.3763 39.6807 C 56.6803 39.9063 55.8306 40.0898 54.8279 40.2329 C 53.8247 40.3765 52.8422 40.4487 51.8804 40.4487 C 49.6284 40.4487 47.9243 39.7827 46.7681 38.4517 C 45.6113 37.1201 45.0332 35.2979 45.0332 32.9824 C 45.0332 30.6279 45.5193 28.7686 46.4918 27.4063 C 47.4639 26.0444 48.9021 25.3633 50.8059 25.3633 C 51.3171 25.3633 51.8188 25.4199 52.3101 25.5322 C 52.8015 25.645 53.2312 25.8042 53.5999 26.0088 L 53.5999 19.4341 L 57.3763 18.7891 L 57.3763 39.6807 ZM 63.6346 31.2095 C 63.6346 20.9902 55.3547 12.7046 45.1418 12.7046 C 34.9282 12.7046 26.6477 20.9902 26.6477 31.2095 C 26.6477 41.4287 34.9282 49.7148 45.1418 49.7148 C 55.3547 49.7148 63.6346 41.4287 63.6346 31.2095 ZM 33.5503 32.8911 C 33.5503 34.1807 33.7803 35.2256 34.2411 36.0244 C 34.7015 36.8232 35.4431 37.2227 36.4669 37.2227 C 37.4497 37.2227 38.1913 36.8232 38.693 36.0244 C 39.1943 35.2256 39.4454 34.1807 39.4454 32.8911 C 39.4454 31.6001 39.2151 30.561 38.7544 29.772 C 38.2939 28.9844 37.5516 28.5894 36.5286 28.5894 C 35.546 28.5894 34.8037 28.9844 34.3024 29.772 C 33.8007 30.561 33.5503 31.6001 33.5503 32.8911 ZM 48.8713 32.7988 C 48.8713 34.0889 49.1116 35.1436 49.5929 35.9624 C 50.0737 36.7822 50.8464 37.1919 51.9109 37.1919 C 52.2179 37.1919 52.5044 37.1816 52.7708 37.1611 C 53.0366 37.1411 53.3129 37.1104 53.5999 37.0688 L 53.5999 29.2036 C 53.3129 29.0405 52.9857 28.9014 52.6171 28.7886 C 52.2488 28.6768 51.8597 28.6201 51.4504 28.6201 C 50.5496 28.6201 49.8945 28.979 49.4854 29.6953 C 49.0758 30.4121 48.8713 31.4473 48.8713 32.7988 Z" fill="#282828"/>			<path d="M 69.0115 24.8135 C 69.0115 22.3384 69.4675 20.4702 70.3799 19.2095 C 71.292 17.9478 72.5599 17.3179 74.1833 17.3179 C 75.8685 17.3179 77.152 17.9478 78.0333 19.2095 C 78.9146 20.4702 79.3552 22.3384 79.3552 24.8135 C 79.3552 27.2886 78.9065 29.1567 78.01 30.4175 C 77.1133 31.6782 75.8452 32.3086 74.2065 32.3086 C 72.5211 32.3086 71.2339 31.6782 70.345 30.4175 C 69.4556 29.1567 69.0115 27.2886 69.0115 24.8135 ZM 71.9106 24.8135 C 71.9106 25.5093 71.9373 26.1631 71.9917 26.7744 C 72.0457 27.3853 72.1541 27.915 72.3163 28.3633 C 72.4788 28.8125 72.7067 29.168 73.0005 29.4312 C 73.2941 29.6938 73.6885 29.8262 74.1833 29.8262 C 74.6624 29.8262 75.053 29.6938 75.3546 29.4312 C 75.6561 29.168 75.8881 28.8091 76.0503 28.3521 C 76.2126 27.896 76.3206 27.3657 76.375 26.7622 C 76.429 26.1587 76.4561 25.5093 76.4561 24.8135 C 76.4561 24.1167 76.429 23.4634 76.375 22.8521 C 76.3206 22.2412 76.2126 21.7109 76.0503 21.2627 C 75.8881 20.814 75.6597 20.459 75.3662 20.1953 C 75.0724 19.9321 74.678 19.8008 74.1833 19.8008 C 73.6885 19.8008 73.2941 19.9321 73.0005 20.1953 C 72.7067 20.459 72.4788 20.8184 72.3163 21.2739 C 72.1541 21.731 72.0457 22.2607 71.9917 22.8643 C 71.9373 23.4673 71.9106 24.1167 71.9106 24.8135 Z" fill="#282828"/>			<path d="M 90.4719 26.5532 C 90.4719 27.3896 90.3789 28.1592 90.1936 28.8628 C 90.0076 29.5669 89.7371 30.1704 89.3817 30.6729 C 89.0256 31.1758 88.5771 31.5659 88.0364 31.8452 C 87.495 32.123 86.8691 32.2622 86.1577 32.2622 C 85.4309 32.2622 84.6812 32.084 83.9082 31.729 L 83.9082 35.8364 L 81.0555 35.8364 L 81.0555 21.4482 C 81.5811 21.2783 82.2272 21.1392 82.9922 21.0303 C 83.7578 20.9229 84.5112 20.8682 85.2534 20.8682 C 86.9387 20.8682 88.2297 21.3784 89.1263 22.3994 C 90.0229 23.4204 90.4719 24.8052 90.4719 26.5532 ZM 87.5725 26.6465 C 87.5725 25.6724 87.3792 24.8711 86.9929 24.2451 C 86.6061 23.6177 86.0186 23.3047 85.23 23.3047 C 85.0139 23.3047 84.7816 23.3164 84.5347 23.3398 C 84.287 23.3623 84.0781 23.3818 83.9082 23.3975 L 83.9082 29.3848 C 84.0935 29.5088 84.3412 29.6089 84.6504 29.6865 C 84.9597 29.7642 85.2688 29.8027 85.5781 29.8027 C 86.2581 29.8027 86.7607 29.5278 87.0853 28.979 C 87.4106 28.4297 87.5725 27.6528 87.5725 26.6465 Z" fill="#282828"/>			<path d="M 91.8385 26.6465 C 91.8385 25.6875 91.9851 24.8442 92.2788 24.1167 C 92.5724 23.3896 92.9592 22.7832 93.4385 22.2954 C 93.9177 21.8081 94.4666 21.4404 95.0852 21.1934 C 95.7034 20.9453 96.3376 20.8218 96.9871 20.8218 C 98.5947 20.8218 99.8165 21.2974 100.6511 22.2485 C 101.4861 23.2002 101.9038 24.5894 101.9038 26.4141 C 101.9038 26.6001 101.8997 26.7939 101.8921 26.9941 C 101.884 27.1958 101.8727 27.3584 101.8573 27.4819 L 94.7838 27.4819 C 94.7838 28.1929 95.0773 28.7544 95.6652 29.1646 C 96.2526 29.5742 97.0103 29.7788 97.9379 29.7788 C 98.5098 29.7788 99.0546 29.7178 99.5729 29.5938 C 100.0906 29.4697 100.5273 29.3462 100.8834 29.2222 L 101.2776 31.6587 C 100.7823 31.8291 100.257 31.9722 99.7004 32.0884 C 99.1439 32.2041 98.5178 32.2622 97.822 32.2622 C 96.8943 32.2622 96.0627 32.1426 95.3289 31.9028 C 94.5944 31.6631 93.9679 31.3081 93.4502 30.8354 C 92.9321 30.3638 92.5342 29.7788 92.2559 29.083 C 91.9774 28.3877 91.8385 27.5747 91.8385 26.6465 ZM 99.1439 25.5093 C 99.1439 25.2158 99.1051 24.9336 99.0278 24.6621 C 98.9506 24.3921 98.8267 24.1479 98.6566 23.9316 C 98.4863 23.7153 98.2701 23.5405 98.0074 23.4092 C 97.7444 23.2778 97.4198 23.2119 97.0332 23.2119 C 96.6621 23.2119 96.3413 23.2739 96.0708 23.3975 C 95.8002 23.5215 95.5759 23.6914 95.3984 23.9082 C 95.2205 24.125 95.0813 24.3721 94.9808 24.6514 C 94.8801 24.9292 94.8145 25.2158 94.7838 25.5093 L 99.1439 25.5093 Z" fill="#282828"/>			<path d="M 103.5952 21.4482 C 104.1055 21.3096 104.7354 21.1777 105.4854 21.0542 C 106.2354 20.9302 107.0508 20.8682 107.9323 20.8682 C 108.7977 20.8682 109.5168 20.9883 110.0891 21.2275 C 110.6608 21.4683 111.1132 21.8081 111.4458 22.2485 C 111.7781 22.6895 112.014 23.2158 112.1532 23.8267 C 112.2921 24.438 112.3617 25.1152 112.3617 25.8579 L 112.3617 32.0068 L 109.5092 32.0068 L 109.5092 26.229 C 109.5092 25.208 109.3934 24.4731 109.1615 24.0239 C 108.9296 23.5762 108.4578 23.3506 107.7466 23.3506 C 107.53 23.3506 107.3176 23.3594 107.1088 23.3745 C 106.9003 23.3896 106.6797 23.4131 106.4478 23.4443 L 106.4478 32.0068 L 103.5952 32.0068 L 103.5952 21.4482 Z" fill="#282828"/>			<path d="M 124.377 24.8135 C 124.377 26.144 124.2104 27.2773 123.8779 28.2129 C 123.5453 29.1489 123.0858 29.9111 122.4982 30.4985 C 121.9105 31.0864 121.2108 31.5161 120.3997 31.7871 C 119.5874 32.0571 118.6946 32.1929 117.7207 32.1929 C 117.2107 32.1929 116.7117 32.1655 116.2245 32.1113 C 115.7379 32.0571 115.2162 31.9688 114.6593 31.8452 L 114.6593 17.8276 C 115.3086 17.6885 115.9189 17.5962 116.4912 17.5493 C 117.0635 17.5029 117.5969 17.48 118.0916 17.48 C 119.0345 17.48 119.897 17.6191 120.6774 17.8975 C 121.4585 18.1763 122.1194 18.6138 122.6608 19.2095 C 123.2017 19.8047 123.623 20.5625 123.9248 21.4829 C 124.226 22.4038 124.377 23.5137 124.377 24.8135 ZM 117.5118 29.6865 C 117.5889 29.7021 117.6746 29.71 117.7668 29.71 C 117.8599 29.71 117.9443 29.71 118.022 29.71 C 118.6719 29.71 119.2163 29.5859 119.6572 29.3379 C 120.0978 29.0908 120.4531 28.751 120.7241 28.3174 C 120.9946 27.8838 121.188 27.3701 121.3038 26.7744 C 121.4197 26.1787 121.4775 25.5249 121.4775 24.8135 C 121.4775 24.1948 121.4313 23.5913 121.3384 23.0029 C 121.246 22.4155 121.0833 21.897 120.8517 21.4482 C 120.6195 20.9995 120.3022 20.6406 119.9006 20.3691 C 119.4983 20.0981 118.9803 19.9629 118.3466 19.9629 C 118.2227 19.9629 118.0835 19.9673 117.9294 19.9746 C 117.7749 19.9824 117.6357 20.002 117.5118 20.0327 L 117.5118 29.6865 Z" fill="#282828"/>			<path d="M 129.8849 20.8218 C 130.7813 20.8218 131.5273 20.9258 132.1228 21.1353 C 132.7178 21.3438 133.1934 21.6382 133.5491 22.0171 C 133.9048 22.3965 134.1598 22.8604 134.3143 23.4092 C 134.469 23.9585 134.5463 24.5732 134.5463 25.2544 L 134.5463 31.752 C 134.1289 31.8452 133.5101 31.9531 132.6909 32.0762 C 131.8715 32.2007 130.9514 32.2622 129.9312 32.2622 C 129.2354 32.2622 128.6052 32.2007 128.041 32.0762 C 127.4766 31.9531 126.9933 31.748 126.5917 31.4614 C 126.1893 31.1758 125.8801 30.8042 125.6641 30.3477 C 125.4471 29.8921 125.3391 29.3306 125.3391 28.665 C 125.3391 28.0313 125.4629 27.4971 125.7101 27.064 C 125.9575 26.6313 126.29 26.2832 126.7075 26.0195 C 127.1251 25.7573 127.604 25.5674 128.1454 25.4517 C 128.6866 25.335 129.2507 25.2773 129.8384 25.2773 C 130.5807 25.2773 131.2375 25.3394 131.8098 25.4634 L 131.8098 25.1152 C 131.8098 24.5732 131.6395 24.1206 131.2996 23.7568 C 130.9592 23.3945 130.3719 23.2119 129.5369 23.2119 C 128.9955 23.2119 128.4739 23.2505 127.9714 23.3281 C 127.4688 23.4058 127.0629 23.498 126.754 23.606 L 126.3597 21.3096 C 126.7151 21.1855 127.2178 21.0737 127.8669 20.9722 C 128.5166 20.8721 129.1888 20.8218 129.8849 20.8218 ZM 130.1399 29.9648 C 130.4491 29.9648 130.7504 29.9609 131.0446 29.9531 C 131.338 29.9463 131.593 29.9263 131.8098 29.895 L 131.8098 27.3896 C 131.6243 27.3584 131.3999 27.3311 131.1372 27.3081 C 130.8741 27.2847 130.6345 27.2729 130.4183 27.2729 C 130.1243 27.2729 129.8384 27.2925 129.5599 27.3311 C 129.282 27.3701 129.0382 27.4355 128.8295 27.5283 C 128.621 27.6211 128.4546 27.7529 128.3308 27.9229 C 128.207 28.0933 128.1454 28.3174 128.1454 28.5957 C 128.1454 29.0908 128.3308 29.4424 128.7019 29.6519 C 129.073 29.8608 129.552 29.9648 130.1399 29.9648 Z" fill="#282828"/>			<path d="M 138.1082 23.4673 L 135.627 23.4673 L 135.627 21.1001 L 138.1082 21.1001 L 138.1082 18.3618 L 140.9607 17.8975 L 140.9607 21.1001 L 145.53 21.1001 L 145.53 23.4673 L 140.9607 23.4673 L 140.9607 27.8765 C 140.9607 28.2778 140.9995 28.604 141.0771 28.8511 C 141.1541 29.0991 141.2626 29.292 141.4016 29.4312 C 141.541 29.5708 141.7109 29.6636 141.9119 29.71 C 142.1125 29.7559 142.3368 29.7788 142.5845 29.7788 C 142.8474 29.7788 143.0907 29.772 143.3149 29.7559 C 143.5392 29.7412 143.7554 29.7134 143.9642 29.6748 C 144.1731 29.6372 144.3893 29.5791 144.614 29.5005 C 144.8376 29.4233 145.0809 29.3237 145.3446 29.1992 L 145.7388 31.6587 C 145.2129 31.8755 144.6448 32.0303 144.0338 32.123 C 143.4229 32.2158 142.8314 32.2622 142.2598 32.2622 C 141.5945 32.2622 141.0076 32.208 140.4968 32.1006 C 139.9868 31.9912 139.5538 31.7832 139.1984 31.4731 C 138.8424 31.1641 138.572 30.7271 138.3866 30.1621 C 138.2012 29.5977 138.1082 28.8594 138.1082 27.9458 L 138.1082 23.4673 Z" fill="#282828"/>			<path d="M 151.3386 20.8218 C 152.2349 20.8218 152.9811 20.9258 153.5764 21.1353 C 154.1714 21.3438 154.647 21.6382 155.0027 22.0171 C 155.3584 22.3965 155.6135 22.8604 155.7681 23.4092 C 155.9226 23.9585 156 24.5732 156 25.2544 L 156 31.752 C 155.5826 31.8452 154.964 31.9531 154.1448 32.0762 C 153.3252 32.2007 152.4052 32.2622 151.3848 32.2622 C 150.6891 32.2622 150.0591 32.2007 149.4946 32.0762 C 148.9302 31.9531 148.4469 31.748 148.0453 31.4614 C 147.6431 31.1758 147.3339 30.8042 147.1177 30.3477 C 146.9009 29.8921 146.7927 29.3306 146.7927 28.665 C 146.7927 28.0313 146.9166 27.4971 147.1638 27.064 C 147.4111 26.6313 147.7439 26.2832 148.1611 26.0195 C 148.5789 25.7573 149.0576 25.5674 149.5991 25.4517 C 150.1403 25.335 150.7045 25.2773 151.2921 25.2773 C 152.0344 25.2773 152.6912 25.3394 153.2634 25.4634 L 153.2634 25.1152 C 153.2634 24.5732 153.0933 24.1206 152.7532 23.7568 C 152.4128 23.3945 151.8254 23.2119 150.9906 23.2119 C 150.4492 23.2119 149.9274 23.2505 149.425 23.3281 C 148.9224 23.4058 148.5166 23.498 148.2075 23.606 L 147.8134 21.3096 C 148.1688 21.1855 148.6715 21.0737 149.3206 20.9722 C 149.9702 20.8721 150.6426 20.8218 151.3386 20.8218 ZM 151.5936 29.9648 C 151.9028 29.9648 152.2041 29.9609 152.4982 29.9531 C 152.7917 29.9463 153.0468 29.9263 153.2634 29.895 L 153.2634 27.3896 C 153.0779 27.3584 152.8535 27.3311 152.5908 27.3081 C 152.3279 27.2847 152.0883 27.2729 151.8721 27.2729 C 151.5779 27.2729 151.2921 27.2925 151.0137 27.3311 C 150.7356 27.3701 150.4919 27.4355 150.2832 27.5283 C 150.0747 27.6211 149.9083 27.7529 149.7845 27.9229 C 149.6606 28.0933 149.5991 28.3174 149.5991 28.5957 C 149.5991 29.0908 149.7845 29.4424 150.1556 29.6519 C 150.5269 29.8608 151.0057 29.9648 151.5936 29.9648 Z" fill="#282828"/>			<g>				<path d="M 44.4128 53.3042 C 44.4128 54.9829 43.0461 56.3433 41.3599 56.3433 C 39.6736 56.3433 38.306 54.9829 38.306 53.3042 C 38.306 51.627 39.6736 50.2666 41.3599 50.2666 C 43.0461 50.2666 44.4128 51.627 44.4128 53.3042 L 44.4128 53.3042 Z" fill="#282828"/>				<path opacity="0.2" d="M 41.3594 53.3838 C 39.8265 53.3838 38.5836 54.9863 38.5836 53.5044 C 38.5836 52.0215 39.8265 50.8193 41.3594 50.8193 C 42.8923 50.8193 44.1353 52.0215 44.1353 53.5044 C 44.1353 54.9863 42.8923 53.3838 41.3594 53.3838 L 41.3594 53.3838 Z" fill="#282828"/>			</g>			<g>				<path d="M 56.6263 9.6665 C 56.6263 11.3442 55.2595 12.7046 53.5734 12.7046 C 51.8871 12.7046 50.5195 11.3442 50.5195 9.6665 C 50.5195 7.9893 51.8871 6.6289 53.5734 6.6289 C 55.2595 6.6289 56.6263 7.9893 56.6263 9.6665 L 56.6263 9.6665 Z" fill="#282828"/>				<path opacity="0.2" d="M 53.6013 9.5254 C 52.0012 9.5254 50.7039 11.2466 50.7039 9.6543 C 50.7039 8.0625 52.0012 6.772 53.6013 6.772 C 55.2015 6.772 56.499 8.0625 56.499 9.6543 C 56.499 11.2466 55.2015 9.5254 53.6013 9.5254 L 53.6013 9.5254 Z" fill="#282828"/>			</g>			<g>				<path d="M 27.7581 6.9043 C 27.7581 8.5825 26.3914 9.9434 24.705 9.9434 C 23.0188 9.9434 21.6512 8.5825 21.6512 6.9043 C 21.6512 5.2266 23.0188 3.8662 24.705 3.8662 C 26.3914 3.8662 27.7581 5.2266 27.7581 6.9043 L 27.7581 6.9043 Z" fill="#282828"/>				<path opacity="0.2" d="M 24.733 6.7637 C 23.1329 6.7637 21.8354 8.4844 21.8354 6.8926 C 21.8354 5.3008 23.1329 4.0093 24.733 4.0093 C 26.3333 4.0093 27.6306 5.3008 27.6306 6.8926 C 27.6306 8.4844 26.3333 6.7637 24.733 6.7637 L 24.733 6.7637 Z" fill="#282828"/>			</g>			<g>				<path d="M 45.5232 6.0747 C 45.5232 9.4316 42.7897 12.1523 39.4171 12.1523 C 36.0447 12.1523 33.3096 9.4316 33.3096 6.0747 C 33.3096 2.7207 36.0447 0 39.4171 0 C 42.7897 0 45.5232 2.7207 45.5232 6.0747 L 45.5232 6.0747 Z" fill="#282828"/>				<path opacity="0.2" d="M 39.473 5.793 C 36.2731 5.793 33.6781 9.2358 33.6781 6.0518 C 33.6781 2.8687 36.2731 0.2861 39.473 0.2861 C 42.6736 0.2861 45.2684 2.8687 45.2684 6.0518 C 45.2684 9.2358 42.6736 5.793 39.473 5.793 L 39.473 5.793 Z" fill="#282828"/>			</g>			<g>				<path d="M 25.5374 16.5713 C 25.5374 19.3169 23.301 21.5425 20.5415 21.5425 C 17.7822 21.5425 15.5444 19.3169 15.5444 16.5713 C 15.5444 13.8262 17.7822 11.5996 20.5415 11.5996 C 23.301 11.5996 25.5374 13.8262 25.5374 16.5713 L 25.5374 16.5713 Z" fill="#282828"/>				<path opacity="0.2" d="M 20.5873 16.3403 C 17.969 16.3403 15.8459 19.1567 15.8459 16.5518 C 15.8459 13.9473 17.969 11.834 20.5873 11.834 C 23.2058 11.834 25.329 13.9473 25.329 16.5518 C 25.329 19.1567 23.2058 16.3403 20.5873 16.3403 L 20.5873 16.3403 Z" fill="#282828"/>			</g>			<g>				<path d="M 11.6584 19.6094 C 11.6584 22.812 9.0491 25.4092 5.8298 25.4092 C 2.6108 25.4092 0 22.812 0 19.6094 C 0 16.4067 2.6108 13.8091 5.8298 13.8091 C 9.0491 13.8091 11.6584 16.4067 11.6584 19.6094 L 11.6584 19.6094 Z" fill="#282828"/>				<path opacity="0.2" d="M 5.829 19.4917 C 2.9167 19.4917 0.5552 22.6982 0.5552 19.7319 C 0.5552 16.7671 2.9167 14.3623 5.829 14.3623 C 8.7417 14.3623 11.1033 16.7671 11.1033 19.7319 C 11.1033 22.6982 8.7417 19.4917 5.829 19.4917 L 5.829 19.4917 Z" fill="#282828"/>			</g>			<g>				<path d="M 24.9822 31.2085 C 24.9822 35.3281 21.6276 38.6665 17.4885 38.6665 C 13.3496 38.6665 9.9929 35.3281 9.9929 31.2085 C 9.9929 27.0908 13.3496 23.7524 17.4885 23.7524 C 21.6276 23.7524 24.9822 27.0908 24.9822 31.2085 L 24.9822 31.2085 Z" fill="#282828"/>				<path opacity="0.2" d="M 17.4873 30.7163 C 13.8086 30.7163 10.8257 34.7246 10.8257 31.0176 C 10.8257 27.3115 13.8086 24.3047 17.4873 24.3047 C 21.1665 24.3047 24.1494 27.3115 24.1494 31.0176 C 24.1494 34.7246 21.1665 30.7163 17.4873 30.7163 L 17.4873 30.7163 Z" fill="#282828"/>			</g>			<g>				<path d="M 14.9893 41.7041 C 14.9893 43.9932 13.1256 45.8477 10.8262 45.8477 C 8.5267 45.8477 6.6619 43.9932 6.6619 41.7041 C 6.6619 39.417 8.5267 37.562 10.8262 37.562 C 13.1256 37.562 14.9893 39.417 14.9893 41.7041 L 14.9893 41.7041 Z" fill="#282828"/>				<path opacity="0.2" d="M 10.8254 41.5337 C 8.6796 41.5337 6.9395 43.6719 6.9395 41.6943 C 6.9395 39.7178 8.6796 38.1143 10.8254 38.1143 C 12.9717 38.1143 14.7118 39.7178 14.7118 41.6943 C 14.7118 43.6719 12.9717 41.5337 10.8254 41.5337 L 10.8254 41.5337 Z" fill="#282828"/>			</g>			<g>				<path d="M 32.7544 50.2656 C 32.7544 54.5371 29.2756 58 24.9832 58 C 20.6909 58 17.21 54.5371 17.21 50.2656 C 17.21 45.9961 20.6909 42.5332 24.9832 42.5332 C 29.2756 42.5332 32.7544 45.9961 32.7544 50.2656 L 32.7544 50.2656 Z" fill="#282828"/>				<path opacity="0.2" d="M 24.9819 49.4976 C 21.1499 49.4976 18.0427 53.5054 18.0427 49.7988 C 18.0427 46.0913 21.1499 43.0859 24.9819 43.0859 C 28.8145 43.0859 31.9216 46.0913 31.9216 49.7988 C 31.9216 53.5054 28.8145 49.4976 24.9819 49.4976 L 24.9819 49.4976 Z" fill="#282828"/>			</g>		</g>	</g></svg>