<?xml version="1.0" standalone="no"?><!-- Generator: Adobe Fireworks CS6, Export SVG Extension by Aaron Beall (http://fireworks.abeall.com) . Version: 0.6.1  --><!DOCTYPE svg PUBLIC "-//W3C//DTD SVG 1.1//EN" "http://www.w3.org/Graphics/SVG/1.1/DTD/svg11.dtd"><svg id="Untitled-Page%201" viewBox="0 0 51 45" style="background-color:#ffffff00" version="1.1"	xmlns="http://www.w3.org/2000/svg" xmlns:xlink="http://www.w3.org/1999/xlink" xml:space="preserve"	x="0px" y="0px" width="51px" height="45px">	<g id="Layer%201">		<g>			<path d="M 34.714 25.4948 C 34.714 26.3847 34.5825 27.1912 34.3203 27.914 C 34.0577 28.6375 33.6884 29.2608 33.213 29.7852 C 32.7369 30.3098 32.1672 30.7148 31.5027 31.0008 C 30.8382 31.287 30.0957 31.4299 29.2758 31.4299 C 28.4553 31.4299 27.713 31.287 27.0488 31.0008 C 26.3843 30.7148 25.81 30.3098 25.3261 29.7852 C 24.8421 29.2608 24.4689 28.6375 24.2065 27.914 C 23.9439 27.1912 23.8128 26.3847 23.8128 25.4948 C 23.8128 24.6211 23.948 23.8225 24.2188 23.099 C 24.4896 22.3762 24.8668 21.7564 25.3508 21.2398 C 25.8344 20.7238 26.4127 20.3264 27.0856 20.0481 C 27.7582 19.7702 28.4884 19.6311 29.2758 19.6311 C 30.0792 19.6311 30.8138 19.7702 31.478 20.0481 C 32.1425 20.3264 32.7166 20.7238 33.2007 21.2398 C 33.6842 21.7564 34.0577 22.3762 34.3203 23.099 C 34.5825 23.8225 34.714 24.6211 34.714 25.4948 ZM 45.9843 30.7866 C 45.4265 30.9616 44.7454 31.1046 43.9417 31.2155 C 43.1378 31.3265 42.3504 31.3824 41.5795 31.3824 C 39.7747 31.3824 38.4089 30.8659 37.4823 29.833 C 36.5552 28.8001 36.0919 27.3861 36.0919 25.5899 C 36.0919 23.7627 36.4814 22.3207 37.2609 21.2637 C 38.0399 20.2071 39.1926 19.6785 40.7183 19.6785 C 41.1281 19.6785 41.5302 19.7224 41.9238 19.8097 C 42.3178 19.8972 42.6621 20.0203 42.9576 20.1791 L 42.9576 15.0781 L 45.9843 14.5775 L 45.9843 30.7866 ZM 51 24.2144 C 51 16.2853 44.3641 9.8571 36.179 9.8571 C 27.9932 9.8571 21.3568 16.2853 21.3568 24.2144 C 21.3568 32.1429 27.9932 38.5714 36.179 38.5714 C 44.3641 38.5714 51 32.1429 51 24.2144 ZM 26.8888 25.5187 C 26.8888 26.5196 27.0732 27.3301 27.4425 27.9499 C 27.8116 28.5696 28.4059 28.8795 29.2264 28.8795 C 30.0141 28.8795 30.6084 28.5696 31.0105 27.9499 C 31.4124 27.3301 31.6135 26.5196 31.6135 25.5187 C 31.6135 24.5173 31.4289 23.7111 31.0596 23.099 C 30.6906 22.4876 30.0957 22.1813 29.2758 22.1813 C 28.4884 22.1813 27.8935 22.4876 27.4916 23.099 C 27.0895 23.7111 26.8888 24.5173 26.8888 25.5187 ZM 39.168 25.447 C 39.168 26.4483 39.3605 27.2668 39.7462 27.902 C 40.1316 28.538 40.7509 28.8555 41.604 28.8555 C 41.8501 28.8555 42.0796 28.8479 42.2931 28.8316 C 42.5061 28.8161 42.7276 28.7924 42.9576 28.7604 L 42.9576 22.6581 C 42.7276 22.5311 42.4654 22.4238 42.1699 22.3363 C 41.8747 22.2493 41.563 22.2053 41.235 22.2053 C 40.5129 22.2053 39.9879 22.4836 39.6601 23.0397 C 39.3318 23.5959 39.168 24.3983 39.168 25.447 Z" fill="#333333"/>			<g>				<path d="M 35.5947 41.3569 C 35.5947 42.6588 34.4993 43.7143 33.1478 43.7143 C 31.7964 43.7143 30.7004 42.6588 30.7004 41.3569 C 30.7004 40.0555 31.7964 39 33.1478 39 C 34.4993 39 35.5947 40.0555 35.5947 41.3569 L 35.5947 41.3569 Z" fill="#333333"/>				<path opacity="0.2" d="M 33.1474 41.4185 C 31.919 41.4185 30.9229 42.6623 30.9229 41.5118 C 30.9229 40.3616 31.919 39.4285 33.1474 39.4285 C 34.376 39.4285 35.3722 40.3616 35.3722 41.5118 C 35.3722 42.6623 34.376 41.4185 33.1474 41.4185 L 33.1474 41.4185 Z" fill="#333333"/>			</g>			<g>				<path d="M 45.3832 7.4997 C 45.3832 8.8017 44.2878 9.8571 42.9364 9.8571 C 41.5849 9.8571 40.4889 8.8017 40.4889 7.4997 C 40.4889 6.1983 41.5849 5.1428 42.9364 5.1428 C 44.2878 5.1428 45.3832 6.1983 45.3832 7.4997 L 45.3832 7.4997 Z" fill="#333333"/>				<path opacity="0.2" d="M 42.9588 7.3903 C 41.6764 7.3903 40.6366 8.7257 40.6366 7.4906 C 40.6366 6.2556 41.6764 5.2539 42.9588 5.2539 C 44.2413 5.2539 45.2811 6.2556 45.2811 7.4906 C 45.2811 8.7257 44.2413 7.3903 42.9588 7.3903 L 42.9588 7.3903 Z" fill="#333333"/>			</g>			<g>				<path d="M 22.2466 5.3569 C 22.2466 6.6588 21.1513 7.7143 19.7998 7.7143 C 18.4484 7.7143 17.3524 6.6588 17.3524 5.3569 C 17.3524 4.0554 18.4484 3 19.7998 3 C 21.1513 3 22.2466 4.0554 22.2466 5.3569 L 22.2466 5.3569 Z" fill="#333333"/>				<path opacity="0.2" d="M 19.8222 5.2474 C 18.5399 5.2474 17.5001 6.5828 17.5001 5.3477 C 17.5001 4.1127 18.5399 3.111 19.8222 3.111 C 21.1048 3.111 22.1446 4.1127 22.1446 5.3477 C 22.1446 6.5828 21.1048 5.2474 19.8222 5.2474 L 19.8222 5.2474 Z" fill="#333333"/>			</g>			<g>				<path d="M 36.4845 4.7137 C 36.4845 7.3177 34.2938 9.4286 31.5909 9.4286 C 28.888 9.4286 26.696 7.3177 26.696 4.7137 C 26.696 2.1109 28.888 0 31.5909 0 C 34.2938 0 36.4845 2.1109 36.4845 4.7137 L 36.4845 4.7137 Z" fill="#333333"/>				<path opacity="0.2" d="M 31.6357 4.4949 C 29.071 4.4949 26.9913 7.1657 26.9913 4.6954 C 26.9913 2.2254 29.071 0.222 31.6357 0.222 C 34.2007 0.222 36.2803 2.2254 36.2803 4.6954 C 36.2803 7.1657 34.2007 4.4949 31.6357 4.4949 L 31.6357 4.4949 Z" fill="#333333"/>			</g>			<g>				<path d="M 20.4669 12.8567 C 20.4669 14.9872 18.6745 16.7143 16.463 16.7143 C 14.2516 16.7143 12.4581 14.9872 12.4581 12.8567 C 12.4581 10.7271 14.2516 9 16.463 9 C 18.6745 9 20.4669 10.7271 20.4669 12.8567 L 20.4669 12.8567 Z" fill="#333333"/>				<path opacity="0.2" d="M 16.4997 12.6776 C 14.4013 12.6776 12.6998 14.8628 12.6998 12.8416 C 12.6998 10.8208 14.4013 9.1816 16.4997 9.1816 C 18.5984 9.1816 20.2999 10.8208 20.2999 12.8416 C 20.2999 14.8628 18.5984 12.6776 16.4997 12.6776 L 16.4997 12.6776 Z" fill="#333333"/>			</g>			<g>				<path d="M 9.3436 15.2138 C 9.3436 17.6993 7.2525 19.7143 4.6724 19.7143 C 2.0924 19.7143 0 17.6993 0 15.2138 C 0 12.7292 2.0924 10.7143 4.6724 10.7143 C 7.2525 10.7143 9.3436 12.7292 9.3436 15.2138 L 9.3436 15.2138 Z" fill="#333333"/>				<path opacity="0.2" d="M 4.6716 15.1226 C 2.3376 15.1226 0.4449 17.6103 0.4449 15.3094 C 0.4449 13.0088 2.3376 11.1429 4.6716 11.1429 C 7.006 11.1429 8.8987 13.0088 8.8987 15.3094 C 8.8987 17.6103 7.006 15.1226 4.6716 15.1226 L 4.6716 15.1226 Z" fill="#333333"/>			</g>			<g>				<path d="M 20.022 24.2136 C 20.022 27.4093 17.3334 30 14.0161 30 C 10.699 30 8.0088 27.4093 8.0088 24.2136 C 8.0088 21.0192 10.699 18.4286 14.0161 18.4286 C 17.3334 18.4286 20.022 21.0192 20.022 24.2136 L 20.022 24.2136 Z" fill="#333333"/>				<path opacity="0.2" d="M 14.0152 23.8318 C 11.0669 23.8318 8.6762 26.9413 8.6762 24.0653 C 8.6762 21.1896 11.0669 18.8572 14.0152 18.8572 C 16.9639 18.8572 19.3546 21.1896 19.3546 24.0653 C 19.3546 26.9413 16.9639 23.8318 14.0152 23.8318 L 14.0152 23.8318 Z" fill="#333333"/>			</g>			<g>				<path d="M 12.0132 32.3568 C 12.0132 34.1322 10.5195 35.5714 8.6766 35.5714 C 6.8338 35.5714 5.3392 34.1322 5.3392 32.3568 C 5.3392 30.5821 6.8338 29.1428 8.6766 29.1428 C 10.5195 29.1428 12.0132 30.5821 12.0132 32.3568 L 12.0132 32.3568 Z" fill="#333333"/>				<path opacity="0.2" d="M 8.6761 32.2246 C 6.9563 32.2246 5.5617 33.883 5.5617 32.3491 C 5.5617 30.8154 6.9563 29.5714 8.6761 29.5714 C 10.3961 29.5714 11.7907 30.8154 11.7907 32.3491 C 11.7907 33.883 10.3961 32.2246 8.6761 32.2246 L 8.6761 32.2246 Z" fill="#333333"/>			</g>			<g>				<path d="M 26.2511 38.9993 C 26.2511 42.3134 23.4629 45 20.0228 45 C 16.5828 45 13.7929 42.3134 13.7929 38.9993 C 13.7929 35.6866 16.5828 33 20.0228 33 C 23.4629 33 26.2511 35.6866 26.2511 38.9993 L 26.2511 38.9993 Z" fill="#333333"/>				<path opacity="0.2" d="M 20.0218 38.4033 C 16.9507 38.4033 14.4603 41.5128 14.4603 38.6367 C 14.4603 35.7611 16.9507 33.4286 20.0218 33.4286 C 23.0933 33.4286 25.5836 35.7611 25.5836 38.6367 C 25.5836 41.5128 23.0933 38.4033 20.0218 38.4033 L 20.0218 38.4033 Z" fill="#333333"/>			</g>		</g>	</g></svg>