<?xml version="1.0" encoding="utf-8"?>
<!-- Generator: Adobe Illustrator 16.0.0, SVG Export Plug-In . SVG Version: 6.00 Build 0)  -->
<!DOCTYPE svg PUBLIC "-//W3C//DTD SVG 1.1//EN" "http://www.w3.org/Graphics/SVG/1.1/DTD/svg11.dtd">
<svg version="1.1" id="Layer_1" xmlns="http://www.w3.org/2000/svg" xmlns:xlink="http://www.w3.org/1999/xlink" x="0px" y="0px"
	 width="326px" height="119px" viewBox="0 0 326 119" style="enable-background:new 0 0 326 119;" xml:space="preserve">
<g>
	<path style="fill-rule:evenodd;clip-rule:evenodd;fill:#FFFFFF;" d="M144.7,77.7v-0.6h1.7v-1.9c0-1.3,0.9-1.8,2.1-1.8
		c0.3,0,0.5,0,0.8,0.1V74c-0.3,0-0.5-0.1-0.8-0.1c-0.8,0-1.4,0.3-1.4,1.3v1.8h1.9v0.6h-1.9v8.6h-0.7v-8.6H144.7z"/>
	<path style="fill:#FFFFFF;" d="M147.2,86.4h-0.9v-8.6h-1.7V77h1.7v-1.8c0-1.2,0.8-2,2.2-2c0.3,0,0.6,0,0.8,0.1l0.1,0v0.8l-0.1,0
		c-0.2,0-0.5-0.1-0.8-0.1c-0.9,0-1.2,0.4-1.2,1.2V77h1.9v0.8h-1.9V86.4z M146.5,86.2h0.4v-8.6h1.9v-0.3H147v-2c0-1,0.5-1.4,1.5-1.4
		c0.2,0,0.5,0,0.7,0.1v-0.3c-0.2,0-0.5-0.1-0.7-0.1c-0.6,0-1.9,0.2-1.9,1.7v2h-1.7v0.3h1.7V86.2z"/>
</g>
<g>
	<path style="fill-rule:evenodd;clip-rule:evenodd;fill:#FFFFFF;" d="M153.7,85.9c2.3,0,3.6-2,3.6-4.2c0-2.2-1.2-4.2-3.6-4.2
		c-2.4,0-3.6,2-3.6,4.2C150.1,83.9,151.4,85.9,153.7,85.9z M153.7,76.9c2.8,0,4.3,2.2,4.3,4.8c0,2.6-1.5,4.8-4.3,4.8
		c-2.8,0-4.3-2.2-4.3-4.8C149.4,79.1,151,76.9,153.7,76.9z"/>
	<path style="fill:#FFFFFF;" d="M153.7,86.6c-2.6,0-4.4-2-4.4-4.9c0-2.9,1.8-4.9,4.4-4.9s4.4,2,4.4,4.9
		C158.1,84.6,156.3,86.6,153.7,86.6z M153.7,77c-2.1,0-4.2,1.5-4.2,4.7c0,3.2,2.1,4.7,4.2,4.7c2.5,0,4.2-1.9,4.2-4.7
		C157.9,78.4,155.8,77,153.7,77z M153.7,86c-2.6,0-3.7-2.3-3.7-4.3c0-2.1,1.2-4.4,3.7-4.4c2.6,0,3.7,2.3,3.7,4.4
		C157.4,83.8,156.3,86,153.7,86z M153.7,77.6c-2.4,0-3.5,2.1-3.5,4.1c0,2,1.1,4.1,3.5,4.1c2.4,0,3.5-2.1,3.5-4.1
		C157.2,79.7,156.1,77.6,153.7,77.6z"/>
</g>
<g>
	<path style="fill-rule:evenodd;clip-rule:evenodd;fill:#FFFFFF;" d="M160.1,79.1L160.1,79.1c0.4-1.2,1.9-2.2,3.6-2.1v0.7
		c-0.7-0.1-1.8,0.1-2.6,0.9c-0.7,0.7-1,1.3-1,2.7v5h-0.7v-9.2h0.7V79.1z"/>
	<path style="fill:#FFFFFF;" d="M160.2,86.4h-1V77h1v1.7c0.6-1,1.9-1.7,3.3-1.7c0.1,0,0.1,0,0.2,0l0.1,0v0.9l-0.1,0
		c-0.1,0-0.2,0-0.3,0c-0.5,0-1.4,0.1-2.2,0.9c-0.6,0.7-0.9,1.2-1,2.6V86.4z M159.5,86.2h0.5v-4.9c0.1-1.5,0.4-2.1,1.1-2.7
		c0.9-0.8,1.8-1,2.3-1c0.1,0,0.2,0,0.2,0v-0.4c0,0,0,0,0,0c-1.5,0-2.9,0.9-3.3,2l0,0.1h-0.3v-2h-0.5V86.2z"/>
</g>
<g>
	<path style="fill-rule:evenodd;clip-rule:evenodd;fill:#FFFFFF;" d="M176.2,81.7c0-2.1-1.1-4.2-3.5-4.2c-2.5,0-3.5,2-3.5,4.2
		c0,2.2,1.1,4.2,3.5,4.2C175.1,85.9,176.2,83.8,176.2,81.7z M176.2,84.3L176.2,84.3c-0.8,1.4-1.9,2.2-3.6,2.2
		c-2.8,0-4.1-2.2-4.1-4.8c0-2.7,1.3-4.8,4.2-4.8c1.5,0,3,0.8,3.5,2.3h0v-5.6h0.7v12.8h-0.7V84.3z"/>
	<path style="fill:#FFFFFF;" d="M172.6,86.6c-3.1,0-4.2-2.5-4.2-4.9c0-3.1,1.6-5,4.3-5c1.5,0,2.7,0.7,3.4,1.9v-5.2h1v13h-1v-1.7
		C175.3,86,174.1,86.6,172.6,86.6z M172.7,77c-2.5,0-4.1,1.8-4.1,4.7c0,2.3,1,4.7,3.9,4.7c1.6,0,2.7-0.7,3.5-2.1l0-0.1h0.2l0,0.1
		v1.8h0.5V73.6h-0.5v5.6h-0.2l-0.1-0.1C175.6,77.8,174.3,77,172.7,77z M172.7,86c-1.8,0-3.6-1.3-3.6-4.3c0-2.1,0.9-4.4,3.6-4.4
		c2.5,0,3.6,2.2,3.6,4.4C176.3,83.8,175.2,86,172.7,86z M172.7,77.6c-3.1,0-3.4,3.1-3.4,4.1c0,1.9,0.9,4.1,3.4,4.1
		c2.3,0,3.3-2.1,3.3-4.1C176,79.6,175,77.6,172.7,77.6z"/>
</g>
<g>
	<path style="fill-rule:evenodd;clip-rule:evenodd;fill:#FFFFFF;" d="M186,81.2c0-1.9-1.3-3.7-3.4-3.7c-2.1,0-3.3,1.9-3.4,3.7H186z
		 M179.1,81.8c0,2.2,1.1,4.1,3.4,4.1c1.8,0,3-1,3.4-2.7h0.7c-0.4,2.2-1.8,3.3-4,3.3c-2.7,0-4.2-2.1-4.1-4.7c0-2.5,1.3-5,4.1-5
		c2.9,0,4.2,2.3,4.1,4.9H179.1z"/>
	<path style="fill:#FFFFFF;" d="M182.5,86.6c-1.2,0-2.2-0.4-3-1.2c-0.9-0.9-1.3-2.1-1.3-3.6c0-1.6,0.5-3,1.4-4
		c0.7-0.8,1.7-1.1,2.9-1.1c1.2,0,2.3,0.4,3,1.2c0.9,0.9,1.3,2.3,1.2,3.9l0,0.1h-7.6c0,1.2,0.4,2.3,1.1,3c0.6,0.6,1.3,0.9,2.2,0.9
		c1.7,0,2.9-1,3.2-2.6l0-0.1h0.9l0,0.1C186.3,85.4,184.8,86.6,182.5,86.6z M182.5,77c-1.1,0-2,0.4-2.7,1.1c-0.9,0.9-1.3,2.3-1.3,3.8
		c0,1.4,0.4,2.6,1.2,3.4c0.7,0.7,1.7,1.1,2.8,1.1c2.1,0,3.5-1.1,3.9-3.1H186c-0.4,1.7-1.7,2.7-3.5,2.7c-1,0-1.8-0.3-2.4-1
		c-0.8-0.8-1.2-2-1.2-3.3l0-0.1h7.6c0-1.5-0.4-2.7-1.1-3.6C184.7,77.4,183.7,77,182.5,77z M186.1,81.3h-7.1l0-0.1
		c0.2-1.9,1.4-3.8,3.6-3.8c2.3,0,3.5,1.9,3.5,3.8L186.1,81.3z M179.2,81h6.6c-0.1-1.7-1.2-3.5-3.3-3.5
		C180.6,77.6,179.4,79.3,179.2,81z"/>
</g>
<g>
	<polygon style="fill-rule:evenodd;clip-rule:evenodd;fill:#FFFFFF;" points="191.6,86.3 190.7,86.3 186.9,77.1 187.7,77.1 
		191.1,85.5 191.2,85.5 194.3,77.1 195.1,77.1 	"/>
	<path style="fill:#FFFFFF;" d="M191.6,86.4h-1l0-0.1l-3.9-9.4h1.1l0,0.1l3.3,8.2l3.1-8.2h1L191.6,86.4z M190.8,86.2h0.7l3.4-8.9
		h-0.5l-3.2,8.4h-0.2l-0.1-0.1l-3.4-8.3h-0.5L190.8,86.2z"/>
</g>
<g>
	<path style="fill-rule:evenodd;clip-rule:evenodd;fill:#FFFFFF;" d="M203,81.2c0-1.9-1.3-3.7-3.4-3.7c-2.1,0-3.3,1.9-3.4,3.7H203z
		 M196.1,81.8c0,2.2,1.1,4.1,3.4,4.1c1.8,0,3-1,3.4-2.7h0.7c-0.4,2.2-1.8,3.3-4,3.3c-2.7,0-4.2-2.1-4.1-4.7c0-2.5,1.3-5,4.1-5
		c2.9,0,4.2,2.3,4.1,4.9H196.1z"/>
	<path style="fill:#FFFFFF;" d="M199.5,86.6c-1.2,0-2.2-0.4-3-1.2c-0.9-0.9-1.3-2.1-1.3-3.6c0-1.6,0.5-3,1.4-4
		c0.7-0.8,1.7-1.1,2.9-1.1c1.2,0,2.3,0.4,3,1.2c0.9,0.9,1.3,2.3,1.2,3.9l0,0.1h-7.6c0,1.2,0.4,2.3,1.1,3c0.6,0.6,1.3,0.9,2.2,0.9
		c1.7,0,2.9-1,3.2-2.6l0-0.1h0.9l0,0.1C203.3,85.4,201.8,86.6,199.5,86.6z M199.5,77c-1.1,0-2,0.4-2.7,1.1c-0.9,0.9-1.3,2.3-1.3,3.8
		c0,1.4,0.4,2.6,1.2,3.4c0.7,0.7,1.7,1.1,2.8,1.1c2.1,0,3.5-1.1,3.9-3.1H203c-0.4,1.7-1.7,2.7-3.5,2.7c-1,0-1.8-0.3-2.4-1
		c-0.8-0.8-1.2-2-1.2-3.3l0-0.1h7.6c0-1.5-0.4-2.7-1.1-3.6C201.7,77.4,200.7,77,199.5,77z M203.1,81.3h-7.1l0-0.1
		c0.2-1.9,1.4-3.8,3.6-3.8c2.3,0,3.5,1.9,3.5,3.8L203.1,81.3z M196.2,81h6.6c-0.1-1.7-1.2-3.5-3.3-3.5
		C197.6,77.6,196.4,79.3,196.2,81z"/>
</g>
<g>
	<rect x="205.2" y="73.5" style="fill-rule:evenodd;clip-rule:evenodd;fill:#FFFFFF;" width="0.7" height="12.8"/>
	<path style="fill:#FFFFFF;" d="M206,86.4H205v-13h0.9V86.4z M205.3,86.2h0.4V73.6h-0.4V86.2z"/>
</g>
<g>
	<path style="fill-rule:evenodd;clip-rule:evenodd;fill:#FFFFFF;" d="M211.6,85.9c2.4,0,3.6-2,3.6-4.2c0-2.2-1.2-4.2-3.6-4.2
		c-2.4,0-3.6,2-3.6,4.2C208,83.9,209.3,85.9,211.6,85.9z M211.6,76.9c2.8,0,4.3,2.2,4.3,4.8c0,2.6-1.5,4.8-4.3,4.8
		c-2.8,0-4.3-2.2-4.3-4.8C207.3,79.1,208.9,76.9,211.6,76.9z"/>
	<path style="fill:#FFFFFF;" d="M211.6,86.6c-2.6,0-4.4-2-4.4-4.9c0-2.9,1.8-4.9,4.4-4.9c2.6,0,4.4,2,4.4,4.9
		C216.1,84.6,214.2,86.6,211.6,86.6z M211.6,77c-2.5,0-4.2,1.9-4.2,4.7c0,2.8,1.7,4.7,4.2,4.7c2.1,0,4.2-1.4,4.2-4.7
		C215.8,78.4,213.7,77,211.6,77z M211.6,86c-2.6,0-3.7-2.3-3.7-4.3c0-2.1,1.2-4.4,3.7-4.4c2.6,0,3.7,2.3,3.7,4.4
		C215.4,83.8,214.2,86,211.6,86z M211.6,77.6c-2.4,0-3.5,2.1-3.5,4.1c0,2,1.1,4.1,3.5,4.1c2.4,0,3.5-2.1,3.5-4.1
		C215.1,79.7,214,77.6,211.6,77.6z"/>
</g>
<g>
	<path style="fill-rule:evenodd;clip-rule:evenodd;fill:#FFFFFF;" d="M225.1,81.7c0-2.1-1-4.2-3.5-4.2c-2.5,0-3.4,2.1-3.4,4.2
		c0,2.2,0.8,4.2,3.4,4.2C224,85.9,225.1,84,225.1,81.7z M218.2,79.2L218.2,79.2c0.3-0.9,1.4-2.3,3.4-2.3c2.9,0,4.2,2.2,4.2,4.8
		c0,2.8-1.3,4.8-4.2,4.8c-1.5,0-2.9-0.6-3.4-2.1h0v5.2h-0.7V77.1h0.7V79.2z"/>
	<path style="fill:#FFFFFF;" d="M218.3,89.7h-0.9V77h0.9v1.7c0.5-0.9,1.5-1.9,3.3-1.9c2.6,0,4.3,1.9,4.3,5c0,3.1-1.6,4.9-4.3,4.9
		c-1.6,0-2.7-0.6-3.3-1.8V89.7z M217.6,89.4h0.4v-5.2h0.3l0,0.1c0.5,1.3,1.6,2,3.3,2c2.6,0,4.1-1.7,4.1-4.7c0-2.3-1.1-4.7-4.1-4.7
		c-2,0-3,1.4-3.3,2.2l0,0.1H218v-2.1h-0.4V89.4z M221.6,86c-2.3,0-3.5-1.5-3.5-4.3c0-2.7,1.3-4.4,3.5-4.4c2.7,0,3.6,2.4,3.6,4.4
		C225.2,83.8,224.3,86,221.6,86z M221.6,77.6c-0.8,0-3.3,0.3-3.3,4.1c0,1.9,0.6,4.1,3.3,4.1c2.1,0,3.4-1.5,3.4-4.1
		C225,79.8,224.1,77.6,221.6,77.6z"/>
</g>
<g>
	<path style="fill-rule:evenodd;clip-rule:evenodd;fill:#FFFFFF;" d="M227.2,77.1h0.7V79h0c0.3-1.2,1.5-2.1,2.9-2.1
		c1.8,0,2.6,1,2.8,2h0c0.6-1.2,1.5-2,3-2c1.7,0,2.9,1,2.9,3.1v6.3h-0.7V80c0-2.4-1.7-2.5-2.2-2.5c-1.7,0-2.9,1.2-2.9,3.4v5.4H233V80
		c0-2.3-1.6-2.5-2.2-2.5c-1.3,0-3,1-3,3.4v5.4h-0.7V77.1z"/>
	<path style="fill:#FFFFFF;" d="M239.7,86.4h-0.9V80c0-2.2-1.5-2.4-2.1-2.4c-1.7,0-2.8,1.2-2.8,3.3v5.6h-0.9V80
		c0-2.2-1.5-2.4-2.1-2.4c-1.1,0-2.8,0.9-2.8,3.3v5.6H227V77h0.9v1.4c0.5-1,1.6-1.7,2.8-1.7c1.7,0,2.6,0.9,2.9,1.8
		c0.6-1.2,1.6-1.8,3-1.8c1.9,0,3.1,1.2,3.1,3.3V86.4z M239,86.2h0.4V80c0-1.9-1-3-2.8-3c-1.4,0-2.3,0.6-2.9,1.9l0,0.1h-0.2l0-0.1
		c-0.1-0.4-0.6-1.9-2.7-1.9c-1.3,0-2.5,0.9-2.8,2l0,0.1h-0.3v-1.9h-0.4v8.9h0.4v-5.3c0-2.3,1.6-3.5,3.1-3.5c0.5,0,2.3,0.2,2.3,2.7
		v6.2h0.4v-5.3c0-2.2,1.2-3.5,3.1-3.5c0.6,0,2.4,0.2,2.4,2.7V86.2z"/>
</g>
<g>
	<path style="fill-rule:evenodd;clip-rule:evenodd;fill:#FFFFFF;" d="M248.5,81.2c0-1.9-1.3-3.7-3.4-3.7c-2.1,0-3.3,1.9-3.4,3.7
		H248.5z M241.7,81.8c0,2.2,1.1,4.1,3.4,4.1c1.8,0,3-1,3.4-2.7h0.7c-0.4,2.2-1.8,3.3-4.1,3.3c-2.7,0-4.2-2.1-4.1-4.7
		c0-2.5,1.3-5,4.1-5c2.9,0,4.2,2.3,4.1,4.9H241.7z"/>
	<path style="fill:#FFFFFF;" d="M245.1,86.6c-1.2,0-2.2-0.4-3-1.2c-0.9-0.9-1.3-2.1-1.3-3.6c0-1.6,0.5-3,1.4-4
		c0.7-0.7,1.7-1.1,2.9-1.1c1.2,0,2.3,0.4,3,1.2c0.9,0.9,1.3,2.3,1.2,3.9l0,0.1h-7.6c0,1.2,0.4,2.3,1.1,3c0.6,0.6,1.3,0.9,2.2,0.9
		c1.7,0,2.9-1,3.2-2.6l0-0.1h1l0,0.1C248.9,85.4,247.4,86.6,245.1,86.6z M245.1,77c-1.1,0-2,0.4-2.7,1.1c-0.9,0.9-1.4,2.3-1.3,3.8
		c0,1.4,0.4,2.6,1.2,3.4c0.7,0.7,1.7,1.1,2.8,1.1c2.1,0,3.5-1.1,3.9-3.1h-0.4c-0.4,1.7-1.7,2.7-3.5,2.7c-1,0-1.8-0.3-2.4-1
		c-0.8-0.8-1.2-2-1.2-3.3l0-0.1h7.6c0-1.5-0.4-2.7-1.1-3.6C247.3,77.4,246.3,77,245.1,77z M248.7,81.3h-7.1l0-0.1
		c0.1-1.9,1.4-3.8,3.6-3.8c2.3,0,3.5,1.9,3.6,3.8L248.7,81.3z M241.8,81h6.6c-0.1-1.7-1.2-3.5-3.3-3.5C243.2,77.6,242,79.3,241.8,81
		z"/>
</g>
<g>
	<path style="fill-rule:evenodd;clip-rule:evenodd;fill:#FFFFFF;" d="M250.6,77.1h0.7v2h0c0.5-1.4,1.9-2.2,3.4-2.2
		c3.3,0,3.3,2.6,3.3,3.7v5.7h-0.7v-5.8c0-1-0.1-3-2.7-3c-2.1,0-3.4,1.6-3.4,3.8v5h-0.7V77.1z"/>
	<path style="fill:#FFFFFF;" d="M258.1,86.4h-0.9v-5.9c0-1.2-0.3-2.9-2.5-2.9c-2,0-3.2,1.5-3.2,3.7v5.1h-0.9V77h0.9v1.6
		c0.6-1.1,1.8-1.8,3.3-1.8c3.5,0,3.5,2.8,3.5,3.8V86.4z M257.4,86.2h0.4v-5.6c0-1.1,0-3.6-3.2-3.6c-1.5,0-2.8,0.8-3.2,2.1l0,0.1
		h-0.3v-2h-0.4v8.9h0.4v-4.9c0-2.4,1.4-4,3.5-4c2.8,0,2.8,2.4,2.8,3.1V86.2z"/>
</g>
<g>
	<path style="fill-rule:evenodd;clip-rule:evenodd;fill:#FFFFFF;" d="M263.2,77.7h-2v6.4c0,1.5,0.7,1.6,2,1.6v0.6
		c-1.4,0.1-2.8-0.1-2.7-2.2v-6.4h-1.7v-0.6h1.7v-2.9h0.7v2.9h2V77.7z"/>
	<path style="fill:#FFFFFF;" d="M262.7,86.4c-0.9,0-1.4-0.2-1.8-0.6c-0.4-0.4-0.5-1-0.5-1.8v-6.3h-1.7V77h1.7v-2.9h1V77h2v0.8h-2
		v6.3c0,1.4,0.6,1.5,1.9,1.5l0.1,0v0.8l-0.1,0C263,86.4,262.8,86.4,262.7,86.4z M258.9,77.5h1.7v6.5c0,0.7,0.1,1.2,0.4,1.6
		c0.3,0.3,0.9,0.5,1.6,0.5c0.1,0,0.2,0,0.4,0v-0.3c-0.1,0-0.1,0-0.2,0c-1.2,0-1.9-0.3-1.9-1.7v-6.5h2v-0.3h-2v-2.9h-0.5v2.9h-1.7
		V77.5z"/>
</g>
<g>
	<path style="fill-rule:evenodd;clip-rule:evenodd;fill:#FFFFFF;" d="M276.8,81.7c0-2.1-1-4.2-3.5-4.2c-2.5,0-3.4,2.1-3.4,4.2
		c0,2.2,0.8,4.2,3.4,4.2C275.7,85.9,276.8,84,276.8,81.7z M269.8,79.2L269.8,79.2c0.3-0.9,1.4-2.3,3.4-2.3c2.9,0,4.2,2.2,4.2,4.8
		c0,2.8-1.3,4.8-4.2,4.8c-1.5,0-2.9-0.6-3.4-2.1h0v5.2h-0.7V77.1h0.7V79.2z"/>
	<path style="fill:#FFFFFF;" d="M270,89.7H269V77h0.9v1.7c0.5-0.9,1.5-1.9,3.3-1.9c2.6,0,4.3,1.9,4.3,5c0,3.1-1.6,4.9-4.3,4.9
		c-1.5,0-2.7-0.6-3.3-1.7V89.7z M269.3,89.4h0.4v-5.2h0.2l0.1,0.1c0.5,1.3,1.7,2,3.3,2c2.6,0,4.1-1.7,4.1-4.7c0-2.3-1.1-4.7-4.1-4.7
		c-2,0-3,1.4-3.3,2.2l0,0.1h-0.2l0-0.1v-2h-0.4V89.4z M273.3,86c-2.3,0-3.5-1.5-3.5-4.3c0-2.7,1.3-4.4,3.5-4.4
		c2.7,0,3.6,2.4,3.6,4.4C276.9,83.8,276,86,273.3,86z M273.3,77.6c-0.8,0-3.3,0.3-3.3,4.1c0,1.9,0.6,4.1,3.3,4.1
		c2.1,0,3.4-1.5,3.4-4.1C276.7,79.8,275.8,77.6,273.3,77.6z"/>
</g>
<g>
	<rect x="278.7" y="73.5" style="fill-rule:evenodd;clip-rule:evenodd;fill:#FFFFFF;" width="0.7" height="12.8"/>
	<path style="fill:#FFFFFF;" d="M279.5,86.4h-1v-13h1V86.4z M278.8,86.2h0.5V73.6h-0.5V86.2z"/>
</g>
<g>
	<path style="fill-rule:evenodd;clip-rule:evenodd;fill:#FFFFFF;" d="M287.2,81c-0.5,0.6-2,0.5-3.4,0.7c-1.6,0.2-2.6,0.8-2.6,2.1
		c0,1.1,0.8,2,2.5,2c3.2,0,3.5-2.7,3.5-3.1V81z M287.9,84.6c0,0.5,0,1.1,0.6,1.1c0.1,0,0.3,0,0.5-0.1v0.6c-0.2,0-0.4,0.1-0.6,0.1
		c-1.1,0-1.3-0.6-1.3-1.3v-0.5h0c-0.4,1.1-1.7,2-3.5,2c-1.8,0-3.1-0.7-3.1-2.6c0-2.2,1.9-2.6,3.4-2.7c3.1-0.2,3.2-0.4,3.2-1.9
		c0-0.4-0.5-1.8-2.6-1.8c-1.7,0-2.8,0.9-2.9,2.5H281c0.1-2,1.4-3,3.6-3c1.6,0,3.3,0.5,3.3,2.4V84.6z"/>
	<path style="fill:#FFFFFF;" d="M283.7,86.6c-2.1,0-3.3-0.9-3.3-2.7c0-2.3,2-2.7,3.6-2.9c3.1-0.2,3.1-0.4,3.1-1.8
		c0-0.4-0.4-1.7-2.5-1.7c-1.7,0-2.7,0.8-2.7,2.3l0,0.1h-1l0-0.1c0.1-2,1.4-3.2,3.7-3.2c2.2,0,3.4,0.9,3.4,2.5v5.3c0,0.6,0,1,0.5,1
		c0.1,0,0.3,0,0.5-0.1l0.1,0v0.8l-0.2,0c-0.2,0-0.3,0-0.4,0c-1.2,0-1.4-0.7-1.4-1.5v0C286.5,85.8,285.4,86.6,283.7,86.6z
		 M284.6,77.3c2.3,0,2.7,1.5,2.7,1.9c0,1.6-0.3,1.8-3.3,2c-1.4,0.1-3.3,0.5-3.3,2.6c0,1.6,1,2.5,3,2.5c1.9,0,3-1.1,3.4-2l0-0.1h0.2
		l0,0.1v0.5c0,0.8,0.2,1.2,1.1,1.2c0.1,0,0.3,0,0.4,0l0,0v-0.3c-0.2,0-0.3,0-0.4,0c-0.7,0-0.7-0.7-0.7-1.2v-5.3
		c0-1.9-1.7-2.3-3.2-2.3c-2.1,0-3.3,1-3.4,2.8h0.5C281.8,78.2,282.9,77.3,284.6,77.3z M283.7,86c-1.6,0-2.6-0.8-2.6-2.1
		c0-1.3,0.9-2.1,2.7-2.3c0.3,0,0.7-0.1,1.1-0.1c1-0.1,1.9-0.2,2.3-0.6l0.2-0.2v2C287.3,83.7,286.7,86,283.7,86z M287.1,81.3
		c-0.5,0.3-1.3,0.4-2.2,0.5c-0.3,0-0.7,0.1-1,0.1c-1.7,0.2-2.5,0.8-2.5,2c0,1.2,0.9,1.9,2.3,1.9c3.3,0,3.4-3,3.4-3V81.3z"/>
</g>
<g>
	<path style="fill-rule:evenodd;clip-rule:evenodd;fill:#FFFFFF;" d="M293.3,77.7h-2v6.4c0,1.5,0.7,1.6,2,1.6v0.6
		c-1.4,0.1-2.8-0.1-2.7-2.2v-6.4h-1.7v-0.6h1.7v-2.9h0.7v2.9h2V77.7z"/>
	<path style="fill:#FFFFFF;" d="M292.7,86.4c-0.9,0-1.4-0.2-1.8-0.6c-0.4-0.4-0.5-1-0.5-1.8v-6.3h-1.7V77h1.7v-2.9h0.9V77h2v0.8h-2
		v6.3c0,1.4,0.6,1.5,1.9,1.5l0.1,0v0.8l-0.1,0C293.1,86.4,292.9,86.4,292.7,86.4z M288.9,77.5h1.7v6.5c0,0.7,0.1,1.2,0.4,1.6
		c0.3,0.3,0.9,0.5,1.6,0.5c0.1,0,0.2,0,0.4,0v-0.3c-0.1,0-0.1,0-0.2,0c-1.2,0-1.9-0.3-1.9-1.7v-6.5h2v-0.3h-2v-2.9h-0.4v2.9h-1.7
		V77.5z"/>
</g>
<g>
	<path style="fill-rule:evenodd;clip-rule:evenodd;fill:#FFFFFF;" d="M293.9,77.7v-0.6h1.7v-1.9c0-1.3,0.9-1.8,2.1-1.8
		c0.3,0,0.5,0,0.8,0.1V74c-0.3,0-0.5-0.1-0.8-0.1c-0.8,0-1.4,0.3-1.4,1.3v1.8h2v0.6h-2v8.6h-0.7v-8.6H293.9z"/>
	<path style="fill:#FFFFFF;" d="M296.4,86.4h-0.9v-8.6h-1.7V77h1.7v-1.8c0-1.2,0.8-2,2.2-2c0.3,0,0.6,0,0.8,0.1l0.1,0v0.8l-0.1,0
		c-0.3,0-0.5-0.1-0.8-0.1c-0.9,0-1.2,0.4-1.2,1.2V77h2v0.8h-2V86.4z M295.7,86.2h0.4v-8.6h2v-0.3h-2v-2c0-1,0.5-1.4,1.5-1.4
		c0.2,0,0.5,0,0.7,0.1v-0.3c-0.2,0-0.5-0.1-0.7-0.1c-0.6,0-1.9,0.2-1.9,1.7v2H294v0.3h1.7V86.2z"/>
</g>
<g>
	<path style="fill-rule:evenodd;clip-rule:evenodd;fill:#FFFFFF;" d="M302.9,85.9c2.3,0,3.6-2,3.6-4.2c0-2.2-1.3-4.2-3.6-4.2
		c-2.4,0-3.6,2-3.6,4.2C299.3,83.9,300.5,85.9,302.9,85.9z M302.9,76.9c2.8,0,4.3,2.2,4.3,4.8c0,2.6-1.5,4.8-4.3,4.8
		s-4.3-2.2-4.3-4.8C298.6,79.1,300.2,76.9,302.9,76.9z"/>
	<path style="fill:#FFFFFF;" d="M302.9,86.6c-2.6,0-4.4-2-4.4-4.9c0-2.9,1.8-4.9,4.4-4.9s4.4,2,4.4,4.9
		C307.3,84.6,305.5,86.6,302.9,86.6z M302.9,77c-2.5,0-4.2,1.9-4.2,4.7c0,2.8,1.7,4.7,4.2,4.7c2.5,0,4.2-1.9,4.2-4.7
		C307.1,78.4,305,77,302.9,77z M302.9,86c-2.6,0-3.7-2.3-3.7-4.3c0-2.1,1.2-4.4,3.7-4.4c2.6,0,3.7,2.3,3.7,4.4
		C306.6,83.8,305.5,86,302.9,86z M302.9,77.6c-2.4,0-3.5,2.1-3.5,4.1c0,2,1.1,4.1,3.5,4.1c2.4,0,3.5-2.1,3.5-4.1
		C306.4,79.7,305.3,77.6,302.9,77.6z"/>
</g>
<g>
	<path style="fill-rule:evenodd;clip-rule:evenodd;fill:#FFFFFF;" d="M308.9,79.1L308.9,79.1c0.4-1.2,1.9-2.2,3.7-2.1v0.7
		c-0.7-0.1-1.8,0.1-2.6,0.9c-0.7,0.7-1,1.3-1.1,2.7v5h-0.7v-9.2h0.7V79.1z"/>
	<path style="fill:#FFFFFF;" d="M309,86.4h-0.9V77h0.9v1.7c0.6-1,1.9-1.8,3.4-1.8c0.1,0,0.1,0,0.2,0l0.1,0v0.9l-0.1,0
		c-0.1,0-0.2,0-0.3,0c-0.5,0-1.4,0.1-2.2,0.9c-0.6,0.7-1,1.2-1,2.6V86.4z M308.3,86.2h0.4v-4.9c0.1-1.5,0.4-2,1.1-2.7
		c0.9-0.8,1.8-1,2.3-1c0.1,0,0.2,0,0.2,0v-0.4c0,0,0,0,0,0c-1.5,0-3,0.9-3.3,2l0,0.1h-0.3v-2h-0.4V86.2z"/>
</g>
<g>
	<path style="fill-rule:evenodd;clip-rule:evenodd;fill:#FFFFFF;" d="M313.6,77.1h0.7V79h0c0.3-1.2,1.5-2.1,2.9-2.1
		c1.8,0,2.6,1,2.8,2h0c0.5-1.2,1.5-2,3-2c1.7,0,2.9,1,2.9,3.1v6.3h-0.7V80c0-2.4-1.7-2.5-2.2-2.5c-1.7,0-2.9,1.2-2.9,3.4v5.4h-0.7
		V80c0-2.3-1.6-2.5-2.2-2.5c-1.3,0-3,1-3,3.4v5.4h-0.7V77.1z"/>
	<path style="fill:#FFFFFF;" d="M326.1,86.4h-0.9V80c0-2.2-1.5-2.4-2.1-2.4c-1.7,0-2.8,1.2-2.8,3.3v5.6h-0.9V80
		c0-2.2-1.5-2.4-2.1-2.4c-1.1,0-2.8,0.9-2.8,3.3v5.6h-0.9V77h0.9v1.4c0.5-1,1.6-1.6,2.8-1.6c1.7,0,2.6,0.9,2.9,1.8
		c0.6-1.2,1.6-1.8,3-1.8c1.9,0,3.1,1.2,3.1,3.3V86.4z M325.4,86.2h0.4V80c0-1.9-1-3-2.8-3c-1.4,0-2.3,0.6-2.9,1.9l0,0.1H320l0-0.1
		c-0.2-0.9-1-1.9-2.7-1.9c-1.3,0-2.5,0.9-2.8,2l0,0.1h-0.2l0-0.1v-1.8h-0.4v8.9h0.4v-5.3c0-2.3,1.6-3.5,3.1-3.5
		c0.5,0,2.3,0.2,2.3,2.7v6.2h0.4v-5.3c0-2.2,1.2-3.5,3.1-3.5c0.6,0,2.4,0.2,2.4,2.7V86.2z"/>
</g>
<path style="fill-rule:evenodd;clip-rule:evenodd;fill:#FFFFFF;" d="M102.1,67.8c0,2.6,0.5,4.8,1.5,6.5c1,1.7,2.6,2.5,4.8,2.5
	c0.6,0,1.2,0,1.8-0.1c0.6,0,1.1-0.1,1.7-0.2V60.4c-0.6-0.3-1.3-0.6-2-0.9s-1.6-0.3-2.4-0.3c-1.9,0-3.2,0.7-4.1,2.2
	C102.6,62.9,102.1,65,102.1,67.8z M70.1,68c0,2.6,0.5,4.8,1.5,6.4c1,1.6,2.5,2.5,4.6,2.5c2,0,3.6-0.8,4.6-2.5
	c1.1-1.6,1.6-3.8,1.6-6.4c0-2.7-0.5-4.8-1.4-6.4c-1-1.6-2.5-2.4-4.7-2.4c-2.1,0-3.6,0.8-4.7,2.4C70.6,63.2,70.1,65.3,70.1,68z
	 M133,64.5c0-21-17.3-38-38.6-38c-21.3,0-38.6,17-38.6,38c0,21,17.3,38,38.6,38C115.7,102.5,133,85.5,133,64.5z M119.9,81.9
	c-1.4,0.5-3.2,0.8-5.3,1.1c-2.1,0.3-4.1,0.4-6.2,0.4c-4.7,0-8.3-1.4-10.7-4.1c-2.4-2.7-3.6-6.5-3.6-11.2c0-4.8,1-8.6,3.1-11.4
	c2-2.8,5-4.2,9-4.2c1.1,0,2.1,0.1,3.1,0.4c1,0.2,1.9,0.5,2.7,1V40.4l7.9-1.3V81.9z M90.5,67.9c0,2.3-0.4,4.5-1,6.4
	c-0.7,1.9-1.7,3.6-2.9,4.9c-1.2,1.4-2.7,2.5-4.5,3.2s-3.7,1.1-5.8,1.1c-2.1,0-4.1-0.4-5.8-1.1s-3.2-1.8-4.5-3.2
	c-1.3-1.4-2.2-3-2.9-4.9c-0.7-1.9-1-4.1-1-6.4c0-2.3,0.4-4.4,1.1-6.3c0.7-1.9,1.7-3.6,3-4.9c1.3-1.4,2.8-2.4,4.5-3.1
	c1.8-0.7,3.7-1.1,5.7-1.1c2.1,0,4,0.4,5.7,1.1c1.7,0.7,3.2,1.8,4.5,3.1c1.3,1.4,2.2,3,2.9,4.9C90.2,63.5,90.5,65.6,90.5,67.9z"/>
<path style="fill-rule:evenodd;clip-rule:evenodd;fill:#FFFFFF;" d="M150.3,51.4c0,1.4,0.1,2.8,0.2,4c0.1,1.3,0.3,2.3,0.7,3.3
	c0.3,0.9,0.8,1.7,1.4,2.2c0.6,0.5,1.4,0.8,2.5,0.8c1,0,1.8-0.3,2.5-0.8c0.6-0.5,1.1-1.3,1.5-2.2c0.3-0.9,0.6-2,0.7-3.3
	c0.1-1.2,0.2-2.6,0.2-4c0-1.4,0-2.8-0.2-4c-0.1-1.3-0.3-2.3-0.7-3.3c-0.3-0.9-0.8-1.7-1.4-2.2c-0.6-0.5-1.4-0.8-2.5-0.8
	c-1,0-1.9,0.3-2.5,0.8c-0.6,0.5-1.1,1.3-1.4,2.2c-0.3,0.9-0.6,2-0.7,3.3C150.3,48.6,150.3,50,150.3,51.4z M144.2,51.4
	c0-5.1,0.9-8.9,2.9-11.5c1.9-2.6,4.5-3.9,7.9-3.9c3.5,0,6.2,1.3,8,3.9c1.8,2.6,2.8,6.4,2.8,11.5s-0.9,8.9-2.8,11.5
	c-1.9,2.6-4.5,3.9-8,3.9c-3.5,0-6.2-1.3-8.1-3.9S144.2,56.5,144.2,51.4z"/>
<path style="fill-rule:evenodd;clip-rule:evenodd;fill:#FFFFFF;" d="M183,55.2c0-2-0.4-3.6-1.2-4.9c-0.8-1.3-2-1.9-3.7-1.9
	c-0.4,0-0.9,0-1.4,0.1l-1.3,0.1v12.3c0.4,0.2,0.9,0.5,1.6,0.6c0.6,0.2,1.3,0.2,1.9,0.2c1.4,0,2.5-0.6,3.2-1.7
	C182.7,58.8,183,57.2,183,55.2z M189.1,55c0,1.7-0.2,3.3-0.6,4.7c-0.4,1.4-1,2.7-1.7,3.7c-0.7,1-1.7,1.8-2.8,2.4
	c-1.1,0.6-2.4,0.8-3.9,0.8c-1.5,0-3.1-0.4-4.7-1.1V74h-6V44.5c1.1-0.3,2.4-0.6,4-0.9c1.6-0.2,3.2-0.3,4.7-0.3c3.5,0,6.2,1,8.1,3.1
	C188.1,48.5,189.1,51.4,189.1,55z"/>
<path style="fill-rule:evenodd;clip-rule:evenodd;fill:#FFFFFF;" d="M207.2,52.8c0-0.6-0.1-1.2-0.2-1.7c-0.2-0.6-0.4-1.1-0.8-1.5
	c-0.4-0.4-0.8-0.8-1.4-1.1c-0.6-0.3-1.2-0.4-2-0.4c-0.8,0-1.4,0.1-2,0.4c-0.6,0.2-1,0.6-1.4,1c-0.4,0.5-0.7,1-0.9,1.5
	c-0.2,0.6-0.3,1.2-0.4,1.8H207.2z M191.9,55.2c0-2,0.3-3.7,0.9-5.2c0.6-1.5,1.4-2.7,2.4-3.7s2.2-1.8,3.4-2.3c1.3-0.5,2.6-0.8,4-0.8
	c3.4,0,5.9,1,7.7,2.9c1.7,2,2.6,4.8,2.6,8.5c0,0.4,0,0.8,0,1.2c0,0.4,0,0.7-0.1,1h-14.8c0,1.5,0.6,2.6,1.8,3.5
	c1.2,0.8,2.8,1.3,4.7,1.3c1.2,0,2.3-0.1,3.4-0.4c1.1-0.3,2-0.5,2.7-0.8l0.8,5c-1,0.4-2.1,0.6-3.3,0.9c-1.2,0.2-2.5,0.3-3.9,0.3
	c-1.9,0-3.7-0.2-5.2-0.7c-1.5-0.5-2.8-1.2-3.9-2.2c-1.1-1-1.9-2.2-2.5-3.6S191.9,57.1,191.9,55.2z"/>
<path style="fill-rule:evenodd;clip-rule:evenodd;fill:#FFFFFF;" d="M216.5,44.5c1.1-0.3,2.4-0.6,3.9-0.8c1.6-0.3,3.3-0.4,5.1-0.4
	c1.8,0,3.3,0.2,4.5,0.7c1.2,0.5,2.1,1.2,2.8,2.1c0.7,0.9,1.2,2,1.5,3.2c0.3,1.2,0.4,2.6,0.4,4.2v12.6h-6V54.3c0-2.1-0.2-3.6-0.7-4.5
	c-0.5-0.9-1.5-1.4-3-1.4c-0.5,0-0.9,0-1.3,0c-0.4,0-0.9,0.1-1.4,0.1v17.6h-6V44.5z"/>
<path style="fill-rule:evenodd;clip-rule:evenodd;fill:#FFFFFF;" d="M245.6,61.4c0.2,0,0.3,0,0.5,0h0.5c1.3,0,2.5-0.3,3.4-0.8
	c0.9-0.5,1.7-1.2,2.2-2.1c0.6-0.9,1-1.9,1.2-3.2c0.2-1.2,0.4-2.6,0.4-4c0-1.3-0.1-2.5-0.3-3.7c-0.2-1.2-0.5-2.3-1-3.2
	c-0.5-0.9-1.1-1.7-2-2.2c-0.8-0.5-1.9-0.8-3.2-0.8c-0.2,0-0.6,0-0.9,0c-0.3,0-0.6,0.1-0.9,0.1V61.4z M259.9,51.4c0,2.7-0.3,5.1-1,7
	c-0.7,1.9-1.6,3.5-2.9,4.7c-1.2,1.2-2.7,2.1-4.4,2.7c-1.7,0.5-3.6,0.8-5.6,0.8c-1.1,0-2.1-0.1-3.1-0.2s-2.1-0.3-3.3-0.5V37.1
	c1.4-0.3,2.6-0.5,3.8-0.6c1.2-0.1,2.3-0.1,3.3-0.1c2,0,3.8,0.3,5.4,0.9c1.6,0.6,3,1.5,4.2,2.7c1.1,1.2,2,2.8,2.6,4.7
	C259.6,46.5,259.9,48.7,259.9,51.4z"/>
<path style="fill-rule:evenodd;clip-rule:evenodd;fill:#FFFFFF;" d="M272,62c0.6,0,1.3,0,1.9,0c0.6,0,1.2-0.1,1.6-0.1v-5.1
	c-0.4-0.1-0.9-0.1-1.4-0.2c-0.5,0-1-0.1-1.5-0.1c-0.6,0-1.2,0-1.8,0.1s-1.1,0.2-1.5,0.4c-0.4,0.2-0.8,0.5-1,0.8s-0.4,0.8-0.4,1.4
	c0,1,0.4,1.7,1.2,2.2C269.7,61.8,270.7,62,272,62z M271.4,43.2c1.9,0,3.4,0.2,4.7,0.6c1.2,0.4,2.2,1,3,1.8c0.8,0.8,1.3,1.7,1.6,2.9
	c0.3,1.1,0.5,2.4,0.5,3.8v13.3c-0.9,0.2-2.2,0.4-3.9,0.7c-1.7,0.3-3.6,0.4-5.8,0.4c-1.4,0-2.8-0.1-3.9-0.4c-1.2-0.2-2.2-0.7-3-1.3
	c-0.8-0.6-1.5-1.3-1.9-2.3c-0.5-0.9-0.7-2.1-0.7-3.5c0-1.3,0.3-2.4,0.8-3.3c0.5-0.9,1.2-1.6,2.1-2.1c0.9-0.5,1.9-0.9,3-1.2
	c1.1-0.2,2.3-0.4,3.5-0.4c1.5,0,2.9,0.1,4.1,0.4V52c0-1.1-0.4-2-1.1-2.8c-0.7-0.7-1.9-1.1-3.7-1.1c-1.1,0-2.2,0.1-3.3,0.2
	c-1,0.2-1.9,0.4-2.5,0.6l-0.8-4.7c0.7-0.2,1.8-0.5,3.1-0.7C268.6,43.3,270,43.2,271.4,43.2z"/>
<path style="fill-rule:evenodd;clip-rule:evenodd;fill:#FFFFFF;" d="M288.6,48.6h-5.2v-4.9h5.2v-5.6l6-0.9v6.6h9.5v4.9h-9.5v9
	c0,0.8,0.1,1.5,0.2,2c0.2,0.5,0.4,0.9,0.7,1.2c0.3,0.3,0.7,0.5,1.1,0.6c0.4,0.1,0.9,0.1,1.4,0.1c0.5,0,1.1,0,1.5,0
	c0.5,0,0.9-0.1,1.4-0.2c0.4-0.1,0.9-0.2,1.4-0.4c0.5-0.2,1-0.4,1.5-0.6l0.8,5c-1.1,0.4-2.3,0.8-3.6,1c-1.3,0.2-2.5,0.3-3.7,0.3
	c-1.4,0-2.6-0.1-3.7-0.3c-1.1-0.2-2-0.6-2.7-1.3c-0.8-0.6-1.3-1.5-1.7-2.7c-0.4-1.1-0.6-2.7-0.6-4.5V48.6z"/>
<path style="fill-rule:evenodd;clip-rule:evenodd;fill:#FFFFFF;" d="M316.8,62c0.6,0,1.3,0,1.9,0c0.6,0,1.2-0.1,1.6-0.1v-5.1
	c-0.4-0.1-0.9-0.1-1.4-0.2c-0.5,0-1-0.1-1.5-0.1c-0.6,0-1.2,0-1.8,0.1s-1.1,0.2-1.5,0.4c-0.4,0.2-0.8,0.5-1,0.8s-0.4,0.8-0.4,1.4
	c0,1,0.4,1.7,1.2,2.2C314.6,61.8,315.6,62,316.8,62z M316.3,43.2c1.9,0,3.4,0.2,4.7,0.6c1.2,0.4,2.2,1,3,1.8
	c0.7,0.8,1.3,1.7,1.6,2.9c0.3,1.1,0.5,2.4,0.5,3.8v13.3c-0.9,0.2-2.2,0.4-3.9,0.7c-1.7,0.3-3.6,0.4-5.8,0.4c-1.5,0-2.8-0.1-3.9-0.4
	c-1.2-0.2-2.2-0.7-3-1.3c-0.8-0.6-1.5-1.3-1.9-2.3c-0.4-0.9-0.7-2.1-0.7-3.5c0-1.3,0.3-2.4,0.8-3.3c0.5-0.9,1.2-1.6,2.1-2.1
	s1.9-0.9,3-1.2c1.1-0.2,2.3-0.4,3.5-0.4c1.5,0,2.9,0.1,4.1,0.4V52c0-1.1-0.3-2-1.1-2.8c-0.7-0.7-1.9-1.1-3.7-1.1
	c-1.1,0-2.2,0.1-3.3,0.2c-1,0.2-1.9,0.4-2.5,0.6l-0.8-4.7c0.7-0.2,1.8-0.5,3.1-0.7C313.4,43.3,314.8,43.2,316.3,43.2z"/>
<path style="fill:#FFFFFF;" d="M92.8,109.9c0,3.4-2.9,6.2-6.4,6.2c-3.5,0-6.4-2.8-6.4-6.2c0-3.5,2.9-6.2,6.4-6.2
	C90,103.6,92.8,106.4,92.8,109.9z"/>
<path style="fill:#FFFFFF;" d="M86.4,110c-3.2,0-5.8,3.3-5.8,0.2c0-3,2.6-5.5,5.8-5.5c3.2,0,5.8,2.5,5.8,5.5
	C92.2,113.3,89.6,110,86.4,110z"/>
<path style="fill:#FFFFFF;" d="M118.3,20.3c0,3.4-2.9,6.2-6.4,6.2c-3.5,0-6.4-2.8-6.4-6.2c0-3.4,2.9-6.2,6.4-6.2
	C115.5,14.1,118.3,16.9,118.3,20.3z"/>
<path style="fill:#FFFFFF;" d="M112,20c-3.3,0-6,3.5-6,0.3c0-3.3,2.7-5.9,6-5.9c3.4,0,6.1,2.6,6.1,5.9C118.1,23.6,115.4,20,112,20z"
	/>
<path style="fill:#FFFFFF;" d="M58,14.7c0,3.4-2.9,6.2-6.4,6.2c-3.5,0-6.4-2.8-6.4-6.2c0-3.4,2.9-6.2,6.4-6.2
	C55.1,8.4,58,11.2,58,14.7z"/>
<path style="fill:#FFFFFF;" d="M51.7,14.4c-3.4,0-6.1,3.5-6.1,0.3c0-3.3,2.7-5.9,6.1-5.9c3.3,0,6.1,2.6,6.1,5.9
	C57.7,17.9,55,14.4,51.7,14.4z"/>
<path style="fill:#FFFFFF;" d="M95.1,13c0,6.9-5.7,12.5-12.8,12.5c-7.1,0-12.8-5.6-12.8-12.5c0-6.9,5.7-12.5,12.8-12.5
	C89.4,0.5,95.1,6.1,95.1,13z"/>
<path style="fill:#FFFFFF;" d="M82.5,12.4c-6.7,0-12.1,7.1-12.1,0.5c0-6.5,5.4-11.8,12.1-11.8c6.7,0,12.1,5.3,12.1,11.8
	C94.6,19.5,89.2,12.4,82.5,12.4z"/>
<path style="fill:#FFFFFF;" d="M53.4,34.5c0,5.6-4.7,10.2-10.4,10.2c-5.8,0-10.5-4.6-10.5-10.2s4.7-10.2,10.5-10.2
	C48.7,24.3,53.4,28.9,53.4,34.5z"/>
<path style="fill:#FFFFFF;" d="M43,34c-5.5,0-9.9,5.8-9.9,0.4c0-5.4,4.4-9.7,9.9-9.7s9.9,4.3,9.9,9.7C52.9,39.8,48.5,34,43,34z"/>
<path style="fill:#FFFFFF;" d="M24.4,40.7c0,6.6-5.4,11.9-12.2,11.9C5.5,52.6,0,47.3,0,40.7s5.5-11.9,12.2-11.9
	C18.9,28.8,24.4,34.2,24.4,40.7z"/>
<path style="fill:#FFFFFF;" d="M12.2,40.5c-6.1,0-11,6.6-11,0.5c0-6.1,4.9-11,11-11c6.1,0,11,4.9,11,11
	C23.2,47.1,18.3,40.5,12.2,40.5z"/>
<path style="fill:#FFFFFF;" d="M52.2,64.5c0,8.5-7,15.3-15.7,15.3c-8.6,0-15.7-6.8-15.7-15.3c0-8.4,7-15.3,15.7-15.3
	C45.2,49.2,52.2,56.1,52.2,64.5z"/>
<path style="fill:#FFFFFF;" d="M36.5,63.5c-7.7,0-13.9,8.2-13.9,0.6c0-7.6,6.2-13.8,13.9-13.8c7.7,0,13.9,6.2,13.9,13.8
	C50.5,71.7,44.2,63.5,36.5,63.5z"/>
<path style="fill:#FFFFFF;" d="M31.3,86.1c0,4.7-3.9,8.5-8.7,8.5c-4.8,0-8.7-3.8-8.7-8.5c0-4.7,3.9-8.5,8.7-8.5
	C27.4,77.6,31.3,81.4,31.3,86.1z"/>
<path style="fill:#FFFFFF;" d="M22.6,85.7c-4.5,0-8.1,4.4-8.1,0.3c0-4.1,3.6-7.3,8.1-7.3c4.5,0,8.1,3.3,8.1,7.3
	C30.7,90.1,27.1,85.7,22.6,85.7z"/>
<path style="fill:#FFFFFF;" d="M68.5,103.6c0,8.8-7.3,15.9-16.2,15.9c-9,0-16.2-7.1-16.2-15.9c0-8.8,7.3-15.9,16.2-15.9
	C61.2,87.8,68.5,94.9,68.5,103.6z"/>
<path style="fill:#FFFFFF;" d="M52.2,102.1c-8,0-14.5,8.2-14.5,0.6c0-7.6,6.5-13.8,14.5-13.8c8,0,14.5,6.2,14.5,13.8
	C66.7,110.3,60.2,102.1,52.2,102.1z"/>
</svg>
