<svg viewBox="0 0 299 337" style="background-color:#ffffff00" xmlns="http://www.w3.org/2000/svg" width="299" height="337"><path d="M228.637 136.224l16.956-24.445-7.387-4.98-15.845 25.575 6.277 3.85zm-11.84 11.556c2.596 1.51 5.573.43 7.336-2.313 1.858-2.89 1.28-5.833-1.13-7.29-2.258-1.364-5.5-.69-7.434 2.21-1.838 2.755-1.275 5.937 1.227 7.393z" fill="#999"/><path d="M0 68.5C0 30.668 32.683 0 73 0s73 30.668 73 68.5S113.317 137 73 137 0 106.332 0 68.5z"/><g fill="#fff"><path d="M44.193 39.712c.15.15.256.41.318.775.096.46.177.763.243.897.117.306.246.517.388.633.18.177.407.216.687.13.325-.087.537-.262.66-.53.1-.265.082-.536-.052-.816-.123-.234-.543-1.353-1.258-3.345-.083-.21-.232-.36-.432-.43-.198-.056-.413-.04-.632.055-.178.076-.3.195-.38.35-.078.157-.084.33-.038.526.02.088.178.67.498 1.756zm5.49-.29c-.32-1.084-.492-1.675-.526-1.77-.094-.21-.252-.344-.463-.41-.192-.036-.396-.024-.626.03-.18.063-.302.183-.38.34-.08.155-.1.32-.056.505.083.36.257.962.532 1.805.028.12.076.327.13.612.034.29.073.51.125.637.07.203.18.337.315.42.16.102.392.106.682.016.262-.06.452-.184.548-.367.073-.132.087-.32.06-.542-.032-.13-.082-.348-.174-.648-.098-.276-.157-.48-.167-.627zM67.986 33.81c.153-.082.475-.132.965-.153.53-.007.932-.054 1.206-.163.416-.142.703-.392.846-.768.142-.33.137-.697-.008-1.077-.187-.508-.693-.61-1.52-.305-.507.197-2.624.937-6.376 2.225-2.575.903-4.666 1.705-6.297 2.413-1.293.574-2.356.852-3.163.844-.99-.002-1.563.107-1.73.33-.17.21-.106.735.18 1.574.734 2.173 1.205 3.613 1.404 4.325.44 1.642.635 3.135.583 4.5-.01.553.214.972.71 1.27.305.182.584.692.83 1.507.072.26.218.74.455 1.467.188.61.334 1.092.43 1.46.317 1.12 1.02 1.474 2.126 1.082.45-.15.994-.378 1.64-.664 3.596-1.562 6.232-2.502 7.91-2.807 1.042-.17 1.447-.757 1.214-1.76-.09-.39-.326-.612-.678-.646-.21-.01-.54.056-1.002.197-.984.32-1.622.546-1.913.682-.648.332-1.595.71-2.845 1.125-1.338.434-2.29.79-2.86 1.06-.89.434-1.504.564-1.838.41-.308-.134-.64-.677-.994-1.605-.007-.033-.046-.15-.107-.365-.045-.15-.095-.265-.14-.358-.244-.46-.308-.837-.18-1.13.12-.28.44-.537.97-.774 3.015-1.394 5.44-2.4 7.283-3.03.728-.236 1.253-.552 1.57-.923.316-.37.35-.723.105-1.034-.35-.425-.762-.56-1.232-.405-.148.057-.354.16-.6.287-.303.184-.51.29-.616.325-2.883 1.26-4.988 2.157-6.325 2.695-.947.38-1.566.487-1.852.346-.272-.133-.537-.68-.797-1.652-.096-.368-.237-.978-.428-1.852-.184-.795-.328-1.415-.45-1.846-.186-.6-.17-1.085.042-1.455.197-.344.6-.632 1.206-.85l5.99-2.298c2.454-.932 4.55-1.667 6.29-2.205zM84.88 33.844c.294 2.754.44 4.235.45 4.428.142 2.296-.45 4.704-1.764 7.23-.913 1.77-2.08 1.902-3.504.37-.306-.33-.526-.634-.668-.9-2.01-3.816-3.198-7.5-3.57-11.05-.007-.125-.003-.356.01-.69.02-.316.022-.557-.002-.712-.062-.514-.392-.747-.99-.7-.556.035-.87.325-.94.858-.036.145-.007.62.066 1.43.39 4.223 1.922 8.55 4.604 12.98.805 1.34 1.862 1.98 3.18 1.907 1.295-.07 2.354-.76 3.19-2.122 1.153-1.872 1.887-4.518 2.216-7.967.103-1.045-.042-2.514-.426-4.422-.4-1.972-.58-3.445-.537-4.407.002-.138-.205-.538-.63-1.185-.59-.85-1.208-1.088-1.88-.715-.328.178-.485.444-.47.808-.004.23.08.543.253.94.887 2.193 1.36 3.495 1.413 3.92zM24.45 67.624c-.758.06-1.548.322-2.367.81-.234.132-.33.315-.29.536.03.13.088.232.19.277.092.047.198.058.313.008.274-.108.494-.102.64.036.076.076.168.272.282.567l.6 1.55c.246.665.446 1.18.578 1.552.567 1.555 1.038 2.892 1.412 4.01.07.202.146.333.232.406.102.09.245.115.42.075.13-.03.228-.11.29-.238.012-.048.04-.18.08-.397.038-.238-.1-.688-.42-1.372-.386-.77-.792-1.78-1.218-3.023-.683-1.907-1.048-2.936-1.09-3.064-.114-.295-.142-.518-.063-.674.067-.153.27-.27.598-.345 1.546-.378 3.167-.28 4.845.307.88.326 1.39.988 1.544 1.997.094.656.027 1.314-.2 1.974-.42 1.21-.84 2.178-1.27 2.908-.576.993-1.264 1.794-2.078 2.405-.392.297-.458.61-.18.913.314.364.65.332 1.024-.098.4-.46.767-.956 1.114-1.495 1.402-2.146 2.192-4.05 2.36-5.706.17-1.758-.544-2.947-2.13-3.58-1.872-.74-3.613-.855-5.218-.336zM42.154 64.74c.082-.04.28-.075.578-.086.32-.005.555-.036.725-.098.246-.08.417-.234.503-.46.08-.202.076-.42-.002-.654-.114-.294-.417-.362-.916-.18-.306.118-1.58.572-3.82 1.34-1.554.54-2.81 1.025-3.783 1.444-.785.34-1.414.51-1.898.506-.598 0-.94.067-1.036.192-.106.14-.068.452.105.95.442 1.31.723 2.175.843 2.595.262.982.38 1.885.348 2.695-.002.333.137.588.43.76.19.12.35.414.498.908.035.152.127.452.272.878.108.366.2.666.26.88.182.682.61.893 1.268.65.28-.087.605-.22.99-.4 2.152-.93 3.737-1.49 4.74-1.676.62-.108.87-.465.733-1.064-.055-.24-.2-.366-.41-.386-.118-.008-.317.026-.596.113-.6.196-.982.33-1.147.413-.39.205-.96.428-1.706.68-.803.254-1.375.466-1.715.636-.538.262-.9.334-1.106.243-.182-.085-.382-.406-.593-.966-.005-.022-.03-.084-.072-.213-.02-.085-.05-.16-.086-.22-.145-.276-.174-.5-.1-.677.066-.164.26-.323.582-.466 1.81-.83 3.257-1.438 4.365-1.82.438-.146.754-.322.943-.55.188-.226.21-.426.063-.622-.208-.25-.457-.33-.736-.243-.093.044-.22.096-.362.175-.18.11-.305.173-.368.2-1.735.754-3.003 1.287-3.803 1.61-.57.222-.943.297-1.102.207-.167-.077-.325-.408-.483-.99-.062-.216-.148-.586-.258-1.11-.11-.48-.197-.85-.268-1.11-.108-.365-.105-.652.03-.867.112-.21.36-.38.72-.51l3.593-1.378c1.468-.568 2.724-1.006 3.777-1.33zM45.813 64.6c.193.184.292.264.303.26.696-.124 1.248.024 1.648.46.245.265.5.768.785 1.505l.672 1.864c.097.367.575 1.886 1.438 4.566.097.322.258.47.462.456.294-.022.484-.192.54-.55.036-.19-.005-.468-.135-.828-.378-1.037-.645-1.744-.79-2.124-.214-.524-.275-.89-.206-1.088.07-.2.35-.425.845-.676.06-.037.227-.11.523-.224 1.372-.533 2.27-.832 2.692-.895.256-.036.444-.17.55-.402.114-.21.11-.426-.003-.664-.108-.216-.258-.32-.438-.3-.034.007-.2.08-.502.22-.406.184-.99.444-1.755.77-.794.343-1.378.604-1.756.76-.228.11-.405.14-.53.1-.146-.037-.27-.18-.36-.412-.34-.874-.658-1.604-.955-2.19-.136-.29-.164-.512-.088-.68.07-.14.247-.273.54-.398 1.85-.758 2.773-1.143 2.762-1.14.355-.105 1.127-.398 2.31-.9.95-.38 1.728-.638 2.367-.762.278-.04.487-.18.627-.42.132-.225.14-.434.03-.615-.124-.19-.29-.266-.493-.242-.065.016-.15.047-.257.083-.137.054-.222.085-.265.095-.096.034-.277.1-.53.203l-6.553 2.748c-.367.154-.632.25-.788.273-.29.045-.57-.028-.817-.2-.134-.084-.28-.12-.444-.08-.178.028-.274.107-.29.237-.046.25-.226.465-.53.638-.347.195-.547.378-.61.554zM68.716 58.627c.082-.043.28-.077.578-.088.32-.006.555-.037.725-.1.245-.078.416-.232.502-.46.08-.2.075-.417-.002-.652-.114-.295-.417-.363-.916-.18-.306.117-1.582.57-3.82 1.34-1.554.54-2.81 1.025-3.784 1.444-.783.34-1.412.508-1.896.505-.598 0-.94.067-1.037.192-.105.14-.068.45.105.95.442 1.31.723 2.174.843 2.594.262.984.38 1.886.348 2.696-.004.334.136.588.43.76.187.12.348.414.497.908.035.152.127.452.272.878.107.365.2.665.26.88.182.68.61.892 1.267.65.278-.088.604-.22.988-.4 2.154-.932 3.74-1.492 4.743-1.677.62-.11.87-.465.732-1.064-.055-.24-.2-.367-.41-.387-.118-.01-.317.026-.596.113-.6.195-.982.33-1.147.413-.39.204-.96.428-1.707.68-.804.253-1.376.465-1.717.636-.537.26-.9.333-1.105.242-.18-.084-.38-.405-.59-.964-.006-.022-.032-.085-.073-.213-.02-.087-.05-.16-.086-.22-.143-.278-.172-.5-.098-.678.066-.165.26-.325.582-.468 1.81-.83 3.257-1.438 4.365-1.82.436-.146.752-.322.94-.55.19-.226.213-.426.064-.62-.207-.252-.456-.332-.735-.245-.094.045-.22.096-.363.175-.18.11-.305.174-.368.2-1.736.754-3.004 1.288-3.804 1.61-.57.222-.944.297-1.103.207-.167-.077-.324-.408-.482-.99-.06-.217-.146-.587-.256-1.112-.11-.48-.197-.85-.268-1.108-.108-.366-.105-.653.03-.867.112-.21.36-.382.72-.51l3.593-1.378c1.467-.568 2.723-1.006 3.776-1.328zM74.964 61.02c.266.007.528.142.773.407l4.22 4.81c.31.342.453.515.448.493.2.172.412.192.64.082.22-.096.36-.278.437-.548.035-.146.058-.392.068-.75-.004-.114-.048-.356-.112-.73-.097-.518-.273-1.28-.516-2.28-.237-1.023-.41-1.775-.503-2.27-.344-1.78-.414-3.323-.205-4.656.03-.168-.018-.33-.13-.464-.123-.132-.28-.21-.482-.244-.375-.03-.607.162-.713.6-.04.17-.042.365-.002.585.126.843.313 2.096.57 3.758.248 1.664.445 2.914.567 3.735l.055.24c.025.11.032.188.034.244 0 .196-.102.357-.327.477-2.103-2.327-3.75-4.415-4.958-6.26-.05-.056-.125-.188-.227-.382-.096-.162-.17-.283-.227-.384-.16-.193-.38-.245-.675-.132-.207.094-.31.244-.306.462 0 .206.01.398.057.594l.79 4.453c.257 1.708.33 3.217.242 4.522-.024.396.136.59.492.587.163.007.302-.036.416-.143.105-.093.165-.233.173-.395.037-.537.027-1.027-.022-1.487-.046-.4-.23-2.045-.576-4.925zM84.563 53.785c-.757.06-1.548.322-2.367.81-.233.133-.33.316-.29.536.03.132.09.233.19.278.093.048.2.058.314.008.274-.108.494-.1.64.037.076.074.167.27.282.566l.6 1.547c.246.666.446 1.182.578 1.553.567 1.556 1.038 2.893 1.412 4.01.07.203.146.335.23.407.103.09.247.115.42.075.133-.03.23-.11.29-.24.013-.047.04-.18.082-.396.037-.238-.102-.687-.42-1.37-.387-.773-.793-1.78-1.22-3.025-.682-1.906-1.047-2.935-1.088-3.063-.114-.295-.143-.518-.064-.674.068-.153.272-.27.6-.344 1.545-.38 3.167-.283 4.844.306.88.325 1.39.988 1.544 1.996.094.656.028 1.313-.2 1.973-.42 1.21-.84 2.18-1.27 2.908-.575.993-1.264 1.794-2.077 2.406-.392.295-.457.61-.18.912.314.364.652.332 1.024-.098.4-.46.768-.957 1.115-1.496 1.4-2.146 2.19-4.05 2.36-5.705.168-1.76-.544-2.95-2.13-3.582-1.873-.738-3.614-.853-5.22-.335zM101.263 61.17c-1.227.17-2.22.157-2.972-.014-1.017-.225-1.853-.755-2.496-1.593-1.482-1.93-1.662-3.897-.527-5.902.335-.592.663-1.012.994-1.27.448-.357.98-.49 1.597-.415.452.068.686-.066.676-.408.007-.368-.183-.59-.56-.685-.863-.192-1.6 0-2.225.58-1.24 1.204-1.986 2.454-2.214 3.757-.223 1.22-.126 2.334.27 3.355.4 1.032 1.09 1.917 2.068 2.667 1.684 1.31 3.738 1.537 6.19.698 2.013-.693 3.257-2.38 3.724-5.08.232-1.383-.25-2.615-1.466-3.7-1.084-.955-2.298-1.478-3.645-1.58-.185-.004-.337.03-.456.115-.14.1-.236.226-.266.394-.078.36.08.59.482.69.16.045.365.09.626.12.323.053.537.084.632.096.783.152 1.44.46 1.973.922.538.485.883 1.082 1.036 1.792.26 1.317.014 2.544-.74 3.658-.73 1.074-1.627 1.67-2.7 1.803zM115.027 48.975c.288.048.49.174.616.374.955 1.638 1.495 2.58 1.62 2.826.214.422.29.702.228.83-.07.144-.347.288-.828.445-.487.182-1.032.364-1.612.544-.235.077-.398.07-.513-.03-.102-.092-.137-.245-.11-.48l.6-4.51zm-2.09 9.807c.062.26.187.405.414.444.302.057.5-.08.588-.4.02-.06.04-.272.07-.635.094-1.236.15-1.938.16-2.1.006-.564.3-.94.873-1.142 1.208-.404 1.952-.667 2.245-.792.307-.116.552-.15.728-.087.2.068.362.27.492.585.058.148.484 1.048 1.308 2.716.178.373.423.49.736.348.292-.125.406-.38.36-.772-.007-.032-.107-.216-.31-.548-.534-.863-.81-1.316-.82-1.36-.043-.08-.114-.19-.204-.33-.12-.168-.194-.29-.222-.363-.153-.263-.198-.505-.13-.704.073-.188.25-.32.533-.386l.382-.087c.157-.014.288-.044.373-.075.12-.028.203-.07.24-.102.244-.193.295-.47.155-.826-.104-.252-.323-.305-.666-.145-.165.082-.29.134-.352.17-.602.232-.97.328-1.12.282-.148-.046-.366-.34-.652-.882-.84-1.54-1.698-2.96-2.598-4.266-.154-.217-.282-.37-.392-.45-.166-.12-.356-.147-.564-.1-.322.1-.46.395-.418.878.07.798.003 1.8-.18 3-.284 1.753-.433 2.75-.448 2.983-.03.317-.094.538-.178.672-.115.2-.334.295-.65.276-.22-.007-.335.09-.358.29-.02.107 0 .194.052.274.042.082.12.12.215.134.406.068.634.256.7.54.03.13.005.422-.05.882-.016.13-.12.82-.312 2.08zM30.603 91.123c.135.382.265.994.41 1.82.2 1.206.324 1.946.387 2.218.09.44.307.63.64.576.31-.05.513-.267.6-.688.025-.19-.036-.45-.185-.796-.314-.66-.618-1.727-.893-3.212-.13-.66-.572-2.622-1.335-5.865-.007-.032-.102-.24-.285-.633-.162-.353-.37-.5-.606-.435-.257.082-.416.29-.487.63-.054.17.01.444.15.802.474 1.15 1.008 3.013 1.603 5.583zM34.45 87.966c.267.007.53.142.774.407l4.22 4.81c.31.342.453.515.447.493.202.172.414.192.642.082.22-.096.36-.277.437-.548.034-.145.057-.392.067-.75-.004-.113-.048-.355-.112-.73-.097-.518-.273-1.28-.516-2.28-.238-1.023-.412-1.775-.504-2.27-.343-1.78-.413-3.323-.204-4.656.03-.168-.018-.328-.13-.463-.123-.132-.28-.21-.482-.244-.375-.028-.607.162-.713.6-.04.17-.042.365-.002.585.126.844.313 2.098.57 3.76.248 1.663.445 2.913.566 3.735l.057.24c.025.108.032.187.034.244 0 .194-.1.355-.326.476-2.103-2.327-3.748-4.415-4.958-6.258-.048-.058-.124-.19-.227-.384-.096-.162-.17-.282-.228-.384-.16-.192-.378-.245-.674-.13-.208.093-.312.243-.308.46.002.206.012.4.058.594l.79 4.453c.256 1.708.33 3.216.24 4.522-.023.394.137.587.493.585.164.008.303-.035.417-.142.105-.092.164-.233.173-.395.037-.536.027-1.027-.022-1.486-.047-.402-.232-2.046-.577-4.926zM50.13 80.606c1.212-.28 1.878-.433 1.995-.472.37-.096.613-.186.75-.287.243-.147.328-.374.258-.678-.084-.315-.27-.467-.557-.47-.174-.006-.423.063-.746.206-.294.125-1.512.428-3.655.91-.72.166-2.764.683-6.108 1.544-.257.082-.438.193-.544.332-.145.17-.16.358-.073.58.124.337.443.424.96.27.13-.03.744-.216 1.816-.555.708-.22 1.174-.293 1.4-.208.228.085.498.46.808 1.098 1.24 2.675 1.97 5.225 2.19 7.675.032.383.068.638.11.767.08.302.276.452.58.428.206-.013.376-.12.486-.34.206-.404.215-.91.052-1.516-.144-.472-.317-1.12-.53-1.943l-.515-1.924c-.42-1.52-.863-2.784-1.312-3.782-.322-.694-.108-1.11.62-1.244l2-.46.014.066zM64.55 77.205c.082-.04.282-.076.578-.087.32-.005.555-.036.725-.098.246-.08.418-.234.503-.46.08-.202.076-.42 0-.653-.116-.295-.42-.363-.917-.18-.308.117-1.583.57-3.82 1.338-1.555.542-2.812 1.026-3.785 1.445-.784.342-1.412.51-1.896.506-.6 0-.94.066-1.038.192-.106.14-.068.452.105.95.44 1.31.722 2.175.842 2.595.26.983.378 1.886.347 2.696-.003.332.136.587.43.76.188.118.348.414.497.907.035.152.128.452.273.878.107.365.2.665.26.88.182.68.61.893 1.267.65.28-.088.605-.22.99-.4 2.153-.932 3.737-1.492 4.74-1.677.62-.108.872-.464.733-1.063-.055-.24-.2-.367-.412-.387-.116-.008-.316.026-.594.114-.598.195-.982.33-1.146.413-.39.204-.96.427-1.706.68-.805.254-1.377.465-1.717.635-.537.262-.9.334-1.105.243-.18-.084-.38-.405-.59-.965-.006-.02-.032-.084-.073-.212-.02-.088-.05-.16-.086-.22-.145-.278-.173-.5-.1-.68.066-.163.26-.322.583-.465 1.81-.83 3.255-1.437 4.363-1.818.438-.147.754-.323.943-.55.19-.227.212-.427.063-.623-.21-.25-.457-.33-.736-.244-.093.044-.22.096-.362.175-.182.11-.305.174-.368.2-1.735.755-3.004 1.288-3.804 1.61-.57.223-.943.297-1.102.208-.167-.076-.324-.407-.482-.99-.062-.215-.147-.586-.257-1.11-.112-.48-.198-.85-.27-1.11-.107-.365-.105-.652.03-.867.112-.208.36-.38.72-.51l3.594-1.376c1.468-.568 2.724-1.006 3.776-1.33zM76.046 82.784c.514-.015 1.284-.066 2.313-.143 1.018-.073 1.777-.12 2.29-.147 1.746-.058 3.244.102 4.493.48.286.094.492.138.607.135.206-.002.374-.12.504-.357.033-.053.084-.133.17-.256.078-.11.137-.204.168-.268.113-.21.1-.413-.013-.605-.176-.257-.552-.39-1.126-.383-.307.014-1.67-.006-4.096-.054-1.664-.03-3.02.018-4.098.14-.714.096-1.198-.01-1.47-.293-.05-.207-.002-.4.12-.578.032-.053.1-.115.17-.2.103-.104.17-.165.186-.192 2.192-2.558 3.25-3.8 3.19-3.716.51-.68.65-1.263.425-1.74-.233-.46-.78-.737-1.63-.84-1.782-.186-4.006-.006-6.678.53-1.108.23-2.12.624-3.05 1.183-.204.115-.35.23-.42.326-.125.154-.133.317-.055.506.172.395.48.44.916.132.496-.344 1.413-.658 2.737-.95 1.908-.406 2.904-.624 3.013-.65 1.156-.174 2.176-.19 3.074-.04.455.077.725.198.814.384.09.187.028.465-.212.818-.264.405-1.49 1.72-3.69 3.947-.664-.936-1.156-2.12-1.49-3.556-.075-.327-.235-.474-.47-.443-.2.025-.357.198-.46.497-.103.3-.08.65.065 1.075.395 1.113.63 1.725.703 1.846.208.353.298.79.278 1.3-.045.85-.063 1.266-.066 1.255.007.228.276.544.796.953.498.412.743.826.747 1.238.002.206.116.548.352 1.02.178.373.4.54.68.51.296-.022.54-.262.708-.726.086-.272.044-.606-.13-1.003-.23-.497-.35-.87-.364-1.13zM88.273 75.575c.267.008.528.143.773.407l4.22 4.81c.31.342.453.516.448.494.2.17.413.192.64.082.22-.096.362-.278.437-.548.036-.146.06-.392.07-.75-.004-.113-.05-.356-.113-.73-.096-.518-.273-1.28-.516-2.28-.236-1.023-.41-1.775-.5-2.27-.344-1.78-.414-3.324-.205-4.656.03-.168-.02-.33-.13-.464-.123-.132-.28-.21-.483-.244-.375-.03-.606.162-.712.6-.04.17-.042.365-.003.585.126.844.313 2.097.57 3.76.248 1.662.446 2.913.567 3.734l.055.24c.025.11.03.187.033.244 0 .196-.102.356-.327.477-2.103-2.326-3.748-4.414-4.957-6.257-.05-.06-.126-.19-.228-.384-.095-.162-.17-.282-.227-.384-.16-.193-.38-.246-.675-.13-.208.092-.31.242-.307.46.002.206.012.398.057.594l.79 4.453c.257 1.707.33 3.216.24 4.522-.022.394.137.586.493.585.163.008.303-.035.416-.142.104-.093.164-.233.172-.395.037-.536.027-1.028-.022-1.487-.047-.4-.232-2.044-.576-4.925zM105.092 67.872c.082-.04.28-.076.578-.087.32-.005.555-.036.725-.098.246-.08.417-.234.503-.46.08-.202.076-.42-.002-.653-.114-.295-.417-.363-.915-.18-.306.117-1.58.57-3.82 1.338-1.554.542-2.81 1.026-3.783 1.445-.784.342-1.413.51-1.897.506-.598 0-.94.066-1.036.192-.106.14-.068.452.105.95.44 1.31.72 2.175.84 2.595.263.983.38 1.886.35 2.696-.004.333.135.588.428.76.19.12.35.414.498.908.035.152.128.452.272.878.108.365.2.665.26.88.182.68.61.893 1.268.65.28-.088.605-.22.99-.4 2.153-.932 3.737-1.492 4.74-1.677.62-.108.87-.464.733-1.063-.057-.24-.2-.367-.413-.387-.117-.008-.316.026-.595.114-.6.194-.982.328-1.147.412-.39.204-.96.427-1.706.68-.805.254-1.377.465-1.717.635-.538.262-.9.334-1.106.243-.18-.084-.38-.405-.59-.965-.007-.02-.032-.084-.074-.212-.02-.088-.05-.16-.085-.22-.145-.278-.174-.5-.1-.68.066-.163.26-.322.583-.465 1.81-.83 3.257-1.438 4.365-1.82.438-.146.754-.322.942-.55.19-.226.212-.426.063-.622-.207-.25-.456-.33-.735-.243-.093.044-.22.096-.362.175-.18.11-.305.173-.368.2-1.735.755-3.003 1.287-3.803 1.61-.57.222-.943.296-1.102.207-.167-.076-.325-.407-.483-.99-.06-.215-.147-.586-.257-1.11-.11-.48-.196-.85-.268-1.11-.107-.365-.105-.652.03-.867.112-.21.36-.38.72-.51l3.594-1.377c1.467-.567 2.723-1.005 3.776-1.328zM117.233 65.158c1.212-.28 1.878-.433 1.996-.472.368-.096.61-.186.75-.287.24-.148.327-.375.256-.68-.084-.313-.27-.465-.557-.468-.175-.005-.424.063-.747.206-.293.126-1.51.43-3.655.91-.72.167-2.764.683-6.107 1.545-.257.082-.438.192-.544.33-.144.172-.16.36-.073.58.125.34.444.426.96.272.132-.03.744-.217 1.816-.555.707-.22 1.174-.293 1.4-.21.227.087.498.46.807 1.1 1.24 2.675 1.97 5.226 2.19 7.675.032.383.068.64.11.767.08.302.277.452.582.428.203-.012.373-.12.483-.34.206-.404.215-.91.052-1.516-.143-.47-.316-1.12-.53-1.943l-.514-1.922c-.42-1.52-.862-2.784-1.312-3.782-.322-.694-.108-1.11.62-1.244l2-.46.015.066zM48.41 114.027c1.317-.13 2.01-.21 2.1-.23.365-.108.64-.366.818-.786.18-.407.196-.79.026-1.13-.29-.552-.667-.694-1.15-.4-.815.51-1.984.927-3.505 1.266-1.825.42-3.027.743-3.605.98-1.09.456-1.82.142-2.168-.97-.03-.085-.203-.527-.52-1.303-2.706-6.72-4.137-10.267-4.27-10.638-.16-.398-.327-.67-.477-.82-.235-.22-.52-.258-.852-.1-.54.25-.623.785-.252 1.594 2.218 4.857 4.037 9.337 5.445 13.43.275.785.563 1.235.893 1.365.313.112.897 0 1.735-.353 1.997-.816 3.92-1.454 5.783-1.905zM52.396 106.594c.188.564.382 1.45.593 2.662.29 1.746.48 2.826.574 3.23.125.636.432.92.92.843.467-.075.758-.406.872-1.005.052-.276-.037-.657-.267-1.155-.454-.963-.885-2.526-1.292-4.68-.192-.978-.84-3.834-1.96-8.566-.01-.044-.15-.344-.407-.916-.235-.52-.538-.736-.885-.645-.375.12-.614.428-.718.923-.057.254.023.648.237 1.172.676 1.68 1.454 4.392 2.332 8.136zM62.75 107.79c-.503.012-.887-.106-1.16-.342-.072-.063-.253-.297-.55-.687-.494-.69-1.68-2.285-3.55-4.803-.532-.704-1.1-.814-1.71-.33-.32.258-.476.535-.45.84.02.292.17.59.467.878.833.817 1.837 1.974 3 3.473 1.465 1.9 2.422 3.102 2.872 3.606.02.04.118.168.283.382.12.168.23.292.325.36.276.248.593.277.96.124.535-.226.87-.762 1.017-1.622.02-.12.04-.273.04-.48.006-.265 0-.436.008-.506.404-5.21 1.184-9.943 2.343-14.18.13-.476.16-.85.074-1.117-.12-.317-.406-.514-.86-.582-.824-.086-1.233.387-1.233 1.43-.027 1.52-.348 3.763-.948 6.735-.613 2.974-.926 5.25-.93 6.82zM80.447 103.233c.756-.013 1.877-.088 3.378-.215 1.48-.112 2.594-.173 3.346-.208 2.547-.082 4.73.15 6.55.706.423.144.724.2.882.187.31-.002.558-.174.735-.502.04-.077.126-.2.243-.388.123-.165.21-.29.255-.39.158-.313.147-.608-.02-.88-.248-.378-.8-.573-1.648-.56-.446.01-2.44-.012-5.978-.082-2.403-.043-4.39.024-5.96.202-1.04.125-1.76-.007-2.153-.41-.07-.305-.01-.594.173-.843.05-.08.142-.183.264-.303.147-.16.227-.258.255-.288 3.188-3.718 4.75-5.522 4.66-5.41.735-.995.94-1.846.608-2.537-.34-.68-1.127-1.095-2.376-1.22-2.594-.275-5.834-.01-9.726.77-1.627.33-3.105.9-4.458 1.715-.302.184-.51.335-.615.474-.178.225-.2.482-.08.753.258.56.708.617 1.342.173.726-.49 2.056-.956 3.984-1.376l4.393-.943c1.688-.263 3.178-.285 4.496-.06.647.114 1.046.297 1.185.552.13.268.03.67-.32 1.198-.392.595-2.178 2.52-5.374 5.757-.972-1.37-1.697-3.108-2.18-5.2-.107-.457-.342-.678-.69-.643-.29.043-.51.29-.66.736-.153.426-.125.947.098 1.56.582 1.622.917 2.52 1.028 2.7.3.505.436 1.14.4 1.882-.068 1.243-.098 1.858-.1 1.847.02.338.404.8 1.16 1.384.734.588 1.093 1.193 1.095 1.8 0 .3.164.8.507 1.49.262.536.584.784.99.748.44-.033.785-.388 1.03-1.064.13-.385.063-.874-.19-1.47-.34-.725-.513-1.27-.53-1.645zM108.917 84.692c.132-.076.41-.117.832-.134.47-.005.826-.053 1.06-.14.36-.13.61-.348.74-.676.117-.29.125-.603 0-.94-.17-.444-.615-.525-1.338-.267-.443.172-2.296.816-5.576 1.95-2.255.794-4.084 1.49-5.507 2.104-1.138.502-2.06.75-2.774.74-.864-.006-1.372.088-1.51.28-.152.196-.103.655.158 1.386.648 1.904 1.055 3.164 1.22 3.78.38 1.438.557 2.75.51 3.943-.002.482.198.85.625 1.106.268.167.508.606.72 1.325.064.227.198.656.4 1.274.168.535.302.963.386 1.276.276.992.888 1.3 1.856.96.394-.136.876-.338 1.44-.583 3.136-1.364 5.44-2.193 6.908-2.462.91-.152 1.274-.66 1.072-1.53-.08-.35-.284-.533-.6-.563-.19-.014-.475.04-.874.155-.867.28-1.43.48-1.678.605-.565.29-1.398.62-2.487.985-1.165.383-2.002.69-2.5.93-.775.375-1.313.487-1.61.35-.27-.123-.56-.583-.866-1.408-.005-.022-.04-.13-.095-.31-.04-.13-.088-.234-.13-.316-.21-.41-.26-.73-.148-.987.105-.242.386-.467.844-.676 2.638-1.225 4.76-2.103 6.378-2.66.632-.203 1.088-.468 1.37-.797.27-.326.3-.632.09-.904-.305-.367-.667-.49-1.072-.35-.137.053-.315.13-.53.236-.274.166-.458.266-.542.297-2.517 1.107-4.36 1.887-5.53 2.35-.833.33-1.373.432-1.62.305-.235-.118-.474-.602-.692-1.447-.098-.32-.22-.854-.373-1.61-.162-.697-.3-1.24-.41-1.616-.158-.536-.142-.965.05-1.284.17-.303.517-.543 1.048-.735l5.252-2.01c2.135-.814 3.974-1.467 5.5-1.933zM117.087 89.074c-.118-.363-.53-1.598-1.254-3.726-.51-1.51-.94-2.766-1.26-3.76-.08-.244-.178-.417-.294-.517-.143-.115-.343-.137-.595-.08-.497.137-.666.452-.528.948.04.174.133.474.297.884.123.384.216.684.264.89.065.284.457 1.48 1.172 3.574.47 1.44.71 2.67.705 3.692-.01.21.058.4.21.56.155.17.34.277.574.292.26.032.48-.054.656-.243.108-.13.23-.35.355-.655.106-.243.092-.55-.018-.925-.176-.51-.27-.82-.285-.933zm.508 6.766c-.674.316-.928.81-.777 1.464.066.283.193.483.38.6.194.14.44.163.723.087.747-.205 1.04-.675.89-1.42-.1-.436-.5-.676-1.215-.73zM117.888 82.994c.123.132.222.362.284.68.072.408.143.667.204.78.11.272.22.453.337.564.16.147.367.19.613.11.28-.075.464-.232.57-.474.084-.226.077-.454-.038-.703-.116-.2-.48-1.184-1.116-2.93-.067-.192-.198-.31-.374-.373-.173-.053-.363-.032-.552.046-.16.06-.273.166-.332.306-.06.14-.07.29-.033.454.02.076.162.594.438 1.54zm4.81-.247c-.29-.954-.445-1.47-.465-1.557-.086-.174-.218-.293-.404-.354-.17-.03-.35-.022-.548.023-.16.058-.275.154-.334.294-.084.134-.095.285-.057.45.074.314.23.84.47 1.577.025.11.065.284.112.537.036.256.068.444.115.547.065.18.152.31.273.385.146.08.34.08.6.01.24-.055.4-.172.478-.328.064-.118.075-.27.052-.47-.026-.11-.07-.306-.156-.573-.077-.235-.13-.418-.137-.543z"/></g><path d="M74.277 134.376L94.883 147l-2.117-25.248-18.49 12.624z"/><path d="M43 163.364c0-6.894 1.47-8.364 8.36-8.364h197.28c6.89 0 8.36 1.47 8.36 8.364V309H43V163.364z" fill="#1c1c1c"/><path d="M51.5 165h197v134h-197V165z" fill="#fff"/><path d="M43 308L3 322h296l-41-13-215-1z" fill="#9f9f9f"/><path d="M62 310l-10 5h195l-10-5H62z" fill="#1c1c1c"/><path d="M2 322h296v9s2.333 5-13 5H16s-12.76 2.928-14-7c-.333-2.666 0-7 0-7z" fill="#c9c9c9"/><path d="M120 316l-7 4h73l-6-4h-60z" fill="#c7c7c7"/><path d="M171 324.5c0 1.38-1.12 2.5-2.5 2.5h-37c-1.38 0-2.5-1.12-2.5-2.5h42z" fill="#858585"/><path fill="#737373" d="M266 330.5h11v1h-11z"/><path opacity=".502" d="M150.97 165.016h98l-.084 134.1h-98l.083-134.1z" fill="#fff"/><g><path d="M113 167l-19 25s1.75 35.5 2 36 29.69 44.305 56.425 43.36C181.717 270.325 201.5 248.25 206 220s.25-48.25 0-49-93-4-93-4z" fill="#e9b989"/><path d="M111 202c-.054-.036.085-.187.375-.42 1.733-1.39 9.627-5.437 13.375-5.33 4.375.125 10 3.75 12.25 1.75s-2.747-4.8-6-5c-16.375-1-19.625 9.25-20 9zM195.552 202c.054-.036-.085-.187-.374-.42-1.734-1.39-9.627-5.437-13.376-5.33-4.375.125-10 3.75-12.25 1.75s2.747-4.8 6-5c16.375-1 19.625 9.25 20 9z" stroke="#ffffff00" fill="#402000"/><path d="M108 178c.875-.09 36.867 14.143 57 12 20.133-2.143 36-6 36-6s.118 15 0 22 0 7 0 7l1 10 6-4s7.093-26.49 8-36c.907-9.51-4.276-18.82-5-19-.724-.18 5 2 5 2s-6.023-11.663-10-15c-3.977-3.337-4-5-4-5s2.51-.124 5 2 3 3 3 3-2.435-8.068-10-13c-7.565-4.932-14.883-6.777-15-7-.117-.223 1.462-2.2 5-1 3.538 1.2 3 1 3 1s-4.427-6.358-19-8c-14.573-1.642-22.48-.14-24 0-1.52.14-2.057-1.122-2-1 .057.122.33-2.897 1-3 .67-.103-14.764 2.065-23 9-8.236 6.935-14.08 10.095-14 10 .072-.086-12.14 10.8-15.618 19.523-3.48 8.723-.382.477-.382.477s-6.13 10.248-6.5 18.5c-.37 8.252-.18 22.936.25 25.75 1.563 10.188 4.085 15.843 4.72 18.11.637 2.265 2.152-13.386 3.03-13.836.88-.45 7.463-5.304 7.5-5.524.037-.22 1.285-8.592 1-12-.285-3.408 1.125-10.91 2-11z" stroke="#ffffff00" fill="#402000"/><path stroke="#ffffff00" fill="#e9b989" d="M146 268.5h14v8h-14z"/><path d="M97.845 228c-.344-.156-1-6-1-6s1.187 1.313 0 0c-1.188-1.313-2.5-3.188-5-2-2.5 1.188-3.5 4.438-2 7 1.5 2.563 6.25 5.156 8 5 1.75-.156.344-3.844 0-4z" stroke="#ffffff00" fill="#f8c19a"/><path d="M129 241s12.898 2.867 23 3 26-2 26-2-7.708 10.694-11 13c-3.292 2.306-12 4-12 4l-13-1s-6.296-4.06-9-8c-2.704-3.94-4-9-4-9z" stroke="#ffffff00" fill="#370201"/><path d="M137 270c-.082.496-30.19 2.316-34 2-3.81-.316-10.665-5.228-11-5-.335.228-2-1-2-1l-3 8s3.85 1.66 5 2c1.15.34 6.94 2.228 6.94 2.228 7.024 2.247 18.678.226 25.06-.228 6.382-.454 8.35-2.24 9-2 .65.24-2 20-2 20l-1 3h42l-2.124-23.453L195 271c9.03-1.5 28-7 28-7l-8-11s-9.748 5.65-22 10c-8.56 3.04-23.593 6.526-23.593 6.526s-2.532.446-4.407-.526c-2.218-1.15-10.145 3.21-13.005 4.195L137 270z" stroke="#ffffff00" fill="#c6c6c6"/><path d="M128.858 219.38c0-4.337 1.76-7.853 3.934-7.853 2.173 0 3.934 3.516 3.934 7.853s-1.76 7.853-3.934 7.853c-2.173 0-3.934-3.516-3.934-7.853zM167.214 219.38c0-4.337 1.76-7.853 3.934-7.853 2.172 0 3.934 3.516 3.934 7.853s-1.762 7.853-3.934 7.853c-2.173 0-3.934-3.516-3.934-7.853z"/><g opacity=".6"><path d="M191.817 204.737s7.973 1.4 8.072 7.598c.1 6.198-2.094 15.395-2.094 15.395s.5-1 0 .3c-.498 1.3-2.29 4.998-7.075 5.698-4.783.7-15.744 1.5-20.03-.7-4.285-2.2-8.87-10.196-8.968-18.094-.1-7.897 3.986-9.397 12.855-10.597 8.87-1.2 14.25 0 17.24.4z" fill="#e0f3f7"/><path d="M186.52 205.012c-2.115-.198-4.7-.3-7.817-.102l-10.668 27.04c.87.898 1.77 1.605 2.655 2.06.27.14.567.265.887.38l14.944-29.378z" fill="#f1fbfc"/></g><path d="M208.89 202.152c-3.62-1.13-33.484-2.263-41.32-.532-7.842 1.732-10.987 4.4-15.104 4.4-4.122 0-8.594-4-17.097-4.532-8.507-.535-25.98-1.4-39.133.332 0 0-1.926.2-1.794 2.6.132 2.4.797 5.865.797 5.865s0 1.2 1.327 1.332c1.332.132 1.862.4 2.66 1.6.797 1.2 1.087 22.164 10.463 24.192 7.243 1.566 26.078 2.73 30.993-2.732 4.915-5.466 6.776-12.396 7.705-14.932.933-2.53-.443-6.13 4.078-5.73 4.516.4 3.276 3.2 3.942 5.73.662 2.536 4.25 12.133 7.837 14.664 3.587 2.53 7.71 5.066 18.603 4.53 10.895-.532 16.344-1.863 18.337-7.86 1.993-6 3.986-16.264 3.986-16.264s.268-2.93 1.727-3.067c1.463-.133 1.73.135 2.26-.932l.53-1.068.798-5.462s.13-1.596-1.595-2.136zm-74.784 31.858c-4.286 2.2-15.248 1.4-20.03.7-4.784-.7-6.578-4.4-7.077-5.7-.5-1.298 0-.3 0-.3s-2.193-9.196-2.094-15.393c.1-6.2 8.073-7.598 8.073-7.598 2.988-.4 8.37-1.6 17.24-.4 8.868 1.2 12.954 2.7 12.855 10.596-.1 7.898-4.684 15.894-8.97 18.094zm63.69-5.3s.5-.998 0 .3c-.498 1.302-2.29 5-7.075 5.7-4.783.7-15.744 1.5-20.03-.7-4.285-2.2-8.87-10.196-8.968-18.094-.1-7.897 3.986-9.397 12.855-10.597 8.87-1.2 14.25 0 17.24.4 0 0 7.973 1.398 8.072 7.597.1 6.197-2.094 15.394-2.094 15.394z" fill="#171518"/><g opacity=".6"><path d="M112.98 204.737s-7.974 1.4-8.074 7.598c-.1 6.198 2.093 15.395 2.093 15.395s-.5-1 0 .3c.498 1.3 2.29 4.998 7.075 5.698 4.783.7 15.745 1.5 20.03-.7 4.286-2.2 8.87-10.196 8.97-18.094.1-7.897-3.987-9.397-12.856-10.597-8.87-1.2-14.252 0-17.24.4z" fill="#e0f3f7"/><path d="M130.22 204.337c-3.61-.487-6.632-.576-9.16-.484l-7.89 29.698c.29.072.59.132.905.178 2.464.36 6.568.747 10.554.736l12.166-28.84c-1.793-.556-3.978-.934-6.577-1.287zM140.093 208.17l-10.14 26.96c1.658-.225 3.105-.583 4.153-1.12 4.285-2.2 8.87-10.196 8.97-18.094.047-3.895-.924-6.233-2.983-7.747z" fill="#f1fbfc"/></g><path d="M151.478 274.388l-.983.982 1.966 2.945 1.97-1.963-.985-1.964h-1.967z" fill="#13848a"/><path d="M153.32 276.485l-1.842-.133-.983 8.834-.97 13.814h5.875l-.97-13.814-1.11-8.7z" fill="#13848a"/><path opacity=".4" d="M186.268 104.728l4.188.03-1.743 15.093-2.445-15.122zM201.922 105.32l3.436 2.094-8.367 14.184 4.932-16.278zM216.287 115.04l1.052 3.92-15.212 7.155 14.16-11.075z"/><path d="M76.78 242.818c-.278-.158-2.7-1.192-5.717-.635-3.017.556-8.854 4.808-10.164 6.994-1.31 2.186-2.462 6.677-1.906 8.902.556 2.225 2.064 6.398 1.905 6.358-.16-.04 10.798 0 10.798 0l.636-8.267 1.044 1.57.226.34s2.065.237 1.906 0c-.16-.24.992.08 1.27-2.544.278-2.623.636-4.452.636-4.452l1.905-5.722s-2.262-2.385-2.54-2.544z" stroke="#ffffff00" fill="#f4caa4"/><path d="M74.13 193.357l14.763 26.22 13.357 5.67 6.327 2.833s5.156 3.07 2.812 10.63c-2.344 7.558-6.913 10.51-9.14 9.92-2.226-.59-9.14-2.598-9.14-2.835 0-.235-12.067-3.78-12.653-3.543-.585.237-24.605 9.212-24.605 9.212l18.278-58.107z" stroke="#ffffff00" fill="#e0dbd7"/><path d="M101.547 225.954c-.088 1.417-.175 10.364-3.515 14.88-3.34 4.518-3.34 5.316-4.218 5.67-.878.354-2.812.71-2.812.71l-4.218 7.793s-5.705 12.256-5.793 11.99c-.087-.265-4.716-.274-4.716-.274l-4.253 6.71 10.546-27.638v-2.126l2.11-2.835 3.514-4.252s2.285-3.72 2.11-3.542c-.176.177.702-4.96.702-4.96v-6.378l-.703-2.125s11.335 4.96 11.247 6.377z" stroke="#ffffff00" fill="#e65051"/><path d="M100.376 239.773l8.2 1.062s-.233 4.725-4.217 4.96c-3.984.237-8.437 0-8.437 0l4.453-6.022zM71.318 233.04l14.763 3.543-2.81 3.543s-3.75.945-3.516.71c.234-.237-16.872 6.377-16.872 6.377l8.436-14.172z" stroke="#ffffff00" fill="#c9c7c8"/><path d="M93.648 235.622c-.547.456-1.272 1.242-.735 1.884.423.506 1.372.22 2.127-.46.735-.664.518-1.5.18-1.745-.34-.245-.995-.16-1.572.322zM91.54 240.582c-.548.457-1.273 1.243-.736 1.884.423.506 1.372.22 2.127-.46.736-.663.52-1.5.18-1.745-.338-.244-.994-.16-1.57.322zM83.27 242.96c-.09.267 1.757 1.24 2.108 1.418.352.177-4.92 8.504-4.92 8.504l-3.328 12.676s-4.48-2.48-4.218-2.835c.264-.354 4.03-9.84 4.03-9.84l2.812-6.38s.967-4.428.703-4.25c-.263.177 2.022-.975 2.11-.71.087.267 5.404-4.074 6.326-6.377.923-2.303 2.55-9.788 2.11-12.046-.44-2.26-2.11-3.543-2.11-3.543h.703s2.505 1.904 2.11 6.377c-.396 4.473-1.06 7.28-2.33 9.92-1.36 2.835-6.02 6.82-6.107 7.087z" stroke="#ffffff00" fill="#e72c2c"/><path d="M56.555 177.768c24.194 5.385 22.06 30.783 20.27 39.642-2.324 11.498-6.016 19.157-10.428 25.134-6.492 8.795-11.33 12.047-18.278 11.046-6.948-1-19.147-8.503-17.576-36.14 1.572-27.635 19.706-40.74 26.01-39.682z" stroke="#ffffff00" fill="#e72727"/><path d="M55.15 177.06c25.6 11.03 19.975 33.87 19.254 39.88-1.225 10.202-5.328 18.36-9.413 23.895-6.49 8.795-11.33 13.047-18.277 12.047-6.947-1-19.146-8.504-17.575-36.14C30.71 189.106 48.844 176 55.148 177.06z" stroke="#ffffff00" fill="#e65051"/><path d="M54.446 184.854s-8.436-1.084-13.357 7.086c-4.922 8.17-8.478 17.216-8.437 27.637.042 10.42 2.316 20.84 6.327 23.384 4.012 2.544 4.673 2.71 8.436 2.127 3.763-.584 6.318-2.056 9.626-4.85 3.308-2.79-2.596-55.383-2.596-55.383z" stroke="#ffffff00" fill="#c8c8c8"/><path d="M55.522 184.854c-2.482.75-8.27 8.295-10.215 15.59-1.943 7.294-4.218 15.464-3.515 21.258.703 5.795 2.564 15.048 4.92 18.424 2.358 3.377 3.516 4.252 3.516 4.252s11.827-5.627 14.763-17.007c2.937-11.378 3.836-22.42 1.82-29.386-2.604-9.003-9.303-12.505-11.288-13.13z" fill="#9d9d9d"/><path d="M67.803 211.782l-13.357-4.252s-2.987-.71-5.624 0c-2.636.71-3.69 4.784-4.218 7.086-.527 2.303-.175 7.263 2.812 9.212 2.988 1.95 14.06 8.504 14.06 8.504s3.164-5.315 4.218-9.212c1.055-3.898 2.11-11.338 2.11-11.338z" fill="#e0dbd7"/><path d="M58.664 208.947s3.64 4.112 4.218 7.086c.577 2.975.865 8.75-.703 11.338-1.568 2.59-1.752 4.556-2.11 4.253-.358-.303 1.406.71 1.406.71s3.813-5.99 4.92-9.922c1.11-3.93 1.48-10.98 1.407-10.628-.073.353-9.14-2.835-9.14-2.835z" fill="#c8c8c8"/><path d="M50.27 208.207c-1.798-.15-3.95 2.924-4.26 6.41-.31 3.485-.235 7.11 1.563 7.488 2.16.453 4.508-2.74 4.764-7.49.257-4.746-.582-5.923-2.067-6.408z" stroke="#ffffff00" fill="#c8c8c8"/><path d="M88.215 251.084s.585 5.385 0 6.995c-.585 1.61-2.915 8.072-3.176 8.9-.263.83-1.72 4.524-3.178 5.088-1.458.564-1.27.636-1.27.636h5.082s1.544-2.048 3.176-5.723c1.632-3.674 2.5-10.84 2.54-11.444.043-.605-3.175-5.087-3.175-5.087v.635z" stroke="#ffffff00" fill="#e9b989"/><path d="M71.063 251.084l2.54-.635s2.264 1.747 2.542 1.906c.278.16 1.985 3.498.635 5.087-.965 1.137-1.85 1.623-2.275 1.81-.17.072-.266.098-.266.098s-5.36-1.63-5.718-1.907c-.357-.278 2.54-6.358 2.54-6.358z" stroke="#ffffff00" fill="#fad3b2"/><path d="M73.063 243.084l2.54-.635s2.264 1.747 2.542 1.906c.278.16 1.985 3.498.635 5.087-.965 1.137-1.85 1.623-2.275 1.808-.17.075-.266.1-.266.1s-5.36-1.63-5.718-1.907c-.357-.278 2.54-6.36 2.54-6.36z" stroke="#ffffff00" fill="#f4caa4"/><path d="M66.617 264.438s2.138 1.07 3.81.635c1.277-.332 1.37 2.75 2.318 1.844.294-.282 1.976-3.954 2.13-4.387.65-1.826 2.07-3.336-1.27-5.087-3.342-1.75-6.904-1.805-8.894-.635-1.99 1.17-4.684 2.09-4.446 5.722.238 3.63 2.95 6.555 4.447 7.63 1.496 1.076 7.047 4.144 10.8 3.816 3.753-.33 5.47-.448 7.623-3.18 2.15-2.732 4.843-9.76 5.082-12.717.24-2.96.522-6.4 0-6.995-.522-.595-1.27-1.272-1.27-1.272s.325 3.403-.636 4.45c-.962 1.048-2.21 3.837-3.416 3.42-1.204-.42.117.56.12.396.002-.164-.437 4.45-.437 4.45s-.33 5.307-.576 5.51c0 0-7.97-1.198-7.572-1.123.397.075-5.681-1.15-5.906-1.207-.224-.057-1.906-1.272-1.906-1.272z" stroke="#ffffff00" fill="#f7d3b2"/><path d="M66.617 265.073s2.648.436 4.446 0c1.8-.435 3.176-1.27 3.176-1.27h1.905s-.335.69-1.27 1.27c-.936.58-3.08 1.52-5.082 1.272s-3.177-.636-3.177-.636v-.637z" stroke="#ffffff00" fill="#fbcaa9"/><path d="M88.215 257.443c-1.463 1.365-2.487 2.32-4.447 1.272-1.96-1.05-2.808-2.14-3.176-3.815-.368-1.675-.203-4.315 0-5.723.202-1.408 1.72-4.575 4.447-4.45 2.726.124 4.2 3.257 4.445 4.45.246 1.193.192 6.9-1.27 8.266z" stroke="#ffffff00" fill="#e9b989"/><path d="M86.31 255.536c-1.464 1.364-2.488 2.32-4.448 1.272-1.96-1.05-2.808-2.14-3.176-3.816-.368-1.675-.202-4.314 0-5.722.202-1.41 1.72-4.576 4.447-4.452 2.728.125 4.2 3.258 4.447 4.45.245 1.194.192 6.903-1.27 8.268z" stroke="#ffffff00" fill="#f7d3b2"/><path d="M89 265l3 3s-1.92 6.95-4 7c-2.08.05-5-2-5-2s3.098-.308 4-2c.902-1.692 1-2 1-2l1-4z" stroke="#ffffff00" fill="#fff"/><path d="M146 270l6 3-5 3-8-6h7z" fill="#d6dfe0"/><path d="M67.887 245.362s2.263-1.312 4.447-1.272c2.183.04 5.623 1.378 5.623 1.378s-.16-1.39 0-1.272c.158.12-3.48-.662-5.623-.742-2.144-.08-4.447 1.908-4.447 1.908zM65.346 250.45c-.2 0 2.78-1.55 4.447-1.273 1.667.278 5.042 2.146 5.717 3.18.675 1.033 1.35 1.51 1.27 1.27-.08-.237-1.508-3.297-3.81-4.45-2.304-1.153-3.852-.914-5.083-.636-1.23.28-2.342 1.91-2.54 1.91z" stroke="#ffffff00" fill="#e9b989"/><path d="M216 254c-.297-.297 1.755-2.003 2.624-2.702.23-.184.376-.298.376-.298l8 11-4 2s.063-.375 0 0-6.625-9.625-7-10z" stroke="#ffffff00" fill="#fff"/><g stroke="#ffffff00"><path d="M239.333 252.342s-1.417 1.307-2.82 1.34c-1.068.025-2.32.177-3.265-.318-.294-.154-.558-.37-.778-.674-.924-1.275-2.377-2.134-.18-4.238 2.197-2.103 4.955-2.935 6.772-2.468 1.817.468 4.126.588 4.775 3.464.65 2.877-.79 5.753-1.706 6.922-.915 1.168-4.528 4.786-7.523 5.363-2.996.578-4.36.867-6.66-.78-2.303-1.648-6.012-6.516-6.878-8.764-.866-2.248-1.877-4.863-1.608-5.44.27-.58 7.546-7.026 7.546-7.026s6.54 13.67 6.25 13.815c-.293.145 4.724.307 4.885.214.162-.094 1.19-1.412 1.19-1.412z" fill="#f7d3b2"/><path d="M226.458 237.782c.18-.185 1.826-1.526 4.3-1.763 2.477-.238 7.994 1.774 9.516 3.184 1.522 1.41 3.45 4.646 3.53 6.5.077 1.855-.137 5.435-.023 5.37.115-.067-8.4 2.395-8.4 2.395l-2.394-6.29-.452 1.453-.098.314s-1.552.643-1.483.423c.07-.22-.754.282-1.573-1.697-.82-1.978-1.517-3.32-1.517-3.32l-2.798-4.028s1.213-2.357 1.393-2.543z" fill="#f4caa4"/><path d="M219.462 246.75s.782 4.316 1.607 5.44c.825 1.12 4.123 5.63 4.516 6.218.394.587 2.376 3.136 3.64 3.252 1.264.114 1.135.212 1.135.212L226.408 263s-1.672-1.25-3.786-3.746c-2.113-2.497-4.435-7.877-4.606-8.338-.172-.46 1.302-4.662 1.302-4.662l.146.495z" fill="#e9b989"/><path d="M232.805 242.943l-2.123.07s-1.358 1.862-1.538 2.047c-.18.185-.74 3.16.675 4.097 1.01.67 1.81.852 2.184.902.15.018.23.017.23.017s3.795-2.457 4.01-2.753c.213-.295-3.44-4.38-3.44-4.38z" fill="#fad3b2"/><path d="M238.345 252.624s-1.417 1.308-2.82 1.34c-1.068.025-2.32.177-3.265-.317-.294-.155-.56-.372-.778-.674-.924-1.276-2.378-2.136-.18-4.24 2.196-2.102 4.955-2.934 6.772-2.467 1.817.467 4.125.588 4.775 3.465.648 2.877-.79 5.753-1.707 6.922-.916 1.168-4.53 4.786-7.525 5.364-2.995.577-4.36.866-6.66-.782-2.303-1.647-6.012-6.515-6.877-8.763-.864-2.246-1.876-4.86-1.606-5.44.27-.577.696-1.27.696-1.27s.528 2.72 1.517 3.32c.988.603 2.6 2.494 3.442 1.9.84-.59.037.463-.003.337-.04-.127 1.363 3.365 1.363 3.365s.474 1.74.712 1.84c0 0 6.358-2.848 6.067-2.7-.293.145 4.723.307 4.885.214.16-.094 1.19-1.412 1.19-1.412z" fill="#f7d3b2"/><path d="M239.48 252.836s-1.96.927-3.46.987c-1.5.06-2.763-.284-2.763-.284l-1.483.422s.42.464 1.28.707c.862.242 2.746.498 4.247-.14 1.5-.637 2.326-1.2 2.326-1.2l-.147-.494z" fill="#e9b989"/><path d="M231.21 246.615s-1.644 4.13-.368 6.004c1.276 1.873 1.37 2.825 1.37 2.825l-2.964.846s.17-.374-.383-3.107c-.552-2.734-3.278-4.707-3.09-5.017.188-.31-1.02-7.707-.71-7.84.31-.136 2.618-.212 2.618-.212l3.528 6.5zM233.96 237.787s-2.06-.518-3.75-.002c-1.69.515-2.033 2.188-2.033 2.188s-.196-1.117-.292-.99c-.097.13.53-1.155 2.178-1.693 1.65-.538 3.898.497 3.898.497z" fill="#e9b989"/><path d="M237.107 241.18c.154-.044-2.518-.59-3.752-.003-1.233.587-3.43 2.788-3.717 3.742-.287.952-.703 1.473-.696 1.27.007-.203.416-2.9 1.942-4.308 1.527-1.407 2.786-1.566 3.808-1.622 1.02-.057 2.26.964 2.415.92zM220.923 251.694c1.452.738 2.468 1.253 3.752.003 1.283-1.25 1.693-2.288 1.594-3.672-.1-1.384-.835-3.4-1.316-4.45-.48-1.052-2.39-3.178-4.482-2.476-2.094.7-2.52 3.465-2.437 4.447.083.983 1.437 5.41 2.888 6.147z" fill="#e9b989"/><path d="M221.967 249.788c1.452.737 2.468 1.253 3.752.002 1.283-1.25 1.692-2.288 1.593-3.672-.098-1.384-.834-3.4-1.315-4.45-.48-1.05-2.39-3.178-4.482-2.476-2.094.702-2.52 3.466-2.437 4.45.082.982 1.436 5.41 2.887 6.146z" fill="#f7d3b2"/></g><path d="M151 273l6 4 9-8s-5.42 1.187-6 1c-.58-.187-5 3-5 3h-4z" stroke="#ffffff00" fill="#d5dadd"/><path d="M132 242c.574-.003 12.132.89 21 1 8.868.11 22-1 22-1s-7.957 7.328-20 7c-12.043-.328-23.574-6.997-23-7z" stroke="#ffffff00" fill="#fefffd"/><path d="M141 258c-.055-.21 4.112-5.172 12-5 7.888.172 12 4 12 4s-5.553 4.108-11.683 3.743c-6.13-.365-12.262-2.532-12.317-2.743z" stroke="#ffffff00" fill="#fc706c"/><path d="M203 228c.344-.156 1-6 1-6s-1.188 1.313 0 0 2.5-3.188 5-2c2.5 1.188 3.5 4.438 2 7-1.5 2.563-6.25 5.156-8 5-1.75-.156-.344-3.844 0-4z" stroke="#ffffff00" fill="#f4caa4"/></g></svg>