<svg viewBox="0 0 156 58" style="background-color:#ffffff00" xmlns="http://www.w3.org/2000/svg" width="156" height="58"><g fill="#282828"><path d="M69.25 37.61v-.288h.802v-.925c0-.627.445-.89.985-.89.13 0 .262.018.392.045v.287c-.13-.027-.262-.045-.393-.045-.366 0-.654.13-.654.63v.897h.933v.288h-.933v4.198h-.33V37.61h-.803zM73.557 37.218c1.317 0 2.058 1.073 2.058 2.347s-.74 2.347-2.058 2.347c-1.316 0-2.058-1.073-2.058-2.347 0-1.273.74-2.347 2.057-2.347zm0 4.406c1.125 0 1.727-.986 1.727-2.06 0-1.072-.602-2.058-1.727-2.058s-1.726.986-1.726 2.06c0 1.072.602 2.058 1.727 2.058zM76.592 38.317h.026c.175-.584.907-1.056 1.718-1.02v.33c-.35-.043-.837.045-1.238.438-.332.34-.47.62-.506 1.29v2.453h-.332v-4.486h.332v.995zM84.31 40.848h-.02c-.365.706-.914 1.064-1.717 1.064-1.35 0-1.935-1.1-1.935-2.338 0-1.327.645-2.356 1.997-2.356.732 0 1.42.402 1.656 1.108h.02v-2.748h.33v6.23h-.33v-.96zm-.01-1.274c0-1.047-.514-2.068-1.665-2.068-1.186 0-1.666.986-1.666 2.068 0 1.055.522 2.05 1.673 2.05 1.134 0 1.657-1.02 1.657-2.05zM85.043 39.608c-.018 1.056.54 2.016 1.648 2.016.847 0 1.448-.506 1.605-1.335h.332c-.175 1.046-.873 1.622-1.936 1.622-1.307 0-1.996-1.03-1.98-2.268-.016-1.23.63-2.426 1.98-2.426 1.405 0 2.032 1.108 1.972 2.39h-3.62zm3.287-.287c-.017-.942-.61-1.814-1.64-1.814-.993 0-1.578.924-1.647 1.815h3.287zM91.668 41.808h-.41l-1.805-4.486h.384l1.622 4.1h.017l1.517-4.1h.366l-1.692 4.486zM93.83 39.608c-.016 1.056.542 2.016 1.65 2.016.845 0 1.446-.506 1.603-1.335h.332c-.175 1.046-.872 1.622-1.936 1.622-1.31 0-1.998-1.03-1.98-2.268-.018-1.23.627-2.426 1.98-2.426 1.403 0 2.03 1.108 1.97 2.39h-3.62zm3.288-.287c-.017-.942-.61-1.814-1.64-1.814-.993 0-1.577.924-1.647 1.815h3.288zM98.505 35.578v6.23h-.33v-6.23h.33zM101.278 37.218c1.317 0 2.058 1.073 2.058 2.347s-.74 2.347-2.058 2.347c-1.317 0-2.058-1.073-2.058-2.347 0-1.273.74-2.347 2.058-2.347zm0 4.406c1.125 0 1.726-.986 1.726-2.06 0-1.072-.6-2.058-1.726-2.058-1.125 0-1.727.986-1.727 2.06 0 1.072.603 2.058 1.728 2.058zM104.39 38.352h.018c.14-.445.645-1.134 1.63-1.134 1.38 0 2.015 1.09 2.015 2.356 0 1.36-.645 2.338-2.014 2.338-.742 0-1.37-.314-1.632-1.038h-.017v2.54h-.33V37.32h.33v1.03zm3.332 1.222c0-1.02-.48-2.068-1.683-2.068-1.196 0-1.64 1.004-1.64 2.068s.374 2.05 1.64 2.05c1.167 0 1.682-.942 1.682-2.05zM108.707 37.322h.332v.917h.016c.14-.568.733-1.022 1.404-1.022.854 0 1.256.488 1.35.95h.02c.26-.61.697-.95 1.42-.95.81 0 1.404.47 1.404 1.527v3.063h-.33v-3.072c0-1.143-.812-1.23-1.074-1.23-.81 0-1.404.575-1.404 1.648v2.654h-.33v-3.072c0-1.126-.768-1.23-1.056-1.23-.637 0-1.42.497-1.42 1.648v2.654h-.333v-4.486z"/><path d="M114.987 39.608c-.017 1.056.54 2.016 1.648 2.016.846 0 1.447-.506 1.605-1.335h.33c-.174 1.046-.87 1.622-1.935 1.622-1.308 0-1.997-1.03-1.98-2.268-.017-1.23.63-2.426 1.98-2.426 1.404 0 2.032 1.108 1.97 2.39h-3.618zm3.287-.287c-.017-.942-.61-1.814-1.64-1.814-.993 0-1.577.924-1.647 1.815h3.287zM119.903 37.322h.332v.96h.017c.227-.672.907-1.064 1.605-1.064 1.578 0 1.596 1.264 1.596 1.815v2.775h-.332v-2.836c0-.462-.05-1.466-1.272-1.466-1.003 0-1.613.777-1.613 1.875v2.428h-.332v-4.486zM125.947 37.61h-.977v3.133c0 .724.34.794.968.776v.288c-.68.043-1.334-.053-1.3-1.065V37.61h-.828v-.288h.83v-1.396h.33v1.396h.977v.288zM129.13 38.352h.017c.14-.445.645-1.134 1.63-1.134 1.378 0 2.014 1.09 2.014 2.356 0 1.36-.644 2.338-2.013 2.338-.74 0-1.37-.314-1.63-1.038h-.018v2.54h-.332V37.32h.33v1.03zm3.33 1.222c0-1.02-.48-2.068-1.683-2.068-1.194 0-1.64 1.004-1.64 2.068s.376 2.05 1.64 2.05c1.17 0 1.683-.942 1.683-2.05zM133.685 35.578v6.23h-.332v-6.23h.332zM137.76 40.978c0 .262 0 .54.297.54.06.002.14-.007.244-.025v.28c-.095.017-.182.035-.27.035-.522 0-.6-.288-.6-.655v-.236h-.018c-.21.532-.81.995-1.666.995-.846 0-1.5-.323-1.5-1.265 0-1.047.908-1.266 1.65-1.326 1.48-.105 1.542-.2 1.542-.933 0-.2-.227-.88-1.247-.88-.8 0-1.333.418-1.377 1.194h-.33c.043-.985.653-1.482 1.708-1.482.786 0 1.57.244 1.57 1.17v2.59zm-.33-1.72c-.262.298-.977.263-1.623.35-.784.088-1.23.367-1.23 1.04 0 .54.393.976 1.178.976 1.51 0 1.674-1.29 1.674-1.527v-.838zM140.333 37.61h-.976v3.133c0 .724.34.794.967.776v.288c-.68.043-1.334-.053-1.3-1.065V37.61h-.827v-.288h.828v-1.396h.332v1.396h.976v.288zM140.64 37.61v-.288h.802v-.925c0-.627.445-.89.985-.89.13 0 .262.018.393.045v.287c-.13-.027-.262-.045-.393-.045-.366 0-.653.13-.653.63v.897h.932v.288h-.932v4.198h-.332V37.61h-.802zM144.947 37.218c1.317 0 2.058 1.073 2.058 2.347s-.74 2.347-2.058 2.347c-1.316 0-2.058-1.073-2.058-2.347 0-1.273.74-2.347 2.057-2.347zm0 4.406c1.125 0 1.727-.986 1.727-2.06 0-1.072-.602-2.058-1.727-2.058s-1.726.986-1.726 2.06c0 1.072.602 2.058 1.727 2.058zM147.823 38.317h.025c.176-.584.908-1.056 1.718-1.02v.33c-.348-.043-.837.045-1.238.438-.33.34-.47.62-.505 1.29v2.453h-.332v-4.486h.333v.995zM150.053 37.322h.332v.917h.017c.14-.568.733-1.022 1.404-1.022.854 0 1.255.488 1.35.95h.02c.26-.61.696-.95 1.42-.95.81 0 1.404.47 1.404 1.527v3.063h-.33v-3.072c0-1.143-.812-1.23-1.074-1.23-.81 0-1.404.575-1.404 1.648v2.654h-.33v-3.072c0-1.126-.768-1.23-1.056-1.23-.637 0-1.422.497-1.422 1.648v2.654h-.33v-4.486zM43.314 32.86c0 1.147-.164 2.186-.49 3.118-.33.933-.79 1.736-1.383 2.412-.593.676-1.304 1.198-2.133 1.566-.83.37-1.755.554-2.778.554-1.025 0-1.95-.185-2.78-.554-.83-.368-1.546-.89-2.15-1.566-.604-.676-1.07-1.48-1.397-2.412-.327-.932-.49-1.97-.49-3.118 0-1.127.168-2.155.506-3.088.337-.93.807-1.73 1.41-2.396.605-.665 1.326-1.177 2.166-1.536.84-.36 1.75-.537 2.733-.537 1 0 1.917.178 2.746.537.83.36 1.546.87 2.15 1.535.603.667 1.07 1.466 1.397 2.397.327.933.49 1.96.49 3.088zm14.062 6.82c-.696.226-1.545.41-2.548.553-1.003.144-1.986.216-2.948.216-2.252 0-3.956-.667-5.112-1.998-1.157-1.332-1.735-3.154-1.735-5.47 0-2.354.486-4.213 1.46-5.576.97-1.362 2.41-2.043 4.313-2.043.51 0 1.013.057 1.504.17.49.112.92.27 1.29.476v-6.576l3.776-.645v20.89zm6.26-8.47c0-10.22-8.28-18.505-18.494-18.505S26.648 20.99 26.648 31.21c0 10.22 8.28 18.505 18.494 18.505 10.213 0 18.493-8.286 18.493-18.506zM33.55 32.89c0 1.29.23 2.336.69 3.134.462.8 1.203 1.2 2.227 1.2.983 0 1.724-.4 2.226-1.2.5-.798.752-1.843.752-3.133s-.23-2.33-.69-3.118c-.46-.788-1.203-1.183-2.226-1.183-.984 0-1.726.394-2.228 1.182-.5.79-.752 1.828-.752 3.12zm15.32-.09c0 1.29.242 2.344.723 3.162.48.82 1.253 1.23 2.318 1.23.308 0 .594-.01.86-.03.267-.02.543-.052.83-.093v-7.866c-.287-.163-.614-.303-.983-.415-.368-.113-.757-.17-1.167-.17-.9 0-1.556.36-1.965 1.075-.41.717-.614 1.752-.614 3.104zM69.01 24.814c0-2.476.457-4.344 1.37-5.605.912-1.262 2.18-1.892 3.803-1.892 1.685 0 2.97.63 3.85 1.89.882 1.262 1.322 3.13 1.322 5.606 0 2.475-.45 4.343-1.345 5.604-.897 1.26-2.165 1.89-3.803 1.89-1.686 0-2.973-.63-3.862-1.89-.89-1.26-1.334-3.13-1.334-5.604zm2.9 0c0 .695.027 1.35.082 1.96.054.61.162 1.14.324 1.59.163.448.39.804.684 1.067.294.264.69.396 1.183.396.48 0 .87-.132 1.172-.395.3-.262.533-.62.695-1.078.163-.456.27-.986.325-1.59.054-.603.08-1.253.08-1.948 0-.697-.026-1.35-.08-1.962-.054-.61-.162-1.14-.325-1.59-.162-.448-.39-.803-.684-1.067-.294-.263-.688-.394-1.183-.394-.495 0-.89.132-1.183.395-.293.264-.52.623-.684 1.08-.162.456-.27.986-.324 1.59-.055.602-.08 1.252-.08 1.95zM90.472 26.553c0 .837-.093 1.606-.278 2.31-.186.704-.457 1.307-.812 1.81-.356.503-.805.893-1.346 1.172-.54.278-1.167.417-1.878.417-.727 0-1.477-.178-2.25-.533v4.106h-2.853V21.448c.526-.17 1.172-.31 1.937-.418.766-.107 1.52-.162 2.26-.162 1.687 0 2.978.51 3.874 1.53.897 1.022 1.346 2.407 1.346 4.155zm-2.9.093c0-.974-.193-1.775-.58-2.4-.386-.628-.973-.94-1.762-.94-.216 0-.448.01-.695.034l-.627.058v5.987c.186.124.433.224.742.3.31.08.62.118.928.118.68 0 1.183-.275 1.507-.824.326-.55.488-1.327.488-2.334zM91.838 26.646c0-.96.147-1.802.44-2.53.294-.726.68-1.333 1.16-1.82.48-.488 1.03-.856 1.647-1.103.618-.248 1.253-.37 1.902-.37 1.608 0 2.83.474 3.664 1.425.836.952 1.254 2.34 1.254 4.166 0 .186-.004.38-.012.58-.008.202-.02.364-.035.488h-7.073c0 .71.293 1.272.88 1.683.59.41 1.346.614 2.274.614.572 0 1.117-.062 1.635-.186s.954-.248 1.31-.372l.395 2.437c-.496.17-1.02.312-1.578.428-.556.116-1.182.174-1.878.174-.928 0-1.76-.12-2.493-.36-.736-.24-1.362-.594-1.88-1.067-.518-.47-.916-1.056-1.194-1.752-.28-.695-.418-1.508-.418-2.436zm7.306-1.137c0-.294-.04-.576-.116-.848-.077-.27-.2-.514-.37-.73-.172-.217-.388-.39-.65-.523-.264-.132-.588-.198-.975-.198-.37 0-.692.062-.962.186-.27.123-.494.293-.672.51-.177.217-.317.464-.417.743-.1.28-.166.566-.196.86h4.36zM103.595 21.448c.51-.138 1.14-.27 1.89-.394s1.566-.186 2.447-.186c.866 0 1.585.12 2.157.36.57.24 1.023.58 1.356 1.02.332.44.568.968.707 1.58.14.61.21 1.287.21 2.03v6.15h-2.854v-5.78c0-1.02-.117-1.755-.35-2.204-.23-.448-.702-.673-1.413-.673-.217 0-.43.01-.638.024-.21.016-.43.04-.662.07v8.563h-2.853v-10.56zM124.377 24.814c0 1.33-.167 2.463-.5 3.4-.332.935-.79 1.697-1.38 2.285-.587.586-1.286 1.016-2.097 1.287-.813.27-1.705.406-2.68.406-.51 0-1.008-.027-1.495-.082-.487-.053-1.01-.14-1.566-.265V17.828c.65-.14 1.26-.232 1.83-.28.574-.045 1.107-.068 1.602-.068.942 0 1.805.14 2.585.418.78.278 1.442.716 1.984 1.31.542.597.963 1.355 1.265 2.275.3.92.452 2.03.452 3.33zm-6.865 4.872c.077.016.163.024.255.024h.255c.65 0 1.194-.124 1.635-.372.44-.247.796-.587 1.067-1.02.27-.434.464-.948.58-1.544.116-.595.174-1.25.174-1.96 0-.62-.047-1.223-.14-1.81-.092-.588-.255-1.107-.486-1.556-.233-.448-.55-.807-.95-1.08-.404-.27-.922-.405-1.555-.405-.124 0-.263.004-.418.012-.155.007-.294.027-.418.058v9.653zM129.885 20.822c.896 0 1.642.104 2.238.313.595.21 1.07.503 1.426.882.355.38.61.843.764 1.392.155.55.232 1.163.232 1.844v6.498c-.417.093-1.036.2-1.855.324-.82.125-1.74.186-2.76.186-.695 0-1.325-.06-1.89-.186-.563-.123-1.047-.328-1.448-.615-.403-.284-.712-.656-.928-1.112-.217-.456-.325-1.017-.325-1.683 0-.634.123-1.168.37-1.6.248-.434.58-.782.998-1.046.417-.263.896-.453 1.437-.568.542-.117 1.106-.175 1.693-.175.743 0 1.4.062 1.972.186v-.348c0-.542-.17-.994-.51-1.358-.34-.363-.928-.545-1.763-.545-.542 0-1.063.038-1.566.116-.5.078-.907.17-1.216.278l-.394-2.296c.355-.124.858-.236 1.507-.338.65-.1 1.322-.15 2.018-.15zm.255 9.143c.31 0 .61-.004.905-.012.293-.007.548-.027.765-.058V27.39c-.186-.032-.41-.06-.673-.082-.263-.023-.502-.035-.72-.035-.293 0-.58.02-.857.058-.278.04-.522.106-.73.198-.21.093-.375.225-.5.395-.123.17-.185.394-.185.673 0 .495.186.846.557 1.056.37.21.85.313 1.438.313zM138.108 23.467h-2.48V21.1h2.48v-2.738l2.853-.464V21.1h4.57v2.367h-4.57v4.41c0 .4.04.727.117.974.077.25.186.442.325.58.14.14.31.234.51.28.2.046.425.07.672.07.263 0 .507-.008.73-.024.225-.015.44-.043.65-.08.21-.04.425-.097.65-.175.224-.077.467-.176.73-.3l.395 2.46c-.527.215-1.095.37-1.706.463-.61.093-1.203.14-1.774.14-.665 0-1.252-.055-1.763-.162-.51-.11-.943-.317-1.3-.627-.355-.31-.625-.746-.81-1.31-.186-.565-.28-1.304-.28-2.217v-4.48zM151.34 20.822c.895 0 1.64.104 2.236.313.595.21 1.07.503 1.427.882.355.38.61.843.765 1.392.155.55.232 1.163.232 1.844v6.498c-.417.093-1.036.2-1.855.324-.82.125-1.74.186-2.76.186-.696 0-1.326-.06-1.89-.186-.565-.123-1.048-.328-1.45-.615-.402-.284-.71-.656-.927-1.112-.217-.456-.325-1.017-.325-1.683 0-.634.124-1.168.37-1.6.248-.434.58-.782.998-1.046.42-.263.898-.453 1.44-.568.54-.117 1.105-.175 1.692-.175.742 0 1.4.062 1.97.186v-.348c0-.542-.17-.994-.51-1.358-.34-.363-.927-.545-1.76-.545-.543 0-1.065.038-1.567.116-.503.078-.908.17-1.218.278l-.394-2.296c.356-.124.86-.236 1.508-.338.65-.1 1.323-.15 2.02-.15zm.254 9.143c.31 0 .61-.004.904-.012.294-.007.55-.027.765-.058V27.39c-.185-.032-.41-.06-.672-.082-.262-.023-.502-.035-.718-.035-.294 0-.58.02-.858.058-.278.04-.522.106-.73.198-.21.093-.376.225-.5.395-.123.17-.185.394-.185.673 0 .495.185.846.556 1.056.37.21.85.313 1.438.313zM44.413 53.304c0 1.68-1.367 3.04-3.053 3.04s-3.054-1.36-3.054-3.04c0-1.677 1.368-3.037 3.054-3.037 1.686 0 3.053 1.36 3.053 3.037z"/><path opacity=".2" d="M41.36 53.384c-1.533 0-2.776 1.602-2.776.12 0-1.482 1.242-2.685 2.775-2.685 1.532 0 2.775 1.202 2.775 2.684 0 1.482-1.243-.12-2.776-.12z"/><path d="M56.626 9.666c0 1.678-1.366 3.04-3.053 3.04-1.686 0-3.053-1.362-3.053-3.04 0-1.677 1.367-3.037 3.053-3.037 1.687 0 3.053 1.36 3.053 3.036z"/><path opacity=".2" d="M53.6 9.525c-1.6 0-2.896 1.722-2.896.13S52 6.77 53.6 6.77c1.602 0 2.9 1.29 2.9 2.882 0 1.593-1.298-.13-2.9-.13z"/><path d="M27.758 6.904c0 1.678-1.367 3.04-3.053 3.04S21.65 8.58 21.65 6.903c0-1.677 1.37-3.038 3.055-3.038 1.686 0 3.053 1.36 3.053 3.038z"/><path opacity=".2" d="M24.733 6.764c-1.6 0-2.898 1.72-2.898.13 0-1.593 1.298-2.885 2.898-2.885S27.63 5.3 27.63 6.892c0 1.59-1.297-.13-2.897-.13z"/><path d="M45.523 6.075c0 3.357-2.733 6.077-6.106 6.077-3.372 0-6.107-2.72-6.107-6.077C33.31 2.72 36.045 0 39.417 0c3.373 0 6.106 2.72 6.106 6.075z"/><path opacity=".2" d="M39.473 5.793c-3.2 0-5.795 3.443-5.795.26 0-3.184 2.595-5.767 5.795-5.767 3.2 0 5.795 2.583 5.795 5.766 0 3.184-2.594-.26-5.795-.26z"/><path d="M25.537 16.57c0 2.747-2.236 4.973-4.995 4.973-2.76 0-4.998-2.226-4.998-4.972 0-2.744 2.238-4.97 4.997-4.97 2.76 0 4.997 2.226 4.997 4.97z"/><path opacity=".2" d="M20.587 16.34c-2.618 0-4.74 2.817-4.74.212s2.122-4.718 4.74-4.718c2.62 0 4.742 2.113 4.742 4.718s-2.124-.212-4.743-.212z"/><g><path d="M11.658 19.61c0 3.202-2.61 5.8-5.828 5.8-3.22 0-5.83-2.598-5.83-5.8 0-3.203 2.61-5.8 5.83-5.8s5.828 2.597 5.828 5.8z"/><path opacity=".2" d="M5.83 19.492c-2.913 0-5.275 3.206-5.275.24 0-2.965 2.362-5.37 5.274-5.37s5.273 2.405 5.273 5.37c0 2.966-2.36-.24-5.274-.24z"/></g><g><path d="M24.982 31.209c0 4.118-3.354 7.456-7.494 7.456-4.138 0-7.495-3.338-7.495-7.457 0-4.12 3.357-7.458 7.495-7.458 4.14 0 7.494 3.34 7.494 7.457v-.002z"/><path opacity=".2" d="M17.487 30.716c-3.678 0-6.66 4.01-6.66.302 0-3.707 2.982-6.713 6.66-6.713 3.68 0 6.662 3.006 6.662 6.713 0 3.707-2.983-.302-6.663-.302z"/></g><g><path d="M14.99 41.704c0 2.29-1.864 4.144-4.164 4.144s-4.164-1.855-4.164-4.144c0-2.287 1.865-4.142 4.164-4.142 2.3 0 4.163 1.855 4.163 4.142z"/><path opacity=".2" d="M10.825 41.534c-2.145 0-3.885 2.138-3.885.16 0-1.976 1.74-3.58 3.885-3.58 2.147 0 3.887 1.604 3.887 3.58 0 1.978-1.74-.16-3.887-.16z"/></g><g><path d="M32.754 50.266c0 4.27-3.478 7.734-7.77 7.734-4.293 0-7.774-3.463-7.774-7.734 0-4.27 3.48-7.733 7.773-7.733 4.293 0 7.77 3.463 7.77 7.733z"/><path opacity=".2" d="M24.982 49.498c-3.832 0-6.94 4.007-6.94.3s3.108-6.712 6.94-6.712c3.832 0 6.94 3.005 6.94 6.713 0 3.705-3.108-.302-6.94-.302z"/></g></g></svg>