<svg viewBox="0 0 20 10" style="background-color:#ffffff00" xmlns="http://www.w3.org/2000/svg" width="20" height="10"><path d="M0 9.15V10h1200V.84l-.927-.84-10.075 9.12L1178.92 0l-10.075 9.12L1158.768 0l-10.075 9.12-10.077-9.118-10.076 9.118-10.076-9.118-10.076 9.12L1098.31 0l-10.075 9.12L1078.158 0l-10.075 9.12-10.077-9.118-10.076 9.118-10.077-9.118-10.075 9.12L1017.7.003l-10.075 9.12-10.077-9.12-10.076 9.12L977.396.006 967.32 9.124 957.243.006l-10.076 9.12L937.09.005l-10.075 9.12L916.938.008l-10.076 9.118L896.786.008l-10.076 9.12-10.077-9.12-10.075 9.12L856.48.007l-10.075 9.12-10.077-9.12-10.075 9.12L816.176.01 806.1 9.13 796.023.01l-10.075 9.12L775.87.01l-10.075 9.12L755.718.012 745.643 9.13 735.566.012l-10.076 9.12L715.413.01l-10.076 9.12L695.26.01l-10.075 9.12L675.11.014l-10.077 9.118L654.956.014l-10.076 9.12-10.077-9.12-10.076 9.12L614.65.013l-10.075 9.12L594.498.016l-10.076 9.118L574.346.016l-10.076 9.12-10.077-9.12-10.075 9.12L534.04.016l-10.075 9.12L513.888.018l-10.076 9.118L493.736.02 483.66 9.136 473.583.02l-10.076 9.117L453.43.02l-10.075 9.118L433.278.02l-10.076 9.12L413.126.02 403.05 9.14 392.973.02l-10.076 9.12L372.82.022 362.746 9.14 352.668.022l-10.076 9.12L332.516.02l-10.076 9.12L312.363.02l-10.075 9.12L292.21.024l-10.075 9.118L272.058.024l-10.075 9.12-10.077-9.12-10.076 9.12L231.753.025l-10.075 9.118L211.6.026l-10.075 9.12-10.077-9.12-10.076 9.12-10.076-9.12-10.076 9.12L151.143.028l-10.076 9.118L130.99.028l-10.075 9.12-10.077-9.12-10.075 9.12L90.686.027 80.61 9.15 70.533.03 60.458 9.148 50.38.03 40.306 9.15 30.228.03 20.152 9.15 10.076.03 0 9.15z" fill="#fff"/></svg>