<svg viewBox="0 0 230 157" style="background-color:#ffffff00" xmlns="http://www.w3.org/2000/svg" width="230" height="157"><path d="M.482 7.23c0-5.79 1.236-7.024 7.03-7.024h165.93c5.795 0 7.03 1.234 7.03 7.025v94.598H.483V7.23z" fill="#313133"/><path d="M5.362 7.23h168.74v87.573H5.363V7.23z" fill="#45bfc4"/><path d="M66.104 113.067v12.176s-.076 2.636-7.968 6.088c-7.894 3.453-12.188 4.216-12.188 4.216v1.873h89.06v-1.874s-4.295-.763-12.188-4.215c-7.893-3.45-7.968-6.087-7.968-6.087v-12.176H66.103z" fill="#fff"/><path d="M45.949 136.014h89.057v1.873h-89.06l.002-1.873zM66.104 113.067h48.748v12.176H66.103v-12.176z" fill="#dadada"/><path d="M.482 101.36v7.885c0 5.154 3.354 8.505 8.513 8.505H171.96c5.16 0 8.513-3.35 8.513-8.505v-7.885H.483z" fill="#fff"/><path opacity=".502" d="M90.478 7.23h84.37v87.573h-84.37V7.23z" fill="#13858a"/><path d="M15.11 17.575h32.918v35.123h-32.92V17.575z" fill="#f2c300"/><path opacity=".502" d="M15.697 57.75h28.308v2.98H15.697zM15.697 62.963H26.87v2.98H15.698zM15.697 71.9h28.308v1.49H15.697zM15.697 75.623h28.308v1.49H15.697zM15.697 79.346h14.9v1.49h-14.9z"/><path d="M155.603 102.52c0 1.755.427 3.41 1.18 4.87-3.714 1.948-6.25 5.84-6.25 10.32 0 6.433 5.22 11.648 11.66 11.648 2.077 0 4.026-.542 5.716-1.494 2.03 2.75 5.298 4.532 8.98 4.532 3.907 0 7.345-2.005 9.337-5.043 1.85 3.597 5.598 6.057 9.924 6.057 4.114 0 7.708-2.225 9.64-5.535 1.64.944 3.54 1.483 5.566 1.483 6.16 0 11.15-4.988 11.15-11.14 0-6.154-4.99-11.14-11.15-11.14-4.113 0-7.707 2.222-9.64 5.533-1.638-.943-3.538-1.483-5.565-1.483-3.906 0-7.344 2.006-9.335 5.044-1.85-3.595-5.6-6.055-9.924-6.055-1.433 0-2.805.272-4.064.765 2.475-1.948 4.065-4.97 4.065-8.36 0-5.874-4.765-10.636-10.643-10.636-5.88 0-10.644 4.76-10.644 10.635z" fill="#ededed"/><path d="M223.327 111.127h.09c3.36 0 6.083-2.72 6.083-6.076 0-3.355-2.723-6.075-6.082-6.075-2.117 0-3.98 1.08-5.07 2.718v-.187c0-4.755-3.857-8.61-8.615-8.61-3.298 0-6.165 1.85-7.613 4.57-.27-8.162-7.196-14.697-15.702-14.697-6.845 0-12.666 4.232-14.82 10.137l-.386-.01c-4.76 0-8.616 3.854-8.616 8.61 0 1.135.218 2.22.618 3.215-4.5 1.614-7.714 5.913-7.714 10.963 0 6.433 5.22 11.648 11.657 11.648 1.95 0 3.79-.477 5.404-1.322 2.04 2.056 4.995 3.348 8.282 3.348 2.93 0 5.598-1.025 7.588-2.704 2.045 2.27 5.15 3.717 8.632 3.717l.532-.01.48.01c3.193 0 6.044-1.474 7.903-3.777 1.836 1.11 3.987 1.753 6.29 1.753 6.718 0 12.164-5.442 12.164-12.155 0-1.806-.395-3.52-1.103-5.063z" fill="#fff"/><path d="M172.836 103.025l.005.26c.132-3.522 3.03-6.336 6.585-6.336 2.74 0 5.09 1.672 6.082 4.05.167.4.294.816.38 1.25.246-.422.54-.813.872-1.17 1.203-1.294 2.92-2.105 4.83-2.105 2.41 0 4.522 1.297 5.67 3.23.21.353.386.723.528 1.114.276-.207.57-.392.877-.553.915-.48 1.955-.754 3.06-.754 3.557 0 6.454 2.814 6.585 6.335l.005-.26c0-3.914-3.177-7.088-7.096-7.088-1.103 0-2.146.25-3.077.7-1.323-2.24-3.764-3.74-6.554-3.74-2.022 0-3.86.792-5.22 2.078-1.13-2.42-3.59-4.103-6.438-4.103-3.92 0-7.096 3.175-7.096 7.09z" fill="#ededed"/><g><path d="M88.927 98.603c0-31.758 25.775-57.502 57.57-57.502 31.797 0 57.572 25.745 57.572 57.503 0 31.757-25.776 57.5-57.572 57.5-31.796 0-57.57-25.743-57.57-57.5z" fill="#9ec0c2"/><path d="M97.152 75.132c-.22.716-.02.9 0 1.174.055.828-3.33 14.278-3.525 17.603-.196 3.323 2.154 6.453 2.35 8.213.196 1.76 3.33 4.89 4.7 5.867 1.37.978 2.545 3.13 3.524 4.695.98 1.564 1.96-.783 2.35-1.174.393-.39-2.544-2.346-3.524-3.52-.98-1.173 1.37-1.956 2.35-3.52s-1.762 0-3.525 0c-1.76 0-1.565-1.76-2.348-4.694-.784-2.934 2.154-2.347 4.7-2.347 2.545 0 1.566 2.542 2.35 2.346.782-.196 1.566-1.956 2.35-4.694.782-2.738 5.09-6.063 7.048-7.04 1.96-.98 3.72-.587 5.875-2.348 2.154-1.76-2.546-.782-3.525-2.347-.98-1.565 4.112-1.565 5.875-1.174 1.762.39 1.958-1.956 2.35-3.52.39-1.565-3.525-2.15-3.525-3.52s1.37-.978 1.175-2.348c-.196-1.37-1.763.196-3.525 0-1.762-.195-.587-1.76-1.175-2.347-.587-.586-1.37 1.956-2.35 3.52-.98 1.565-1.762 4.5-3.524 4.695-1.762.196-.39-1.956 0-2.347.392-.39-.39-.196 0-1.174.392-.977-2.153-2.738-2.35-3.52-.195-.782 2.938-4.5 3.525-4.694.588-.196 4.308-1.565 4.7-1.173.392.39 2.35-2.347 2.35-2.347l-2.35-2.347 1.175-2.346-3.525 2.347v-2.346l1.175-3.52s-2.74-.587-2.35 0c.392.586-2.937 2.737-4.7 2.346-1.364-.303-.263-3.186.576-4.835-3.374 2.547-6.462 5.458-9.2 8.673.398.942.4 1.484.4 2.03 0 .782-1.175 1.173-1.175 1.173s-4.155 8.8-4.698 10.562z" fill="#4d8343"/><path d="M103.49 76.188c-.22.715-.018.898 0 1.173.055.83-3.33 14.28-3.525 17.603-.196 3.326 2.154 6.455 2.35 8.215.196 1.76 3.33 4.89 4.7 5.867 1.37.978 2.545 3.13 3.524 4.695.978 1.564 1.957-.783 2.35-1.174.39-.39-2.546-2.347-3.525-3.52-.98-1.174 1.37-1.956 2.35-3.52.978-1.566-1.763 0-3.526 0s-1.567-1.76-2.35-4.695c-.784-2.933 2.154-2.346 4.7-2.346 2.545 0 1.566 2.543 2.35 2.347.782-.194 1.566-1.955 2.35-4.693.782-2.738 5.09-6.063 7.048-7.04 1.96-.98 3.72-.588 5.875-2.348 2.154-1.76-2.546-.784-3.525-2.348-.98-1.565 4.112-1.565 5.875-1.174 1.762.39 1.958-1.956 2.35-3.52.39-1.564-3.525-2.15-3.525-3.52s1.37-.978 1.175-2.348c-.196-1.37-1.763.196-3.525 0s-.587-1.76-1.175-2.346c-.587-.587-1.37 1.956-2.35 3.52-.98 1.565-1.762 4.498-3.524 4.694-1.764.196-.393-1.956 0-2.347.39-.39-.393-.195 0-1.172.39-.978-2.155-2.738-2.35-3.52-.197-.783 2.936-4.5 3.523-4.695.588-.196 4.31-1.565 4.7-1.173.392.39 2.35-2.347 2.35-2.347l-2.35-2.348 1.175-2.347-3.525 2.347v-2.347l1.175-3.52s-2.74-.587-2.35 0c.392.587-2.937 2.738-4.7 2.347-1.364-.303-.263-3.186.576-4.834-3.374 2.547-6.462 5.46-9.2 8.672.4.943.4 1.485.4 2.03 0 .783-1.175 1.174-1.175 1.174s-4.157 8.798-4.7 10.56z" fill="#4d8343"/><path d="M125.35 57.53s-2.203 1.247-2.35 1.174c-.147-.074.808 1.54 1.175 2.347.367.807-.88 3.74-1.175 4.695-.294.953-.514 3.153 0 3.52s.734 1.687 1.175 1.173c.44-.513.88-3.227 1.175-3.52.293-.293 1.468-5.134 1.175-4.694l-1.175-4.694zM132.52 54.165c.003-.004-.028-.047-.12-.156-.406-.347.1.172.12.155zm11.436-3.434c.06.02.14-.03.192-.24-.33-.048-.297.206-.192.24zm-10.382 2.105c-1.028-.22-1.616.66-1.175 1.174.513.44.807 1.686 1.174 3.52.367 1.833-.147 4.84 0 7.04s-1.175 4.695-2.35 5.868c-1.174 1.174.44 2.787 2.35 2.347 1.91-.44 2.717-3.08 4.7-4.694 1.982-1.612 5.14-4.106 7.05-5.866 1.908-1.76 2.35-7.408 2.35-8.215 0-.807-.81-2.788-2.35-3.52-1.543-.734-1.03-.588-1.176 0 .514.072-.954 1.392-2.35 1.172-1.395-.22-.734-1.98-2.35-2.347-1.615-.366-.734.734-1.174 2.347-.44 1.614-.294.587-1.175 1.173-.882.588-1.25-1.54-1.176-2.346.073-.808.955-2.055-1.175-2.348-2.13-.293-.882.44-2.35 1.173-1.47.734-1.616 1.027-3.525 2.347-1.91 1.32-2.938 1.394-3.525 2.347-.588.953.147.953 0 1.173-.147.22 1.982.44 2.35 0 .367-.44 2.35-2.127 2.35-2.348 0-.22 2.496-1.246 2.35-1.173-.148.074 2.35 0 2.35 0s-.148 1.394-1.176 1.173zM145.828 68.897c-.01.008.04.11.236.375.036-.07-.216-.39-.236-.375zm1.415-.806c-.733.176-1.185 1.18-1.18 1.182.57.77.684 1.386 1.18 1.166.496-.22.643.826 1.175 0 .532-.825 1.56-.532 1.175-1.173-.386-.642-1.58-1.357-2.35-1.174zM174.696 49.315c.147.147-.734-.44-1.175 0-.44.44-.146 2.495 0 2.347.148-.146 2.645-.22 2.35 0-.293.22-1.32-2.493-1.174-2.347zM175.44 93.91c-.03-.018-.07-.016-.117 0 .142.05.21.045.118 0zm-2.35 1.172c1.048-.066 1.86-1.06 2.233-1.173-.306-.11-.956-.47-1.057-1.175-.147-1.027 0-1.174 0-1.174s.073-1.246 1.175-1.172c1.102.073 1.03 1.393 2.35 2.347 1.323.954 2.204.66 3.526 1.174 1.32.512 1.762 1.685 1.174 2.346-.51.573-1.243 1.146-1.233 1.19.072-.028.097-.036.06-.017-.04.018-.06.023-.06.017-.48.19-3.083 1.283-3.466 1.156-.44-.147-1.174 0-1.174 0s-3.23-.074-3.525 0c-.292.073.295.66-1.174 1.173-1.468.513-1.175 0-1.175 0s-2.79-1.834-3.524-2.347c-.734-.515-2.35-2.055-3.524-1.174-1.175.88-4.333 3.373-5.875 3.52-1.542.147-5.287 4.254-5.874 4.694-.588.44-2.938 9.534-2.35 11.735.587 2.2 5.948 4.327 8.224 4.694 2.277.366 6.683 1.246 8.225 3.52 1.542 2.273.88 16.355 1.174 17.602.294 1.247.515 4.914 2.35 3.52 1.836-1.393 4.773-4.914 5.875-5.867 1.102-.954 7.344-10.415 8.225-12.908.882-2.494 3.82-4.988 4.7-5.868.88-.88 3.745-4.402 2.35-5.87-1.395-1.466-2.79.662-3.525 0-.734-.66-1.69-2.932-2.35-3.52-.66-.586-3.45-3.666-3.524-5.866-.074-2.2-1.396-4.548 0-4.694 1.395-.147 1.69.44 2.35 1.173.66.733 1.762 7.48 2.35 8.214.43.54 1.814 1.834 2.285 2.277-.328-.516 1.644-1.297 2.415-2.277.808-1.026 1.91-5.28 2.35-7.04.44-1.76-.074-2.64-1.175-2.347-1.102.293-3.966.366-3.525-1.174.44-1.54 2.35-3.814 2.35-3.52 0 .293 4.04 2.273 4.7 2.347.66.073 3.01.22 3.524 1.173.513.953 1.174 12.175 1.174 11.735 0-.44 2.13-12.1 2.35-12.907.22-.808 2.056-1.54 2.35-1.174-.362-17.832-8.855-33.672-21.924-43.978-1.687-1.068-2.75-1.76-2.75-1.79 0-.146-1.982.66-2.35 1.173-.366.514-1.027 4.255-1.174 4.695-.147.44 2.35-1.174 3.525 0 1.176 1.174 2.277 1.467 2.35 2.347.074.88-.807 3.153-1.174 2.347-.368-.807-1.91-2.054-2.35-2.347-.44-.294-2.35 1.174-2.35 1.174-.734.22-1.47-.44-1.175 0 .295.44-1.1 2.86-1.174 3.52-.073.66-1.175 2.348-1.175 2.348-.953-.807-1.54-2.934-1.174-3.52.367-.588-2.643-1.614-4.7-1.174-2.055.44-4.7 2.347-4.7 2.347v2.348s-.072.88-1.174 2.347c-1.1 1.467-1.175 2.347-1.175 2.347s-1.836-2.568-1.175 0c.66 2.567 3.525 4.767 4.7 4.694 1.175-.074 2.276-3.814 2.35-4.694.073-.88.954-4.987 1.174-4.694.22.293 1.176 1.833 1.176 2.347 0 .513 2.203 1.76 2.35 2.347.146.587.293 3.74 0 3.52-.294-.22-.955 1.614-1.176 2.347-.22.733-2.864 2.053-3.524 2.347-.66.293-6.61.366-7.05 2.346-.44 1.98-2.056 3.08-2.35 4.694-.293 1.614 1.47 2.935 1.175 3.52-.293.588-3.304-.365-3.524 1.174-.22 1.542-1.91 1.835 0 3.522 1.91 1.687 3.304 4.034 4.7 1.174 1.394-2.86 1.174-5.428 3.524-5.868 2.35-.44 2.276-.953 3.525 0 1.248.953 2.35 3.154 3.524 3.52 1.175.367.368-1.467 0-2.347-.367-.878-1.542-3.152-1.174-3.52.367-.366 1.69 1.028 2.35 1.174.66.147 1.174 5.94 2.35 5.868zM154.722 76.306c-.257.22-2.9 1.283-2.35 1.174.55-.11.735.88 1.176 1.173.44.293 2.717.403 2.35 0-.368-.404-.918-2.567-1.175-2.347zM110.076 107.99s.547-1.847 0-2.346c-.547-.5-2.35-1.174-2.35-1.174v1.174l1.175 1.173 1.176 1.173zM113.6 115.03c-.452-.344-3.663.578-3.524 1.175.14.597.023 2.294 0 3.52-.024 1.228-2.802 2.56-2.35 3.52.452.962 1.314 5.16 2.35 5.87 1.036.706 7.51 7.407 8.224 9.386.714 1.98 1.624 5.35 2.35 7.042.726 1.692 5.076 4.916 5.875 5.868.31.37 1.012 1.076 1.785 1.766.75.25 1.506.486 2.268.704-1.335-1.34-4.16-3.412-4.053-3.644.147-.316-1.37-2.655 0-3.52 1.37-.865 2.83-3.072 3.524-4.694.695-1.622-1.524-3.222 1.174-3.52 2.698-.3 3.13-6.53 3.525-8.215.394-1.686-6.906-4.122-8.225-4.694-1.32-.573-7.146-5.535-8.225-7.04-1.08-1.507-4.247-3.177-4.7-3.522zM120.65 51.662c.365-.01-.972-.99-1.175 0-.202.99-.502 2.372 0 2.347.502-.025 2.79.728 2.35 0-.44-.73-1.54-2.337-1.175-2.348zM180.57 137.328c.02 0 .044-.005.07-.024-.27 0-.302.008-.07.024zm3.525-4.694c-.37-.284-2.866 4.288-3.454 4.67.22 0 .59.007 1.106.024 1.157.038 3.608-3.592 3.524-3.52-.083.07 1.628-3.893 1.175-3.52-.452.37-1.964 2.644-2.35 2.346zM112.426 110.337c-.045-.062.903-.056 1.14-.023-.01-.142.356-.805.035-1.15-.372-.4-1.1-.113-1.174 0-.076.113.054 1.25 0 1.173z" fill="#4d8343"/></g><path d="M155.255 105.173c1.033 0 1.872.842 1.872 1.877 0 1.035-.84 1.877-1.872 1.877-1.033 0-1.874-.842-1.874-1.877 0-1.035.842-1.877 1.875-1.877zm0-2.18c-2.237 0-4.05 1.816-4.05 4.057 0 2.242 1.813 4.057 4.05 4.057 2.236 0 4.05-1.816 4.05-4.057 0-2.24-1.814-4.058-4.05-4.058zM124.203 124.91c1.033 0 1.873.84 1.873 1.876 0 1.035-.84 1.877-1.873 1.877s-1.874-.842-1.874-1.877c0-1.035.84-1.877 1.873-1.877zm0-2.182c-2.237 0-4.05 1.816-4.05 4.058 0 2.24 1.813 4.058 4.05 4.058 2.236 0 4.05-1.817 4.05-4.058 0-2.242-1.814-4.058-4.05-4.058zM109.304 88.26c1.033 0 1.873.843 1.873 1.878 0 1.034-.84 1.877-1.873 1.877s-1.874-.843-1.874-1.877c0-1.035.84-1.877 1.874-1.877zm0-2.18c-2.237 0-4.05 1.817-4.05 4.058 0 2.24 1.813 4.058 4.05 4.058 2.236 0 4.05-1.817 4.05-4.058 0-2.242-1.814-4.058-4.05-4.058z" fill="#fff"/><path d="M105.687 88.71l1.475-1.602-19.824-28.096h-31.09v2.182h30.24l19.2 27.517zM193.288 20.877H56.248v2.182l137.076-.002-.036-2.18z" fill="#fff"/><path d="M80.266 71.846l-24.34.002v2.18l23.477-.002 25.835 52.45h15.566v-2.18H106.1l-25.834-52.45zM104.45 32.227l-48.525.004v2.182l47.663-.003 33.23 73.075h15.566v-2.18H137.68l-33.23-73.078zM182.085 74.513c1.033 0 1.873.842 1.873 1.877 0 1.035-.84 1.877-1.873 1.877s-1.873-.842-1.873-1.877c0-1.035.84-1.877 1.873-1.877zm0-2.18c-2.237 0-4.05 1.816-4.05 4.057 0 2.24 1.813 4.058 4.05 4.058 2.236 0 4.05-1.817 4.05-4.058 0-2.24-1.814-4.058-4.05-4.058zM196.278 20.414c1.033 0 1.872.84 1.872 1.876 0 1.035-.84 1.878-1.872 1.878-1.033 0-1.874-.843-1.874-1.878s.84-1.876 1.874-1.876zm0-2.182c-2.237 0-4.05 1.817-4.05 4.058 0 2.242 1.813 4.058 4.05 4.058 2.236 0 4.05-1.816 4.05-4.058 0-2.24-1.814-4.058-4.05-4.058z" fill="#fff"/><path d="M130.86 45.944l-74.935.002v2.18h74.072l19.055 28.396h30.465v-2.18h-29.602L130.86 45.944z" fill="#fff"/><g><path d="M151.7 126.555c0 1.448.35 2.814.966 4.017-3.038 1.606-5.112 4.814-5.112 8.51 0 5.304 4.27 9.604 9.535 9.604 1.7 0 3.293-.446 4.675-1.23 1.66 2.267 4.334 3.736 7.346 3.736 3.196 0 6.01-1.654 7.638-4.16 1.512 2.966 4.58 4.995 8.117 4.995 3.364 0 6.304-1.834 7.884-4.564 1.34.78 2.893 1.223 4.55 1.223 5.038 0 9.12-4.112 9.12-9.186s-4.082-9.186-9.12-9.186c-3.363 0-6.303 1.833-7.884 4.563-1.34-.78-2.893-1.223-4.552-1.223-3.195 0-6.007 1.653-7.636 4.16-1.512-2.968-4.578-4.995-8.117-4.995-1.17 0-2.293.222-3.323.63 2.025-1.606 3.324-4.097 3.324-6.895 0-4.843-3.896-8.77-8.704-8.77-4.808 0-8.706 3.927-8.706 8.77z" fill="#ededed"/><path d="M206.347 133.654h.074c2.75 0 4.976-2.243 4.976-5.01 0-2.77-2.227-5.012-4.975-5.012-1.73 0-3.253.89-4.144 2.242v-.154c0-3.92-3.155-7.1-7.048-7.1-2.697 0-5.04 1.526-6.226 3.768-.22-6.73-5.886-12.118-12.843-12.118-5.6 0-10.36 3.49-12.123 8.36l-.315-.01c-3.892 0-7.047 3.18-7.047 7.1 0 .937.178 1.833.505 2.652-3.68 1.33-6.31 4.875-6.31 9.04 0 5.304 4.27 9.604 9.536 9.604 1.594 0 3.098-.393 4.42-1.09 1.668 1.695 4.084 2.76 6.773 2.76 2.395 0 4.577-.846 6.205-2.23 1.672 1.872 4.213 3.066 7.06 3.066l.435-.01.394.01c2.61 0 4.942-1.216 6.463-3.116 1.5.917 3.26 1.445 5.144 1.445 5.496 0 9.95-4.486 9.95-10.02 0-1.49-.323-2.905-.903-4.176z" fill="#fff"/><path d="M165.795 126.973l.004.213c.106-2.903 2.476-5.225 5.384-5.225 2.242 0 4.163 1.38 4.975 3.342.135.33.24.674.31 1.03.2-.347.442-.67.713-.963.984-1.07 2.39-1.738 3.95-1.738 1.974 0 3.7 1.07 4.64 2.664.17.29.315.597.43.92.226-.17.467-.323.718-.456.75-.398 1.6-.623 2.505-.623 2.908 0 5.278 2.32 5.385 5.224l.004-.212c0-3.23-2.6-5.846-5.804-5.846-.902 0-1.755.207-2.516.577-1.083-1.846-3.08-3.083-5.36-3.083-1.654 0-3.156.652-4.27 1.712-.924-1.997-2.935-3.384-5.265-3.384-3.207 0-5.805 2.618-5.805 5.847z" fill="#ededed"/></g></svg>