<?xml version="1.0" standalone="no"?><!-- Generator: Adobe Fireworks CS6, Export SVG Extension by Aaron Beall (http://fireworks.abeall.com) . Version: 0.6.1  --><!DOCTYPE svg PUBLIC "-//W3C//DTD SVG 1.1//EN" "http://www.w3.org/Graphics/SVG/1.1/DTD/svg11.dtd"><svg id="Untitled-Page%201" viewBox="0 0 299 337" style="background-color:#ffffff00" version="1.1"	xmlns="http://www.w3.org/2000/svg" xmlns:xlink="http://www.w3.org/1999/xlink" xml:space="preserve"	x="0px" y="0px" width="299px" height="337px">	<g id="Layer%201">		<g>			<path d="M 228.6367 136.2241 L 245.5928 111.7788 L 238.2061 106.7993 L 222.3611 132.375 L 228.6367 136.2241 L 228.6367 136.2241 ZM 216.7971 147.7803 C 219.3932 149.291 222.3701 148.2109 224.1333 145.4673 C 225.9906 142.5781 225.4116 139.6338 223.0029 138.1782 C 220.7448 136.813 217.504 137.4863 215.5693 140.3872 C 213.7324 143.1421 214.2953 146.3237 216.7971 147.7803 L 216.7971 147.7803 Z" fill="#999999"/>		</g>		<path id="Ellipse" d="M 0 68.5 C 0 30.668 32.6827 0 73 0 C 113.3174 0 146 30.668 146 68.5 C 146 106.332 113.3174 137 73 137 C 32.6827 137 0 106.332 0 68.5 Z" fill="#000000"/>		<g>			<path d="M 44.193 39.7119 C 44.3425 39.8608 44.4493 40.123 44.5106 40.4873 C 44.6057 40.9473 44.6871 41.25 44.7527 41.3838 C 44.8695 41.6895 44.9989 41.9009 45.1409 42.0171 C 45.3199 42.1938 45.5475 42.2334 45.8265 42.146 C 46.1516 42.0601 46.3641 41.8848 46.486 41.6157 C 46.5859 41.3521 46.5691 41.0806 46.4355 40.8013 C 46.312 40.5659 45.8918 39.4468 45.1774 37.4546 C 45.0942 37.2446 44.9447 37.0952 44.7447 37.0264 C 44.5473 36.9688 44.3322 36.9839 44.1129 37.0801 C 43.9348 37.1558 43.813 37.2754 43.7341 37.4312 C 43.6551 37.5874 43.6492 37.7607 43.6946 37.9565 C 43.7148 38.0439 43.8728 38.627 44.193 39.7119 L 44.193 39.7119 ZM 49.6826 39.4229 C 49.3624 38.3384 49.1909 37.7466 49.1573 37.6514 C 49.0632 37.4434 48.9052 37.3076 48.6943 37.2417 C 48.5019 37.2056 48.2977 37.2183 48.0684 37.271 C 47.8878 37.3354 47.7659 37.4551 47.687 37.6113 C 47.608 37.7671 47.5887 37.9321 47.6316 38.1172 C 47.7148 38.4766 47.8888 39.0791 48.1644 39.9219 C 48.1921 40.0415 48.2401 40.2485 48.2947 40.5342 C 48.3275 40.8247 48.367 41.0449 48.4191 41.1709 C 48.4889 41.3726 48.6006 41.5073 48.735 41.5913 C 48.8964 41.6919 49.1274 41.6958 49.4172 41.6064 C 49.6794 41.5459 49.8693 41.4219 49.965 41.2393 C 50.0381 41.1079 50.0524 40.9209 50.0237 40.6982 C 49.9935 40.5674 49.9431 40.3496 49.8506 40.0498 C 49.7523 39.7739 49.6935 39.5698 49.6826 39.4229 L 49.6826 39.4229 Z" fill="#ffffff"/>			<path d="M 67.9857 33.8101 C 68.1393 33.7285 68.4611 33.6777 68.9509 33.6567 C 69.4786 33.6499 69.8818 33.603 70.1557 33.4941 C 70.5716 33.3525 70.8589 33.1025 71.0017 32.7256 C 71.1436 32.3945 71.1394 32.0288 70.994 31.6489 C 70.8074 31.1416 70.3008 31.04 69.4741 31.3452 C 68.9675 31.542 66.8496 32.2822 63.0984 33.5698 C 60.5234 34.4727 58.4315 35.2754 56.8008 35.9834 C 55.5071 36.5566 54.4443 36.8354 53.6369 36.8267 C 52.6472 36.8247 52.0742 36.9336 51.907 37.1558 C 51.7374 37.3672 51.8013 37.8916 52.0878 38.7314 C 52.8207 40.9033 53.2921 42.3433 53.4913 43.0547 C 53.9292 44.6973 54.1251 46.1895 54.0731 47.5547 C 54.0631 48.1079 54.2866 48.5269 54.7815 48.8257 C 55.0882 49.0073 55.3672 49.5171 55.6134 50.332 C 55.6849 50.5908 55.8311 51.0732 56.0681 51.7988 C 56.2555 52.4097 56.4017 52.8921 56.4984 53.2598 C 56.8152 54.3799 57.5184 54.7344 58.6241 54.3423 C 59.0727 54.1929 59.6179 53.9644 60.2648 53.6777 C 63.8605 52.1157 66.496 51.1763 68.1738 50.8706 C 69.2156 50.6992 69.6205 50.1128 69.3885 49.1108 C 69.2977 48.7188 69.0624 48.4976 68.7096 48.4644 C 68.5004 48.4551 68.1702 48.5195 67.7081 48.6606 C 66.7235 48.979 66.0858 49.2061 65.7952 49.3418 C 65.1474 49.6743 64.1998 50.0532 62.9496 50.4673 C 61.6122 50.9014 60.6595 51.2583 60.0891 51.5269 C 59.2002 51.9609 58.5861 52.0908 58.2516 51.9385 C 57.9442 51.8027 57.6114 51.2603 57.2584 50.332 C 57.2509 50.2993 57.2122 50.1821 57.1509 49.9668 C 57.1046 49.8164 57.0551 49.7017 57.0105 49.6089 C 56.766 49.1489 56.7021 48.7734 56.8298 48.4805 C 56.949 48.2007 57.2691 47.9434 57.8009 47.7061 C 60.8145 46.3125 63.239 45.3071 65.0831 44.6763 C 65.8107 44.4399 66.3357 44.124 66.6524 43.7529 C 66.9691 43.3818 67.0027 43.0298 66.7582 42.7192 C 66.407 42.2949 65.9961 42.1602 65.5256 42.3145 C 65.3777 42.3716 65.1719 42.4761 64.9249 42.6021 C 64.6225 42.7861 64.4167 42.8911 64.31 42.9268 C 61.4267 44.187 59.3222 45.0845 57.9855 45.6216 C 57.0379 46.0005 56.4187 46.1089 56.1331 45.9678 C 55.8608 45.8354 55.5961 45.2886 55.3364 44.3159 C 55.2397 43.9482 55.0986 43.3384 54.9078 42.4644 C 54.7237 41.6694 54.58 41.0488 54.4573 40.6182 C 54.2724 40.0181 54.2866 39.5332 54.5 39.1631 C 54.6965 38.8193 55.1014 38.5313 55.7064 38.3115 L 61.6973 36.0146 C 64.1505 35.083 66.2466 34.3481 67.9857 33.8101 L 67.9857 33.8101 Z" fill="#ffffff"/>			<path d="M 84.8812 33.8438 C 85.1738 36.5981 85.321 38.0786 85.3311 38.2715 C 85.4716 40.5679 84.8787 42.9756 83.5657 45.5029 C 82.6526 47.2734 81.4866 47.4043 80.0623 45.8735 C 79.7557 45.543 79.5355 45.2378 79.3935 44.9722 C 77.3826 41.1563 76.196 37.4722 75.8226 33.9214 C 75.8167 33.7969 75.8209 33.5664 75.8351 33.2305 C 75.8544 32.9165 75.8561 32.6748 75.8317 32.52 C 75.7703 32.0063 75.4401 31.7729 74.8411 31.8188 C 74.2858 31.855 73.9733 32.145 73.9011 32.6777 C 73.8658 32.8232 73.8953 33.2983 73.9676 34.1079 C 74.3586 38.3311 75.8898 42.6587 78.572 47.0889 C 79.377 48.4292 80.434 49.0688 81.7513 48.9951 C 83.0469 48.9263 84.1063 48.2349 84.9412 46.8726 C 86.0954 45.001 86.8286 42.3545 87.1577 38.9063 C 87.2609 37.8613 87.1162 36.3921 86.7321 34.4844 C 86.3328 32.5117 86.1529 31.0386 86.1948 30.0771 C 86.1973 29.939 85.9897 29.5391 85.5637 28.8916 C 84.9755 28.0405 84.3572 27.8042 83.6843 28.1772 C 83.3574 28.3555 83.2004 28.6211 83.2155 28.9849 C 83.2113 29.2153 83.2953 29.5283 83.4677 29.9248 C 84.355 32.1182 84.829 33.4199 84.8812 33.8438 L 84.8812 33.8438 Z" fill="#ffffff"/>			<path d="M 24.4495 67.624 C 23.6925 67.6836 22.902 67.9458 22.0829 68.4326 C 21.8493 68.5664 21.7535 68.749 21.793 68.9697 C 21.8233 69.1001 21.8813 69.2017 21.9838 69.2471 C 22.0754 69.2944 22.1812 69.3047 22.2963 69.2554 C 22.5702 69.1465 22.7903 69.1528 22.9374 69.291 C 23.0121 69.3657 23.1038 69.5625 23.218 69.8574 L 23.8181 71.4058 C 24.0643 72.0718 24.2643 72.5879 24.3962 72.959 C 24.9635 74.5146 25.4341 75.8516 25.8081 76.9697 C 25.8779 77.1719 25.9543 77.3032 26.04 77.3755 C 26.1417 77.4668 26.2853 77.4912 26.4601 77.4507 C 26.5912 77.4204 26.6877 77.3408 26.7499 77.2119 C 26.7617 77.1636 26.7886 77.0308 26.8306 76.8149 C 26.8675 76.5771 26.7288 76.127 26.4095 75.4434 C 26.0238 74.6719 25.6179 73.6641 25.1918 72.4199 C 24.5086 70.5127 24.1439 69.4839 24.1027 69.3555 C 23.9884 69.0605 23.9598 68.8379 24.0388 68.6821 C 24.1068 68.5288 24.3101 68.4131 24.6378 68.3374 C 26.1836 67.959 27.8051 68.0557 29.483 68.6445 C 30.3635 68.9697 30.8735 69.6323 31.0266 70.6411 C 31.1207 71.2959 31.0544 71.9536 30.8276 72.6138 C 30.4059 73.8237 29.986 74.792 29.5567 75.522 C 28.9813 76.5146 28.2925 77.3159 27.4792 77.9272 C 27.0878 78.2241 27.0223 78.5371 27.2996 78.8403 C 27.6138 79.2041 27.9515 79.1724 28.3237 78.7422 C 28.7236 78.2832 29.0915 77.7856 29.4384 77.2471 C 30.8396 75.1006 31.63 73.1978 31.7987 71.5415 C 31.9666 69.7822 31.254 68.5928 29.6694 67.9595 C 27.7958 67.2207 26.055 67.105 24.4495 67.624 L 24.4495 67.624 Z" fill="#ffffff"/>			<path d="M 42.1538 64.7412 C 42.2361 64.6992 42.4352 64.665 42.7318 64.6538 C 43.0528 64.6489 43.2872 64.6182 43.4569 64.5562 C 43.7031 64.4766 43.8744 64.3223 43.9601 64.0962 C 44.0399 63.894 44.0356 63.6772 43.9584 63.4424 C 43.8441 63.1475 43.5408 63.0796 43.0425 63.2632 C 42.7359 63.3799 41.4606 63.834 39.2225 64.6016 C 37.6683 65.1431 36.4114 65.6274 35.4386 66.0464 C 34.6547 66.3872 34.0263 66.5547 33.5424 66.5518 C 32.9442 66.5518 32.6031 66.6187 32.5057 66.7441 C 32.3998 66.8833 32.4377 67.1958 32.6108 67.6953 C 33.052 69.0044 33.3327 69.8691 33.4529 70.2891 C 33.7151 71.2725 33.832 72.1748 33.801 72.9849 C 33.7976 73.3184 33.9371 73.5728 34.2303 73.7461 C 34.4185 73.8638 34.579 74.1592 34.7278 74.6528 C 34.7631 74.8052 34.8555 75.105 35.0001 75.5308 C 35.1077 75.896 35.2001 76.1958 35.2615 76.4111 C 35.4421 77.0923 35.8707 77.3032 36.5276 77.0601 C 36.8066 76.9731 37.1325 76.8408 37.5165 76.6606 C 39.6705 75.729 41.255 75.1689 42.259 74.9839 C 42.8782 74.8755 43.1293 74.5195 42.9907 73.9204 C 42.9352 73.6812 42.7906 73.5537 42.5789 73.5337 C 42.4622 73.5259 42.2631 73.5605 41.9841 73.6475 C 41.3851 73.8428 41.002 73.9771 40.8373 74.0605 C 40.4475 74.2651 39.8779 74.4883 39.131 74.7402 C 38.327 74.9941 37.7549 75.2061 37.4147 75.3765 C 36.877 75.6377 36.5141 75.71 36.3091 75.6191 C 36.1284 75.5347 35.9276 75.2139 35.7175 74.6543 C 35.7125 74.6323 35.6864 74.5698 35.6452 74.4414 C 35.6251 74.3545 35.5965 74.2808 35.5595 74.2202 C 35.415 73.9438 35.3864 73.7212 35.4603 73.5435 C 35.5258 73.3794 35.7191 73.2202 36.0425 73.0767 C 37.8521 72.2471 39.2988 71.6387 40.4069 71.2573 C 40.8446 71.1108 41.1605 70.9351 41.3495 70.708 C 41.5385 70.481 41.5612 70.2808 41.4125 70.0854 C 41.205 69.835 40.9562 69.7544 40.6773 69.8418 C 40.584 69.8862 40.4581 69.938 40.3152 70.0166 C 40.1338 70.1274 40.0103 70.1904 39.9473 70.2163 C 38.2124 70.9712 36.9438 71.5044 36.144 71.8257 C 35.5744 72.0488 35.2006 72.1235 35.0417 72.0337 C 34.8746 71.9575 34.7174 71.6265 34.5594 71.0435 C 34.498 70.8281 34.4124 70.458 34.3022 69.9326 C 34.1913 69.4536 34.1055 69.083 34.0341 68.8242 C 33.9265 68.459 33.929 68.1719 34.0634 67.957 C 34.176 67.748 34.4238 67.5762 34.7851 67.4468 L 38.3774 66.0693 C 39.8452 65.502 41.1011 65.064 42.1538 64.7412 L 42.1538 64.7412 Z" fill="#ffffff"/>			<path d="M 45.8135 64.5986 C 46.0059 64.7837 46.1051 64.8638 46.116 64.8613 C 46.8116 64.7358 47.3636 64.8838 47.7636 65.3198 C 48.009 65.5845 48.2635 66.0879 48.5493 66.8252 L 49.2224 68.689 C 49.3191 69.0566 49.7973 70.5757 50.6595 73.2563 C 50.757 73.5781 50.9175 73.7246 51.1216 73.7119 C 51.4157 73.6904 51.6064 73.52 51.6618 73.1631 C 51.6979 72.9717 51.6567 72.6943 51.5273 72.334 C 51.1492 71.2969 50.8819 70.5898 50.7365 70.2104 C 50.5231 69.686 50.4617 69.3213 50.5306 69.1221 C 50.5995 68.9229 50.8809 68.6973 51.3749 68.4458 C 51.4354 68.4092 51.6025 68.3359 51.8983 68.2222 C 53.2702 67.6885 54.1675 67.3901 54.59 67.3271 C 54.8463 67.291 55.0336 67.1563 55.1412 66.9248 C 55.2537 66.7153 55.2495 66.4985 55.1369 66.2607 C 55.0294 66.0444 54.8789 65.9414 54.6992 65.96 C 54.6664 65.9673 54.4992 66.0405 54.1976 66.1787 C 53.7918 66.3638 53.2079 66.6245 52.4434 66.9497 C 51.6487 67.293 51.0648 67.5537 50.6867 67.7095 C 50.459 67.8193 50.2818 67.8486 50.1574 67.8086 C 50.0112 67.7734 49.886 67.6299 49.7978 67.3979 C 49.4575 66.5239 49.139 65.7944 48.8423 65.209 C 48.7062 64.9189 48.6776 64.6963 48.7541 64.5293 C 48.8246 64.3872 49.001 64.2549 49.2943 64.1299 C 51.1434 63.3716 52.0667 62.9868 52.0557 62.9893 C 52.4111 62.8848 53.1832 62.5923 54.3669 62.0903 C 55.3146 61.7114 56.0942 61.4517 56.7327 61.3276 C 57.0108 61.2866 57.22 61.1465 57.3603 60.9077 C 57.4921 60.6826 57.5013 60.4741 57.3904 60.293 C 57.2661 60.1035 57.0989 60.0273 56.8973 60.0508 C 56.8317 60.0659 56.7469 60.0972 56.6402 60.1328 C 56.5032 60.1875 56.4184 60.2183 56.3747 60.2285 C 56.2789 60.2622 56.0983 60.3267 55.8463 60.4307 L 49.2925 63.1782 C 48.9254 63.3315 48.6599 63.4268 48.5045 63.4512 C 48.2154 63.4951 47.934 63.4219 47.687 63.2495 C 47.5525 63.1655 47.4063 63.1304 47.2425 63.1685 C 47.0652 63.1978 46.9686 63.2773 46.9526 63.4072 C 46.9073 63.6582 46.7267 63.8721 46.4218 64.0454 C 46.0756 64.2397 45.8765 64.4233 45.8135 64.5986 L 45.8135 64.5986 Z" fill="#ffffff"/>			<path d="M 68.7156 58.6265 C 68.7979 58.5845 68.997 58.5503 69.2936 58.5391 C 69.6146 58.5342 69.8489 58.5034 70.0187 58.4414 C 70.2648 58.3618 70.4362 58.2075 70.5219 57.9814 C 70.6017 57.7793 70.5974 57.5625 70.5201 57.3276 C 70.4058 57.0327 70.1025 56.9648 69.6043 57.1484 C 69.2977 57.2651 68.0224 57.7192 65.7843 58.4868 C 64.23 59.0283 62.9732 59.5127 62.0004 59.9316 C 61.2165 60.2725 60.5881 60.4399 60.1042 60.437 C 59.506 60.437 59.1649 60.5039 59.0674 60.6294 C 58.9616 60.7686 58.9995 61.0811 59.1725 61.5806 C 59.6138 62.8896 59.8945 63.7544 60.0146 64.1743 C 60.2769 65.1577 60.3937 66.0601 60.3627 66.8701 C 60.3594 67.2036 60.4989 67.458 60.7921 67.6313 C 60.9803 67.749 61.1408 68.0444 61.2896 68.5381 C 61.3249 68.6904 61.4173 68.9902 61.5619 69.416 C 61.6694 69.7813 61.7619 70.0811 61.8232 70.2964 C 62.0039 70.9775 62.4324 71.1885 63.0894 70.9458 C 63.3683 70.8584 63.6943 70.7261 64.0782 70.5459 C 66.2323 69.6143 67.8168 69.0542 68.8207 68.8691 C 69.4399 68.7607 69.6911 68.4048 69.5524 67.8057 C 69.4969 67.5664 69.3524 67.439 69.1407 67.4189 C 69.0239 67.4111 68.8248 67.4458 68.5459 67.5327 C 67.9469 67.728 67.5638 67.8623 67.3991 67.9458 C 67.0093 68.1504 66.4397 68.3735 65.6928 68.6255 C 64.8889 68.8794 64.3167 69.0913 63.9764 69.2617 C 63.4388 69.5229 63.0759 69.5952 62.8708 69.5044 C 62.6902 69.4199 62.4894 69.0991 62.2793 68.5396 C 62.2742 68.5176 62.2482 68.4551 62.207 68.3267 C 62.1868 68.2397 62.1583 68.166 62.1213 68.1055 C 61.9767 67.8291 61.9482 67.6064 62.0221 67.4287 C 62.0876 67.2646 62.2808 67.1055 62.6042 66.9619 C 64.4139 66.1323 65.8605 65.5239 66.9687 65.1426 C 67.4064 64.9961 67.7223 64.8203 67.9113 64.5933 C 68.1003 64.3662 68.123 64.166 67.9742 63.9707 C 67.7667 63.7202 67.518 63.6396 67.2391 63.7271 C 67.1458 63.7715 67.0198 63.8232 66.877 63.9019 C 66.6956 64.0127 66.572 64.0757 66.509 64.1016 C 64.7742 64.8564 63.5056 65.3896 62.7058 65.7114 C 62.1362 65.9341 61.7623 66.0088 61.6035 65.9189 C 61.4363 65.8428 61.2792 65.5117 61.1212 64.9287 C 61.0598 64.7134 60.9741 64.3433 60.864 63.8179 C 60.7531 63.3389 60.6673 62.9688 60.5959 62.7095 C 60.4883 62.3442 60.4908 62.0571 60.6252 61.8428 C 60.7377 61.6333 60.9856 61.4614 61.3469 61.3325 L 64.9392 59.9546 C 66.4069 59.3872 67.6629 58.9492 68.7156 58.6265 L 68.7156 58.6265 Z" fill="#ffffff"/>			<path d="M 74.9641 61.0195 C 75.2304 61.0269 75.4917 61.1616 75.7371 61.4268 L 79.9568 66.2368 C 80.266 66.5786 80.4097 66.752 80.4046 66.73 C 80.6054 66.9019 80.8171 66.9219 81.0448 66.812 C 81.2641 66.7158 81.4061 66.5337 81.4816 66.2642 C 81.5169 66.1182 81.5404 65.8721 81.5496 65.5142 C 81.5463 65.4004 81.5017 65.1582 81.4378 64.7832 C 81.3411 64.2661 81.1646 63.5039 80.9218 62.5044 C 80.6847 61.4805 80.5107 60.729 80.4191 60.2339 C 80.0762 58.4546 80.0063 56.9106 80.2153 55.5776 C 80.2455 55.4102 80.1968 55.249 80.0851 55.1143 C 79.9624 54.9819 79.8062 54.9033 79.6028 54.8696 C 79.2281 54.8413 78.9962 55.0322 78.8904 55.4697 C 78.8492 55.6396 78.8484 55.835 78.8879 56.0552 C 79.014 56.8979 79.2007 58.1514 79.4588 59.8125 C 79.7059 61.4766 79.9035 62.7271 80.0245 63.5483 L 80.08 63.7876 C 80.1052 63.8965 80.112 63.9756 80.1136 64.0322 C 80.1129 64.2275 80.012 64.3887 79.7869 64.5093 C 77.6838 62.1826 76.0385 60.0952 74.8293 58.2515 C 74.7815 58.1938 74.705 58.062 74.6025 57.8677 C 74.5075 57.7061 74.4336 57.5854 74.3756 57.4839 C 74.2159 57.2915 73.9966 57.2388 73.7009 57.3525 C 73.4926 57.4463 73.3893 57.5962 73.3935 57.8135 C 73.3952 58.0195 73.4053 58.2124 73.4507 58.4082 L 74.24 62.8608 C 74.4973 64.5684 74.5705 66.0771 74.4816 67.3823 C 74.4581 67.7778 74.6177 67.9707 74.9739 67.9688 C 75.137 67.9771 75.2764 67.9336 75.3898 67.8271 C 75.4948 67.7344 75.5545 67.5942 75.5629 67.4316 C 75.5998 66.8955 75.5897 66.4048 75.5409 65.9453 C 75.4938 65.5435 75.3088 63.8999 74.9641 61.0195 L 74.9641 61.0195 Z" fill="#ffffff"/>			<path d="M 84.563 53.7852 C 83.806 53.8447 83.0154 54.1069 82.1964 54.5938 C 81.9628 54.728 81.867 54.9106 81.9066 55.1309 C 81.9368 55.2617 81.9948 55.3628 82.0973 55.4082 C 82.1888 55.4561 82.2947 55.4658 82.4098 55.4165 C 82.6837 55.3076 82.9038 55.3145 83.0508 55.4526 C 83.1256 55.5273 83.2172 55.7241 83.3315 56.019 L 83.9315 57.5669 C 84.1778 58.2329 84.3778 58.749 84.5097 59.1201 C 85.077 60.6758 85.5476 62.0127 85.9216 63.1313 C 85.9913 63.333 86.0678 63.4648 86.1535 63.5366 C 86.2551 63.6279 86.3988 63.6523 86.5735 63.6123 C 86.7047 63.582 86.8013 63.5024 86.8634 63.3735 C 86.8752 63.3247 86.902 63.1924 86.944 62.9761 C 86.981 62.7383 86.8423 62.2886 86.5229 61.605 C 86.1373 60.8335 85.7314 59.8257 85.3053 58.5815 C 84.6221 56.6738 84.2573 55.645 84.2162 55.5171 C 84.1019 55.2222 84.0733 54.999 84.1522 54.8433 C 84.2203 54.6899 84.4236 54.5742 84.7512 54.499 C 86.2971 54.1201 87.9186 54.2173 89.5964 54.8062 C 90.477 55.1309 90.987 55.7935 91.14 56.8022 C 91.2342 57.4575 91.1678 58.1152 90.9411 58.7754 C 90.5194 59.9849 90.0994 60.9536 89.6702 61.6831 C 89.0948 62.6763 88.4059 63.4771 87.5927 64.0889 C 87.2012 64.3853 87.1357 64.6987 87.413 65.002 C 87.7273 65.3657 88.065 65.3335 88.4371 64.9038 C 88.837 64.4448 89.205 63.9473 89.5519 63.4082 C 90.9531 61.2617 91.7435 59.3594 91.9122 57.7026 C 92.0801 55.9434 91.3675 54.7539 89.7829 54.1206 C 87.9093 53.3818 86.1685 53.2666 84.563 53.7852 L 84.563 53.7852 Z" fill="#ffffff"/>			<path d="M 101.2626 61.1714 C 100.036 61.3389 99.0438 61.3267 98.291 61.1558 C 97.2727 60.9312 96.4367 60.4009 95.7939 59.5625 C 94.3116 57.6323 94.1325 55.666 95.2674 53.6611 C 95.6017 53.0679 95.9302 52.6484 96.2612 52.3887 C 96.7081 52.0332 97.2407 51.8989 97.8566 51.9751 C 98.3094 52.043 98.543 51.9092 98.5329 51.5674 C 98.5396 51.1987 98.3505 50.9785 97.9716 50.8818 C 97.1104 50.6904 96.3727 50.8828 95.7477 51.4629 C 94.5078 52.666 93.7618 53.916 93.5343 55.2188 C 93.3109 56.4404 93.4077 57.5537 93.8052 58.5747 C 94.2051 59.6069 94.8933 60.4922 95.8722 61.2422 C 97.556 62.5522 99.6102 62.7793 102.0617 61.9395 C 104.0754 61.2466 105.3187 59.5605 105.7864 56.8604 C 106.0182 55.4766 105.5375 54.2451 104.32 53.1602 C 103.2361 52.2051 102.022 51.6816 100.6753 51.5786 C 100.4904 51.5757 100.3375 51.6108 100.2191 51.6953 C 100.0813 51.7959 99.9838 51.9214 99.9536 52.0889 C 99.8763 52.4512 100.0327 52.6787 100.4359 52.7813 C 100.5956 52.8247 100.8014 52.8691 101.0619 52.9009 C 101.3845 52.9526 101.5988 52.9839 101.6937 52.9961 C 102.4767 53.1484 103.1346 53.4561 103.6673 53.9185 C 104.205 54.4028 104.5504 55 104.7034 55.7104 C 104.9623 57.0273 104.717 58.2539 103.9627 59.3682 C 103.2336 60.4424 102.3363 61.0386 101.2626 61.1714 L 101.2626 61.1714 Z" fill="#ffffff"/>			<path d="M 115.0274 48.9746 C 115.3148 49.0229 115.5164 49.1489 115.6432 49.3491 C 116.5978 50.9878 117.1381 51.9302 117.2642 52.1763 C 117.4768 52.5977 117.5533 52.8784 117.4911 53.0073 C 117.4205 53.1499 117.1433 53.2939 116.6619 53.4507 C 116.1747 53.6318 115.6302 53.8145 115.0505 53.9937 C 114.8153 54.0708 114.6523 54.0625 114.5372 53.9629 C 114.4355 53.8716 114.4003 53.7188 114.4263 53.4834 L 115.0274 48.9746 L 115.0274 48.9746 ZM 112.938 58.7817 C 112.9985 59.043 113.1237 59.1865 113.3514 59.2256 C 113.6522 59.2827 113.8505 59.145 113.9378 58.8267 C 113.9579 58.7651 113.9781 58.5537 114.0092 58.1909 C 114.1023 56.9536 114.1585 56.2524 114.1669 56.0898 C 114.1744 55.5259 114.4667 55.1489 115.0414 54.9478 C 116.2479 54.5439 116.9922 54.2808 117.2854 54.1563 C 117.592 54.0396 117.8373 54.0059 118.0129 54.0688 C 118.2129 54.1377 118.3751 54.3413 118.5054 54.6553 C 118.5625 54.8027 118.9894 55.7026 119.8129 57.3711 C 119.991 57.7432 120.2364 57.8589 120.5489 57.7178 C 120.8421 57.5933 120.9555 57.3374 120.9109 56.9463 C 120.9034 56.9136 120.8033 56.73 120.6 56.3984 C 120.0664 55.5347 119.7891 55.0825 119.7791 55.0386 C 119.7371 54.9565 119.6656 54.8472 119.5757 54.707 C 119.4564 54.5396 119.3824 54.4189 119.3539 54.3452 C 119.2009 54.082 119.1564 53.8398 119.2253 53.6406 C 119.2966 53.4521 119.4731 53.3198 119.757 53.2544 L 120.1393 53.1665 C 120.2972 53.1528 120.4283 53.1226 120.5132 53.0918 C 120.6333 53.064 120.7156 53.022 120.7543 52.9902 C 120.9971 52.7969 121.0483 52.521 120.908 52.1636 C 120.8038 51.9121 120.5845 51.8594 120.2417 52.0186 C 120.077 52.1025 119.951 52.1543 119.8905 52.1914 C 119.2881 52.4219 118.9193 52.5181 118.7706 52.4722 C 118.6219 52.4258 118.4043 52.1318 118.1177 51.5898 C 117.2783 50.0508 116.4203 48.6309 115.5196 47.3242 C 115.3658 47.1069 115.2381 46.9531 115.128 46.875 C 114.9617 46.7529 114.7718 46.7275 114.5643 46.7754 C 114.2416 46.8726 114.103 47.1685 114.1459 47.6519 C 114.2158 48.4502 114.1486 49.4521 113.9664 50.6528 C 113.6818 52.4048 113.5332 53.4023 113.5181 53.6353 C 113.4879 53.9521 113.424 54.1733 113.34 54.3071 C 113.225 54.5059 113.0057 54.6021 112.6906 54.583 C 112.4705 54.5762 112.3546 54.6719 112.3319 54.8721 C 112.3109 54.98 112.3311 55.0669 112.384 55.1465 C 112.426 55.229 112.5042 55.2681 112.5991 55.2808 C 113.0057 55.3477 113.2335 55.5361 113.299 55.8193 C 113.3293 55.9502 113.3049 56.2422 113.2504 56.7021 C 113.2344 56.832 113.1295 57.5215 112.938 58.7817 L 112.938 58.7817 Z" fill="#ffffff"/>			<path d="M 30.6034 91.123 C 30.7379 91.5049 30.8681 92.1172 31.0135 92.9443 C 31.2119 94.1489 31.3372 94.8887 31.4002 95.1606 C 31.4902 95.5991 31.707 95.79 32.0397 95.7363 C 32.3505 95.6875 32.553 95.4692 32.6395 95.0479 C 32.6646 94.8584 32.6041 94.5967 32.4554 94.2524 C 32.1411 93.5908 31.8369 92.5254 31.562 91.04 C 31.4326 90.3813 30.9896 88.4185 30.2272 85.1753 C 30.2197 85.1431 30.1255 84.9351 29.9424 84.5415 C 29.7802 84.1885 29.5735 84.041 29.3358 84.1074 C 29.0787 84.1895 28.9199 84.3979 28.8485 84.7358 C 28.7964 84.9082 28.8595 85.1807 28.9998 85.5386 C 29.4738 86.6909 30.0083 88.5527 30.6034 91.123 L 30.6034 91.123 Z" fill="#ffffff"/>			<path d="M 34.451 87.9658 C 34.7173 87.9731 34.9786 88.1079 35.2239 88.373 L 39.4437 93.1831 C 39.7529 93.5249 39.8966 93.6982 39.8915 93.6763 C 40.0923 93.8481 40.3041 93.8682 40.5317 93.7583 C 40.751 93.6621 40.893 93.4805 40.9686 93.2104 C 41.0038 93.0649 41.0273 92.8184 41.0366 92.4604 C 41.0332 92.3467 40.9886 92.1045 40.9247 91.7295 C 40.8281 91.2124 40.6516 90.4502 40.4087 89.4507 C 40.1716 88.4268 39.9977 87.6753 39.9061 87.1802 C 39.5631 85.4009 39.4932 83.8569 39.7023 82.5239 C 39.7325 82.3564 39.6838 82.1958 39.572 82.0605 C 39.4493 81.9282 39.293 81.8496 39.0897 81.8159 C 38.715 81.7876 38.4832 81.9785 38.3773 82.416 C 38.3362 82.5859 38.3354 82.7813 38.3749 83.0015 C 38.501 83.8442 38.6876 85.0977 38.9457 86.7588 C 39.1929 88.4229 39.3904 89.6733 39.5115 90.4946 L 39.567 90.7344 C 39.5922 90.8433 39.5989 90.9219 39.6006 90.979 C 39.5998 91.1738 39.499 91.335 39.2738 91.4556 C 37.1707 89.1294 35.5255 87.0415 34.3163 85.1978 C 34.2684 85.1401 34.192 85.0083 34.0894 84.814 C 33.9944 84.6523 33.9205 84.5317 33.8625 84.4302 C 33.7029 84.2378 33.4836 84.1851 33.1879 84.2988 C 32.9796 84.3926 32.8762 84.543 32.8804 84.7598 C 32.8821 84.9658 32.8922 85.1587 32.9376 85.3545 L 33.7269 89.8071 C 33.9842 91.5146 34.0574 93.0234 33.9685 94.3286 C 33.945 94.7241 34.1047 94.917 34.4609 94.915 C 34.6239 94.9233 34.7634 94.8799 34.8768 94.7734 C 34.9818 94.6807 35.0414 94.5405 35.0498 94.3779 C 35.0867 93.8418 35.0766 93.3511 35.0278 92.8916 C 34.9807 92.4897 34.7957 90.8462 34.451 87.9658 L 34.451 87.9658 Z" fill="#ffffff"/>			<path d="M 50.1293 80.6055 C 51.3416 80.3262 52.0078 80.1729 52.1254 80.1343 C 52.4943 80.0381 52.7379 79.9478 52.8757 79.8472 C 53.1176 79.6997 53.2033 79.4731 53.1327 79.1685 C 53.0486 78.855 52.8638 78.7026 52.5756 78.7002 C 52.4017 78.6943 52.153 78.7632 51.8296 78.9063 C 51.5364 79.0313 50.3182 79.3345 48.175 79.8164 C 47.4542 79.9824 45.4109 80.4985 42.0672 81.3599 C 41.8101 81.4424 41.6287 81.5527 41.5228 81.6919 C 41.3783 81.8628 41.3641 82.0498 41.4498 82.271 C 41.5742 82.6094 41.8934 82.6963 42.4101 82.543 C 42.5411 82.5127 43.1536 82.3262 44.2256 81.9873 C 44.9338 81.7671 45.4001 81.6938 45.627 81.7793 C 45.8538 81.8647 46.1244 82.2388 46.4337 82.8784 C 47.674 85.5527 48.4026 88.1035 48.6246 90.5532 C 48.6558 90.936 48.692 91.1914 48.7331 91.3198 C 48.8146 91.6221 49.0104 91.772 49.3154 91.748 C 49.5195 91.7354 49.6901 91.627 49.8001 91.4067 C 50.0059 91.0039 50.0151 90.4971 49.8521 89.8921 C 49.7084 89.4204 49.5352 88.772 49.3217 87.9492 L 48.8074 86.0259 C 48.3863 84.5054 47.9443 83.2422 47.4947 82.2441 C 47.1729 81.5498 47.387 81.1333 48.1154 81 L 50.1141 80.54 L 50.1293 80.6055 L 50.1293 80.6055 Z" fill="#ffffff"/>			<path d="M 64.5502 77.2051 C 64.6325 77.1636 64.8317 77.1289 65.1282 77.1182 C 65.4492 77.1133 65.6835 77.082 65.8533 77.02 C 66.0994 76.9404 66.2708 76.7861 66.3564 76.5601 C 66.4363 76.3579 66.4321 76.1411 66.3547 75.9067 C 66.2404 75.6118 65.9371 75.5439 65.439 75.7275 C 65.1323 75.8438 63.857 76.2979 61.6189 77.0654 C 60.0646 77.6069 58.8078 78.0913 57.835 78.5103 C 57.0511 78.8516 56.4227 79.019 55.9388 79.0156 C 55.3406 79.0156 54.9995 79.0825 54.902 79.2085 C 54.7962 79.3477 54.834 79.6602 55.0071 80.1592 C 55.4484 81.4688 55.7291 82.333 55.8492 82.7529 C 56.1115 83.7363 56.2283 84.6387 56.1973 85.4487 C 56.194 85.7822 56.3335 86.0371 56.6267 86.2104 C 56.8149 86.3276 56.9754 86.6235 57.1242 87.1167 C 57.1595 87.269 57.252 87.5693 57.3965 87.9946 C 57.504 88.3599 57.5965 88.6602 57.6578 88.875 C 57.8386 89.5562 58.267 89.7676 58.924 89.5244 C 59.2029 89.437 59.5289 89.3047 59.9128 89.1245 C 62.0669 88.1929 63.6514 87.6333 64.6553 87.4478 C 65.2745 87.3398 65.5257 86.9839 65.387 86.3848 C 65.3315 86.145 65.1871 86.0176 64.9753 85.9976 C 64.8585 85.9902 64.6594 86.0244 64.3805 86.1118 C 63.7815 86.3071 63.3984 86.4409 63.2337 86.5249 C 62.8439 86.729 62.2743 86.9521 61.5275 87.2046 C 60.7234 87.4585 60.1513 87.6704 59.811 87.8403 C 59.2734 88.1021 58.9105 88.1738 58.7054 88.0835 C 58.5248 87.999 58.324 87.6782 58.1139 87.1182 C 58.1088 87.0967 58.0828 87.0337 58.0416 86.9058 C 58.0214 86.8184 57.9929 86.7446 57.9559 86.6846 C 57.8113 86.4082 57.7828 86.1851 57.8567 86.0073 C 57.9222 85.8433 58.1154 85.6841 58.4388 85.541 C 60.2485 84.7114 61.6952 84.103 62.8033 83.7217 C 63.241 83.5752 63.5569 83.3989 63.7459 83.1719 C 63.9349 82.9448 63.9576 82.7446 63.8088 82.5493 C 63.6013 82.2988 63.3526 82.2188 63.0737 82.3057 C 62.9805 82.3501 62.8544 82.4023 62.7116 82.481 C 62.5302 82.5913 62.4067 82.6543 62.3436 82.6802 C 60.6088 83.4355 59.3402 83.9683 58.5404 84.29 C 57.9708 84.5127 57.5969 84.5874 57.4382 84.498 C 57.2709 84.4219 57.1138 84.0908 56.9558 83.5078 C 56.8945 83.2925 56.8087 82.9219 56.6986 82.397 C 56.5876 81.9175 56.502 81.5474 56.4305 81.2886 C 56.3229 80.9233 56.3254 80.6357 56.4598 80.4214 C 56.5724 80.2119 56.8202 80.04 57.1815 79.9111 L 60.7738 78.5337 C 62.2415 77.9663 63.4975 77.5278 64.5502 77.2051 L 64.5502 77.2051 Z" fill="#ffffff"/>			<path d="M 76.0457 82.7837 C 76.5599 82.7686 77.3303 82.7178 78.3595 82.6411 C 79.3778 82.5674 80.1373 82.5186 80.6489 82.4927 C 82.3956 82.4346 83.8936 82.5947 85.1429 82.9722 C 85.4294 83.0669 85.6353 83.1113 85.7496 83.1079 C 85.9562 83.1064 86.1243 82.9873 86.2536 82.751 C 86.2872 82.6973 86.3376 82.6172 86.4241 82.4937 C 86.5023 82.3843 86.5611 82.2905 86.5922 82.2256 C 86.7047 82.0161 86.6921 81.813 86.5787 81.6211 C 86.4039 81.3628 86.0283 81.2314 85.4545 81.2373 C 85.147 81.251 83.7851 81.2314 81.3579 81.1826 C 79.6944 81.1523 78.3367 81.2012 77.2605 81.3228 C 76.5463 81.4185 76.0616 81.312 75.7893 81.0303 C 75.7414 80.8232 75.7885 80.6289 75.9086 80.4521 C 75.9422 80.3989 76.0085 80.3374 76.0808 80.252 C 76.1833 80.1479 76.2496 80.0869 76.2664 80.0601 C 78.4582 77.5024 79.5167 76.2607 79.4553 76.3438 C 79.9652 75.6641 80.1063 75.0811 79.8811 74.605 C 79.6475 74.1426 79.1005 73.8672 78.2486 73.7651 C 76.4683 73.5781 74.2436 73.7578 71.572 74.2925 C 70.4638 74.5249 69.4506 74.9185 68.5214 75.4766 C 68.3181 75.5923 68.172 75.7061 68.1022 75.8027 C 67.9771 75.9575 67.9687 76.1201 68.0468 76.3086 C 68.2191 76.7046 68.5283 76.7485 68.9634 76.4419 C 69.4591 76.0981 70.3757 75.7837 71.6998 75.4907 C 73.6077 75.0859 74.6041 74.8677 74.7133 74.8428 C 75.8694 74.6685 76.8893 74.6514 77.7866 74.8008 C 78.242 74.8794 78.5117 75.0005 78.6008 75.1865 C 78.6898 75.3726 78.6277 75.6509 78.3875 76.0044 C 78.1245 76.4092 76.8989 77.7236 74.6995 79.9507 C 74.0341 79.0142 73.5416 77.8311 73.2087 76.3936 C 73.1331 76.0669 72.9727 75.9204 72.7382 75.9512 C 72.5366 75.9746 72.3812 76.1479 72.2779 76.4473 C 72.1746 76.7466 72.1981 77.0967 72.3427 77.522 C 72.7385 78.6353 72.9721 79.2471 73.0461 79.3677 C 73.2545 79.7212 73.3444 80.1592 73.3243 80.6685 C 73.279 81.5166 73.2606 81.9336 73.258 81.9229 C 73.2648 82.1509 73.5336 82.4673 74.0538 82.8755 C 74.552 83.2881 74.7974 83.7021 74.8008 84.1143 C 74.8025 84.3203 74.9159 84.6616 75.152 85.1348 C 75.3302 85.5068 75.5529 85.6733 75.8334 85.6431 C 76.1275 85.6216 76.3712 85.3818 76.54 84.9185 C 76.6265 84.646 76.5836 84.312 76.4113 83.9155 C 76.1811 83.418 76.0601 83.0444 76.0457 82.7837 L 76.0457 82.7837 Z" fill="#ffffff"/>			<path d="M 88.2735 75.5752 C 88.5399 75.583 88.8011 75.7178 89.0465 75.9824 L 93.2662 80.7925 C 93.5754 81.1343 93.7191 81.3076 93.7141 81.2861 C 93.9149 81.4575 94.1266 81.478 94.3542 81.3682 C 94.5735 81.2715 94.7155 81.0898 94.7911 80.8203 C 94.8264 80.6743 94.8499 80.4282 94.8591 80.0703 C 94.8557 79.9565 94.8112 79.7144 94.7473 79.3389 C 94.6506 78.8223 94.4741 78.0596 94.2312 77.0601 C 93.9942 76.0366 93.8202 75.2852 93.7286 74.79 C 93.3856 73.0107 93.3157 71.4663 93.5248 70.1338 C 93.5551 69.9658 93.5063 69.8052 93.3945 69.6704 C 93.2719 69.5381 93.1156 69.4595 92.9123 69.4258 C 92.5375 69.3975 92.3057 69.5884 92.1999 70.0259 C 92.1587 70.1958 92.1579 70.3911 92.1974 70.6113 C 92.3235 71.4541 92.5101 72.7075 92.7682 74.3687 C 93.0154 76.0322 93.213 77.2832 93.334 78.104 L 93.3895 78.3438 C 93.4147 78.4526 93.4214 78.5313 93.4231 78.5884 C 93.4223 78.7837 93.3215 78.9443 93.0963 79.0649 C 90.9932 76.7388 89.348 74.6514 88.1389 72.8076 C 88.0909 72.7495 88.0145 72.6182 87.9119 72.4238 C 87.817 72.2622 87.743 72.1416 87.6851 72.04 C 87.5254 71.8472 87.3062 71.7944 87.0104 71.9087 C 86.8021 72.0024 86.6987 72.1523 86.7029 72.3691 C 86.7047 72.5757 86.7148 72.7681 86.7601 72.9644 L 87.5495 77.417 C 87.8067 79.124 87.8799 80.6333 87.791 81.9385 C 87.7676 82.334 87.9272 82.5264 88.2834 82.5249 C 88.4464 82.5332 88.5859 82.4897 88.6993 82.3833 C 88.8043 82.29 88.864 82.1504 88.8723 81.9878 C 88.9092 81.4517 88.8991 80.9604 88.8503 80.5015 C 88.8032 80.0991 88.6183 78.4556 88.2735 75.5752 L 88.2735 75.5752 Z" fill="#ffffff"/>			<path d="M 105.0919 67.8721 C 105.1742 67.8306 105.3733 67.7959 105.6699 67.7852 C 105.9908 67.7803 106.2252 67.749 106.3949 67.687 C 106.6411 67.6074 106.8124 67.4531 106.8981 67.2271 C 106.9779 67.0249 106.9737 66.8081 106.8964 66.5737 C 106.7821 66.2788 106.4788 66.2109 105.9806 66.3945 C 105.674 66.5107 104.3986 66.9648 102.1605 67.7324 C 100.6063 68.2739 99.3495 68.7583 98.3766 69.1772 C 97.5928 69.5186 96.9644 69.686 96.4804 69.6826 C 95.8823 69.6826 95.5411 69.7495 95.4437 69.8755 C 95.3378 70.0146 95.3757 70.3271 95.5488 70.8262 C 95.99 72.1357 96.2707 73 96.3909 73.4199 C 96.6531 74.4033 96.77 75.3057 96.739 76.1157 C 96.7357 76.4492 96.8751 76.7041 97.1684 76.8774 C 97.3566 76.9946 97.5171 77.2905 97.6658 77.7837 C 97.7011 77.936 97.7936 78.2363 97.9381 78.6616 C 98.0457 79.0269 98.1381 79.3271 98.1995 79.542 C 98.3802 80.2231 98.8087 80.4346 99.4657 80.1914 C 99.7446 80.104 100.0706 79.9717 100.4545 79.7915 C 102.6086 78.8599 104.1931 78.3003 105.197 78.1147 C 105.8162 78.0068 106.0674 77.6509 105.9287 77.0518 C 105.8732 76.812 105.7287 76.6846 105.517 76.6646 C 105.4002 76.6572 105.201 76.6914 104.9222 76.7788 C 104.3231 76.9741 103.9401 77.1079 103.7754 77.1919 C 103.3856 77.396 102.816 77.6191 102.0691 77.8716 C 101.2651 78.1255 100.6929 78.3374 100.3527 78.5073 C 99.8151 78.769 99.4521 78.8408 99.2471 78.7505 C 99.0665 78.666 98.8656 78.3452 98.6555 77.7852 C 98.6505 77.7637 98.6245 77.7007 98.5833 77.5728 C 98.5631 77.4854 98.5345 77.4116 98.4976 77.3516 C 98.353 77.0752 98.3244 76.8521 98.3983 76.6743 C 98.4639 76.5103 98.657 76.3511 98.9805 76.208 C 100.7902 75.3784 102.2368 74.77 103.345 74.3887 C 103.7827 74.2422 104.0985 74.0659 104.2875 73.8389 C 104.4766 73.6118 104.4992 73.4116 104.3505 73.2163 C 104.1429 72.9658 103.8943 72.8857 103.6154 72.9727 C 103.5221 73.0171 103.3961 73.0693 103.2532 73.1479 C 103.0718 73.2583 102.9483 73.3213 102.8853 73.3472 C 101.1505 74.1025 99.8818 74.6353 99.082 74.957 C 98.5125 75.1797 98.1386 75.2544 97.9798 75.165 C 97.8126 75.0889 97.6555 74.7578 97.4974 74.1748 C 97.4361 73.9595 97.3503 73.5889 97.2402 73.064 C 97.1293 72.5845 97.0436 72.2144 96.9722 71.9556 C 96.8646 71.5903 96.8671 71.3027 97.0015 71.0884 C 97.114 70.8789 97.3619 70.707 97.7231 70.5781 L 101.3155 69.2007 C 102.7832 68.6333 104.0392 68.1948 105.0919 67.8721 L 105.0919 67.8721 Z" fill="#ffffff"/>			<path d="M 117.2327 65.1577 C 118.445 64.8784 119.1112 64.7251 119.2288 64.6865 C 119.5977 64.5903 119.8413 64.5 119.9791 64.3994 C 120.221 64.252 120.3067 64.0254 120.2361 63.7207 C 120.152 63.4072 119.9672 63.2549 119.679 63.2524 C 119.5051 63.2466 119.2564 63.3154 118.933 63.4585 C 118.6398 63.5835 117.4216 63.8867 115.2784 64.3687 C 114.5576 64.5347 112.5143 65.0508 109.1706 65.9126 C 108.9135 65.9946 108.7321 66.105 108.6262 66.2441 C 108.4818 66.415 108.4675 66.6021 108.5532 66.8232 C 108.6776 67.1616 108.9968 67.2485 109.5135 67.0952 C 109.6446 67.0649 110.257 66.8784 111.329 66.5396 C 112.0373 66.3193 112.5035 66.2466 112.7304 66.3315 C 112.9573 66.417 113.2278 66.791 113.537 67.4307 C 114.7774 70.105 115.506 72.6558 115.7281 75.1055 C 115.7592 75.4883 115.7953 75.7437 115.8365 75.8721 C 115.918 76.1743 116.1138 76.3242 116.4188 76.3003 C 116.6229 76.2876 116.7935 76.1792 116.9035 75.959 C 117.1093 75.5562 117.1185 75.0493 116.9555 74.4443 C 116.8118 73.9727 116.6386 73.3242 116.4252 72.5015 L 115.9108 70.5781 C 115.4897 69.0576 115.0477 67.7944 114.5981 66.7964 C 114.2762 66.1021 114.4905 65.6855 115.2189 65.5522 L 117.2175 65.0923 L 117.2327 65.1577 L 117.2327 65.1577 Z" fill="#ffffff"/>			<path d="M 48.411 114.0269 C 49.7267 113.896 50.4214 113.8164 50.5089 113.7964 C 50.8751 113.689 51.149 113.4312 51.3279 113.0112 C 51.5093 112.6025 51.5244 112.2202 51.3538 111.8809 C 51.0648 111.3281 50.6867 111.1855 50.2028 111.4805 C 49.3887 111.9893 48.2201 112.4072 46.6995 112.7461 C 44.8755 113.166 43.6733 113.4888 43.0953 113.7246 C 42.0048 114.1821 41.2764 113.8682 40.9268 112.7559 C 40.8957 112.6709 40.7242 112.229 40.4066 111.4531 C 37.7006 104.7344 36.2695 101.1865 36.1376 100.8154 C 35.9762 100.4165 35.8098 100.145 35.6603 99.9961 C 35.425 99.7749 35.1402 99.7373 34.8083 99.894 C 34.2682 100.1445 34.1851 100.6797 34.5565 101.4893 C 36.7741 106.3472 38.5934 110.8267 40.0011 114.9189 C 40.2751 115.7046 40.5633 116.1548 40.8926 116.2852 C 41.2061 116.3965 41.7899 116.2852 42.6284 115.9316 C 44.6254 115.1162 46.5484 114.4785 48.411 114.0269 L 48.411 114.0269 Z" fill="#ffffff"/>			<path d="M 52.396 106.5938 C 52.5842 107.1582 52.7775 108.043 52.9894 109.2563 C 53.2786 111.002 53.4711 112.082 53.5643 112.4849 C 53.6888 113.1216 53.9963 113.4063 54.4844 113.3286 C 54.9507 113.2554 55.2422 112.9243 55.3564 112.3247 C 55.4076 112.0488 55.3193 111.668 55.0891 111.1704 C 54.6362 110.2075 54.205 108.6436 53.7982 106.4888 C 53.6065 105.5122 52.9568 102.6563 51.8381 97.9238 C 51.828 97.8799 51.6894 97.5796 51.4305 97.0078 C 51.1953 96.4888 50.892 96.2715 50.545 96.3628 C 50.1703 96.4839 49.9308 96.791 49.8267 97.2856 C 49.7704 97.5396 49.8503 97.9341 50.0638 98.4585 C 50.7402 100.1382 51.5176 102.8496 52.396 106.5938 L 52.396 106.5938 Z" fill="#ffffff"/>			<path d="M 62.7502 107.7891 C 62.2469 107.8018 61.863 107.6836 61.5899 107.4482 C 61.5176 107.3848 61.337 107.1509 61.0395 106.7607 C 60.5463 106.0713 59.3598 104.4746 57.4885 101.957 C 56.9575 101.2534 56.3912 101.1431 55.7788 101.6279 C 55.4587 101.8853 55.3041 102.1616 55.3286 102.4658 C 55.3504 102.7588 55.5 103.0571 55.7966 103.3447 C 56.6301 104.1621 57.6342 105.3188 58.798 106.8179 C 60.2617 108.7178 61.2188 109.9199 61.6691 110.4238 C 61.6901 110.4653 61.7885 110.5918 61.9531 110.8062 C 62.0724 110.9736 62.1817 111.0977 62.2783 111.167 C 62.5539 111.4136 62.8715 111.4434 63.2386 111.29 C 63.7729 111.064 64.1089 110.5278 64.2551 109.668 C 64.2736 109.5493 64.2953 109.395 64.2936 109.189 C 64.3012 108.9233 64.2961 108.7524 64.3029 108.6821 C 64.7073 103.4727 65.4865 98.7393 66.6455 94.5034 C 66.7766 94.0259 66.8051 93.6523 66.7202 93.3848 C 66.6009 93.0684 66.3135 92.8706 65.8607 92.8027 C 65.0356 92.7173 64.6273 93.1899 64.6274 94.2339 C 64.5999 95.7544 64.2792 97.9961 63.6787 100.9678 C 63.0674 103.9419 62.7542 106.2168 62.7502 107.7891 L 62.7502 107.7891 Z" fill="#ffffff"/>			<path d="M 80.4468 103.2334 C 81.2029 103.2202 82.3245 103.1455 83.825 103.0181 C 85.3062 102.9063 86.4194 102.8452 87.1705 102.8101 C 89.717 102.7285 91.8989 102.96 93.7188 103.5161 C 94.143 103.6597 94.4438 103.7163 94.6017 103.7031 C 94.9117 103.7007 95.1596 103.5288 95.3369 103.2012 C 95.3763 103.123 95.4628 103 95.5804 102.8125 C 95.7031 102.6465 95.7896 102.5234 95.835 102.4214 C 95.9929 102.1094 95.9819 101.814 95.8156 101.5425 C 95.5668 101.1636 95.0157 100.9692 94.1671 100.981 C 93.721 100.9922 91.7256 100.9697 88.1894 100.9004 C 85.7866 100.8569 83.8004 100.9243 82.231 101.1021 C 81.1901 101.2271 80.4692 101.0947 80.0768 100.6919 C 80.0062 100.3867 80.0659 100.0977 80.2498 99.8491 C 80.3002 99.7686 80.3918 99.667 80.5136 99.5474 C 80.6606 99.3872 80.7413 99.2886 80.769 99.2593 C 83.9579 95.5425 85.5187 93.7378 85.4297 93.8501 C 86.1655 92.8545 86.3713 92.0044 86.0385 91.3125 C 85.6974 90.6338 84.9109 90.2183 83.6625 90.0928 C 81.0681 89.8184 77.8276 90.0825 73.936 90.8633 C 72.3095 91.1919 70.8309 91.7617 69.4783 92.5781 C 69.1759 92.7622 68.9692 92.9131 68.8634 93.0522 C 68.6853 93.2769 68.6643 93.5342 68.7845 93.8047 C 69.0408 94.3647 69.4911 94.4219 70.1246 93.978 C 70.8513 93.4893 72.1812 93.0225 74.1085 92.6021 L 78.5032 91.6592 C 80.191 91.3965 81.6815 91.3745 82.9989 91.5991 C 83.6467 91.7139 84.0457 91.8975 84.1852 92.1519 C 84.3163 92.4199 84.2139 92.8223 83.8644 93.3501 C 83.473 93.9448 81.687 95.8701 78.4905 99.1069 C 77.5175 97.7363 76.7931 95.999 76.309 93.9077 C 76.2031 93.4502 75.9678 93.229 75.6191 93.2637 C 75.3301 93.3071 75.1108 93.5527 74.9614 94 C 74.8068 94.4258 74.8354 94.9468 75.0581 95.561 C 75.6405 97.1816 75.975 98.0801 76.0859 98.2607 C 76.3867 98.7651 76.522 99.3994 76.4868 100.1416 C 76.418 101.3848 76.3879 102 76.3853 101.9888 C 76.4064 102.3281 76.7896 102.7905 77.5457 103.3735 C 78.2801 103.9619 78.6389 104.5674 78.6415 105.1748 C 78.6415 105.4731 78.8037 105.9746 79.1474 106.6641 C 79.4095 107.2002 79.7313 107.4478 80.1371 107.4116 C 80.5782 107.3789 80.9218 107.0244 81.1679 106.3481 C 81.2972 105.9629 81.23 105.4736 80.9771 104.8779 C 80.6367 104.1533 80.4644 103.6079 80.4468 103.2334 L 80.4468 103.2334 Z" fill="#ffffff"/>			<path d="M 108.917 84.6919 C 109.0489 84.6157 109.327 84.5747 109.7488 84.5576 C 110.2192 84.5527 110.5763 84.5049 110.809 84.417 C 111.1703 84.2881 111.4189 84.0698 111.55 83.7417 C 111.6667 83.4507 111.6751 83.1392 111.5507 82.8008 C 111.3793 82.3584 110.9348 82.2773 110.2123 82.5352 C 109.7687 82.7065 107.9163 83.3506 104.6356 84.4844 C 102.3807 85.2788 100.5517 85.9751 99.1294 86.5894 C 97.9919 87.0923 97.071 87.3389 96.3561 87.3311 C 95.4916 87.3237 94.9841 87.4175 94.8447 87.6104 C 94.6943 87.8057 94.7431 88.2646 95.0045 88.9961 C 95.6524 90.8999 96.0591 92.1602 96.2247 92.7759 C 96.6038 94.2144 96.7812 95.5269 96.735 96.7192 C 96.7318 97.2017 96.9318 97.5688 97.3594 97.8257 C 97.6283 97.9932 97.8677 98.4316 98.0804 99.1514 C 98.1443 99.3774 98.2779 99.8057 98.4788 100.4243 C 98.6485 100.959 98.7822 101.3872 98.8662 101.7002 C 99.1418 102.6924 99.7535 102.999 100.7222 102.6611 C 101.1162 102.5244 101.5984 102.3218 102.163 102.0771 C 105.2983 100.7129 107.6028 99.8843 109.0705 99.6152 C 109.9787 99.4634 110.3441 98.9551 110.1424 98.0835 C 110.0617 97.7349 109.8584 97.5522 109.5408 97.5225 C 109.3535 97.5083 109.067 97.5625 108.6679 97.6772 C 107.8009 97.9575 107.2372 98.1558 106.9902 98.2817 C 106.4247 98.5723 105.5922 98.9019 104.5034 99.2671 C 103.3381 99.6499 102.5005 99.9575 102.004 100.1982 C 101.2277 100.5718 100.6901 100.6841 100.3935 100.5459 C 100.1238 100.4243 99.833 99.9639 99.5272 99.1392 C 99.5221 99.1177 99.486 99.0112 99.4322 98.8286 C 99.391 98.7002 99.3439 98.5962 99.3019 98.5142 C 99.0919 98.104 99.0406 97.7832 99.1539 97.5273 C 99.259 97.2852 99.5404 97.0601 99.9982 96.8511 C 102.6362 95.6245 104.7567 94.7466 106.3765 94.1899 C 107.0082 93.9873 107.4644 93.7217 107.745 93.3931 C 108.0146 93.0674 108.0474 92.7612 107.8348 92.4893 C 107.5315 92.123 107.1694 92 106.7644 92.1392 C 106.6274 92.1934 106.4493 92.269 106.2326 92.376 C 105.9604 92.542 105.7764 92.6416 105.6916 92.6729 C 103.1754 93.7798 101.3314 94.5601 100.1619 95.0239 C 99.3293 95.3535 98.7891 95.4546 98.5413 95.3281 C 98.3069 95.2104 98.0682 94.7261 97.8497 93.8813 C 97.7522 93.5601 97.6287 93.0264 97.4765 92.2695 C 97.3151 91.5728 97.1781 91.0308 97.0681 90.6543 C 96.9092 90.1177 96.9251 89.6895 97.1158 89.3701 C 97.2872 89.0669 97.6341 88.8267 98.1651 88.6353 L 103.4167 86.6235 C 105.5523 85.8105 107.3914 85.1577 108.917 84.6919 L 108.917 84.6919 Z" fill="#ffffff"/>			<path d="M 117.0871 89.0742 C 116.9686 88.7114 116.556 87.4761 115.8333 85.3481 C 115.3223 83.8369 114.8937 82.582 114.5718 81.5894 C 114.4919 81.3438 114.3945 81.1709 114.2794 81.0713 C 114.1374 80.9551 113.9366 80.9326 113.6854 80.9902 C 113.188 81.1274 113.0192 81.4419 113.157 81.938 C 113.1973 82.1118 113.2898 82.4121 113.4537 82.8218 C 113.5772 83.2061 113.6697 83.5059 113.7176 83.7129 C 113.7831 83.9961 114.1747 85.1909 114.89 87.2861 C 115.3614 88.7261 115.6001 89.9561 115.5952 90.978 C 115.5859 91.1865 115.6532 91.3774 115.8052 91.5376 C 115.9598 91.7085 116.1456 91.8149 116.3791 91.8301 C 116.6396 91.8618 116.8614 91.7764 117.0361 91.5869 C 117.1445 91.4585 117.2654 91.2358 117.3906 90.9316 C 117.4955 90.6895 117.4821 90.3828 117.372 90.0068 C 117.1964 89.4966 117.1014 89.186 117.0871 89.0742 L 117.0871 89.0742 ZM 117.5952 95.8403 C 116.9206 96.1563 116.6669 96.6504 116.8182 97.3037 C 116.8838 97.5869 117.0106 97.7871 117.1989 97.9043 C 117.3921 98.0435 117.6391 98.0669 117.9205 97.9907 C 118.6666 97.7847 118.9606 97.3154 118.811 96.5698 C 118.7101 96.1343 118.3093 95.8936 117.5952 95.8403 L 117.5952 95.8403 Z" fill="#ffffff"/>			<path d="M 117.888 82.9937 C 118.0107 83.126 118.1099 83.3555 118.1721 83.6738 C 118.2435 84.082 118.3149 84.3408 118.3755 84.4531 C 118.4847 84.7261 118.5956 84.9072 118.7133 85.0176 C 118.8737 85.1646 119.0796 85.209 119.3257 85.1289 C 119.6072 85.0527 119.7895 84.896 119.8945 84.6543 C 119.9802 84.4277 119.9734 84.2002 119.8583 83.9512 C 119.7423 83.7485 119.3768 82.7656 118.7422 81.019 C 118.675 80.8281 118.5439 80.709 118.3683 80.6465 C 118.1953 80.5942 118.0046 80.6152 117.8156 80.6934 C 117.6568 80.7529 117.5433 80.8594 117.4837 80.999 C 117.4241 81.1392 117.4131 81.2905 117.451 81.4541 C 117.4686 81.5303 117.6115 82.0479 117.888 82.9937 L 117.888 82.9937 ZM 122.6971 82.7471 C 122.4071 81.793 122.2533 81.2778 122.2332 81.1904 C 122.1466 81.0156 122.0155 80.8965 121.829 80.8359 C 121.6609 80.8062 121.4786 80.8135 121.282 80.8589 C 121.1233 80.9185 121.0073 81.0137 120.9477 81.1538 C 120.8637 81.2876 120.8528 81.4395 120.8906 81.603 C 120.9637 81.9185 121.1201 82.4448 121.3596 83.1812 C 121.3848 83.29 121.4251 83.4644 121.4722 83.7173 C 121.5084 83.9727 121.5403 84.1606 121.5873 84.2642 C 121.652 84.4443 121.7394 84.5737 121.8604 84.6489 C 122.0058 84.73 122.2015 84.731 122.4612 84.6597 C 122.7014 84.6045 122.8585 84.4878 122.9375 84.332 C 123.0022 84.2139 123.0131 84.0625 122.9896 83.8613 C 122.9643 83.7524 122.9189 83.5562 122.834 83.2891 C 122.7567 83.0547 122.7029 82.8721 122.6971 82.7471 L 122.6971 82.7471 Z" fill="#ffffff"/>		</g>		<path d="M 74.2766 134.3765 L 94.8831 147 L 92.7659 121.7524 L 74.2766 134.3765 Z" fill="#000000"/>		<g>			<path d="M 43 163.3638 C 43 156.4702 44.4695 155 51.3594 155 L 248.6406 155 C 255.5305 155 257 156.4702 257 163.3638 L 257 309 L 43 309 L 43 163.3638 Z" fill="#1c1c1c"/>			<path d="M 51.5 165 L 248.5 165 L 248.5 299 L 51.5 299 L 51.5 165 Z" fill="#ffffff"/>			<path d="M 43 308 L 3 322 L 299 322 L 258 309 L 43 308 Z" fill="#9f9f9f"/>			<path d="M 62 310 L 52 315 L 247 315 L 237 310 L 62 310 Z" fill="#1c1c1c"/>			<path d="M 2 322 L 298 322 L 298 331 C 298 331 300.3334 336 285 336 C 269.6666 336 16 336 16 336 C 16 336 3.241 338.9282 2 329 C 1.6667 326.3335 2 322 2 322 Z" fill="#c9c9c9"/>			<path d="M 120 316 L 113 320 L 186 320 L 180 316 L 120 316 Z" fill="#c7c7c7"/>			<path d="M 171 324.5 C 171 325.8809 169.8807 327 168.5 327 L 131.5 327 C 130.1193 327 129 325.8809 129 324.5 L 171 324.5 Z" fill="#858585"/>			<rect x="266" y="330.5" width="11" height="1" fill="#737373"/>		</g>		<path opacity="0.502" d="M 150.9688 165.0156 L 248.9688 165.0156 L 248.8855 299.1147 L 150.8855 299.1147 L 150.9688 165.0156 Z" fill="#ffffff"/>		<g>			<path d="M 113 167 L 94 192 C 94 192 95.75 227.5 96 228 C 96.25 228.5 125.6902 272.3052 152.425 271.3604 C 181.717 270.3252 201.5 248.25 206 220 C 210.5 191.75 206.25 171.75 206 171 C 205.75 170.25 113 167 113 167 Z" fill="#e9b989"/>			<path d="M 111 202 C 110.9463 201.9644 111.085 201.813 111.3748 201.5806 C 113.1082 200.1904 121.0016 196.1431 124.75 196.25 C 129.125 196.375 134.75 200 137 198 C 139.25 196 134.2533 193.1987 131 193 C 114.625 192 111.375 202.25 111 202 Z" stroke="#ffffff00" stroke-width="1" fill="#402000"/>			<path d="M 195.5522 202 C 195.606 201.9644 195.4673 201.813 195.1775 201.5806 C 193.4441 200.1904 185.5507 196.1431 181.8022 196.25 C 177.4272 196.375 171.8022 200 169.5522 198 C 167.3022 196 172.299 193.1987 175.5522 193 C 191.9272 192 195.1772 202.25 195.5522 202 Z" stroke="#ffffff00" stroke-width="1" fill="#402000"/>			<path d="M 108 178 C 108.8751 177.9102 144.8667 192.1431 165 190 C 185.1333 187.8569 201 184 201 184 C 201 184 201.1178 199 201 206 C 200.8822 213 201 213 201 213 L 202 223 L 208 219 C 208 219 215.0925 192.5107 216 183 C 216.9075 173.4893 211.7236 164.1807 211 164 C 210.2764 163.8193 216 166 216 166 C 216 166 209.9768 154.3374 206 151 C 202.0232 147.6626 202 146 202 146 C 202 146 204.5098 145.8765 207 148 C 209.4902 150.1235 210 151 210 151 C 210 151 207.5652 142.9321 200 138 C 192.4348 133.0679 185.1172 131.2231 185 131 C 184.8828 130.7769 186.4622 128.7988 190 130 C 193.5378 131.2012 193 131 193 131 C 193 131 188.573 124.6416 174 123 C 159.427 121.3584 151.5189 122.8599 150 123 C 148.4811 123.1401 147.9431 121.8779 148 122 C 148.0569 122.1221 148.3311 119.1025 149 119 C 149.6689 118.8975 134.2356 121.0654 126 128 C 117.7644 134.9346 111.9208 138.0952 112 138 C 112.072 137.9136 99.8612 148.8003 96.3818 157.5229 C 92.9026 166.2456 96 158 96 158 C 96 158 89.8702 168.2476 89.5 176.5 C 89.1298 184.7524 89.3185 199.4365 89.75 202.25 C 91.3125 212.4375 93.8353 218.0933 94.4713 220.3589 C 95.1073 222.625 96.6221 206.9741 97.5007 206.5244 C 98.3794 206.0752 104.9635 201.2197 105 201 C 105.0365 200.7803 106.2847 192.4082 106 189 C 105.7153 185.5918 107.1249 178.0898 108 178 Z" stroke="#ffffff00" stroke-width="1" fill="#402000"/>			<rect x="146" y="268.5" width="14" height="8" stroke="#ffffff00" stroke-width="1" fill="#e9b989"/>			<path d="M 97.8448 228 C 97.5011 227.8438 96.8448 222 96.8448 222 C 96.8448 222 98.0323 223.3125 96.8448 222 C 95.6573 220.6875 94.3448 218.8125 91.8448 220 C 89.3448 221.1875 88.3448 224.4375 89.8448 227 C 91.3448 229.5625 96.0948 232.1563 97.8448 232 C 99.5948 231.8438 98.1886 228.1563 97.8448 228 Z" stroke="#ffffff00" stroke-width="1" fill="#f8c19a"/>			<path d="M 129 241 C 129 241 141.8982 243.8667 152 244 C 162.1018 244.1333 178 242 178 242 C 178 242 170.2917 252.6943 167 255 C 163.7083 257.3057 155 259 155 259 L 142 258 C 142 258 135.7036 253.939 133 250 C 130.2964 246.061 129 241 129 241 Z" stroke="#ffffff00" stroke-width="1" fill="#370201"/>			<path d="M 137 270 C 136.9181 270.4961 106.8086 272.3159 103 272 C 99.1914 271.6841 92.3351 266.7725 92 267 C 91.6649 267.2275 90 266 90 266 L 87 274 C 87 274 90.8496 275.6611 92 276 C 93.1504 276.3389 98.939 278.2285 98.939 278.2285 C 105.9642 280.4751 117.618 278.4536 124 278 C 130.382 277.5464 132.35 275.7603 133 276 C 133.65 276.2397 131 296 131 296 L 130 299 L 172 299 L 169.8756 275.5474 L 195 271 C 204.0295 269.4995 223 264 223 264 L 215 253 C 215 253 205.2524 258.6494 193 263 C 184.4392 266.04 169.4072 269.5264 169.4072 269.5264 C 169.4072 269.5264 166.8752 269.9722 165 269 C 162.782 267.8506 154.8545 272.2114 151.995 273.1948 L 137 270 Z" stroke="#ffffff00" stroke-width="1" fill="#c6c6c6"/>			<path id="Ellipse2" d="M 128.858 219.3804 C 128.858 215.043 130.6193 211.5273 132.792 211.5273 C 134.9647 211.5273 136.7258 215.043 136.7258 219.3804 C 136.7258 223.7173 134.9647 227.2334 132.792 227.2334 C 130.6193 227.2334 128.858 223.7173 128.858 219.3804 Z" fill="#000000"/>			<path id="Ellipse3" d="M 167.2137 219.3804 C 167.2137 215.043 168.975 211.5273 171.1477 211.5273 C 173.3204 211.5273 175.0815 215.043 175.0815 219.3804 C 175.0815 223.7173 173.3204 227.2334 171.1477 227.2334 C 168.975 227.2334 167.2137 223.7173 167.2137 219.3804 Z" fill="#000000"/>			<g>				<g opacity="0.6">					<path d="M 191.8174 204.7373 C 191.8174 204.7373 199.7896 206.1367 199.8892 212.3354 C 199.9889 218.5327 197.7964 227.73 197.7964 227.73 C 197.7964 227.73 198.2948 226.7305 197.7964 228.0298 C 197.298 229.3296 195.5045 233.0283 190.7209 233.7285 C 185.9373 234.4277 174.9755 235.2275 170.6904 233.0283 C 166.405 230.8291 161.8209 222.8315 161.7216 214.9341 C 161.6216 207.0371 165.7075 205.5371 174.5768 204.3374 C 183.446 203.1377 188.8275 204.3374 191.8174 204.7373 Z" fill="#e0f3f7"/>					<path d="M 186.5211 205.0122 C 184.405 204.8135 181.8191 204.7129 178.7028 204.9102 L 168.0354 231.9497 C 168.905 232.8481 169.804 233.5547 170.6904 234.0103 C 170.9602 234.1489 171.2568 234.2754 171.5767 234.3906 L 186.5211 205.0122 Z" fill="#f1fbfc"/>				</g>				<path d="M 208.89 202.1523 C 205.2705 201.0205 175.406 199.8892 167.5688 201.6201 C 159.7283 203.3521 156.5834 206.019 152.4656 206.019 C 148.3439 206.019 143.8717 202.0205 135.3691 201.4883 C 126.8627 200.9526 109.3909 200.0889 96.2368 201.8203 C 96.2368 201.8203 94.3113 202.0205 94.4427 204.4194 C 94.5745 206.8188 95.24 210.2852 95.24 210.2852 C 95.24 210.2852 95.24 211.4849 96.5674 211.6172 C 97.8989 211.749 98.429 212.0171 99.2263 213.2168 C 100.0236 214.4165 100.3142 235.3813 109.6901 237.4092 C 116.933 238.9761 135.7678 240.1401 140.6827 234.6777 C 145.5977 229.2119 147.4592 222.2817 148.3882 219.7461 C 149.3208 217.2153 147.9453 213.6162 152.4656 214.0166 C 156.9821 214.4165 155.7422 217.2153 156.4076 219.7461 C 157.0695 222.2817 160.657 231.8789 164.2446 234.4097 C 167.8323 236.9409 171.9537 239.4761 182.8481 238.9404 C 193.7427 238.4082 199.1917 237.0767 201.1848 231.0786 C 203.1777 225.0806 205.1709 214.8159 205.1709 214.8159 C 205.1709 214.8159 205.4379 211.8853 206.897 211.749 C 208.3599 211.6172 208.627 211.8853 209.1572 210.8179 L 209.6873 209.75 L 210.4846 204.2876 C 210.4846 204.2876 210.6162 202.6919 208.89 202.1523 ZM 134.1056 234.0103 C 129.8203 236.2095 118.8584 235.4092 114.075 234.71 C 109.2915 234.0103 107.4976 230.3115 106.9991 229.0112 C 106.5012 227.7119 106.9991 228.7114 106.9991 228.7114 C 106.9991 228.7114 104.8069 219.5142 104.9065 213.3169 C 105.0061 207.1182 112.9788 205.7188 112.9788 205.7188 C 115.9683 205.3188 121.3496 204.1191 130.2188 205.3188 C 139.0881 206.5186 143.174 208.0186 143.0745 215.9155 C 142.9749 223.8135 138.3906 231.8105 134.1056 234.0103 ZM 197.7964 228.7114 C 197.7964 228.7114 198.2948 227.7119 197.7964 229.0112 C 197.298 230.3115 195.5045 234.0103 190.7209 234.71 C 185.9373 235.4092 174.9755 236.2095 170.6904 234.0103 C 166.405 231.8105 161.8209 223.8135 161.7216 215.9155 C 161.6216 208.0186 165.7075 206.5186 174.5768 205.3188 C 183.446 204.1191 188.8275 205.3188 191.8174 205.7188 C 191.8174 205.7188 199.7896 207.1182 199.8892 213.3169 C 199.9889 219.5142 197.7964 228.7114 197.7964 228.7114 Z" fill="#171518"/>				<g opacity="0.6">					<path d="M 112.9788 204.7373 C 112.9788 204.7373 105.0061 206.1367 104.9065 212.3354 C 104.8069 218.5327 106.9991 227.73 106.9991 227.73 C 106.9991 227.73 106.5012 226.7305 106.9991 228.0298 C 107.4976 229.3296 109.2915 233.0283 114.075 233.7285 C 118.8584 234.4277 129.8203 235.2275 134.1056 233.0283 C 138.3906 230.8291 142.9749 222.8315 143.0745 214.9341 C 143.174 207.0371 139.0881 205.5371 130.2188 204.3374 C 121.3496 203.1377 115.9683 204.3374 112.9788 204.7373 Z" fill="#e0f3f7"/>					<path d="M 130.2188 204.3374 C 126.6099 203.8496 123.5876 203.7612 121.0596 203.8525 L 113.1714 233.5513 C 113.4604 233.6221 113.7604 233.6816 114.075 233.7285 C 116.5391 234.0889 120.6428 234.4746 124.6287 234.4644 L 136.7958 205.624 C 135.0032 205.0679 132.8181 204.6895 130.2188 204.3374 Z" fill="#f1fbfc"/>					<path d="M 140.0928 208.1689 L 129.9531 235.1294 C 131.6106 234.9053 133.0579 234.5474 134.1056 234.0103 C 138.3906 231.8105 142.9749 223.8135 143.0745 215.9155 C 143.1233 212.0205 142.1522 209.6826 140.0928 208.1689 Z" fill="#f1fbfc"/>				</g>			</g>			<path d="M 151.478 274.3882 L 150.4946 275.3696 L 152.4615 278.3145 L 154.4285 276.3516 L 153.4451 274.3882 L 151.478 274.3882 Z" fill="#13848a"/>			<path d="M 153.3191 276.4849 L 151.478 276.3516 L 150.4946 285.186 L 149.525 299 L 155.4 299 L 154.4285 285.186 L 153.3191 276.4849 Z" fill="#13848a"/>			<path opacity="0.4" d="M 186.2684 104.728 L 190.4556 104.7578 L 188.7126 119.8511 L 186.2684 104.728 Z" fill="#000000"/>			<path opacity="0.4" d="M 201.9221 105.3203 L 205.3579 107.4136 L 196.9912 121.5981 L 201.9221 105.3203 Z" fill="#000000"/>			<path opacity="0.4" d="M 216.2871 115.0405 L 217.3392 118.9604 L 202.1282 126.1152 L 216.2871 115.0405 Z" fill="#000000"/>			<path d="M 76.7804 242.8184 C 76.5024 242.6597 74.0806 241.626 71.0632 242.1826 C 68.0458 242.7388 62.2095 246.9912 60.8994 249.1768 C 59.5891 251.3628 58.4377 255.8535 58.9937 258.0791 C 59.5496 260.3047 61.0581 264.4775 60.8994 264.4375 C 60.7405 264.3979 71.6985 264.4375 71.6985 264.4375 L 72.3337 256.1714 L 73.3782 257.7397 L 73.6041 258.0791 C 73.6041 258.0791 75.6687 258.3174 75.5099 258.0791 C 75.3511 257.8408 76.5024 258.1587 76.7804 255.5356 C 77.0583 252.9126 77.4156 251.0845 77.4156 251.0845 L 79.3213 245.3618 C 79.3213 245.3618 77.0583 242.9775 76.7804 242.8184 Z" stroke="#ffffff00" stroke-width="1" fill="#f4caa4"/>			<g>				<path d="M 74.1304 193.3574 L 88.8933 219.5767 L 102.2502 225.2456 L 108.5774 228.0801 C 108.5774 228.0801 113.7327 231.1504 111.3893 238.7095 C 109.046 246.2681 104.4766 249.2207 102.2502 248.6299 C 100.0242 248.0396 93.1113 246.0317 93.1113 245.7954 C 93.1113 245.5596 81.0431 242.0161 80.4573 242.2524 C 79.8715 242.4888 55.8523 251.4644 55.8523 251.4644 L 74.1304 193.3574 Z" stroke="#ffffff00" stroke-width="1" fill="#e0dbd7"/>				<path d="M 101.5474 225.9541 C 101.4594 227.3711 101.3716 236.3179 98.0322 240.835 C 94.6931 245.3525 94.6931 246.1499 93.8142 246.5039 C 92.9355 246.8584 91.0023 247.2129 91.0023 247.2129 L 86.7843 255.0073 C 86.7843 255.0073 81.0789 267.2632 80.991 266.9976 C 80.9031 266.7319 76.2742 266.7231 76.2742 266.7231 L 72.0212 273.4316 L 82.5663 245.7954 L 82.5663 243.6694 L 84.6753 240.835 L 88.1903 236.5835 C 88.1903 236.5835 90.4751 232.8633 90.2993 233.0405 C 90.1235 233.2173 91.0023 228.0801 91.0023 228.0801 L 91.0023 221.7021 L 90.2993 219.5767 C 90.2993 219.5767 101.6353 224.5371 101.5474 225.9541 Z" stroke="#ffffff00" stroke-width="1" fill="#e65051"/>				<path d="M 100.3756 239.7725 L 108.5774 240.835 C 108.5774 240.835 108.343 245.5596 104.3594 245.7954 C 100.3756 246.0317 95.9233 245.7954 95.9233 245.7954 L 100.3756 239.7725 Z" stroke="#ffffff00" stroke-width="1" fill="#c9c7c8"/>				<path d="M 55.8523 185.563 " stroke="#ffffff00" stroke-width="1" fill="none"/>				<path d="M 71.3182 233.0405 L 86.0813 236.5835 L 83.2693 240.1265 C 83.2693 240.1265 79.52 241.0713 79.7543 240.835 C 79.9885 240.5991 62.8823 247.2129 62.8823 247.2129 L 71.3182 233.0405 Z" stroke="#ffffff00" stroke-width="1" fill="#c9c7c8"/>				<path d="M 93.6484 235.6221 C 93.1013 236.0781 92.376 236.8643 92.9128 237.5059 C 93.3361 238.0117 94.2847 237.7261 95.0404 237.0449 C 95.7751 236.3823 95.5583 235.5469 95.2192 235.3013 C 94.8804 235.0552 94.2251 235.1406 93.6484 235.6221 Z" stroke="#ffffff00" stroke-width="1" fill="#e72c2c"/>				<path d="M 91.5396 240.582 C 90.9924 241.0386 90.267 241.8247 90.8037 242.4663 C 91.2272 242.9717 92.1758 242.6865 92.9314 242.0054 C 93.666 241.3428 93.4493 240.5073 93.1104 240.2612 C 92.7715 240.0156 92.1162 240.1011 91.5396 240.582 Z" stroke="#ffffff00" stroke-width="1" fill="#e72c2c"/>				<path d="M 89.5962 219.5767 " stroke="#ffffff00" stroke-width="1" fill="none"/>				<path d="M 83.2693 242.9609 C 83.1814 243.2266 85.0267 244.2012 85.3782 244.3784 C 85.7297 244.5552 80.4573 252.8818 80.4573 252.8818 L 77.1304 265.5576 C 77.1304 265.5576 72.6487 263.0771 72.9124 262.7231 C 73.1759 262.3687 76.9424 252.8818 76.9424 252.8818 L 79.7543 246.5039 C 79.7543 246.5039 80.7209 242.0752 80.4573 242.2524 C 80.1936 242.4297 82.4785 241.2783 82.5663 241.5439 C 82.6542 241.8096 87.9706 237.4692 88.8933 235.166 C 89.8159 232.8633 91.4417 225.3784 91.0023 223.1196 C 90.563 220.8608 88.8933 219.5767 88.8933 219.5767 L 89.5962 219.5767 C 89.5962 219.5767 92.1007 221.481 91.7053 225.9541 C 91.3098 230.4272 90.6454 233.2344 89.3767 235.875 C 88.0146 238.7095 83.3572 242.6953 83.2693 242.9609 Z" stroke="#ffffff00" stroke-width="1" fill="#e72c2c"/>				<path d="M 56.5553 177.7681 C 80.7489 183.1528 78.6135 208.5508 76.8241 217.4097 C 74.5013 228.9082 70.8087 236.5674 66.3972 242.5439 C 59.9048 251.3389 55.0667 254.5908 48.1193 253.5903 C 41.172 252.5898 28.9729 245.0869 30.5442 217.4507 C 32.1157 189.8145 50.2502 176.709 56.5553 177.7681 Z" stroke="#ffffff00" stroke-width="1" fill="#e72727"/>				<path d="M 55.1492 177.0596 C 80.7489 188.0898 75.1249 210.9307 74.4036 216.9409 C 73.1794 227.1421 69.0765 235.3008 64.9913 240.835 C 58.4988 249.6304 53.6605 253.8818 46.7133 252.8818 C 39.766 251.8813 27.5669 244.3784 29.1382 216.7422 C 30.7097 189.106 48.8442 176 55.1492 177.0596 Z" stroke="#ffffff00" stroke-width="1" fill="#e65051"/>				<path d="M 54.4463 184.854 C 54.4463 184.854 46.0103 183.7705 41.0892 191.9404 C 36.1682 200.1104 32.6118 209.1558 32.6533 219.5767 C 32.6947 229.9976 34.969 240.4185 38.9802 242.9609 C 42.9915 245.5039 43.6531 245.6704 47.4163 245.0869 C 51.1794 244.5034 53.7336 243.0313 57.042 240.2383 C 60.3503 237.4458 54.4463 184.854 54.4463 184.854 Z" stroke="#ffffff00" stroke-width="1" fill="#c8c8c8"/>				<path d="M 55.5215 184.854 C 53.0403 185.6045 47.2509 193.1494 45.3073 200.4438 C 43.3636 207.7383 41.0892 215.9082 41.7922 221.7021 C 42.4952 227.4966 44.3562 236.75 46.7133 240.1265 C 49.0703 243.5029 50.2283 244.3784 50.2283 244.3784 C 50.2283 244.3784 62.0552 238.751 64.9913 227.3711 C 67.9274 215.9917 68.8259 204.9487 66.8108 197.9844 C 64.2056 188.981 57.5065 185.4795 55.5215 184.854 Z" fill="#9d9d9d"/>				<path d="M 67.8032 211.7817 L 54.4463 207.5303 C 54.4463 207.5303 51.4585 206.8213 48.8223 207.5303 C 46.186 208.2388 45.1316 212.3135 44.6042 214.6162 C 44.077 216.9194 44.4285 221.8794 47.4163 223.8281 C 50.4041 225.7769 61.4763 232.3315 61.4763 232.3315 C 61.4763 232.3315 64.6399 227.0171 65.6943 223.1196 C 66.7488 219.2222 67.8032 211.7817 67.8032 211.7817 Z" fill="#e0dbd7"/>				<path d="M 58.6643 208.9473 C 58.6643 208.9473 62.3054 213.0586 62.8823 216.0332 C 63.459 219.0083 63.7471 224.7822 62.1792 227.3711 C 60.6116 229.9604 60.4282 231.9263 60.0703 231.623 C 59.7124 231.3198 61.4763 232.3315 61.4763 232.3315 C 61.4763 232.3315 65.2891 226.3428 66.3972 222.4111 C 67.5055 218.4795 67.8762 211.4287 67.8032 211.7817 C 67.7302 212.1348 58.6643 208.9473 58.6643 208.9473 Z" fill="#c8c8c8"/>				<path d="M 50.2705 208.207 C 48.4722 208.0557 46.3208 211.1309 46.0103 214.6162 C 45.6997 218.1016 45.7745 221.7271 47.573 222.105 C 49.7318 222.5581 52.0809 219.3638 52.3373 214.6162 C 52.5936 209.8687 51.7555 208.6919 50.2705 208.207 Z" stroke="#ffffff00" stroke-width="1" fill="#c8c8c8"/>			</g>			<path d="M 74.2394 263.8018 " stroke="#ffffff00" stroke-width="1" fill="none"/>			<path d="M 88.2147 251.0845 C 88.2147 251.0845 88.7998 256.4688 88.2147 258.0791 C 87.6296 259.6895 85.2996 266.1519 85.0386 266.981 C 84.7773 267.8101 83.3206 271.5039 81.8623 272.0679 C 80.4041 272.6318 80.5918 272.7036 80.5918 272.7036 L 85.6738 272.7036 C 85.6738 272.7036 87.2181 270.6563 88.85 266.981 C 90.4818 263.3057 91.3494 256.1401 91.3909 255.5356 C 91.4325 254.9312 88.2147 250.4487 88.2147 250.4487 L 88.2147 251.0845 Z" stroke="#ffffff00" stroke-width="1" fill="#e9b989"/>			<path d="M 71.0632 251.0845 L 73.6041 250.4487 C 73.6041 250.4487 75.8672 252.1973 76.1451 252.3564 C 76.4231 252.5151 78.1304 255.8535 76.7804 257.4434 C 75.8149 258.5801 74.9307 259.0664 74.5054 259.2515 C 74.3359 259.3252 74.2394 259.3506 74.2394 259.3506 C 74.2394 259.3506 68.8795 257.7212 68.5222 257.4434 C 68.1649 257.165 71.0632 251.0845 71.0632 251.0845 Z" stroke="#ffffff00" stroke-width="1" fill="#fad3b2"/>			<path d="M 73.0632 243.0845 L 75.6041 242.4487 C 75.6041 242.4487 77.8672 244.1973 78.1451 244.3564 C 78.4231 244.5151 80.1304 247.8535 78.7804 249.4434 C 77.8149 250.5801 76.9307 251.0664 76.5054 251.2515 C 76.3359 251.3252 76.2394 251.3506 76.2394 251.3506 C 76.2394 251.3506 70.8795 249.7212 70.5222 249.4434 C 70.1649 249.165 73.0632 243.0845 73.0632 243.0845 Z" stroke="#ffffff00" stroke-width="1" fill="#f4caa4"/>			<path d="M 66.6165 264.4375 C 66.6165 264.4375 68.755 265.5088 70.428 265.0732 C 71.7039 264.7412 71.7983 267.8237 72.7448 266.917 C 73.0393 266.6348 74.7206 262.9634 74.8746 262.5303 C 75.5236 260.7041 76.9454 259.1938 73.6041 257.4434 C 70.2629 255.6924 66.7012 255.6382 64.7108 256.8076 C 62.7205 257.9766 60.0261 258.8994 60.2642 262.5303 C 60.502 266.1606 63.2151 269.0845 64.7108 270.1602 C 66.2063 271.2363 71.7566 274.3042 75.5099 273.9756 C 79.2632 273.647 80.9812 273.5283 83.1328 270.7964 C 85.2844 268.064 87.9758 261.0366 88.2147 258.0791 C 88.4536 255.1211 88.7365 251.6792 88.2147 251.0845 C 87.693 250.4897 86.9442 249.813 86.9442 249.813 C 86.9442 249.813 87.2703 253.2163 86.309 254.2637 C 85.3479 255.3115 84.0994 258.1001 82.8945 257.6816 C 81.6898 257.2632 83.0114 258.2422 83.0137 258.0791 C 83.016 257.9155 82.5769 262.5303 82.5769 262.5303 C 82.5769 262.5303 82.2468 267.8374 82.0015 268.0391 C 82.0015 268.0391 74.031 266.8423 74.4277 266.917 C 74.8246 266.9922 68.7465 265.7656 68.5222 265.7095 C 68.2981 265.6528 66.6165 264.4375 66.6165 264.4375 Z" stroke="#ffffff00" stroke-width="1" fill="#f7d3b2"/>			<path d="M 66.6165 265.0732 C 66.6165 265.0732 69.2649 265.5088 71.0632 265.0732 C 72.8616 264.6377 74.2394 263.8018 74.2394 263.8018 L 76.1451 263.8018 C 76.1451 263.8018 75.8103 264.4941 74.8746 265.0732 C 73.939 265.6528 71.7944 266.5933 69.7927 266.3452 C 67.791 266.0972 66.6165 265.7095 66.6165 265.7095 L 66.6165 265.0732 Z" stroke="#ffffff00" stroke-width="1" fill="#fbcaa9"/>			<path d="M 88.2147 257.4434 C 86.7522 258.8081 85.7277 259.7637 83.7681 258.7148 C 81.8083 257.666 80.96 256.5742 80.5918 254.8999 C 80.2239 253.2251 80.3894 250.585 80.5918 249.1768 C 80.7942 247.769 82.3108 244.6016 85.0386 244.7261 C 87.7664 244.8506 89.2393 247.9839 89.4852 249.1768 C 89.7312 250.3701 89.6772 256.0781 88.2147 257.4434 Z" stroke="#ffffff00" stroke-width="1" fill="#e9b989"/>			<path d="M 86.309 255.5356 C 84.8464 256.9004 83.822 257.856 81.8623 256.8076 C 79.9026 255.7588 79.0542 254.667 78.686 252.9922 C 78.3181 251.3174 78.4836 248.6777 78.686 247.2695 C 78.8884 245.8613 80.405 242.6938 83.1328 242.8184 C 85.8606 242.9429 87.3335 246.0762 87.5795 247.2695 C 87.8254 248.4624 87.7715 254.1709 86.309 255.5356 Z" stroke="#ffffff00" stroke-width="1" fill="#f7d3b2"/>			<path d="M 89 265 L 92 268 C 92 268 90.079 274.9487 88 275 C 85.921 275.0513 83 273 83 273 C 83 273 86.0984 272.6924 87 271 C 87.9016 269.3076 88 269 88 269 L 89 265 Z" stroke="#ffffff00" stroke-width="1" fill="#ffffff"/>			<path d="M 146 270 L 152 273 L 147 276 L 139 270 L 146 270 Z" fill="#d6dfe0"/>			<path d="M 67.887 245.3618 C 67.887 245.3618 70.15 244.0503 72.3337 244.0903 C 74.5173 244.1299 77.9565 245.4678 77.9565 245.4678 C 77.9565 245.4678 77.7976 244.0771 77.9565 244.1963 C 78.1152 244.3154 74.4775 243.5337 72.3337 243.4541 C 70.1897 243.375 67.887 245.3618 67.887 245.3618 Z" stroke="#ffffff00" stroke-width="1" fill="#e9b989"/>			<path d="M 65.3459 250.4487 C 65.1475 250.4487 68.1252 248.8989 69.7927 249.1768 C 71.4602 249.4551 74.835 251.3232 75.5099 252.3564 C 76.1848 253.3896 76.8599 253.8662 76.7804 253.6279 C 76.7009 253.3896 75.2717 250.3296 72.969 249.1768 C 70.6663 248.0244 69.1178 248.2627 67.887 248.541 C 66.6563 248.8193 65.5446 250.4487 65.3459 250.4487 Z" stroke="#ffffff00" stroke-width="1" fill="#e9b989"/>			<path d="M 216 254 C 215.7032 253.7031 217.7551 251.9971 218.6241 251.2983 C 218.8531 251.1143 219 251 219 251 L 227 262 L 223 264 C 223 264 223.0625 263.625 223 264 C 222.9375 264.375 216.375 254.375 216 254 Z" stroke="#ffffff00" stroke-width="1" fill="#ffffff"/>			<g>				<path d="M 239.3334 252.3418 C 239.3334 252.3418 237.916 253.6494 236.5144 253.6821 C 235.4454 253.707 234.1926 253.8594 233.248 253.3643 C 232.9541 253.2104 232.6899 252.9937 232.4705 252.6904 C 231.5461 251.4146 230.0928 250.5557 232.2898 248.4521 C 234.4868 246.3491 237.2454 245.5166 239.0624 245.9844 C 240.8795 246.4517 243.1877 246.5718 243.8369 249.4482 C 244.4862 252.3247 243.0475 255.2012 242.1312 256.3696 C 241.2148 257.5381 237.6021 261.1563 234.6067 261.7334 C 231.6112 262.311 230.2476 262.6001 227.9456 260.9526 C 225.6438 259.3047 221.9349 254.4365 221.0693 252.189 C 220.2039 249.9419 219.1926 247.3271 219.4619 246.749 C 219.7312 246.1709 227.0081 239.7236 227.0081 239.7236 C 227.0081 239.7236 233.5485 253.3926 233.2568 253.5391 C 232.9653 253.6851 237.9816 253.8472 238.1431 253.7539 C 238.3046 253.6602 239.3334 252.3418 239.3334 252.3418 Z" stroke="#ffffff00" stroke-width="1" fill="#f7d3b2"/>				<path d="M 226.4578 237.7822 C 226.6375 237.5972 228.2842 236.2559 230.7594 236.019 C 233.2346 235.7822 238.7524 237.7944 240.2739 239.2036 C 241.7957 240.6128 243.7234 243.8501 243.8025 245.7046 C 243.8815 247.5586 243.6667 251.1392 243.7811 251.0728 C 243.8955 251.0068 235.3798 253.4692 235.3798 253.4692 L 232.986 247.1812 L 232.5337 248.6328 L 232.4359 248.9468 C 232.4359 248.9468 230.8845 249.5903 230.9534 249.3696 C 231.022 249.1489 230.1995 249.6519 229.3804 247.6733 C 228.5614 245.6953 227.8633 244.3525 227.8633 244.3525 L 225.0654 240.3247 C 225.0654 240.3247 226.2781 237.9678 226.4578 237.7822 Z" stroke="#ffffff00" stroke-width="1" fill="#f4caa4"/>				<path d="M 233.2568 253.5391 " stroke="#ffffff00" stroke-width="1" fill="none"/>				<path d="M 219.4619 246.749 C 219.4619 246.749 220.2441 251.0664 221.0693 252.189 C 221.8948 253.3115 225.1926 257.8213 225.5862 258.4082 C 225.98 258.9951 227.9622 261.5444 229.2263 261.6597 C 230.4904 261.7744 230.3608 261.8721 230.3608 261.8721 L 226.4072 263 C 226.4072 263 224.7354 261.7505 222.6211 259.2539 C 220.5068 256.7573 218.1852 251.377 218.0139 250.916 C 217.8425 250.4546 219.3158 246.2544 219.3158 246.2544 L 219.4619 246.749 Z" stroke="#ffffff00" stroke-width="1" fill="#e9b989"/>				<path d="M 232.8052 242.9429 L 230.6824 243.0122 C 230.6824 243.0122 229.3236 244.8745 229.1439 245.0596 C 228.9642 245.2451 228.4033 248.2202 229.8188 249.1572 C 230.8312 249.8271 231.6309 250.0093 232.0043 250.0586 C 232.1528 250.0781 232.2339 250.0771 232.2339 250.0771 C 232.2339 250.0771 236.0293 247.6201 236.2434 247.3242 C 236.4574 247.0288 232.8052 242.9429 232.8052 242.9429 Z" stroke="#ffffff00" stroke-width="1" fill="#fad3b2"/>				<path d="M 238.345 252.6235 C 238.345 252.6235 236.9276 253.9316 235.5259 253.9639 C 234.457 253.9888 233.2043 254.1411 232.2596 253.6465 C 231.9657 253.4922 231.7014 253.2754 231.4821 252.9727 C 230.5576 251.6968 229.1044 250.8374 231.3014 248.7344 C 233.4984 246.6309 236.2568 245.7988 238.074 246.2661 C 239.8911 246.7334 242.1992 246.8535 242.8486 249.7305 C 243.4978 252.6069 242.0591 255.4834 241.1428 256.6519 C 240.2266 257.8203 236.6138 261.438 233.6183 262.0156 C 230.6228 262.5928 229.2592 262.8818 226.9573 261.2344 C 224.6553 259.5869 220.9465 254.7188 220.0811 252.4712 C 219.2156 250.2236 218.2043 247.6094 218.4736 247.0313 C 218.7427 246.4526 219.1697 245.7598 219.1697 245.7598 C 219.1697 245.7598 219.6982 248.479 220.6868 249.0811 C 221.6753 249.6826 223.2876 251.5742 224.1287 250.9814 C 224.9696 250.3887 224.1665 251.4434 224.1272 251.3169 C 224.0879 251.1904 225.49 254.6816 225.49 254.6816 C 225.49 254.6816 225.9641 256.4209 226.2015 256.5234 C 226.2015 256.5234 232.5601 253.6743 232.2686 253.8208 C 231.9771 253.9668 236.9932 254.1294 237.1548 254.0356 C 237.3162 253.9419 238.345 252.6235 238.345 252.6235 Z" stroke="#ffffff00" stroke-width="1" fill="#f7d3b2"/>				<path d="M 239.4795 252.8364 C 239.4795 252.8364 237.5193 253.7627 236.0203 253.8232 C 234.521 253.8833 233.2568 253.5391 233.2568 253.5391 L 231.7744 253.9619 C 231.7744 253.9619 232.1938 254.4258 233.0549 254.6689 C 233.916 254.9121 235.8005 255.1675 237.3008 254.5303 C 238.801 253.8931 239.6257 253.3311 239.6257 253.3311 L 239.4795 252.8364 Z" stroke="#ffffff00" stroke-width="1" fill="#e9b989"/>				<path d="M 231.2109 246.6152 C 231.2109 246.6152 229.5657 250.7446 230.8418 252.6191 C 232.1178 254.4932 232.2126 255.4453 232.2126 255.4453 L 229.2476 256.291 C 229.2476 256.291 229.4165 255.9165 228.865 253.1826 C 228.3135 250.4492 225.5869 248.4756 225.7749 248.1655 C 225.9629 247.8555 224.7559 240.4595 225.0654 240.3247 C 225.375 240.1895 227.6826 240.1143 227.6826 240.1143 L 231.2109 246.6152 Z" stroke="#ffffff00" stroke-width="1" fill="#e9b989"/>				<path d="M 233.9611 237.7871 C 233.9611 237.7871 231.899 237.269 230.2095 237.7847 C 228.5198 238.3003 228.1768 239.9731 228.1768 239.9731 C 228.1768 239.9731 227.9807 238.856 227.8845 238.9844 C 227.7883 239.1123 228.4136 237.8276 230.0632 237.29 C 231.7129 236.7524 233.9611 237.7871 233.9611 237.7871 Z" stroke="#ffffff00" stroke-width="1" fill="#e9b989"/>				<path d="M 237.1069 241.1797 C 237.2612 241.1357 234.5886 240.5908 233.3552 241.1772 C 232.1218 241.7637 229.9258 243.9653 229.6382 244.9189 C 229.3506 245.8721 228.9351 246.3931 228.9419 246.1899 C 228.949 245.9868 229.3577 243.2896 230.8843 241.8823 C 232.4109 240.4746 233.6702 240.3164 234.6917 240.2598 C 235.7131 240.2031 236.9524 241.2236 237.1069 241.1797 Z" stroke="#ffffff00" stroke-width="1" fill="#e9b989"/>				<path d="M 220.9232 251.6943 C 222.3748 252.4316 223.3914 252.9473 224.6749 251.6968 C 225.9585 250.4463 226.3677 249.4087 226.269 248.0249 C 226.1705 246.6406 225.4349 244.624 224.9539 243.5737 C 224.4729 242.5234 222.5651 240.3965 220.4716 241.0986 C 218.3781 241.8008 217.9523 244.5649 218.0352 245.5474 C 218.1179 246.5298 219.4717 250.9575 220.9232 251.6943 Z" stroke="#ffffff00" stroke-width="1" fill="#e9b989"/>				<path d="M 221.9674 249.7881 C 223.4189 250.5249 224.4355 251.041 225.7191 249.79 C 227.0027 248.5396 227.4119 247.5024 227.3132 246.1182 C 227.2147 244.7339 226.4791 242.7173 225.998 241.667 C 225.5171 240.6172 223.6093 238.4897 221.5157 239.1919 C 219.4224 239.8945 218.9965 242.6582 219.0793 243.6406 C 219.1621 244.6235 220.5159 249.0508 221.9674 249.7881 Z" stroke="#ffffff00" stroke-width="1" fill="#f7d3b2"/>			</g>			<path d="M 151 273 L 157 277 L 166 269 C 166 269 160.5792 270.1865 160 270 C 159.4208 269.8135 155 273 155 273 L 151 273 Z" stroke="#ffffff00" stroke-width="1" fill="#d5dadd"/>			<path d="M 132 242 C 132.5741 241.9971 144.1318 242.8906 153 243 C 161.8682 243.1094 175 242 175 242 C 175 242 167.0432 249.3281 155 249 C 142.9568 248.6719 131.4259 242.0029 132 242 Z" stroke="#ffffff00" stroke-width="1" fill="#fefffd"/>			<path d="M 141 258 C 140.9448 257.7886 145.1118 252.8281 153 253 C 160.8882 253.1719 165 257 165 257 C 165 257 159.4475 261.1079 153.3171 260.7432 C 147.1866 260.3779 141.0552 258.2114 141 258 Z" stroke="#ffffff00" stroke-width="1" fill="#fc706c"/>			<path d="M 203 228 C 203.3438 227.8438 204 222 204 222 C 204 222 202.8125 223.3125 204 222 C 205.1875 220.6875 206.5 218.8125 209 220 C 211.5 221.1875 212.5 224.4375 211 227 C 209.5 229.5625 204.75 232.1563 203 232 C 201.25 231.8438 202.6563 228.1563 203 228 Z" stroke="#ffffff00" stroke-width="1" fill="#f4caa4"/>		</g>	</g></svg>