<?xml version="1.0" standalone="no"?><!-- Generator: Adobe Fireworks CS6, Export SVG Extension by Aaron Beall (http://fireworks.abeall.com) . Version: 0.6.1  --><!DOCTYPE svg PUBLIC "-//W3C//DTD SVG 1.1//EN" "http://www.w3.org/Graphics/SVG/1.1/DTD/svg11.dtd"><svg id="Untitled-Page%201" viewBox="0 0 260 176" style="background-color:#ffffff00" version="1.1"	xmlns="http://www.w3.org/2000/svg" xmlns:xlink="http://www.w3.org/1999/xlink" xml:space="preserve"	x="0px" y="0px" width="260px" height="199px">	<g id="Layer%201">		<g>			<g>				<path d="M 0.8484 8.1387 C 0.8484 1.6104 2.2418 0.2178 8.7747 0.2178 L 195.8369 0.2178 C 202.3698 0.2178 203.7632 1.6104 203.7632 8.1387 L 203.7632 114.8013 L 0.8484 114.8013 L 0.8484 8.1387 Z" fill="#313133"/>				<path d="M 6.3496 8.1387 L 196.5822 8.1387 L 196.5822 106.8809 L 6.3496 106.8809 L 6.3496 8.1387 Z" fill="#45bfc4"/>				<path d="M 74.8278 127.4741 L 74.8278 141.2031 C 74.8278 141.2031 74.7427 144.1758 65.8446 148.0674 C 56.9464 151.9595 52.1055 152.8198 52.1055 152.8198 L 52.1055 154.9316 L 152.506 154.9316 L 152.506 152.8198 C 152.506 152.8198 147.6652 151.9595 138.767 148.0674 C 129.8688 144.1758 129.7839 141.2031 129.7839 141.2031 L 129.7839 127.4741 L 74.8278 127.4741 Z" fill="#ffffff"/>				<path d="M 52.1055 153.3477 L 152.506 153.3477 L 152.506 155.46 L 52.1055 155.46 L 52.1055 153.3477 Z" fill="#dadada"/>				<path d="M 74.8278 127.4741 L 129.7839 127.4741 L 129.7839 141.2031 L 74.8278 141.2031 L 74.8278 127.4741 Z" fill="#dadada"/>				<path d="M 0.8484 114.2734 L 0.8484 123.1641 C 0.8484 128.9766 4.6294 132.7544 10.4461 132.7544 L 194.1653 132.7544 C 199.9822 132.7544 203.7632 128.9766 203.7632 123.1641 L 203.7632 114.2734 L 0.8484 114.2734 Z" fill="#ffffff"/>				<path opacity="0.502" d="M 102.3058 8.1387 L 197.422 8.1387 L 197.422 106.8809 L 102.3058 106.8809 L 102.3058 8.1387 Z" fill="#13858a"/>			</g>			<g>				<path d="M 17.338 19.8027 L 54.4503 19.8027 L 54.4503 59.4053 L 17.338 59.4053 L 17.338 19.8027 Z" fill="#f2c300"/>				<rect opacity="0.502" x="18" y="65.6023" width="31.9147" height="3.3586" fill="#000000"/>				<rect opacity="0.502" x="18" y="71.4802" width="12.5985" height="3.3586" fill="#000000"/>				<rect opacity="0.502" x="18" y="81.5564" width="31.9147" height="1.6794" fill="#000000"/>				<rect opacity="0.502" x="18" y="85.7549" width="31.9147" height="1.6792" fill="#000000"/>				<rect opacity="0.502" x="18" y="89.9534" width="16.7977" height="1.6794" fill="#000000"/>			</g>			<g>				<path d="M 175.7254 115.5806 C 175.7254 117.5605 176.2065 119.4277 177.0567 121.0737 C 172.869 123.2695 170.0113 127.6567 170.0113 132.71 C 170.0113 139.9629 175.8953 145.8428 183.1535 145.8428 C 185.4966 145.8428 187.6941 145.2324 189.599 144.1587 C 191.888 147.2598 195.5723 149.269 199.7242 149.269 C 204.1282 149.269 208.0042 147.0078 210.2494 143.582 C 212.3338 147.6377 216.5607 150.4111 221.4375 150.4111 C 226.0747 150.4111 230.1265 147.9033 232.3055 144.1699 C 234.1523 145.2354 236.2939 145.8428 238.5793 145.8428 C 245.5222 145.8428 251.1503 140.2188 251.1503 133.2813 C 251.1503 126.3438 245.5222 120.7197 238.5793 120.7197 C 233.9423 120.7197 229.8904 123.2266 227.7114 126.96 C 225.8646 125.8955 223.7228 125.2871 221.4375 125.2871 C 217.0334 125.2871 213.1573 127.5488 210.9122 130.9746 C 208.8276 126.9189 204.6009 124.1455 199.7242 124.1455 C 198.1077 124.1455 196.5615 124.4521 195.1415 125.0078 C 197.9326 122.812 199.7242 119.4053 199.7242 115.5806 C 199.7242 108.958 194.3519 103.5898 187.7247 103.5898 C 181.0976 103.5898 175.7254 108.958 175.7254 115.5806 Z" fill="#ededed"/>				<path d="M 252.0742 125.2871 L 252.1771 125.2871 C 255.9639 125.2871 259.0339 122.2197 259.0339 118.4355 C 259.0339 114.6514 255.9639 111.584 252.1771 111.584 C 249.7905 111.584 247.691 112.8018 246.4631 114.6499 L 246.4631 114.4385 C 246.4631 109.0776 242.114 104.7319 236.7493 104.7319 C 233.0317 104.7319 229.7997 106.8164 228.1668 109.8823 C 227.8624 100.6797 220.0547 93.312 210.4648 93.312 C 202.7485 93.312 196.1859 98.085 193.757 104.7432 L 193.3228 104.7319 C 187.9578 104.7319 183.609 109.0776 183.609 114.4385 C 183.609 115.7197 183.8549 116.9443 184.306 118.0645 C 179.234 119.8848 175.6093 124.7314 175.6093 130.4263 C 175.6093 137.6797 181.4932 143.5596 188.7515 143.5596 C 190.9489 143.5596 193.0225 143.0215 194.8427 142.0688 C 197.1434 144.3867 200.4728 145.8428 204.1794 145.8428 C 207.4826 145.8428 210.4898 144.6865 212.7333 142.7939 C 215.0385 145.3525 218.5403 146.9849 222.4643 146.9849 L 223.0641 146.9736 L 223.6071 146.9849 C 227.2056 146.9849 230.4193 145.3218 232.5151 142.7256 C 234.5847 143.9775 237.0101 144.7012 239.6062 144.7012 C 247.1802 144.7012 253.3199 138.5659 253.3199 130.9971 C 253.3199 128.959 252.873 127.0259 252.0742 125.2871 Z" fill="#ffffff"/>				<path d="M 195.153 116.1514 L 195.1587 116.4429 C 195.3061 112.4727 198.5724 109.2998 202.5812 109.2998 C 205.6709 109.2998 208.3188 111.186 209.438 113.8677 C 209.626 114.3179 209.7701 114.7881 209.8666 115.2783 C 210.1441 114.8013 210.4761 114.3608 210.8493 113.959 C 212.2065 112.4985 214.1432 111.584 216.2948 111.584 C 219.0143 111.584 221.3941 113.0479 222.6886 115.2266 C 222.9248 115.624 223.1236 116.042 223.283 116.4824 C 223.5939 116.251 223.9258 116.042 224.2715 115.8604 C 225.3033 115.3174 226.4753 115.0098 227.7227 115.0098 C 231.7314 115.0098 234.9979 118.1826 235.1453 122.1528 L 235.1511 121.8613 C 235.1511 117.4468 231.5695 113.8677 227.1514 113.8677 C 225.9084 113.8677 224.7325 114.1504 223.6829 114.6558 C 222.1913 112.1328 219.4395 110.4414 216.2948 110.4414 C 214.0159 110.4414 211.9447 111.333 210.4093 112.7827 C 209.1359 110.0532 206.3645 108.1572 203.1526 108.1572 C 198.7346 108.1572 195.153 111.7368 195.153 116.1514 Z" fill="#ededed"/>			</g>			<g>				<path id="Ellipse" d="M 100.5581 111.1646 C 100.5581 75.3564 129.6157 46.3291 165.4611 46.3291 C 201.3065 46.3291 230.3639 75.3564 230.3639 111.1646 C 230.3639 146.9727 201.3065 176 165.4611 176 C 129.6157 176 100.5581 146.9727 100.5581 111.1646 Z" fill="#9ec0c2"/>				<path d="M 109.8301 84.7012 C 109.5817 85.5073 109.8092 85.7139 109.8301 86.0244 C 109.8923 86.958 106.077 102.123 105.8564 105.8721 C 105.6357 109.6211 108.2848 113.1494 108.5055 115.1338 C 108.7261 117.1191 112.2584 120.6475 113.8037 121.75 C 115.349 122.8525 116.6734 125.2783 117.7775 127.043 C 118.8812 128.8066 119.9849 126.1602 120.4265 125.7197 C 120.868 125.2783 117.5566 123.0732 116.4528 121.75 C 115.349 120.4268 117.998 119.5444 119.1019 117.7803 C 120.2057 116.0166 117.1151 117.7803 115.1282 117.7803 C 113.1414 117.7803 113.3622 115.7959 112.4792 112.4878 C 111.5962 109.1797 114.9075 109.8413 117.7775 109.8413 C 120.6472 109.8413 119.5435 112.7085 120.4265 112.4878 C 121.3094 112.2671 122.1925 110.2822 123.0756 107.1953 C 123.9585 104.1079 128.8152 100.3584 131.0228 99.2559 C 133.2303 98.1533 135.2172 98.5947 137.6455 96.6094 C 140.0739 94.625 134.7757 95.7275 133.672 93.9634 C 132.5682 92.1992 138.3079 92.1992 140.2947 92.6401 C 142.2816 93.0811 142.5023 90.4346 142.9437 88.6709 C 143.3853 86.9063 138.9702 86.2451 138.9702 84.7012 C 138.9702 83.1572 140.5154 83.5986 140.2947 82.0547 C 140.0739 80.5107 138.3079 82.2754 136.321 82.0547 C 134.3342 81.834 135.6587 80.0703 134.9965 79.4082 C 134.3342 78.7471 133.4512 81.6138 132.3474 83.3779 C 131.2436 85.1421 130.3605 88.4502 128.3738 88.6709 C 126.3868 88.8916 127.9321 86.4653 128.3738 86.0244 C 128.8152 85.5835 127.9321 85.8037 128.3738 84.7012 C 128.8152 83.5986 125.9453 81.6138 125.7246 80.7314 C 125.5039 79.8496 129.0359 75.6592 129.6982 75.439 C 130.3605 75.2183 134.5549 73.6748 134.9965 74.1157 C 135.438 74.5566 137.6455 71.4697 137.6455 71.4697 L 134.9965 68.8232 L 136.321 66.1768 L 132.3474 68.8232 L 132.3474 66.1768 L 133.672 62.207 C 133.672 62.207 130.5814 61.5459 131.0228 62.207 C 131.4644 62.8691 127.7114 65.2944 125.7246 64.8535 C 124.1856 64.5117 125.4274 61.2607 126.3737 59.4023 C 122.5688 62.2734 119.0886 65.5566 116.0024 69.1807 C 116.4507 70.2427 116.4528 70.8545 116.4528 71.4697 C 116.4528 72.3516 115.1282 72.7925 115.1282 72.7925 C 115.1282 72.7925 110.4426 82.7129 109.8301 84.7012 Z" fill="#4d8343"/>				<path d="M 116.9753 85.8906 C 116.7269 86.6973 116.9546 86.9038 116.9753 87.2139 C 117.0375 88.1475 113.2223 103.3125 113.0017 107.0615 C 112.781 110.8105 115.4301 114.3389 115.6508 116.3237 C 115.8714 118.3086 119.4037 121.8369 120.949 122.9395 C 122.4943 124.042 123.8187 126.4683 124.9226 128.2324 C 126.0264 129.9961 127.1301 127.3501 127.5717 126.9092 C 128.0132 126.4683 124.7019 124.2627 123.5981 122.9395 C 122.4943 121.6162 125.1433 120.7344 126.2471 118.9697 C 127.351 117.2061 124.2603 118.9697 122.2735 118.9697 C 120.2867 118.9697 120.5073 116.9854 119.6244 113.6772 C 118.7414 110.3691 122.0528 111.0313 124.9226 111.0313 C 127.7924 111.0313 126.6888 113.8984 127.5717 113.6772 C 128.4547 113.457 129.3379 111.4717 130.2208 108.3848 C 131.1038 105.2974 135.9605 101.5479 138.168 100.4453 C 140.3755 99.3433 142.3625 99.7842 144.7908 97.7993 C 147.2191 95.8145 141.9208 96.917 140.8171 95.1528 C 139.7134 93.3887 145.4531 93.3887 147.4399 93.8301 C 149.4267 94.2705 149.6475 91.6245 150.089 89.8604 C 150.5304 88.0962 146.1154 87.4346 146.1154 85.8906 C 146.1154 84.3472 147.6607 84.7881 147.4399 83.2441 C 147.2191 81.7007 145.4531 83.4648 143.4662 83.2441 C 141.4794 83.0234 142.804 81.2598 142.1417 80.5981 C 141.4794 79.9365 140.5963 82.8037 139.4926 84.5674 C 138.3889 86.332 137.5058 89.6396 135.519 89.8604 C 133.5322 90.0811 135.0773 87.6553 135.519 87.2139 C 135.9605 86.7729 135.0773 86.9932 135.519 85.8906 C 135.9605 84.7881 133.0906 82.8037 132.8699 81.9214 C 132.6492 81.0391 136.1812 76.8491 136.8435 76.6284 C 137.5058 76.4082 141.7003 74.8643 142.1417 75.3057 C 142.5831 75.7461 144.7908 72.6592 144.7908 72.6592 L 142.1417 70.0127 L 143.4662 67.3662 L 139.4926 70.0127 L 139.4926 67.3662 L 140.8171 63.397 C 140.8171 63.397 137.7266 62.7354 138.168 63.397 C 138.6096 64.0586 134.8567 66.4844 132.8699 66.043 C 131.3309 65.7012 132.5728 62.4507 133.5188 60.5918 C 129.7141 63.4634 126.2338 66.7461 123.1478 70.3701 C 123.596 71.4326 123.5981 72.0439 123.5981 72.6592 C 123.5981 73.541 122.2735 73.9824 122.2735 73.9824 C 122.2735 73.9824 117.5878 83.9023 116.9753 85.8906 Z" fill="#4d8343"/>				<path d="M 141.6193 64.8535 C 141.6193 64.8535 139.1356 66.2593 138.9702 66.1768 C 138.8045 66.0938 139.8807 67.9131 140.2947 68.8232 C 140.7085 69.7324 139.3013 73.0405 138.9702 74.1157 C 138.639 75.1909 138.3906 77.6719 138.9702 78.085 C 139.5496 78.499 139.7979 79.9873 140.2947 79.4082 C 140.7913 78.8296 141.2881 75.7695 141.6193 75.439 C 141.9503 75.1084 143.2748 69.6504 142.9437 70.1465 L 141.6193 64.8535 Z" fill="#4d8343"/>				<path d="M 149.7011 61.0596 C 149.7064 61.0552 149.6717 61.0068 149.5665 60.8838 C 149.1098 60.4932 149.6816 61.0781 149.7011 61.0596 ZM 162.5953 57.187 C 162.6613 57.208 162.7525 57.1519 162.812 56.9146 C 162.4404 56.8613 162.4774 57.1484 162.5953 57.187 ZM 150.8911 59.5605 C 149.7321 59.3125 149.0697 60.3052 149.5665 60.8838 C 150.146 61.3804 150.4771 62.7861 150.8911 64.8535 C 151.3049 66.9209 150.7254 70.3115 150.8911 72.7925 C 151.0565 75.2734 149.5665 78.085 148.2419 79.4082 C 146.9174 80.7314 148.7386 82.5508 150.8911 82.0547 C 153.0435 81.5586 153.9542 78.5811 156.1893 76.7622 C 158.4244 74.9429 161.9841 72.1309 164.1365 70.1465 C 166.2888 68.1616 166.7856 61.7939 166.7856 60.8838 C 166.7856 59.9746 165.8751 57.7412 164.1365 56.9146 C 162.3981 56.0879 162.9775 56.2529 162.812 56.9146 C 163.3914 56.9971 161.7357 58.4858 160.1629 58.2373 C 158.59 57.9893 159.3351 56.0049 157.5138 55.5913 C 155.6924 55.1777 156.6859 56.4185 156.1893 58.2373 C 155.6924 60.0566 155.8581 58.8994 154.8647 59.5605 C 153.8712 60.2227 153.4573 57.8242 153.54 56.9146 C 153.623 56.0049 154.6163 54.5991 152.2156 54.2681 C 149.8148 53.9375 151.2222 54.7646 149.5665 55.5913 C 147.9108 56.4185 147.7453 56.749 145.5929 58.2373 C 143.4404 59.7266 142.2816 59.8086 141.6193 60.8838 C 140.957 61.959 141.7847 61.959 141.6193 62.207 C 141.4536 62.4551 143.8544 62.7031 144.2684 62.207 C 144.6821 61.7109 146.9174 59.8086 146.9174 59.5605 C 146.9174 59.3125 149.7321 58.1553 149.5665 58.2373 C 149.4009 58.3203 152.2156 58.2373 152.2156 58.2373 C 152.2156 58.2373 152.0499 59.8086 150.8911 59.5605 Z" fill="#4d8343"/>				<path d="M 164.7059 77.6709 C 164.6945 77.6792 164.7512 77.7959 164.9714 78.0938 C 165.0123 78.0127 164.7277 77.6548 164.7059 77.6709 ZM 166.3009 76.7622 C 165.4739 76.959 164.9654 78.0913 164.9714 78.0938 C 165.613 78.9624 165.7421 79.6563 166.3009 79.4082 C 166.8596 79.1602 167.0253 80.3389 167.6254 79.4082 C 168.2256 78.478 169.3846 78.8086 168.95 78.085 C 168.5154 77.3613 167.17 76.5557 166.3009 76.7622 Z" fill="#4d8343"/>				<path d="M 197.2502 55.5913 C 197.4157 55.7568 196.4224 55.0952 195.9256 55.5913 C 195.429 56.0879 195.7601 58.4033 195.9256 58.2373 C 196.0913 58.0723 198.9059 57.9893 198.5748 58.2373 C 198.2436 58.4858 197.0846 55.4258 197.2502 55.5913 Z" fill="#4d8343"/>				<path d="M 198.09 105.8721 C 198.0539 105.8535 198.0089 105.8564 197.9576 105.8721 C 198.1166 105.9287 198.1944 105.9238 198.09 105.8721 ZM 195.4409 107.1953 C 196.6213 107.1211 197.5374 105.999 197.9576 105.8721 C 197.6121 105.7485 196.8788 105.3418 196.7654 104.5488 C 196.6 103.3906 196.7654 103.2256 196.7654 103.2256 C 196.7654 103.2256 196.8483 101.8193 198.09 101.9023 C 199.3317 101.9854 199.2491 103.4736 200.7392 104.5488 C 202.2293 105.624 203.2227 105.293 204.7128 105.8721 C 206.2028 106.4507 206.6995 107.7739 206.0373 108.5186 C 205.4616 109.165 204.635 109.8115 204.6465 109.8613 C 204.7281 109.8286 204.756 109.8198 204.7128 109.8413 C 204.6695 109.8633 204.6484 109.8687 204.6465 109.8613 C 204.1044 110.0771 201.1709 111.3086 200.7392 111.1646 C 200.2424 110.999 199.4147 111.1646 199.4147 111.1646 C 199.4147 111.1646 195.772 111.082 195.4409 111.1646 C 195.1098 111.2471 195.772 111.9087 194.1165 112.4878 C 192.4607 113.0664 192.7918 112.4878 192.7918 112.4878 C 192.7918 112.4878 189.6461 110.4199 188.8182 109.8413 C 187.9905 109.2627 186.1691 107.5259 184.8445 108.5186 C 183.52 109.5107 179.9603 112.3223 178.2218 112.4878 C 176.4833 112.6533 172.2614 117.2842 171.5991 117.7803 C 170.9368 118.2764 168.2877 128.5313 168.95 131.0122 C 169.6123 133.4932 175.6556 135.8916 178.2218 136.3047 C 180.7881 136.7183 185.7551 137.7109 187.4937 140.2744 C 189.2322 142.8379 188.4871 158.7158 188.8182 160.1221 C 189.1494 161.5278 189.3977 165.6631 191.4673 164.0918 C 193.5369 162.5205 196.8483 158.5508 198.09 157.4756 C 199.3317 156.4004 206.3684 145.7324 207.3619 142.9209 C 208.3552 140.1094 211.6666 137.2974 212.6601 136.3047 C 213.6534 135.3125 216.8821 131.3428 215.3092 129.689 C 213.7363 128.0352 212.1634 130.4336 211.3356 129.689 C 210.5078 128.9443 209.4316 126.3809 208.6863 125.7197 C 207.9413 125.0581 204.7956 121.5845 204.7128 119.1035 C 204.6299 116.6226 203.1399 113.9766 204.7128 113.811 C 206.2858 113.6455 206.6169 114.3071 207.3619 115.1338 C 208.1069 115.9609 209.3486 123.5693 210.011 124.3965 C 210.4977 125.0039 212.0573 126.4639 212.5873 126.9634 C 212.217 126.3818 214.4407 125.5005 215.3092 124.3965 C 216.2198 123.2383 217.4616 118.4419 217.9582 116.457 C 218.455 114.4727 217.8755 113.4805 216.6337 113.811 C 215.3919 114.1416 212.1634 114.2246 212.6601 112.4878 C 213.1568 110.751 215.3092 108.1875 215.3092 108.5186 C 215.3092 108.8491 219.8624 111.082 220.6074 111.1646 C 221.3524 111.2471 224.0015 111.4126 224.581 112.4878 C 225.1605 113.5625 225.9056 126.2158 225.9056 125.7197 C 225.9056 125.2231 228.3063 112.0742 228.5546 111.1646 C 228.803 110.2549 230.8726 109.4277 231.2037 109.8413 C 230.7963 89.7363 221.2209 71.876 206.4877 60.2554 C 204.5857 59.0508 203.3882 58.2725 203.3882 58.2373 C 203.3882 58.0723 201.1531 58.9819 200.7392 59.5605 C 200.3253 60.1396 199.5802 64.3574 199.4147 64.8535 C 199.2491 65.3496 202.0637 63.5303 203.3882 64.8535 C 204.7128 66.1768 205.9547 66.5078 206.0373 67.5 C 206.1201 68.4922 205.1267 71.0557 204.7128 70.1465 C 204.2988 69.2363 202.5604 67.8306 202.0637 67.5 C 201.567 67.1689 199.4147 68.8232 199.4147 68.8232 C 198.5868 69.0713 197.7589 68.3271 198.09 68.8232 C 198.4211 69.3193 196.8483 72.0483 196.7654 72.7925 C 196.6827 73.5371 195.4409 75.439 195.4409 75.439 C 194.3647 74.5293 193.7024 72.1309 194.1165 71.4697 C 194.5303 70.8076 191.1362 69.6504 188.8182 70.1465 C 186.5003 70.6426 183.52 72.7925 183.52 72.7925 L 183.52 75.439 C 183.52 75.439 183.4372 76.4316 182.1954 78.085 C 180.9537 79.7393 180.8709 80.7314 180.8709 80.7314 C 180.8709 80.7314 178.8013 77.8369 179.5464 80.7314 C 180.2914 83.626 183.52 86.1069 184.8445 86.0244 C 186.1691 85.9414 187.4109 81.7241 187.4937 80.7314 C 187.5765 79.7393 188.5699 75.1084 188.8182 75.439 C 189.0665 75.7695 190.1428 77.5063 190.1428 78.085 C 190.1428 78.6641 192.6263 80.0703 192.7918 80.7314 C 192.9574 81.3936 193.123 84.9492 192.7918 84.7012 C 192.4607 84.4531 191.7156 86.5205 191.4673 87.3477 C 191.219 88.1748 188.2386 89.6631 187.4937 89.9941 C 186.7487 90.3247 180.0431 90.4072 179.5464 92.6401 C 179.0496 94.873 177.2284 96.1133 176.8973 97.9326 C 176.5662 99.752 178.553 101.2412 178.2218 101.9023 C 177.8907 102.564 174.4965 101.4893 174.2482 103.2256 C 173.9999 104.9624 172.0958 105.293 174.2482 107.1953 C 176.4007 109.0972 177.9735 111.7437 179.5464 108.5186 C 181.1192 105.293 180.8709 102.3984 183.52 101.9023 C 186.1691 101.4063 186.0862 100.8271 187.4937 101.9023 C 188.901 102.9775 190.1428 105.4585 191.4673 105.8721 C 192.7918 106.2852 191.8812 104.2178 191.4673 103.2256 C 191.0534 102.2334 189.7289 99.6694 190.1428 99.2559 C 190.5567 98.8428 192.0468 100.4141 192.7918 100.5791 C 193.5369 100.7446 194.1165 107.2778 195.4409 107.1953 Z" fill="#4d8343"/>				<path d="M 174.7329 86.0244 C 174.4432 86.2725 171.463 87.4717 172.0838 87.3477 C 172.7047 87.2236 172.9116 88.3398 173.4083 88.6709 C 173.905 89.0015 176.4714 89.1255 176.0574 88.6709 C 175.6435 88.2158 175.0226 85.7764 174.7329 86.0244 Z" fill="#4d8343"/>				<path d="M 124.4001 121.75 C 124.4001 121.75 125.0164 119.667 124.4001 119.1035 C 123.7837 118.54 121.751 117.7803 121.751 117.7803 L 121.751 119.1035 L 123.0756 120.4268 L 124.4001 121.75 Z" fill="#4d8343"/>				<path d="M 128.3738 129.689 C 127.8636 129.3003 124.2429 130.3389 124.4001 131.0122 C 124.5573 131.6855 124.4266 133.5986 124.4001 134.9814 C 124.3736 136.3652 121.2408 137.8677 121.751 138.9512 C 122.261 140.0352 123.2327 144.7686 124.4001 145.5674 C 125.5676 146.3652 132.8674 153.9204 133.672 156.1523 C 134.4763 158.3843 135.5024 162.1836 136.321 164.0918 C 137.1398 165.9995 142.0433 169.6348 142.9437 170.7075 C 143.2934 171.124 144.0854 171.9209 144.9568 172.6987 C 145.8013 172.9795 146.6541 173.2461 147.5135 173.4927 C 146.0088 171.9829 142.8225 169.6455 142.9437 169.3843 C 143.1096 169.0273 141.4003 166.3896 142.9437 165.415 C 144.4872 164.4395 146.1331 161.9512 146.9174 160.1221 C 147.7017 158.293 145.2003 156.4893 148.2419 156.1523 C 151.2836 155.8154 151.7699 148.791 152.2156 146.8906 C 152.6614 144.9893 144.4312 142.2432 142.9437 141.5977 C 141.4565 140.9521 134.8881 135.3564 133.672 133.6582 C 132.4557 131.9609 128.8839 130.0776 128.3738 129.689 Z" fill="#4d8343"/>				<path d="M 136.321 58.2373 C 136.7325 58.2256 135.2249 57.1221 134.9965 58.2373 C 134.768 59.353 134.4307 60.9121 134.9965 60.8838 C 135.5623 60.8564 138.1406 61.7051 137.6455 60.8838 C 137.1505 60.063 135.9095 58.25 136.321 58.2373 Z" fill="#4d8343"/>				<path d="M 203.873 154.8291 C 203.894 154.8306 203.9215 154.8232 203.9525 154.8027 C 203.6461 154.8018 203.61 154.8115 203.873 154.8291 ZM 207.8466 149.5366 C 207.4307 149.2158 204.6155 154.3721 203.9525 154.8027 C 204.1979 154.8037 204.6168 154.8101 205.1974 154.8291 C 206.5029 154.8726 209.2654 150.7793 209.1712 150.8599 C 209.0768 150.9399 211.0062 146.4702 210.4957 146.8906 C 209.9853 147.3101 208.2819 149.8726 207.8466 149.5366 Z" fill="#4d8343"/>				<path d="M 127.0491 124.3965 C 126.9987 124.3262 128.0679 124.333 128.3339 124.3701 C 128.3246 124.21 128.7357 123.4619 128.3738 123.0732 C 127.9539 122.6221 127.1345 122.9453 127.0491 123.0732 C 126.9637 123.2012 127.1105 124.4814 127.0491 124.3965 Z" fill="#4d8343"/>			</g>			<path d="M 175.3331 118.5732 C 176.4977 118.5732 177.4441 119.5225 177.4441 120.6895 C 177.4441 121.8564 176.4977 122.8057 175.3331 122.8057 C 174.1686 122.8057 173.2209 121.8564 173.2209 120.6895 C 173.2209 119.5225 174.1686 118.5732 175.3331 118.5732 L 175.3331 118.5732 ZM 175.3331 116.1143 C 172.8112 116.1143 170.7673 118.1621 170.7673 120.6895 C 170.7673 123.2168 172.8112 125.2646 175.3331 125.2646 C 177.8539 125.2646 179.8978 123.2168 179.8978 120.6895 C 179.8978 118.1621 177.8539 116.1143 175.3331 116.1143 L 175.3331 116.1143 Z" fill="#ffffff"/>			<path d="M 140.3267 140.8262 C 141.4911 140.8262 142.4377 141.7754 142.4377 142.9424 C 142.4377 144.1094 141.4911 145.0591 140.3267 145.0591 C 139.1621 145.0591 138.2144 144.1094 138.2144 142.9424 C 138.2144 141.7754 139.1621 140.8262 140.3267 140.8262 L 140.3267 140.8262 ZM 140.3267 138.3672 C 137.8047 138.3672 135.7608 140.4155 135.7608 142.9424 C 135.7608 145.4697 137.8047 147.5181 140.3267 147.5181 C 142.8474 147.5181 144.8912 145.4697 144.8912 142.9424 C 144.8912 140.4155 142.8474 138.3672 140.3267 138.3672 L 140.3267 138.3672 Z" fill="#ffffff"/>			<path d="M 123.53 99.5039 C 124.6944 99.5039 125.6409 100.4531 125.6409 101.6201 C 125.6409 102.7871 124.6944 103.7373 123.53 103.7373 C 122.3654 103.7373 121.4177 102.7871 121.4177 101.6201 C 121.4177 100.4531 122.3654 99.5039 123.53 99.5039 L 123.53 99.5039 ZM 123.53 97.0449 C 121.008 97.0449 118.9641 99.0933 118.9641 101.6201 C 118.9641 104.1475 121.008 106.1958 123.53 106.1958 C 126.0507 106.1958 128.0945 104.1475 128.0945 101.6201 C 128.0945 99.0933 126.0507 97.0449 123.53 97.0449 L 123.53 97.0449 Z" fill="#ffffff"/>			<path d="M 119.4522 100.0122 L 121.1152 98.2041 L 98.767 66.5249 L 63.7175 66.5254 L 63.7175 68.9854 L 97.8083 68.9844 L 119.4522 100.0122 Z" fill="#ffffff"/>			<path d="M 218.2096 23.5254 L 63.7175 23.5254 L 63.7175 25.9854 L 218.251 25.9844 L 218.2096 23.5254 Z" fill="#ffffff"/>			<path d="M 90.7934 80.9951 L 63.3522 80.998 L 63.3522 83.4575 L 89.8205 83.4541 L 118.946 142.5942 L 136.4943 142.5942 L 136.4943 140.1353 L 119.9188 140.1353 L 90.7934 80.9951 Z" fill="#ffffff"/>			<path d="M 118.0591 36.3242 L 63.3522 36.3271 L 63.3522 38.7871 L 117.0864 38.7832 L 154.5479 121.1807 L 172.0963 121.1807 L 172.0963 118.7217 L 155.5208 118.7217 L 118.0591 36.3242 Z" fill="#ffffff"/>			<path d="M 205.5806 84.0029 C 206.7451 84.0029 207.6915 84.9521 207.6915 86.1191 C 207.6915 87.2861 206.7451 88.2358 205.5806 88.2358 C 204.416 88.2358 203.4684 87.2861 203.4684 86.1191 C 203.4684 84.9521 204.416 84.0029 205.5806 84.0029 L 205.5806 84.0029 ZM 205.5806 81.5439 C 203.0586 81.5439 201.0146 83.5923 201.0146 86.1191 C 201.0146 88.6465 203.0586 90.6948 205.5806 90.6948 C 208.1013 90.6948 210.1452 88.6465 210.1452 86.1191 C 210.1452 83.5923 208.1013 81.5439 205.5806 81.5439 L 205.5806 81.5439 Z" fill="#ffffff"/>			<path d="M 221.5806 23.0029 C 222.7451 23.0029 223.6915 23.9521 223.6915 25.1191 C 223.6915 26.2861 222.7451 27.2358 221.5806 27.2358 C 220.416 27.2358 219.4684 26.2861 219.4684 25.1191 C 219.4684 23.9521 220.416 23.0029 221.5806 23.0029 L 221.5806 23.0029 ZM 221.5806 20.5439 C 219.0586 20.5439 217.0146 22.5923 217.0146 25.1191 C 217.0146 27.6465 219.0586 29.6948 221.5806 29.6948 C 224.1013 29.6948 226.1452 27.6465 226.1452 25.1191 C 226.1452 22.5923 224.1013 20.5439 221.5806 20.5439 L 221.5806 20.5439 Z" fill="#ffffff"/>			<path d="M 147.8311 51.79 L 63.3522 51.7925 L 63.3522 54.252 L 146.8583 54.249 L 168.3398 86.2681 L 202.6849 86.2681 L 202.6849 83.8096 L 169.3127 83.8096 L 147.8311 51.79 Z" fill="#ffffff"/>			<g>				<path d="M 171.3255 142.6826 C 171.3255 144.3149 171.7191 145.855 172.4144 147.2119 C 168.9891 149.0225 166.6519 152.6401 166.6519 156.8076 C 166.6519 162.7881 171.4644 167.6362 177.4011 167.6362 C 179.3174 167.6362 181.1148 167.1328 182.6729 166.2476 C 184.5451 168.8047 187.5584 170.4614 190.9543 170.4614 C 194.5564 170.4614 197.7267 168.5967 199.563 165.7715 C 201.2679 169.1162 204.725 171.4033 208.7137 171.4033 C 212.5065 171.4033 215.8207 169.3354 217.6028 166.2568 C 219.1133 167.1353 220.865 167.6362 222.7344 167.6362 C 228.4129 167.6362 233.0162 162.999 233.0162 157.2783 C 233.0162 151.5576 228.4129 146.9199 222.7344 146.9199 C 218.9415 146.9199 215.6275 148.9873 213.8453 152.0659 C 212.3348 151.1875 210.5829 150.6865 208.7137 150.6865 C 205.1118 150.6865 201.9413 152.5508 200.1051 155.376 C 198.4001 152.0313 194.9431 149.7451 190.9543 149.7451 C 189.6322 149.7451 188.3675 149.9971 187.2062 150.4561 C 189.489 148.6455 190.9543 145.8364 190.9543 142.6826 C 190.9543 137.2217 186.5603 132.7949 181.1399 132.7949 C 175.7195 132.7949 171.3255 137.2217 171.3255 142.6826 Z" fill="#ededed"/>				<path d="M 232.9319 150.6865 L 233.0162 150.6865 C 236.1135 150.6865 238.6244 148.1572 238.6244 145.0361 C 238.6244 141.916 236.1135 139.3867 233.0162 139.3867 C 231.0642 139.3867 229.347 140.3906 228.3425 141.915 L 228.3425 141.7407 C 228.3425 137.3203 224.7855 133.7363 220.3975 133.7363 C 217.357 133.7363 214.7136 135.4561 213.3779 137.9834 C 213.1289 130.3955 206.743 124.3203 198.8993 124.3203 C 192.588 124.3203 187.2205 128.2559 185.2339 133.7461 L 184.8788 133.7363 C 180.4908 133.7363 176.9337 137.3203 176.9337 141.7407 C 176.9337 142.7974 177.1348 143.8071 177.5039 144.7305 C 173.3555 146.2314 170.3908 150.228 170.3908 154.9238 C 170.3908 160.9048 175.2032 165.7529 181.1399 165.7529 C 182.9371 165.7529 184.6332 165.3096 186.1219 164.5244 C 188.0037 166.4355 190.7269 167.6362 193.7584 167.6362 C 196.4601 167.6362 198.9198 166.6826 200.7548 165.1221 C 202.6402 167.2324 205.5044 168.5781 208.7137 168.5781 L 209.2045 168.5684 L 209.6484 168.5781 C 212.5919 168.5781 215.2203 167.207 216.9344 165.0654 C 218.6273 166.0986 220.611 166.6948 222.7344 166.6948 C 228.9291 166.6948 233.9509 161.6357 233.9509 155.3945 C 233.9509 153.7139 233.5854 152.1196 232.9319 150.6865 Z" fill="#ffffff"/>				<path d="M 187.2155 143.1533 L 187.2201 143.3936 C 187.3408 140.1201 190.0123 137.5029 193.2911 137.5029 C 195.8182 137.5029 197.984 139.0586 198.8993 141.27 C 199.053 141.6411 199.1708 142.0288 199.2499 142.4326 C 199.4769 142.0396 199.7484 141.6763 200.0536 141.3452 C 201.1638 140.1411 202.7477 139.3867 204.5075 139.3867 C 206.7319 139.3867 208.6783 140.5938 209.7372 142.3906 C 209.9304 142.7178 210.093 143.0635 210.2233 143.4263 C 210.4776 143.2354 210.749 143.0635 211.0318 142.9131 C 211.8757 142.4648 212.8344 142.2114 213.8546 142.2114 C 217.1333 142.2114 219.805 144.8281 219.9255 148.1016 L 219.9302 147.8613 C 219.9302 144.2207 217.0009 141.27 213.3873 141.27 C 212.3707 141.27 211.4088 141.5029 210.5504 141.9199 C 209.3304 139.8394 207.0797 138.4448 204.5075 138.4448 C 202.6437 138.4448 200.9496 139.1797 199.6938 140.375 C 198.6522 138.1245 196.3855 136.5615 193.7584 136.5615 C 190.1449 136.5615 187.2155 139.5127 187.2155 143.1533 Z" fill="#ededed"/>			</g>		</g>	</g></svg>