<?xml version="1.0" encoding="utf-8"?>
<!-- Generator: Adobe Illustrator 16.0.0, SVG Export Plug-In . SVG Version: 6.00 Build 0)  -->
<!DOCTYPE svg PUBLIC "-//W3C//DTD SVG 1.1//EN" "http://www.w3.org/Graphics/SVG/1.1/DTD/svg11.dtd">
<svg version="1.1" id="Untitled-Page_x25_201" xmlns="http://www.w3.org/2000/svg" xmlns:xlink="http://www.w3.org/1999/xlink"
	 x="0px" y="0px" width="300px" height="215px" viewBox="0 0 300 215" enable-background="new 0 0 300 215" xml:space="preserve">
<path fill="none" d="z"/>
<g id="Layer_x25_201">
	<g>
		<g>
			<path fill="#313133" d="M18.836,47.139c0-6.528,1.393-7.921,7.926-7.921h187.057c6.532,0,7.927,1.393,7.927,7.921v106.662H18.836
				V47.139z"/>
			<path fill="#45BFC4" d="M24.337,47.139h190.227v98.742H24.337V47.139z"/>
			<path fill="#FFFFFF" d="M92.815,166.475v13.729c0,0-0.085,2.973-8.983,6.864c-8.898,3.892-13.739,4.753-13.739,4.753v2.111
				h100.395v-2.111c0,0-4.841-0.861-13.735-4.753c-8.898-3.892-8.984-6.864-8.984-6.864v-13.729H92.815z"/>
			<path fill="#DADADA" d="M70.093,192.348h100.395v2.112H70.093V192.348z"/>
			<path fill="#DADADA" d="M92.815,166.475h54.954v13.729H92.815V166.475z"/>
			<path fill="#FFFFFF" d="M18.836,153.273v8.891c0,5.813,3.781,9.59,9.598,9.59h183.714c5.816,0,9.598-3.777,9.598-9.59v-8.891
				H18.836z"/>
			<path opacity="0.502" fill="#13858A" enable-background="new    " d="M120.293,47.139h95.111v98.742h-95.111V47.139z"/>
		</g>
		<g>
			<path fill="#F2C300" d="M35.326,58.803h37.112v39.603H35.326V58.803z"/>
			<rect x="35.988" y="105.103" fill="#225F62" width="31.915" height="3.358"/>
			<rect x="35.988" y="110.98" fill="#225F62" width="12.599" height="3.358"/>
			<rect x="35.988" y="121.057" fill="#225F62" width="31.915" height="1.68"/>
			<rect x="35.988" y="125.255" fill="#225F62" width="31.915" height="1.679"/>
			<rect x="35.988" y="129.453" fill="#225F62" width="16.798" height="1.68"/>
		</g>
		<g>
			<path fill="#EDEDED" d="M193.708,154.58c0,1.98,0.481,3.848,1.331,5.494c-4.188,2.195-7.045,6.582-7.045,11.636
				c0,7.253,5.884,13.133,13.142,13.133c2.343,0,4.541-0.61,6.446-1.685c2.289,3.102,5.973,5.111,10.125,5.111
				c4.404,0,8.279-2.262,10.525-5.688c2.084,4.056,6.311,6.829,11.188,6.829c4.637,0,8.689-2.508,10.868-6.241
				c1.847,1.065,3.988,1.673,6.273,1.673c6.942,0,12.571-5.624,12.571-12.562s-5.629-12.562-12.571-12.562
				c-4.637,0-8.688,2.507-10.868,6.24c-1.846-1.064-3.988-1.673-6.273-1.673c-4.404,0-8.28,2.262-10.525,5.688
				c-2.084-4.056-6.311-6.829-11.188-6.829c-1.617,0-3.163,0.307-4.583,0.862c2.791-2.195,4.583-5.603,4.583-9.428
				c0-6.622-5.373-11.99-12-11.99S193.708,147.958,193.708,154.58z"/>
			<path fill="#FFFFFF" d="M270.057,164.287h0.104c3.786,0,6.856-3.067,6.856-6.852s-3.07-6.852-6.856-6.852
				c-2.387,0-4.486,1.218-5.715,3.066v-0.212c0-5.36-4.349-9.706-9.713-9.706c-3.719,0-6.95,2.084-8.583,5.15
				c-0.305-9.203-8.112-16.57-17.702-16.57c-7.717,0-14.279,4.772-16.708,11.431l-0.435-0.011c-5.364,0-9.713,4.346-9.713,9.706
				c0,1.281,0.246,2.506,0.697,3.626c-5.072,1.82-8.697,6.667-8.697,12.361c0,7.254,5.884,13.134,13.143,13.134
				c2.197,0,4.271-0.538,6.091-1.491c2.301,2.318,5.63,3.774,9.337,3.774c3.303,0,6.311-1.156,8.554-3.049
				c2.306,2.559,5.808,4.19,9.731,4.19l0.6-0.011l0.543,0.011c3.598,0,6.813-1.662,8.908-4.259c2.068,1.252,4.494,1.976,7.091,1.976
				c7.573,0,13.714-6.135,13.714-13.704C271.303,167.959,270.855,166.025,270.057,164.287z"/>
			<path fill="#EDEDED" d="M213.135,155.151l0.006,0.292c0.148-3.971,3.414-7.144,7.423-7.144c3.09,0,5.737,1.886,6.856,4.567
				c0.188,0.451,0.332,0.921,0.43,1.411c0.277-0.478,0.609-0.917,0.982-1.319c1.357-1.461,3.293-2.375,5.445-2.375
				c2.719,0,5.1,1.464,6.394,3.643c0.236,0.397,0.435,0.815,0.595,1.256c0.311-0.231,0.643-0.44,0.988-0.622
				c1.031-0.543,2.203-0.851,3.451-0.851c4.009,0,7.275,3.173,7.423,7.143l0.005-0.291c0-4.414-3.581-7.994-7.999-7.994
				c-1.243,0-2.419,0.283-3.468,0.789c-1.492-2.523-4.244-4.215-7.389-4.215c-2.279,0-4.35,0.892-5.886,2.342
				c-1.273-2.73-4.045-4.626-7.257-4.626C216.717,147.157,213.135,150.736,213.135,155.151z"/>
		</g>
		<g>
			<path id="Ellipse" fill="#9EC0C2" d="M118.546,150.164c0-35.808,29.055-64.835,64.897-64.835
				c35.846,0,64.902,29.027,64.902,64.835c0,35.809-29.057,64.836-64.902,64.836C147.601,215,118.546,185.973,118.546,150.164z"/>
			<path fill="#4D8343" d="M127.818,123.701c-0.249,0.807-0.021,1.013,0,1.323c0.062,0.934-3.753,16.099-3.974,19.848
				s2.428,7.277,2.649,9.262c0.221,1.985,3.752,5.514,5.298,6.616s2.87,3.528,3.974,5.293c1.104,1.764,2.207-0.883,2.648-1.323
				c0.443-0.441-2.869-2.646-3.973-3.97s1.545-2.205,2.648-3.97c1.104-1.764-1.986,0-3.973,0c-1.987,0-1.767-1.984-2.65-5.292
				c-0.883-3.309,2.43-2.646,5.299-2.646c2.87,0,1.766,2.867,2.648,2.646c0.884-0.221,1.767-2.206,2.65-5.293
				c0.882-3.088,5.738-6.837,7.946-7.939c2.208-1.103,4.194-0.661,6.623-2.646c2.428-1.984-2.87-0.882-3.974-2.646
				c-1.104-1.764,4.637-1.764,6.622-1.322c1.985,0.44,2.206-2.206,2.646-3.97c0.441-1.765-3.971-2.426-3.971-3.97
				s1.545-1.103,1.324-2.646s-1.985,0.221-3.973,0s-0.662-1.984-1.325-2.646c-0.662-0.661-1.545,2.205-2.649,3.97
				c-1.104,1.765-1.987,5.072-3.974,5.293c-1.987,0.221-0.442-2.206,0-2.646c0.441-0.44-0.442-0.221,0-1.323
				c0.441-1.103-2.429-3.088-2.649-3.97c-0.22-0.882,3.312-5.072,3.974-5.292c0.662-0.221,4.857-1.765,5.298-1.324
				c0.441,0.441,2.649-2.646,2.649-2.646l-2.649-2.646l1.325-2.646l-3.974,2.646v-2.646l1.325-3.97c0,0-3.09-0.661-2.649,0
				c0.441,0.662-3.313,3.087-5.299,2.646c-1.538-0.342-0.296-3.593,0.648-5.451c-3.803,2.871-7.283,6.154-10.369,9.778
				c0.449,1.062,0.451,1.674,0.451,2.289c0,0.882-1.324,1.323-1.324,1.323S128.43,121.713,127.818,123.701z"/>
			<path fill="#4D8343" d="M134.962,124.891c-0.248,0.807-0.02,1.014,0,1.323c0.063,0.934-3.752,16.099-3.973,19.848
				s2.428,7.277,2.648,9.263c0.221,1.984,3.754,5.513,5.299,6.615c1.544,1.103,2.868,3.529,3.972,5.293
				c1.103,1.764,2.207-0.883,2.649-1.323c0.441-0.44-2.87-2.646-3.974-3.97c-1.103-1.323,1.544-2.205,2.648-3.97
				c1.104-1.764-1.986,0-3.972,0c-1.986,0-1.765-1.984-2.648-5.292c-0.884-3.309,2.428-2.646,5.296-2.646
				c2.87,0,1.766,2.867,2.649,2.646s1.766-2.206,2.648-5.293c0.883-3.088,5.742-6.837,7.948-7.939
				c2.206-1.102,4.192-0.661,6.619-2.646c2.428-1.984-2.868-0.882-3.973-2.646c-1.103-1.764,4.635-1.764,6.621-1.322
				c1.987,0.44,2.208-2.205,2.649-3.97s-3.974-2.426-3.974-3.97c0-1.543,1.545-1.103,1.324-2.646c-0.221-1.543-1.986,0.221-3.972,0
				c-1.986-0.221-0.662-1.984-1.324-2.646c-0.662-0.661-1.546,2.206-2.648,3.97c-1.103,1.765-1.985,5.072-3.971,5.293
				c-1.988,0.221-0.443-2.205,0-2.646c0.441-0.44-0.443-0.221,0-1.323c0.441-1.103-2.43-3.087-2.65-3.969
				c-0.221-0.883,3.313-5.072,3.974-5.293c0.662-0.221,4.854-1.765,5.296-1.323c0.44,0.44,2.647-2.646,2.647-2.646l-2.647-2.646
				l1.324-2.646l-3.973,2.646v-2.646l1.323-3.969c0,0-3.088-0.662-2.646,0c0.44,0.662-3.311,3.087-5.298,2.646
				c-1.54-0.342-0.298-3.592,0.648-5.451c-3.805,2.872-7.285,6.154-10.369,9.778c0.447,1.063,0.449,1.674,0.449,2.289
				c0,0.882-1.323,1.323-1.323,1.323S135.576,122.902,134.962,124.891z"/>
			<path fill="#4D8343" d="M159.604,103.854c0,0-2.482,1.406-2.647,1.323c-0.166-0.083,0.91,1.736,1.324,2.646
				c0.413,0.909-0.994,4.218-1.324,5.292c-0.332,1.076-0.579,3.557,0,3.97c0.579,0.414,0.827,1.902,1.324,1.323
				c0.495-0.578,0.992-3.639,1.323-3.969c0.331-0.331,1.655-5.789,1.323-5.293L159.604,103.854z"/>
			<path fill="#4D8343" d="M167.684,100.06c0.006-0.004-0.029-0.053-0.135-0.176C167.092,99.493,167.664,100.078,167.684,100.06z
				 M180.578,96.187c0.065,0.021,0.156-0.035,0.217-0.272C180.423,95.861,180.46,96.148,180.578,96.187z M168.873,98.561
				c-1.158-0.248-1.82,0.745-1.324,1.323c0.58,0.497,0.91,1.902,1.324,3.97s-0.165,5.458,0,7.939
				c0.166,2.48-1.324,5.292-2.648,6.615s0.496,3.143,2.648,2.646s3.063-3.474,5.299-5.293c2.234-1.818,5.795-4.631,7.947-6.615
				c2.152-1.985,2.648-8.353,2.648-9.263c0-0.909-0.91-3.143-2.648-3.969s-1.159-0.662-1.324,0c0.579,0.083-1.076,1.571-2.649,1.323
				c-1.573-0.248-0.828-2.232-2.649-2.646s-0.828,0.827-1.324,2.646c-0.497,1.819-0.332,0.662-1.324,1.323
				c-0.994,0.662-1.408-1.736-1.325-2.646s1.076-2.315-1.324-2.646c-2.401-0.331-0.993,0.497-2.649,1.323
				c-1.656,0.827-1.821,1.158-3.974,2.646c-2.151,1.489-3.31,1.571-3.972,2.646s0.166,1.075,0,1.323s2.234,0.496,2.648,0
				c0.412-0.496,2.648-2.398,2.648-2.646s2.814-1.405,2.648-1.323c-0.166,0.083,2.649,0,2.649,0S170.032,98.809,168.873,98.561z"/>
			<path fill="#4D8343" d="M182.688,116.671c-0.012,0.009,0.045,0.125,0.265,0.423C182.994,117.013,182.71,116.654,182.688,116.671z
				 M184.283,115.762c-0.826,0.197-1.336,1.33-1.33,1.332c0.643,0.869,0.771,1.563,1.33,1.314s0.725,0.931,1.324,0
				c0.601-0.93,1.76-0.6,1.325-1.323S185.152,115.556,184.283,115.762z"/>
			<path fill="#4D8343" d="M215.232,94.591c0.166,0.166-0.828-0.496-1.324,0c-0.496,0.497-0.166,2.812,0,2.646
				c0.166-0.165,2.98-0.248,2.648,0C216.227,97.486,215.066,94.426,215.232,94.591z"/>
			<path fill="#4D8343" d="M216.072,144.872c-0.036-0.019-0.081-0.016-0.133,0C216.1,144.929,216.177,144.924,216.072,144.872z
				 M213.424,146.195c1.18-0.074,2.096-1.196,2.516-1.323c-0.345-0.124-1.078-0.53-1.191-1.323c-0.166-1.158,0-1.323,0-1.323
				s0.082-1.406,1.324-1.323s1.159,1.571,2.649,2.646s2.483,0.744,3.974,1.323s1.986,1.901,1.324,2.646
				c-0.576,0.646-1.402,1.293-1.391,1.343c0.082-0.033,0.109-0.041,0.066-0.02s-0.064,0.027-0.066,0.02
				c-0.542,0.216-3.476,1.447-3.907,1.303c-0.497-0.165-1.325,0-1.325,0s-3.643-0.082-3.973,0c-0.332,0.083,0.33,0.744-1.324,1.324
				c-1.656,0.578-1.325,0-1.325,0s-3.146-2.068-3.974-2.646c-0.828-0.579-2.649-2.316-3.974-1.323
				c-1.325,0.992-4.884,3.804-6.623,3.97c-1.738,0.165-5.96,4.796-6.622,5.292s-3.313,10.751-2.649,13.231
				c0.662,2.481,6.706,4.88,9.271,5.293c2.566,0.414,7.533,1.406,9.272,3.97c1.738,2.563,0.993,18.441,1.324,19.848
				c0.331,1.405,0.579,5.541,2.648,3.97c2.07-1.571,5.381-5.541,6.623-6.616s8.278-11.743,9.271-14.555
				c0.994-2.812,4.305-5.624,5.299-6.616c0.993-0.992,4.223-4.962,2.648-6.615c-1.572-1.654-3.145,0.744-3.973,0
				c-0.828-0.745-1.904-3.309-2.649-3.97s-3.892-4.136-3.974-6.616c-0.083-2.48-1.573-5.127,0-5.293
				c1.572-0.165,1.904,0.496,2.648,1.323c0.746,0.827,1.987,8.436,2.65,9.263c0.486,0.607,2.045,2.067,2.576,2.566
				c-0.371-0.581,1.854-1.463,2.721-2.566c0.911-1.158,2.152-5.955,2.649-7.939s-0.083-2.977-1.324-2.646
				c-1.241,0.331-4.47,0.414-3.974-1.322c0.496-1.737,2.648-4.301,2.648-3.97s4.554,2.563,5.299,2.646
				c0.745,0.083,3.395,0.248,3.974,1.324c0.579,1.074,1.325,13.728,1.325,13.231c0-0.497,2.4-13.646,2.648-14.556
				c0.248-0.909,2.318-1.736,2.648-1.322c-0.406-20.105-9.982-37.966-24.715-49.586c-1.902-1.205-3.1-1.983-3.1-2.018
				c0-0.165-2.235,0.745-2.649,1.323c-0.414,0.579-1.159,4.797-1.325,5.293c-0.165,0.496,2.649-1.323,3.975,0
				c1.324,1.323,2.566,1.654,2.648,2.646c0.083,0.992-0.91,3.556-1.324,2.646c-0.414-0.91-2.152-2.316-2.649-2.646
				c-0.497-0.331-2.649,1.323-2.649,1.323c-0.827,0.248-1.655-0.496-1.324,0s-1.242,3.226-1.324,3.97
				c-0.083,0.744-1.324,2.646-1.324,2.646c-1.076-0.91-1.739-3.309-1.324-3.97c0.413-0.662-2.98-1.819-5.299-1.323
				s-5.299,2.646-5.299,2.646v2.646c0,0-0.082,0.992-1.324,2.646c-1.242,1.654-1.324,2.646-1.324,2.646s-2.07-2.895-1.324,0
				c0.744,2.895,3.973,5.376,5.298,5.293c1.324-0.083,2.566-4.3,2.649-5.293c0.082-0.992,1.076-5.623,1.324-5.292
				c0.248,0.33,1.324,2.066,1.324,2.646s2.484,1.985,2.649,2.646c0.165,0.662,0.331,4.218,0,3.97s-1.076,1.819-1.325,2.646
				c-0.248,0.827-3.229,2.315-3.973,2.646c-0.746,0.33-7.451,0.413-7.947,2.646c-0.497,2.232-2.318,3.473-2.649,5.292
				s1.655,3.309,1.324,3.97c-0.331,0.662-3.726-0.413-3.974,1.323c-0.248,1.737-2.152,2.067,0,3.97s3.726,4.549,5.299,1.323
				c1.572-3.226,1.324-6.12,3.973-6.616c2.649-0.496,2.566-1.075,3.975,0c1.406,1.075,2.648,3.557,3.973,3.97
				c1.325,0.413,0.414-1.654,0-2.646s-1.738-3.556-1.324-3.97c0.414-0.413,1.904,1.158,2.649,1.323S212.1,146.277,213.424,146.195z"
				/>
			<path fill="#4D8343" d="M192.715,125.024c-0.289,0.248-3.27,1.447-2.648,1.323s0.828,0.992,1.324,1.323s3.063,0.454,2.649,0
				C193.626,127.216,193.005,124.776,192.715,125.024z"/>
			<path fill="#4D8343" d="M142.387,160.75c0,0,0.616-2.083,0-2.646c-0.617-0.563-2.648-1.323-2.648-1.323v1.323l1.325,1.323
				L142.387,160.75z"/>
			<path fill="#4D8343" d="M146.36,168.689c-0.511-0.389-4.131,0.649-3.973,1.322c0.156,0.674,0.026,2.587,0,3.97
				c-0.027,1.384-3.159,2.886-2.648,3.97c0.511,1.084,1.481,5.817,2.648,6.616c1.166,0.798,8.466,8.353,9.271,10.585
				s1.83,6.031,2.649,7.939c0.818,1.908,5.72,5.543,6.619,6.615c0.35,0.417,1.143,1.214,2.013,1.992
				c0.844,0.28,1.697,0.547,2.557,0.793c-1.505-1.51-4.69-3.847-4.569-4.107c0.166-0.357-1.542-2.995,0-3.97
				c1.544-0.976,3.188-3.464,3.974-5.293c0.783-1.829-1.718-3.633,1.324-3.97c3.041-0.337,3.527-7.361,3.974-9.262
				c0.446-1.901-7.783-4.647-9.271-5.293c-1.485-0.646-8.052-6.241-9.269-7.939C150.441,170.961,146.87,169.078,146.36,168.689z"/>
			<path fill="#4D8343" d="M154.308,97.237c0.411-0.012-1.097-1.115-1.325,0c-0.229,1.116-0.565,2.675,0,2.646
				c0.567-0.027,3.145,0.821,2.649,0C155.137,99.063,153.897,97.25,154.308,97.237z"/>
			<path fill="#4D8343" d="M221.855,193.829c0.021,0.001,0.049-0.006,0.08-0.026C221.629,193.802,221.592,193.812,221.855,193.829z
				 M225.829,188.537c-0.416-0.321-3.231,4.835-3.894,5.266c0.244,0.001,0.664,0.008,1.244,0.026c1.306,0.044,4.068-4.05,3.975-3.97
				c-0.096,0.08,1.834-4.389,1.324-3.969C227.968,186.311,226.264,188.873,225.829,188.537z"/>
			<path fill="#4D8343" d="M145.035,163.396c-0.051-0.07,1.02-0.063,1.285-0.026c-0.01-0.16,0.402-0.908,0.04-1.297
				c-0.42-0.451-1.239-0.128-1.325,0C144.95,162.201,145.096,163.481,145.035,163.396z"/>
		</g>
		<path fill="#FFFFFF" d="M193.315,157.573c1.165,0,2.111,0.949,2.111,2.116s-0.946,2.116-2.111,2.116s-2.112-0.949-2.112-2.116
			S192.15,157.573,193.315,157.573L193.315,157.573z M193.315,155.114c-2.522,0-4.565,2.048-4.565,4.575s2.043,4.575,4.565,4.575
			c2.521,0,4.565-2.048,4.565-4.575S195.836,155.114,193.315,155.114L193.315,155.114z"/>
		<path fill="#FFFFFF" d="M158.312,179.826c1.164,0,2.11,0.949,2.11,2.116s-0.946,2.116-2.11,2.116s-2.11-0.949-2.11-2.116
			S157.147,179.826,158.312,179.826L158.312,179.826z M158.312,177.367c-2.521,0-4.563,2.049-4.563,4.575
			c0,2.527,2.043,4.575,4.563,4.575c2.52,0,4.562-2.048,4.562-4.575C162.873,179.416,160.831,177.367,158.312,177.367
			L158.312,177.367z"/>
		<path fill="#FFFFFF" d="M141.516,138.504c1.165,0,2.11,0.949,2.11,2.116s-0.946,2.117-2.11,2.117c-1.163,0-2.11-0.95-2.11-2.117
			S140.353,138.504,141.516,138.504L141.516,138.504z M141.516,136.045c-2.52,0-4.564,2.049-4.564,4.575
			c0,2.527,2.044,4.575,4.564,4.575c2.521,0,4.564-2.048,4.564-4.575C146.081,138.094,144.037,136.045,141.516,136.045
			L141.516,136.045z"/>
		<path fill="#FFFFFF" d="M137.44,139.012l1.664-1.808l-22.349-31.679l-35.05,0v2.46l34.091-0.001L137.44,139.012z"/>
		<path fill="#FFFFFF" d="M236.191,62.525H81.705v2.46l154.528-0.001L236.191,62.525z"/>
		<path fill="#FFFFFF" d="M108.781,119.995l-27.441,0.003v2.459l26.468-0.003l29.125,59.14h17.548v-2.459h-16.575L108.781,119.995z"
			/>
		<path fill="#FFFFFF" d="M136.046,75.324L81.34,75.327v2.46l53.734-0.004l37.457,82.397h17.548v-2.459h-16.574L136.046,75.324z"/>
		<path fill="#FFFFFF" d="M223.563,123.003c1.165,0,2.111,0.949,2.111,2.116s-0.946,2.117-2.111,2.117
			c-1.164,0-2.111-0.95-2.111-2.117S222.398,123.003,223.563,123.003L223.563,123.003z M223.563,120.544
			c-2.521,0-4.565,2.048-4.565,4.575s2.044,4.576,4.565,4.576s4.564-2.049,4.564-4.576S226.084,120.544,223.563,120.544
			L223.563,120.544z"/>
		<path fill="#FFFFFF" d="M239.563,62.003c1.165,0,2.111,0.949,2.111,2.116s-0.946,2.117-2.111,2.117
			c-1.164,0-2.111-0.95-2.111-2.117S238.398,62.003,239.563,62.003L239.563,62.003z M239.563,59.544
			c-2.521,0-4.565,2.048-4.565,4.575c0,2.527,2.044,4.576,4.565,4.576s4.564-2.048,4.564-4.576
			C244.127,61.592,242.084,59.544,239.563,59.544L239.563,59.544z"/>
		<path fill="#FFFFFF" d="M165.813,90.79L81.34,90.792v2.459l83.501-0.003l21.481,32.019h34.346v-2.458h-33.373L165.813,90.79z"/>
		<g>
			<path fill="#EDEDED" d="M189.309,181.683c0,1.632,0.393,3.173,1.088,4.529c-3.425,1.811-5.762,5.429-5.762,9.596
				c0,5.98,4.813,10.829,10.748,10.829c1.917,0,3.715-0.504,5.272-1.389c1.872,2.557,4.886,4.213,8.281,4.213
				c3.603,0,6.772-1.864,8.608-4.689c1.705,3.345,5.162,5.632,9.151,5.632c3.792,0,7.106-2.067,8.89-5.146
				c1.51,0.878,3.262,1.38,5.131,1.38c5.679,0,10.281-4.638,10.281-10.358s-4.603-10.358-10.281-10.358
				c-3.793,0-7.107,2.067-8.889,5.146c-1.511-0.879-3.263-1.38-5.132-1.38c-3.603,0-6.772,1.864-8.608,4.689
				c-1.705-3.345-5.162-5.631-9.151-5.631c-1.321,0-2.587,0.252-3.748,0.711c2.282-1.811,3.748-4.62,3.748-7.773
				c0-5.461-4.394-9.888-9.814-9.888C193.702,171.795,189.309,176.222,189.309,181.683z"/>
			<path fill="#FFFFFF" d="M250.914,189.687h0.084c3.098,0,5.609-2.529,5.609-5.65c0-3.12-2.512-5.649-5.609-5.649
				c-1.951,0-3.668,1.004-4.674,2.528v-0.175c0-4.42-3.557-8.004-7.944-8.004c-3.04,0-5.685,1.72-7.02,4.247
				c-0.249-7.588-6.635-13.663-14.479-13.663c-6.312,0-11.679,3.936-13.665,9.426l-0.355-0.01c-4.389,0-7.945,3.584-7.945,8.004
				c0,1.057,0.201,2.066,0.57,2.99c-4.148,1.501-7.113,5.498-7.113,10.193c0,5.98,4.813,10.829,10.749,10.829
				c1.798,0,3.493-0.443,4.982-1.229c1.882,1.911,4.604,3.112,7.636,3.112c2.702,0,5.162-0.954,6.997-2.515
				c1.886,2.11,4.749,3.456,7.959,3.456l0.491-0.01l0.443,0.01c2.943,0,5.572-1.371,7.286-3.513c1.692,1.033,3.677,1.63,5.8,1.63
				c6.195,0,11.217-5.06,11.217-11.301C251.934,192.714,251.568,191.119,250.914,189.687z"/>
			<path fill="#EDEDED" d="M205.197,182.153l0.006,0.24c0.12-3.273,2.791-5.891,6.07-5.891c2.527,0,4.693,1.556,5.608,3.767
				c0.153,0.371,0.271,0.76,0.351,1.163c0.227-0.394,0.498-0.757,0.804-1.087c1.11-1.205,2.694-1.959,4.454-1.959
				c2.225,0,4.17,1.207,5.229,3.004c0.192,0.327,0.355,0.673,0.485,1.035c0.255-0.19,0.526-0.362,0.809-0.513
				c0.844-0.448,1.803-0.702,2.823-0.702c3.278,0,5.95,2.617,6.071,5.891l0.004-0.24c0-3.641-2.929-6.592-6.543-6.592
				c-1.016,0-1.979,0.233-2.836,0.65c-1.221-2.08-3.471-3.475-6.043-3.475c-1.864,0-3.559,0.734-4.814,1.93
				c-1.041-2.25-3.308-3.813-5.936-3.813C208.127,175.562,205.197,178.513,205.197,182.153z"/>
		</g>
	</g>
</g>
<path fill="none" d="z"/>
</svg>
