<?xml version="1.0" standalone="no"?><!-- Generator: Adobe Fireworks CS6, Export SVG Extension by Aaron Beall (http://fireworks.abeall.com) . Version: 0.6.1  --><!DOCTYPE svg PUBLIC "-//W3C//DTD SVG 1.1//EN" "http://www.w3.org/Graphics/SVG/1.1/DTD/svg11.dtd"><svg id="Untitled-Page%201" viewBox="0 0 1110 210" style="background-color:#ffffff00" version="1.1"	xmlns="http://www.w3.org/2000/svg" xmlns:xlink="http://www.w3.org/1999/xlink" xml:space="preserve"	x="0px" y="0px" width="1110px" height="210px">	<g id="Layer%201">		<g opacity="0.0706">			<path d="M 631.9973 173.915 L 512.4697 188.3701 L 512.5762 189.3604 L 632.1036 174.9053 L 631.9973 173.915 Z" fill="#000000"/>			<path d="M 476.5613 133.6685 L 475.7694 134.2051 L 510.3097 191.5391 L 511.1016 191.0024 L 476.5613 133.6685 Z" fill="#000000"/>			<path d="M 647.3261 62.1689 L 477.8059 135.4028 L 478.1601 136.3252 L 647.6802 63.0908 L 647.3261 62.1689 Z" fill="#000000"/>			<path d="M 510.8963 190.5117 L 408.1483 179.6621 L 408.5026 180.584 L 511.2504 191.4331 L 510.8963 190.5117 Z" fill="#000000"/>			<path d="M 227.2922 152.5986 L 132.756 162.6963 L 133.1102 163.6187 L 227.6464 153.5205 L 227.2922 152.5986 Z" fill="#000000"/>			<path d="M 648.1032 62.2549 L 510.8507 189.4521 L 511.4691 190.2012 L 648.7218 63.0039 L 648.1032 62.2549 Z" fill="#000000"/>			<path d="M 647.4913 62.5645 L 633.403 176.2705 L 634.3351 176.4004 L 648.4235 62.6948 L 647.4913 62.5645 Z" fill="#000000"/>			<path d="M 647.2599 62.1816 L 646.8397 63.0732 L 706.8303 94.8721 L 707.2504 93.9805 L 647.2599 62.1816 Z" fill="#000000"/>			<path d="M 705.3419 95.041 L 630.3539 175.9844 L 631.0237 176.6826 L 706.0118 95.7393 L 705.3419 95.041 Z" fill="#000000"/>			<path d="M 705.7172 93.7104 L 675.7211 153.4541 L 676.5504 153.9229 L 706.5466 94.1797 L 705.7172 93.7104 Z" fill="#000000"/>			<path d="M 677.0169 153.0854 L 633.4052 175.3174 L 634.2346 175.7861 L 677.8464 153.5547 L 677.0169 153.0854 Z" fill="#000000"/>			<path d="M 844.621 104.0615 L 673.2831 153.6865 L 673.5308 154.6475 L 844.8687 105.0225 L 844.621 104.0615 Z" fill="#000000"/>			<path d="M 843.0762 106.5645 L 843.0842 107.5576 L 994.9199 87.9385 L 994.9119 86.9453 L 843.0762 106.5645 Z" fill="#000000"/>			<path d="M 779.4894 75.1768 L 779.1113 76.0894 L 843.1931 105.9609 L 843.5712 105.0488 L 779.4894 75.1768 Z" fill="#000000"/>			<path d="M 780.1033 75.1475 L 704.205 93.938 L 704.4178 94.9092 L 780.316 76.1182 L 780.1033 75.1475 Z" fill="#000000"/>			<path d="M 926.3025 48.2285 L 841.77 104.1177 L 842.2673 104.9619 L 926.7999 49.0723 L 926.3025 48.2285 Z" fill="#000000"/>			<path d="M 926.308 49.1699 L 925.886 50.0591 L 996.3302 87.6396 L 996.7523 86.7505 L 926.308 49.1699 Z" fill="#000000"/>			<path d="M 995.9255 85.8428 L 995.3384 86.6191 L 1045.7852 129.5 L 1046.3723 128.7241 L 995.9255 85.8428 Z" fill="#000000"/>			<path d="M 995.2108 87.6611 L 995.1447 88.6553 L 1058.7715 93.4736 L 1058.8374 92.48 L 995.2108 87.6611 Z" fill="#000000"/>			<path d="M 1058.3723 90.8545 L 1042.9196 129.3989 L 1043.7839 129.7881 L 1059.2366 91.2432 L 1058.3723 90.8545 Z" fill="#000000"/>			<path d="M 1059.4641 91.5645 L 1059.0531 92.4614 L 1106.7738 117.0337 L 1107.1849 116.1367 L 1059.4641 91.5645 Z" fill="#000000"/>			<path d="M 1105.9874 116.0947 L 1045.0876 127.6582 L 1045.2529 128.6387 L 1106.1526 117.0757 L 1105.9874 116.0947 Z" fill="#000000"/>			<path d="M 492.2994 100.1841 L 476.6255 134.7744 L 477.4724 135.2065 L 493.1462 100.6162 L 492.2994 100.1841 Z" fill="#000000"/>			<path d="M 559.1624 83.2959 L 491.6676 98.2168 L 491.8593 99.1914 L 559.3541 84.271 L 559.1624 83.2959 Z" fill="#000000"/>			<path d="M 648.3887 62.0088 L 557.5621 81.9307 L 557.752 82.9053 L 648.5794 62.9834 L 648.3887 62.0088 Z" fill="#000000"/>			<path d="M 630.1282 3.873 L 629.2565 4.2451 L 649.9274 58.6978 L 650.7991 58.3262 L 630.1282 3.873 Z" fill="#000000"/>			<path d="M 631.8697 5.0313 L 557.9553 81.3965 L 558.6113 82.1104 L 632.5248 5.7451 L 631.8697 5.0313 Z" fill="#000000"/>			<path d="M 631.4854 4.8984 L 516.8557 27.4756 L 517.0273 28.4546 L 631.6577 5.8774 L 631.4854 4.8984 Z" fill="#000000"/>			<path d="M 516.0555 26.9902 L 515.3224 27.6133 L 558.5433 84.7217 L 559.2766 84.0986 L 516.0555 26.9902 Z" fill="#000000"/>			<path d="M 516.6951 29.5332 L 413.9673 96.6035 L 414.46 97.4517 L 517.1878 30.3813 L 516.6951 29.5332 Z" fill="#000000"/>			<path d="M 412.9749 95.8652 L 412.9465 96.8613 L 495.004 99.5176 L 495.0323 98.5215 L 412.9749 95.8652 Z" fill="#000000"/>			<path d="M 411.3022 95.9233 L 410.8608 96.8027 L 479.1374 135.3184 L 479.5787 134.439 L 411.3022 95.9233 Z" fill="#000000"/>			<path d="M 413.1172 93.0313 L 411.238 179.3579 L 412.1776 179.3809 L 414.0566 93.0547 L 413.1172 93.0313 Z" fill="#000000"/>			<path d="M 474.78 135.8965 L 414.251 178.4053 L 415.1906 178.4277 L 475.7195 135.9199 L 474.78 135.8965 Z" fill="#000000"/>			<path d="M 413.152 97.5029 L 377.4478 190.4702 L 378.3176 190.8457 L 414.0219 97.8789 L 413.152 97.5029 Z" fill="#000000"/>			<path d="M 347.3516 71.3247 L 347.0277 72.2607 L 415.3042 98.8232 L 415.6282 97.8877 L 347.3516 71.3247 Z" fill="#000000"/>			<path d="M 345.1338 68.9922 L 344.2346 69.2803 L 378.0598 188.1465 L 378.959 187.8584 L 345.1338 68.9922 Z" fill="#000000"/>			<path d="M 347.9976 73.625 L 333.5905 118.7808 L 334.4805 119.0996 L 348.8877 73.9443 L 347.9976 73.625 Z" fill="#000000"/>			<path d="M 249.4786 71.959 L 249.4667 72.9551 L 346.5574 74.2832 L 346.5693 73.2871 L 249.4786 71.959 Z" fill="#000000"/>			<path d="M 250.9408 73.3423 L 250.5105 74.2275 L 334.4465 120.0474 L 334.877 119.1621 L 250.9408 73.3423 Z" fill="#000000"/>			<path d="M 252.3015 74.752 L 251.6545 75.4736 L 312.4148 136.5674 L 313.0618 135.8457 L 252.3015 74.752 Z" fill="#000000"/>			<path d="M 311.6455 136.8076 L 307.8871 168.6821 L 308.8193 168.8066 L 312.5776 136.9316 L 311.6455 136.8076 Z" fill="#000000"/>			<path d="M 331.2019 143.1533 L 306.146 169.0518 L 306.802 169.7656 L 331.8579 143.8677 L 331.2019 143.1533 Z" fill="#000000"/>			<path d="M 312.9016 135.7393 L 312.575 136.6733 L 329.4875 143.313 L 329.8142 142.3794 L 312.9016 135.7393 Z" fill="#000000"/>			<path d="M 329.6921 144.3423 L 329.6096 145.3345 L 350.9067 147.3267 L 350.9893 146.3345 L 329.6921 144.3423 Z" fill="#000000"/>			<path d="M 351.3297 148.5332 L 350.5662 149.1123 L 377.501 188.9561 L 378.2644 188.376 L 351.3297 148.5332 Z" fill="#000000"/>			<path d="M 413.4788 178.8853 L 376.522 188.1816 L 376.7385 189.1504 L 413.6953 179.8535 L 413.4788 178.8853 Z" fill="#000000"/>			<path d="M 198.9624 101.2393 L 198.5073 102.1113 L 309.3787 167.188 L 309.8337 166.3164 L 198.9624 101.2393 Z" fill="#000000"/>			<path d="M 246.7415 74.6758 L 201.0146 101.2383 L 201.4661 102.1123 L 247.1929 75.5493 L 246.7415 74.6758 Z" fill="#000000"/>			<path d="M 148.2184 106.7148 L 147.7761 107.5942 L 225.292 151.4219 L 225.7344 150.5425 L 148.2184 106.7148 Z" fill="#000000"/>			<path d="M 200.1136 101.1792 L 150.3154 104.6655 L 150.377 105.6592 L 200.175 102.1729 L 200.1136 101.1792 Z" fill="#000000"/>			<path d="M 200.0892 101.9395 L 199.2598 102.4087 L 226.5078 156.6953 L 227.3373 156.2261 L 200.0892 101.9395 Z" fill="#000000"/>			<path d="M 104.5005 82.7954 L 104.1124 83.7021 L 149.6824 105.6157 L 150.0706 104.709 L 104.5005 82.7954 Z" fill="#000000"/>			<path d="M 79.5281 148.0107 L 79.2867 148.9736 L 130.4943 163.4165 L 130.7356 162.4536 L 79.5281 148.0107 Z" fill="#000000"/>			<path d="M 223.2083 151.0039 L 222.967 151.9668 L 309.8115 168.7412 L 310.053 167.7783 L 223.2083 151.0039 Z" fill="#000000"/>			<path d="M 106.6243 82.5713 L 105.7471 82.9297 L 133.9347 160.624 L 134.8119 160.2656 L 106.6243 82.5713 Z" fill="#000000"/>			<path d="M 102.925 84.0742 L 79.9053 151.3101 L 80.7888 151.6504 L 103.8087 84.415 L 102.925 84.0742 Z" fill="#000000"/>			<path d="M 105.8297 81.4297 L 73.8837 120.7749 L 74.5958 121.4248 L 106.5417 82.0796 L 105.8297 81.4297 Z" fill="#000000"/>			<path d="M 71.8972 124.5034 L 59.2128 204.6875 L 60.1395 204.8535 L 72.8239 124.6689 L 71.8972 124.5034 Z" fill="#000000"/>			<path d="M 70.8228 125.1035 L 6.4611 144.5273 L 6.7179 145.4844 L 71.0796 126.0605 L 70.8228 125.1035 Z" fill="#000000"/>			<path d="M 7.8687 147.1514 L 7.1896 147.8398 L 58.397 204.6172 L 59.076 203.9277 L 7.8687 147.1514 Z" fill="#000000"/>			<path d="M 79.913 148.3013 L 58.3026 203.584 L 59.1705 203.9648 L 80.781 148.6826 L 79.913 148.3013 Z" fill="#000000"/>			<path d="M 64.6962 204.9468 C 64.6962 202.1558 62.5619 199.8921 59.9288 199.8921 C 57.2959 199.8921 55.1617 202.1558 55.1617 204.9468 C 55.1617 207.7363 57.2959 210 59.9288 210 C 62.5619 210 64.6962 207.7363 64.6962 204.9468 Z" fill="#000000"/>			<path d="M 137.8884 163.0049 C 137.8884 160.2144 135.7543 157.9512 133.1212 157.9512 C 130.4883 157.9512 128.354 160.2144 128.354 163.0049 C 128.354 165.7949 130.4883 168.0586 133.1212 168.0586 C 135.7543 168.0586 137.8884 165.7949 137.8884 163.0049 Z" fill="#000000"/>			<path d="M 84.2705 149.4648 C 84.2705 146.6738 82.1364 144.4102 79.5033 144.4102 C 76.8704 144.4102 74.7361 146.6738 74.7361 149.4648 C 74.7361 152.2549 76.8704 154.5181 79.5033 154.5181 C 82.1364 154.5181 84.2705 152.2549 84.2705 149.4648 Z" fill="#000000"/>			<path d="M 77.6453 123.335 C 77.6453 120.5444 75.511 118.2808 72.8782 118.2808 C 70.2451 118.2808 68.1108 120.5444 68.1108 123.335 C 68.1108 126.125 70.2451 128.3887 72.8782 128.3887 C 75.511 128.3887 77.6453 126.125 77.6453 123.335 Z" fill="#000000"/>			<path d="M 9.5344 145.5313 C 9.5344 142.7402 7.4001 140.4766 4.7672 140.4766 C 2.1343 140.4766 0 142.7402 0 145.5313 C 0 148.3208 2.1343 150.584 4.7672 150.584 C 7.4001 150.584 9.5344 148.3208 9.5344 145.5313 Z" fill="#000000"/>			<path d="M 109.4476 82.5967 C 109.4476 79.8062 107.3134 77.543 104.6804 77.543 C 102.0475 77.543 99.9132 79.8062 99.9132 82.5967 C 99.9132 85.3867 102.0475 87.6504 104.6804 87.6504 C 107.3134 87.6504 109.4476 85.3867 109.4476 82.5967 Z" fill="#000000"/>			<path d="M 156.6216 107.04 C 156.6216 104.249 154.4873 101.9854 151.8542 101.9854 C 149.2213 101.9854 147.087 104.249 147.087 107.04 C 147.087 109.8296 149.2213 112.0933 151.8542 112.0933 C 154.4873 112.0933 156.6216 109.8296 156.6216 107.04 Z" fill="#000000"/>			<path d="M 204.8557 101.4199 C 204.8557 98.6299 202.7214 96.3662 200.0884 96.3662 C 197.4553 96.3662 195.321 98.6299 195.321 101.4199 C 195.321 104.21 197.4553 106.4736 200.0884 106.4736 C 202.7214 106.4736 204.8557 104.21 204.8557 101.4199 Z" fill="#000000"/>			<path d="M 231.8884 153.3994 C 231.8884 150.6084 229.7542 148.3452 227.1212 148.3452 C 224.4883 148.3452 222.354 150.6084 222.354 153.3994 C 222.354 156.1895 224.4883 158.4526 227.1212 158.4526 C 229.7542 158.4526 231.8884 156.1895 231.8884 153.3994 Z" fill="#000000"/>			<path d="M 254.415 74.7314 C 254.415 71.9404 252.2809 69.6768 249.6479 69.6768 C 247.0149 69.6768 244.8806 71.9404 244.8806 74.7314 C 244.8806 77.5215 247.0149 79.7847 249.6479 79.7847 C 252.2809 79.7847 254.415 77.5215 254.415 74.7314 Z" fill="#000000"/>			<path d="M 317.4908 136.8232 C 317.4908 134.0322 315.3566 131.7686 312.7236 131.7686 C 310.0906 131.7686 307.9563 134.0322 307.9563 136.8232 C 307.9563 139.6128 310.0906 141.8765 312.7236 141.8765 C 315.3566 141.8765 317.4908 139.6128 317.4908 136.8232 Z" fill="#000000"/>			<path d="M 337.3676 143.0039 C 337.3676 140.2129 335.2333 137.9492 332.6003 137.9492 C 329.9674 137.9492 327.8333 140.2129 327.8333 143.0039 C 327.8333 145.7939 329.9674 148.0571 332.6003 148.0571 C 335.2333 148.0571 337.3676 145.7939 337.3676 143.0039 Z" fill="#000000"/>			<path d="M 340.0175 119.4033 C 340.0175 116.6123 337.8832 114.3486 335.2502 114.3486 C 332.6173 114.3486 330.483 116.6123 330.483 119.4033 C 330.483 122.1934 332.6173 124.4565 335.2502 124.4565 C 337.8832 124.4565 340.0175 122.1934 340.0175 119.4033 Z" fill="#000000"/>			<path d="M 352.2087 72.7646 C 352.2087 69.9736 350.0745 67.71 347.4415 67.71 C 344.8086 67.71 342.6743 69.9736 342.6743 72.7646 C 342.6743 75.5542 344.8086 77.8179 347.4415 77.8179 C 350.0745 77.8179 352.2087 75.5542 352.2087 72.7646 Z" fill="#000000"/>			<path d="M 356.4492 147.7803 C 356.4492 144.9893 354.3149 142.7256 351.6821 142.7256 C 349.0491 142.7256 346.9148 144.9893 346.9148 147.7803 C 346.9148 150.5698 349.0491 152.833 351.6821 152.833 C 354.3149 152.833 356.4492 150.5698 356.4492 147.7803 Z" fill="#000000"/>			<path d="M 314.0454 168.5713 C 314.0454 165.7803 311.9111 163.5166 309.2782 163.5166 C 306.6451 163.5166 304.5109 165.7803 304.5109 168.5713 C 304.5109 171.3608 306.6451 173.6245 309.2782 173.6245 C 311.9111 173.6245 314.0454 171.3608 314.0454 168.5713 Z" fill="#000000"/>			<path d="M 381.0964 187.957 C 381.0964 185.166 378.9622 182.9023 376.3292 182.9023 C 373.6963 182.9023 371.562 185.166 371.562 187.957 C 371.562 190.7466 373.6963 193.0098 376.3292 193.0098 C 378.9622 193.0098 381.0964 190.7466 381.0964 187.957 Z" fill="#000000"/>			<path d="M 415.0193 178.9668 C 415.0193 176.1758 412.885 173.9121 410.2521 173.9121 C 407.6191 173.9121 405.4849 176.1758 405.4849 178.9668 C 405.4849 181.7563 407.6191 184.02 410.2521 184.02 C 412.885 184.02 415.0193 181.7563 415.0193 178.9668 Z" fill="#000000"/>			<path d="M 418.1996 96.646 C 418.1996 93.8555 416.0653 91.5918 413.4324 91.5918 C 410.7993 91.5918 408.665 93.8555 408.665 96.646 C 408.665 99.436 410.7993 101.6992 413.4324 101.6992 C 416.0653 101.6992 418.1996 99.436 418.1996 96.646 Z" fill="#000000"/>			<path d="M 482.8654 135.1372 C 482.8654 132.3467 480.7311 130.083 478.0982 130.083 C 475.4653 130.083 473.331 132.3467 473.331 135.1372 C 473.331 137.9268 475.4653 140.1904 478.0982 140.1904 C 480.7311 140.1904 482.8654 137.9268 482.8654 135.1372 Z" fill="#000000"/>			<path d="M 497.1767 99.1748 C 497.1767 96.3848 495.0425 94.1211 492.4095 94.1211 C 489.7765 94.1211 487.6422 96.3848 487.6422 99.1748 C 487.6422 101.9648 489.7765 104.2285 492.4095 104.2285 C 495.0425 104.2285 497.1767 101.9648 497.1767 99.1748 Z" fill="#000000"/>			<path d="M 564.2277 82.5986 C 564.2277 79.8081 562.0934 77.5444 559.4604 77.5444 C 556.8275 77.5444 554.6932 79.8081 554.6932 82.5986 C 554.6932 85.3887 556.8275 87.6523 559.4604 87.6523 C 562.0934 87.6523 564.2277 85.3887 564.2277 82.5986 Z" fill="#000000"/>			<path d="M 637.6999 174.8086 C 637.6999 172.0176 635.5656 169.7539 632.9323 169.7539 C 630.2988 169.7539 628.1646 172.0176 628.1646 174.8086 C 628.1646 177.5981 630.2988 179.8613 632.9323 179.8613 C 635.5656 179.8613 637.6999 177.5981 637.6999 174.8086 Z" fill="#000000"/>			<path d="M 680.2749 154.5352 C 680.2749 151.7451 678.1407 149.4814 675.5073 149.4814 C 672.8739 149.4814 670.7396 151.7451 670.7396 154.5352 C 670.7396 157.3252 672.8739 159.5889 675.5073 159.5889 C 678.1407 159.5889 680.2749 157.3252 680.2749 154.5352 Z" fill="#000000"/>			<path d="M 711.6649 94.4829 C 711.6649 91.6919 709.5306 89.4282 706.8972 89.4282 C 704.2638 89.4282 702.1295 91.6919 702.1295 94.4829 C 702.1295 97.2725 704.2638 99.5361 706.8972 99.5361 C 709.5306 99.5361 711.6649 97.2725 711.6649 94.4829 Z" fill="#000000"/>			<path d="M 785.6317 75.7393 C 785.6317 72.9482 783.4974 70.6846 780.8639 70.6846 C 778.2305 70.6846 776.0963 72.9482 776.0963 75.7393 C 776.0963 78.5288 778.2305 80.7925 780.8639 80.7925 C 783.4974 80.7925 785.6317 78.5288 785.6317 75.7393 Z" fill="#000000"/>			<path d="M 846.2478 104.0449 C 846.2478 101.2539 844.1135 98.9902 841.48 98.9902 C 838.8466 98.9902 836.7124 101.2539 836.7124 104.0449 C 836.7124 106.8345 838.8466 109.0981 841.48 109.0981 C 844.1135 109.0981 846.2478 106.8345 846.2478 104.0449 Z" fill="#000000"/>			<path d="M 515.9353 190.791 C 515.9353 188.001 513.801 185.7373 511.1677 185.7373 C 508.5342 185.7373 506.4 188.001 506.4 190.791 C 506.4 193.5811 508.5342 195.8447 511.1677 195.8447 C 513.801 195.8447 515.9353 193.5811 515.9353 190.791 Z" fill="#000000"/>			<path d="M 932.1208 48.5811 C 932.1208 45.7905 929.9866 43.5269 927.3532 43.5269 C 924.7198 43.5269 922.5856 45.7905 922.5856 48.5811 C 922.5856 51.3711 924.7198 53.6348 927.3532 53.6348 C 929.9866 53.6348 932.1208 51.3711 932.1208 48.5811 Z" fill="#000000"/>			<path d="M 1000.3132 85.6836 C 1000.3132 82.8926 998.179 80.6289 995.5457 80.6289 C 992.9122 80.6289 990.7781 82.8926 990.7781 85.6836 C 990.7781 88.4731 992.9122 90.7368 995.5457 90.7368 C 998.179 90.7368 1000.3132 88.4731 1000.3132 85.6836 Z" fill="#000000"/>			<path d="M 1048.6616 127.377 C 1048.6616 124.5859 1046.5273 122.3223 1043.894 122.3223 C 1041.2606 122.3223 1039.1263 124.5859 1039.1263 127.377 C 1039.1263 130.1665 1041.2606 132.4302 1043.894 132.4302 C 1046.5273 132.4302 1048.6616 130.1665 1048.6616 127.377 Z" fill="#000000"/>			<path d="M 1110 116.2847 C 1110 113.4941 1107.8657 111.2305 1105.2324 111.2305 C 1102.599 111.2305 1100.4647 113.4941 1100.4647 116.2847 C 1100.4647 119.0742 1102.599 121.3379 1105.2324 121.3379 C 1107.8657 121.3379 1110 119.0742 1110 116.2847 Z" fill="#000000"/>			<path d="M 1063.094 91.4219 C 1063.094 88.6309 1060.9597 86.3672 1058.3264 86.3672 C 1055.693 86.3672 1053.5588 88.6309 1053.5588 91.4219 C 1053.5588 94.2109 1055.693 96.4746 1058.3264 96.4746 C 1060.9597 96.4746 1063.094 94.2109 1063.094 91.4219 Z" fill="#000000"/>			<path d="M 634.7233 5.0542 C 634.7233 2.2637 632.5891 0 629.9565 0 C 627.3241 0 625.1898 2.2637 625.1898 5.0542 C 625.1898 7.8442 627.3241 10.1074 629.9565 10.1074 C 632.5891 10.1074 634.7233 7.8442 634.7233 5.0542 Z" fill="#000000"/>			<path d="M 653.0105 62.0889 C 653.0105 59.2979 650.8762 57.0342 648.2437 57.0342 C 645.6111 57.0342 643.4769 59.2979 643.4769 62.0889 C 643.4769 64.8784 645.6111 67.1421 648.2437 67.1421 C 650.8762 67.1421 653.0105 64.8784 653.0105 62.0889 Z" fill="#000000"/>			<path d="M 521.2944 29.7793 C 521.2944 26.9883 519.1602 24.7251 516.5273 24.7251 C 513.8942 24.7251 511.7599 26.9883 511.7599 29.7793 C 511.7599 32.5693 513.8942 34.8325 516.5273 34.8325 C 519.1602 34.8325 521.2944 32.5693 521.2944 29.7793 Z" fill="#000000"/>		</g>	</g></svg>