<?xml version="1.0" standalone="no"?><!-- Generator: Adobe Fireworks CS6, Export SVG Extension by Aaron Beall (http://fireworks.abeall.com) . Version: 0.6.1  --><!DOCTYPE svg PUBLIC "-//W3C//DTD SVG 1.1//EN" "http://www.w3.org/Graphics/SVG/1.1/DTD/svg11.dtd"><svg id="Untitled-Page%201" viewBox="0 0 211 200" style="background-color:#ffffff00" version="1.1"	xmlns="http://www.w3.org/2000/svg" xmlns:xlink="http://www.w3.org/1999/xlink" xml:space="preserve"	x="0px" y="0px" width="211px" height="200px">	<g id="Layer%201">		<g>			<g>				<path d="M 108.5752 165.0273 L 70.5976 163.7559 L 70.3808 163.7485 L 69.0934 163.7485 C 69.0934 163.7485 66.9475 173.625 66.5184 175.0464 C 66.0893 176.4673 65.374 183.0752 65.6601 184.4258 C 65.9462 185.7754 65.374 188.3335 69.9517 188.9023 C 74.5292 189.4702 85.0435 190.5361 85.4011 190.6074 C 85.7587 190.6787 90.837 191.1045 92.9112 191.0337 C 94.9854 190.9624 142.9073 191.46 142.9073 191.46 L 143.7656 190.6074 C 144.0518 190.394 143.3365 189.9678 143.3365 189.9678 L 140.3325 189.5415 C 140.3325 189.5415 120.8491 188.0234 113.9396 187.1968 C 107.0302 186.3701 107.5024 177.1777 107.5024 177.1777 L 108.5752 165.0273 ZM 70.5954 163.7485 L 70.3808 163.7485 L 70.5976 163.7559 L 70.5954 163.7485 Z" fill="#ffffff"/>				<path d="M 67.8059 174.833 C 68.1635 172.7012 70.3808 163.7485 70.3808 163.7485 L 69.0934 163.7485 C 69.0934 163.7485 66.9475 173.625 66.5184 175.0464 C 66.0893 176.4673 65.374 183.0752 65.6601 184.4258 C 65.9462 185.7754 65.374 188.3335 69.9517 188.9023 C 74.5292 189.4702 85.0435 190.5361 85.4011 190.6074 C 85.7587 190.6787 90.837 191.1045 92.9112 191.0337 C 94.9854 190.9624 142.9073 191.46 142.9073 191.46 L 143.7656 190.6074 C 143.4795 190.8203 93.5549 189.9678 93.5549 189.9678 L 89.4852 189.6514 C 89.4852 189.6514 83.1123 189.6123 79.393 188.6885 C 75.6737 187.7651 69.3079 186.5566 69.3079 186.5566 C 69.3079 186.5566 67.2337 186.5566 66.7331 184.2124 C 66.2323 181.8672 67.4483 176.9648 67.8059 174.833 ZM 70.5954 163.7485 L 70.3808 163.7485 L 70.5976 163.7559 L 70.5954 163.7485 Z" fill="#dadada"/>				<path d="M 69.541 163.9619 L 68.2535 163.9619 C 68.2535 163.9619 66.1077 173.8384 65.6786 175.2598 C 65.3269 176.4238 64.7833 181.0723 64.7559 183.4561 L 107.8641 183.5566 C 106.4916 180.7246 106.6626 177.3906 106.6626 177.3906 L 107.7354 165.2407 L 69.7577 163.9692 L 69.541 163.9619 ZM 69.7555 163.9619 L 69.541 163.9619 L 69.7577 163.9692 L 69.7555 163.9619 Z" fill="#dadada"/>				<path d="M 13.9474 162.2563 L 11.5772 162.0908 C 8.8392 162.0225 3.2951 161.8799 3.0041 156.7139 C 2.713 151.5479 0 8.5645 0 8.5645 C 0 8.5645 0.0051 7.7769 0.2146 7.2852 C 0.4241 6.7939 3.333 2.4697 3.333 2.4697 L 10.8735 1.79 L 14.3766 137.103 L 31.3281 162.8955 L 13.9474 162.2563 Z" stroke="#ffffff00" stroke-width="1" fill="#dadada"/>				<path d="M 5.8824 138.6084 L 5.78 153.7295 C 5.78 153.7295 4.7787 161.4038 12.6464 162.043 C 20.5142 162.6826 116.2999 165.4536 116.2999 165.4536 L 198.4824 168.438 C 198.4824 168.438 204.7766 168.7935 204.4906 164.3882 C 204.2044 159.9824 202.1607 148.8633 202.1607 148.8633 L 107.5024 144.7769 L 5.8824 138.6084 Z" stroke="#ffffff00" stroke-width="1" fill="#ffffff"/>				<path d="M 8.816 0.4775 C 8.816 0.4775 2.0212 -1.9385 1.9496 4.1011 C 1.8781 10.1406 2.3788 28.6147 2.3788 28.6147 L 4.9537 138.1816 L 201.5049 149.9058 C 201.5049 149.9058 190.9908 44.6025 190.7762 44.3892 C 190.5616 44.1758 190.9371 39.1133 184.9826 37.9941 C 179.0281 36.875 8.816 0.4775 8.816 0.4775 Z" stroke="#ffffff00" stroke-width="1" fill="#313133"/>				<path d="M 12.4454 10.6963 L 185.1787 45.4419 L 194.62 142.3203 L 15.4495 130.3833 L 12.4454 10.6963 Z" fill="#10adbc"/>			</g>			<path d="M 203.9716 103.0146 L 204.5 103.0146 L 204.5 103.0146 L 203.9716 103.0146 Z" fill="#6ea1a4"/>			<path d="M 108.5525 29.7441 L 186.8698 45.7383 L 194.8763 141.7451 L 111.994 136.5186 L 108.5525 29.7441 Z" fill="#1695a4"/>			<g>				<path d="M 28.1149 123.3286 L 30.7867 123.3286 L 29.6416 120.2559 L 28.1149 123.3286 Z" fill="#333333"/>				<path d="M 37.8071 123.1636 L 40.5292 123.4482 L 39.7011 120.1753 L 37.8071 123.1636 Z" fill="#333333"/>				<path d="M 16.1365 123.0596 L 18.8083 122.8804 L 17.3513 119.9072 L 16.1365 123.0596 Z" fill="#333333"/>				<path d="M 25.7483 127.5537 L 27.2751 123.3286 L 29.9469 123.3286 L 31.4736 127.5537 L 25.7483 127.5537 Z" fill="#e99432"/>				<path d="M 36.6332 127.3223 L 38.6469 123.1636 L 41.3691 123.4482 L 42.4511 127.9106 L 36.6332 127.3223 Z" fill="#e99432"/>				<path d="M 15.8787 127.3564 L 16.9764 123.0596 L 19.6482 122.8804 L 21.604 126.9727 L 15.8787 127.3564 Z" fill="#e99432"/>				<g>					<path id="Ellipse" d="M 7.8856 159.4341 C 7.8856 156.6763 16.857 154.4404 27.9241 154.4404 C 38.9911 154.4404 47.9625 156.6763 47.9625 159.4341 C 47.9625 162.1919 38.9911 164.4272 27.9241 164.4272 C 16.857 164.4272 7.8856 162.1919 7.8856 159.4341 Z" fill="#0a494d"/>					<path id="Ellipse2" d="M 10.1757 158.9063 C 10.1757 157.4209 18.1218 155.833 27.9241 155.833 C 37.7263 155.833 45.6724 157.4209 45.6724 158.9063 C 45.6724 160.3906 37.7263 161.9785 27.9241 161.9785 C 18.1218 161.9785 10.1757 160.3906 10.1757 158.9063 Z" fill="#021819"/>					<path d="M 25.7483 127.0254 L 25.7483 172.3496 L 31.4736 172.3496 L 31.4736 127.0254 L 25.7483 127.0254 Z" fill="#ab4b25"/>					<path d="M 36.6332 127.3223 L 31.9371 172.123 L 37.5973 172.4932 L 42.4511 127.9106 L 36.6332 127.3223 Z" fill="#f2c300"/>					<path d="M 15.8787 127.8848 L 20.4812 172.8779 L 26.2065 172.4932 L 21.604 127.501 L 15.8787 127.8848 Z" fill="#137f7f"/>					<path opacity="0.102" d="M 29.6416 127.0254 L 29.6416 172.3496 L 32.3134 172.3496 L 32.3134 127.0254 L 29.6416 127.0254 Z" fill="#000000"/>					<path opacity="0.102" d="M 39.7428 127.6367 L 34.9622 172.3208 L 37.5973 172.4932 L 42.4511 127.9106 L 39.7428 127.6367 Z" fill="#000000"/>					<path opacity="0.102" d="M 18.9322 127.6797 L 23.5347 172.6729 L 26.2065 172.4932 L 21.604 127.501 L 18.9322 127.6797 Z" fill="#000000"/>					<path d="M 47.9814 159.0527 L 47.9625 159.0615 C 47.9376 161.814 38.9758 164.043 27.9241 164.043 C 16.857 164.043 7.8856 161.8076 7.8856 159.0498 L 7.8212 158.8276 C 7.8212 158.8276 12.4659 193.4502 12.4659 193.811 C 12.4659 196.8867 19.4721 199.3804 28.1149 199.3804 C 36.213 199.3804 42.8745 197.1914 43.6819 194.3853 L 47.9814 159.0527 Z" fill="#063133"/>					<path d="M 7.8856 159.7456 C 7.8856 162.5034 16.857 164.7393 27.9241 164.7393 C 38.9911 164.7393 47.9625 162.5034 47.9625 159.7456 L 45.6724 159.7456 C 45.6724 161.2305 37.7263 162.8184 27.9241 162.8184 C 18.1218 162.8184 10.1757 161.2305 10.1757 159.7456 L 7.8856 159.7456 Z" fill="#0a494d"/>				</g>			</g>			<g>				<g>					<g>						<path d="M 171.8171 163.6948 C 174.0536 159.8921 171.8354 163.7031 171.8354 163.7031 C 171.8596 166.3281 180.5492 168.4546 191.2654 168.4546 C 201.9965 168.4546 210.7578 163.4805 210.7578 163.4805 C 211.4204 176.4268 203.8112 193.3501 203.8112 193.6943 C 203.8112 196.6279 199.4608 199.0059 191.0804 199.0059 C 183.2281 199.0059 179.2119 196.9185 178.429 194.2422 C 178.429 194.2422 170.0983 174.9219 171.8171 163.6948 Z" fill="#bec3c7"/>						<path id="Ellipse3" d="M 210.7988 163.9219 C 210.7988 161.4214 201.9157 159.3945 190.9576 159.3945 C 179.9996 159.3945 171.1165 161.4214 171.1165 163.9219 C 171.1165 166.4224 179.9996 168.4487 190.9576 168.4487 C 201.9157 168.4487 210.7988 166.4224 210.7988 163.9219 Z" fill="#eaeff2"/>						<path d="M 174.9651 171.791 C 173.8036 170.6489 166.9634 167.3491 165.7446 172.1685 C 164.7132 176.2476 166.0016 181.5156 175.5166 183.3804 C 185.0317 185.2451 179.5884 183.3804 179.5884 183.3804 L 177.1453 180.1768 C 177.1453 180.1768 168.9757 178.6992 169.002 175.3721 C 169.0282 172.0449 172.0675 173.1143 175.5166 175.3721 C 178.9658 177.6299 174.9651 171.791 174.9651 171.791 Z" stroke="#ffffff00" stroke-width="1" fill="#bec3c7"/>						<path opacity="0.302" d="M 187.8033 120.915 C 186.9994 122.1348 183.1868 126.5078 187.8033 132.127 C 192.4199 137.7461 199.2463 143.6426 197.5753 148.9443 C 195.9045 154.2461 185.3604 160.957 185.3604 160.957 C 185.3604 160.957 194.9256 154.3042 194.3181 148.9443 C 193.7105 143.585 188.6176 137.7324 188.6176 137.7324 C 188.6176 137.7324 192.795 144.0352 192.6894 148.1436 C 192.5488 153.6113 186.989 157.7539 186.989 157.7539 C 186.989 157.7539 192.9361 151.8345 188.6176 144.9404 C 185.8894 140.585 178.2232 126.8311 187.8033 120.915 Z" fill="#ffffff"/>					</g>					<path d="M 191.5246 199.0059 L 191.5246 168.4546 C 202.1372 168.3755 210.7578 163.4805 210.7578 163.4805 C 211.4204 176.4268 203.8112 193.3501 203.8112 193.6943 C 203.8112 196.5762 199.6143 198.9233 191.5246 199.0059 Z" fill="#eaeff2"/>				</g>				<path d="M 178.2462 165.6875 C 169.5111 164.2324 172.5989 162.1353 183.9651 161.4658 C 193.0211 160.9331 202.7573 161.6606 206.726 162.8442 C 210.2141 163.8843 208.8814 165.1787 203.3735 165.9473 C 196.8312 166.8604 185.5075 166.8965 178.2462 165.6875 L 178.2462 165.6875 Z" fill="#bd9372"/>				<path d="M 180.2131 165.4258 C 173.0814 164.1885 175.6028 162.4307 185.0222 161.8301 C 192.7816 161.3359 201.3964 161.9326 205.0019 162.9688 C 208.2168 163.8931 207.0006 165.0498 201.9808 165.7207 C 196.1353 166.5015 186.3105 166.4844 180.2131 165.4258 L 180.2131 165.4258 Z" fill="#452507"/>				<path d="M 198.507 166.1191 C 197.9626 165.9434 198.1653 165.6729 198.9541 165.519 C 199.7299 165.3682 200.7683 165.3906 201.2787 165.5649 C 201.7824 165.7373 201.5935 165.9971 200.8511 166.1494 C 200.0963 166.3047 199.0443 166.293 198.507 166.1191 L 198.507 166.1191 Z" fill="#bd9372"/>				<path d="M 203.7029 164.8613 C 202.8725 164.5161 203.1925 164.0547 204.403 163.8418 C 205.581 163.6357 207.1283 163.751 207.8749 164.0869 C 208.6061 164.4165 208.3201 164.8486 207.2234 165.0635 C 206.0967 165.2842 204.5152 165.1992 203.7029 164.8613 L 203.7029 164.8613 Z" fill="#bd9372"/>				<path d="M 203.8122 164.8047 C 203.6711 164.7695 203.7249 164.7197 203.9323 164.6943 C 204.1389 164.6689 204.4176 164.6777 204.5557 164.7129 C 204.6931 164.748 204.6404 164.7969 204.4367 164.8223 C 204.2326 164.8481 203.9529 164.8403 203.8122 164.8047 L 203.8122 164.8047 Z" fill="#bd9372"/>				<path d="M 203.788 164.5151 C 203.7022 164.4932 203.7352 164.4634 203.8611 164.4482 C 203.9868 164.4336 204.1568 164.439 204.2415 164.4609 C 204.3256 164.4824 204.2931 164.5127 204.1686 164.5273 C 204.0441 164.5425 203.8735 164.5371 203.788 164.5151 L 203.788 164.5151 Z" fill="#bd9372"/>				<path d="M 203.2621 165.2969 C 202.8552 165.1982 203.0107 165.0562 203.606 164.9814 C 204.1909 164.9072 204.9706 164.9277 205.3517 165.0249 C 205.7283 165.1211 205.583 165.2573 205.0233 165.332 C 204.4542 165.4082 203.6639 165.3936 203.2621 165.2969 L 203.2621 165.2969 Z" fill="#bd9372"/>				<path d="M 201.5824 164.2969 C 201.1755 164.1982 201.331 164.0562 201.9264 163.9814 C 202.5112 163.9072 203.2909 163.9277 203.6721 164.0249 C 204.0486 164.1211 203.9033 164.2573 203.3437 164.332 C 202.7745 164.4082 201.9843 164.3936 201.5824 164.2969 L 201.5824 164.2969 Z" fill="#bd9372"/>				<path d="M 205.1089 164.6978 C 204.7237 164.5981 204.8727 164.46 205.4377 164.3921 C 205.9937 164.3247 206.7337 164.3516 207.0949 164.4502 C 207.4514 164.5469 207.3124 164.6797 206.7797 164.748 C 206.2386 164.8179 205.489 164.7959 205.1089 164.6978 L 205.1089 164.6978 Z" fill="#bd9372"/>				<path d="M 194.5398 165.0464 C 194.8257 164.9087 195.7465 164.8208 196.5807 164.8491 C 197.3953 164.877 197.829 165.0049 197.5633 165.1377 C 197.2963 165.2705 196.4153 165.3613 195.5799 165.3398 C 194.7246 165.3164 194.2516 165.1846 194.5398 165.0464 L 194.5398 165.0464 Z" fill="#bd9372"/>				<path d="M 191.3843 165.978 C 192.3025 165.9629 193.0211 166.0591 193.01 166.1919 C 192.9989 166.3242 192.2622 166.4482 191.346 166.4688 C 190.4078 166.4902 189.639 166.3955 189.649 166.2578 C 189.6588 166.1182 190.4449 165.9932 191.3843 165.978 L 191.3843 165.978 Z" fill="#bd9372"/>			</g>			<g>				<path d="M 25.2405 25.833 L 64.6604 33.0557 L 66.4693 77.8037 L 26.4383 72.5503 L 25.2405 25.833 Z" fill="#f2c300"/>				<rect opacity="0.502" x="27.3515" y="79.656" width="34.8136" height="8.1658" fill="#000000"/>				<rect opacity="0.502" x="27.5356" y="86.7617" width="14.1697" height="5.6306" fill="#000000"/>				<rect opacity="0.502" x="27.8537" y="99.033" width="34.9585" height="5.5117" fill="#000000"/>				<rect opacity="0.502" x="71.0752" y="34.79" width="30.6866" height="7.3713" fill="#000000"/>				<rect opacity="0.502" x="72.136" y="59.0315" width="30.9187" height="6.5691" fill="#000000"/>				<rect opacity="0.502" x="73.2585" y="84.6807" width="31.1634" height="5.7041" fill="#000000"/>				<rect opacity="0.502" x="119.6803" y="47.5701" width="27.579" height="6.5674" fill="#000000"/>				<rect opacity="0.502" x="73.6796" y="94.3044" width="31.255" height="5.3752" fill="#000000"/>				<rect opacity="0.502" x="120.217" y="56.3955" width="27.649" height="6.2903" fill="#000000"/>				<rect opacity="0.502" x="121.0835" y="70.6406" width="27.7617" height="5.8394" fill="#000000"/>				<rect opacity="0.502" x="121.6295" y="79.6196" width="27.8326" height="5.5525" fill="#000000"/>				<rect opacity="0.502" x="121.356" y="75.1226" width="27.7971" height="5.6963" fill="#000000"/>				<rect opacity="0.502" x="121.904" y="84.1316" width="8.3486" height="2.8772" fill="#000000"/>				<rect opacity="0.502" x="71.9305" y="54.3354" width="30.8738" height="6.7258" fill="#000000"/>				<rect opacity="0.502" x="73.049" y="79.8943" width="31.1179" height="5.8667" fill="#000000"/>				<rect opacity="0.502" x="119.4132" y="43.1792" width="27.5441" height="6.7043" fill="#000000"/>				<rect opacity="0.502" x="27.987" y="104.1775" width="35.0169" height="5.3242" fill="#000000"/>				<rect opacity="0.502" x="71.2777" y="39.4177" width="30.731" height="7.2192" fill="#000000"/>				<rect opacity="0.502" x="72.3422" y="63.7441" width="30.9638" height="6.4114" fill="#000000"/>				<rect opacity="0.502" x="73.4686" y="89.4839" width="31.2091" height="5.5403" fill="#000000"/>				<rect opacity="0.502" x="119.9482" y="51.9756" width="27.614" height="6.4292" fill="#000000"/>				<rect opacity="0.502" x="73.8913" y="99.1421" width="31.301" height="5.2087" fill="#000000"/>				<rect opacity="0.502" x="28.1208" y="109.342" width="18.8352" height="3.7141" fill="#000000"/>				<rect opacity="0.502" x="74.5309" y="113.7585" width="31.4397" height="4.7029" fill="#000000"/>				<rect opacity="0.502" x="71.4809" y="44.0618" width="16.5191" height="4.6489" fill="#000000"/>				<path opacity="0.502" d="M 72.5825 68.8916 L 97.1766 72.4111 L 97.2741 74.2554 L 72.6655 70.7881 L 72.5825 68.8916 Z" fill="#000000"/>				<path opacity="0.502" d="M 74.1376 104.4248 L 83.4276 105.3657 L 83.5184 107.292 L 74.2228 106.3721 L 74.1376 104.4248 Z" fill="#000000"/>				<path opacity="0.502" d="M 120.8502 66.5645 L 123.8489 67.0273 L 123.959 68.8066 L 120.9588 68.3501 L 120.8502 66.5645 Z" fill="#000000"/>			</g>			<g>				<path d="M 47.1519 186.4111 C 45.7603 187.1533 43.3753 187.9961 43.7926 188.9297 C 44.21 189.8638 43.851 190.6602 46.3121 190.6094 C 48.7732 190.5581 50.3511 191.064 52.191 189.7695 C 54.0308 188.4751 58.0281 185.9473 59.7495 184.7314 C 61.4709 183.5161 69.6462 183.9697 70.6673 183.8916 C 71.6885 183.8135 95.8624 183.8916 95.8624 183.8916 C 95.8624 183.8916 94.747 182.6943 95.0226 182.2124 C 95.2982 181.7305 58.0698 181.373 58.0698 181.373 C 58.0698 181.373 48.674 185.5991 47.1519 186.4111 Z" stroke="#ffffff00" stroke-width="1" fill="#2a2a28"/>				<path d="M 97.5421 185.5713 C 97.5421 185.5713 101.571 187.7236 100.9014 188.0898 C 100.2319 188.4565 97.9221 189.1416 96.7023 188.0898 C 95.4824 187.0391 89.0433 184.2881 89.1437 183.8916 C 89.2442 183.4951 49.6715 183.0518 49.6715 183.0518 L 50.5113 181.373 L 90.8234 182.2124 L 97.5421 185.5713 Z" stroke="#ffffff00" stroke-width="1" fill="#2a2a28"/>				<path opacity="0.2" d="M 65.6283 181.373 C 65.6283 181.373 72.6292 181.751 73.1869 184.7314 C 73.7446 187.7119 71.7449 191.4434 69.8275 192.2886 C 67.9101 193.1338 66.2335 193.1914 63.9487 193.1284 C 61.6638 193.0654 57.7423 193.543 55.5503 189.7695 C 53.3583 185.9966 53.7289 184.0879 54.7105 183.0518 C 55.6921 182.0161 58.4166 181.5527 60.5893 181.373 C 62.7621 181.1924 65.6283 181.373 65.6283 181.373 Z" stroke="#ffffff00" stroke-width="1" fill="#ffffff"/>				<path opacity="0.2" d="M 79.9055 184.7314 C 79.9055 184.7314 81.454 188.0898 83.2649 189.7695 C 85.0758 191.4492 87.5428 191.7373 89.9836 191.4492 C 92.4243 191.1602 93.9465 190.0322 94.1828 188.0898 C 94.4189 186.1484 94.4977 185.2563 94.1828 184.7314 C 93.8678 184.2065 92.6606 182.9209 90.8234 182.2124 C 88.9863 181.5039 83.8423 181.6875 82.425 182.2124 C 81.0078 182.7373 79.8006 183.0259 79.9055 184.7314 Z" stroke="#ffffff00" stroke-width="1" fill="#ffffff"/>				<path d="M 65.6283 181.373 C 65.6283 181.373 72.6292 181.751 73.1869 184.7314 C 73.7446 187.7119 71.7449 191.4434 69.8275 192.2886 C 67.9101 193.1338 66.2335 193.1914 63.9487 193.1284 C 61.6638 193.0654 57.7423 193.543 55.5503 189.7695 C 53.3583 185.9966 53.7289 184.0879 54.7105 183.0518 C 55.6921 182.0161 58.4166 181.5527 60.5893 181.373 C 62.7621 181.1924 65.6283 181.373 65.6283 181.373 ZM 79.9055 184.7314 C 79.8006 183.0259 81.0078 182.7373 82.425 182.2124 C 83.8423 181.6875 88.9863 181.5039 90.8234 182.2124 C 92.6606 182.9209 93.8678 184.2065 94.1828 184.7314 C 94.4977 185.2563 94.4189 186.1484 94.1828 188.0898 C 93.9465 190.0322 92.4243 191.1602 89.9836 191.4492 C 87.5428 191.7373 85.0758 191.4492 83.2649 189.7695 C 81.454 188.0898 79.9055 184.7314 79.9055 184.7314 ZM 75.7064 183.8916 C 76.416 183.6621 78.2056 184.8525 78.2385 184.7607 C 78.2175 184.7246 78.2136 184.7148 78.2259 184.7314 C 78.2372 184.7471 78.2405 184.7549 78.2385 184.7607 C 78.5615 185.3179 82.6635 191.7407 85.7844 192.2886 C 89.1082 192.8721 94.7864 191.3633 95.0226 190.6094 C 95.2588 189.8555 94.9024 187.5493 95.0226 186.4111 C 95.1427 185.2725 95.0734 184.3677 95.8624 183.8916 C 96.6514 183.416 96.35 182.5176 95.8624 182.2124 C 95.3748 181.9072 95.0792 181.7031 90.8234 181.373 C 86.797 181.0605 80.9733 181.3022 79.9055 181.373 C 78.8378 181.4434 77.6201 182.2852 76.5462 182.2124 C 75.4723 182.1396 72.5932 180.957 70.6673 180.5332 C 68.7415 180.1094 53.8706 180.5332 53.8706 180.5332 L 52.191 180.5332 C 52.191 180.5332 49.4626 181.0117 48.8316 181.373 C 48.2007 181.7334 49.4565 183.5557 50.5113 183.8916 C 51.5661 184.228 50.9621 184.5391 51.3511 184.7314 C 51.7402 184.9238 55.5797 192.2822 58.0698 193.1284 C 60.56 193.9746 67.0259 194.3125 69.8275 193.1284 C 72.6291 191.9438 74.8409 188.4194 74.8665 186.4111 C 74.8921 184.4023 74.954 184.1357 75.7064 183.8916 Z" fill="#141312"/>			</g>		</g>	</g></svg>