<?xml version="1.0" encoding="utf-8"?>
<!-- Generator: Adobe Illustrator 16.0.0, SVG Export Plug-In . SVG Version: 6.00 Build 0)  -->
<!DOCTYPE svg PUBLIC "-//W3C//DTD SVG 1.1//EN" "http://www.w3.org/Graphics/SVG/1.1/DTD/svg11.dtd">
<svg version="1.1" id="Untitled-Page_x25_201" xmlns="http://www.w3.org/2000/svg" xmlns:xlink="http://www.w3.org/1999/xlink"
	 x="0px" y="0px" width="300px" height="215px" viewBox="0 0 300 215" enable-background="new 0 0 300 215" xml:space="preserve">
<path fill="none" d="z"/>
<path fill="none" d="z"/>
<polygon fill-rule="evenodd" clip-rule="evenodd" fill="#CCCCCC" points="101.31,85.799 98.14,84.209 103.95,83.16 103.43,85.799 
	"/>
<path fill-rule="evenodd" clip-rule="evenodd" fill="#FFFFFF" d="M229.4,164.75h0.22l-0.22,0.01V164.75z M191.42,166.029l37.98-1.27
	l0.22-0.01h1.29c0,0,2.14,9.87,2.57,11.3c0.43,1.421,1.149,8.03,0.859,9.38s0.29,3.9-4.29,4.471c-4.579,0.57-15.09,1.64-15.45,1.709
	c-0.359,0.07-5.439,0.49-7.51,0.42c-2.08-0.069-50,0.431-50,0.431l-0.859-0.851c-0.28-0.219,0.43-0.639,0.43-0.639l3.01-0.431
	c0,0,19.48-1.521,26.391-2.34c6.91-0.83,6.439-10.021,6.439-10.021L191.42,166.029z"/>
<path fill-rule="evenodd" clip-rule="evenodd" fill="#DADADA" d="M229.4,164.75h0.22l-0.22,0.01V164.75z M232.189,175.83
	c-0.35-2.13-2.569-11.08-2.569-11.08h1.29c0,0,2.14,9.87,2.57,11.3c0.43,1.421,1.149,8.03,0.859,9.38s0.29,3.9-4.29,4.471
	c-4.579,0.57-15.09,1.64-15.45,1.709c-0.359,0.07-5.439,0.49-7.51,0.42c-2.08-0.069-50,0.431-50,0.431l-0.859-0.851
	c0.289,0.211,50.22-0.639,50.22-0.639l4.06-0.32c0,0,6.381-0.041,10.1-0.961c3.721-0.92,10.08-2.129,10.08-2.129s2.08,0,2.58-2.351
	C233.77,182.87,232.55,177.96,232.189,175.83z"/>
<path fill-rule="evenodd" clip-rule="evenodd" fill="#DADADA" d="M229.4,164.96h0.22l-0.22,0.011V164.96z M229.62,164.96h1.29
	c0,0,2.14,9.88,2.57,11.3c0.35,1.16,0.899,5.811,0.92,8.2l-43.101,0.101c1.37-2.84,1.2-6.17,1.2-6.17l-1.08-12.15l37.98-1.27
	L229.62,164.96z"/>
<path fill-rule="evenodd" clip-rule="evenodd" fill="#DADADA" d="M286.05,163.26l2.37-0.17c2.74-0.07,8.28-0.21,8.58-5.38
	c0.29-5.16,3-148.15,3-148.15s-0.01-0.78-0.21-1.27c-0.21-0.5-3.12-4.82-3.12-4.82l-7.54-0.68l-3.51,135.31L268.67,163.9
	L286.05,163.26z"/>
<path fill-rule="evenodd" clip-rule="evenodd" fill="#FFFFFF" d="M294.12,139.609l0.101,15.121c0,0,1,7.67-6.871,8.31
	c-7.859,0.64-103.649,3.41-103.649,3.41l-82.18,2.989c0,0-6.3,0.351-6.01-4.049c0.29-4.41,2.33-15.531,2.33-15.531l94.66-4.08
	L294.12,139.609z"/>
<path fill-rule="evenodd" clip-rule="evenodd" fill="#313133" d="M290.34,1.479c0,0,6.801-2.42,6.87,3.62s-0.431,24.51-0.431,24.51
	l-2.569,109.57L97.66,150.91c0,0,10.509-105.311,10.719-105.521c0.221-0.21-0.159-5.28,5.8-6.4
	C120.13,37.87,290.34,1.479,290.34,1.479z"/>
<polygon fill-rule="evenodd" clip-rule="evenodd" fill="#10ADBC" points="287.55,11.7 114.819,46.439 105.379,143.32 284.55,131.38 
	"/>
<polygon fill-rule="evenodd" clip-rule="evenodd" fill="#1695A4" points="191.625,30.875 287.811,9.979 284.563,131.438 
	188.25,137.781 "/>
<path fill-rule="evenodd" clip-rule="evenodd" fill="#71797F" d="M277.4,63.009l0.05-0.03l-0.181-0.07L277.4,63.009z M266.609,25.79
	c6.94-1.34,12.371,3.16,12.011,10.09c-0.36,6.97-6.41,13.61-13.41,14.77c-6.899,1.14-12.069-3.48-11.66-10.27
	C253.96,33.62,259.77,27.109,266.609,25.79z M273.05,61.509l4.22,1.4l0.181,0.07l0.36,0.11l0.06-0.37
	c1.39-0.87,2.601-1.72,3.93-2.79l-0.61-5.24c1.311-1.23,2.36-2.37,3.48-3.78l5.49-0.03c1.07-1.57,1.89-2.96,2.72-4.63l-3.36-3.63
	c0.641-1.61,1.08-3.01,1.44-4.64l5.37-2.87c0.21-1.72,0.279-3.18,0.21-4.84l-1.479-0.28l-2.461-1.75l-0.649,1.18l-0.591-0.11
	c-0.209-1.52-0.52-2.78-1.02-4.16l3.73-4.84c-0.631-1.27-1.28-2.32-2.12-3.41l0.12-0.28l-4.221-1.58l-1.72,3.43
	c-0.94-0.94-1.86-1.66-3-2.38l1.13-5.38c-1.359-0.64-2.59-1.09-4.09-1.47l-4.35,4.16c-1.471-0.22-2.771-0.3-4.311-0.24l-1.619-4.44
	h-0.021l0.01-0.02l-4.229-1.58l-3.17,5.81l1.52-0.31l-0.93,2.28c-1.541,0.57-2.84,1.18-4.311,2l-3.8-2.41
	c-1.479,0.99-2.71,1.91-4.069,3.09l0.489,4.86c-1.22,1.2-2.19,2.3-3.22,3.65l-4.92,0.18c-0.98,1.48-1.721,2.78-2.49,4.34l2.91,3.35
	c-0.61,1.52-1.02,2.84-1.37,4.38l-4.79,2.67c-0.23,1.61-0.33,2.98-0.311,4.55l4.561,1.01c0.15,1.45,0.4,2.67,0.83,4.02l-2.65,3.49
	l-0.699,0.04l-1.58,3.16l3.17,1.59l0.09-0.42l0.21,0.31l5.069-1.63c0.9,1.03,1.761,1.83,2.871,2.64l-1.141,5.32
	c1.27,0.73,2.43,1.26,3.85,1.75l4.25-3.96c1.09,0.24,2.08,0.39,3.17,0.46l-1.459,2.92c0,0,2.629,0.98,3.979,1.4l0.149,0.44
	c1.66-0.1,3.091-0.31,4.781-0.69l2.199-5.33c1.59-0.51,2.95-1.07,4.49-1.86L273.05,61.509z"/>
<path fill-rule="evenodd" clip-rule="evenodd" fill="#DBF1FE" d="M263.971,24.209c6.939-1.34,12.369,3.15,12.01,10.09
	c-0.36,6.97-6.41,13.61-13.42,14.76c-6.891,1.14-12.07-3.48-11.65-10.27C251.32,32.04,257.13,25.529,263.971,24.209z M262.561,8.12
	c1.64-0.47,3.049-0.77,4.689-0.99l1.62,4.45c1.54-0.06,2.84,0.01,4.3,0.24l4.359-4.16c1.5,0.38,2.73,0.82,4.08,1.46l-1.119,5.38
	c1.189,0.76,2.13,1.51,3.119,2.51l5.521-1.92c0.931,1.18,1.62,2.27,2.3,3.64l-3.729,4.84c0.5,1.38,0.81,2.64,1.021,4.15l5.18,0.97
	c0.07,1.66,0,3.12-0.221,4.84l-5.369,2.86c-0.36,1.63-0.791,3.03-1.431,4.64l3.36,3.64c-0.83,1.67-1.65,3.06-2.721,4.63l-5.49,0.03
	c-1.119,1.4-2.17,2.54-3.489,3.78l0.62,5.24c-1.48,1.18-2.801,2.11-4.4,3.07l-4.07-2.78c-1.549,0.78-2.899,1.34-4.5,1.86
	l-2.199,5.32c-1.68,0.38-3.11,0.59-4.77,0.7l-1.601-4.72c-1.53-0.04-2.81-0.19-4.24-0.51l-4.25,3.96
	c-1.43-0.49-2.58-1.01-3.851-1.75l1.141-5.32c-1.109-0.81-1.98-1.6-2.87-2.64l-5.079,1.64c-0.801-1.19-1.4-2.29-1.98-3.63L239.93,49
	c-0.42-1.35-0.67-2.56-0.82-4.02l-4.56-1.01c-0.021-1.57,0.07-2.93,0.3-4.54l4.791-2.68c0.35-1.54,0.77-2.86,1.369-4.37l-2.9-3.35
	c0.761-1.56,1.511-2.87,2.48-4.35l4.92-0.17c1.04-1.35,2.01-2.45,3.23-3.65l-0.49-4.87c1.359-1.17,2.59-2.1,4.07-3.08l3.8,2.4
	c1.47-0.82,2.771-1.42,4.3-1.99L262.561,8.12z"/>
<path fill-rule="evenodd" clip-rule="evenodd" fill="#9A4321" d="M223.99,28.759c3.42-0.68,6.01,1.71,5.75,5.35
	c-0.26,3.66-3.27,7.15-6.7,7.78c-3.41,0.63-5.931-1.8-5.66-5.4C217.65,32.89,220.6,29.439,223.99,28.759z M221.859,22.649
	l-0.469,1.02c-1.111,0.52-2.061,1.12-3.07,1.92l-3.561-0.73c-0.779,0.8-1.4,1.53-2.06,2.43l1.069,3.64
	c-0.64,1.14-1.09,2.18-1.459,3.39l-3.67,2.42c-0.16,1.02-0.23,1.9-0.23,2.89l3.41,1.06c0.189,1.11,0.49,2.02,0.979,2.95l-0.63,1.57
	c-0.59,0.38-3.29,2.12-3.061,2.04c0.19-0.06,1.5,0.52,2.201,0.85c0.479,0.56,0.959,1.02,1.56,1.49l3.81-2.16
	c0.48,0.23,0.961,0.4,1.45,0.54c-0.59,0.88-1.19,1.92-1.09,1.92c0.13,0,2.56,0.94,3.681,1.37l0.219,0.59
	c0.961-0.07,1.801-0.22,2.781-0.48l1.949-4.23c1.141-0.51,2.12-1.09,3.16-1.89l3.73,0.85c0.819-0.81,1.469-1.56,2.16-2.49
	l-1.171-3.79c0.66-1.17,1.13-2.25,1.511-3.49l3.89-2.51c0.159-1.06,0.22-1.96,0.2-2.99l-3.65-1.04c-0.21-1.13-0.54-2.05-1.061-2.98
	l1.73-4.3c-0.529-0.61-1.05-1.08-1.68-1.55l-0.01-0.11l-3.701-1.59l-1.389,3.49c-0.621-0.17-1.24-0.28-1.94-0.33l-1.38-3.5
	l-0.23,0.02l0.18-0.2l-3.699-1.59l-3.17,3.7L221.859,22.649z"/>
<path fill-rule="evenodd" clip-rule="evenodd" fill="#AB4B25" d="M220.29,27.18c3.42-0.69,6.01,1.71,5.75,5.35
	c-0.25,3.65-3.271,7.14-6.7,7.77c-3.41,0.63-5.93-1.8-5.66-5.4C213.95,31.31,216.9,27.85,220.29,27.18z M219.609,17.91
	c0.971-0.29,1.801-0.47,2.761-0.58l1.38,3.5c1.09,0.08,1.99,0.3,2.939,0.7l3.92-2.28c0.721,0.5,1.281,1.01,1.861,1.67l-1.721,4.3
	c0.51,0.94,0.84,1.86,1.05,2.98l3.65,1.05c0.03,1.02-0.04,1.93-0.2,2.99l-3.891,2.5c-0.379,1.25-0.85,2.32-1.51,3.49l1.18,3.8
	c-0.699,0.92-1.35,1.67-2.17,2.48l-3.729-0.84c-1.04,0.8-2.021,1.38-3.149,1.89l-1.961,4.22c-0.979,0.27-1.819,0.41-2.779,0.49
	l-1.37-3.63c-1.07-0.11-1.96-0.36-2.89-0.8L209.17,48c-0.68-0.52-1.21-1.05-1.76-1.73l1.689-4.21c-0.49-0.93-0.789-1.84-0.979-2.95
	l-3.41-1.06c0-1,0.069-1.87,0.229-2.9l3.67-2.41c0.371-1.21,0.82-2.26,1.461-3.4l-1.07-3.63c0.66-0.9,1.279-1.63,2.061-2.43
	l3.56,0.72c1.01-0.8,1.96-1.39,3.069-1.92L219.609,17.91z"/>
<path fill-rule="evenodd" clip-rule="evenodd" fill="#937500" d="M222.54,76.879c8.63-1.23,15.271,5.24,14.649,14.53
	c-0.619,9.359-8.33,17.75-17.039,18.661c-8.541,0.88-14.771-5.781-14.07-14.811C206.779,86.29,214.08,78.089,222.54,76.879z
	 M210.66,129.49l0.43,0.08l0.17,0.029c1.061,0.19,2.051,0.301,3.19,0.36l2.94-5.83c1.219-0.021,2.27-0.11,3.51-0.3l0.649,1.63
	l-2.399,2.05l3.779,1.42l0.141,0.34c1.41-0.31,2.619-0.649,4.02-1.129l0.95-6.351c1.22-0.521,2.25-1.021,3.44-1.69l0.43,0.42
	l0.449,2.24l2.91,0.971l0.32,0.299c1.33-0.84,2.43-1.619,3.68-2.609l-1.299-5.98c1.059-0.939,1.92-1.799,2.879-2.859l5.53,1.8
	c1.04-1.271,1.86-2.399,2.771-3.771l-3.42-4.7c0.72-1.24,1.279-2.33,1.869-3.631l6.17-0.629c0.58-1.521,1.01-2.82,1.431-4.36
	l-5.091-2.71c0.281-1.36,0.461-2.51,0.58-3.86l5.92-2.98c0.031-1.38,0-2.57-0.1-3.89l0.16-0.17l-0.189-0.09l-0.01-0.13l-0.291-0.02
	l-3.74-1.87l-1.14,1.6l-0.829-0.04c-0.201-1.27-0.441-2.32-0.791-3.52l4.82-4.83c-0.5-1.31-0.99-2.38-1.65-3.58l-0.1,0.04
	l0.221-0.23l-4.23-1.58l-1.58,1.58l1.01,1.77l-1.37,0.47c-0.64-1-1.239-1.8-2.01-2.68l3.069-5.93c-0.819-0.78-1.569-1.42-2.439-2.06
	l0.15-0.54c0,0-4.58-1.5-4.75-1.59c-0.16-0.08-0.11,4.02-0.03,5.05l-1.05,0.81c-0.98-0.59-1.85-1.04-2.91-1.48l0.98-6.15
	c-1.24-0.4-2.33-0.66-3.641-0.89l-3.8,5.4c-1.17-0.13-2.181-0.16-3.39-0.13l-1.09-5.39l0.129-0.39l-3.699-1.58l-3.17,5.28l1.97-0.18
	l-1.091,3.36c-1.199,0.35-2.209,0.7-3.389,1.19l-2.98-4.21l-0.26,0.13l-0.061-0.29l-3.17-1.58l-1.59,6.33h1.48l0.049,3.23
	c-1.08,0.75-1.969,1.45-2.979,2.32l-4.37-2.42c-1.09,1.05-1.97,1.98-2.96,3.13l2.021,4.88c-0.83,1.06-1.49,1.99-2.211,3.13
	l-5.18-0.36c-0.74,1.32-1.32,2.46-1.93,3.83l3.66,3.38c-0.48,1.24-0.83,2.3-1.18,3.56l-5.34,1.73c-0.311,1.43-0.511,2.64-0.67,4.07
	l4.819,1.479c-0.069,1.261-0.069,2.32,0,3.551l-2.94,2.21l-0.229-0.229c0,0-4.58,4.049-4.761,4.229
	c-0.139,0.13,2.561,0.71,3.711,0.951l0.07,0.279l5.389-0.63c0.351,1.12,0.711,2.05,1.201,3.101l-1.521,2.1h-2.51l-1.58,4.23
	l3.479,1.31l0.41,0.56l5.27-2.72c0.74,0.851,1.421,1.521,2.281,2.25l-1.42,4.22l-0.511-0.34l-1.06,2.641l3.06,0.869
	c0.31,0.19,0.64,0.371,0.979,0.551l4.44-4.541c1.04,0.451,1.97,0.771,3.08,1.061l0.021,3.08l-3.65,1.62l3.66,1.37V129.49z
	 M211.09,129.57l0.131,0.05l0.039-0.021L211.09,129.57z"/>
<path fill-rule="evenodd" clip-rule="evenodd" fill="#F2C300" d="M218.84,75.299c8.631-1.24,15.27,5.24,14.65,14.53
	c-0.61,9.35-8.33,17.74-17.04,18.651c-8.54,0.89-14.771-5.771-14.07-14.801C203.08,84.709,210.38,76.509,218.84,75.299z
	 M218.27,56.589c1.36-0.31,2.53-0.5,3.891-0.64l1.13,5.53c1.2-0.04,2.21,0,3.38,0.12l3.801-5.4c1.309,0.23,2.399,0.5,3.639,0.9
	l-0.979,6.14c1.06,0.45,1.931,0.89,2.91,1.49l5.26-4.05c1.06,0.76,1.921,1.47,2.86,2.38l-3.07,5.92c0.77,0.88,1.37,1.68,2.01,2.68
	l6.051-2.04c0.66,1.2,1.149,2.27,1.649,3.58l-4.819,4.82c0.359,1.2,0.59,2.26,0.789,3.52l6,0.33c0.141,1.48,0.181,2.77,0.141,4.29
	l-5.92,2.97c-0.12,1.35-0.301,2.51-0.58,3.87l5.09,2.7c-0.42,1.55-0.84,2.85-1.43,4.36l-6.17,0.64c-0.59,1.3-1.15,2.39-1.871,3.63
	l3.421,4.7c-0.9,1.371-1.729,2.49-2.771,3.761L237.15,111c-0.961,1.061-1.82,1.91-2.881,2.859l1.301,5.971
	c-1.25,0.99-2.35,1.779-3.68,2.62l-4.111-3.931c-1.189,0.67-2.219,1.17-3.439,1.69l-0.949,6.351c-1.4,0.479-2.611,0.819-4.021,1.119
	l-2.17-5.439c-1.24,0.189-2.29,0.279-3.5,0.31l-2.95,5.83c-1.35-0.08-2.49-0.22-3.79-0.47l-0.03-6.15
	c-1.109-0.3-2.039-0.609-3.08-1.06l-4.439,4.54c-1.12-0.6-2.04-1.18-3.061-1.93l2.01-6.021c-0.85-0.72-1.539-1.39-2.279-2.24
	l-5.27,2.72c-0.75-1.029-1.34-1.949-1.971-3.08l3.689-5.129c-0.489-1.041-0.85-1.971-1.199-3.101l-5.391,0.63
	c-0.31-1.3-0.51-2.439-0.67-3.811l4.83-3.629c-0.08-1.23-0.08-2.291-0.01-3.55l-4.82-1.48c0.16-1.42,0.36-2.64,0.67-4.06l5.351-1.73
	c0.34-1.26,0.69-2.33,1.17-3.56l-3.66-3.39c0.61-1.36,1.19-2.51,1.931-3.82l5.189,0.36c0.71-1.14,1.37-2.08,2.2-3.14l-2.021-4.87
	c0.99-1.15,1.871-2.09,2.961-3.13l4.369,2.41c1.01-0.87,1.9-1.56,2.98-2.32l-0.09-5.78c1.25-0.79,2.34-1.4,3.64-2.04l2.979,4.22
	c1.181-0.49,2.19-0.85,3.4-1.19L218.27,56.589z"/>
<path fill-rule="evenodd" clip-rule="evenodd" fill="#71797F" d="M265.721,32.2c3.26-0.61,5.789,1.52,5.609,4.75
	c-0.17,3.25-2.99,6.35-6.27,6.92c-3.25,0.56-5.721-1.59-5.531-4.8C259.71,35.87,262.48,32.799,265.721,32.2z M265.891,29.08
	c5.029-0.96,8.939,2.3,8.68,7.29c-0.271,5.02-4.631,9.8-9.69,10.65c-5,0.85-8.771-2.47-8.479-7.39
	C256.689,34.729,260.92,30.02,265.891,29.08z"/>
<path fill-rule="evenodd" clip-rule="evenodd" fill="#DBF1FE" d="M263.6,30.62c3.271-0.61,5.791,1.51,5.621,4.75
	c-0.181,3.25-2.99,6.35-6.271,6.91c-3.261,0.56-5.729-1.59-5.54-4.79C257.6,34.29,260.359,31.22,263.6,30.62z M263.779,27.49
	c5.031-0.95,8.941,2.31,8.671,7.3c-0.261,5.01-4.62,9.79-9.681,10.65c-5,0.85-8.779-2.47-8.479-7.39
	C254.58,33.149,258.811,28.43,263.779,27.49z"/>
<path fill-rule="evenodd" clip-rule="evenodd" fill="#937500" d="M219.99,80.97c5.43-0.74,9.55,3.34,9.16,9.14
	c-0.4,5.82-5.2,11.05-10.66,11.66c-5.381,0.601-9.35-3.549-8.92-9.24C210,86.859,214.641,81.7,219.99,80.97z M220.15,78.799
	c6.57-0.91,11.58,4.02,11.1,11.04c-0.471,7.07-6.3,13.41-12.91,14.141c-6.52,0.709-11.29-4.33-10.77-11.201
	C208.09,85.93,213.68,79.7,220.15,78.799z"/>
<path fill-rule="evenodd" clip-rule="evenodd" fill="#FEC110" d="M218.41,79.91c5.42-0.73,9.55,3.34,9.15,9.14
	c-0.4,5.82-5.201,11.06-10.65,11.671c-5.391,0.6-9.35-3.551-8.92-9.25C208.42,85.799,213.05,80.64,218.41,79.91z M218.561,77.75
	c6.569-0.91,11.58,4.01,11.109,11.04c-0.48,7.06-6.311,13.41-12.92,14.13c-6.51,0.71-11.29-4.32-10.76-11.2
	C206.51,84.879,212.1,78.64,218.561,77.75z"/>
<path fill="#15161E" d="M260.49,46.832c-0.353,0-0.697-0.022-1.027-0.067c-7.11-0.24-22.75-2.722-33.099-4.364
	c-4.231-0.671-7.573-1.202-9.338-1.426c-1.828-0.255-3.118-1.037-3.839-2.324c-0.934-1.667-0.79-4.094,0.404-6.832
	c1.956-4.522,5.006-5.472,7.219-5.472c0.454,0,0.926,0.04,1.4,0.119c2.558,0.202,9.539,0.331,18.18,0.331
	c9.02,0,19.881-0.15,23.817-0.485c3.823,0.23,6.408,1.352,7.757,3.333c1.345,1.975,1.445,4.763,0.301,8.289
	C270.48,43.43,264.763,46.832,260.49,46.832z M220.811,27.348c-2.783,0-4.903,1.639-6.302,4.871
	c-1.066,2.446-1.226,4.557-0.448,5.945c0.56,0.999,1.602,1.612,3.099,1.821c1.773,0.225,5.122,0.756,9.362,1.429
	c10.324,1.638,25.927,4.114,33.024,4.356c0.34,0.043,0.639,0.062,0.944,0.062c3.923,0,9.178-3.138,10.824-8.207
	c1.044-3.216,0.985-5.712-0.176-7.417c-1.166-1.713-3.494-2.688-6.919-2.899c-3.893,0.337-14.789,0.488-23.829,0.488
	c-8.665,0-15.678-0.13-18.301-0.339C221.627,27.383,221.21,27.348,220.811,27.348z"/>
<path fill="#15161E" d="M216.103,104.125c-2.718,0-5.29-0.838-7.439-2.423c-2.072-1.611-3.239-4.114-3.387-7.247
	c-0.217-4.594,1.86-9.898,5.051-12.899c2.731-3.628,15.521-17.575,26.805-29.88c7.888-8.602,14.699-16.03,16.543-18.264
	c3.909-4.744,7.885-7.251,11.495-7.251c1.286,0,2.521,0.316,3.668,0.94c1.909,1.037,3.097,2.46,3.531,4.23
	c0.55,2.24-0.18,5.009-2.054,7.798c-6.905,12.648-41.658,57.91-42.009,58.366C225.414,101.639,220.847,104.125,216.103,104.125z
	 M265.17,27.16c-3.302,0-7.011,2.381-10.724,6.887c-1.86,2.254-8.681,9.692-16.578,18.304c-11.269,12.289-24.04,26.217-26.799,29.87
	c-3.05,2.878-4.998,7.864-4.794,12.187c0.093,1.975,0.687,4.705,2.991,6.497c1.966,1.449,4.333,2.22,6.836,2.22
	c4.417,0,8.679-2.326,11.397-6.221c0.363-0.474,35.069-45.674,41.962-58.293c1.739-2.591,2.418-5.078,1.937-7.041
	c-0.365-1.485-1.387-2.693-3.037-3.59C267.361,27.436,266.288,27.16,265.17,27.16z"/>
<polygon fill-rule="evenodd" clip-rule="evenodd" fill="#CCCCCC" points="192.2,32.99 193.26,36.16 189.029,36.689 "/>
<path fill-rule="evenodd" clip-rule="evenodd" fill="#666D73" d="M147.68,57c4.72-0.86,8.15,2.84,7.62,8.3
	c-0.53,5.47-4.85,10.54-9.59,11.28c-4.68,0.73-7.98-3.04-7.43-8.4C138.84,62.839,143.02,57.85,147.68,57z M148.08,53.029
	c6.661-1.24,11.541,3.95,10.8,11.66c-0.75,7.76-6.88,14.92-13.581,15.93c-6.589,1-11.2-4.33-10.41-11.86
	C135.68,61.27,141.54,54.25,148.08,53.029z"/>
<path fill-rule="evenodd" clip-rule="evenodd" fill="#666D73" d="M149.08,43.68c11.59-2.32,20.25,6.61,18.991,20.1
	c-1.26,13.62-12.08,26.14-23.811,27.77c-11.389,1.57-19.229-7.78-17.829-20.72C127.81,58.009,137.819,45.919,149.08,43.68z
	 M148.58,15.129l-4.75,11.8c-2.399,1.05-4.44,2.14-6.75,3.63l-6.68-4.69l-0.021-0.27l-4.229-1.58l-1.061,4.22l1.391,0.01
	c-0.87,0.8-1.73,1.62-2.63,2.53l0.85,10.79c-1.86,2.2-3.35,4.22-4.92,6.68l-9.52,1.12c-1.329,2.53-2.35,4.75-3.399,7.39l5.82,6.88
	c-0.82,2.72-1.36,5.08-1.78,7.8l-9.02,6.98c-0.14,2.25-0.159,4.2-0.06,6.3l-1.04-1.04l-2.11,0.53l3.169,1.59l0.04-0.04v0.13
	l9.1,1.06c0.45,2.49,1.021,4.54,1.891,6.78L107,104.839c0.2,0.36,0.391,0.71,0.58,1.051l-0.979,2.61l3.6,1.35l0.36,0.471l9.8-5.371
	c1.67,1.521,3.241,2.64,5.21,3.701l-0.58,12.25c2.13,0.789,4.04,1.289,6.35,1.66l7.36-10.721c2.45-0.01,4.599-0.25,7.129-0.811
	l3.57,6.121l-2.11,1.91l4.22,1.59l0.65-0.36c2.25-0.8,4.26-1.681,6.54-2.851l2.01-12.969c2.46-1.66,4.5-3.291,6.761-5.4l10.42,3.22
	c2.119-2.38,3.83-4.54,5.68-7.2l-4.631-10.7c1.58-2.8,2.761-5.31,3.91-8.28l11.851-4.54c0.85-3.06,1.399-5.68,1.84-8.73l-9.92-4.43
	c0.12-2.94,0-5.41-0.38-8.18l9.09-10.55c-0.721-2.58-1.51-4.68-2.609-6.99l-0.381,0.11l-3.84-1.92L187.98,34l-6.92,1.92
	c-1.33-2.04-2.66-3.61-4.381-5.21l3.48-12.52c-1.939-1.23-3.7-2.12-5.85-2.94l-9.5,9.22c-2.25-0.52-4.271-0.74-6.67-0.72
	l-2.461-9.62l0.061-0.15l-0.11-0.05l-0.11-0.44l-0.59,0.09l-3.42-1.71l-1.55,2.84C149.509,14.839,149.049,14.979,148.58,15.129z"/>
<path fill-rule="evenodd" clip-rule="evenodd" fill="#DBF1FE" d="M145.379,42.089c11.591-2.31,20.25,6.61,18.991,20.1
	c-1.261,13.63-12.08,26.15-23.81,27.77c-11.391,1.58-19.23-7.77-17.83-20.72C124.11,56.419,134.12,44.339,145.379,42.089z
	 M144.879,13.549c2.431-0.78,4.521-1.27,6.941-1.65l2.619,10.26c2.41-0.01,4.42,0.2,6.67,0.72l9.5-9.22
	c2.16,0.83,3.91,1.71,5.851,2.95l-3.479,12.52c1.72,1.59,3.049,3.16,4.379,5.2l11.66-3.22c1.101,2.3,1.891,4.4,2.61,6.98
	l-9.09,10.56c0.38,2.76,0.5,5.23,0.38,8.18l9.92,4.43c-0.439,3.04-0.99,5.67-1.84,8.72l-11.85,4.54c-1.141,2.98-2.33,5.48-3.91,8.29
	l4.63,10.7c-1.851,2.65-3.56,4.82-5.681,7.2l-10.42-3.23c-2.26,2.11-4.299,3.741-6.75,5.4L155,115.85
	c-2.54,1.311-4.741,2.25-7.31,3.131l-5.561-9.53c-2.53,0.56-4.679,0.8-7.12,0.8l-7.37,10.73c-2.311-0.371-4.221-0.871-6.351-1.66
	l0.58-12.25c-1.97-1.07-3.54-2.18-5.209-3.711l-9.8,5.381c-1.39-1.781-2.46-3.43-3.561-5.491l5.87-11.1
	c-0.87-2.24-1.439-4.29-1.89-6.78l-9.1-1.07c-0.16-2.56-0.16-4.8,0-7.46l9.02-6.98c0.42-2.73,0.96-5.09,1.78-7.81l-5.82-6.87
	c1.05-2.64,2.07-4.86,3.4-7.39l9.53-1.13c1.56-2.45,3.05-4.47,4.91-6.68l-0.85-10.79c2-2.01,3.781-3.61,5.94-5.34l7.291,5.13
	c2.31-1.49,4.35-2.59,6.75-3.63L144.879,13.549z"/>
<path fill-rule="evenodd" clip-rule="evenodd" fill="#DBF1FE" d="M143.98,55.419c4.72-0.86,8.15,2.84,7.62,8.29
	c-0.529,5.48-4.85,10.54-9.59,11.29c-4.679,0.73-7.98-3.04-7.429-8.4C135.14,61.259,139.319,56.259,143.98,55.419z M144.379,51.45
	c6.661-1.25,11.541,3.95,10.8,11.66c-0.75,7.75-6.87,14.91-13.58,15.93c-6.581,1-11.2-4.34-10.411-11.87
	C131.979,59.68,137.84,52.669,144.379,51.45z"/>
<polygon fill-rule="evenodd" clip-rule="evenodd" fill="#063133" points="43.009,113.68 120.439,67.859 128.2,86.2 50.979,131.9 "/>
<polygon fill-rule="evenodd" clip-rule="evenodd" points="43.009,113.68 120.439,67.859 124.549,77.58 47.23,123.34 "/>
<path fill-rule="evenodd" clip-rule="evenodd" fill="#063133" d="M111.8,79.54c5.42,12.79,20.06,18.55,32.72,12.9
	c9.69-4.32,15.451-14.08,15.22-24.17l-6.721,12.72l-18.729,0.68l-9.871-17.39l8.13-13.92c0,0,16.79-1.44,16.2-0.8
	c-0.189,0.2,0.891,0.29,2.451,0.3c-6.991-6.09-17.101-7.93-26.21-3.86C112.27,51.68,106.37,66.72,111.8,79.54z"/>
<path fill-rule="evenodd" clip-rule="evenodd" fill="#E9C094" d="M58.83,87.47c0,0,0.93-4.3,3.209-4.3c2.28,0,4.29,3.22,4.29,3.22
	s1.88-5.77,5.36-5.36c3.49,0.4,5.37,5.36,5.37,5.36s0.53-6.71,5.36-6.44c4.82,0.27,6.431,5.37,6.431,5.37s-0.67-7.38,4.29-7.52
	c4.96-0.13,5.36,7.52,5.36,7.52l-1.07,15.03c0,0,6.57,3.49,7.5,5.371c0.939,1.879-5.76,18.389-6.43,20.4
	c-0.67,2.021-2.95,8.33-7.51,11.819c-4.55,3.49-22.51,3.221-22.51,3.221s-11.661-7.12-11.8-12.891
	C56.55,122.5,58.83,87.47,58.83,87.47z"/>
<polygon fill-rule="evenodd" clip-rule="evenodd" fill="#F7F7F7" points="97.609,135.01 97.609,146.02 57.609,145.02 57.609,135.01 
	"/>
<path fill-rule="evenodd" clip-rule="evenodd" fill="#052729" d="M99.62,144.7l0.05,48.46c0,0-47.3,0.29-47.021,0
	c0.29-0.29,3.96-48.46,3.96-48.46H99.62z"/>
</svg>
