<?xml version="1.0" encoding="utf-8"?>
<!-- Generator: Adobe Illustrator 16.0.0, SVG Export Plug-In . SVG Version: 6.00 Build 0)  -->
<!DOCTYPE svg PUBLIC "-//W3C//DTD SVG 1.1//EN" "http://www.w3.org/Graphics/SVG/1.1/DTD/svg11.dtd">
<svg version="1.1" id="Untitled-Page_x25_201" xmlns="http://www.w3.org/2000/svg" xmlns:xlink="http://www.w3.org/1999/xlink"
	 x="0px" y="0px" width="300px" height="215px" viewBox="0 0 300 215" enable-background="new 0 0 300 215" xml:space="preserve">
<path fill="none" d="z"/>
<path fill="none" d="z"/>
<g>
	<path fill-rule="evenodd" clip-rule="evenodd" fill="#FFFFFF" d="M69.746,166.243h-0.221l0.221,0.01V166.243z M107.726,167.522
		l-37.98-1.27l-0.221-0.01h-1.289c0,0-2.14,9.87-2.57,11.3c-0.43,1.421-1.149,8.03-0.859,9.38s-0.29,3.9,4.289,4.471
		c4.581,0.57,15.091,1.64,15.45,1.709c0.36,0.07,5.439,0.49,7.51,0.42c2.08-0.069,50.001,0.431,50.001,0.431l0.859-0.851
		c0.28-0.219-0.43-0.639-0.43-0.639l-3.01-0.431c0,0-19.481-1.521-26.392-2.34c-6.91-0.83-6.439-10.021-6.439-10.021
		L107.726,167.522z"/>
	<path fill-rule="evenodd" clip-rule="evenodd" fill="#DADADA" d="M69.746,166.243h-0.221l0.221,0.01V166.243z M66.956,177.323
		c0.351-2.13,2.569-11.08,2.569-11.08h-1.289c0,0-2.14,9.87-2.57,11.3c-0.43,1.421-1.149,8.03-0.859,9.38s-0.29,3.9,4.289,4.471
		c4.581,0.57,15.091,1.64,15.45,1.709c0.36,0.07,5.439,0.49,7.51,0.42c2.08-0.069,50.001,0.431,50.001,0.431l0.859-0.851
		c-0.289,0.211-50.221-0.639-50.221-0.639l-4.06-0.32c0,0-6.38-0.041-10.099-0.961c-3.721-0.92-10.081-2.129-10.081-2.129
		s-2.08,0-2.58-2.351C65.375,184.363,66.596,179.453,66.956,177.323z"/>
	<path fill-rule="evenodd" clip-rule="evenodd" fill="#DADADA" d="M68.905,166.453h-0.22l0.22,0.011V166.453z M68.685,166.453
		h-1.289c0,0-2.141,9.88-2.57,11.3c-0.35,1.16-0.9,5.811-0.92,8.2l43.1,0.101c-1.369-2.84-1.199-6.17-1.199-6.17l1.08-12.15
		l-37.981-1.27L68.685,166.453z"/>
	<path fill-rule="evenodd" clip-rule="evenodd" fill="#DADADA" d="M13.096,164.753l-2.37-0.17c-2.74-0.07-8.28-0.21-8.58-5.38
		c-0.29-5.16-3-148.146-3-148.146s0.01-0.78,0.21-1.27c0.21-0.5,3.12-4.82,3.12-4.82l7.54-0.68l3.51,135.306l16.95,25.801
		L13.096,164.753z"/>
	<path fill-rule="evenodd" clip-rule="evenodd" fill="#FFFFFF" d="M5.026,141.103l-0.101,15.121c0,0-1,7.67,6.871,8.31
		c7.86,0.64,103.65,3.41,103.65,3.41l82.181,2.989c0,0,6.299,0.351,6.01-4.049c-0.289-4.41-2.33-15.531-2.33-15.531l-94.661-4.08
		L5.026,141.103z"/>
	<path fill-rule="evenodd" clip-rule="evenodd" fill="#313133" d="M7.966,2.977c0,0-6.8-2.42-6.869,3.62
		c-0.07,6.04,0.43,24.51,0.43,24.51l2.57,109.566l196.55,11.73c0,0-10.51-105.307-10.721-105.517c-0.219-0.21,0.16-5.28-5.799-6.4
		C178.176,39.367,7.966,2.977,7.966,2.977z"/>
	<polygon fill-rule="evenodd" clip-rule="evenodd" fill="#10ADBC" points="11.596,13.197 184.326,47.937 193.768,144.813 
		14.596,132.873 	"/>
</g>
<path fill-rule="evenodd" clip-rule="evenodd" fill="#6EA1A4" d="M203.117,105.504h0.529H203.117z"/>
<polygon fill-rule="evenodd" clip-rule="evenodd" fill="#1695A4" points="107.696,32.237 186.018,48.237 194.027,144.243 
	111.136,139.013 "/>
<g>
	<polygon fill-rule="evenodd" clip-rule="evenodd" fill="#333333" points="26.277,125.889 29.224,125.746 27.797,122.432 	"/>
	<polygon fill-rule="evenodd" clip-rule="evenodd" fill="#333333" points="37.8,125.653 40.52,125.943 39.69,122.673 	"/>
	<polygon fill-rule="evenodd" clip-rule="evenodd" fill="#333333" points="16.093,126.362 18.763,126.182 17.303,123.212 	"/>
	<polygon fill-rule="evenodd" clip-rule="evenodd" fill="#E99432" points="24.896,129.595 26.426,125.376 29.096,125.376 
		30.617,129.595 	"/>
	<polygon fill-rule="evenodd" clip-rule="evenodd" fill="#E99432" points="35.776,129.813 37.796,125.653 40.517,125.943 
		41.597,130.403 	"/>
	<polygon fill-rule="evenodd" clip-rule="evenodd" fill="#E99432" points="15.026,130.531 16.126,126.232 18.796,126.052 
		20.746,130.143 	"/>
	<g>
		<path fill-rule="evenodd" clip-rule="evenodd" fill="#0A494D" d="M7.036,161.923c0-2.75,8.97-4.99,20.03-4.99
			c11.07,0,20.04,2.24,20.04,4.99c0,2.76-8.97,5-20.04,5C16.006,166.923,7.036,164.683,7.036,161.923z"/>
		<path fill-rule="evenodd" clip-rule="evenodd" fill="#021819" d="M9.327,161.403c0-1.49,7.939-3.08,17.74-3.08
			c9.81,0,17.75,1.59,17.75,3.08c0,1.48-7.94,3.07-17.75,3.07C17.266,164.474,9.327,162.884,9.327,161.403z"/>
		<rect x="24.896" y="129.522" fill-rule="evenodd" clip-rule="evenodd" fill="#AB4B25" width="5.72" height="45.32"/>
		<polygon fill-rule="evenodd" clip-rule="evenodd" fill="#F2C300" points="35.776,129.813 31.086,174.613 36.747,174.983 
			41.597,130.403 		"/>
		<polygon fill-rule="evenodd" clip-rule="evenodd" fill="#137F7F" points="15.026,130.373 19.626,175.373 25.356,174.983 
			20.746,129.993 		"/>
		<rect x="27.911" y="129.522" opacity="0.1" fill-rule="evenodd" clip-rule="evenodd" width="2.67" height="45.32"/>
		<polygon opacity="0.1" fill-rule="evenodd" clip-rule="evenodd" points="38.887,130.134 34.106,174.813 36.747,174.983 
			41.597,130.403 		"/>
		<polygon opacity="0.1" fill-rule="evenodd" clip-rule="evenodd" points="18.077,130.173 22.676,175.163 25.356,174.983 
			20.746,129.993 		"/>
		<path fill-rule="evenodd" clip-rule="evenodd" fill="#063133" d="M47.126,161.543l-0.02,0.011c-0.021,2.75-8.98,3.979-20.04,3.979
			s-20.03-1.229-20.03-3.989c0,0,4.581,34.4,4.581,34.761c0,3.08,7,5.569,15.639,5.569c8.1,0,14.761-2.19,15.57-4.989
			L47.126,161.543z"/>
		<path fill-rule="evenodd" clip-rule="evenodd" fill="#0A494D" d="M44.767,161.252c0.018,0.051,0.049,0.101,0.049,0.151
			c0,1.48-7.94,3.07-17.75,3.07c-9.8,0-17.74-1.59-17.74-3.07c0-0.051,0.032-0.101,0.049-0.151h-2.1
			c-0.072,0.143-0.129,0.287-0.152,0.434c0.404,2.671,9.189,4.8,19.992,4.8c10.813,0,19.596-2.133,20.002-4.798
			c-0.022-0.147-0.08-0.292-0.152-0.436H44.767z"/>
	</g>
</g>
<g>
	<g>
		<g>
			<path fill-rule="evenodd" clip-rule="evenodd" fill="#BEC3C7" d="M170.967,166.183c2.23-3.799,0.02,0.011,0.02,0.011
				c0.02,2.63,8.711,4.75,19.43,4.75c10.73,0,19.49-4.97,19.49-4.97c0.66,12.949-6.949,29.869-6.949,30.209
				c0,2.94-4.35,5.32-12.73,5.32c-7.85,0-11.869-2.09-12.65-4.77C177.576,196.733,169.246,177.413,170.967,166.183z"/>
			<path fill-rule="evenodd" clip-rule="evenodd" fill="#EAEFF2" d="M209.947,166.413c0-2.5-8.881-4.529-19.84-4.529
				c-10.961,0-19.84,2.029-19.84,4.529s8.879,4.53,19.84,4.53C201.066,170.943,209.947,168.913,209.947,166.413z"/>
			<path fill-rule="evenodd" clip-rule="evenodd" fill="#BEC3C7" d="M174.117,174.283c-1.17-1.14-8.01-4.44-9.23,0.38
				c-1.029,4.08,0.26,9.35,9.779,11.21c9.51,1.87,4.07,0,4.07,0l-2.439-3.2c0,0-8.17-1.479-8.15-4.81c0.029-3.33,3.07-2.261,6.52,0
				C178.117,180.123,174.117,174.283,174.117,174.283z"/>
			<path opacity="0.3" fill-rule="evenodd" clip-rule="evenodd" fill="#FFFFFF" d="M186.947,123.413c-0.801,1.21-4.611,5.59,0,11.21
				c4.619,5.62,11.449,11.511,9.779,16.81c-1.68,5.311-12.221,12.021-12.221,12.021s9.57-6.66,8.961-12.021
				c-0.609-5.359-5.699-11.209-5.699-11.209s4.17,6.31,4.068,10.41c-0.139,5.469-5.699,9.609-5.699,9.609s5.949-5.92,1.631-12.811
				C185.037,143.073,177.367,129.323,186.947,123.413z"/>
		</g>
		<path fill-rule="evenodd" clip-rule="evenodd" fill="#EAEFF2" d="M190.666,201.503v-30.56c10.621-0.07,19.24-4.97,19.24-4.97
			c0.66,12.949-6.949,29.869-6.949,30.209C202.957,199.073,198.756,201.413,190.666,201.503z"/>
	</g>
	<path fill="#BD9372" d="M177.396,168.183c-8.74-1.459-5.65-3.549,5.721-4.219c9.049-0.541,18.789,0.189,22.76,1.369
		c3.48,1.04,2.15,2.34-3.359,3.11C195.977,169.353,184.656,169.394,177.396,168.183z"/>
	<path fill="#452507" d="M179.357,167.923c-7.131-1.24-4.611-3,4.809-3.6c7.76-0.49,16.381,0.1,19.98,1.141
		c3.221,0.92,2,2.079-3.02,2.75C195.287,168.993,185.457,168.974,179.357,167.923z"/>
	<path fill="#BD9372" d="M197.656,168.613c-0.549-0.181-0.34-0.45,0.441-0.601c0.779-0.149,1.818-0.129,2.328,0.041
		c0.5,0.18,0.311,0.439-0.43,0.59C199.246,168.793,198.188,168.783,197.656,168.613z"/>
	<path fill="#BD9372" d="M202.848,167.353c-0.83-0.34-0.512-0.81,0.699-1.02c1.18-0.199,2.73-0.09,3.471,0.25
		c0.738,0.33,0.449,0.76-0.65,0.971C205.246,167.772,203.666,167.693,202.848,167.353z"/>
	<path fill="#BD9372" d="M202.957,167.293c-0.141-0.03-0.09-0.079,0.119-0.11c0.211-0.02,0.49-0.01,0.631,0.021
		c0.129,0.04,0.08,0.09-0.121,0.11C203.377,167.343,203.098,167.333,202.957,167.293z"/>
	<path fill="#BD9372" d="M202.938,167.013c-0.09-0.029-0.051-0.06,0.068-0.069c0.131-0.021,0.301-0.011,0.381,0.01
		c0.09,0.021,0.051,0.05-0.07,0.069C203.188,167.033,203.018,167.033,202.938,167.013z"/>
	<path fill="#BD9372" d="M202.406,167.793c-0.4-0.1-0.25-0.239,0.35-0.319c0.58-0.07,1.361-0.051,1.74,0.039
		c0.381,0.101,0.23,0.24-0.33,0.311C203.598,167.903,202.807,167.884,202.406,167.793z"/>
	<path fill="#BD9372" d="M200.727,166.793c-0.4-0.1-0.25-0.239,0.35-0.319c0.58-0.07,1.361-0.051,1.74,0.039
		c0.381,0.101,0.23,0.24-0.33,0.311C201.916,166.903,201.127,166.884,200.727,166.793z"/>
	<path fill="#BD9372" d="M204.256,167.193c-0.389-0.101-0.238-0.24,0.33-0.31c0.551-0.07,1.291-0.041,1.65,0.06
		c0.361,0.1,0.221,0.229-0.311,0.3C205.387,167.313,204.637,167.293,204.256,167.193z"/>
	<path fill="#BD9372" d="M193.688,167.543c0.289-0.14,1.209-0.229,2.039-0.2c0.82,0.03,1.25,0.15,0.98,0.291
		c-0.26,0.129-1.141,0.219-1.98,0.199C193.867,167.813,193.396,167.673,193.688,167.543z"/>
	<path fill="#BD9372" d="M190.527,168.474c0.92-0.021,1.639,0.08,1.629,0.209c-0.01,0.131-0.75,0.261-1.66,0.281
		c-0.939,0.02-1.709-0.07-1.699-0.211C188.807,168.613,189.586,168.483,190.527,168.474z"/>
</g>
<polygon fill-rule="evenodd" clip-rule="evenodd" fill="#F2C300" points="24.387,28.327 63.806,35.557 65.616,80.296 25.586,75.046 
	"/>
<polygon fill-rule="evenodd" clip-rule="evenodd" fill="#08565E" points="26.496,82.157 61.156,86.417 61.316,90.316 26.606,86.207 
	"/>
<polygon fill-rule="evenodd" clip-rule="evenodd" fill="#08565E" points="26.687,89.256 40.727,90.876 40.856,94.887 26.786,93.336 
	"/>
<polygon fill-rule="evenodd" clip-rule="evenodd" fill="#08565E" points="26.996,101.526 61.886,105.065 61.956,107.034 
	27.057,103.585 "/>
<polygon fill-rule="evenodd" clip-rule="evenodd" fill="#08565E" points="70.225,37.287 100.806,42.876 100.906,44.657 
	70.305,39.137 "/>
<polygon fill-rule="evenodd" clip-rule="evenodd" fill="#08565E" points="71.286,61.526 102.096,66.276 102.196,68.097 
	71.366,63.407 "/>
<polygon fill-rule="evenodd" clip-rule="evenodd" fill="#08565E" points="72.405,87.177 103.465,91.026 103.566,92.876 
	72.485,89.097 "/>
<polygon fill-rule="evenodd" clip-rule="evenodd" fill="#08565E" points="118.825,50.066 146.288,54.927 146.407,56.637 
	118.936,51.827 "/>
<polygon fill-rule="evenodd" clip-rule="evenodd" fill="#08565E" points="72.826,96.796 103.976,100.316 104.076,102.176 
	72.905,98.737 "/>
<polygon fill-rule="evenodd" clip-rule="evenodd" fill="#08565E" points="119.366,58.896 146.887,63.467 147.017,65.187 
	119.466,60.667 "/>
<polygon fill-rule="evenodd" clip-rule="evenodd" fill="#08565E" points="120.226,73.137 147.867,77.247 147.996,78.977 
	120.335,74.927 "/>
<polygon fill-rule="evenodd" clip-rule="evenodd" fill="#08565E" points="120.776,82.117 148.486,85.927 148.606,87.667 
	120.886,83.917 "/>
<polygon fill-rule="evenodd" clip-rule="evenodd" fill="#08565E" points="120.505,77.617 148.175,81.577 148.296,83.316 
	120.617,79.417 "/>
<polygon fill-rule="evenodd" clip-rule="evenodd" fill="#08565E" points="121.046,86.626 129.287,87.717 129.396,89.506 
	121.156,88.437 "/>
<polygon fill-rule="evenodd" clip-rule="evenodd" fill="#08565E" points="71.076,56.836 101.846,61.747 101.946,63.557 
	71.155,58.707 "/>
<polygon fill-rule="evenodd" clip-rule="evenodd" fill="#08565E" points="72.195,82.387 103.215,86.417 103.316,88.256 
	72.275,84.307 "/>
<polygon fill-rule="evenodd" clip-rule="evenodd" fill="#08565E" points="118.557,45.677 145.987,50.687 146.107,52.376 
	118.665,47.427 "/>
<polygon fill-rule="evenodd" clip-rule="evenodd" fill="#08565E" points="27.137,106.674 62.076,110.013 62.146,111.993 
	27.187,108.733 "/>
<polygon fill-rule="evenodd" clip-rule="evenodd" fill="#08565E" points="70.425,41.917 101.056,47.336 101.156,49.137 
	70.506,43.767 "/>
<polygon fill-rule="evenodd" clip-rule="evenodd" fill="#08565E" points="71.485,66.237 102.356,70.827 102.456,72.657 
	71.565,68.126 "/>
<polygon fill-rule="evenodd" clip-rule="evenodd" fill="#08565E" points="72.616,91.977 103.726,95.667 103.826,97.517 
	72.695,93.907 "/>
<polygon fill-rule="evenodd" clip-rule="evenodd" fill="#08565E" points="119.096,54.477 146.586,59.197 146.708,60.896 
	119.206,56.237 "/>
<polygon fill-rule="evenodd" clip-rule="evenodd" fill="#08565E" points="73.036,101.637 104.236,104.976 104.335,106.844 
	73.126,103.576 "/>
<polygon fill-rule="evenodd" clip-rule="evenodd" fill="#08565E" points="27.267,111.833 46.036,113.522 46.106,115.554 
	27.316,113.903 "/>
<polygon fill-rule="evenodd" clip-rule="evenodd" fill="#08565E" points="73.676,116.253 105.016,119.063 105.117,120.953 
	73.766,118.214 "/>
<polygon fill-rule="evenodd" clip-rule="evenodd" fill="#08565E" points="70.626,46.557 87.056,49.376 87.146,51.207 70.706,48.417 
	"/>
<polygon fill-rule="evenodd" clip-rule="evenodd" fill="#08565E" points="71.726,71.387 96.326,74.907 96.416,76.756 71.815,73.287 
	"/>
<polygon fill-rule="evenodd" clip-rule="evenodd" fill="#08565E" points="73.286,106.914 82.576,107.864 82.666,109.783 
	73.366,108.863 "/>
<polygon fill-rule="evenodd" clip-rule="evenodd" fill="#08565E" points="119.995,69.057 122.996,69.526 123.106,71.307 
	120.105,70.847 "/>
<g>
	<path fill-rule="evenodd" clip-rule="evenodd" fill="#2A2A28" d="M46.296,188.903c-1.39,0.74-3.77,1.59-3.359,2.52
		c0.42,0.93,0.06,1.73,2.52,1.68c2.46-0.049,4.041,0.451,5.88-0.84c1.84-1.289,5.84-3.819,7.56-5.039
		c1.72-1.211,9.899-0.76,10.919-0.84c1.021-0.08,25.191,0,25.191,0s-1.11-1.201-0.84-1.681c0.279-0.479-36.95-0.84-36.95-0.84
		S47.816,188.093,46.296,188.903z"/>
	<path fill-rule="evenodd" clip-rule="evenodd" fill="#2A2A28" d="M96.686,188.063c0,0,4.03,2.15,3.359,2.52
		c-0.67,0.37-2.979,1.051-4.199,0c-1.22-1.05-7.66-3.8-7.56-4.199c0.101-0.391-39.47-0.841-39.47-0.841l0.84-1.68l40.31,0.84
		L96.686,188.063z"/>
	<path opacity="0.2" fill-rule="evenodd" clip-rule="evenodd" fill="#FFFFFF" d="M64.776,183.863c0,0,7,0.38,7.56,3.36
		c0.55,2.979-1.45,6.709-3.361,7.56c-1.919,0.84-3.6,0.899-5.879,0.84c-2.29-0.06-6.21,0.41-8.4-3.36
		c-2.189-3.77-1.819-5.68-0.84-6.72c0.98-1.03,3.71-1.5,5.88-1.68C61.906,183.683,64.776,183.863,64.776,183.863z"/>
	<path opacity="0.2" fill-rule="evenodd" clip-rule="evenodd" fill="#FFFFFF" d="M79.056,187.224c0,0,1.541,3.359,3.35,5.039
		c1.82,1.681,4.28,1.971,6.72,1.681c2.44-0.29,3.97-1.421,4.201-3.36c0.239-1.939,0.319-2.83,0-3.359
		c-0.311-0.521-1.521-1.811-3.361-2.521c-1.829-0.71-6.979-0.521-8.39,0C80.155,185.233,78.945,185.522,79.056,187.224z"/>
	<path fill-rule="evenodd" clip-rule="evenodd" fill="#141312" d="M74.855,186.384c0.71-0.23,2.5,0.959,2.53,0.869l-0.01-0.029
		l0.01,0.029c0.32,0.561,4.42,6.98,7.54,7.53c3.33,0.58,9.01-0.931,9.241-1.681c0.239-0.75-0.12-3.06,0-4.199
		c0.12-1.141,0.05-2.04,0.84-2.52c0.79-0.471,0.49-1.371,0-1.681c-0.49-0.3-0.78-0.51-5.041-0.84c-4.02-0.31-9.85-0.07-10.91,0
		c-1.07,0.069-2.29,0.92-3.36,0.84c-1.079-0.069-3.96-1.25-5.88-1.681c-1.929-0.42-16.799,0-16.799,0h-1.68
		c0,0-2.73,0.48-3.36,0.841c-0.63,0.36,0.629,2.19,1.679,2.521c1.061,0.34,0.45,0.649,0.841,0.84c0.39,0.189,4.229,7.549,6.72,8.399
		c2.489,0.841,8.959,1.181,11.759,0c2.8-1.19,5.01-4.71,5.041-6.72C74.036,186.894,74.096,186.634,74.855,186.384z M79.056,187.224
		c-0.11-1.701,1.1-1.99,2.52-2.521c1.41-0.521,6.561-0.71,8.39,0c1.84,0.71,3.05,2,3.361,2.521c0.319,0.529,0.239,1.42,0,3.359
		c-0.23,1.939-1.761,3.07-4.201,3.36c-2.439,0.29-4.899,0-6.72-1.681C80.596,190.583,79.056,187.224,79.056,187.224z
		 M64.776,183.863c0,0,7,0.38,7.56,3.36c0.55,2.979-1.45,6.709-3.361,7.56c-1.919,0.84-3.6,0.899-5.879,0.84
		c-2.29-0.06-6.21,0.41-8.4-3.36c-2.189-3.77-1.819-5.68-0.84-6.72c0.98-1.03,3.71-1.5,5.88-1.68
		C61.906,183.683,64.776,183.863,64.776,183.863z"/>
</g>
</svg>
