<?xml version="1.0" standalone="no"?><!-- Generator: Adobe Fireworks CS6, Export SVG Extension by Aaron Beall (http://fireworks.abeall.com) . Version: 0.6.1  --><!DOCTYPE svg PUBLIC "-//W3C//DTD SVG 1.1//EN" "http://www.w3.org/Graphics/SVG/1.1/DTD/svg11.dtd"><svg id="Untitled-Page%201" viewBox="0 0 760 143" style="background-color:#ffffff00" version="1.1"	xmlns="http://www.w3.org/2000/svg" xmlns:xlink="http://www.w3.org/1999/xlink" xml:space="preserve"	x="0px" y="0px" width="760px" height="143px">	<g id="Layer%201">		<g opacity="0.0706">			<path d="M 432.7189 118.428 L 350.8801 128.2712 L 350.9531 128.9453 L 432.7916 119.1021 L 432.7189 118.428 Z" fill="#000000"/>			<path d="M 326.2942 91.022 L 325.752 91.3875 L 349.4012 130.429 L 349.9435 130.0635 L 326.2942 91.022 Z" fill="#000000"/>			<path d="M 443.2142 42.3342 L 327.1464 92.2029 L 327.3889 92.8311 L 443.4567 42.9619 L 443.2142 42.3342 Z" fill="#000000"/>			<path d="M 349.8029 129.7292 L 279.4529 122.3413 L 279.6954 122.969 L 350.0453 130.3567 L 349.8029 129.7292 Z" fill="#000000"/>			<path d="M 155.6235 103.9124 L 90.896 110.7883 L 91.1385 111.4165 L 155.866 104.54 L 155.6235 103.9124 Z" fill="#000000"/>			<path d="M 443.7463 42.3926 L 349.7716 129.0081 L 350.1951 129.5178 L 444.1699 42.9026 L 443.7463 42.3926 Z" fill="#000000"/>			<path d="M 443.3273 42.6033 L 433.6813 120.032 L 434.3196 120.1204 L 443.9656 42.6921 L 443.3273 42.6033 Z" fill="#000000"/>			<path d="M 443.1689 42.3428 L 442.8812 42.95 L 483.9558 64.6033 L 484.2435 63.9963 L 443.1689 42.3428 Z" fill="#000000"/>			<path d="M 482.9368 64.7183 L 431.5936 119.8369 L 432.0522 120.3125 L 483.3954 65.1938 L 482.9368 64.7183 Z" fill="#000000"/>			<path d="M 483.1937 63.8123 L 462.6559 104.4949 L 463.2237 104.8142 L 483.7617 64.1318 L 483.1937 63.8123 Z" fill="#000000"/>			<path d="M 463.5431 104.2439 L 433.6829 119.3828 L 434.2507 119.7021 L 464.1111 104.5635 L 463.5431 104.2439 Z" fill="#000000"/>			<path d="M 578.2991 70.8611 L 460.9867 104.6533 L 461.1563 105.3074 L 578.4686 71.5154 L 578.2991 70.8611 Z" fill="#000000"/>			<path d="M 577.2413 72.5654 L 577.2469 73.2415 L 681.2064 59.8821 L 681.2009 59.2056 L 577.2413 72.5654 Z" fill="#000000"/>			<path d="M 533.7045 51.1917 L 533.4456 51.8132 L 577.3214 72.1545 L 577.5803 71.5332 L 533.7045 51.1917 Z" fill="#000000"/>			<path d="M 534.1248 51.1719 L 482.1584 63.9675 L 482.3041 64.6287 L 534.2704 51.833 L 534.1248 51.1719 Z" fill="#000000"/>			<path d="M 634.2251 32.8413 L 576.347 70.8992 L 576.6875 71.4739 L 634.5657 33.416 L 634.2251 32.8413 Z" fill="#000000"/>			<path d="M 634.2289 33.4824 L 633.9399 34.0879 L 682.172 59.6785 L 682.461 59.073 L 634.2289 33.4824 Z" fill="#000000"/>			<path d="M 681.895 58.4548 L 681.4929 58.9834 L 716.0331 88.1833 L 716.4351 87.655 L 681.895 58.4548 Z" fill="#000000"/>			<path d="M 681.4056 59.6929 L 681.3603 60.3701 L 724.9246 63.6511 L 724.9697 62.9744 L 681.4056 59.6929 Z" fill="#000000"/>			<path d="M 724.6513 61.8677 L 714.071 88.1145 L 714.6629 88.3794 L 725.243 62.1323 L 724.6513 61.8677 Z" fill="#000000"/>			<path d="M 725.3989 62.3511 L 725.1174 62.9619 L 757.7911 79.6946 L 758.0726 79.0837 L 725.3989 62.3511 Z" fill="#000000"/>			<path d="M 757.2527 79.0549 L 715.5555 86.9292 L 715.6686 87.5969 L 757.3657 79.7229 L 757.2527 79.0549 Z" fill="#000000"/>			<path d="M 337.0699 68.2207 L 326.3382 91.7751 L 326.918 92.0693 L 337.6497 68.5149 L 337.0699 68.2207 Z" fill="#000000"/>			<path d="M 382.8499 56.7207 L 336.6373 66.8811 L 336.7685 67.5447 L 382.9811 57.3845 L 382.8499 56.7207 Z" fill="#000000"/>			<path d="M 443.9418 42.2251 L 381.7542 55.791 L 381.8843 56.4546 L 444.0724 42.8887 L 443.9418 42.2251 Z" fill="#000000"/>			<path d="M 431.4391 2.6375 L 430.8423 2.8906 L 444.9953 39.9702 L 445.5922 39.7175 L 431.4391 2.6375 Z" fill="#000000"/>			<path d="M 432.6315 3.426 L 382.0234 55.4272 L 382.4726 55.9133 L 433.0801 3.9121 L 432.6315 3.426 Z" fill="#000000"/>			<path d="M 432.3683 3.3357 L 353.8832 18.7095 L 354.0007 19.3762 L 432.4863 4.0024 L 432.3683 3.3357 Z" fill="#000000"/>			<path d="M 353.3353 18.3792 L 352.8334 18.8035 L 382.4261 57.6914 L 382.9281 57.2671 L 353.3353 18.3792 Z" fill="#000000"/>			<path d="M 353.7732 20.1108 L 283.4371 65.7825 L 283.7744 66.3599 L 354.1106 20.6882 L 353.7732 20.1108 Z" fill="#000000"/>			<path d="M 282.7575 65.2795 L 282.7382 65.9578 L 338.9216 67.7668 L 338.9411 67.0886 L 282.7575 65.2795 Z" fill="#000000"/>			<path d="M 281.6123 65.3191 L 281.3102 65.9182 L 328.058 92.1453 L 328.3602 91.5466 L 281.6123 65.3191 Z" fill="#000000"/>			<path d="M 282.855 63.3499 L 281.5684 122.134 L 282.2117 122.1497 L 283.4983 63.3657 L 282.855 63.3499 Z" fill="#000000"/>			<path d="M 325.0746 92.5391 L 283.6313 121.4854 L 284.2746 121.501 L 325.7179 92.5549 L 325.0746 92.5391 Z" fill="#000000"/>			<path d="M 282.8788 66.3948 L 258.4327 129.7012 L 259.0283 129.9568 L 283.4744 66.6509 L 282.8788 66.3948 Z" fill="#000000"/>			<path d="M 237.8263 48.5688 L 237.6046 49.2061 L 284.3524 67.2939 L 284.5742 66.6567 L 237.8263 48.5688 Z" fill="#000000"/>			<path d="M 236.3078 46.9805 L 235.6922 47.1765 L 258.8518 128.1187 L 259.4674 127.9226 L 236.3078 46.9805 Z" fill="#000000"/>			<path d="M 238.2686 50.1353 L 228.4043 80.884 L 229.0136 81.1011 L 238.8781 50.3525 L 238.2686 50.1353 Z" fill="#000000"/>			<path d="M 170.8142 49.0007 L 170.806 49.679 L 237.2825 50.5833 L 237.2907 49.905 L 170.8142 49.0007 Z" fill="#000000"/>			<path d="M 171.8153 49.9426 L 171.5207 50.5454 L 228.9904 81.7466 L 229.2852 81.1438 L 171.8153 49.9426 Z" fill="#000000"/>			<path d="M 172.747 50.9026 L 172.304 51.394 L 213.9056 92.9961 L 214.3486 92.5046 L 172.747 50.9026 Z" fill="#000000"/>			<path d="M 213.3789 93.1594 L 210.8056 114.8645 L 211.4438 114.9492 L 214.0171 93.2439 L 213.3789 93.1594 Z" fill="#000000"/>			<path d="M 226.7689 97.4807 L 209.6135 115.1162 L 210.0626 115.6025 L 227.218 97.967 L 226.7689 97.4807 Z" fill="#000000"/>			<path d="M 214.2389 92.4319 L 214.0153 93.0679 L 225.5951 97.5891 L 225.8187 96.9536 L 214.2389 92.4319 Z" fill="#000000"/>			<path d="M 225.7352 98.29 L 225.6786 98.9661 L 240.2604 100.3225 L 240.317 99.647 L 225.7352 98.29 Z" fill="#000000"/>			<path d="M 240.5501 101.144 L 240.0273 101.5383 L 258.4691 128.6702 L 258.9919 128.2751 L 240.5501 101.144 Z" fill="#000000"/>			<path d="M 283.1026 121.8125 L 257.7988 128.1428 L 257.9471 128.8022 L 283.2509 122.4717 L 283.1026 121.8125 Z" fill="#000000"/>			<path d="M 136.2265 68.9392 L 135.9149 69.533 L 211.8268 113.8469 L 212.1384 113.2534 L 136.2265 68.9392 Z" fill="#000000"/>			<path d="M 168.9401 50.8506 L 137.6317 68.9385 L 137.9407 69.5337 L 169.2492 51.4456 L 168.9401 50.8506 Z" fill="#000000"/>			<path d="M 101.4828 72.6677 L 101.1801 73.2666 L 154.254 103.1111 L 154.5569 102.5122 L 101.4828 72.6677 Z" fill="#000000"/>			<path d="M 137.0148 68.8982 L 102.9187 71.2722 L 102.9608 71.9487 L 137.0568 69.5747 L 137.0148 68.8982 Z" fill="#000000"/>			<path d="M 136.998 69.4158 L 136.4301 69.7354 L 155.0864 106.7019 L 155.6544 106.3826 L 136.998 69.4158 Z" fill="#000000"/>			<path d="M 71.5499 56.3796 L 71.2842 56.9973 L 102.4852 71.9192 L 102.751 71.3018 L 71.5499 56.3796 Z" fill="#000000"/>			<path d="M 54.4517 100.7883 L 54.2864 101.4441 L 89.3474 111.2788 L 89.5127 110.6233 L 54.4517 100.7883 Z" fill="#000000"/>			<path d="M 152.8273 102.8264 L 152.6621 103.4822 L 212.1232 114.9045 L 212.2885 114.249 L 152.8273 102.8264 Z" fill="#000000"/>			<path d="M 73.004 56.2271 L 72.4034 56.4712 L 91.703 109.3772 L 92.3036 109.1333 L 73.004 56.2271 Z" fill="#000000"/>			<path d="M 70.4712 57.2505 L 54.7099 103.0349 L 55.3149 103.2666 L 71.0762 57.4827 L 70.4712 57.2505 Z" fill="#000000"/>			<path d="M 72.46 55.4497 L 50.587 82.2419 L 51.0746 82.6843 L 72.9475 55.8923 L 72.46 55.4497 Z" fill="#000000"/>			<path d="M 49.2269 84.7808 L 40.5421 139.3823 L 41.1766 139.4956 L 49.8614 84.8938 L 49.2269 84.7808 Z" fill="#000000"/>			<path d="M 48.4913 85.1897 L 4.4238 98.4163 L 4.5996 99.0681 L 48.6671 85.8411 L 48.4913 85.1897 Z" fill="#000000"/>			<path d="M 5.3875 100.2031 L 4.9226 100.6719 L 39.9835 139.3345 L 40.4485 138.865 L 5.3875 100.2031 Z" fill="#000000"/>			<path d="M 54.7152 100.9861 L 39.9189 138.6309 L 40.5132 138.8901 L 55.3095 101.2458 L 54.7152 100.9861 Z" fill="#000000"/>			<path d="M 44.2965 139.5591 C 44.2965 137.6584 42.8352 136.1169 41.0323 136.1169 C 39.2296 136.1169 37.7684 137.6584 37.7684 139.5591 C 37.7684 141.4585 39.2296 143 41.0323 143 C 42.8352 143 44.2965 141.4585 44.2965 139.5591 Z" fill="#000000"/>			<path d="M 94.4101 110.9985 C 94.4101 109.0984 92.9489 107.5571 91.1461 107.5571 C 89.3433 107.5571 87.882 109.0984 87.882 110.9985 C 87.882 112.8984 89.3433 114.4399 91.1461 114.4399 C 92.9489 114.4399 94.4101 112.8984 94.4101 110.9985 Z" fill="#000000"/>			<path d="M 57.6987 101.7783 C 57.6987 99.8779 56.2375 98.3364 54.4347 98.3364 C 52.632 98.3364 51.1707 99.8779 51.1707 101.7783 C 51.1707 103.6785 52.632 105.2195 54.4347 105.2195 C 56.2375 105.2195 57.6987 103.6785 57.6987 101.7783 Z" fill="#000000"/>			<path d="M 53.1625 83.9854 C 53.1625 82.0852 51.7012 80.5437 49.8986 80.5437 C 48.0958 80.5437 46.6344 82.0852 46.6344 83.9854 C 46.6344 85.8853 48.0958 87.4268 49.8986 87.4268 C 51.7012 87.4268 53.1625 85.8853 53.1625 83.9854 Z" fill="#000000"/>			<path d="M 6.5281 99.0999 C 6.5281 97.1995 5.0668 95.6577 3.264 95.6577 C 1.4613 95.6577 0 97.1995 0 99.0999 C 0 100.9993 1.4613 102.5405 3.264 102.5405 C 5.0668 102.5405 6.5281 100.9993 6.5281 99.0999 Z" fill="#000000"/>			<path d="M 74.9371 56.2444 C 74.9371 54.3442 73.4758 52.803 71.6731 52.803 C 69.8703 52.803 68.409 54.3442 68.409 56.2444 C 68.409 58.1443 69.8703 59.6858 71.6731 59.6858 C 73.4758 59.6858 74.9371 58.1443 74.9371 56.2444 Z" fill="#000000"/>			<path d="M 107.2364 72.8892 C 107.2364 70.9885 105.7751 69.4473 103.9723 69.4473 C 102.1696 69.4473 100.7082 70.9885 100.7082 72.8892 C 100.7082 74.7888 102.1696 76.3301 103.9723 76.3301 C 105.7751 76.3301 107.2364 74.7888 107.2364 72.8892 Z" fill="#000000"/>			<path d="M 140.2616 69.0623 C 140.2616 67.1621 138.8003 65.6208 136.9975 65.6208 C 135.1946 65.6208 133.7333 67.1621 133.7333 69.0623 C 133.7333 70.9622 135.1946 72.5037 136.9975 72.5037 C 138.8003 72.5037 140.2616 70.9622 140.2616 69.0623 Z" fill="#000000"/>			<path d="M 158.7705 104.4578 C 158.7705 102.5571 157.3092 101.0161 155.5064 101.0161 C 153.7037 101.0161 152.2424 102.5571 152.2424 104.4578 C 152.2424 106.3577 153.7037 107.8987 155.5064 107.8987 C 157.3092 107.8987 158.7705 106.3577 158.7705 104.4578 Z" fill="#000000"/>			<path d="M 174.1941 50.8887 C 174.1941 48.988 172.7328 47.4465 170.9301 47.4465 C 169.1273 47.4465 167.666 48.988 167.666 50.8887 C 167.666 52.7886 169.1273 54.3296 170.9301 54.3296 C 172.7328 54.3296 174.1941 52.7886 174.1941 50.8887 Z" fill="#000000"/>			<path d="M 217.3811 93.1702 C 217.3811 91.2695 215.9198 89.7283 214.1171 89.7283 C 212.3143 89.7283 210.853 91.2695 210.853 93.1702 C 210.853 95.0698 212.3143 96.6111 214.1171 96.6111 C 215.9198 96.6111 217.3811 95.0698 217.3811 93.1702 Z" fill="#000000"/>			<path d="M 230.9904 97.3787 C 230.9904 95.4783 229.5291 93.937 227.7263 93.937 C 225.9236 93.937 224.4624 95.4783 224.4624 97.3787 C 224.4624 99.2788 225.9236 100.8198 227.7263 100.8198 C 229.5291 100.8198 230.9904 99.2788 230.9904 97.3787 Z" fill="#000000"/>			<path d="M 232.8047 81.3079 C 232.8047 79.4075 231.3434 77.866 229.5407 77.866 C 227.738 77.866 226.2767 79.4075 226.2767 81.3079 C 226.2767 83.2078 227.738 84.749 229.5407 84.749 C 231.3434 84.749 232.8047 83.2078 232.8047 81.3079 Z" fill="#000000"/>			<path d="M 241.1519 49.5491 C 241.1519 47.6487 239.6906 46.1074 237.8879 46.1074 C 236.0852 46.1074 234.6239 47.6487 234.6239 49.5491 C 234.6239 51.449 236.0852 52.9902 237.8879 52.9902 C 239.6906 52.9902 241.1519 51.449 241.1519 49.5491 Z" fill="#000000"/>			<path d="M 244.0553 100.6313 C 244.0553 98.7307 242.594 97.1892 240.7914 97.1892 C 238.9886 97.1892 237.5272 98.7307 237.5272 100.6313 C 237.5272 102.5308 238.9886 104.072 240.7914 104.072 C 242.594 104.072 244.0553 102.5308 244.0553 100.6313 Z" fill="#000000"/>			<path d="M 215.0221 114.7891 C 215.0221 112.8884 213.5608 111.3469 211.7581 111.3469 C 209.9552 111.3469 208.4939 112.8884 208.4939 114.7891 C 208.4939 116.6885 209.9552 118.23 211.7581 118.23 C 213.5608 118.23 215.0221 116.6885 215.0221 114.7891 Z" fill="#000000"/>			<path d="M 260.9309 127.9897 C 260.9309 126.0894 259.4696 124.5479 257.6669 124.5479 C 255.8641 124.5479 254.4028 126.0894 254.4028 127.9897 C 254.4028 129.8894 255.8641 131.4304 257.6669 131.4304 C 259.4696 131.4304 260.9309 129.8894 260.9309 127.9897 Z" fill="#000000"/>			<path d="M 284.1573 121.8679 C 284.1573 119.9673 282.696 118.426 280.8933 118.426 C 279.0906 118.426 277.6293 119.9673 277.6293 121.8679 C 277.6293 123.7676 279.0906 125.3088 280.8933 125.3088 C 282.696 125.3088 284.1573 123.7676 284.1573 121.8679 Z" fill="#000000"/>			<path d="M 286.3348 65.8113 C 286.3348 63.9111 284.8735 62.3696 283.0708 62.3696 C 281.268 62.3696 279.8067 63.9111 279.8067 65.8113 C 279.8067 67.7112 281.268 69.2524 283.0708 69.2524 C 284.8735 69.2524 286.3348 67.7112 286.3348 65.8113 Z" fill="#000000"/>			<path d="M 330.6106 92.022 C 330.6106 90.1218 329.1493 88.5806 327.3465 88.5806 C 325.5438 88.5806 324.0825 90.1218 324.0825 92.022 C 324.0825 93.9216 325.5438 95.4629 327.3465 95.4629 C 329.1493 95.4629 330.6106 93.9216 330.6106 92.022 Z" fill="#000000"/>			<path d="M 340.4093 67.5332 C 340.4093 65.6333 338.948 64.0918 337.1453 64.0918 C 335.3424 64.0918 333.8811 65.6333 333.8811 67.5332 C 333.8811 69.4331 335.3424 70.9746 337.1453 70.9746 C 338.948 70.9746 340.4093 69.4331 340.4093 67.5332 Z" fill="#000000"/>			<path d="M 386.3181 56.2458 C 386.3181 54.3457 384.8568 52.804 383.054 52.804 C 381.2513 52.804 379.7899 54.3457 379.7899 56.2458 C 379.7899 58.1455 381.2513 59.6873 383.054 59.6873 C 384.8568 59.6873 386.3181 58.1455 386.3181 56.2458 Z" fill="#000000"/>			<path d="M 436.6234 119.0364 C 436.6234 117.1357 435.162 115.5942 433.359 115.5942 C 431.556 115.5942 430.0947 117.1357 430.0947 119.0364 C 430.0947 120.9358 431.556 122.4771 433.359 122.4771 C 435.162 122.4771 436.6234 120.9358 436.6234 119.0364 Z" fill="#000000"/>			<path d="M 465.7738 105.2312 C 465.7738 103.3311 464.3126 101.7898 462.5095 101.7898 C 460.7064 101.7898 459.2451 103.3311 459.2451 105.2312 C 459.2451 107.1311 460.7064 108.6726 462.5095 108.6726 C 464.3126 108.6726 465.7738 107.1311 465.7738 105.2312 Z" fill="#000000"/>			<path d="M 487.266 64.3384 C 487.266 62.4377 485.8047 60.8962 484.0017 60.8962 C 482.1986 60.8962 480.7373 62.4377 480.7373 64.3384 C 480.7373 66.2378 482.1986 67.7793 484.0017 67.7793 C 485.8047 67.7793 487.266 66.2378 487.266 64.3384 Z" fill="#000000"/>			<path d="M 537.91 51.5747 C 537.91 49.6743 536.4487 48.1328 534.6456 48.1328 C 532.8425 48.1328 531.3812 49.6743 531.3812 51.5747 C 531.3812 53.4744 532.8425 55.0159 534.6456 55.0159 C 536.4487 55.0159 537.91 53.4744 537.91 51.5747 Z" fill="#000000"/>			<path d="M 579.4129 70.8496 C 579.4129 68.949 577.9516 67.4075 576.1484 67.4075 C 574.3454 67.4075 572.8842 68.949 572.8842 70.8496 C 572.8842 72.749 574.3454 74.2905 576.1484 74.2905 C 577.9516 74.2905 579.4129 72.749 579.4129 70.8496 Z" fill="#000000"/>			<path d="M 353.253 129.9194 C 353.253 128.0198 351.7917 126.478 349.9886 126.478 C 348.1856 126.478 346.7243 128.0198 346.7243 129.9194 C 346.7243 131.8193 348.1856 133.3608 349.9886 133.3608 C 351.7917 133.3608 353.253 131.8193 353.253 129.9194 Z" fill="#000000"/>			<path d="M 638.2089 33.0813 C 638.2089 31.1812 636.7476 29.6396 634.9445 29.6396 C 633.1415 29.6396 631.6802 31.1812 631.6802 33.0813 C 631.6802 34.9812 633.1415 36.5227 634.9445 36.5227 C 636.7476 36.5227 638.2089 34.9812 638.2089 33.0813 Z" fill="#000000"/>			<path d="M 684.8992 58.3467 C 684.8992 56.4458 683.4379 54.9045 681.6349 54.9045 C 679.8318 54.9045 678.3706 56.4458 678.3706 58.3467 C 678.3706 60.2461 679.8318 61.7874 681.6349 61.7874 C 683.4379 61.7874 684.8992 60.2461 684.8992 58.3467 Z" fill="#000000"/>			<path d="M 718.0026 86.7375 C 718.0026 84.8372 716.5413 83.2957 714.7383 83.2957 C 712.9352 83.2957 711.4739 84.8372 711.4739 86.7375 C 711.4739 88.6372 712.9352 90.1787 714.7383 90.1787 C 716.5413 90.1787 718.0026 88.6372 718.0026 86.7375 Z" fill="#000000"/>			<path d="M 760 79.1843 C 760 77.2842 758.5387 75.7427 756.7357 75.7427 C 754.9327 75.7427 753.4714 77.2842 753.4714 79.1843 C 753.4714 81.084 754.9327 82.6255 756.7357 82.6255 C 758.5387 82.6255 760 81.084 760 79.1843 Z" fill="#000000"/>			<path d="M 727.8842 62.2539 C 727.8842 60.3535 726.4229 58.812 724.6199 58.812 C 722.8168 58.812 721.3556 60.3535 721.3556 62.2539 C 721.3556 64.1531 722.8168 65.6948 724.6199 65.6948 C 726.4229 65.6948 727.8842 64.1531 727.8842 62.2539 Z" fill="#000000"/>			<path d="M 434.5853 3.4417 C 434.5853 1.5415 433.124 0 431.3217 0 C 429.5192 0 428.0579 1.5415 428.0579 3.4417 C 428.0579 5.3416 429.5192 6.8828 431.3217 6.8828 C 433.124 6.8828 434.5853 5.3416 434.5853 3.4417 Z" fill="#000000"/>			<path d="M 447.1063 42.2795 C 447.1063 40.3792 445.645 38.8376 443.8425 38.8376 C 442.04 38.8376 440.5788 40.3792 440.5788 42.2795 C 440.5788 44.1792 442.04 45.7207 443.8425 45.7207 C 445.645 45.7207 447.1063 44.1792 447.1063 42.2795 Z" fill="#000000"/>			<path d="M 356.9223 20.2783 C 356.9223 18.3777 355.4611 16.8364 353.6583 16.8364 C 351.8555 16.8364 350.3942 18.3777 350.3942 20.2783 C 350.3942 22.178 351.8555 23.7192 353.6583 23.7192 C 355.4611 23.7192 356.9223 22.178 356.9223 20.2783 Z" fill="#000000"/>		</g>	</g></svg>