<?xml version="1.0" standalone="no"?><!-- Generator: Adobe Fireworks CS6, Export SVG Extension by Aaron Beall (http://fireworks.abeall.com) . Version: 0.6.1  --><!DOCTYPE svg PUBLIC "-//W3C//DTD SVG 1.1//EN" "http://www.w3.org/Graphics/SVG/1.1/DTD/svg11.dtd"><svg id="Untitled-Page%201" viewBox="0 0 257 193" style="background-color:#ffffff00" version="1.1"	xmlns="http://www.w3.org/2000/svg" xmlns:xlink="http://www.w3.org/1999/xlink" xml:space="preserve"	x="0px" y="0px" width="257px" height="199px">	<g id="Layer%201">		<g>			<path d="M 58.3126 84.7969 L 55.1421 83.2129 L 60.9547 82.1567 L 60.4263 84.7969 L 58.3126 84.7969 Z" stroke="#ffffff00" stroke-width="1" fill="#cccccc"/>			<g>				<g>					<path d="M 148.4247 165.0273 L 186.4025 163.7559 L 186.6193 163.7485 L 187.9067 163.7485 C 187.9067 163.7485 190.0524 173.625 190.4816 175.0464 C 190.9107 176.4673 191.626 183.0752 191.3398 184.4258 C 191.0538 185.7754 191.626 188.3335 187.0484 188.9023 C 182.4707 189.4702 171.9565 190.5361 171.599 190.6074 C 171.2413 190.6787 166.163 191.1045 164.0887 191.0337 C 162.0145 190.9624 114.0926 191.46 114.0926 191.46 L 113.2343 190.6074 C 112.9482 190.394 113.6635 189.9678 113.6635 189.9678 L 116.6674 189.5415 C 116.6674 189.5415 136.151 188.0234 143.0604 187.1968 C 149.9697 186.3701 149.4976 177.1777 149.4976 177.1777 L 148.4247 165.0273 ZM 186.4045 163.7485 L 186.6193 163.7485 L 186.4025 163.7559 L 186.4045 163.7485 Z" fill="#ffffff"/>					<path d="M 189.1941 174.833 C 188.8365 172.7012 186.6193 163.7485 186.6193 163.7485 L 187.9067 163.7485 C 187.9067 163.7485 190.0524 173.625 190.4816 175.0464 C 190.9107 176.4673 191.626 183.0752 191.3398 184.4258 C 191.0538 185.7754 191.626 188.3335 187.0484 188.9023 C 182.4707 189.4702 171.9565 190.5361 171.599 190.6074 C 171.2413 190.6787 166.163 191.1045 164.0887 191.0337 C 162.0145 190.9624 114.0926 191.46 114.0926 191.46 L 113.2343 190.6074 C 113.5205 190.8203 163.445 189.9678 163.445 189.9678 L 167.5148 189.6514 C 167.5148 189.6514 173.8877 189.6123 177.607 188.6885 C 181.3263 187.7651 187.6921 186.5566 187.6921 186.5566 C 187.6921 186.5566 189.7664 186.5566 190.2668 184.2124 C 190.7677 181.8672 189.5517 176.9648 189.1941 174.833 ZM 186.4045 163.7485 L 186.6193 163.7485 L 186.4025 163.7559 L 186.4045 163.7485 Z" fill="#dadada"/>					<path d="M 186.6193 163.9619 L 187.9067 163.9619 C 187.9067 163.9619 190.0524 173.8384 190.4816 175.2598 C 190.8332 176.4238 191.3768 181.0723 191.4042 183.4561 L 148.296 183.5566 C 149.6685 180.7246 149.4976 177.3906 149.4976 177.3906 L 148.4247 165.2407 L 186.4025 163.9692 L 186.6193 163.9619 ZM 186.4045 163.9619 L 186.6193 163.9619 L 186.4025 163.9692 L 186.4045 163.9619 Z" fill="#dadada"/>					<path d="M 243.0525 162.2563 L 245.4229 162.0908 C 248.1608 162.0225 253.7048 161.8799 253.996 156.7139 C 254.287 151.5479 257 8.5645 257 8.5645 C 257 8.5645 256.9949 7.7769 256.7854 7.2852 C 256.5759 6.7939 253.667 2.4697 253.667 2.4697 L 246.1265 1.79 L 242.6234 137.103 L 225.6719 162.8955 L 243.0525 162.2563 Z" stroke="#ffffff00" stroke-width="1" fill="#dadada"/>					<path d="M 251.1176 138.6084 L 251.22 153.7295 C 251.22 153.7295 252.2214 161.4038 244.3535 162.043 C 236.4858 162.6826 140.7001 165.4536 140.7001 165.4536 L 58.5176 168.438 C 58.5176 168.438 52.2234 168.7935 52.5094 164.3882 C 52.7955 159.9824 54.8392 148.8633 54.8392 148.8633 L 149.4976 144.7769 L 251.1176 138.6084 Z" stroke="#ffffff00" stroke-width="1" fill="#ffffff"/>					<path d="M 247.3441 0.4775 C 247.3441 0.4775 254.1389 -1.9385 254.2104 4.1011 C 254.2821 10.1406 253.7813 28.6147 253.7813 28.6147 L 251.2064 138.1816 L 54.6552 149.9058 C 54.6552 149.9058 65.1694 44.6025 65.384 44.3892 C 65.5985 44.1758 65.223 39.1133 71.1775 37.9941 C 77.132 36.875 247.3441 0.4775 247.3441 0.4775 Z" stroke="#ffffff00" stroke-width="1" fill="#313133"/>					<path d="M 244.5546 10.6963 L 71.8212 45.4419 L 62.3799 142.3203 L 241.5505 130.3833 L 244.5546 10.6963 Z" fill="#10adbc"/>				</g>				<path d="M 148.7366 28.9043 L 244.8143 8.9771 L 241.7605 129.8164 L 145.295 136.207 L 148.7366 28.9043 Z" fill="#1695a4"/>				<path d="M 230.0504 60.5078 L 234.2672 61.9121 L 234.4547 61.9756 L 234.8062 62.0918 L 234.8696 61.7192 C 236.262 60.855 237.468 59.999 238.7986 58.9316 L 238.1871 53.6895 C 239.4998 52.458 240.551 51.3169 241.6682 49.9102 L 247.1648 49.8843 C 248.2324 48.3145 249.0496 46.9199 249.8804 45.251 L 246.5176 41.6172 C 247.1622 40.0088 247.5963 38.6074 247.9551 36.9751 L 253.3263 34.1118 C 253.5442 32.3916 253.6096 30.9346 253.5437 29.27 L 252.0565 28.9941 L 249.6021 27.2412 L 248.9495 28.416 L 248.3613 28.3086 C 248.1516 26.79 247.8445 25.5342 247.3445 24.1494 L 251.0739 19.3135 C 250.4355 18.0361 249.788 16.9946 248.9495 15.9019 L 249.0736 15.625 L 244.8462 14.0405 L 243.1289 17.4727 C 242.1875 16.5342 241.2727 15.8086 240.1272 15.0869 L 241.2562 9.707 C 239.8979 9.0654 238.6692 8.624 237.174 8.2402 L 232.816 12.4028 C 231.3535 12.1763 230.0547 12.1035 228.5144 12.1602 L 226.8915 7.7168 L 226.8691 7.7197 L 226.8798 7.7041 L 222.6523 6.1201 L 219.4819 11.9287 L 221.0037 11.625 L 220.0659 13.9014 C 218.5303 14.4746 217.2305 15.0767 215.7596 15.8955 L 211.9624 13.4941 C 210.4781 14.4775 209.2523 15.4043 207.8882 16.5762 L 208.3819 21.4414 C 207.1644 22.6406 206.1904 23.7432 205.1556 25.0928 L 200.236 25.2661 C 199.2639 26.7451 198.517 28.0537 197.7536 29.6147 L 200.6555 32.96 C 200.05 34.4761 199.6365 35.7969 199.285 37.3359 L 194.4958 40.0098 C 194.2651 41.6201 194.1733 42.9893 194.1909 44.5591 L 198.748 45.5654 C 198.9047 47.0244 199.1548 48.2383 199.577 49.5864 L 196.9314 53.0752 C 196.5318 53.0947 196.2312 53.1152 196.2312 53.1152 L 194.646 56.2832 L 197.8166 57.8672 L 197.9064 57.4473 L 198.1169 57.7627 L 203.1897 56.127 C 204.0856 57.1592 204.9522 57.9561 206.0601 58.7656 L 204.9183 64.0859 C 206.1874 64.8198 207.3459 65.3472 208.7681 65.8369 L 213.0226 61.876 C 214.1062 62.1182 215.1045 62.2651 216.1897 62.3369 L 214.7261 65.2598 C 214.7261 65.2598 217.3574 66.2393 218.7103 66.6592 L 218.8623 67.1045 C 220.5178 66.9956 221.9546 66.7852 223.6367 66.4063 L 225.8364 61.0801 C 227.4299 60.5674 228.7867 60.0068 230.33 59.2236 L 230.0504 60.5078 ZM 223.6078 24.7896 C 230.553 23.4492 235.9808 27.9473 235.623 34.8818 C 235.2634 41.853 229.2074 48.4912 222.207 49.6489 C 215.3149 50.7886 210.1369 46.1655 210.5508 39.377 C 210.9626 32.6226 216.769 26.1094 223.6078 24.7896 ZM 234.4041 62.0059 L 234.4547 61.9756 L 234.2672 61.9121 L 234.4041 62.0059 Z" fill="#71797f"/>				<g>					<path d="M 219.562 7.123 C 221.2024 6.6494 222.6128 6.3511 224.2493 6.1323 L 225.8723 10.5762 C 227.4126 10.5195 228.7114 10.5923 230.174 10.8188 L 234.5317 6.6563 C 236.0271 7.04 237.2559 7.4814 238.6141 8.123 L 237.4851 13.5029 C 238.6807 14.2563 239.6245 15.0142 240.6101 16.0137 L 246.1289 14.0889 C 247.0557 15.2676 247.7488 16.3628 248.4318 17.7295 L 244.7024 22.5654 C 245.2023 23.9502 245.5095 25.2061 245.7192 26.7246 L 250.9016 27.686 C 250.9675 29.3506 250.9021 30.8076 250.6842 32.5273 L 245.313 35.3906 C 244.9542 37.0234 244.5201 38.4248 243.8754 40.0332 L 247.2383 43.667 C 246.4075 45.3359 245.5903 46.7305 244.5226 48.2998 L 239.0261 48.3262 C 237.9089 49.7329 236.8577 50.874 235.5449 52.1055 L 236.1565 57.3477 C 234.6797 58.5322 233.3572 59.457 231.762 60.4214 L 227.6879 57.6396 C 226.1447 58.4229 224.7878 58.9829 223.1942 59.4961 L 220.9946 64.8218 C 219.3125 65.2012 217.8757 65.4111 216.2202 65.5205 L 214.6152 60.7993 C 213.0874 60.7642 211.8091 60.6104 210.3805 60.2915 L 206.1259 64.2529 C 204.7038 63.7627 203.5453 63.2354 202.2761 62.502 L 203.418 57.1816 C 202.31 56.3721 201.4435 55.5752 200.5475 54.543 L 195.4749 56.1787 C 194.6668 54.9873 194.0703 53.8945 193.4924 52.5454 L 196.9349 48.002 C 196.5128 46.6543 196.2626 45.4404 196.1058 43.9814 L 191.5488 42.9746 C 191.5311 41.4048 191.623 40.0361 191.8536 38.4253 L 196.6429 35.752 C 196.9944 34.2129 197.408 32.8916 198.0133 31.376 L 195.1115 28.0303 C 195.8749 26.4692 196.6217 25.1611 197.5939 23.6816 L 202.5135 23.5088 C 203.5483 22.1592 204.5222 21.0566 205.7397 19.8574 L 205.2462 14.9917 C 206.6102 13.8203 207.8359 12.8936 209.3203 11.9102 L 213.1176 14.3115 C 214.5883 13.4927 215.8882 12.8906 217.4238 12.3174 L 219.562 7.123 ZM 220.9657 23.2056 C 227.9109 21.8652 233.3386 26.3633 232.981 33.2979 C 232.6213 40.269 226.5652 46.9072 219.5649 48.0645 C 212.6729 49.2046 207.4948 44.5811 207.9088 37.7925 C 208.3204 31.0381 214.127 24.5254 220.9657 23.2056 Z" fill="#dbf1fe"/>				</g>				<g>					<path d="M 178.8567 21.6523 L 178.3903 22.667 C 177.2779 23.1938 176.3318 23.7852 175.3184 24.5859 L 171.7578 23.8647 C 170.9826 24.6606 170.3605 25.394 169.6973 26.293 L 170.7714 29.9287 C 170.132 31.0684 169.6827 32.1133 169.3128 33.3218 L 165.6393 35.7383 C 165.4755 36.7632 165.4069 37.6367 165.4124 38.6309 L 168.8214 39.6943 C 169.0137 40.8013 169.3138 41.71 169.7967 42.6431 L 169.1706 44.21 C 168.5812 44.5879 165.8755 46.3291 166.1111 46.2505 C 166.3027 46.1865 167.6076 46.7725 168.3093 47.0977 C 168.7881 47.6641 169.2693 48.123 169.8672 48.5884 L 173.6782 46.4277 C 174.162 46.6567 174.6362 46.8335 175.1313 46.9658 C 174.5405 47.854 173.938 48.8906 174.0375 48.8906 C 174.173 48.8906 176.6021 49.8281 177.7153 50.2607 L 177.9375 50.8496 C 178.9001 50.7764 179.7408 50.6309 180.7212 50.3682 L 182.6745 46.1436 C 183.8131 45.6348 184.7852 45.0522 185.8298 44.2529 L 189.5618 45.0986 C 190.375 44.2881 191.0282 43.5381 191.7245 42.6143 L 190.5475 38.8184 C 191.2123 37.6465 191.6767 36.5703 192.0556 35.3252 L 195.9525 32.8247 C 196.1135 31.7622 196.1741 30.8584 196.1531 29.8325 L 192.5031 28.7861 C 192.2876 27.6621 191.9613 26.7446 191.4444 25.8086 L 193.1682 21.5078 C 192.6372 20.9014 192.1227 20.4268 191.4938 19.9648 L 191.4753 19.8486 L 187.7765 18.2646 L 186.3867 21.7549 C 185.7749 21.5762 185.1489 21.4678 184.4474 21.4185 L 183.0686 17.915 L 182.841 17.9429 L 183.0206 17.7368 L 179.3217 16.1528 L 176.1511 19.8486 L 178.8567 21.6523 ZM 180.9916 27.7607 C 184.4113 27.0786 186.999 29.4707 186.7421 33.1138 C 186.4843 36.7671 183.4681 40.2563 180.0353 40.8887 C 176.6298 41.5156 174.1066 39.0889 174.3774 35.4854 C 174.6474 31.8916 177.5992 28.4375 180.9916 27.7607 Z" fill="#9a4321"/>				</g>				<g>					<path d="M 176.6124 16.9116 C 177.5793 16.6172 178.412 16.4424 179.3696 16.3311 L 180.7485 19.8345 C 181.8352 19.9111 182.7424 20.126 183.6931 20.5322 L 187.6098 18.2476 C 188.3254 18.752 188.8868 19.2583 189.4691 19.9238 L 187.7454 24.2246 C 188.2624 25.1602 188.5886 26.0776 188.8041 27.2021 L 192.4541 28.2485 C 192.4751 29.2744 192.4146 30.1782 192.2535 31.2402 L 188.3566 33.7407 C 187.9778 34.9863 187.5132 36.0625 186.8487 37.2344 L 188.0255 41.0303 C 187.3292 41.9541 186.676 42.7041 185.8627 43.5146 L 182.1309 42.6689 C 181.0863 43.4678 180.1141 44.0508 178.9754 44.5596 L 177.0222 48.7842 C 176.0417 49.0469 175.2012 49.1924 174.2386 49.2656 L 172.8743 45.6421 C 171.7997 45.5283 170.9078 45.2822 169.9792 44.8438 L 166.1683 47.0044 C 165.4881 46.4756 164.9576 45.9526 164.4114 45.2729 L 166.0976 41.0591 C 165.6149 40.126 165.3148 39.2173 165.1224 38.1104 L 161.7135 37.0469 C 161.7079 36.0527 161.7766 35.1792 161.9404 34.1543 L 165.6139 31.7378 C 165.9838 30.5293 166.4329 29.4844 167.0724 28.3447 L 165.9984 24.709 C 166.6614 23.8101 167.2836 23.0767 168.0588 22.2803 L 171.6193 23.002 C 172.6328 22.2012 173.5789 21.6099 174.6913 21.0825 L 176.6124 16.9116 ZM 177.2927 26.1768 C 180.7123 25.4946 183.2999 27.8867 183.043 31.5293 C 182.7855 35.1831 179.7691 38.6719 176.3364 39.3047 C 172.9309 39.9316 170.4076 37.5049 170.6783 33.9014 C 170.9484 30.3076 173.9002 26.8535 177.2927 26.1768 Z" fill="#ab4b25"/>				</g>				<path d="M 168.0874 128.5713 L 168.2248 128.624 L 168.2565 128.6006 L 168.0874 128.5713 ZM 167.6567 128.4917 L 168.0874 128.5713 L 168.2565 128.6006 C 169.3211 128.7852 170.3073 128.8979 171.4512 128.9648 L 174.3947 123.1338 C 175.6134 123.1074 176.663 123.0156 177.9002 122.8262 L 178.5502 124.4575 L 176.1511 126.5117 L 179.9319 127.9297 L 180.0674 128.2666 C 181.4829 127.9604 182.6873 127.625 184.0925 127.1445 L 185.0355 120.79 C 186.2617 120.2749 187.2926 119.7705 188.4788 119.1045 L 188.9126 119.5205 L 189.3618 121.7598 L 192.2707 122.7285 L 192.59 123.0332 C 193.9155 122.1904 195.0157 121.4072 196.2673 120.415 L 194.973 114.4409 C 196.0277 113.4966 196.8887 112.6401 197.8483 111.5811 L 203.3826 113.377 C 204.4166 112.1064 205.2446 110.9795 206.1492 109.6113 L 202.7268 104.9131 C 203.4503 103.6709 204.0099 102.584 204.5961 101.2822 L 210.7736 100.6455 C 211.3545 99.1328 211.7798 97.8291 212.1952 96.2866 L 207.1104 93.5796 C 207.3922 92.2231 207.5652 91.0664 207.6884 89.7158 L 213.6089 86.7441 C 213.6448 85.3564 213.613 84.1689 213.5054 82.8486 L 213.6692 82.6846 L 213.4843 82.5928 L 213.4722 82.4561 L 213.1804 82.4395 L 209.4418 80.5728 L 208.2978 82.1729 L 207.4684 82.1284 C 207.2698 80.8604 207.0342 79.8057 206.6809 78.6064 L 211.496 73.7808 C 210.9976 72.4731 210.5054 71.4023 209.8505 70.2012 L 209.7457 70.2363 L 209.9703 70.0122 L 205.7429 68.4277 L 204.1576 70.0122 L 205.1694 71.7837 L 203.8012 72.2451 C 203.1614 71.2476 202.5601 70.4463 201.7922 69.5684 L 204.8622 63.6445 C 204.0442 62.8604 203.2935 62.2241 202.4191 61.5767 L 202.5723 61.0352 C 202.5723 61.0352 197.9927 59.5391 197.8166 59.4512 C 197.6599 59.373 197.7121 63.4678 197.7875 64.502 L 196.736 65.3096 C 195.7588 64.7158 194.8876 64.2725 193.8265 63.8281 L 194.8121 57.6812 C 193.567 57.2832 192.4774 57.0161 191.1703 56.7881 L 187.367 62.189 C 186.1981 62.0645 185.1855 62.0264 183.9847 62.0605 L 182.8912 56.6689 L 183.0206 56.2832 L 179.3217 54.6992 L 176.1511 59.9795 L 178.1195 59.7998 L 177.0343 63.1621 C 175.8339 63.5063 174.8174 63.8633 173.6387 64.3535 L 170.6638 60.1362 L 170.4019 60.2676 L 170.3384 59.9795 L 167.1679 58.3955 L 165.5826 64.7319 L 167.0569 64.7319 L 167.1074 67.9585 C 166.0293 68.7129 165.1376 69.4067 164.1282 70.2769 L 159.7552 67.8604 C 158.671 68.9063 157.7862 69.8418 156.7975 70.9902 L 158.8196 75.8662 C 157.9939 76.9268 157.3337 77.8643 156.6142 78.999 L 151.4296 78.6421 C 150.6902 79.9561 150.1136 81.1006 149.5024 82.4688 L 153.156 85.853 C 152.6803 87.0869 152.3293 88.1514 151.9842 89.4102 L 146.6429 91.1421 C 146.3336 92.5664 146.1321 93.7822 145.9697 95.2051 L 150.788 96.688 C 150.7202 97.9453 150.722 99.0068 150.7942 100.2358 L 147.8461 102.4521 L 147.6163 102.2222 C 147.6163 102.2222 143.0366 106.2705 142.8604 106.4463 C 142.7219 106.585 145.4161 107.1582 146.5726 107.397 L 146.6392 107.6777 L 152.0256 107.0488 C 152.3796 108.1743 152.7392 109.1016 153.2266 110.1484 L 151.7115 112.2549 L 149.2015 112.2549 L 147.6163 116.479 L 151.1011 117.7861 C 151.233 117.9736 151.3699 118.1621 151.5122 118.3545 L 156.7819 115.6323 C 157.5239 116.4795 158.2049 117.1514 159.0566 117.877 L 157.6431 122.1025 L 157.1279 121.7598 L 156.071 124.3994 L 159.1279 125.2734 C 159.4418 125.459 159.7664 125.6396 160.1099 125.8242 L 164.5479 121.2803 C 165.5938 121.7295 166.5175 122.0479 167.6337 122.3447 L 167.6461 125.4189 L 163.9974 127.04 L 167.6567 128.4102 L 167.6567 128.4917 ZM 179.5386 75.8828 C 188.1705 74.6489 194.8095 81.1226 194.194 90.4131 C 193.5739 99.7686 185.8616 108.1582 177.1469 109.0654 C 168.6082 109.9536 162.3773 103.2891 163.0787 94.2603 C 163.7755 85.291 171.0795 77.0918 179.5386 75.8828 Z" fill="#937500"/>				<g>					<path d="M 175.2668 55.5908 C 176.6348 55.2822 177.8011 55.0889 179.165 54.9468 L 180.2858 60.4766 C 181.4865 60.4424 182.4991 60.4805 183.668 60.6045 L 187.4712 55.2041 C 188.7784 55.4321 189.868 55.6992 191.1133 56.0972 L 190.1276 62.2441 C 191.1887 62.6885 192.0598 63.1313 193.037 63.7256 L 198.2953 59.6836 C 199.358 60.4414 200.2161 61.1523 201.1632 62.0605 L 198.0934 67.9844 C 198.861 68.8623 199.4624 69.6631 200.1022 70.6611 L 206.1515 68.6172 C 206.8063 69.8184 207.2986 70.8892 207.797 72.1963 L 202.9819 77.0225 C 203.3351 78.2217 203.5709 79.2759 203.7695 80.5439 L 209.7733 80.8721 C 209.9082 82.3535 209.9493 83.6362 209.9099 85.1602 L 203.9894 88.1318 C 203.8662 89.4824 203.6932 90.6392 203.4114 91.9956 L 208.4962 94.7026 C 208.0809 96.2451 207.6554 97.5488 207.0746 99.0605 L 200.897 99.6978 C 200.3109 100.9995 199.7513 102.0864 199.0278 103.3291 L 202.4503 108.0273 C 201.5456 109.3955 200.7177 110.5225 199.6837 111.793 L 194.1494 109.9971 C 193.1897 111.0562 192.3287 111.9121 191.274 112.8569 L 192.5683 118.8311 C 191.3168 119.8232 190.2166 120.6064 188.8911 121.4492 L 184.7798 117.52 C 183.5937 118.186 182.5627 118.6909 181.3365 119.2061 L 180.3935 125.5605 C 178.9882 126.041 177.7839 126.3765 176.3685 126.6826 L 174.2013 121.2422 C 172.964 121.4316 171.9146 121.5234 170.6956 121.5493 L 167.7523 127.3804 C 166.3973 127.3018 165.2621 127.1602 163.9577 126.9072 L 163.9349 120.7607 C 162.8184 120.4639 161.8947 120.1455 160.8488 119.6963 L 156.4109 124.2402 C 155.287 123.6372 154.3701 123.0586 153.3463 122.3062 L 155.3577 116.2925 C 154.5058 115.5674 153.8248 114.8955 153.083 114.0479 L 147.8132 116.7705 C 147.0557 115.7437 146.4658 114.8213 145.8414 113.686 L 149.5276 108.564 C 149.0401 107.5176 148.6807 106.5898 148.3267 105.4648 L 142.9402 106.0933 C 142.6296 104.7861 142.4278 103.6455 142.2658 102.2813 L 147.0953 98.6514 C 147.023 97.4229 147.0211 96.3613 147.0891 95.104 L 142.2708 93.6206 C 142.4332 92.1978 142.6346 90.9824 142.9439 89.5581 L 148.2852 87.8257 C 148.6304 86.5674 148.9813 85.5029 149.4572 84.269 L 145.8035 80.8843 C 146.4148 79.5166 146.9913 78.3721 147.7307 77.0581 L 152.9153 77.415 C 153.6348 76.2803 154.2949 75.3428 155.1207 74.2822 L 153.0984 69.4063 C 154.0873 68.2578 154.972 67.3218 156.0563 66.2764 L 160.4292 68.6929 C 161.4386 67.8228 162.3304 67.1284 163.4085 66.374 L 163.317 60.5869 C 164.5703 59.8032 165.6613 59.1943 166.9648 58.5518 L 169.9397 62.7695 C 171.1185 62.2793 172.1349 61.9224 173.3353 61.5776 L 175.2668 55.5908 ZM 175.8398 74.2988 C 184.4715 73.0649 191.1106 79.5381 190.495 88.8291 C 189.8751 98.1846 182.1627 106.5742 173.4478 107.4814 C 164.9092 108.3691 158.6783 101.7051 159.3798 92.6763 C 160.0765 83.707 167.3806 75.5078 175.8398 74.2988 Z" fill="#f2c300"/>				</g>				<g>					<path d="M 222.894 28.0771 C 227.9243 27.125 231.8303 30.3794 231.5662 35.374 C 231.3008 40.3877 226.9417 45.168 221.8828 46.0249 C 216.8809 46.8726 213.1057 43.5518 213.3994 38.6338 C 213.6919 33.7334 217.92 29.0186 222.894 28.0771 ZM 222.7181 31.2002 C 225.9845 30.5928 228.5082 32.7168 228.333 35.9541 C 228.1575 39.2002 225.3392 42.2993 222.0607 42.8662 C 218.8062 43.4292 216.3379 41.2783 216.5254 38.0732 C 216.7126 34.875 219.4755 31.8032 222.7181 31.2002 Z" fill="#71797f"/>				</g>				<g>					<path d="M 220.7804 26.4932 C 225.8105 25.54 229.7167 28.7954 229.4524 33.79 C 229.187 38.8037 224.8279 43.584 219.7692 44.4409 C 214.7671 45.2881 210.992 41.9678 211.2856 37.0498 C 211.5784 32.1494 215.8063 27.4346 220.7804 26.4932 ZM 220.6044 29.6162 C 223.8707 29.0088 226.3945 31.1323 226.2194 34.3701 C 226.0437 37.6157 223.2256 40.7153 219.947 41.2822 C 216.6925 41.8447 214.2241 39.6943 214.4119 36.4888 C 214.5991 33.291 217.3618 30.2192 220.6044 29.6162 Z" fill="#dbf1fe"/>				</g>				<g>					<path d="M 177.1498 77.8032 C 183.7157 76.8936 188.7298 81.8164 188.254 88.8442 C 187.7759 95.9087 181.9489 102.2549 175.3354 102.9756 C 168.8238 103.6851 164.0463 98.6523 164.5715 91.7764 C 165.0938 84.9346 170.6845 78.6987 177.1498 77.8032 ZM 176.9938 79.9688 C 182.4161 79.2314 186.5427 83.3081 186.146 89.1055 C 185.7472 94.9268 180.9492 100.1641 175.4941 100.7729 C 170.1088 101.3735 166.1437 97.2217 166.5743 91.5283 C 167.0032 85.8584 171.64 80.6968 176.9938 79.9688 Z" fill="#937500"/>				</g>				<g>					<path d="M 175.5646 76.7471 C 182.1304 75.8379 187.1443 80.7603 186.6689 87.7881 C 186.1907 94.8525 180.3635 101.1992 173.7501 101.9199 C 167.2386 102.6289 162.4611 97.5967 162.9861 90.7207 C 163.5086 83.8789 169.0992 77.6426 175.5646 76.7471 ZM 175.4086 78.9131 C 180.831 78.1758 184.9574 82.252 184.5607 88.0493 C 184.162 93.8711 179.3639 99.1084 173.9089 99.7168 C 168.5235 100.3174 164.5584 96.166 164.9892 90.4727 C 165.4179 84.8027 170.0547 79.6406 175.4086 78.9131 Z" fill="#fec110"/>				</g>				<path d="M 179.1261 25.9585 C 175.8 25.4102 172.853 26.8638 171.0458 31.0181 C 169.2399 35.1699 169.7899 38.8804 174.0936 39.4775 C 180.3094 40.2705 206.5554 44.9326 216.5311 45.2656 C 220.8303 45.8467 226.98 42.3467 228.7894 36.7783 C 230.6895 30.9302 229.3674 26.3135 221.2471 25.8145 C 214.3284 26.3999 185.3963 26.4619 179.1261 25.9585 Z" stroke="#15161e" stroke-width="1" fill="none"/>				<path d="M 165.964 100.2979 C 160.4299 95.9971 162.77 85.5342 167.6729 80.9175 C 172.3902 74.6699 206.5718 38.1689 211.0562 32.7324 C 216.4546 26.1885 221.5715 24.3535 225.6022 26.5425 C 230.3474 29.1196 229.6052 33.8154 226.8958 37.8516 C 219.9072 50.6504 184.9105 96.1914 184.9105 96.1914 C 180.3771 102.6821 171.8616 104.6489 165.964 100.2979 Z" stroke="#15161e" stroke-width="1" fill="none"/>				<path d="M 149.2015 31.9937 L 150.2584 35.1621 L 146.0309 35.6899 L 149.2015 31.9937 Z" fill="#cccccc"/>				<g>					<g>						<path d="M 105.0806 52.0298 C 111.738 50.7852 116.6213 55.979 115.8793 63.6909 C 115.1329 71.4473 109.0049 78.6055 102.3021 79.6226 C 95.714 80.6221 91.1 75.2852 91.8909 67.7559 C 92.6773 60.2686 98.5361 53.2529 105.0806 52.0298 ZM 104.6807 56.0015 C 109.3973 55.1436 112.8339 58.8442 112.302 64.2969 C 111.7681 69.772 107.4485 74.8364 102.709 75.5801 C 98.0275 76.3145 94.7263 72.542 95.2828 67.1812 C 95.8371 61.8418 100.021 56.8491 104.6807 56.0015 Z" fill="#666d73"/>					</g>					<path d="M 105.5787 14.1299 L 100.8317 25.9316 C 98.4272 26.9751 96.3873 28.0732 94.0807 29.563 L 87.4023 24.8652 L 87.3759 24.6016 L 83.1486 23.0171 L 82.0917 27.2412 L 83.4788 27.2549 C 82.6104 28.0454 81.7526 28.8701 80.8516 29.7764 L 81.6974 40.5674 C 79.8365 42.772 78.3523 44.7905 76.7848 47.2461 L 67.2613 48.3701 C 65.9302 50.9048 64.9078 53.125 63.8574 55.7617 L 69.6789 62.6377 C 68.855 65.3589 68.3166 67.7178 67.8975 70.4429 L 58.8804 77.4209 C 58.7415 79.6689 58.72 81.6182 58.8172 83.7173 L 57.7842 82.6846 L 55.6705 83.2129 L 58.8411 84.7969 L 58.8754 84.7627 L 58.8826 84.8882 L 67.9785 85.9541 C 68.4297 88.4443 68.9998 90.4932 69.8663 92.7324 L 64.0035 103.8369 C 64.1956 104.1978 64.3874 104.5474 64.5798 104.8857 L 63.5969 107.5024 L 67.2007 108.8545 L 67.5621 109.3193 L 77.3637 103.9482 C 79.0253 105.4692 80.5978 106.5889 82.5678 107.6504 L 81.9857 119.9023 C 84.1213 120.6914 86.0297 121.1914 88.3382 121.5635 L 95.7046 110.8379 C 98.1486 110.832 100.3036 110.5898 102.8331 110.0337 L 106.3966 116.1465 L 104.2855 118.0635 L 108.5129 119.6475 L 109.1628 119.2935 C 111.4145 118.4902 113.4174 117.6123 115.6958 116.4365 L 117.7148 103.4653 C 120.171 101.8086 122.2123 100.1768 124.4662 98.0664 L 134.8902 101.293 C 137.0138 98.9092 138.7216 96.7451 140.5731 94.0898 L 135.939 83.3926 C 137.5221 80.5869 138.7041 78.0811 139.8479 75.106 L 151.6996 70.5674 C 152.5479 67.5107 153.1006 64.8887 153.5399 61.8408 L 143.619 57.4141 C 143.7396 54.4683 143.6232 51.9951 143.235 49.2334 L 152.3293 38.6787 C 151.6053 36.0957 150.8198 33.9971 149.7166 31.6924 L 149.3362 31.7983 L 145.5026 29.8818 L 144.9821 33.002 L 138.0626 34.918 C 136.7272 32.8789 135.4014 31.3057 133.6787 29.7148 L 137.1617 17.1938 C 135.2232 15.9561 133.4647 15.0713 131.3095 14.248 L 121.8106 23.4668 C 119.5599 22.9487 117.5441 22.7314 115.1422 22.7451 L 112.6821 13.1323 L 112.7404 12.9844 L 112.6292 12.9287 L 112.5177 12.4883 L 111.9344 12.5801 L 108.5129 10.8721 L 106.9647 13.708 C 106.5125 13.8384 106.0522 13.979 105.5787 14.1299 ZM 106.0757 42.6763 C 117.6666 40.3643 126.3251 49.2852 125.073 62.7754 C 123.8078 76.4043 112.985 88.9219 101.2552 90.5459 C 89.873 92.1211 82.0261 82.7695 83.4257 69.8276 C 84.8117 57.0088 94.8222 44.9209 106.0757 42.6763 Z" fill="#666d73"/>				</g>				<g>					<path d="M 101.8797 12.5454 C 104.3133 11.772 106.3977 11.2783 108.8186 10.9043 L 111.4432 21.1611 C 113.8451 21.1475 115.861 21.3647 118.1118 21.8828 L 127.6105 12.6641 C 129.7657 13.4873 131.5241 14.3721 133.4627 15.6094 L 129.9797 28.1309 C 131.7025 29.7217 133.0283 31.2944 134.3636 33.334 L 146.0176 30.1079 C 147.1209 32.4131 147.9062 34.5117 148.6302 37.0942 L 139.5361 47.6494 C 139.9243 50.4106 140.0408 52.8838 139.92 55.8301 L 149.8409 60.2568 C 149.4018 63.3047 148.8488 65.9268 148.0007 68.9824 L 136.1489 73.522 C 135.0051 76.4971 133.8231 79.0029 132.24 81.8086 L 136.874 92.5054 C 135.0226 95.1611 133.3149 97.3252 131.1913 99.709 L 120.7672 96.4824 C 118.5133 98.5928 116.4719 100.2246 114.0158 101.8813 L 111.9967 114.8525 C 109.4604 116.1616 107.2643 117.1006 104.6877 117.98 L 99.134 108.4492 C 96.6046 109.0059 94.4497 109.248 92.0055 109.2539 L 84.6393 119.9795 C 82.3307 119.6074 80.4225 119.1074 78.2866 118.3184 L 78.8689 106.0659 C 76.8989 105.0049 75.3265 103.8853 73.6646 102.3643 L 63.8632 107.7354 C 62.4685 105.959 61.4001 104.3115 60.3046 102.2529 L 66.1672 91.1479 C 65.3009 88.9087 64.7307 86.8604 64.2795 84.3701 L 55.1836 83.3042 C 55.0176 80.7393 55.0172 78.4961 55.1815 75.8364 L 64.1985 68.8584 C 64.6176 66.1333 65.1559 63.7749 65.98 61.0537 L 60.1584 54.1777 C 61.2089 51.541 62.2312 49.3208 63.5624 46.7861 L 73.0858 45.6621 C 74.6533 43.2061 76.1376 41.1875 77.9983 38.9834 L 77.1526 28.1924 C 79.1484 26.1846 80.9316 24.5791 83.0902 22.8496 L 90.3818 27.9785 C 92.6882 26.4893 94.7284 25.3906 97.1326 24.3477 L 101.8797 12.5454 ZM 102.3767 41.0923 C 113.9677 38.7803 122.6262 47.7012 121.3739 61.1914 C 120.1088 74.8198 109.2861 87.3379 97.5563 88.9614 C 86.174 90.5371 78.3272 81.1855 79.7266 68.2432 C 81.1129 55.4248 91.1232 43.3369 102.3767 41.0923 Z" fill="#dbf1fe"/>				</g>				<g>					<path d="M 101.3817 50.4453 C 108.0391 49.2012 112.9224 54.395 112.1804 62.1064 C 111.4341 69.8633 105.3059 77.0215 98.6031 78.0386 C 92.015 79.0381 87.4011 73.7012 88.192 66.1719 C 88.9783 58.6846 94.8372 51.6689 101.3817 50.4453 ZM 100.9816 54.4175 C 105.6983 53.5596 109.1349 57.2603 108.6031 62.7129 C 108.069 68.188 103.7495 73.2524 99.0101 73.9961 C 94.3284 74.7305 91.0275 70.958 91.5839 65.5967 C 92.1381 60.2578 96.322 55.2646 100.9816 54.4175 Z" fill="#dbf1fe"/>				</g>			</g>			<path d="M 0.0103 112.6777 L 77.4424 66.8599 L 85.1956 85.2021 L 7.9799 130.9043 L 0.0103 112.6777 Z" fill="#063133"/>			<path opacity="0.302" d="M 0.0103 112.6777 L 77.4423 66.8599 L 81.5513 76.5806 L 4.2338 122.3369 L 0.0103 112.6777 Z" fill="#000000"/>			<path d="M 68.8024 78.541 C 74.221 91.3271 88.8621 97.0864 101.5222 91.4385 C 111.2118 87.1162 116.9665 77.3564 116.741 67.2686 L 110.016 79.9893 L 91.2886 80.6748 L 81.42 63.2803 L 89.5525 49.3564 C 89.5525 49.3564 106.3351 47.9185 105.7479 48.5605 C 105.5627 48.7642 106.6387 48.8452 108.1967 48.8569 C 101.2138 42.7686 91.1011 40.9307 81.994 44.998 C 69.2656 50.6826 63.3678 65.7158 68.8024 78.541 Z" fill="#063133"/>			<path d="M 15.8263 86.4683 C 15.8263 86.4683 16.7645 82.1733 19.0432 82.1733 C 21.3218 82.1733 23.3323 85.3945 23.3323 85.3945 C 23.3323 85.3945 25.2088 79.623 28.6937 80.0259 C 32.1786 80.4287 34.0552 85.3945 34.0552 85.3945 C 34.0552 85.3945 34.5912 78.6836 39.4166 78.9521 C 44.2419 79.2207 45.8503 84.3208 45.8503 84.3208 C 45.8503 84.3208 45.1801 76.9385 50.1394 76.8047 C 55.0988 76.6699 55.5008 84.3208 55.5008 84.3208 L 54.4286 99.3535 C 54.4286 99.3535 60.9962 102.8433 61.9345 104.7227 C 62.8727 106.6016 56.171 123.1108 55.5008 125.124 C 54.8306 127.1377 52.5521 133.4463 47.9948 136.9355 C 43.4376 140.4258 25.4769 140.1572 25.4769 140.1572 C 25.4769 140.1572 13.8158 133.043 13.6818 127.2715 C 13.5477 121.5 15.8263 86.4683 15.8263 86.4683 Z" stroke="#ffffff00" stroke-width="1" fill="#e9c094"/>			<path d="M 54.6141 134.0137 L 54.6141 145.0225 L 14.6121 144.0215 L 14.6121 134.0137 L 54.6141 134.0137 Z" stroke="#ffffff00" stroke-width="2" fill="#f7f7f7"/>			<path d="M 56.6174 143.6992 L 56.6667 192.1616 C 56.6667 192.1616 9.3671 192.4473 9.6535 192.1616 C 9.9401 191.875 13.6105 143.6992 13.6105 143.6992 L 56.6174 143.6992 Z" stroke="#ffffff00" stroke-width="2" fill="#052729"/>		</g>	</g></svg>