<?xml version="1.0" standalone="no"?><!-- Generator: Adobe Fireworks CS6, Export SVG Extension by Aaron Beall (http://fireworks.abeall.com) . Version: 0.6.1  --><!DOCTYPE svg PUBLIC "-//W3C//DTD SVG 1.1//EN" "http://www.w3.org/Graphics/SVG/1.1/DTD/svg11.dtd"><svg id="Untitled-Page%201" viewBox="0 0 230 157" style="background-color:#ffffff00" version="1.1"	xmlns="http://www.w3.org/2000/svg" xmlns:xlink="http://www.w3.org/1999/xlink" xml:space="preserve"	x="0px" y="0px" width="230px" height="157px">	<g id="Layer%201">		<g>			<g>				<path d="M 0.4819 7.2305 C 0.4819 1.4404 1.7179 0.2056 7.5128 0.2056 L 173.4424 0.2056 C 179.2372 0.2056 180.4732 1.4404 180.4732 7.2305 L 180.4732 101.8276 L 0.4819 101.8276 L 0.4819 7.2305 Z" fill="#313133"/>				<path d="M 5.3617 7.2305 L 174.1035 7.2305 L 174.1035 94.8032 L 5.3617 94.8032 L 5.3617 7.2305 Z" fill="#45bfc4"/>				<path d="M 66.1038 113.0669 L 66.1038 125.2432 C 66.1038 125.2432 66.0283 127.8794 58.1355 131.3311 C 50.2424 134.7827 45.9485 135.5459 45.9485 135.5459 L 45.9485 137.4185 L 135.0066 137.4185 L 135.0066 135.5459 C 135.0066 135.5459 130.7128 134.7827 122.8197 131.3311 C 114.9269 127.8794 114.8515 125.2432 114.8515 125.2432 L 114.8515 113.0669 L 66.1038 113.0669 Z" fill="#ffffff"/>				<path d="M 45.9485 136.0137 L 135.0066 136.0137 L 135.0066 137.8872 L 45.9485 137.8872 L 45.9485 136.0137 Z" fill="#dadada"/>				<path d="M 66.1038 113.0669 L 114.8515 113.0669 L 114.8515 125.2432 L 66.1038 125.2432 L 66.1038 113.0669 Z" fill="#dadada"/>				<path d="M 0.4819 101.3599 L 0.4819 109.2446 C 0.4819 114.3994 3.8358 117.75 8.9953 117.75 L 171.9596 117.75 C 177.1194 117.75 180.4732 114.3994 180.4732 109.2446 L 180.4732 101.3599 L 0.4819 101.3599 Z" fill="#ffffff"/>				<path opacity="0.502" d="M 90.4776 7.2305 L 174.8484 7.2305 L 174.8484 94.8032 L 90.4776 94.8032 L 90.4776 7.2305 Z" fill="#13858a"/>			</g>			<g>				<path d="M 15.1087 17.5752 L 48.0284 17.5752 L 48.0284 52.6978 L 15.1087 52.6978 L 15.1087 17.5752 Z" fill="#f2c300"/>				<rect opacity="0.502" x="15.6968" y="57.7505" width="28.3084" height="2.979" fill="#000000"/>				<rect opacity="0.502" x="15.6968" y="62.9634" width="11.1744" height="2.979" fill="#000000"/>				<rect opacity="0.502" x="15.6968" y="71.8999" width="28.3084" height="1.4893" fill="#000000"/>				<rect opacity="0.502" x="15.6968" y="75.623" width="28.3084" height="1.4897" fill="#000000"/>				<rect opacity="0.502" x="15.6968" y="79.3462" width="14.8992" height="1.4897" fill="#000000"/>			</g>			<g>				<path d="M 155.6029 102.519 C 155.6029 104.2749 156.0297 105.9307 156.7838 107.3906 C 153.0692 109.3379 150.5343 113.229 150.5343 117.7104 C 150.5343 124.1431 155.7536 129.3579 162.1919 129.3579 C 164.2702 129.3579 166.2195 128.8164 167.9092 127.8643 C 169.9396 130.6147 173.2076 132.3965 176.8905 132.3965 C 180.797 132.3965 184.2351 130.3911 186.2267 127.353 C 188.0756 130.9497 191.825 133.4097 196.1509 133.4097 C 200.2642 133.4097 203.8582 131.1855 205.7911 127.8745 C 207.4293 128.8193 209.329 129.3579 211.3562 129.3579 C 217.5147 129.3579 222.507 124.3701 222.507 118.2173 C 222.507 112.0645 217.5147 107.0767 211.3562 107.0767 C 207.243 107.0767 203.6488 109.2998 201.716 112.6113 C 200.0778 111.667 198.1781 111.1274 196.1509 111.1274 C 192.2444 111.1274 188.8061 113.1333 186.8145 116.1714 C 184.9655 112.5747 181.2162 110.1152 176.8905 110.1152 C 175.4566 110.1152 174.0851 110.3867 172.8257 110.8799 C 175.3014 108.9321 176.8905 105.9111 176.8905 102.519 C 176.8905 96.6455 172.1252 91.8843 166.2467 91.8843 C 160.3683 91.8843 155.6029 96.6455 155.6029 102.519 Z" fill="#ededed"/>				<path d="M 223.3265 111.1274 L 223.4177 111.1274 C 226.7768 111.1274 229.5 108.4072 229.5 105.0508 C 229.5 101.6948 226.7768 98.9746 223.4177 98.9746 C 221.3008 98.9746 219.4385 100.0542 218.3493 101.6934 L 218.3493 101.5059 C 218.3493 96.7515 214.4915 92.8975 209.7328 92.8975 C 206.4353 92.8975 203.5685 94.7461 202.1199 97.4653 C 201.8499 89.3037 194.9243 82.769 186.4178 82.769 C 179.5732 82.769 173.752 87.0024 171.5975 92.9072 L 171.2123 92.8975 C 166.4534 92.8975 162.5959 96.7515 162.5959 101.5059 C 162.5959 102.6421 162.8141 103.7285 163.2142 104.7217 C 158.7151 106.3364 155.5 110.6348 155.5 115.6851 C 155.5 122.1182 160.7191 127.333 167.1574 127.333 C 169.1066 127.333 170.9459 126.856 172.5606 126.0107 C 174.6012 128.0664 177.5547 129.3579 180.8425 129.3579 C 183.7725 129.3579 186.4399 128.3325 188.4301 126.6538 C 190.4747 128.9233 193.581 130.3706 197.0617 130.3706 L 197.5938 130.3608 L 198.0754 130.3706 C 201.2673 130.3706 204.1179 128.896 205.9771 126.5933 C 207.8128 127.7036 209.9642 128.3457 212.267 128.3457 C 218.9854 128.3457 224.4314 122.9043 224.4314 116.1914 C 224.4314 114.3838 224.0351 112.6694 223.3265 111.1274 Z" fill="#ffffff"/>				<path d="M 172.8358 103.0249 L 172.8408 103.2837 C 172.9716 99.7627 175.869 96.9487 179.4247 96.9487 C 182.1654 96.9487 184.5143 98.6216 185.507 101 C 185.6737 101.3989 185.8015 101.8159 185.8871 102.251 C 186.1332 101.8276 186.4278 101.437 186.7589 101.0806 C 187.9627 99.7856 189.6807 98.9746 191.5891 98.9746 C 194.0015 98.9746 196.1123 100.2725 197.2606 102.2051 C 197.4702 102.5576 197.6464 102.9282 197.7878 103.3188 C 198.0636 103.1133 198.3581 102.9282 198.6647 102.7671 C 199.58 102.2856 200.6196 102.0127 201.726 102.0127 C 205.2819 102.0127 208.1793 104.8267 208.3101 108.3477 L 208.3152 108.0894 C 208.3152 104.1738 205.1382 101 201.2192 101 C 200.1167 101 199.0737 101.2505 198.1426 101.6987 C 196.8195 99.4609 194.3785 97.9609 191.5891 97.9609 C 189.5677 97.9609 187.7305 98.752 186.3685 100.0376 C 185.2391 97.6167 182.7807 95.9351 179.9316 95.9351 C 176.0128 95.9351 172.8358 99.1099 172.8358 103.0249 Z" fill="#ededed"/>			</g>			<g>				<path id="Ellipse" d="M 88.9273 98.6025 C 88.9273 66.8447 114.7023 41.1011 146.4981 41.1011 C 178.294 41.1011 204.0688 66.8447 204.0688 98.6025 C 204.0688 130.3599 178.294 156.104 146.4981 156.104 C 114.7023 156.104 88.9273 130.3599 88.9273 98.6025 Z" fill="#9ec0c2"/>				<path d="M 97.1519 75.1323 C 96.9315 75.8477 97.1333 76.0308 97.1519 76.3062 C 97.2071 77.1338 93.8228 90.5835 93.6271 93.9087 C 93.4314 97.2334 95.7811 100.3628 95.9769 102.1226 C 96.1726 103.8833 99.3059 107.0127 100.6766 107.9902 C 102.0473 108.9683 103.222 111.1196 104.2014 112.6846 C 105.1804 114.249 106.1594 111.9019 106.5512 111.5112 C 106.9427 111.1196 104.0055 109.1641 103.0264 107.9902 C 102.0473 106.8169 104.3971 106.0342 105.3761 104.4697 C 106.3553 102.9058 103.6138 104.4697 101.8514 104.4697 C 100.0891 104.4697 100.2849 102.71 99.5017 99.7759 C 98.7184 96.8423 101.6556 97.4287 104.2014 97.4287 C 106.747 97.4287 105.7679 99.9717 106.5512 99.7759 C 107.3344 99.5801 108.1177 97.8198 108.9011 95.082 C 109.6842 92.3438 113.9922 89.0186 115.9503 88.041 C 117.9086 87.063 119.671 87.4546 121.8249 85.6938 C 123.9791 83.9336 119.2793 84.9116 118.3003 83.3472 C 117.3212 81.7822 122.4125 81.7822 124.1748 82.1733 C 125.9372 82.5645 126.133 80.2173 126.5246 78.6533 C 126.9163 77.0879 123 76.502 123 75.1323 C 123 73.7632 124.3706 74.1548 124.1748 72.7852 C 123.9791 71.416 122.4125 72.981 120.6501 72.7852 C 118.8877 72.5898 120.0626 71.0254 119.4753 70.438 C 118.8877 69.8521 118.1044 72.3945 117.1254 73.959 C 116.1463 75.5234 115.363 78.4575 113.6006 78.6533 C 111.8381 78.8491 113.2089 76.6973 113.6006 76.3062 C 113.9922 75.915 113.2089 76.1104 113.6006 75.1323 C 113.9922 74.1548 111.4465 72.3945 111.2508 71.6118 C 111.055 70.8296 114.188 67.1133 114.7755 66.918 C 115.363 66.7222 119.0835 65.3535 119.4753 65.7446 C 119.8668 66.1353 121.8249 63.3979 121.8249 63.3979 L 119.4753 61.0508 L 120.6501 58.7036 L 117.1254 61.0508 L 117.1254 58.7036 L 118.3003 55.1826 C 118.3003 55.1826 115.5588 54.5967 115.9503 55.1826 C 116.3421 55.77 113.0131 57.9209 111.2508 57.5298 C 109.8856 57.2266 110.9872 54.3438 111.8265 52.6953 C 108.4515 55.2417 105.3644 58.1533 102.6269 61.3677 C 103.0245 62.3096 103.0264 62.8521 103.0264 63.3979 C 103.0264 64.1797 101.8514 64.5708 101.8514 64.5708 C 101.8514 64.5708 97.6952 73.3691 97.1519 75.1323 Z" fill="#4d8343"/>				<path d="M 103.4899 76.1875 C 103.2696 76.9028 103.4715 77.0859 103.4899 77.3608 C 103.5451 78.189 100.1608 91.6387 99.9652 94.9634 C 99.7694 98.2886 102.1192 101.4175 102.315 103.1782 C 102.5106 104.9385 105.6439 108.0674 107.0146 109.0454 C 108.3853 110.0229 109.5601 112.1748 110.5394 113.7397 C 111.5184 115.3037 112.4975 112.957 112.8893 112.5659 C 113.2808 112.1748 110.3436 110.2188 109.3645 109.0454 C 108.3853 107.8716 110.7351 107.0898 111.7142 105.5249 C 112.6934 103.9604 109.9518 105.5249 108.1895 105.5249 C 106.4271 105.5249 106.6229 103.7646 105.8397 100.8311 C 105.0565 97.897 107.9937 98.4844 110.5394 98.4844 C 113.085 98.4844 112.106 101.0269 112.8893 100.8311 C 113.6724 100.6357 114.4558 98.875 115.2389 96.1372 C 116.0222 93.3989 120.3302 90.0737 122.2884 89.0957 C 124.2465 88.1182 126.0091 88.5093 128.163 86.749 C 130.3169 84.9888 125.6173 85.9663 124.6383 84.4019 C 123.6592 82.8374 128.7505 82.8374 130.5129 83.2285 C 132.2753 83.6191 132.471 81.2725 132.8627 79.708 C 133.2542 78.1436 129.338 77.5566 129.338 76.1875 C 129.338 74.8184 130.7087 75.2095 130.5129 73.8403 C 130.3169 72.4712 128.7505 74.0361 126.9882 73.8403 C 125.2258 73.6445 126.4006 72.0806 125.8131 71.4937 C 125.2258 70.9067 124.4424 73.4497 123.4634 75.0137 C 122.4844 76.5786 121.7011 79.5122 119.9387 79.708 C 118.1763 79.9038 119.547 77.7524 119.9387 77.3608 C 120.3302 76.9697 119.547 77.165 119.9387 76.1875 C 120.3302 75.2095 117.7846 73.4497 117.5888 72.667 C 117.3931 71.8848 120.526 68.1685 121.1135 67.9727 C 121.7011 67.7773 125.4216 66.4082 125.8131 66.7998 C 126.2048 67.1904 128.163 64.4526 128.163 64.4526 L 125.8131 62.1055 L 126.9882 59.7583 L 123.4634 62.1055 L 123.4634 59.7583 L 124.6383 56.2383 C 124.6383 56.2383 121.8968 55.6514 122.2884 56.2383 C 122.6801 56.8247 119.3512 58.9761 117.5888 58.585 C 116.2236 58.2817 117.3253 55.3989 118.1644 53.7505 C 114.7896 56.2969 111.7025 59.2085 108.965 62.4224 C 109.3626 63.3647 109.3645 63.9072 109.3645 64.4526 C 109.3645 65.2349 108.1895 65.626 108.1895 65.626 C 108.1895 65.626 104.0331 74.4238 103.4899 76.1875 Z" fill="#4d8343"/>				<path d="M 125.3498 57.5298 C 125.3498 57.5298 123.1467 58.7769 123 58.7036 C 122.853 58.6299 123.8077 60.2432 124.1748 61.0508 C 124.5419 61.8569 123.2937 64.791 123 65.7446 C 122.7062 66.6978 122.4859 68.8984 123 69.2646 C 123.5139 69.6318 123.7341 70.9517 124.1748 70.438 C 124.6153 69.9253 125.056 67.2109 125.3498 66.918 C 125.6434 66.625 126.8184 61.7842 126.5246 62.2241 L 125.3498 57.5298 Z" fill="#4d8343"/>				<path d="M 132.5187 54.165 C 132.5232 54.1611 132.4925 54.1182 132.3992 54.0093 C 131.9942 53.6626 132.5013 54.1816 132.5187 54.165 ZM 143.9561 50.7305 C 144.0146 50.749 144.0955 50.6992 144.1484 50.4888 C 143.8188 50.4419 143.8515 50.6963 143.9561 50.7305 ZM 133.5742 52.8354 C 132.5462 52.6157 131.9585 53.4961 132.3992 54.0093 C 132.9132 54.4497 133.2069 55.6963 133.5742 57.5298 C 133.9413 59.3633 133.4271 62.3706 133.5742 64.5708 C 133.7209 66.771 132.3992 69.2646 131.2243 70.438 C 130.0495 71.6118 131.6648 73.2251 133.5742 72.7852 C 135.4834 72.3452 136.2911 69.7046 138.2737 68.0913 C 140.2563 66.478 143.414 63.9839 145.3232 62.2241 C 147.2324 60.4639 147.6731 54.8164 147.6731 54.0093 C 147.6731 53.2031 146.8653 51.2222 145.3232 50.4888 C 143.7813 49.7559 144.2952 49.9023 144.1484 50.4888 C 144.6623 50.562 143.1937 51.8823 141.7985 51.6621 C 140.4033 51.4419 141.0642 49.6821 139.4487 49.3154 C 137.833 48.9487 138.7142 50.0488 138.2737 51.6621 C 137.833 53.2759 137.9801 52.2495 137.0989 52.8354 C 136.2176 53.4229 135.8504 51.2959 135.9239 50.4888 C 135.9975 49.6821 136.8786 48.4355 134.749 48.1421 C 132.6195 47.8486 133.8678 48.582 132.3992 49.3154 C 130.9306 50.0488 130.7838 50.3423 128.8745 51.6621 C 126.9652 52.9829 125.9372 53.0557 125.3498 54.0093 C 124.7624 54.9629 125.4965 54.9629 125.3498 55.1826 C 125.2029 55.4028 127.3324 55.6226 127.6996 55.1826 C 128.0666 54.7427 130.0495 53.0557 130.0495 52.8354 C 130.0495 52.6157 132.5462 51.5894 132.3992 51.6621 C 132.2523 51.7358 134.749 51.6621 134.749 51.6621 C 134.749 51.6621 134.6021 53.0557 133.5742 52.8354 Z" fill="#4d8343"/>				<path d="M 145.8283 68.8975 C 145.8181 68.9048 145.8685 69.0083 146.0638 69.2725 C 146.1 69.2007 145.8476 68.8833 145.8283 68.8975 ZM 147.2431 68.0913 C 146.5095 68.2661 146.0584 69.2705 146.0638 69.2725 C 146.6329 70.043 146.7474 70.6582 147.2431 70.438 C 147.7387 70.2183 147.8858 71.2637 148.4181 70.438 C 148.9504 69.6133 149.9784 69.9063 149.5929 69.2646 C 149.2074 68.623 148.0141 67.9082 147.2431 68.0913 Z" fill="#4d8343"/>				<path d="M 174.6961 49.3154 C 174.8429 49.4624 173.9617 48.8755 173.521 49.3154 C 173.0805 49.7559 173.3743 51.8096 173.521 51.6621 C 173.6681 51.5156 176.1648 51.4419 175.871 51.6621 C 175.5773 51.8823 174.5491 49.1685 174.6961 49.3154 Z" fill="#4d8343"/>				<path d="M 175.441 93.9087 C 175.409 93.8921 175.369 93.8945 175.3234 93.9087 C 175.4647 93.959 175.5335 93.9546 175.441 93.9087 ZM 173.0912 95.082 C 174.1382 95.0161 174.9507 94.021 175.3234 93.9087 C 175.017 93.7988 174.3667 93.4385 174.266 92.7349 C 174.1193 91.708 174.266 91.5615 174.266 91.5615 C 174.266 91.5615 174.3395 90.3145 175.441 90.3877 C 176.5425 90.4614 176.4691 91.7813 177.7909 92.7349 C 179.1126 93.6885 179.9938 93.395 181.3157 93.9087 C 182.6373 94.4219 183.0778 95.5952 182.4905 96.2559 C 181.9799 96.8291 181.2466 97.4023 181.2568 97.4468 C 181.3291 97.4175 181.3539 97.4097 181.3157 97.4287 C 181.2771 97.4482 181.2585 97.4531 181.2568 97.4468 C 180.7759 97.6382 178.1738 98.73 177.7909 98.6025 C 177.3502 98.4556 176.616 98.6025 176.616 98.6025 C 176.616 98.6025 173.3848 98.5293 173.0912 98.6025 C 172.7975 98.6758 173.3848 99.2622 171.9163 99.7759 C 170.4476 100.2891 170.7413 99.7759 170.7413 99.7759 C 170.7413 99.7759 167.9509 97.9419 167.2165 97.4287 C 166.4824 96.9155 164.8667 95.3755 163.6918 96.2559 C 162.517 97.1357 159.3593 99.6294 157.8173 99.7759 C 156.2752 99.9229 152.5302 104.0298 151.9428 104.4697 C 151.3553 104.9097 149.0055 114.0044 149.5929 116.2051 C 150.1804 118.4053 155.5409 120.5322 157.8173 120.8989 C 160.0937 121.2656 164.4996 122.146 166.0417 124.4194 C 167.5838 126.6929 166.9229 140.7749 167.2165 142.022 C 167.5104 143.2686 167.7306 146.936 169.5664 145.5425 C 171.4022 144.1489 174.3395 140.6284 175.441 139.6748 C 176.5425 138.7212 182.7841 129.2603 183.6654 126.7666 C 184.5465 124.2729 187.4838 121.7793 188.3651 120.8989 C 189.2462 120.019 192.1101 116.498 190.7149 115.0313 C 189.3197 113.5645 187.9244 115.6919 187.1902 115.0313 C 186.4559 114.3711 185.5013 112.0977 184.8402 111.5112 C 184.1794 110.9243 181.3891 107.8438 181.3157 105.6436 C 181.242 103.4429 179.9203 101.0962 181.3157 100.9497 C 182.7108 100.8027 183.0046 101.3896 183.6654 102.1226 C 184.3263 102.8564 185.4277 109.604 186.0152 110.3374 C 186.4469 110.8765 187.8304 112.1709 188.3006 112.6143 C 187.972 112.0981 189.9445 111.3169 190.7149 110.3374 C 191.5226 109.3105 192.6242 105.0566 193.0647 103.2964 C 193.5054 101.5361 192.9913 100.6563 191.8897 100.9497 C 190.7882 101.2427 187.9244 101.3164 188.3651 99.7759 C 188.8056 98.2358 190.7149 95.9619 190.7149 96.2559 C 190.7149 96.5488 194.7536 98.5293 195.4146 98.6025 C 196.0754 98.6758 198.4252 98.8223 198.9393 99.7759 C 199.4532 100.729 200.1141 111.9512 200.1141 111.5112 C 200.1141 111.0708 202.2437 99.4092 202.464 98.6025 C 202.6843 97.7954 204.5201 97.062 204.8138 97.4287 C 204.4524 79.5981 195.9588 63.7578 182.89 53.4517 C 181.2028 52.3838 180.1406 51.6934 180.1406 51.6621 C 180.1406 51.5156 178.158 52.3228 177.7909 52.8354 C 177.4236 53.3491 176.7628 57.0898 176.616 57.5298 C 176.4691 57.9697 178.9658 56.3564 180.1406 57.5298 C 181.3157 58.7036 182.4171 58.9971 182.4905 59.877 C 182.5639 60.7568 181.6827 63.0303 181.3157 62.2241 C 180.9484 61.417 179.4064 60.1704 178.9658 59.877 C 178.5252 59.5835 176.616 61.0508 176.616 61.0508 C 175.8817 61.2705 175.1472 60.6108 175.441 61.0508 C 175.7347 61.4907 174.3395 63.9106 174.266 64.5708 C 174.1927 65.2314 173.0912 66.918 173.0912 66.918 C 172.1365 66.1113 171.549 63.9839 171.9163 63.3979 C 172.2834 62.8105 169.2728 61.7842 167.2165 62.2241 C 165.1605 62.6641 162.517 64.5708 162.517 64.5708 L 162.517 66.918 C 162.517 66.918 162.4436 67.7983 161.342 69.2646 C 160.2406 70.7319 160.1671 71.6118 160.1671 71.6118 C 160.1671 71.6118 158.3313 69.0444 158.9922 71.6118 C 159.6531 74.1787 162.517 76.3794 163.6918 76.3062 C 164.8667 76.2324 165.9683 72.4922 166.0417 71.6118 C 166.1151 70.7319 166.9963 66.625 167.2165 66.918 C 167.4368 67.2109 168.3916 68.7515 168.3916 69.2646 C 168.3916 69.7783 170.5945 71.0254 170.7413 71.6118 C 170.8882 72.1992 171.0351 75.3525 170.7413 75.1323 C 170.4476 74.9126 169.7867 76.7461 169.5664 77.4795 C 169.3462 78.2134 166.7025 79.5332 166.0417 79.8267 C 165.3809 80.1201 159.4328 80.1929 158.9922 82.1733 C 158.5515 84.1538 156.9361 85.2539 156.6423 86.8672 C 156.3487 88.481 158.1111 89.8018 157.8173 90.3877 C 157.5235 90.9746 154.5128 90.0215 154.2926 91.5615 C 154.0723 93.1021 152.3834 93.395 154.2926 95.082 C 156.2019 96.769 157.597 99.1162 158.9922 96.2559 C 160.3873 93.395 160.1671 90.8281 162.517 90.3877 C 164.8667 89.9478 164.7932 89.4346 166.0417 90.3877 C 167.2901 91.3413 168.3916 93.542 169.5664 93.9087 C 170.7413 94.2749 169.9336 92.4414 169.5664 91.5615 C 169.1994 90.6816 168.0244 88.4077 168.3916 88.041 C 168.7587 87.6743 170.0805 89.0679 170.7413 89.2144 C 171.4022 89.3613 171.9163 95.1553 173.0912 95.082 Z" fill="#4d8343"/>				<path d="M 154.7225 76.3062 C 154.4655 76.5259 151.8219 77.5894 152.3727 77.4795 C 152.9234 77.3696 153.107 78.3594 153.5476 78.6533 C 153.9882 78.9463 156.2647 79.0562 155.8974 78.6533 C 155.5303 78.2495 154.9796 76.0859 154.7225 76.3062 Z" fill="#4d8343"/>				<path d="M 110.0759 107.9902 C 110.0759 107.9902 110.6225 106.1431 110.0759 105.6436 C 109.5291 105.1436 107.726 104.4697 107.726 104.4697 L 107.726 105.6436 L 108.9011 106.8169 L 110.0759 107.9902 Z" fill="#4d8343"/>				<path d="M 113.6006 115.0313 C 113.148 114.6865 109.9365 115.6079 110.0759 116.2051 C 110.2153 116.8022 110.0994 118.499 110.0759 119.7251 C 110.0523 120.9526 107.2735 122.2852 107.726 123.2461 C 108.1784 124.207 109.0403 128.4053 110.0759 129.1138 C 111.1115 129.8213 117.5867 136.522 118.3003 138.5015 C 119.0138 140.481 119.924 143.8501 120.6501 145.5425 C 121.3763 147.2344 125.7258 150.4585 126.5246 151.4102 C 126.8348 151.7793 127.5374 152.4863 128.3103 153.1763 C 129.0593 153.4248 129.8158 153.6616 130.5781 153.8804 C 129.2434 152.541 126.4171 150.4683 126.5246 150.2363 C 126.6718 149.9199 125.1555 147.5806 126.5246 146.7163 C 127.8938 145.8511 129.3536 143.644 130.0495 142.022 C 130.745 140.3999 128.5262 138.8003 131.2243 138.5015 C 133.9224 138.2026 134.3537 131.9727 134.749 130.2871 C 135.1445 128.6011 127.844 126.1655 126.5246 125.5928 C 125.2054 125.0205 119.379 120.0576 118.3003 118.5518 C 117.2214 117.0464 114.053 115.376 113.6006 115.0313 Z" fill="#4d8343"/>				<path d="M 120.6501 51.6621 C 121.015 51.6519 119.6777 50.6729 119.4753 51.6621 C 119.2726 52.6519 118.9733 54.0342 119.4753 54.0093 C 119.977 53.9849 122.2641 54.7378 121.8249 54.0093 C 121.3858 53.2813 120.2851 51.6733 120.6501 51.6621 Z" fill="#4d8343"/>				<path d="M 180.5707 137.3276 C 180.5893 137.3291 180.6137 137.3228 180.6411 137.3042 C 180.3694 137.3037 180.3375 137.312 180.5707 137.3276 ZM 184.0953 132.6338 C 183.7264 132.3496 181.2292 136.9224 180.6411 137.3042 C 180.8588 137.3052 181.2303 137.311 181.7455 137.3276 C 182.9035 137.3662 185.3539 133.7358 185.2703 133.8076 C 185.1866 133.8784 186.8979 129.9146 186.4452 130.2871 C 185.9925 130.6592 184.4814 132.9321 184.0953 132.6338 Z" fill="#4d8343"/>				<path d="M 112.4256 110.3374 C 112.381 110.2754 113.3293 110.2813 113.5654 110.314 C 113.557 110.1724 113.9217 109.5088 113.6006 109.1641 C 113.2282 108.7637 112.5014 109.0508 112.4256 109.1641 C 112.3499 109.2773 112.4801 110.4131 112.4256 110.3374 Z" fill="#4d8343"/>			</g>			<path d="M 155.255 105.1729 C 156.2879 105.1729 157.1274 106.0146 157.1274 107.0498 C 157.1274 108.085 156.2879 108.9268 155.255 108.9268 C 154.2221 108.9268 153.3814 108.085 153.3814 107.0498 C 153.3814 106.0146 154.2221 105.1729 155.255 105.1729 L 155.255 105.1729 ZM 155.255 102.9922 C 153.0179 102.9922 151.205 104.8086 151.205 107.0498 C 151.205 109.2915 153.0179 111.1074 155.255 111.1074 C 157.4909 111.1074 159.304 109.2915 159.304 107.0498 C 159.304 104.8086 157.4909 102.9922 155.255 102.9922 L 155.255 102.9922 Z" fill="#ffffff"/>			<path d="M 124.2032 124.9087 C 125.2361 124.9087 126.0758 125.7505 126.0758 126.7856 C 126.0758 127.8208 125.2361 128.6631 124.2032 128.6631 C 123.1702 128.6631 122.3295 127.8208 122.3295 126.7856 C 122.3295 125.7505 123.1702 124.9087 124.2032 124.9087 L 124.2032 124.9087 ZM 124.2032 122.728 C 121.9661 122.728 120.1531 124.5444 120.1531 126.7856 C 120.1531 129.0269 121.9661 130.8438 124.2032 130.8438 C 126.4392 130.8438 128.2521 129.0269 128.2521 126.7856 C 128.2521 124.5444 126.4392 122.728 124.2032 122.728 L 124.2032 122.728 Z" fill="#ffffff"/>			<path d="M 109.3041 88.2607 C 110.3369 88.2607 111.1765 89.1025 111.1765 90.1377 C 111.1765 91.1724 110.3369 92.0151 109.3041 92.0151 C 108.271 92.0151 107.4304 91.1724 107.4304 90.1377 C 107.4304 89.1025 108.271 88.2607 109.3041 88.2607 L 109.3041 88.2607 ZM 109.3041 86.0801 C 107.067 86.0801 105.254 87.8965 105.254 90.1377 C 105.254 92.3789 107.067 94.1958 109.3041 94.1958 C 111.5401 94.1958 113.3529 92.3789 113.3529 90.1377 C 113.3529 87.8965 111.5401 86.0801 109.3041 86.0801 L 109.3041 86.0801 Z" fill="#ffffff"/>			<path d="M 105.6869 88.7114 L 107.1621 87.1079 L 87.3385 59.0122 L 56.2487 59.0127 L 56.2487 61.1943 L 86.4882 61.1934 L 105.6869 88.7114 Z" fill="#ffffff"/>			<path d="M 193.2876 20.8765 L 56.2487 20.8765 L 56.2487 23.0586 L 193.3243 23.0576 L 193.2876 20.8765 Z" fill="#ffffff"/>			<path d="M 80.2658 71.8457 L 55.9246 71.8481 L 55.9246 74.0293 L 79.4028 74.0264 L 105.238 126.4771 L 120.8039 126.4771 L 120.8039 124.2959 L 106.1009 124.2959 L 80.2658 71.8457 Z" fill="#ffffff"/>			<path d="M 104.4512 32.2275 L 55.9246 32.2305 L 55.9246 34.4121 L 103.5884 34.4087 L 136.8178 107.4854 L 152.3838 107.4854 L 152.3838 105.3047 L 137.6808 105.3047 L 104.4512 32.2275 Z" fill="#ffffff"/>			<path d="M 182.0853 74.5132 C 183.1183 74.5132 183.9578 75.355 183.9578 76.3901 C 183.9578 77.4248 183.1183 78.2671 182.0853 78.2671 C 181.0523 78.2671 180.2117 77.4248 180.2117 76.3901 C 180.2117 75.355 181.0523 74.5132 182.0853 74.5132 L 182.0853 74.5132 ZM 182.0853 72.3325 C 179.8483 72.3325 178.0352 74.1489 178.0352 76.3901 C 178.0352 78.6313 179.8483 80.4482 182.0853 80.4482 C 184.3213 80.4482 186.1343 78.6313 186.1343 76.3901 C 186.1343 74.1489 184.3213 72.3325 182.0853 72.3325 L 182.0853 72.3325 Z" fill="#ffffff"/>			<path d="M 196.2778 20.4136 C 197.3108 20.4136 198.1503 21.2554 198.1503 22.29 C 198.1503 23.3252 197.3108 24.1675 196.2778 24.1675 C 195.2448 24.1675 194.4042 23.3252 194.4042 22.29 C 194.4042 21.2554 195.2448 20.4136 196.2778 20.4136 L 196.2778 20.4136 ZM 196.2778 18.2324 C 194.0407 18.2324 192.2277 20.0493 192.2277 22.29 C 192.2277 24.5317 194.0407 26.3481 196.2778 26.3481 C 198.5138 26.3481 200.3268 24.5317 200.3268 22.29 C 200.3268 20.0493 198.5138 18.2324 196.2778 18.2324 L 196.2778 18.2324 Z" fill="#ffffff"/>			<path d="M 130.8598 45.9443 L 55.9246 45.9463 L 55.9246 48.1274 L 129.9969 48.125 L 149.0517 76.522 L 179.5168 76.522 L 179.5168 74.3418 L 149.9147 74.3418 L 130.8598 45.9443 Z" fill="#ffffff"/>			<g>				<path d="M 151.7 126.5552 C 151.7 128.0029 152.0491 129.3687 152.666 130.5723 C 149.6277 132.1777 147.5544 135.3862 147.5544 139.0825 C 147.5544 144.3862 151.8232 148.686 157.0893 148.686 C 158.7891 148.686 160.3834 148.2397 161.7655 147.4546 C 163.4263 149.7227 166.0991 151.1919 169.1114 151.1919 C 172.3065 151.1919 175.1187 149.5381 176.7476 147.0322 C 178.2598 149.9985 181.3265 152.0273 184.8645 152.0273 C 188.2289 152.0273 191.1686 150.1934 192.7494 147.4629 C 194.0892 148.2417 195.643 148.686 197.3012 148.686 C 202.3382 148.686 206.4214 144.5737 206.4214 139.5 C 206.4214 134.4263 202.3382 130.3135 197.3012 130.3135 C 193.9369 130.3135 190.9972 132.147 189.4164 134.877 C 188.0765 134.0981 186.5226 133.6538 184.8645 133.6538 C 181.6695 133.6538 178.8573 135.3071 177.2284 137.813 C 175.7161 134.8462 172.6496 132.8188 169.1114 132.8188 C 167.9386 132.8188 166.8168 133.0425 165.7867 133.4492 C 167.8116 131.8438 169.1114 129.3525 169.1114 126.5552 C 169.1114 121.7119 165.2138 117.7861 160.4057 117.7861 C 155.5977 117.7861 151.7 121.7119 151.7 126.5552 Z" fill="#ededed"/>				<path d="M 206.3467 133.6538 L 206.4214 133.6538 C 209.1689 133.6538 211.3961 131.4106 211.3961 128.6426 C 211.3961 125.8755 209.1689 123.6323 206.4214 123.6323 C 204.69 123.6323 203.1669 124.5225 202.2758 125.8745 L 202.2758 125.7197 C 202.2758 121.7993 199.1207 118.6211 195.2283 118.6211 C 192.5313 118.6211 190.1866 120.146 189.0018 122.3877 C 188.7809 115.6582 183.1165 110.27 176.1588 110.27 C 170.5605 110.27 165.7994 113.7603 164.0372 118.6294 L 163.7222 118.6211 C 159.8299 118.6211 156.6746 121.7993 156.6746 125.7197 C 156.6746 126.6572 156.8531 127.5527 157.1805 128.3716 C 153.5007 129.7026 150.871 133.2471 150.871 137.4116 C 150.871 142.7163 155.1397 147.0161 160.4057 147.0161 C 161.9998 147.0161 163.5044 146.6226 164.825 145.9263 C 166.4941 147.6211 168.9096 148.686 171.5986 148.686 C 173.9952 148.686 176.177 147.8403 177.8047 146.4565 C 179.4771 148.3281 182.0178 149.5215 184.8645 149.5215 L 185.2999 149.5127 L 185.6936 149.5215 C 188.3045 149.5215 190.6361 148.3057 192.1565 146.4063 C 193.6581 147.3228 195.4177 147.8511 197.3012 147.8511 C 202.7962 147.8511 207.2506 143.3643 207.2506 137.8291 C 207.2506 136.3389 206.9265 134.9248 206.3467 133.6538 Z" fill="#ffffff"/>				<path d="M 165.795 126.9727 L 165.799 127.1855 C 165.9061 124.2827 168.2758 121.9614 171.1841 121.9614 C 173.4257 121.9614 175.3469 123.3413 176.1588 125.3022 C 176.2952 125.6313 176.3997 125.9756 176.4698 126.3335 C 176.6711 125.9849 176.9119 125.6626 177.1828 125.3691 C 178.1675 124.3013 179.5726 123.6323 181.1335 123.6323 C 183.1066 123.6323 184.8331 124.7026 185.7723 126.2964 C 185.9438 126.5864 186.088 126.8931 186.2036 127.2148 C 186.4291 127.0454 186.6699 126.8931 186.9207 126.7598 C 187.6693 126.3623 188.5197 126.1372 189.4245 126.1372 C 192.3329 126.1372 194.7027 128.458 194.8097 131.3613 L 194.8138 131.1479 C 194.8138 127.9194 192.2154 125.3022 189.01 125.3022 C 188.1084 125.3022 187.255 125.5088 186.4936 125.8789 C 185.4114 124.0337 183.4151 122.7969 181.1335 122.7969 C 179.4802 122.7969 177.9775 123.4487 176.8636 124.5088 C 175.9397 122.5127 173.929 121.1265 171.5986 121.1265 C 168.3934 121.1265 165.795 123.7437 165.795 126.9727 Z" fill="#ededed"/>			</g>		</g>	</g></svg>