<?xml version="1.0" standalone="no"?><!-- Generator: Adobe Fireworks CS6, Export SVG Extension by Aaron Beall (http://fireworks.abeall.com) . Version: 0.6.1  --><!DOCTYPE svg PUBLIC "-//W3C//DTD SVG 1.1//EN" "http://www.w3.org/Graphics/SVG/1.1/DTD/svg11.dtd"><svg id="Untitled-Page%201" viewBox="0 0 226 160" style="background-color:#ffffff00" version="1.1"	xmlns="http://www.w3.org/2000/svg" xmlns:xlink="http://www.w3.org/1999/xlink" xml:space="preserve"	x="0px" y="0px" width="226px" height="160px">	<g id="Layer%201">		<g>			<g>				<path d="M 45.5949 24.1738 C 45.5949 18.3843 46.8309 17.1489 52.6257 17.1489 L 218.5554 17.1489 C 224.3502 17.1489 225.5862 18.3843 225.5862 24.1738 L 225.5862 118.771 L 45.5949 118.771 L 45.5949 24.1738 Z" fill="#313133"/>				<path d="M 50.4746 24.1738 L 219.2164 24.1738 L 219.2164 111.7466 L 50.4746 111.7466 L 50.4746 24.1738 Z" fill="#45bfc4"/>				<path d="M 111.2168 130.0107 L 111.2168 142.1865 C 111.2168 142.1865 111.1413 144.8228 103.2484 148.2744 C 95.3554 151.7261 91.0614 152.4893 91.0614 152.4893 L 91.0614 154.3623 L 180.1196 154.3623 L 180.1196 152.4893 C 180.1196 152.4893 175.8257 151.7261 167.9327 148.2744 C 160.0398 144.8228 159.9645 142.1865 159.9645 142.1865 L 159.9645 130.0107 L 111.2168 130.0107 Z" fill="#ffffff"/>				<path d="M 91.0614 152.9575 L 180.1196 152.9575 L 180.1196 154.8306 L 91.0614 154.8306 L 91.0614 152.9575 Z" fill="#dadada"/>				<path d="M 111.2168 130.0107 L 159.9645 130.0107 L 159.9645 142.1865 L 111.2168 142.1865 L 111.2168 130.0107 Z" fill="#dadada"/>				<path d="M 45.5949 118.3032 L 45.5949 126.188 C 45.5949 131.3428 48.9488 134.6934 54.1083 134.6934 L 217.0726 134.6934 C 222.2324 134.6934 225.5862 131.3428 225.5862 126.188 L 225.5862 118.3032 L 45.5949 118.3032 Z" fill="#ffffff"/>				<path opacity="0.502" d="M 135.5906 24.1738 L 219.9614 24.1738 L 219.9614 111.7466 L 135.5906 111.7466 L 135.5906 24.1738 Z" fill="#13858a"/>			</g>			<g>				<path d="M 208.0379 60.0869 L 211.3523 61.5762 L 211.4989 61.6431 L 211.7733 61.7651 L 211.8089 61.498 C 212.8469 61.0107 213.7395 60.5112 214.7172 59.8706 L 214.0677 55.9575 C 215.0255 55.2021 215.7852 54.4854 216.5838 53.583 L 220.7184 54.1924 C 221.4624 53.1733 222.0244 52.2554 222.5863 51.1411 L 219.9546 48.0977 C 220.3831 47.0044 220.6606 46.0361 220.8739 44.8911 L 224.7689 43.4854 C 224.8731 42.2671 224.8734 41.2197 224.7698 40.0039 L 223.6603 39.6094 L 221.7765 38.0083 L 221.3289 38.7778 L 220.8854 38.6211 C 220.6772 37.4839 220.4047 36.5249 219.9827 35.4434 L 222.6078 32.4268 C 222.0895 31.4048 221.5711 30.5508 220.907 29.6313 L 220.9907 29.4468 L 217.7543 27.666 L 216.5706 29.9434 C 215.822 29.1143 215.0992 28.4438 214.1981 27.7402 L 214.8733 23.9258 C 213.8108 23.2412 212.8512 22.7231 211.6847 22.2056 L 208.4506 24.6382 C 207.2989 24.2432 206.2771 23.9878 205.0663 23.791 L 203.6176 20.1846 L 203.6001 20.1836 L 203.6079 20.1733 L 200.177 18.2871 L 197.8476 22.1924 L 199.0624 22.2036 L 198.3944 23.7861 C 197.1764 23.981 196.1462 24.2358 194.9821 24.6304 L 191.7779 22.1855 C 190.5928 22.7031 189.6157 23.2212 188.5308 23.9067 L 189.1367 27.7378 C 188.1737 28.4756 187.4073 29.1772 186.598 30.0625 L 182.4664 29.4448 C 181.7039 30.4478 181.1243 31.3545 180.5405 32.4565 L 183.1407 35.4873 C 182.6921 36.5767 182.3971 37.543 182.1637 38.6875 L 178.1966 40.0947 C 178.0674 41.3203 178.0469 42.3765 178.1286 43.604 L 182.0518 44.9985 C 182.2452 46.1494 182.507 47.1221 182.9195 48.2197 L 180.8255 50.5845 C 180.4868 50.5498 180.2321 50.5273 180.2321 50.5273 L 179.0147 52.7896 L 181.776 54.4043 L 181.8344 54.0903 L 182.0256 54.3594 L 186.2201 53.7109 C 187.0089 54.6104 187.7618 55.3237 188.713 56.0742 L 187.9809 60.0112 C 189.0614 60.7129 190.0387 61.2427 191.228 61.771 L 194.5473 59.2363 C 195.4361 59.541 196.2498 59.7627 197.1284 59.937 L 196.0595 61.9814 C 196.0595 61.9814 198.2172 63.0005 199.3175 63.459 L 199.456 63.8101 C 200.7729 63.9019 201.9071 63.895 203.2248 63.7876 L 204.7618 60.0537 C 205.9938 59.8467 207.0347 59.5781 208.209 59.167 L 208.0379 60.0869 ZM 201.6463 32.5698 C 207.0833 32.5664 211.4652 36.6802 211.436 41.7729 C 211.4067 46.8872 206.9439 51.0703 201.4651 51.0913 C 195.9765 51.1123 191.5726 46.9487 191.6435 41.8179 C 191.7142 36.708 196.1994 32.5732 201.6463 32.5698 ZM 211.461 61.6597 L 211.4989 61.6431 L 211.3523 61.5762 L 211.461 61.6597 Z" fill="#71797f"/>				<g>					<path d="M 197.7275 18.5435 C 199.0324 18.4526 200.1541 18.457 201.4555 18.5581 L 202.9153 22.1821 C 204.1348 22.3823 205.1638 22.6416 206.3238 23.0415 L 209.5797 20.6079 C 210.7545 21.1309 211.7209 21.6528 212.7911 22.3428 L 212.1121 26.1694 C 213.0591 26.9092 213.8103 27.6113 214.6001 28.4976 L 218.7253 27.8901 C 219.4639 28.8916 220.0222 29.7959 220.5809 30.8955 L 217.9384 33.916 C 218.3635 35.0024 218.6382 35.9663 218.8482 37.1084 L 222.7593 38.5054 C 222.8638 39.7256 222.8638 40.7769 222.7592 41.9995 L 218.838 43.4004 C 218.6236 44.5498 218.3444 45.5205 217.9131 46.6172 L 220.5635 49.6777 C 219.998 50.7949 219.4324 51.7148 218.6835 52.7358 L 214.5204 52.1143 C 213.7165 53.0181 212.9517 53.7354 211.9874 54.4917 L 212.6423 58.4204 C 211.5498 59.1313 210.5634 59.6689 209.364 60.209 L 206.0888 57.6987 C 204.9063 58.1094 203.8582 58.3755 202.6176 58.5815 L 201.0707 62.3252 C 199.7437 62.4297 198.6016 62.4341 197.2752 62.3384 L 195.7973 58.6011 C 194.5568 58.4023 193.5101 58.1416 192.3305 57.7363 L 188.9879 60.2734 C 187.7899 59.7402 186.8055 59.2056 185.717 58.498 L 186.4534 54.5479 C 185.4949 53.793 184.7365 53.0747 183.9418 52.1694 L 179.717 52.8105 C 178.9776 51.7861 178.4216 50.8608 177.8695 49.7378 L 180.6158 46.6494 C 180.2 45.5464 179.9361 44.5698 179.7409 43.4136 L 175.7887 42.0034 C 175.706 40.771 175.7265 39.7109 175.8563 38.481 L 179.8521 37.0781 C 180.0869 35.9297 180.3837 34.96 180.8354 33.8677 L 178.2154 30.8184 C 178.8032 29.7129 179.3869 28.8052 180.1547 27.8003 L 184.3166 28.4307 C 185.1313 27.5439 185.9032 26.8413 186.8731 26.1035 L 186.2618 22.2554 C 187.3544 21.5693 188.3386 21.0527 189.5319 20.5361 L 192.7596 22.9985 C 193.932 22.6055 194.9695 22.3525 196.1962 22.1602 L 197.7275 18.5435 ZM 199.4733 30.9858 C 204.9487 30.9951 209.3622 35.1367 209.3342 40.248 C 209.3059 45.3813 204.8127 49.5698 199.2955 49.5767 C 193.7677 49.5845 189.3311 45.394 189.4014 40.2437 C 189.4713 35.1147 193.9876 30.9756 199.4733 30.9858 Z" fill="#dbf1fe"/>				</g>				<g>					<path d="M 163.6726 23.1665 L 163.3004 23.9038 C 162.3239 24.1421 161.4978 24.4614 160.6185 24.9385 L 157.3448 23.7642 C 156.6729 24.2788 156.1372 24.77 155.5708 25.3892 L 156.7286 28.5103 C 156.1965 29.3306 155.8338 30.105 155.5515 31.0254 L 152.2766 32.4102 C 152.1741 33.2183 152.1526 33.9185 152.2056 34.7275 L 155.4031 36.1094 C 155.6322 37.0332 155.9506 37.812 156.4371 38.6372 L 155.9379 39.8105 C 155.4151 40.0303 153.0051 41.0479 153.2191 41.0176 C 153.3931 40.9941 154.6241 41.6558 155.2846 42.019 C 155.7509 42.5444 156.2134 42.9829 156.7826 43.4419 L 160.1478 42.2422 C 160.5961 42.4937 161.0324 42.7017 161.4852 42.8779 C 160.9932 43.5059 160.497 44.252 160.5869 44.2656 C 160.7094 44.2847 162.9393 45.3682 163.9563 45.8638 L 164.1819 46.3623 C 165.0378 46.4346 165.7798 46.4316 166.6388 46.355 L 168.1787 43.2725 C 169.1602 43.0269 169.9895 42.7017 170.8707 42.2148 L 174.1611 43.395 C 174.8308 42.8711 175.3633 42.373 175.9248 41.7451 L 174.7437 38.6025 C 175.2685 37.7778 175.6236 37.0005 175.8973 36.0786 L 179.1388 34.6934 C 179.2317 33.8877 179.2451 33.1909 179.1838 32.3857 L 176.0026 31.0122 C 175.768 30.0952 175.4462 29.3232 174.9582 28.5063 L 176.2639 25.394 C 175.7791 24.8311 175.3133 24.3745 174.7481 23.9082 L 174.727 23.8135 L 171.432 21.9512 L 170.366 24.4917 C 169.8196 24.249 169.263 24.0615 168.6414 23.9063 L 167.2629 20.8833 L 167.062 20.8667 L 167.2122 20.7324 L 163.8385 18.832 L 161.1524 21.2617 L 163.6726 23.1665 ZM 165.8595 28.4038 C 168.8619 28.4028 171.244 30.7041 171.1792 33.5479 C 171.1144 36.397 168.6167 38.7197 165.6015 38.7251 C 162.5831 38.7314 160.1947 36.4146 160.2726 33.5596 C 160.3502 30.7114 162.8541 28.4048 165.8595 28.4038 Z" fill="#9a4321"/>				</g>				<g>					<path d="M 161.4334 18.9736 C 162.2927 18.9038 163.0344 18.9072 163.8896 18.9834 L 165.2835 22.0269 C 166.2561 22.27 167.0726 22.5933 167.9342 23.0757 L 171.2851 21.9102 C 171.9342 22.4287 172.4474 22.9224 172.9848 23.5444 L 171.6669 26.6689 C 172.1605 27.4922 172.4855 28.2695 172.723 29.1914 L 175.9372 30.582 C 175.9993 31.3911 175.9859 32.0918 175.8924 32.9014 L 172.6184 34.2852 C 172.3423 35.2114 171.9836 35.9917 171.4539 36.8198 L 172.6483 39.9834 C 172.0811 40.6123 171.5433 41.1113 170.8671 41.6372 L 167.5425 40.4414 C 166.6524 40.9277 165.8145 41.2529 164.8228 41.4971 L 163.2684 44.5928 C 162.4003 44.6675 161.6507 44.6675 160.786 44.5938 L 159.3827 41.4976 C 158.4011 41.2524 157.5769 40.9268 156.7083 40.4395 L 153.3082 41.6372 C 152.6537 41.1099 152.1371 40.6094 151.5976 39.9775 L 152.9574 36.8052 C 152.4654 35.9736 152.1433 35.1899 151.9115 34.2598 L 148.6797 32.8618 C 148.6258 32.0479 148.6472 31.3442 148.7505 30.5313 L 152.0596 29.1489 C 152.3447 28.2236 152.7106 27.4458 153.2481 26.623 L 152.0769 23.481 C 152.649 22.8599 153.1903 22.3682 153.8691 21.8516 L 157.1775 23.042 C 158.0659 22.5649 158.9005 22.2471 159.8871 22.0088 L 161.4334 18.9736 ZM 162.4745 26.541 C 165.5079 26.5488 167.9153 28.8701 167.8509 31.7275 C 167.7866 34.5933 165.2638 36.9209 162.2177 36.9185 C 159.1679 36.916 156.7535 34.5796 156.8311 31.71 C 156.9085 28.8462 159.4378 26.5332 162.4745 26.541 Z" fill="#ab4b25"/>				</g>				<path d="M 158.9084 106.9985 L 159.0348 107.0474 L 159.0622 107.0303 L 158.9084 106.9985 ZM 158.516 106.9131 L 158.9084 106.9985 L 159.0622 107.0303 C 160.0293 107.2319 160.9203 107.3721 161.9474 107.4839 L 164.3049 103.0767 C 165.3843 103.1265 166.3079 103.1152 167.3896 103.0386 L 168.0334 104.3452 L 166.0126 105.814 L 169.3973 107.1157 L 169.5306 107.3843 C 170.7514 107.2197 171.7834 107.022 172.9797 106.7246 L 173.5197 101.873 C 174.5546 101.5474 175.4194 101.2192 176.4077 100.7773 L 176.7967 101.123 L 177.2755 102.8677 L 179.7894 103.7729 L 180.0726 104.0239 C 181.157 103.4536 182.0511 102.918 183.0612 102.2344 L 181.7266 97.604 C 182.5748 96.9512 183.2622 96.3545 184.0223 95.6104 L 188.6907 97.3281 C 189.4912 96.4351 190.1266 95.6387 190.814 94.667 L 187.8097 90.8823 C 188.3578 89.9932 188.7761 89.2119 189.2072 88.2705 L 194.2308 88.2505 C 194.6427 87.1582 194.9364 86.2124 195.2127 85.0879 L 190.967 82.6426 C 191.1442 81.6401 191.2402 80.7813 191.2878 79.7705 L 195.9862 78.043 C 195.9617 77.0034 195.8902 76.1084 195.7523 75.1064 L 195.8782 74.9985 L 195.7253 74.9126 L 195.7103 74.8086 L 195.4737 74.7695 L 192.3617 73.0142 L 191.4889 74.1182 L 190.807 74.0073 C 190.5935 73.0269 190.3579 72.2041 190.0195 71.2603 L 193.7703 68.0791 C 193.3132 67.0396 192.8698 66.1787 192.2873 65.2007 L 192.203 65.2163 L 192.3778 65.0703 L 188.8386 63.417 L 187.5887 64.4575 L 188.4988 65.9155 L 187.3831 66.1255 C 186.8109 65.2964 186.2775 64.6191 185.601 63.8652 L 187.9166 59.667 C 187.2054 58.9746 186.5546 58.4019 185.7986 57.8047 L 185.9045 57.4067 C 185.9045 57.4067 181.9944 55.7178 181.842 55.6289 C 181.7061 55.5498 181.9208 58.7192 182.0275 59.5264 L 181.1714 60.0303 C 180.3173 59.4604 179.5577 59.0171 178.634 58.5513 L 179.2155 53.896 C 178.1346 53.4346 177.1893 53.0928 176.0556 52.7544 L 172.9978 56.5142 C 171.9748 56.2769 171.089 56.125 170.0388 56.0078 L 168.8389 51.623 L 168.9356 51.3354 L 165.5908 49.606 L 162.9996 53.3979 L 164.7511 53.5015 L 163.9352 56.0366 C 162.8767 56.165 161.9806 56.3252 160.9422 56.5723 L 158.0519 52.8301 L 157.8197 52.9023 L 157.7484 52.6631 L 154.7735 50.9805 L 153.6171 55.8887 L 154.9729 56.0703 L 155.1725 58.6724 C 154.2184 59.1504 153.4308 59.6035 152.5408 60.1855 L 148.3569 57.7046 C 147.3924 58.4224 146.6073 59.0767 145.7331 59.8936 L 147.8738 64.0933 C 147.1519 64.8613 146.5783 65.5493 145.9575 66.3916 L 141.0221 65.5225 C 140.3818 66.5166 139.8879 67.3911 139.3715 68.4463 L 143.0298 71.6016 C 142.6399 72.5591 142.36 73.3916 142.0949 74.3833 L 137.0638 75.2695 C 136.8385 76.4092 136.7066 77.3877 136.6231 78.5405 L 141.3231 80.2031 C 141.3219 81.2222 141.3772 82.0874 141.5081 83.0947 L 138.8025 84.6465 L 138.5699 84.4385 C 138.5699 84.4385 134.3546 87.3706 134.1924 87.501 C 134.0651 87.6035 136.7052 88.2935 137.8317 88.582 L 137.9102 88.8169 L 143.0204 88.7344 C 143.4119 89.6743 143.7983 90.4536 144.3107 91.3379 L 142.9835 92.9297 L 140.5976 92.7451 L 139.2973 96.0669 L 142.6822 97.3662 C 142.8165 97.5273 142.9556 97.6885 143.1001 97.854 L 147.918 96.0166 C 148.6511 96.7476 149.3171 97.332 150.1429 97.9697 L 149.0358 101.2637 L 148.5397 100.957 L 147.6836 103.0103 L 150.5665 103.8877 C 150.8657 104.0542 151.1743 104.2168 151.5003 104.3838 L 155.3558 101.0317 C 156.3297 101.4512 157.1841 101.7593 158.2092 102.0601 L 158.3633 104.4883 L 155.1254 105.5679 L 158.5122 106.8491 L 158.516 106.9131 ZM 166.737 66.3882 C 174.235 66.3398 180.1993 72.0327 180.0663 79.1318 C 179.9324 86.272 173.6873 92.1626 166.1101 92.2437 C 158.5136 92.3242 152.5094 86.5381 152.7233 79.3652 C 152.9356 72.2334 159.2209 66.4365 166.737 66.3882 Z" fill="#937500"/>				<g>					<path d="M 162.0045 49.7871 C 163.2182 49.7192 164.253 49.7183 165.4625 49.7822 L 166.7073 54.3062 C 167.768 54.4277 168.6629 54.5825 169.6966 54.8232 L 172.7842 51.0513 C 173.9297 51.395 174.8847 51.7407 175.9768 52.2075 L 175.3911 56.8857 C 176.3243 57.3564 177.0916 57.8037 177.9546 58.3794 L 182.2564 55.8652 C 183.1842 56.5757 183.9355 57.2231 184.7676 58.0317 L 182.4304 62.2456 C 183.1138 63.0063 183.6526 63.6875 184.2311 64.5229 L 189.1839 63.605 C 189.7724 64.5894 190.2206 65.4565 190.6826 66.502 L 186.8956 69.6909 C 187.2377 70.6411 187.4758 71.4678 187.6918 72.4536 L 192.644 73.272 C 192.8124 74.4043 192.8962 75.3765 192.9238 76.5234 L 188.1795 78.2485 C 188.1319 79.2646 188.0351 80.1284 187.8565 81.1353 L 192.1451 83.603 C 191.8665 84.7329 191.5702 85.6826 191.1546 86.7788 L 186.081 86.7876 C 185.6459 87.7324 185.2237 88.5181 184.6706 89.4102 L 187.7061 93.2212 C 187.0123 94.1968 186.3709 94.9956 185.5626 95.8921 L 180.847 94.1548 C 180.0793 94.9004 179.3852 95.4985 178.5286 96.1538 L 179.8783 100.8115 C 178.8584 101.4966 177.9555 102.0327 176.8604 102.6035 L 173.1573 99.3315 C 172.159 99.7739 171.2855 100.1016 170.24 100.4268 L 169.6964 105.3027 C 168.4879 105.6001 167.4454 105.7959 166.212 105.9585 L 164.0476 101.585 C 162.9545 101.6592 162.0215 101.6689 160.9308 101.6162 L 158.5506 106.0415 C 157.3207 105.9058 156.2833 105.7324 155.083 105.4609 L 154.7714 100.5811 C 153.7351 100.2759 152.872 99.9644 151.8875 99.54 L 147.9927 102.9023 C 146.9135 102.3511 146.0262 101.8306 145.0274 101.1621 L 146.6187 96.4497 C 145.7838 95.8071 145.1103 95.2178 144.3694 94.4805 L 139.5007 96.3174 C 138.7228 95.4287 138.1096 94.6348 137.4508 93.6636 L 140.7218 89.7676 C 140.2034 88.8774 139.8127 88.0933 139.4167 87.147 L 134.2516 87.2173 C 133.8813 86.1162 133.6252 85.1611 133.3959 84.0239 L 137.8861 81.4712 C 137.7533 80.4585 137.6969 79.5879 137.698 78.564 L 132.9468 76.8804 C 133.0307 75.7212 133.1637 74.7373 133.391 73.5923 L 138.4759 72.7124 C 138.7435 71.7158 139.0261 70.8789 139.42 69.918 L 135.7209 66.7358 C 136.2427 65.6763 136.7416 64.7983 137.3884 63.7998 L 142.3769 64.686 C 143.0039 63.8403 143.5836 63.1499 144.3128 62.3799 L 142.1476 58.1509 C 143.0309 57.3325 143.8241 56.6758 144.7987 55.9565 L 149.0279 58.4629 C 149.9268 57.8789 150.7229 57.4258 151.6868 56.9473 L 151.3223 52.2524 C 152.446 51.7798 153.4246 51.4297 154.5943 51.0806 L 157.5163 54.8511 C 158.5654 54.604 159.4708 54.4458 160.5401 54.3198 L 162.0045 49.7871 ZM 163.3751 64.7349 C 170.95 64.7051 176.9769 70.4429 176.8451 77.5801 C 176.7123 84.7573 170.406 90.665 162.7506 90.728 C 155.0754 90.7925 149.0059 84.9609 149.2193 77.7485 C 149.4313 70.5776 155.7805 64.7646 163.3751 64.7349 Z" fill="#f2c300"/>				</g>				<g>					<path d="M 201.2009 34.9482 C 205.1535 34.9443 208.3333 37.9204 208.3083 41.605 C 208.2832 45.3022 205.0449 48.3174 201.0707 48.3296 C 197.0913 48.3423 193.8995 45.3403 193.9466 41.6353 C 193.9933 37.9414 197.2434 34.9521 201.2009 34.9482 ZM 201.1783 37.2793 C 203.7504 37.2754 205.8186 39.2129 205.7999 41.6108 C 205.7812 44.0127 203.6749 45.9697 201.0935 45.9771 C 198.5099 45.9844 196.4368 44.0361 196.4648 41.6299 C 196.4928 39.229 198.6039 37.2827 201.1783 37.2793 Z" fill="#71797f"/>				</g>				<g>					<path d="M 199.4498 33.4482 C 203.4248 33.4531 206.6234 36.4463 206.5989 40.1426 C 206.5742 43.8506 203.3182 46.8672 199.3215 46.8711 C 195.319 46.8745 192.1082 43.8564 192.1548 40.1396 C 192.2012 36.4336 195.4693 33.4424 199.4498 33.4482 ZM 199.4274 35.7866 C 202.0141 35.7891 204.0947 37.7368 204.0763 40.1421 C 204.0579 42.5518 201.9402 44.5098 199.3439 44.5112 C 196.7455 44.5127 194.66 42.5532 194.6878 40.1401 C 194.7155 37.731 196.8383 35.7842 199.4274 35.7866 Z" fill="#dbf1fe"/>				</g>				<g>					<path d="M 164.7032 67.6504 C 170.4577 67.625 175.0272 71.9756 174.9193 77.3877 C 174.8112 82.8242 170.0293 87.2837 164.2287 87.3286 C 158.4168 87.3726 153.8234 82.9683 153.978 77.5127 C 154.1318 72.0811 158.938 67.6748 164.7032 67.6504 ZM 164.6625 69.3452 C 169.4221 69.3237 173.2005 72.9224 173.1081 77.3989 C 173.0152 81.8911 169.0616 85.5732 164.2701 85.6089 C 159.4711 85.6436 155.6764 82.0073 155.8007 77.502 C 155.9248 73.0122 159.8951 69.3667 164.6625 69.3452 Z" fill="#937500"/>				</g>				<g>					<path d="M 163.2407 66.6455 C 169.0208 66.6289 173.6113 70.9966 173.5041 76.4219 C 173.3962 81.8706 168.5935 86.3345 162.7669 86.3711 C 156.929 86.4063 152.3136 81.9849 152.468 76.5166 C 152.6218 71.0713 157.4491 66.6621 163.2407 66.6455 ZM 163.1999 68.3447 C 167.9811 68.3301 171.7767 71.9434 171.6847 76.4302 C 171.5922 80.9336 167.6213 84.6182 162.8084 84.6465 C 157.9876 84.6753 154.1749 81.0244 154.2994 76.5078 C 154.4231 72.0078 158.4109 68.3594 163.1999 68.3447 Z" fill="#fec110"/>				</g>				<path d="M 164.1111 26.6631 C 161.0925 25.6812 158.4856 26.3701 157.0311 29.4365 C 155.5725 32.5107 156.253 35.5967 160.201 36.7241 C 165.8175 38.2725 188.5672 45.5405 196.7469 47.082 C 200.224 48.064 204.971 46.2134 206.1884 42.2866 C 207.4628 38.1753 206.2585 34.5405 199.7983 33.002 C 194.2255 32.4375 169.703 28.0693 164.1111 26.6631 Z" stroke="#15161e" stroke-width="1" fill="none"/>				<path d="M 155.6575 84.4453 C 150.357 80.52 152.0192 72.3271 156.3031 69.1289 C 160.2931 64.6499 188.3082 40.3481 191.7954 36.8057 C 195.9474 32.5879 200.0027 31.9438 203.2969 34.1772 C 207.1293 36.7759 206.7195 40.1826 204.7389 42.8403 C 199.6678 51.5659 172.3441 82.8037 172.3441 82.8037 C 168.6712 87.4946 161.2003 88.3745 155.6575 84.4453 Z" stroke="#15161e" stroke-width="1" fill="none"/>				<path d="M 136.4823 26.6533 L 137.6717 29.4688 L 133.5814 29.2119 L 136.4823 26.6533 Z" fill="#cccccc"/>				<g>					<g>						<path d="M 92.0099 36.5112 C 99.1838 36.5044 104.7219 41.8066 104.3932 48.3872 C 104.0627 55.0029 97.9322 60.4209 90.6861 60.4565 C 83.4234 60.4922 77.8516 55.1074 78.2544 48.4634 C 78.6551 41.8555 84.8196 36.519 92.0099 36.5112 ZM 91.8194 39.96 C 96.9187 39.9521 100.8518 43.7227 100.6111 48.3984 C 100.3694 53.0918 96.0157 56.9277 90.8799 56.9497 C 85.736 56.9722 81.7857 53.1606 82.0638 48.4521 C 82.3412 43.7622 86.7117 39.9683 91.8194 39.96 Z" fill="#666d73"/>					</g>					<path d="M 90.169 2.8687 L 85.6301 12.4619 C 82.9915 12.9141 80.7526 13.4922 78.2217 14.376 L 70.1816 8.7056 L 70.1326 8.4575 L 65.0463 6.0854 L 64.0882 9.7656 L 65.7332 10.0723 C 64.7602 10.6187 63.7998 11.2007 62.7914 11.8496 L 64.5548 21.9893 C 62.4988 23.665 60.8699 25.2485 59.1661 27.2275 L 47.6361 26.4834 C 46.1754 28.6172 45.0707 30.519 43.9598 32.813 L 51.6664 40.2739 C 50.8574 42.6743 50.371 44.7861 50.0574 47.2607 L 39.3632 52.4214 C 39.3605 54.521 39.4828 56.3555 39.766 58.3467 L 38.3839 57.2271 L 35.7447 57.4243 L 39.8787 59.3662 L 39.9194 59.3384 L 39.9379 59.4575 L 51.2977 61.689 C 52.0307 64.0542 52.8748 66.021 54.0899 68.1948 L 47.7402 77.7837 C 48.0035 78.1387 48.2654 78.4834 48.5269 78.8174 L 47.5116 81.1372 L 52.0243 82.75 L 52.4979 83.2134 L 63.86 79.2983 C 65.9225 80.8452 67.8416 82.0137 70.2086 83.1611 L 70.3669 94.1035 C 72.8877 94.9775 75.1119 95.5708 77.7693 96.0771 L 85.3609 87.2109 C 88.0743 87.4214 90.4352 87.3989 93.1705 87.1353 L 97.4114 92.7339 L 95.2469 94.2275 L 99.8969 95.9141 L 100.5704 95.6577 C 102.9199 95.1353 104.9876 94.5347 107.3152 93.7041 L 108.6716 82.814 C 111.1354 81.6309 113.1563 80.437 115.3575 78.8647 L 126.0764 82.5498 C 128.0569 80.7622 129.6288 79.125 131.3091 77.103 L 126.1527 67.7188 C 127.5765 65.5527 128.6143 63.5986 129.5865 61.2524 L 140.8709 58.9326 C 141.5267 56.5288 141.9216 54.4468 142.1868 52.0015 L 132.3608 46.9922 C 132.3237 44.5513 132.0786 42.4692 131.5507 40.103 L 139.8509 32.7231 C 139.0212 30.4648 138.1548 28.5923 136.9669 26.4888 L 136.6031 26.5137 L 132.7568 24.2554 L 132.41 26.7842 L 125.6423 27.2241 C 124.1893 25.2651 122.7649 23.6968 120.9302 22.0337 L 123.7655 11.9976 C 121.7344 10.563 119.8947 9.4595 117.6413 8.3228 L 108.2878 14.4365 C 105.8769 13.5469 103.7184 12.9604 101.1458 12.498 L 97.9012 3.5034 L 97.9554 3.3848 L 97.8312 3.312 L 97.6831 2.8975 L 97.0544 2.855 L 93.2045 0.5942 L 91.6761 2.791 C 91.1846 2.8101 90.6843 2.8364 90.169 2.8687 ZM 92.5176 28.3989 C 104.9023 28.3955 114.4963 37.5415 113.9731 48.9097 C 113.4448 60.3848 102.8226 69.8477 90.2212 69.9346 C 77.5683 70.0225 67.8727 60.6309 68.6197 49.0718 C 69.3593 37.6191 80.0831 28.4014 92.5176 28.3989 Z" fill="#666d73"/>				</g>				<g>					<path d="M 85.9418 0.6377 C 88.6125 0.4785 90.8959 0.4941 93.5425 0.6895 L 97.049 10.3584 C 99.6512 10.8311 101.8345 11.4268 104.2732 12.3286 L 113.7292 6.2065 C 116.0081 7.3569 117.8687 8.4727 119.9228 9.9204 L 117.0601 20.0078 C 118.9158 21.6851 120.3566 23.2671 121.8266 25.2417 L 133.2744 24.5342 C 134.476 26.6528 135.3526 28.5386 136.1918 30.8115 L 127.8046 38.2109 C 128.3393 40.5923 128.5878 42.6865 128.6261 45.1416 L 138.5602 50.2061 C 138.2934 52.6631 137.8946 54.7568 137.2329 57.1724 L 125.8271 59.4771 C 124.845 61.8335 123.7965 63.7969 122.358 65.9707 L 127.5745 75.4219 C 125.8767 77.4517 124.2883 79.0938 122.2868 80.8877 L 111.4475 77.1558 C 109.2222 78.731 107.1792 79.9268 104.6882 81.1113 L 103.3208 92.063 C 100.6997 92.9868 98.4034 93.6255 95.6776 94.1865 L 89.0121 85.4219 C 86.2453 85.6807 83.8573 85.6978 81.1122 85.4795 L 73.4357 94.3828 C 70.7468 93.8672 68.496 93.2651 65.9448 92.3794 L 65.78 81.3691 C 63.3845 80.209 61.442 79.0293 59.3538 77.4673 L 47.8567 81.3799 C 46.0039 79.5884 44.5565 77.9434 43.0384 75.9043 L 49.4614 66.2705 C 48.2307 64.0796 47.3755 62.0986 46.6324 59.7158 L 35.132 57.4414 C 34.7207 54.9868 34.5453 52.8584 34.5473 50.3584 L 45.371 45.1924 C 45.6873 42.7031 46.1786 40.5791 46.9965 38.1655 L 39.1921 30.6362 C 40.3157 28.3301 41.4332 26.4199 42.9111 24.2759 L 54.5816 25.0576 C 56.3054 23.0703 57.9532 21.4819 60.0331 19.8013 L 58.2443 9.5933 C 60.5008 8.1538 62.5199 7.0493 64.9653 5.9175 L 73.8594 12.1797 C 76.4197 11.2983 78.6849 10.7236 81.3539 10.2759 L 85.9418 0.6377 ZM 88.328 26.3296 C 100.8549 26.3618 110.5605 35.5889 110.0356 47.0215 C 109.5061 58.5625 98.7679 68.0537 86.0219 68.1104 C 73.2214 68.168 63.4071 58.6938 64.1578 47.064 C 64.9017 35.543 75.7486 26.2974 88.328 26.3296 Z" fill="#dbf1fe"/>				</g>				<g>					<path d="M 87.8179 34.4902 C 95.0742 34.5029 100.6775 39.8525 100.3478 46.4707 C 100.0163 53.1255 93.8178 58.5596 86.4884 58.5767 C 79.1412 58.5933 73.5019 53.1621 73.9066 46.4785 C 74.3094 39.8306 80.544 34.478 87.8179 34.4902 ZM 87.6265 37.9585 C 92.7844 37.9648 96.7642 41.769 96.5224 46.4722 C 96.2798 51.1929 91.878 55.0405 86.683 55.0493 C 81.4793 55.0581 77.4815 51.2134 77.7612 46.4766 C 78.0396 41.7598 82.4596 37.9531 87.6265 37.9585 Z" fill="#dbf1fe"/>				</g>			</g>			<g>				<path d="M 0.5 89.3945 L 69.1845 48.7593 L 76.0618 65.0269 L 7.5693 105.5591 L 0.5 89.3945 Z" fill="#063133"/>				<path opacity="0.302" d="M 0.5 89.3945 L 69.1845 48.7593 L 72.8293 57.3804 L 4.2465 97.9609 L 0.5 89.3945 Z" fill="#000000"/>				<path d="M 61.5207 59.1191 C 66.327 70.459 79.3141 75.5669 90.5441 70.5576 C 99.139 66.7246 104.2436 58.0688 104.0435 49.1221 L 98.0783 60.4038 L 81.4665 61.0117 L 72.7127 45.5845 L 79.9266 33.2358 C 79.9266 33.2358 94.8132 31.9604 94.2924 32.5298 C 94.1281 32.7104 95.0825 32.7827 96.4646 32.793 C 90.2705 27.3931 81.3002 25.7632 73.2219 29.3706 C 61.9315 34.4121 56.7 47.7446 61.5207 59.1191 Z" fill="#063133"/>				<path d="M 14.5293 66.1499 C 14.5293 66.1499 15.3615 62.3408 17.3828 62.3408 C 19.4039 62.3408 21.1873 65.1973 21.1873 65.1973 C 21.1873 65.1973 22.8518 60.0786 25.9431 60.436 C 29.0344 60.7935 30.6988 65.1973 30.6988 65.1973 C 30.6988 65.1973 31.1744 59.2456 35.4546 59.4839 C 39.7348 59.7222 41.1615 64.2451 41.1615 64.2451 C 41.1615 64.2451 40.567 57.6978 44.966 57.5791 C 49.3651 57.46 49.7217 64.2451 49.7217 64.2451 L 48.7706 77.5776 C 48.7706 77.5776 54.5963 80.6724 55.4287 82.3394 C 56.2609 84.0059 50.3161 98.6475 49.7217 100.4331 C 49.1272 102.2188 47.1061 107.814 43.0638 110.9082 C 39.0213 114.0039 23.0896 113.7656 23.0896 113.7656 C 23.0896 113.7656 12.7459 107.4561 12.627 102.3374 C 12.508 97.2188 14.5293 66.1499 14.5293 66.1499 Z" stroke="#ffffff00" stroke-width="1" fill="#e9c094"/>				<path d="M 48.9352 108.3169 L 48.9352 118.0806 L 13.4522 117.1929 L 13.4522 108.3169 L 48.9352 108.3169 Z" stroke="#ffffff00" stroke-width="2" fill="#f7f7f7"/>				<path d="M 50.7122 116.9067 L 50.756 159.8872 C 50.756 159.8872 8.7998 160.1406 9.0539 159.8872 C 9.308 159.6333 12.5639 116.9067 12.5639 116.9067 L 50.7122 116.9067 Z" stroke="#ffffff00" stroke-width="2" fill="#063133"/>			</g>		</g>	</g></svg>