<?xml version="1.0" standalone="no"?><!-- Generator: Adobe Fireworks CS6, Export SVG Extension by Aaron Beall (http://fireworks.abeall.com) . Version: 0.6.1  --><!DOCTYPE svg PUBLIC "-//W3C//DTD SVG 1.1//EN" "http://www.w3.org/Graphics/SVG/1.1/DTD/svg11.dtd"><svg id="Untitled-Page%201" viewBox="0 0 188 156" style="background-color:#ffffff00" version="1.1"	xmlns="http://www.w3.org/2000/svg" xmlns:xlink="http://www.w3.org/1999/xlink" xml:space="preserve"	x="0px" y="0px" width="188px" height="156px">	<g id="Layer%201">		<g>			<g>				<g>					<path d="M 5.1514 7.0244 C 5.1514 1.2349 6.3874 0 12.1823 0 L 178.1119 0 C 183.9067 0 185.1427 1.2349 185.1427 7.0244 L 185.1427 101.6221 L 5.1514 101.6221 L 5.1514 7.0244 Z" fill="#313133"/>					<path d="M 10.0311 7.0244 L 178.7729 7.0244 L 178.7729 94.5977 L 10.0311 94.5977 L 10.0311 7.0244 Z" fill="#45bfc4"/>					<path d="M 70.7732 112.8613 L 70.7732 125.0371 C 70.7732 125.0371 70.6978 127.6738 62.8049 131.125 C 54.9118 134.5771 50.6179 135.3398 50.6179 135.3398 L 50.6179 137.2129 L 139.6761 137.2129 L 139.6761 135.3398 C 139.6761 135.3398 135.3822 134.5771 127.4892 131.125 C 119.5963 127.6738 119.521 125.0371 119.521 125.0371 L 119.521 112.8613 L 70.7732 112.8613 Z" fill="#ffffff"/>					<path d="M 50.6179 135.8081 L 139.6761 135.8081 L 139.6761 137.6816 L 50.6179 137.6816 L 50.6179 135.8081 Z" fill="#dadada"/>					<path d="M 70.7732 112.8613 L 119.521 112.8613 L 119.521 125.0371 L 70.7732 125.0371 L 70.7732 112.8613 Z" fill="#dadada"/>					<path d="M 5.1514 101.1533 L 5.1514 109.0386 C 5.1514 114.1934 8.5052 117.5439 13.6648 117.5439 L 176.6291 117.5439 C 181.7888 117.5439 185.1427 114.1934 185.1427 109.0386 L 185.1427 101.1533 L 5.1514 101.1533 Z" fill="#ffffff"/>					<path opacity="0.502" d="M 95.147 7.0244 L 179.5179 7.0244 L 179.5179 94.5977 L 95.147 94.5977 L 95.147 7.0244 Z" fill="#13858a"/>				</g>				<g>					<path d="M 19.7782 17.3694 L 52.6978 17.3694 L 52.6978 52.4924 L 19.7782 52.4924 L 19.7782 17.3694 Z" fill="#f2c300"/>					<rect opacity="0.502" x="20.8097" y="57.9878" width="28.3084" height="2.9788" fill="#000000"/>					<rect opacity="0.502" x="20.8097" y="63.2007" width="11.1744" height="2.9788" fill="#000000"/>					<rect opacity="0.502" x="20.8097" y="72.1372" width="28.3084" height="1.4893" fill="#000000"/>					<rect opacity="0.502" x="20.8097" y="75.8606" width="28.3084" height="1.4895" fill="#000000"/>					<rect opacity="0.502" x="20.8097" y="79.5842" width="14.8991" height="1.4895" fill="#000000"/>				</g>				<path d="M 159.9244 104.9668 C 160.9574 104.9668 161.7969 105.8086 161.7969 106.8438 C 161.7969 107.8789 160.9574 108.7212 159.9244 108.7212 C 158.8915 108.7212 158.0508 107.8789 158.0508 106.8438 C 158.0508 105.8086 158.8915 104.9668 159.9244 104.9668 L 159.9244 104.9668 ZM 159.9244 102.7861 C 157.6873 102.7861 155.8744 104.6025 155.8744 106.8438 C 155.8744 109.0854 157.6873 110.9023 159.9244 110.9023 C 162.1604 110.9023 163.9734 109.0854 163.9734 106.8438 C 163.9734 104.6025 162.1604 102.7861 159.9244 102.7861 L 159.9244 102.7861 Z" fill="#ffffff"/>			</g>			<path d="M 148.9593 91.1685 L 149.4281 91.1685 L 149.4281 91.1685 L 148.9593 91.1685 Z" fill="#6ea1a4"/>			<g>				<path d="M 18.6933 87.8994 L 21.0632 87.8994 L 20.0475 85.1743 L 18.6933 87.8994 Z" fill="#333333"/>				<path d="M 27.2905 87.7532 L 29.7051 88.0056 L 28.9706 85.1028 L 27.2905 87.7532 Z" fill="#333333"/>				<path d="M 8.0681 87.6611 L 10.438 87.502 L 9.1456 84.865 L 8.0681 87.6611 Z" fill="#333333"/>				<path d="M 16.594 91.6467 L 17.9483 87.8994 L 20.3183 87.8994 L 21.6725 91.6467 L 16.594 91.6467 Z" fill="#e99432"/>				<path d="M 26.2492 91.4417 L 28.0355 87.7532 L 30.4501 88.0056 L 31.4099 91.9631 L 26.2492 91.4417 Z" fill="#e99432"/>				<path d="M 7.8393 91.4717 L 8.813 87.6611 L 11.183 87.502 L 12.9179 91.1311 L 7.8393 91.4717 Z" fill="#e99432"/>				<g>					<path id="Ellipse" d="M 0.7493 119.9209 C 0.7493 117.4751 8.7071 115.4922 18.524 115.4922 C 28.3407 115.4922 36.2986 117.4751 36.2986 119.9209 C 36.2986 122.3667 28.3407 124.3491 18.524 124.3491 C 8.7071 124.3491 0.7493 122.3667 0.7493 119.9209 Z" fill="#0a494d"/>					<path id="Ellipse2" d="M 2.7807 119.4526 C 2.7807 118.1357 9.8291 116.7275 18.524 116.7275 C 27.2188 116.7275 34.2672 118.1357 34.2672 119.4526 C 34.2672 120.7695 27.2188 122.1777 18.524 122.1777 C 9.8291 122.1777 2.7807 120.7695 2.7807 119.4526 Z" fill="#021819"/>					<path d="M 16.594 91.1785 L 16.594 131.3755 L 21.6725 131.3755 L 21.6725 91.1785 L 16.594 91.1785 Z" fill="#ab4b25"/>					<path d="M 26.2492 91.4417 L 22.0836 131.1748 L 27.1044 131.5029 L 31.4099 91.9631 L 26.2492 91.4417 Z" fill="#f2c300"/>					<path d="M 7.8393 91.9402 L 11.9219 131.8438 L 17.0004 131.5029 L 12.9179 91.5996 L 7.8393 91.9402 Z" fill="#137f7f"/>					<path opacity="0.102" d="M 20.0475 91.1785 L 20.0475 131.3755 L 22.4174 131.3755 L 22.4174 91.1785 L 20.0475 91.1785 Z" fill="#000000"/>					<path opacity="0.102" d="M 29.0075 91.7202 L 24.767 131.3496 L 27.1044 131.5029 L 31.4099 91.9631 L 29.0075 91.7202 Z" fill="#000000"/>					<path opacity="0.102" d="M 10.548 91.7585 L 14.6304 131.6621 L 17.0004 131.5029 L 12.9179 91.5996 L 10.548 91.7585 Z" fill="#000000"/>					<path d="M 36.3153 119.583 L 36.2986 119.5903 C 36.2766 122.0313 28.3272 124.0088 18.524 124.0088 C 8.7071 124.0088 0.7493 122.0259 0.7493 119.5801 L 0.6921 119.3828 C 0.6921 119.3828 4.812 150.0889 4.812 150.4092 C 4.812 153.1367 11.0268 155.3486 18.6933 155.3486 C 25.8765 155.3486 31.7854 153.4072 32.5016 150.9185 L 36.3153 119.583 Z" fill="#063133"/>					<path d="M 0.7493 120.1973 C 0.7493 122.6431 8.7071 124.626 18.524 124.626 C 28.3407 124.626 36.2986 122.6431 36.2986 120.1973 L 34.2672 120.1973 C 34.2672 121.5142 27.2188 122.9224 18.524 122.9224 C 9.8291 122.9224 2.7807 121.5142 2.7807 120.1973 L 0.7493 120.1973 Z" fill="#0a494d"/>				</g>			</g>			<g>				<g>					<g>						<path d="M 153.2575 123.6997 C 155.2413 120.3271 153.2737 123.707 153.2737 123.707 C 153.2952 126.0352 161.0031 127.9209 170.5087 127.9209 C 180.0275 127.9209 187.799 123.5093 187.799 123.5093 C 188.3868 134.9912 181.6371 150.0005 181.6371 150.3057 C 181.6371 152.9072 177.7783 155.0166 170.3445 155.0166 C 163.3794 155.0166 159.8169 153.165 159.1224 150.7915 C 159.1224 150.7915 151.7328 133.6567 153.2575 123.6997 Z" fill="#bec3c7"/>						<path id="Ellipse3" d="M 187.8353 123.9009 C 187.8353 121.6836 179.9557 119.8857 170.2357 119.8857 C 160.5156 119.8857 152.636 121.6836 152.636 123.9009 C 152.636 126.1187 160.5156 127.916 170.2357 127.916 C 179.9557 127.916 187.8353 126.1187 187.8353 123.9009 Z" fill="#eaeff2"/>						<path d="M 156.0498 130.8799 C 155.0195 129.8672 148.9521 126.9404 147.871 131.2148 C 146.9561 134.8325 148.099 139.5049 156.539 141.1582 C 164.9792 142.8125 160.1508 141.1582 160.1508 141.1582 L 157.9837 138.3174 C 157.9837 138.3174 150.7371 137.0068 150.7604 134.0557 C 150.7836 131.1055 153.4796 132.0537 156.539 134.0557 C 159.5986 136.0586 156.0498 130.8799 156.0498 130.8799 Z" stroke="#ffffff00" stroke-width="1" fill="#bec3c7"/>						<path opacity="0.302" d="M 170.9858 85.759 C 170.2727 86.8411 166.8908 90.719 170.9858 95.7021 C 175.0808 100.686 181.136 105.916 179.6539 110.6177 C 178.1718 115.3198 168.8188 121.2715 168.8188 121.2715 C 168.8188 121.2715 177.3036 115.3711 176.7646 110.6177 C 176.2256 105.8643 171.7082 100.6743 171.7082 100.6743 C 171.7082 100.6743 175.4136 106.2637 175.3199 109.9072 C 175.1953 114.7568 170.2635 118.4307 170.2635 118.4307 C 170.2635 118.4307 175.5388 113.1807 171.7082 107.0664 C 169.2881 103.2036 162.4881 91.0059 170.9858 85.759 Z" fill="#ffffff"/>					</g>					<path d="M 170.7385 155.0166 L 170.7385 127.9209 C 180.1523 127.8506 187.799 123.5093 187.799 123.5093 C 188.3868 134.9912 181.6371 150.0005 181.6371 150.3057 C 181.6371 152.8613 177.9145 154.9434 170.7385 155.0166 Z" fill="#eaeff2"/>				</g>				<path d="M 158.9603 125.4668 C 151.212 124.1768 153.951 122.3164 164.0331 121.7227 C 172.066 121.25 180.7023 121.8955 184.2227 122.9453 C 187.3167 123.8677 186.1346 125.0156 181.249 125.6973 C 175.4457 126.5068 165.4013 126.5391 158.9603 125.4668 L 158.9603 125.4668 Z" fill="#bd9372"/>				<path d="M 160.705 125.2354 C 154.379 124.1377 156.6155 122.5781 164.9708 122.0459 C 171.8536 121.6074 179.4952 122.1367 182.6934 123.0557 C 185.545 123.8755 184.4663 124.9014 180.0136 125.4961 C 174.8284 126.1885 166.1136 126.1733 160.705 125.2354 L 160.705 125.2354 Z" fill="#452507"/>				<path d="M 176.9323 125.8496 C 176.4492 125.6938 176.6291 125.4536 177.3288 125.3174 C 178.0169 125.1836 178.938 125.2031 179.3908 125.3584 C 179.8376 125.5107 179.67 125.7412 179.0115 125.8765 C 178.342 126.0146 177.4088 126.0039 176.9323 125.8496 L 176.9323 125.8496 Z" fill="#bd9372"/>				<path d="M 181.5411 124.7339 C 180.8045 124.4277 181.0884 124.0186 182.1621 123.8301 C 183.207 123.6475 184.5795 123.749 185.2418 124.0474 C 185.8904 124.3398 185.6367 124.7227 184.6639 124.9131 C 183.6645 125.1089 182.2616 125.0337 181.5411 124.7339 L 181.5411 124.7339 Z" fill="#bd9372"/>				<path d="M 181.6381 124.6841 C 181.5129 124.6528 181.5607 124.6089 181.7446 124.5864 C 181.9279 124.5635 182.175 124.5713 182.2975 124.6025 C 182.4194 124.6338 182.3727 124.6772 182.1921 124.6997 C 182.011 124.7227 181.7629 124.7158 181.6381 124.6841 L 181.6381 124.6841 Z" fill="#bd9372"/>				<path d="M 181.6166 124.4272 C 181.5404 124.4077 181.5698 124.3813 181.6814 124.3682 C 181.793 124.3545 181.9437 124.3594 182.0189 124.3789 C 182.0935 124.3984 182.0646 124.4248 181.9542 124.438 C 181.8438 124.4512 181.6924 124.4468 181.6166 124.4272 L 181.6166 124.4272 Z" fill="#bd9372"/>				<path d="M 181.1501 125.1201 C 180.7891 125.0332 180.9271 124.9072 181.4552 124.8408 C 181.974 124.7749 182.6656 124.793 183.0036 124.8789 C 183.3377 124.9644 183.2088 125.0854 182.7123 125.1514 C 182.2075 125.2197 181.5065 125.2061 181.1501 125.1201 L 181.1501 125.1201 Z" fill="#bd9372"/>				<path d="M 179.6602 125.1201 C 179.2993 125.0332 179.4372 124.9072 179.9653 124.8408 C 180.4841 124.7749 181.1757 124.793 181.5137 124.8789 C 181.8477 124.9644 181.7189 125.0854 181.2225 125.1514 C 180.7176 125.2197 180.0166 125.2061 179.6602 125.1201 L 179.6602 125.1201 Z" fill="#bd9372"/>				<path d="M 182.7883 124.5889 C 182.4466 124.501 182.5788 124.3779 183.08 124.3184 C 183.5731 124.2583 184.2295 124.2822 184.55 124.3696 C 184.8661 124.4556 184.7428 124.5732 184.2703 124.6338 C 183.7904 124.6953 183.1254 124.6763 182.7883 124.5889 L 182.7883 124.5889 Z" fill="#bd9372"/>				<path d="M 173.4131 125.7852 C 173.6667 125.6631 174.4836 125.585 175.2235 125.6104 C 175.9461 125.6348 176.3307 125.7485 176.095 125.8662 C 175.8582 125.9844 175.0768 126.0645 174.3358 126.0449 C 173.5771 126.0249 173.1575 125.9082 173.4131 125.7852 L 173.4131 125.7852 Z" fill="#bd9372"/>				<path d="M 170.6142 125.7246 C 171.4286 125.7114 172.066 125.7964 172.0562 125.9141 C 172.0464 126.0317 171.3929 126.1416 170.5801 126.1602 C 169.748 126.1787 169.066 126.0947 169.0749 125.9727 C 169.0836 125.8491 169.7808 125.7383 170.6142 125.7246 L 170.6142 125.7246 Z" fill="#bd9372"/>			</g>			<rect opacity="0.502" x="58.7578" y="14.7029" width="30.0641" height="2.0667" fill="#000000"/>			<rect opacity="0.502" x="59.0024" y="35.8308" width="30.0735" height="1.7173" fill="#000000"/>			<rect opacity="0.502" x="59.2575" y="57.5498" width="30.0832" height="1.8733" fill="#000000"/>			<rect opacity="0.502" x="106.5553" y="17.3899" width="28.6829" height="1.9761" fill="#000000"/>			<rect opacity="0.502" x="59.3516" y="65.5535" width="30.0868" height="2.009" fill="#000000"/>			<rect opacity="0.502" x="106.6469" y="25.3237" width="28.6861" height="1.8486" fill="#000000"/>			<rect opacity="0.502" x="106.7939" y="41.5728" width="28.6912" height="1.6443" fill="#000000"/>			<rect opacity="0.502" x="106.8856" y="49.47" width="28.6944" height="1.6294" fill="#000000"/>			<rect opacity="0.502" x="106.8394" y="45.5413" width="28.6927" height="1.5852" fill="#000000"/>			<rect opacity="0.502" x="106.9311" y="53.4519" width="8.4158" height="1.6174" fill="#000000"/>			<rect opacity="0.502" x="58.9551" y="31.7656" width="30.0717" height="1.7839" fill="#000000"/>			<rect opacity="0.502" x="59.2107" y="53.5503" width="30.0814" height="1.8054" fill="#000000"/>			<rect opacity="0.502" x="106.5098" y="13.4253" width="28.6814" height="2.0398" fill="#000000"/>			<rect opacity="0.502" x="58.8045" y="18.7627" width="30.0659" height="1.9995" fill="#000000"/>			<rect opacity="0.502" x="59.0497" y="39.8977" width="30.0753" height="1.6497" fill="#000000"/>			<rect opacity="0.502" x="59.3048" y="61.553" width="30.085" height="1.9407" fill="#000000"/>			<rect opacity="0.502" x="106.6008" y="21.355" width="28.6845" height="1.9126" fill="#000000"/>			<rect opacity="0.502" x="59.399" y="69.5574" width="30.0886" height="2.0771" fill="#000000"/>			<rect opacity="0.502" x="59.5406" y="81.571" width="30.094" height="2.2813" fill="#000000"/>			<rect opacity="0.502" x="58.8518" y="22.8267" width="15.9594" height="1.7871" fill="#000000"/>			<path opacity="0.502" d="M 58.9311 45.4084 L 82.7546 45.3977 L 82.774 47.0042 L 58.95 47.0359 L 58.9311 45.4084 Z" fill="#000000"/>			<path opacity="0.502" d="M 59.2807 75.5359 L 68.0934 75.385 L 68.1124 77.0066 L 59.2995 77.1653 L 59.2807 75.5359 Z" fill="#000000"/>			<path opacity="0.502" d="M 106.916 37.1187 L 109.9804 37.1301 L 109.9988 38.7166 L 106.9344 38.7078 L 106.916 37.1187 Z" fill="#000000"/>			<g>				<path d="M 35.701 147.1699 C 34.7564 147.8281 33.2174 148.5459 33.3689 149.3975 C 33.5212 150.2529 33.2203 150.9609 34.7263 151.002 C 36.2761 151.043 37.2345 151.5762 38.5836 150.4229 C 39.9623 149.2446 43.032 146.8721 44.4152 145.6885 C 45.828 144.48 52.2236 144.9395 53.0886 144.8574 C 53.9655 144.7734 78.708 144.8589 78.708 144.8589 C 78.708 144.8589 77.5192 143.3359 77.9189 142.7197 C 78.3203 142.1006 43.5814 142.3867 43.5814 142.3867 C 43.5814 142.3867 36.7516 146.4385 35.701 147.1699 Z" stroke="#ffffff00" stroke-width="1" fill="#2a2a28"/>				<path d="M 80.5583 147.043 C 80.5583 147.043 85.4917 150.02 84.5435 150.4814 C 83.6059 150.938 80.5322 151.7168 79.1546 150.2866 C 77.8047 148.8862 70.737 145.3398 70.9007 144.8579 C 71.0647 144.375 37.6697 144.0732 37.6697 144.0732 L 38.3998 142.498 L 73.0031 142.79 L 80.5583 147.043 Z" stroke="#ffffff00" stroke-width="1" fill="#2a2a28"/>				<path opacity="0.2" d="M 49.2749 142.2656 C 49.2749 142.2656 55.0279 142.5488 55.1477 145.7666 C 55.2686 149.0127 53.0821 152.9658 51.3689 153.7578 C 49.6988 154.5303 48.3537 154.4834 46.5839 154.2769 C 44.866 154.0752 41.9648 154.3193 40.8584 150.5381 C 39.7828 146.8623 40.2457 145.043 41.032 144.0498 C 41.8274 143.0444 43.8103 142.5586 45.4187 142.3477 C 47.0718 142.1309 49.2749 142.2656 49.2749 142.2656 Z" stroke="#ffffff00" stroke-width="1" fill="#ffffff"/>				<path opacity="0.2" d="M 61.2942 145.8105 C 61.2942 145.8105 62.364 149.6812 63.9411 151.7041 C 65.5626 153.7842 68.1127 154.3008 70.8105 154.126 C 73.6124 153.9443 75.5467 152.6255 76.0959 150.1768 C 76.6467 147.7207 76.8645 146.5898 76.5609 145.9209 C 76.259 145.2559 75.0163 143.645 73.0031 142.79 C 71.0477 141.959 65.577 142.2832 64.0811 142.917 C 62.6156 143.5366 61.4109 143.8755 61.2942 145.8105 Z" stroke="#ffffff00" stroke-width="1" fill="#ffffff"/>				<path d="M 49.2749 142.2656 C 49.2749 142.2656 55.0279 142.5488 55.1477 145.7666 C 55.2686 149.0127 53.0821 152.9658 51.3689 153.7578 C 49.6988 154.5303 48.3537 154.4834 46.5839 154.2769 C 44.866 154.0752 41.9648 154.3193 40.8584 150.5381 C 39.7828 146.8623 40.2457 145.043 41.032 144.0498 C 41.8274 143.0444 43.8103 142.5586 45.4187 142.3477 C 47.0718 142.1309 49.2749 142.2656 49.2749 142.2656 ZM 61.2942 145.8105 C 61.4109 143.8755 62.6156 143.5366 64.0811 142.917 C 65.577 142.2832 71.0477 141.959 73.0031 142.79 C 75.0163 143.645 76.259 145.2559 76.5609 145.9209 C 76.8645 146.5898 76.6467 147.7207 76.0959 150.1768 C 75.5467 152.6255 73.6124 153.9443 70.8105 154.126 C 68.1127 154.3008 65.5626 153.7842 63.9411 151.7041 C 62.364 149.6812 61.2942 145.8105 61.2942 145.8105 ZM 57.4895 144.8574 C 58.163 144.6025 59.668 145.9346 59.7104 145.832 C 59.6955 145.791 59.693 145.7803 59.7024 145.7993 C 59.711 145.8164 59.713 145.8262 59.7104 145.832 C 59.9432 146.4609 63.0842 153.9648 66.1853 154.8311 C 69.6534 155.8003 76.3618 154.377 76.7505 153.4316 C 77.1406 152.4824 77.0321 149.5181 77.3353 148.0698 C 77.6389 146.6196 77.681 145.4648 78.708 144.8589 C 79.7481 144.2441 79.5004 143.0889 78.9424 142.7051 C 78.3891 142.3237 78.0582 142.0703 73.1168 141.7559 C 68.7362 141.4775 62.7658 141.8965 61.7221 141.9995 C 60.6943 142.1006 59.4454 143.0645 58.4634 142.9971 C 57.496 142.9297 55.0938 141.6943 53.4954 141.2842 C 51.9383 140.8857 40.7374 141.6484 40.7374 141.6484 L 39.6031 141.6802 C 39.6031 141.6802 37.7567 142.1768 37.3109 142.5215 C 36.8686 142.8623 37.476 144.543 38.1242 144.8564 C 38.7809 145.1733 38.3486 145.4639 38.5836 145.646 C 38.8194 145.8301 40.5961 152.9717 42.2444 153.9312 C 43.9453 154.9199 48.8486 155.7036 51.2672 154.6504 C 53.7777 153.5562 56.1499 149.8208 56.422 147.6182 C 56.6941 145.416 56.7825 145.125 57.4895 144.8574 Z" fill="#141312"/>			</g>		</g>	</g></svg>