<svg viewBox="0 0 226 160" style="background-color:#ffffff00" xmlns="http://www.w3.org/2000/svg" width="226" height="160"><path d="M45.595 24.174c0-5.79 1.236-7.025 7.03-7.025h165.93c5.795 0 7.03 1.234 7.03 7.024v94.597H45.596V24.175z" fill="#313133"/><path d="M50.475 24.174h168.74v87.573H50.476V24.174z" fill="#45bfc4"/><path d="M111.217 130.01v12.177s-.076 2.636-7.97 6.087c-7.892 3.452-12.186 4.215-12.186 4.215v1.872h89.06v-1.873s-4.294-.764-12.187-4.216c-7.893-3.45-7.97-6.088-7.97-6.088V130.01h-48.746z" fill="#fff"/><path d="M91.06 152.958h89.06v1.873H91.06v-1.873zM111.217 130.01h48.747v12.177h-48.747V130.01z" fill="#dadada"/><path d="M45.595 118.303v7.885c0 5.155 3.354 8.505 8.513 8.505h162.965c5.16 0 8.513-3.35 8.513-8.505v-7.885H45.596z" fill="#fff"/><path opacity=".502" d="M135.59 24.174h84.37v87.573h-84.37V24.174z" fill="#13858a"/><g><path d="M208.038 60.087l3.314 1.49.147.066.273.122.036-.267c1.037-.487 1.93-.987 2.907-1.627l-.65-3.912c.958-.756 1.718-1.473 2.517-2.375l4.134.61c.744-1.02 1.306-1.938 1.868-3.052l-2.63-3.042c.427-1.094.705-2.062.918-3.207l3.895-1.405c.103-1.218.103-2.265 0-3.48l-1.11-.396-1.883-1.602-.448.77-.445-.157c-.208-1.136-.48-2.095-.902-3.177l2.625-3.016c-.52-1.022-1.037-1.876-1.7-2.796l.083-.183-3.236-1.78-1.183 2.276c-.748-.83-1.47-1.5-2.372-2.203l.675-3.814c-1.062-.685-2.022-1.203-3.188-1.72l-3.234 2.432c-1.15-.395-2.173-.65-3.384-.847l-1.448-3.605h-.018l.008-.012-3.43-1.886-2.33 3.905 1.214.012-.668 1.582c-1.218.195-2.248.45-3.412.844l-3.204-2.444c-1.185.517-2.162 1.035-3.247 1.72l.607 3.832c-.963.738-1.73 1.44-2.54 2.325l-4.13-.618c-.763 1.003-1.343 1.91-1.927 3.01l2.6 3.032c-.448 1.09-.743 2.056-.976 3.2l-3.967 1.408c-.13 1.225-.15 2.282-.068 3.51l3.922 1.394c.193 1.15.455 2.122.868 3.22l-2.094 2.364c-.34-.034-.594-.057-.594-.057l-1.217 2.263 2.76 1.614.06-.314.19.27 4.195-.65c.79.9 1.542 1.614 2.493 2.364l-.732 3.937c1.08.703 2.06 1.233 3.248 1.76l3.32-2.534c.888.305 1.702.527 2.58.7l-1.068 2.045s2.157 1.02 3.257 1.48l.14.35c1.316.092 2.45.085 3.768-.022l1.537-3.734c1.232-.207 2.273-.476 3.447-.887l-.172.92zm-6.392-27.517c5.437-.004 9.82 4.11 9.79 9.203-.03 5.114-4.492 9.297-9.97 9.318-5.49.022-9.893-4.14-9.823-9.272.07-5.11 4.556-9.245 10.003-9.248zm9.815 29.09l.04-.017-.148-.067.11.084z" fill="#71797f"/><path d="M197.727 18.544c1.305-.09 2.427-.087 3.728.014l1.46 3.624c1.22.2 2.25.46 3.41.86l3.255-2.434c1.174.523 2.14 1.045 3.21 1.735l-.678 3.826c.947.74 1.698 1.44 2.488 2.328l4.125-.608c.74 1.002 1.297 1.906 1.856 3.005l-2.642 3.02c.425 1.087.7 2.05.91 3.193l3.91 1.397c.106 1.22.106 2.272 0 3.494l-3.92 1.4c-.214 1.15-.494 2.12-.925 3.217l2.65 3.06c-.565 1.118-1.13 2.038-1.88 3.06l-4.163-.623c-.804.904-1.568 1.62-2.533 2.378l.655 3.928c-1.092.71-2.08 1.25-3.278 1.79l-3.275-2.51c-1.184.41-2.232.675-3.472.88l-1.547 3.745c-1.326.105-2.468.11-3.795.013l-1.478-3.737c-1.24-.198-2.287-.458-3.466-.864l-3.342 2.537c-1.198-.533-2.183-1.067-3.27-1.775l.735-3.95c-.958-.755-1.716-1.473-2.51-2.38l-4.226.642c-.74-1.024-1.295-1.95-1.848-3.072l2.746-3.09c-.416-1.102-.68-2.078-.875-3.234l-3.95-1.41c-.084-1.233-.064-2.293.066-3.523l3.996-1.402c.235-1.148.532-2.118.983-3.21l-2.62-3.05c.588-1.105 1.172-2.013 1.94-3.018l4.162.63c.814-.886 1.586-1.59 2.556-2.326l-.61-3.85c1.09-.685 2.076-1.2 3.27-1.718l3.227 2.462c1.172-.393 2.21-.646 3.436-.838l1.53-3.616zm1.746 12.442c5.476.01 9.89 4.15 9.86 9.262-.027 5.133-4.52 9.322-10.037 9.33-5.528.006-9.965-4.184-9.895-9.334.07-5.13 4.588-9.268 10.073-9.258z" fill="#dbf1fe"/><path d="M163.673 23.166l-.373.738c-.976.238-1.802.557-2.68 1.035l-3.275-1.176c-.672.515-1.208 1.006-1.774 1.625l1.16 3.12c-.534.82-.896 1.595-1.178 2.515l-3.275 1.385c-.103.808-.124 1.51-.07 2.318l3.196 1.38c.23.925.548 1.704 1.034 2.53l-.5 1.172c-.522.22-2.932 1.238-2.718 1.208.173-.024 1.404.638 2.065 1 .466.526.928.965 1.498 1.424l3.365-1.2c.448.252.884.46 1.337.636-.492.628-.988 1.374-.898 1.388.122.02 2.352 1.102 3.37 1.598l.225.498c.856.073 1.598.07 2.457-.007l1.54-3.082c.98-.246 1.81-.57 2.69-1.058l3.29 1.18c.67-.524 1.203-1.022 1.765-1.65l-1.18-3.142c.523-.825.88-1.602 1.152-2.524l3.242-1.387c.092-.805.105-1.502.044-2.307l-3.18-1.374c-.236-.917-.558-1.69-1.046-2.506l1.306-3.112c-.485-.563-.95-1.02-1.516-1.486l-.02-.095-3.296-1.862-1.066 2.542c-.546-.243-1.103-.43-1.725-.586l-1.377-3.023-.2-.016.15-.135-3.374-1.9-2.688 2.43 2.52 1.904zm2.186 5.238c3.002 0 5.384 2.3 5.32 5.144-.066 2.85-2.563 5.172-5.58 5.177-3.017.006-5.405-2.31-5.327-5.165.077-2.85 2.58-5.155 5.587-5.156z" fill="#9a4321"/><path d="M161.433 18.974c.86-.07 1.6-.067 2.457.01l1.394 3.043c.972.243 1.79.566 2.65 1.05l3.35-1.167c.65.52 1.163 1.012 1.7 1.634l-1.317 3.125c.494.822.82 1.6 1.056 2.52l3.214 1.392c.062.81.05 1.51-.045 2.32l-3.274 1.383c-.276.926-.634 1.707-1.164 2.535l1.194 3.163c-.567.63-1.105 1.128-1.78 1.654l-3.326-1.196c-.89.488-1.727.813-2.72 1.057l-1.554 3.096c-.868.074-1.617.074-2.482 0l-1.403-3.095c-.982-.246-1.806-.57-2.675-1.058l-3.4 1.197c-.654-.527-1.17-1.028-1.71-1.66l1.36-3.172c-.493-.83-.815-1.615-1.047-2.545l-3.23-1.398c-.054-.814-.033-1.518.07-2.33l3.31-1.383c.285-.926.65-1.704 1.188-2.527l-1.17-3.142c.57-.62 1.112-1.112 1.79-1.628l3.31 1.19c.888-.477 1.722-.795 2.71-1.033l1.545-3.036zm1.042 7.567c3.033.01 5.44 2.33 5.376 5.188-.063 2.865-2.586 5.193-5.632 5.19-3.05-.002-5.464-2.338-5.387-5.208.078-2.864 2.608-5.177 5.644-5.17z" fill="#ab4b25"/><path d="M158.908 107l.127.047.027-.017-.154-.03zm-.392-.087l.392.086.154.03c.967.202 1.858.342 2.885.454l2.358-4.407c1.08.05 2.003.038 3.085-.038l.643 1.305-2.02 1.47 3.384 1.3.134.27c1.22-.165 2.253-.363 3.45-.66l.54-4.852c1.035-.326 1.9-.654 2.888-1.096l.39.346.477 1.745 2.514.905.283.25c1.084-.57 1.978-1.105 2.988-1.79l-1.333-4.63c.848-.652 1.535-1.248 2.295-1.993l4.67 1.718c.8-.893 1.435-1.69 2.122-2.66l-3.004-3.786c.548-.89.966-1.67 1.397-2.612l5.024-.02c.413-1.092.706-2.038.983-3.162l-4.246-2.445c.177-1.003.273-1.862.32-2.873l4.7-1.727c-.025-1.04-.097-1.935-.235-2.937l.126-.107-.153-.087-.015-.104-.236-.04-3.112-1.756-.873 1.104-.683-.11c-.213-.98-.45-1.804-.787-2.748l3.75-3.18c-.457-1.04-.9-1.9-1.483-2.88l-.084.016.175-.146-3.54-1.653-1.25 1.04.91 1.46-1.115.21c-.572-.83-1.106-1.508-1.782-2.262l2.317-4.198c-.712-.692-1.362-1.265-2.118-1.862l.105-.398s-3.91-1.69-4.063-1.778c-.136-.08.08 3.09.185 3.896l-.856.504c-.853-.57-1.612-1.013-2.536-1.48l.582-4.654c-1.08-.46-2.027-.803-3.16-1.142l-3.058 3.76c-1.023-.237-1.91-.39-2.96-.506l-1.2-4.385.098-.288-3.345-1.73L163 53.4l1.75.103-.815 2.537c-1.058.128-1.954.288-2.993.535l-2.89-3.742-.232.072-.072-.24-2.974-1.68-1.157 4.907 1.356.18.2 2.602c-.955.478-1.742.93-2.632 1.514l-4.183-2.48c-.965.716-1.75 1.37-2.624 2.188l2.14 4.2c-.72.767-1.295 1.455-1.915 2.298l-4.936-.87c-.64.995-1.134 1.87-1.65 2.924l3.658 3.156c-.39.957-.67 1.79-.935 2.78l-5.03.887c-.226 1.14-.358 2.118-.442 3.27l4.7 1.663c0 1.02.054 1.884.185 2.892l-2.706 1.552-.232-.21c0 .002-4.215 2.934-4.378 3.064-.127.103 2.513.793 3.64 1.082l.078.235 5.11-.083c.392.94.778 1.72 1.29 2.604l-1.327 1.592-2.385-.185-1.3 3.322 3.384 1.3c.135.16.274.322.418.487l4.818-1.837c.733.73 1.4 1.315 2.225 1.953l-1.107 3.294-.496-.307-.856 2.053 2.882.878c.3.166.608.33.934.496l3.856-3.352c.974.42 1.828.727 2.853 1.028l.153 2.428-3.238 1.08 3.387 1.28.004.065zm8.22-40.525c7.5-.048 13.463 5.645 13.33 12.744-.134 7.14-6.38 13.03-13.956 13.112-7.596.08-13.6-5.706-13.387-12.88.213-7.13 6.498-12.928 14.014-12.976z" fill="#937500"/><path d="M162.005 49.787c1.213-.068 2.248-.07 3.458-.005l1.244 4.524c1.06.122 1.956.277 2.99.517l3.087-3.772c1.146.345 2.1.69 3.193 1.158l-.586 4.678c.934.47 1.702.918 2.565 1.493l4.3-2.515c.93.71 1.68 1.358 2.513 2.167l-2.338 4.214c.684.76 1.223 1.44 1.8 2.277l4.954-.918c.588.984 1.037 1.852 1.5 2.897l-3.788 3.19c.342.95.58 1.776.796 2.762l4.952.818c.168 1.132.252 2.104.28 3.25l-4.745 1.727c-.048 1.015-.145 1.878-.323 2.885l4.288 2.468c-.28 1.13-.575 2.08-.99 3.176l-5.074.008c-.434.944-.856 1.73-1.41 2.622l3.036 3.81c-.694.977-1.335 1.776-2.143 2.672l-4.716-1.737c-.768.745-1.462 1.344-2.318 2l1.348 4.656c-1.02.687-1.922 1.223-3.018 1.793l-3.703-3.27c-.998.44-1.87.77-2.917 1.094l-.544 4.876c-1.208.297-2.25.493-3.484.656l-2.164-4.375c-1.094.074-2.026.084-3.117.03l-2.38 4.427c-1.23-.136-2.267-.31-3.467-.58l-.312-4.88c-1.035-.306-1.898-.618-2.883-1.042l-3.894 3.362c-1.08-.55-1.967-1.07-2.966-1.74l1.592-4.712c-.836-.643-1.51-1.232-2.25-1.97l-4.87 1.837c-.777-.888-1.39-1.682-2.05-2.653l3.272-3.896c-.52-.89-.91-1.675-1.305-2.62l-5.165.07c-.37-1.102-.627-2.057-.856-3.194l4.49-2.553c-.133-1.01-.19-1.882-.188-2.906l-4.75-1.684c.083-1.16.216-2.143.443-3.288l5.086-.88c.268-.996.55-1.833.944-2.794l-3.7-3.182c.523-1.06 1.022-1.938 1.668-2.936l4.99.886c.626-.846 1.206-1.536 1.935-2.306l-2.165-4.23c.883-.817 1.676-1.474 2.65-2.194l4.23 2.507c.9-.584 1.695-1.037 2.66-1.516l-.366-4.695c1.124-.472 2.103-.822 3.272-1.17l2.922 3.77c1.05-.248 1.955-.406 3.024-.532l1.465-4.533zm1.37 14.948c7.575-.03 13.602 5.708 13.47 12.845-.133 7.177-6.44 13.085-14.094 13.148-7.675.065-13.744-5.767-13.53-12.98.21-7.17 6.56-12.983 14.155-13.013z" fill="#f2c300"/><path d="M201.2 34.948c3.954-.004 7.133 2.972 7.108 6.657-.025 3.697-3.263 6.712-7.237 6.725-3.98.012-7.17-2.99-7.123-6.695.046-3.694 3.296-6.683 7.254-6.687zm-.022 2.33c2.572-.003 4.64 1.935 4.622 4.333-.02 2.403-2.125 4.36-4.707 4.367-2.583.007-4.656-1.94-4.628-4.347.028-2.4 2.14-4.347 4.713-4.35z" fill="#71797f"/><path d="M199.45 33.448c3.975.005 7.173 2.998 7.15 6.695-.026 3.708-3.282 6.724-7.28 6.728-4 .005-7.212-3.014-7.165-6.73.046-3.706 3.314-6.698 7.295-6.692zm-.023 2.34c2.587 0 4.668 1.95 4.65 4.354-.02 2.41-2.137 4.368-4.733 4.37-2.6 0-4.684-1.96-4.656-4.372.028-2.41 2.15-4.356 4.74-4.353z" fill="#dbf1fe"/><path d="M164.703 67.65c5.755-.025 10.324 4.326 10.216 9.738-.11 5.436-4.89 9.896-10.69 9.94-5.813.045-10.407-4.36-10.252-9.815.154-5.432 4.96-9.838 10.725-9.863zm-.04 1.695c4.76-.02 8.537 3.577 8.445 8.054-.093 4.49-4.046 8.173-8.838 8.21-4.8.034-8.594-3.603-8.47-8.108.125-4.49 4.095-8.135 8.862-8.157z" fill="#937500"/><path d="M163.24 66.645c5.78-.016 10.37 4.352 10.264 9.777-.108 5.45-4.91 9.913-10.737 9.95-5.838.034-10.453-4.387-10.3-9.855.155-5.446 4.982-9.855 10.774-9.87zm-.04 1.7c4.78-.015 8.577 3.598 8.485 8.085-.093 4.504-4.064 8.188-8.877 8.216-4.82.03-8.633-3.622-8.51-8.138.125-4.5 4.113-8.15 8.902-8.163z" fill="#fec110"/><path d="M164.11 26.663c-3.018-.982-5.624-.293-7.08 2.773-1.458 3.075-.777 6.16 3.17 7.288 5.618 1.55 28.367 8.817 36.547 10.358 3.477.982 8.224-.87 9.44-4.795 1.276-4.112.07-7.746-6.39-9.285-5.57-.565-30.094-4.933-35.686-6.34z" stroke="#15161e" fill="none"/><path d="M155.657 84.445c-5.3-3.925-3.638-12.118.646-15.316 3.99-4.48 32.005-28.782 35.492-32.324 4.152-4.218 8.208-4.862 11.502-2.63 3.832 2.6 3.423 6.007 1.442 8.664-5.072 8.726-32.396 39.964-32.396 39.964-3.673 4.69-11.144 5.57-16.686 1.64z" stroke="#15161e" fill="none"/><path d="M136.482 26.653l1.19 2.816-4.09-.258 2.9-2.56z" fill="#ccc"/><path d="M92.01 36.51c7.174-.006 12.712 5.297 12.383 11.877-.33 6.616-6.46 12.034-13.707 12.07-7.263.035-12.834-5.35-12.432-11.994.4-6.608 6.566-11.944 13.756-11.952zm-.19 3.45c5.1-.008 9.032 3.763 8.79 8.438-.24 4.694-4.594 8.53-9.73 8.552-5.144.022-9.094-3.79-8.816-8.498.277-4.69 4.648-8.484 9.755-8.492z" fill="#666d73"/><path d="M90.17 2.87l-4.54 9.592c-2.638.452-4.877 1.03-7.408 1.914l-8.04-5.67-.05-.248-5.086-2.373-.958 3.68 1.645.307c-.973.547-1.933 1.13-2.942 1.778l1.765 10.14c-2.056 1.675-3.685 3.26-5.39 5.238l-11.53-.745c-1.46 2.134-2.564 4.036-3.675 6.33l7.706 7.46c-.81 2.4-1.295 4.513-1.61 6.988l-10.693 5.16c-.002 2.1.12 3.935.403 5.927l-1.382-1.12-2.64.197 4.135 1.942.04-.028.018.12 11.36 2.23c.733 2.366 1.577 4.333 2.792 6.507l-6.35 9.59c.264.354.525.698.787 1.032l-1.015 2.32 4.512 1.613.474.463 11.362-3.915c2.063 1.547 3.982 2.716 6.35 3.863l.157 10.944c2.52.874 4.745 1.467 7.402 1.973l7.59-8.866c2.714.21 5.075.19 7.81-.075l4.24 5.6-2.163 1.493 4.65 1.686.673-.256c2.35-.523 4.418-1.123 6.745-1.954l1.357-10.89c2.463-1.183 4.484-2.377 6.686-3.95l10.718 3.686c1.98-1.788 3.553-3.425 5.233-5.447l-5.157-9.384c1.423-2.167 2.46-4.12 3.433-6.468l11.285-2.32c.657-2.403 1.052-4.485 1.317-6.93l-9.826-5.01c-.036-2.44-.28-4.523-.81-6.89l8.3-7.38c-.83-2.257-1.695-4.13-2.883-6.233l-.364.024-3.846-2.26-.347 2.53-6.768.44c-1.453-1.96-2.877-3.527-4.712-5.19l2.835-10.036c-2.03-1.435-3.87-2.538-6.124-3.675l-9.352 6.114c-2.41-.89-4.57-1.477-7.142-1.94L97.9 3.504l.055-.118-.124-.073-.147-.414-.63-.043-3.85-2.26-1.527 2.196c-.49.02-.992.046-1.507.08zm2.348 25.53c12.384-.005 21.978 9.142 21.455 20.51-.528 11.475-11.15 20.938-23.752 21.025-12.652.087-22.347-9.304-21.6-20.863.74-11.453 11.463-20.67 23.898-20.673z" fill="#666d73"/><path d="M85.942.638c2.67-.16 4.954-.144 7.6.05l3.507 9.67c2.6.473 4.785 1.07 7.223 1.97l9.456-6.12c2.278 1.15 4.14 2.265 6.193 3.712l-2.863 10.088c1.856 1.677 3.297 3.26 4.767 5.234l11.447-.708c1.202 2.12 2.08 4.005 2.918 6.277l-8.387 7.4c.534 2.382.783 4.477.82 6.932l9.935 5.064c-.267 2.457-.665 4.55-1.327 6.966l-11.406 2.305c-.982 2.357-2.03 4.32-3.47 6.494l5.218 9.452c-1.698 2.03-3.287 3.672-5.288 5.466l-10.84-3.732c-2.225 1.575-4.268 2.77-6.76 3.955l-1.366 10.953c-2.62.924-4.917 1.563-7.642 2.123l-6.666-8.764c-2.767.26-5.155.276-7.9.058l-7.676 8.903c-2.69-.516-4.94-1.118-7.49-2.004l-.166-11.01c-2.395-1.16-4.338-2.34-6.426-3.903L47.857 81.38c-1.853-1.792-3.3-3.437-4.82-5.476l6.424-9.633c-1.23-2.19-2.084-4.17-2.828-6.554l-11.5-2.275c-.41-2.453-.587-4.582-.585-7.082l10.824-5.166c.317-2.49.81-4.613 1.627-7.026l-7.805-7.53c1.124-2.306 2.24-4.216 3.72-6.36l11.67.782c1.723-1.988 3.37-3.576 5.45-5.257L58.245 9.594c2.257-1.44 4.276-2.544 6.72-3.675l8.895 6.262c2.56-.882 4.825-1.456 7.494-1.904L85.942.638zm2.386 25.692c12.527.032 22.233 9.26 21.708 20.692-.53 11.54-11.268 21.032-24.014 21.088-12.8.058-22.615-9.416-21.864-21.046.744-11.52 11.59-20.767 24.17-20.734z" fill="#dbf1fe"/><g><path d="M87.818 34.49c7.256.013 12.86 5.362 12.53 11.98-.332 6.656-6.53 12.09-13.86 12.107-7.347.016-12.986-5.415-12.58-12.1.4-6.646 6.636-12 13.91-11.987zm-.192 3.468c5.158.007 9.138 3.81 8.896 8.514-.242 4.72-4.644 8.569-9.84 8.577-5.203.008-9.2-3.837-8.92-8.573.278-4.717 4.698-8.524 9.864-8.518z" fill="#dbf1fe"/></g></g><g><path d="M.5 89.394L69.184 48.76l6.878 16.267L7.57 105.56.5 89.393z" fill="#063133"/><path opacity=".302" d="M.5 89.394L69.184 48.76l3.645 8.62L4.245 97.96.5 89.395z"/><path d="M61.52 59.12c4.807 11.34 17.794 16.447 29.024 11.438 8.595-3.833 13.7-12.49 13.5-21.436l-5.966 11.282-16.612.608-8.753-15.428 7.214-12.348s14.886-1.276 14.365-.706c-.164.18.79.253 2.173.263-6.195-5.4-15.165-7.03-23.243-3.422-11.29 5.042-16.522 18.375-11.7 29.75z" fill="#063133"/><path d="M14.53 66.15s.832-3.81 2.853-3.81c2.02 0 3.804 2.857 3.804 2.857s1.665-5.118 4.756-4.76c3.09.357 4.756 4.76 4.756 4.76s.474-5.95 4.755-5.713c4.28.238 5.706 4.76 5.706 4.76.002 0-.593-6.546 3.806-6.665 4.4-.12 4.756 6.665 4.756 6.665l-.95 13.333s5.824 3.094 6.657 4.76c.83 1.668-5.114 16.31-5.708 18.095-.595 1.786-2.616 7.38-6.658 10.475-4.043 3.096-19.974 2.858-19.974 2.858s-10.344-6.31-10.463-11.43c-.12-5.117 1.902-36.186 1.902-36.186z" stroke="#ffffff00" fill="#e9c094"/><path d="M48.935 108.317v9.764l-35.483-.887v-8.876h35.483z" stroke="#ffffff00" stroke-width="2" fill="#f7f7f7"/><path d="M50.712 116.907l.044 42.98s-41.956.254-41.702 0c.254-.254 3.51-42.98 3.51-42.98h38.148z" stroke="#ffffff00" stroke-width="2" fill="#063133"/></g></svg>