<svg viewBox="0 0 188 156" style="background-color:#ffffff00" xmlns="http://www.w3.org/2000/svg" width="188" height="156"><path d="M5.15 7.024C5.15 1.234 6.388 0 12.183 0h165.93c5.795 0 7.03 1.235 7.03 7.024v94.598H5.153V7.024z" fill="#313133"/><path d="M10.03 7.024h168.743v87.574H10.03V7.024z" fill="#45bfc4"/><path d="M70.773 112.86v12.177s-.075 2.637-7.968 6.088c-7.893 3.452-12.187 4.215-12.187 4.215v1.873h89.058v-1.873s-4.294-.763-12.187-4.215c-7.894-3.45-7.97-6.088-7.97-6.088V112.86H70.774z" fill="#fff"/><path d="M50.618 135.808h89.058v1.874H50.618v-1.874zM70.773 112.86h48.748v12.177H70.774V112.86z" fill="#dadada"/><path d="M5.15 101.153v7.886c0 5.153 3.355 8.504 8.515 8.504H176.63c5.16 0 8.513-3.35 8.513-8.505v-7.887H5.15z" fill="#fff"/><path opacity=".502" d="M95.147 7.024h84.37v87.574h-84.37V7.024z" fill="#13858a"/><path d="M19.778 17.37h32.92V52.49h-32.92V17.37z" fill="#f2c300"/><path opacity=".502" d="M20.81 57.988h28.308v2.98H20.81zM20.81 63.2h11.174v2.98H20.81zM20.81 72.137h28.308v1.49H20.81zM20.81 75.86h28.308v1.49H20.81zM20.81 79.584h14.9v1.49h-14.9z"/><path d="M159.924 104.967c1.033 0 1.873.842 1.873 1.877 0 1.035-.84 1.877-1.873 1.877-1.032 0-1.873-.84-1.873-1.876 0-1.035.84-1.877 1.874-1.877zm0-2.18c-2.237 0-4.05 1.816-4.05 4.057 0 2.24 1.813 4.058 4.05 4.058 2.236 0 4.05-1.817 4.05-4.058 0-2.24-1.814-4.058-4.05-4.058z" fill="#fff"/><path d="M148.96 91.168h.468-.47z" fill="#6ea1a4"/><path d="M18.693 87.9h2.37l-1.015-2.726-1.355 2.725zM27.29 87.753l2.415.253-.734-2.903-1.68 2.65zM8.068 87.66l2.37-.158-1.292-2.637-1.078 2.796z" fill="#333"/><path d="M16.594 91.647l1.354-3.748h2.37l1.354 3.747h-5.078zM26.25 91.442l1.785-3.69 2.415.254.96 3.957-5.16-.52zM7.84 91.472l.973-3.81 2.37-.16 1.735 3.63-5.08.34z" fill="#e99432"/><path d="M.75 119.92c0-2.445 7.957-4.428 17.774-4.428s17.775 1.983 17.775 4.43c0 2.445-7.96 4.427-17.776 4.427-9.817 0-17.775-1.983-17.775-4.43z" fill="#0a494d"/><path d="M2.78 119.453c0-1.317 7.05-2.725 15.744-2.725 8.695 0 15.743 1.408 15.743 2.725 0 1.316-7.048 2.725-15.743 2.725s-15.743-1.41-15.743-2.725z" fill="#021819"/><path d="M16.594 91.178v40.197h5.078V91.178h-5.078z" fill="#ab4b25"/><path d="M26.25 91.442l-4.166 39.733 5.02.328 4.306-39.54-5.16-.52z" fill="#f2c300"/><path d="M7.84 91.94l4.082 39.904 5.078-.34L12.918 91.6l-5.08.34z" fill="#137f7f"/><path opacity=".102" d="M20.047 91.178v40.197h2.37V91.178h-2.37zM29.008 91.72l-4.24 39.63 2.336.153 4.306-39.54-2.402-.243zM10.548 91.758l4.082 39.904 2.37-.16L12.918 91.6l-2.37.16z"/><path d="M36.315 119.583l-.016.007c-.023 2.44-7.973 4.42-17.776 4.42-9.817 0-17.775-1.984-17.775-4.43l-.058-.197s4.12 30.706 4.12 31.026c0 2.727 6.215 4.94 13.88 4.94 7.184 0 13.093-1.943 13.81-4.431l3.813-31.337z" fill="#063133"/><path d="M.75 120.197c0 2.446 7.957 4.43 17.774 4.43s17.775-1.984 17.775-4.43h-2.033c0 1.317-7.048 2.725-15.743 2.725S2.78 121.514 2.78 120.197H.75z" fill="#0a494d"/><g><path d="M153.257 123.7c1.984-3.373.017.007.017.007.02 2.328 7.73 4.214 17.235 4.214 9.518 0 17.29-4.41 17.29-4.41.587 11.48-6.163 26.49-6.163 26.796 0 2.6-3.86 4.71-11.292 4.71-6.966 0-10.528-1.85-11.223-4.224 0 0-7.39-17.135-5.865-27.092z" fill="#bec3c7"/><path d="M187.835 123.9c0-2.216-7.88-4.014-17.6-4.014-9.72 0-17.6 1.798-17.6 4.015 0 2.22 7.88 4.016 17.6 4.016 9.72 0 17.6-1.797 17.6-4.015z" fill="#eaeff2"/><path d="M156.05 130.88c-1.03-1.013-7.098-3.94-8.18.335-.914 3.618.23 8.29 8.67 9.943 8.44 1.655 3.61 0 3.61 0l-2.166-2.84s-7.247-1.31-7.224-4.262c.024-2.95 2.72-2.002 5.78 0 3.06 2.003-.49-3.176-.49-3.176z" stroke="#ffffff00" fill="#bec3c7"/><path opacity=".302" d="M170.986 85.76c-.713 1.08-4.095 4.96 0 9.942 4.095 4.984 10.15 10.214 8.668 14.916-1.482 4.702-10.835 10.654-10.835 10.654s8.484-5.9 7.945-10.654c-.54-4.754-5.057-9.944-5.057-9.944s3.706 5.59 3.612 9.233c-.125 4.85-5.056 8.524-5.056 8.524s5.275-5.25 1.444-11.364c-2.42-3.862-9.22-16.06-.722-21.307z" fill="#fff"/><path d="M170.738 155.017V127.92c9.414-.07 17.06-4.41 17.06-4.41.59 11.48-6.16 26.49-6.16 26.796 0 2.555-3.724 4.637-10.9 4.71z" fill="#eaeff2"/><path d="M158.96 125.467c-7.748-1.29-5.01-3.15 5.073-3.744 8.033-.473 16.67.172 20.19 1.222 3.094.923 1.912 2.07-2.974 2.752-5.804.81-15.85.842-22.29-.23z" fill="#bd9372"/><path d="M160.705 125.235c-6.326-1.097-4.09-2.657 4.266-3.19 6.884-.438 14.525.092 17.723 1.01 2.852.82 1.773 1.846-2.68 2.44-5.185.694-13.9.678-19.308-.26z" fill="#452507"/><path d="M176.932 125.85c-.483-.156-.303-.396.397-.533.687-.133 1.608-.114 2.06.04.448.154.28.384-.378.52-.67.138-1.603.127-2.08-.027zM181.54 124.734c-.736-.306-.452-.715.622-.904 1.045-.183 2.417-.08 3.08.217.648.293.395.676-.578.866-1 .196-2.402.12-3.123-.18z" fill="#bd9372"/><path d="M181.638 124.684c-.125-.03-.077-.075.107-.098.183-.022.43-.015.553.017.12.03.075.074-.106.097-.18.023-.43.016-.554-.016zM181.617 124.427c-.077-.02-.047-.046.064-.06.113-.013.264-.008.34.012.073.018.045.045-.066.058-.11.013-.262.01-.337-.01zM181.15 125.12c-.36-.087-.223-.213.305-.28.52-.065 1.21-.047 1.55.04.333.084.204.205-.293.27-.504.07-1.206.056-1.562-.03z" fill="#bd9372"/><path d="M179.66 125.12c-.36-.087-.223-.213.305-.28.52-.065 1.21-.047 1.55.04.333.084.204.205-.292.27-.505.07-1.206.056-1.563-.03zM182.788 124.59c-.34-.09-.21-.212.292-.272.493-.06 1.15-.036 1.47.052.316.086.193.203-.28.264-.48.06-1.145.042-1.482-.045zM173.413 125.785c.254-.122 1.07-.2 1.81-.175.723.025 1.108.14.872.256-.237.118-1.018.198-1.76.18-.758-.02-1.178-.138-.922-.26zM170.614 125.725c.815-.014 1.452.07 1.442.19-.01.117-.663.227-1.476.245-.832.02-1.514-.065-1.505-.187.01-.124.706-.235 1.54-.248z" fill="#bd9372"/></g><path opacity=".502" d="M58.758 14.703h30.064v2.067H58.758zM59.002 35.83h30.073v1.718H59.002zM59.258 57.55H89.34v1.873H59.26zM106.555 17.39h28.683v1.976h-28.683zM59.352 65.553H89.44v2.01H59.35zM106.647 25.324h28.686v1.85h-28.686zM106.794 41.573h28.69v1.644h-28.69zM106.886 49.47h28.694v1.63h-28.694zM106.84 45.54h28.692v1.586H106.84zM106.93 53.452h8.417v1.617h-8.416zM58.955 31.766h30.072v1.784H58.955zM59.21 53.55h30.082v1.805h-30.08zM106.51 13.425h28.68v2.04h-28.68zM58.804 18.763H88.87v2H58.804zM59.05 39.898h30.075v1.65H59.05zM59.305 61.553H89.39v1.94H59.305zM106.6 21.355h28.685v1.913H106.6zM59.4 69.557h30.088v2.077h-30.09zM59.54 81.57h30.095v2.282H59.54zM58.852 22.827h15.96v1.787H58.85zM58.93 45.408l23.825-.01.02 1.606-23.825.032-.02-1.628zM59.28 75.536l8.813-.15.02 1.62-8.813.16-.02-1.63zM106.916 37.12l3.064.01.02 1.587-3.066-.01-.018-1.588z"/><g><path d="M35.7 147.17c-.944.658-2.483 1.376-2.33 2.228.15.855-.15 1.563 1.356 1.604 1.55.04 2.508.574 3.858-.58 1.378-1.177 4.448-3.55 5.83-4.733 1.414-1.21 7.81-.75 8.675-.833.875-.084 25.618.002 25.618.002s-1.19-1.524-.79-2.14c.402-.62-34.337-.333-34.337-.333s-6.828 4.052-7.88 4.783z" stroke="#ffffff00" fill="#2a2a28"/><path d="M80.558 147.043s4.934 2.977 3.985 3.438c-.937.458-4.01 1.237-5.388-.193-1.35-1.4-8.418-4.947-8.254-5.43.165-.482-33.23-.784-33.23-.784l.73-1.575 34.603.292 7.555 4.253z" stroke="#ffffff00" fill="#2a2a28"/><path opacity=".2" d="M49.275 142.266s5.753.283 5.873 3.5c.12 3.247-2.066 7.2-3.78 7.992-1.67.772-3.014.725-4.784.52-1.718-.203-4.62.04-5.726-3.74-1.075-3.676-.612-5.495.174-6.488.795-1.006 2.778-1.49 4.387-1.702 1.652-.217 3.855-.082 3.855-.082zM61.294 145.81s1.07 3.87 2.647 5.894c1.623 2.08 4.173 2.597 6.87 2.422 2.802-.182 4.737-1.5 5.286-3.95.55-2.455.77-3.586.465-4.255-.3-.664-1.544-2.275-3.557-3.13-1.955-.83-7.426-.507-8.922.127-1.464.62-2.67.958-2.786 2.893z" stroke="#ffffff00" fill="#fff"/><path d="M49.275 142.266s5.753.283 5.873 3.5c.12 3.247-2.066 7.2-3.78 7.992-1.67.772-3.014.725-4.784.52-1.718-.203-4.62.04-5.726-3.74-1.075-3.676-.612-5.495.174-6.488.795-1.006 2.778-1.49 4.387-1.702 1.652-.217 3.855-.082 3.855-.082zm12.02 3.544c.116-1.935 1.32-2.273 2.786-2.893 1.497-.634 6.968-.958 8.923-.127 2.013.855 3.256 2.466 3.558 3.13.305.67.087 1.8-.464 4.257-.55 2.448-2.484 3.767-5.285 3.95-2.697.174-5.247-.343-6.87-2.423-1.576-2.023-2.646-5.894-2.646-5.894zm-3.806-.953c.673-.255 2.178 1.078 2.22.975-.014-.04-.017-.052-.008-.033.01.016.01.026.008.032.233.63 3.374 8.133 6.475 9 3.468.968 10.177-.455 10.566-1.4.39-.95.282-3.914.585-5.362.304-1.45.346-2.605 1.373-3.21 1.04-.616.792-1.77.234-2.155-.553-.38-.884-.635-5.825-.95-4.38-.278-10.35.142-11.395.245-1.028.1-2.277 1.065-3.26.997-.966-.067-3.368-1.303-4.967-1.713-1.557-.398-12.758.364-12.758.364l-1.134.032s-1.846.497-2.292.84c-.44.342.166 2.023.814 2.336.657.317.225.608.46.79.235.184 2.012 7.326 3.66 8.285 1.7.99 6.605 1.774 9.023.72 2.51-1.094 4.883-4.83 5.155-7.032.272-2.202.36-2.493 1.068-2.76z" fill="#141312"/></g></svg>