<svg xmlns="http://www.w3.org/2000/svg" width="326" height="119" viewBox="0 0 326 119"><g fill="#FFF"><path d="M144.7 77.7v-.6h1.7v-1.9c0-1.3.9-1.8 2.1-1.8.3 0 .5 0 .8.1v.5c-.3 0-.5-.1-.8-.1-.8 0-1.4.3-1.4 1.3V77h1.9v.6h-1.9v8.6h-.7v-8.6h-1.7z" fill-rule="evenodd" clip-rule="evenodd"/><path d="M147.2 86.4h-.9v-8.6h-1.7V77h1.7v-1.8c0-1.2.8-2 2.2-2 .3 0 .6 0 .8.1h.1v.8h-.1c-.2 0-.5-.1-.8-.1-.9 0-1.2.4-1.2 1.2V77h1.9v.8h-1.9v8.6zm-.7-.2h.4v-8.6h1.9v-.3H147v-2c0-1 .5-1.4 1.5-1.4.2 0 .5 0 .7.1v-.3c-.2 0-.5-.1-.7-.1-.6 0-1.9.2-1.9 1.7v2h-1.7v.3h1.7v8.6z"/></g><g fill="#FFF"><path d="M153.7 85.9c2.3 0 3.6-2 3.6-4.2s-1.2-4.2-3.6-4.2c-2.4 0-3.6 2-3.6 4.2s1.3 4.2 3.6 4.2zm0-9c2.8 0 4.3 2.2 4.3 4.8 0 2.6-1.5 4.8-4.3 4.8s-4.3-2.2-4.3-4.8c0-2.6 1.6-4.8 4.3-4.8z" fill-rule="evenodd" clip-rule="evenodd"/><path d="M153.7 86.6c-2.6 0-4.4-2-4.4-4.9 0-2.9 1.8-4.9 4.4-4.9s4.4 2 4.4 4.9c0 2.9-1.8 4.9-4.4 4.9zm0-9.6c-2.1 0-4.2 1.5-4.2 4.7s2.1 4.7 4.2 4.7c2.5 0 4.2-1.9 4.2-4.7 0-3.3-2.1-4.7-4.2-4.7zm0 9c-2.6 0-3.7-2.3-3.7-4.3 0-2.1 1.2-4.4 3.7-4.4 2.6 0 3.7 2.3 3.7 4.4 0 2.1-1.1 4.3-3.7 4.3zm0-8.4c-2.4 0-3.5 2.1-3.5 4.1 0 2 1.1 4.1 3.5 4.1s3.5-2.1 3.5-4.1c0-2-1.1-4.1-3.5-4.1z"/></g><g fill="#FFF"><path d="M160.1 79.1c.4-1.2 1.9-2.2 3.6-2.1v.7c-.7-.1-1.8.1-2.6.9-.7.7-1 1.3-1 2.7v5h-.7v-9.2h.7v2z" fill-rule="evenodd" clip-rule="evenodd"/><path d="M160.2 86.4h-1V77h1v1.7c.6-1 1.9-1.7 3.3-1.7H163.8v.9h-.4c-.5 0-1.4.1-2.2.9-.6.7-.9 1.2-1 2.6v5zm-.7-.2h.5v-4.9c.1-1.5.4-2.1 1.1-2.7.9-.8 1.8-1 2.3-1h.2v-.4c-1.5 0-2.9.9-3.3 2v.1h-.3v-2h-.5v8.9z"/></g><g fill="#FFF"><path d="M176.2 81.7c0-2.1-1.1-4.2-3.5-4.2-2.5 0-3.5 2-3.5 4.2s1.1 4.2 3.5 4.2 3.5-2.1 3.5-4.2zm0 2.6c-.8 1.4-1.9 2.2-3.6 2.2-2.8 0-4.1-2.2-4.1-4.8 0-2.7 1.3-4.8 4.2-4.8 1.5 0 3 .8 3.5 2.3v-5.6h.7v12.8h-.7v-2.1z" fill-rule="evenodd" clip-rule="evenodd"/><path d="M172.6 86.6c-3.1 0-4.2-2.5-4.2-4.9 0-3.1 1.6-5 4.3-5 1.5 0 2.7.7 3.4 1.9v-5.2h1v13h-1v-1.7c-.8 1.3-2 1.9-3.5 1.9zm.1-9.6c-2.5 0-4.1 1.8-4.1 4.7 0 2.3 1 4.7 3.9 4.7 1.6 0 2.7-.7 3.5-2.1v-.1h.2V86.1h.5V73.6h-.5v5.6h-.2l-.1-.1c-.3-1.3-1.6-2.1-3.2-2.1zm0 9c-1.8 0-3.6-1.3-3.6-4.3 0-2.1.9-4.4 3.6-4.4 2.5 0 3.6 2.2 3.6 4.4 0 2.1-1.1 4.3-3.6 4.3zm0-8.4c-3.1 0-3.4 3.1-3.4 4.1 0 1.9.9 4.1 3.4 4.1 2.3 0 3.3-2.1 3.3-4.1 0-2.1-1-4.1-3.3-4.1z"/></g><g fill="#FFF"><path d="M186 81.2c0-1.9-1.3-3.7-3.4-3.7-2.1 0-3.3 1.9-3.4 3.7h6.8zm-6.9.6c0 2.2 1.1 4.1 3.4 4.1 1.8 0 3-1 3.4-2.7h.7c-.4 2.2-1.8 3.3-4 3.3-2.7 0-4.2-2.1-4.1-4.7 0-2.5 1.3-5 4.1-5 2.9 0 4.2 2.3 4.1 4.9h-7.6z" fill-rule="evenodd" clip-rule="evenodd"/><path d="M182.5 86.6c-1.2 0-2.2-.4-3-1.2-.9-.9-1.3-2.1-1.3-3.6 0-1.6.5-3 1.4-4 .7-.8 1.7-1.1 2.9-1.1s2.3.4 3 1.2c.9.9 1.3 2.3 1.2 3.9v.1h-7.6c0 1.2.4 2.3 1.1 3 .6.6 1.3.9 2.2.9 1.7 0 2.9-1 3.2-2.6v-.1h.9v.1c-.2 2.2-1.7 3.4-4 3.4zm0-9.6c-1.1 0-2 .4-2.7 1.1-.9.9-1.3 2.3-1.3 3.8 0 1.4.4 2.6 1.2 3.4.7.7 1.7 1.1 2.8 1.1 2.1 0 3.5-1.1 3.9-3.1h-.4c-.4 1.7-1.7 2.7-3.5 2.7-1 0-1.8-.3-2.4-1-.8-.8-1.2-2-1.2-3.3v-.1h7.6c0-1.5-.4-2.7-1.1-3.6-.7-.6-1.7-1-2.9-1zm3.6 4.3H179v-.1c.2-1.9 1.4-3.8 3.6-3.8 2.3 0 3.5 1.9 3.5 3.8v.1zm-6.9-.3h6.6c-.1-1.7-1.2-3.5-3.3-3.5-1.9.1-3.1 1.8-3.3 3.5z"/></g><g fill="#FFF"><path fill-rule="evenodd" clip-rule="evenodd" d="M191.6 86.3h-.9l-3.8-9.2h.8l3.4 8.4h.1l3.1-8.4h.8"/><path d="M191.6 86.4h-1v-.1l-3.9-9.4h1.1v.1l3.3 8.2 3.1-8.2h1l-3.6 9.4zm-.8-.2h.7l3.4-8.9h-.5l-3.2 8.4h-.2l-.1-.1-3.4-8.3h-.5l3.8 8.9z"/></g><g fill="#FFF"><path d="M203 81.2c0-1.9-1.3-3.7-3.4-3.7-2.1 0-3.3 1.9-3.4 3.7h6.8zm-6.9.6c0 2.2 1.1 4.1 3.4 4.1 1.8 0 3-1 3.4-2.7h.7c-.4 2.2-1.8 3.3-4 3.3-2.7 0-4.2-2.1-4.1-4.7 0-2.5 1.3-5 4.1-5 2.9 0 4.2 2.3 4.1 4.9h-7.6z" fill-rule="evenodd" clip-rule="evenodd"/><path d="M199.5 86.6c-1.2 0-2.2-.4-3-1.2-.9-.9-1.3-2.1-1.3-3.6 0-1.6.5-3 1.4-4 .7-.8 1.7-1.1 2.9-1.1s2.3.4 3 1.2c.9.9 1.3 2.3 1.2 3.9v.1h-7.6c0 1.2.4 2.3 1.1 3 .6.6 1.3.9 2.2.9 1.7 0 2.9-1 3.2-2.6v-.1h.9v.1c-.2 2.2-1.7 3.4-4 3.4zm0-9.6c-1.1 0-2 .4-2.7 1.1-.9.9-1.3 2.3-1.3 3.8 0 1.4.4 2.6 1.2 3.4.7.7 1.7 1.1 2.8 1.1 2.1 0 3.5-1.1 3.9-3.1h-.4c-.4 1.7-1.7 2.7-3.5 2.7-1 0-1.8-.3-2.4-1-.8-.8-1.2-2-1.2-3.3v-.1h7.6c0-1.5-.4-2.7-1.1-3.6-.7-.6-1.7-1-2.9-1zm3.6 4.3H196v-.1c.2-1.9 1.4-3.8 3.6-3.8 2.3 0 3.5 1.9 3.5 3.8v.1zm-6.9-.3h6.6c-.1-1.7-1.2-3.5-3.3-3.5-1.9.1-3.1 1.8-3.3 3.5z"/></g><g fill="#FFF"><path fill-rule="evenodd" clip-rule="evenodd" d="M205.2 73.5h.7v12.8h-.7z"/><path d="M206 86.4h-1v-13h.9v13zm-.7-.2h.4V73.6h-.4v12.6z"/></g><g fill="#FFF"><path d="M211.6 85.9c2.4 0 3.6-2 3.6-4.2s-1.2-4.2-3.6-4.2c-2.4 0-3.6 2-3.6 4.2s1.3 4.2 3.6 4.2zm0-9c2.8 0 4.3 2.2 4.3 4.8 0 2.6-1.5 4.8-4.3 4.8s-4.3-2.2-4.3-4.8c0-2.6 1.6-4.8 4.3-4.8z" fill-rule="evenodd" clip-rule="evenodd"/><path d="M211.6 86.6c-2.6 0-4.4-2-4.4-4.9 0-2.9 1.8-4.9 4.4-4.9 2.6 0 4.4 2 4.4 4.9.1 2.9-1.8 4.9-4.4 4.9zm0-9.6c-2.5 0-4.2 1.9-4.2 4.7 0 2.8 1.7 4.7 4.2 4.7 2.1 0 4.2-1.4 4.2-4.7 0-3.3-2.1-4.7-4.2-4.7zm0 9c-2.6 0-3.7-2.3-3.7-4.3 0-2.1 1.2-4.4 3.7-4.4 2.6 0 3.7 2.3 3.7 4.4.1 2.1-1.1 4.3-3.7 4.3zm0-8.4c-2.4 0-3.5 2.1-3.5 4.1 0 2 1.1 4.1 3.5 4.1s3.5-2.1 3.5-4.1c0-2-1.1-4.1-3.5-4.1z"/></g><g fill="#FFF"><path d="M225.1 81.7c0-2.1-1-4.2-3.5-4.2s-3.4 2.1-3.4 4.2c0 2.2.8 4.2 3.4 4.2 2.4 0 3.5-1.9 3.5-4.2zm-6.9-2.5c.3-.9 1.4-2.3 3.4-2.3 2.9 0 4.2 2.2 4.2 4.8 0 2.8-1.3 4.8-4.2 4.8-1.5 0-2.9-.6-3.4-2.1v5.2h-.7V77.1h.7v2.1z" fill-rule="evenodd" clip-rule="evenodd"/><path d="M218.3 89.7h-.9V77h.9v1.7c.5-.9 1.5-1.9 3.3-1.9 2.6 0 4.3 1.9 4.3 5s-1.6 4.9-4.3 4.9c-1.6 0-2.7-.6-3.3-1.8v4.8zm-.7-.3h.4v-5.2h.3v.1c.5 1.3 1.6 2 3.3 2 2.6 0 4.1-1.7 4.1-4.7 0-2.3-1.1-4.7-4.1-4.7-2 0-3 1.4-3.3 2.2v.1h-.3v-2.1h-.4v12.3zm4-3.4c-2.3 0-3.5-1.5-3.5-4.3 0-2.7 1.3-4.4 3.5-4.4 2.7 0 3.6 2.4 3.6 4.4 0 2.1-.9 4.3-3.6 4.3zm0-8.4c-.8 0-3.3.3-3.3 4.1 0 1.9.6 4.1 3.3 4.1 2.1 0 3.4-1.5 3.4-4.1 0-1.9-.9-4.1-3.4-4.1z"/></g><g fill="#FFF"><path d="M227.2 77.1h.7V79c.3-1.2 1.5-2.1 2.9-2.1 1.8 0 2.6 1 2.8 2 .6-1.2 1.5-2 3-2 1.7 0 2.9 1 2.9 3.1v6.3h-.7V80c0-2.4-1.7-2.5-2.2-2.5-1.7 0-2.9 1.2-2.9 3.4v5.4h-.7V80c0-2.3-1.6-2.5-2.2-2.5-1.3 0-3 1-3 3.4v5.4h-.7v-9.2z" fill-rule="evenodd" clip-rule="evenodd"/><path d="M239.7 86.4h-.9V80c0-2.2-1.5-2.4-2.1-2.4-1.7 0-2.8 1.2-2.8 3.3v5.6h-.9V80c0-2.2-1.5-2.4-2.1-2.4-1.1 0-2.8.9-2.8 3.3v5.6H227V77h.9v1.4c.5-1 1.6-1.7 2.8-1.7 1.7 0 2.6.9 2.9 1.8.6-1.2 1.6-1.8 3-1.8 1.9 0 3.1 1.2 3.1 3.3v6.4zm-.7-.2h.4V80c0-1.9-1-3-2.8-3-1.4 0-2.3.6-2.9 1.9v.1h-.2v-.1c-.1-.4-.6-1.9-2.7-1.9-1.3 0-2.5.9-2.8 2v.1h-.3v-1.9h-.4v8.9h.4v-5.3c0-2.3 1.6-3.5 3.1-3.5.5 0 2.3.2 2.3 2.7v6.2h.4v-5.3c0-2.2 1.2-3.5 3.1-3.5.6 0 2.4.2 2.4 2.7v6.1z"/></g><g fill="#FFF"><path d="M248.5 81.2c0-1.9-1.3-3.7-3.4-3.7-2.1 0-3.3 1.9-3.4 3.7h6.8zm-6.8.6c0 2.2 1.1 4.1 3.4 4.1 1.8 0 3-1 3.4-2.7h.7c-.4 2.2-1.8 3.3-4.1 3.3-2.7 0-4.2-2.1-4.1-4.7 0-2.5 1.3-5 4.1-5 2.9 0 4.2 2.3 4.1 4.9h-7.5z" fill-rule="evenodd" clip-rule="evenodd"/><path d="M245.1 86.6c-1.2 0-2.2-.4-3-1.2-.9-.9-1.3-2.1-1.3-3.6 0-1.6.5-3 1.4-4 .7-.7 1.7-1.1 2.9-1.1s2.3.4 3 1.2c.9.9 1.3 2.3 1.2 3.9v.1h-7.6c0 1.2.4 2.3 1.1 3 .6.6 1.3.9 2.2.9 1.7 0 2.9-1 3.2-2.6v-.1h1v.1c-.3 2.2-1.8 3.4-4.1 3.4zm0-9.6c-1.1 0-2 .4-2.7 1.1-.9.9-1.4 2.3-1.3 3.8 0 1.4.4 2.6 1.2 3.4.7.7 1.7 1.1 2.8 1.1 2.1 0 3.5-1.1 3.9-3.1h-.4c-.4 1.7-1.7 2.7-3.5 2.7-1 0-1.8-.3-2.4-1-.8-.8-1.2-2-1.2-3.3v-.1h7.6c0-1.5-.4-2.7-1.1-3.6-.7-.6-1.7-1-2.9-1zm3.6 4.3h-7.1v-.1c.1-1.9 1.4-3.8 3.6-3.8 2.3 0 3.5 1.9 3.6 3.8l-.1.1zm-6.9-.3h6.6c-.1-1.7-1.2-3.5-3.3-3.5-1.9.1-3.1 1.8-3.3 3.5z"/></g><g fill="#FFF"><path d="M250.6 77.1h.7v2c.5-1.4 1.9-2.2 3.4-2.2 3.3 0 3.3 2.6 3.3 3.7v5.7h-.7v-5.8c0-1-.1-3-2.7-3-2.1 0-3.4 1.6-3.4 3.8v5h-.7v-9.2z" fill-rule="evenodd" clip-rule="evenodd"/><path d="M258.1 86.4h-.9v-5.9c0-1.2-.3-2.9-2.5-2.9-2 0-3.2 1.5-3.2 3.7v5.1h-.9V77h.9v1.6c.6-1.1 1.8-1.8 3.3-1.8 3.5 0 3.5 2.8 3.5 3.8v5.8zm-.7-.2h.4v-5.6c0-1.1 0-3.6-3.2-3.6-1.5 0-2.8.8-3.2 2.1v.1h-.3v-2h-.4v8.9h.4v-4.9c0-2.4 1.4-4 3.5-4 2.8 0 2.8 2.4 2.8 3.1v5.9z"/></g><g fill="#FFF"><path d="M263.2 77.7h-2v6.4c0 1.5.7 1.6 2 1.6v.6c-1.4.1-2.8-.1-2.7-2.2v-6.4h-1.7v-.6h1.7v-2.9h.7v2.9h2v.6z" fill-rule="evenodd" clip-rule="evenodd"/><path d="M262.7 86.4c-.9 0-1.4-.2-1.8-.6-.4-.4-.5-1-.5-1.8v-6.3h-1.7V77h1.7v-2.9h1V77h2v.8h-2v6.3c0 1.4.6 1.5 1.9 1.5h.1v.8h-.7zm-3.8-8.9h1.7V84c0 .7.1 1.2.4 1.6.3.3.9.5 1.6.5h.4v-.3h-.2c-1.2 0-1.9-.3-1.9-1.7v-6.5h2v-.3h-2v-2.9h-.5v2.9h-1.7v.2z"/></g><g fill="#FFF"><path d="M276.8 81.7c0-2.1-1-4.2-3.5-4.2s-3.4 2.1-3.4 4.2c0 2.2.8 4.2 3.4 4.2 2.4 0 3.5-1.9 3.5-4.2zm-7-2.5c.3-.9 1.4-2.3 3.4-2.3 2.9 0 4.2 2.2 4.2 4.8 0 2.8-1.3 4.8-4.2 4.8-1.5 0-2.9-.6-3.4-2.1v5.2h-.7V77.1h.7v2.1z" fill-rule="evenodd" clip-rule="evenodd"/><path d="M270 89.7h-1V77h.9v1.7c.5-.9 1.5-1.9 3.3-1.9 2.6 0 4.3 1.9 4.3 5s-1.6 4.9-4.3 4.9c-1.5 0-2.7-.6-3.3-1.7v4.7zm-.7-.3h.4v-5.2h.2l.1.1c.5 1.3 1.7 2 3.3 2 2.6 0 4.1-1.7 4.1-4.7 0-2.3-1.1-4.7-4.1-4.7-2 0-3 1.4-3.3 2.2v.1h-.2v-2.1h-.4v12.3zm4-3.4c-2.3 0-3.5-1.5-3.5-4.3 0-2.7 1.3-4.4 3.5-4.4 2.7 0 3.6 2.4 3.6 4.4 0 2.1-.9 4.3-3.6 4.3zm0-8.4c-.8 0-3.3.3-3.3 4.1 0 1.9.6 4.1 3.3 4.1 2.1 0 3.4-1.5 3.4-4.1 0-1.9-.9-4.1-3.4-4.1z"/></g><g fill="#FFF"><path fill-rule="evenodd" clip-rule="evenodd" d="M278.7 73.5h.7v12.8h-.7z"/><path d="M279.5 86.4h-1v-13h1v13zm-.7-.2h.5V73.6h-.5v12.6z"/></g><g fill="#FFF"><path d="M287.2 81c-.5.6-2 .5-3.4.7-1.6.2-2.6.8-2.6 2.1 0 1.1.8 2 2.5 2 3.2 0 3.5-2.7 3.5-3.1V81zm.7 3.6c0 .5 0 1.1.6 1.1.1 0 .3 0 .5-.1v.6c-.2 0-.4.1-.6.1-1.1 0-1.3-.6-1.3-1.3v-.5c-.4 1.1-1.7 2-3.5 2s-3.1-.7-3.1-2.6c0-2.2 1.9-2.6 3.4-2.7 3.1-.2 3.2-.4 3.2-1.9 0-.4-.5-1.8-2.6-1.8-1.7 0-2.8.9-2.9 2.5h-.6c.1-2 1.4-3 3.6-3 1.6 0 3.3.5 3.3 2.4v5.2z" fill-rule="evenodd" clip-rule="evenodd"/><path d="M283.7 86.6c-2.1 0-3.3-.9-3.3-2.7 0-2.3 2-2.7 3.6-2.9 3.1-.2 3.1-.4 3.1-1.8 0-.4-.4-1.7-2.5-1.7-1.7 0-2.7.8-2.7 2.3v.1h-1v-.1c.1-2 1.4-3.2 3.7-3.2 2.2 0 3.4.9 3.4 2.5v5.3c0 .6 0 1 .5 1 .1 0 .3 0 .5-.1h.1v.8H288.5c-1.2 0-1.4-.7-1.4-1.5-.6 1.2-1.7 2-3.4 2zm.9-9.3c2.3 0 2.7 1.5 2.7 1.9 0 1.6-.3 1.8-3.3 2-1.4.1-3.3.5-3.3 2.6 0 1.6 1 2.5 3 2.5 1.9 0 3-1.1 3.4-2v-.1h.2v.6c0 .8.2 1.2 1.1 1.2h.4v-.3h-.4c-.7 0-.7-.7-.7-1.2v-5.3c0-1.9-1.7-2.3-3.2-2.3-2.1 0-3.3 1-3.4 2.8h.5c.2-1.5 1.3-2.4 3-2.4zm-.9 8.7c-1.6 0-2.6-.8-2.6-2.1s.9-2.1 2.7-2.3c.3 0 .7-.1 1.1-.1 1-.1 1.9-.2 2.3-.6l.2-.2v2c-.1 1-.7 3.3-3.7 3.3zm3.4-4.7c-.5.3-1.3.4-2.2.5-.3 0-.7.1-1 .1-1.7.2-2.5.8-2.5 2s.9 1.9 2.3 1.9c3.3 0 3.4-3 3.4-3v-1.5z"/></g><g fill="#FFF"><path d="M293.3 77.7h-2v6.4c0 1.5.7 1.6 2 1.6v.6c-1.4.1-2.8-.1-2.7-2.2v-6.4h-1.7v-.6h1.7v-2.9h.7v2.9h2v.6z" fill-rule="evenodd" clip-rule="evenodd"/><path d="M292.7 86.4c-.9 0-1.4-.2-1.8-.6-.4-.4-.5-1-.5-1.8v-6.3h-1.7V77h1.7v-2.9h.9V77h2v.8h-2v6.3c0 1.4.6 1.5 1.9 1.5h.1v.8h-.6zm-3.8-8.9h1.7V84c0 .7.1 1.2.4 1.6.3.3.9.5 1.6.5h.4v-.3h-.2c-1.2 0-1.9-.3-1.9-1.7v-6.5h2v-.3h-2v-2.9h-.4v2.9h-1.7v.2z"/></g><g fill="#FFF"><path d="M293.9 77.7v-.6h1.7v-1.9c0-1.3.9-1.8 2.1-1.8.3 0 .5 0 .8.1v.5c-.3 0-.5-.1-.8-.1-.8 0-1.4.3-1.4 1.3V77h2v.6h-2v8.6h-.7v-8.6h-1.7z" fill-rule="evenodd" clip-rule="evenodd"/><path d="M296.4 86.4h-.9v-8.6h-1.7V77h1.7v-1.8c0-1.2.8-2 2.2-2 .3 0 .6 0 .8.1h.1v.8h-.1c-.3 0-.5-.1-.8-.1-.9 0-1.2.4-1.2 1.2V77h2v.8h-2v8.6zm-.7-.2h.4v-8.6h2v-.3h-2v-2c0-1 .5-1.4 1.5-1.4.2 0 .5 0 .7.1v-.3c-.2 0-.5-.1-.7-.1-.6 0-1.9.2-1.9 1.7v2H294v.3h1.7v8.6z"/></g><g fill="#FFF"><path d="M302.9 85.9c2.3 0 3.6-2 3.6-4.2s-1.3-4.2-3.6-4.2c-2.4 0-3.6 2-3.6 4.2s1.2 4.2 3.6 4.2zm0-9c2.8 0 4.3 2.2 4.3 4.8 0 2.6-1.5 4.8-4.3 4.8s-4.3-2.2-4.3-4.8c0-2.6 1.6-4.8 4.3-4.8z" fill-rule="evenodd" clip-rule="evenodd"/><path d="M302.9 86.6c-2.6 0-4.4-2-4.4-4.9 0-2.9 1.8-4.9 4.4-4.9s4.4 2 4.4 4.9c0 2.9-1.8 4.9-4.4 4.9zm0-9.6c-2.5 0-4.2 1.9-4.2 4.7 0 2.8 1.7 4.7 4.2 4.7s4.2-1.9 4.2-4.7c0-3.3-2.1-4.7-4.2-4.7zm0 9c-2.6 0-3.7-2.3-3.7-4.3 0-2.1 1.2-4.4 3.7-4.4 2.6 0 3.7 2.3 3.7 4.4 0 2.1-1.1 4.3-3.7 4.3zm0-8.4c-2.4 0-3.5 2.1-3.5 4.1 0 2 1.1 4.1 3.5 4.1s3.5-2.1 3.5-4.1c0-2-1.1-4.1-3.5-4.1z"/></g><g fill="#FFF"><path d="M308.9 79.1c.4-1.2 1.9-2.2 3.7-2.1v.7c-.7-.1-1.8.1-2.6.9-.7.7-1 1.3-1.1 2.7v5h-.7v-9.2h.7v2z" fill-rule="evenodd" clip-rule="evenodd"/><path d="M309 86.4h-.9V77h.9v1.7c.6-1 1.9-1.8 3.4-1.8H312.7v.9h-.4c-.5 0-1.4.1-2.2.9-.6.7-1 1.2-1 2.6v5.1zm-.7-.2h.4v-4.9c.1-1.5.4-2 1.1-2.7.9-.8 1.8-1 2.3-1h.2v-.4c-1.5 0-3 .9-3.3 2v.1h-.3v-2h-.4v8.9z"/></g><g fill="#FFF"><path d="M313.6 77.1h.7V79c.3-1.2 1.5-2.1 2.9-2.1 1.8 0 2.6 1 2.8 2 .5-1.2 1.5-2 3-2 1.7 0 2.9 1 2.9 3.1v6.3h-.7V80c0-2.4-1.7-2.5-2.2-2.5-1.7 0-2.9 1.2-2.9 3.4v5.4h-.7V80c0-2.3-1.6-2.5-2.2-2.5-1.3 0-3 1-3 3.4v5.4h-.7v-9.2z" fill-rule="evenodd" clip-rule="evenodd"/><path d="M326.1 86.4h-.9V80c0-2.2-1.5-2.4-2.1-2.4-1.7 0-2.8 1.2-2.8 3.3v5.6h-.9V80c0-2.2-1.5-2.4-2.1-2.4-1.1 0-2.8.9-2.8 3.3v5.6h-.9V77h.9v1.4c.5-1 1.6-1.6 2.8-1.6 1.7 0 2.6.9 2.9 1.8.6-1.2 1.6-1.8 3-1.8 1.9 0 3.1 1.2 3.1 3.3v6.3zm-.7-.2h.4V80c0-1.9-1-3-2.8-3-1.4 0-2.3.6-2.9 1.9v.1h-.1v-.1c-.2-.9-1-1.9-2.7-1.9-1.3 0-2.5.9-2.8 2v.1h-.2V77.2h-.4v8.9h.4v-5.3c0-2.3 1.6-3.5 3.1-3.5.5 0 2.3.2 2.3 2.7v6.2h.4v-5.3c0-2.2 1.2-3.5 3.1-3.5.6 0 2.4.2 2.4 2.7v6.1z"/></g><path d="M102.1 67.8c0 2.6.5 4.8 1.5 6.5 1 1.7 2.6 2.5 4.8 2.5.6 0 1.2 0 1.8-.1.6 0 1.1-.1 1.7-.2V60.4c-.6-.3-1.3-.6-2-.9s-1.6-.3-2.4-.3c-1.9 0-3.2.7-4.1 2.2-.8 1.5-1.3 3.6-1.3 6.4zm-32 .2c0 2.6.5 4.8 1.5 6.4 1 1.6 2.5 2.5 4.6 2.5 2 0 3.6-.8 4.6-2.5 1.1-1.6 1.6-3.8 1.6-6.4 0-2.7-.5-4.8-1.4-6.4-1-1.6-2.5-2.4-4.7-2.4-2.1 0-3.6.8-4.7 2.4-1 1.6-1.5 3.7-1.5 6.4zm62.9-3.5c0-21-17.3-38-38.6-38s-38.6 17-38.6 38 17.3 38 38.6 38 38.6-17 38.6-38zm-13.1 17.4c-1.4.5-3.2.8-5.3 1.1-2.1.3-4.1.4-6.2.4-4.7 0-8.3-1.4-10.7-4.1-2.4-2.7-3.6-6.5-3.6-11.2 0-4.8 1-8.6 3.1-11.4 2-2.8 5-4.2 9-4.2 1.1 0 2.1.1 3.1.4 1 .2 1.9.5 2.7 1V40.4l7.9-1.3v42.8zm-29.4-14c0 2.3-.4 4.5-1 6.4-.7 1.9-1.7 3.6-2.9 4.9-1.2 1.4-2.7 2.5-4.5 3.2s-3.7 1.1-5.8 1.1c-2.1 0-4.1-.4-5.8-1.1s-3.2-1.8-4.5-3.2c-1.3-1.4-2.2-3-2.9-4.9-.7-1.9-1-4.1-1-6.4 0-2.3.4-4.4 1.1-6.3.7-1.9 1.7-3.6 3-4.9 1.3-1.4 2.8-2.4 4.5-3.1 1.8-.7 3.7-1.1 5.7-1.1 2.1 0 4 .4 5.7 1.1 1.7.7 3.2 1.8 4.5 3.1 1.3 1.4 2.2 3 2.9 4.9.7 1.9 1 4 1 6.3zM150.3 51.4c0 1.4.1 2.8.2 4 .1 1.3.3 2.3.7 3.3.3.9.8 1.7 1.4 2.2.6.5 1.4.8 2.5.8 1 0 1.8-.3 2.5-.8.6-.5 1.1-1.3 1.5-2.2.3-.9.6-2 .7-3.3.1-1.2.2-2.6.2-4s0-2.8-.2-4c-.1-1.3-.3-2.3-.7-3.3-.3-.9-.8-1.7-1.4-2.2-.6-.5-1.4-.8-2.5-.8-1 0-1.9.3-2.5.8-.6.5-1.1 1.3-1.4 2.2-.3.9-.6 2-.7 3.3-.3 1.2-.3 2.6-.3 4zm-6.1 0c0-5.1.9-8.9 2.9-11.5 1.9-2.6 4.5-3.9 7.9-3.9 3.5 0 6.2 1.3 8 3.9 1.8 2.6 2.8 6.4 2.8 11.5s-.9 8.9-2.8 11.5c-1.9 2.6-4.5 3.9-8 3.9s-6.2-1.3-8.1-3.9-2.7-6.4-2.7-11.5zM183 55.2c0-2-.4-3.6-1.2-4.9-.8-1.3-2-1.9-3.7-1.9-.4 0-.9 0-1.4.1l-1.3.1v12.3c.4.2.9.5 1.6.6.6.2 1.3.2 1.9.2 1.4 0 2.5-.6 3.2-1.7.6-1.2.9-2.8.9-4.8zm6.1-.2c0 1.7-.2 3.3-.6 4.7-.4 1.4-1 2.7-1.7 3.7s-1.7 1.8-2.8 2.4c-1.1.6-2.4.8-3.9.8s-3.1-.4-4.7-1.1V74h-6V44.5c1.1-.3 2.4-.6 4-.9 1.6-.2 3.2-.3 4.7-.3 3.5 0 6.2 1 8.1 3.1 1.9 2.1 2.9 5 2.9 8.6zM207.2 52.8c0-.6-.1-1.2-.2-1.7-.2-.6-.4-1.1-.8-1.5-.4-.4-.8-.8-1.4-1.1-.6-.3-1.2-.4-2-.4s-1.4.1-2 .4c-.6.2-1 .6-1.4 1-.4.5-.7 1-.9 1.5-.2.6-.3 1.2-.4 1.8h9.1zm-15.3 2.4c0-2 .3-3.7.9-5.2.6-1.5 1.4-2.7 2.4-3.7s2.2-1.8 3.4-2.3c1.3-.5 2.6-.8 4-.8 3.4 0 5.9 1 7.7 2.9 1.7 2 2.6 4.8 2.6 8.5v1.2c0 .4 0 .7-.1 1H198c0 1.5.6 2.6 1.8 3.5 1.2.8 2.8 1.3 4.7 1.3 1.2 0 2.3-.1 3.4-.4 1.1-.3 2-.5 2.7-.8l.8 5c-1 .4-2.1.6-3.3.9-1.2.2-2.5.3-3.9.3-1.9 0-3.7-.2-5.2-.7-1.5-.5-2.8-1.2-3.9-2.2-1.1-1-1.9-2.2-2.5-3.6s-.7-3-.7-4.9zM216.5 44.5c1.1-.3 2.4-.6 3.9-.8 1.6-.3 3.3-.4 5.1-.4 1.8 0 3.3.2 4.5.7 1.2.5 2.1 1.2 2.8 2.1.7.9 1.2 2 1.5 3.2.3 1.2.4 2.6.4 4.2v12.6h-6V54.3c0-2.1-.2-3.6-.7-4.5-.5-.9-1.5-1.4-3-1.4h-1.3c-.4 0-.9.1-1.4.1v17.6h-6V44.5zM245.6 61.4h1c1.3 0 2.5-.3 3.4-.8.9-.5 1.7-1.2 2.2-2.1.6-.9 1-1.9 1.2-3.2.2-1.2.4-2.6.4-4 0-1.3-.1-2.5-.3-3.7-.2-1.2-.5-2.3-1-3.2-.5-.9-1.1-1.7-2-2.2-.8-.5-1.9-.8-3.2-.8h-.9c-.3 0-.6.1-.9.1v19.9zm14.3-10c0 2.7-.3 5.1-1 7-.7 1.9-1.6 3.5-2.9 4.7-1.2 1.2-2.7 2.1-4.4 2.7-1.7.5-3.6.8-5.6.8-1.1 0-2.1-.1-3.1-.2s-2.1-.3-3.3-.5V37.1c1.4-.3 2.6-.5 3.8-.6 1.2-.1 2.3-.1 3.3-.1 2 0 3.8.3 5.4.9 1.6.6 3 1.5 4.2 2.7 1.1 1.2 2 2.8 2.6 4.7.7 1.8 1 4 1 6.7zM272 62h1.9c.6 0 1.2-.1 1.6-.1v-5.1c-.4-.1-.9-.1-1.4-.2-.5 0-1-.1-1.5-.1-.6 0-1.2 0-1.8.1s-1.1.2-1.5.4c-.4.2-.8.5-1 .8s-.4.8-.4 1.4c0 1 .4 1.7 1.2 2.2.6.4 1.6.6 2.9.6zm-.6-18.8c1.9 0 3.4.2 4.7.6 1.2.4 2.2 1 3 1.8.8.8 1.3 1.7 1.6 2.9.3 1.1.5 2.4.5 3.8v13.3c-.9.2-2.2.4-3.9.7-1.7.3-3.6.4-5.8.4-1.4 0-2.8-.1-3.9-.4-1.2-.2-2.2-.7-3-1.3-.8-.6-1.5-1.3-1.9-2.3-.5-.9-.7-2.1-.7-3.5 0-1.3.3-2.4.8-3.3.5-.9 1.2-1.6 2.1-2.1.9-.5 1.9-.9 3-1.2 1.1-.2 2.3-.4 3.5-.4 1.5 0 2.9.1 4.1.4V52c0-1.1-.4-2-1.1-2.8-.7-.7-1.9-1.1-3.7-1.1-1.1 0-2.2.1-3.3.2-1 .2-1.9.4-2.5.6l-.8-4.7c.7-.2 1.8-.5 3.1-.7 1.4-.2 2.8-.3 4.2-.3zM288.6 48.6h-5.2v-4.9h5.2v-5.6l6-.9v6.6h9.5v4.9h-9.5v9c0 .8.1 1.5.2 2 .2.5.4.9.7 1.2.3.3.7.5 1.1.6.4.1.9.1 1.4.1h1.5c.5 0 .9-.1 1.4-.2.4-.1.9-.2 1.4-.4l1.5-.6.8 5c-1.1.4-2.3.8-3.6 1-1.3.2-2.5.3-3.7.3-1.4 0-2.6-.1-3.7-.3-1.1-.2-2-.6-2.7-1.3-.8-.6-1.3-1.5-1.7-2.7-.4-1.1-.6-2.7-.6-4.5v-9.3zM316.8 62h1.9c.6 0 1.2-.1 1.6-.1v-5.1c-.4-.1-.9-.1-1.4-.2-.5 0-1-.1-1.5-.1-.6 0-1.2 0-1.8.1s-1.1.2-1.5.4c-.4.2-.8.5-1 .8s-.4.8-.4 1.4c0 1 .4 1.7 1.2 2.2.7.4 1.7.6 2.9.6zm-.5-18.8c1.9 0 3.4.2 4.7.6 1.2.4 2.2 1 3 1.8.7.8 1.3 1.7 1.6 2.9.3 1.1.5 2.4.5 3.8v13.3c-.9.2-2.2.4-3.9.7-1.7.3-3.6.4-5.8.4-1.5 0-2.8-.1-3.9-.4-1.2-.2-2.2-.7-3-1.3-.8-.6-1.5-1.3-1.9-2.3-.4-.9-.7-2.1-.7-3.5 0-1.3.3-2.4.8-3.3.5-.9 1.2-1.6 2.1-2.1s1.9-.9 3-1.2c1.1-.2 2.3-.4 3.5-.4 1.5 0 2.9.1 4.1.4V52c0-1.1-.3-2-1.1-2.8-.7-.7-1.9-1.1-3.7-1.1-1.1 0-2.2.1-3.3.2-1 .2-1.9.4-2.5.6l-.8-4.7c.7-.2 1.8-.5 3.1-.7 1.3-.2 2.7-.3 4.2-.3z" fill-rule="evenodd" clip-rule="evenodd" fill="#FFF"/><path d="M92.8 109.9c0 3.4-2.9 6.2-6.4 6.2-3.5 0-6.4-2.8-6.4-6.2 0-3.5 2.9-6.2 6.4-6.2 3.6-.1 6.4 2.7 6.4 6.2z" fill="#FFF"/><path d="M86.4 110c-3.2 0-5.8 3.3-5.8.2 0-3 2.6-5.5 5.8-5.5 3.2 0 5.8 2.5 5.8 5.5 0 3.1-2.6-.2-5.8-.2zM118.3 20.3c0 3.4-2.9 6.2-6.4 6.2-3.5 0-6.4-2.8-6.4-6.2 0-3.4 2.9-6.2 6.4-6.2 3.6 0 6.4 2.8 6.4 6.2z" fill="#FFF"/><path d="M112 20c-3.3 0-6 3.5-6 .3 0-3.3 2.7-5.9 6-5.9 3.4 0 6.1 2.6 6.1 5.9 0 3.3-2.7-.3-6.1-.3zM58 14.7c0 3.4-2.9 6.2-6.4 6.2-3.5 0-6.4-2.8-6.4-6.2 0-3.4 2.9-6.2 6.4-6.2 3.5-.1 6.4 2.7 6.4 6.2z" fill="#FFF"/><path d="M51.7 14.4c-3.4 0-6.1 3.5-6.1.3 0-3.3 2.7-5.9 6.1-5.9 3.3 0 6.1 2.6 6.1 5.9-.1 3.2-2.8-.3-6.1-.3zM95.1 13c0 6.9-5.7 12.5-12.8 12.5-7.1 0-12.8-5.6-12.8-12.5S75.2.5 82.3.5C89.4.5 95.1 6.1 95.1 13z" fill="#FFF"/><path d="M82.5 12.4c-6.7 0-12.1 7.1-12.1.5 0-6.5 5.4-11.8 12.1-11.8 6.7 0 12.1 5.3 12.1 11.8 0 6.6-5.4-.5-12.1-.5zM53.4 34.5c0 5.6-4.7 10.2-10.4 10.2-5.8 0-10.5-4.6-10.5-10.2S37.2 24.3 43 24.3c5.7 0 10.4 4.6 10.4 10.2z" fill="#FFF"/><path d="M43 34c-5.5 0-9.9 5.8-9.9.4 0-5.4 4.4-9.7 9.9-9.7s9.9 4.3 9.9 9.7c0 5.4-4.4-.4-9.9-.4zM24.4 40.7c0 6.6-5.4 11.9-12.2 11.9C5.5 52.6 0 47.3 0 40.7s5.5-11.9 12.2-11.9c6.7 0 12.2 5.4 12.2 11.9z" fill="#FFF"/><path d="M12.2 40.5c-6.1 0-11 6.6-11 .5s4.9-11 11-11 11 4.9 11 11-4.9-.5-11-.5zM52.2 64.5c0 8.5-7 15.3-15.7 15.3-8.6 0-15.7-6.8-15.7-15.3 0-8.4 7-15.3 15.7-15.3s15.7 6.9 15.7 15.3z" fill="#FFF"/><path d="M36.5 63.5c-7.7 0-13.9 8.2-13.9.6s6.2-13.8 13.9-13.8 13.9 6.2 13.9 13.8c.1 7.6-6.2-.6-13.9-.6zM31.3 86.1c0 4.7-3.9 8.5-8.7 8.5-4.8 0-8.7-3.8-8.7-8.5s3.9-8.5 8.7-8.5c4.8 0 8.7 3.8 8.7 8.5z" fill="#FFF"/><path d="M22.6 85.7c-4.5 0-8.1 4.4-8.1.3 0-4.1 3.6-7.3 8.1-7.3s8.1 3.3 8.1 7.3c0 4.1-3.6-.3-8.1-.3zM68.5 103.6c0 8.8-7.3 15.9-16.2 15.9-9 0-16.2-7.1-16.2-15.9s7.3-15.9 16.2-15.9c8.9.1 16.2 7.2 16.2 15.9z" fill="#FFF"/><path d="M52.2 102.1c-8 0-14.5 8.2-14.5.6s6.5-13.8 14.5-13.8 14.5 6.2 14.5 13.8c0 7.6-6.5-.6-14.5-.6z" fill="#FFF"/></svg>