<svg viewBox="0 0 51 45" style="background-color:#ffffff00" xmlns="http://www.w3.org/2000/svg" width="51" height="45"><g fill="#333"><path d="M34.714 25.495c0 .89-.13 1.696-.394 2.42-.262.723-.632 1.346-1.107 1.87-.476.525-1.046.93-1.71 1.216-.665.287-1.407.43-2.227.43-.82 0-1.563-.143-2.227-.43-.666-.285-1.24-.69-1.724-1.215-.484-.524-.857-1.148-1.12-1.87-.262-.724-.393-1.53-.393-2.42 0-.874.135-1.672.406-2.396.27-.724.647-1.344 1.13-1.86.484-.516 1.063-.914 1.736-1.192.672-.278 1.402-.417 2.19-.417.803 0 1.538.14 2.202.418.664.278 1.24.676 1.723 1.192.484.516.858 1.136 1.12 1.86.263.723.394 1.52.394 2.395zm11.27 5.292c-.558.175-1.24.318-2.042.428-.804.11-1.592.167-2.362.167-1.805 0-3.17-.516-4.098-1.55-.927-1.032-1.39-2.446-1.39-4.242 0-1.827.39-3.27 1.17-4.326.778-1.057 1.93-1.585 3.456-1.585.41-.002.812.042 1.206.13.394.087.738.21 1.034.37v-5.102l3.026-.5v16.21zM51 24.214c0-7.93-6.636-14.357-14.82-14.357-8.187 0-14.823 6.428-14.823 14.357 0 7.93 6.636 14.357 14.822 14.357 8.184 0 14.82-6.427 14.82-14.356zM26.89 25.52c0 1 .183 1.81.552 2.43.37.62.964.93 1.784.93.788 0 1.382-.31 1.785-.93.402-.62.603-1.43.603-2.43 0-1.003-.184-1.81-.553-2.42-.37-.612-.964-.92-1.784-.92-.788 0-1.383.308-1.784.92-.402.61-.603 1.417-.603 2.42zm12.278-.073c0 1 .193 1.82.578 2.455.386.636 1.005.953 1.858.953.246 0 .476-.007.69-.023.212-.016.434-.04.664-.072v-6.102c-.23-.127-.493-.234-.788-.322-.295-.087-.607-.13-.935-.13-.722 0-1.247.278-1.575.834-.328.556-.492 1.358-.492 2.407zM35.595 41.357c0 1.302-1.096 2.357-2.447 2.357-1.352 0-2.448-1.055-2.448-2.357 0-1.3 1.096-2.357 2.448-2.357 1.35 0 2.447 1.056 2.447 2.357z"/><path opacity=".2" d="M33.147 41.419c-1.228-.002-2.224 1.242-2.224.092s.996-2.084 2.224-2.084c1.23 0 2.225.934 2.225 2.084s-.996-.093-2.225-.093v-.002z"/><path d="M45.383 7.5c0 1.302-1.095 2.357-2.447 2.357-1.35 0-2.447-1.055-2.447-2.357 0-1.302 1.095-2.357 2.446-2.357 1.352 0 2.447 1.055 2.447 2.357z"/><path opacity=".2" d="M42.96 7.39c-1.284 0-2.323 1.336-2.323.1 0-1.234 1.04-2.236 2.322-2.236 1.28 0 2.32 1.002 2.32 2.237 0 1.236-1.04-.1-2.32-.1z"/><path d="M22.247 5.357c0 1.302-1.096 2.357-2.447 2.357-1.352 0-2.448-1.055-2.448-2.357C17.352 4.055 18.448 3 19.8 3c1.35 0 2.447 1.055 2.447 2.357z"/><path opacity=".2" d="M19.822 5.247c-1.282 0-2.322 1.336-2.322.1 0-1.234 1.04-2.236 2.322-2.236 1.283 0 2.323 1.003 2.323 2.238s-1.04-.1-2.323-.1z"/><path d="M36.484 4.714c0 2.604-2.19 4.715-4.893 4.715-2.702 0-4.894-2.112-4.894-4.716C26.696 2.11 28.888 0 31.59 0c2.704 0 4.894 2.11 4.894 4.714z"/><path opacity=".2" d="M31.636 4.495c-2.565 0-4.645 2.67-4.645.2 0-2.47 2.08-4.473 4.646-4.473 2.565 0 4.644 2.003 4.644 4.473 0 2.47-2.08-.2-4.644-.2z"/><path d="M20.467 12.857c0 2.13-1.793 3.857-4.004 3.857-2.21 0-4.005-1.727-4.005-3.857S14.252 9 16.463 9c2.21 0 4.004 1.727 4.004 3.857z"/><path opacity=".2" d="M16.5 12.678c-2.1 0-3.8 2.185-3.8.164 0-2.02 1.7-3.66 3.8-3.66 2.098 0 3.8 1.64 3.8 3.66 0 2.02-1.702-.164-3.8-.164z"/><g><path d="M9.344 15.214c0 2.485-2.09 4.5-4.672 4.5-2.58 0-4.672-2.015-4.672-4.5s2.092-4.5 4.672-4.5c2.58 0 4.672 2.015 4.672 4.5z"/><path opacity=".2" d="M4.672 15.123c-2.334 0-4.227 2.487-4.227.186 0-2.3 1.893-4.167 4.227-4.167 2.334 0 4.227 1.866 4.227 4.166 0 2.3-1.894-.187-4.228-.187z"/></g><g><path d="M20.022 24.214c0 3.195-2.69 5.786-6.006 5.786-3.317 0-6.007-2.59-6.007-5.786 0-3.195 2.69-5.785 6.006-5.785 3.317 0 6.006 2.59 6.006 5.784z"/><path opacity=".2" d="M14.015 23.832c-2.948 0-5.34 3.11-5.34.233 0-2.875 2.392-5.208 5.34-5.208 2.95 0 5.34 2.333 5.34 5.208 0 2.876-2.39-.233-5.34-.233z"/></g><g><path d="M12.013 32.357c0 1.775-1.493 3.214-3.336 3.214-1.843 0-3.338-1.438-3.338-3.213 0-1.775 1.494-3.214 3.337-3.214 1.843 0 3.336 1.44 3.336 3.214z"/><path opacity=".2" d="M8.676 32.225c-1.72 0-3.114 1.658-3.114.124 0-1.535 1.394-2.78 3.114-2.78s3.115 1.245 3.115 2.78c0 1.533-1.394-.125-3.114-.125z"/></g><g><path d="M26.25 39c0 3.313-2.787 6-6.227 6-3.44 0-6.23-2.687-6.23-6s2.79-6 6.23-6c3.44 0 6.228 2.687 6.228 6z"/><path opacity=".2" d="M20.022 38.403c-3.07 0-5.562 3.11-5.562.234s2.49-5.208 5.562-5.208c3.07 0 5.562 2.33 5.562 5.207 0 2.876-2.49-.234-5.562-.234z"/></g></g></svg>