<?xml version="1.0" standalone="no"?><!-- Generator: Adobe Fireworks CS6, Export SVG Extension by Aaron Beall (http://fireworks.abeall.com) . Version: 0.6.1  --><!DOCTYPE svg PUBLIC "-//W3C//DTD SVG 1.1//EN" "http://www.w3.org/Graphics/SVG/1.1/DTD/svg11.dtd"><svg id="Untitled-Page%201" viewBox="0 0 20 10" style="background-color:#ffffff00" version="1.1"	xmlns="http://www.w3.org/2000/svg" xmlns:xlink="http://www.w3.org/1999/xlink" xml:space="preserve"	x="0px" y="0px" width="20px" height="10px">	<g id="Layer%201">		<path d="M 0 9.1499 L 0 10 L 1200 10 L 1200 0.8389 L 1199.0735 0 L 1188.9976 9.1187 L 1178.921 0.0007 L 1168.8451 9.1191 L 1158.7684 0.001 L 1148.6925 9.1196 L 1138.616 0.0017 L 1128.54 9.1201 L 1118.4635 0.0022 L 1108.3876 9.1206 L 1098.311 0.0027 L 1088.2351 9.1211 L 1078.1584 0.0034 L 1068.0825 9.1218 L 1058.006 0.0037 L 1047.9301 9.1223 L 1037.8535 0.0044 L 1027.7776 9.1228 L 1017.701 0.0049 L 1007.6251 9.1235 L 997.5485 0.0054 L 987.4725 9.1238 L 977.396 0.0059 L 967.3201 9.1245 L 957.2435 0.0063 L 947.1675 9.1248 L 937.0909 0.0071 L 927.0151 9.1255 L 916.9385 0.0076 L 906.8625 9.126 L 896.7859 0.0081 L 886.71 9.1265 L 876.6335 0.0085 L 866.5576 9.127 L 856.481 0.009 L 846.405 9.1277 L 836.3285 0.0095 L 826.2526 9.1282 L 816.176 0.0103 L 806.1 9.1287 L 796.0234 0.0105 L 785.9476 9.1292 L 775.871 0.0112 L 765.795 9.1296 L 755.7184 0.0117 L 745.6425 9.1304 L 735.566 0.0122 L 725.4901 9.1306 L 715.4135 0.0129 L 705.3375 9.1313 L 695.261 0.0132 L 685.1851 9.1318 L 675.1085 0.0139 L 665.0325 9.1323 L 654.9559 0.0144 L 644.8801 9.1328 L 634.8035 0.0149 L 624.7275 9.1333 L 614.6509 0.0154 L 604.575 9.134 L 594.4985 0.0159 L 584.4225 9.1345 L 574.3459 0.0164 L 564.27 9.135 L 554.1934 0.0171 L 544.1176 9.1355 L 534.041 0.0173 L 523.965 9.136 L 513.8884 0.0181 L 503.8125 9.1365 L 493.7359 0.0188 L 483.66 9.1372 L 473.5834 0.019 L 463.5075 9.1375 L 453.4309 0.0198 L 443.355 9.1382 L 433.2784 0.02 L 423.2025 9.1387 L 413.1259 0.0208 L 403.05 9.1392 L 392.9734 0.0212 L 382.8975 9.1399 L 372.821 0.0217 L 362.745 9.1401 L 352.6684 0.0222 L 342.5925 9.1409 L 332.5159 0.0229 L 322.44 9.1414 L 312.3634 0.0234 L 302.2875 9.1418 L 292.2109 0.0239 L 282.135 9.1423 L 272.0584 0.0244 L 261.9825 9.1428 L 251.9059 0.0249 L 241.83 9.1433 L 231.7534 0.0256 L 221.6775 9.144 L 211.6009 0.0259 L 201.525 9.1445 L 191.4484 0.0266 L 181.3725 9.145 L 171.2959 0.0271 L 161.22 9.1458 L 151.1434 0.0276 L 141.0675 9.146 L 130.9909 0.0281 L 120.915 9.1467 L 110.8384 0.0286 L 100.7625 9.147 L 90.6859 0.0293 L 80.61 9.1477 L 70.5334 0.0298 L 60.4575 9.1482 L 50.3809 0.0303 L 40.305 9.1487 L 30.2284 0.0308 L 20.1525 9.1492 L 10.0759 0.0313 L 0 9.1499 Z" fill="#ffffff"/>	</g></svg>