<svg viewBox="0 0 334 258" style="background-color:#ffffff00" xmlns="http://www.w3.org/2000/svg" width="334" height="258"><path d="M280.11 104.193l12.986-18.697-5.657-3.81-12.137 19.563 4.807 2.943zm-9.068 8.84c1.988 1.154 4.268.328 5.62-1.77 1.42-2.21.978-4.462-.867-5.576-1.73-1.043-4.212-.528-5.693 1.69-1.407 2.107-.976 4.54.94 5.655z" fill="#999"/><g fill="#bababa"><path d="M2.667 175.538h-2.5v-1h2.5v1zM237.716 175.538h-3.963v-1h3.963v1zm-6.913 0h-3.963v-1h3.963v1zm-6.913 0h-3.963v-1h3.963v1zm-6.913 0h-3.963v-1h3.963v1zm-6.913 0H206.1v-1h3.964v1zm-6.914 0h-3.963v-1h3.963v1zm-6.913 0h-3.963v-1h3.963v1zm-6.913 0h-3.963v-1h3.964v1zm-6.913 0h-3.962v-1h3.963v1zm-6.913 0h-3.962v-1h3.962v1zm-6.913 0h-3.963v-1h3.964v1zm-6.913 0h-3.962v-1h3.963v1zm-6.912 0h-3.963v-1h3.963v1zm-6.914 0h-3.962v-1h3.962v1zm-6.913 0h-3.962v-1h3.963v1zm-6.912 0h-3.963v-1h3.963v1zm-6.913 0h-3.963v-1h3.963v1zm-6.914 0h-3.962v-1h3.963v1zm-6.912 0h-3.963v-1h3.963v1zm-6.913 0h-3.963v-1h3.963v1zm-6.913 0H95.49v-1h3.962v1zm-6.913 0h-3.964v-1h3.963v1zm-34.567 0H54.01v-1h3.963v1zm-6.913 0h-3.963v-1h3.963v1zm-6.914 0h-3.963v-1h3.963v1zm-6.913 0H33.27v-1h3.963v1zm-6.913 0h-3.963v-1h3.963v1zm-6.914 0h-3.962v-1h3.962v1zm-6.913 0H12.53v-1h3.963v1zm-6.913 0H5.617v-1H9.58v1zM243.167 175.538h-2.5v-1h2.5v1z"/></g><path d="M105 52.393C105 23.457 130.03 0 160.91 0c30.878 0 55.91 23.457 55.91 52.393 0 28.937-25.032 52.394-55.91 52.394-30.88 0-55.91-23.457-55.91-52.394z"/><g fill="#fff"><path d="M138.847 30.374c.114.114.196.315.243.593.073.352.135.584.185.686.09.234.19.395.298.484.137.136.31.166.525.1.25-.067.412-.2.505-.406.076-.2.064-.41-.04-.622-.093-.18-.415-1.037-.962-2.56-.063-.16-.177-.275-.33-.328-.152-.044-.317-.032-.484.04-.137.06-.23.15-.29.27-.06.12-.066.252-.03.402.015.067.136.512.38 1.342zm4.204-.22c-.244-.83-.375-1.283-.4-1.356-.073-.16-.194-.263-.356-.313-.147-.028-.303-.018-.48.022-.137.05-.23.14-.29.26-.062.12-.076.246-.044.387.064.275.197.736.41 1.38.02.093.056.25.098.47.025.222.056.39.096.486.053.155.14.258.242.322.123.077.3.08.522.01.2-.045.346-.14.42-.28.055-.1.066-.243.044-.414-.023-.1-.06-.266-.132-.495-.075-.21-.12-.367-.13-.48zM157.07 25.86c.117-.062.363-.1.74-.117.403-.005.712-.04.92-.124.32-.11.54-.3.65-.59.108-.253.105-.532-.007-.823-.142-.388-.53-.466-1.164-.232-.39.15-2.01.716-4.884 1.7-1.972.692-3.574 1.306-4.823 1.848-.99.438-1.805.65-2.423.645-.758-.002-1.197.08-1.325.25-.13.163-.08.564.138 1.207.562 1.66.923 2.762 1.075 3.306.336 1.258.486 2.4.446 3.443-.008.423.163.744.542.972.235.14.45.53.638 1.152.054.198.166.567.348 1.122.143.466.255.835.33 1.116.242.857.78 1.128 1.627.83.343-.116.76-.29 1.256-.51 2.754-1.195 4.772-1.913 6.057-2.147.798-.132 1.108-.58.93-1.347-.07-.3-.25-.47-.52-.494-.16-.008-.412.04-.766.15-.754.242-1.243.416-1.465.52-.496.254-1.222.544-2.18.86-1.024.333-1.754.606-2.19.81-.68.333-1.152.432-1.408.316-.235-.104-.49-.52-.76-1.23-.006-.024-.036-.114-.083-.278-.034-.115-.072-.203-.106-.274-.188-.352-.237-.64-.14-.863.093-.213.338-.41.745-.59 2.307-1.067 4.164-1.836 5.576-2.32.558-.18.96-.42 1.202-.705.243-.284.268-.553.08-.79-.268-.325-.582-.428-.943-.31-.113.044-.27.123-.46.22-.23.14-.39.22-.47.248-2.21.964-3.82 1.65-4.845 2.062-.725.29-1.2.372-1.418.264-.21-.102-.412-.52-.61-1.264-.075-.282-.183-.748-.33-1.416-.14-.608-.25-1.083-.344-1.413-.142-.46-.13-.83.033-1.112.15-.264.46-.484.925-.652l4.588-1.757c1.88-.712 3.484-1.274 4.816-1.686zM170.01 25.886c.224 2.107.336 3.24.344 3.387.107 1.756-.347 3.598-1.352 5.53-.7 1.355-1.593 1.455-2.683.284-.236-.253-.405-.486-.514-.69-1.54-2.918-2.45-5.736-2.735-8.452-.003-.095 0-.27.01-.528.016-.24.017-.425-.002-.544-.047-.393-.3-.57-.758-.536-.425.028-.665.25-.72.657-.027.11-.005.475.05 1.094.3 3.23 1.473 6.54 3.527 9.93.617 1.024 1.426 1.513 2.435 1.457.993-.053 1.804-.582 2.443-1.624.884-1.43 1.446-3.455 1.698-6.092.08-.8-.032-1.923-.326-3.382-.306-1.51-.444-2.636-.412-3.37.002-.107-.157-.413-.483-.908-.45-.65-.924-.83-1.44-.546-.25.136-.37.34-.358.617-.004.176.06.415.193.72.68 1.676 1.042 2.67 1.082 2.996zM123.726 51.723c-.58.046-1.186.246-1.813.62-.18.1-.252.24-.222.41.024.1.07.177.147.212.07.036.15.044.24.006.21-.082.378-.077.49.028.058.057.128.208.215.434l.46 1.184c.188.51.342.904.443 1.188.434 1.19.795 2.212 1.08 3.068.055.154.113.255.18.31.077.07.187.088.32.057.1-.024.175-.085.222-.183.01-.038.03-.14.062-.304.028-.182-.08-.526-.323-1.05-.296-.59-.607-1.36-.933-2.31-.523-1.46-.802-2.247-.834-2.346-.088-.225-.11-.395-.05-.514.053-.118.21-.206.46-.264 1.184-.29 2.426-.217 3.71.234.675.248 1.066.755 1.183 1.527.072.502.02 1.005-.153 1.51-.323.925-.644 1.666-.973 2.224-.44.76-.968 1.372-1.59 1.84-.3.227-.35.466-.14.698.242.28.5.254.786-.075.306-.35.588-.73.853-1.143 1.074-1.642 1.68-3.098 1.808-4.364.13-1.346-.417-2.256-1.63-2.74-1.436-.565-2.77-.654-3.998-.257zM137.285 49.518c.063-.032.216-.058.443-.066.245-.004.425-.028.555-.075.19-.06.32-.18.385-.352.062-.155.058-.32 0-.5-.088-.226-.32-.277-.702-.137-.235.09-1.212.436-2.926 1.024-1.19.414-2.153.784-2.898 1.105-.6.26-1.082.388-1.452.386-.458 0-.72.05-.794.147-.08.107-.052.346.08.728.338 1 .553 1.662.645 1.984.202.752.29 1.442.268 2.062-.003.255.104.45.33.582.143.09.266.316.38.693.027.116.097.345.208.67.082.28.153.51.2.674.14.52.467.682.97.496.214-.066.463-.167.757-.305 1.65-.713 2.864-1.14 3.633-1.282.474-.084.666-.355.56-.814-.042-.184-.153-.28-.315-.297-.09-.006-.24.02-.455.088-.46.15-.752.253-.878.317-.3.156-.735.327-1.307.52-.616.193-1.054.355-1.315.486-.41.2-.69.255-.846.185-.14-.064-.293-.31-.454-.737-.004-.017-.024-.064-.056-.163-.015-.066-.037-.122-.066-.168-.11-.213-.132-.383-.075-.52.05-.124.197-.247.444-.356 1.386-.635 2.494-1.1 3.343-1.392.335-.112.577-.246.722-.42.144-.174.16-.327.047-.476-.16-.19-.35-.254-.563-.187-.07.034-.168.073-.277.133-.14.085-.234.133-.282.153-1.33.577-2.3.985-2.913 1.23-.436.17-.722.23-.844.16-.128-.058-.248-.31-.37-.757-.046-.166-.112-.45-.196-.85-.085-.367-.15-.65-.206-.85-.082-.278-.08-.498.023-.662.085-.16.275-.29.55-.39l2.753-1.054c1.124-.434 2.086-.77 2.892-1.016zM140.088 49.41c.147.14.223.202.232.2.532-.096.955.017 1.262.35.187.203.382.588.6 1.152l.517 1.426c.073.28.44 1.443 1.1 3.493.074.247.197.36.353.35.226-.017.372-.147.414-.42.028-.147-.004-.358-.103-.634-.29-.793-.494-1.334-.606-1.624-.163-.402-.21-.68-.157-.833.053-.153.27-.326.647-.518.047-.028.175-.084.4-.17 1.052-.41 1.74-.638 2.063-.686.196-.027.34-.13.422-.308.086-.16.083-.326-.003-.507-.084-.165-.2-.244-.337-.23-.025.006-.153.062-.384.168-.312.14-.76.34-1.344.59-.61.262-1.056.46-1.346.58-.174.085-.31.107-.405.076-.112-.027-.208-.136-.276-.314-.26-.668-.505-1.226-.732-1.674-.105-.222-.126-.392-.068-.52.054-.108.19-.21.414-.305 1.416-.58 2.123-.874 2.115-.872.27-.08.862-.303 1.77-.687.725-.29 1.322-.488 1.81-.583.214-.03.374-.138.482-.32.1-.173.108-.333.023-.47-.096-.146-.224-.204-.378-.186-.05.012-.115.036-.197.064-.105.04-.17.065-.203.073-.074.025-.212.075-.405.154l-5.02 2.103c-.28.117-.484.19-.603.21-.222.032-.438-.024-.627-.156-.103-.064-.215-.09-.34-.062-.136.023-.21.083-.223.183-.034.192-.173.355-.406.488-.265.15-.418.29-.466.423zM157.628 44.84c.063-.03.216-.057.443-.066.247-.004.426-.027.556-.074.19-.06.32-.18.386-.352.06-.155.058-.32-.002-.5-.087-.225-.32-.278-.7-.137-.236.09-1.213.438-2.927 1.024-1.19.415-2.153.785-2.898 1.106-.6.26-1.08.388-1.452.386-.458 0-.72.05-.794.148-.082.105-.053.345.08.727.337 1.002.552 1.664.644 1.984.2.753.29 1.443.267 2.063-.002.255.105.45.33.582.144.09.267.315.38.692.028.117.1.346.21.672.082.28.153.508.2.673.138.52.466.683.97.497.213-.067.463-.168.757-.306 1.65-.712 2.863-1.14 3.632-1.282.473-.083.665-.356.56-.814-.043-.183-.154-.28-.316-.296-.09-.006-.242.02-.456.087-.458.15-.752.252-.878.316-.3.156-.735.326-1.307.52-.615.194-1.054.356-1.314.486-.413.2-.69.255-.848.186-.138-.065-.292-.31-.453-.74-.005-.015-.025-.063-.056-.16-.016-.068-.038-.124-.066-.17-.11-.212-.133-.382-.076-.518.05-.126.198-.247.446-.357 1.386-.634 2.494-1.1 3.342-1.392.336-.112.578-.246.722-.42.145-.174.162-.327.048-.476-.158-.193-.35-.254-.563-.187-.07.033-.167.073-.277.133-.14.085-.233.133-.282.153-1.328.576-2.3.984-2.912 1.23-.437.17-.723.228-.845.16-.127-.06-.247-.313-.368-.758-.047-.165-.113-.448-.197-.85-.085-.366-.15-.65-.206-.848-.083-.28-.08-.5.022-.663.086-.16.276-.29.553-.39l2.75-1.053c1.125-.434 2.087-.77 2.893-1.016zM162.414 46.672c.204.005.404.108.592.31l3.232 3.68c.237.262.347.394.343.378.155.13.317.146.49.062.17-.073.278-.213.336-.42.027-.11.045-.3.052-.573-.003-.087-.037-.273-.086-.56-.074-.395-.21-.978-.395-1.742-.182-.784-.315-1.358-.385-1.737-.263-1.36-.316-2.54-.156-3.56.023-.13-.014-.252-.1-.355-.094-.1-.214-.16-.37-.187-.286-.022-.464.124-.545.46-.03.13-.03.278 0 .447.096.644.24 1.603.436 2.873.19 1.274.34 2.23.434 2.858l.042.183c.02.082.025.143.026.186 0 .15-.078.273-.25.365-1.61-1.78-2.87-3.375-3.797-4.785-.036-.045-.094-.145-.173-.294-.073-.123-.13-.215-.174-.293-.122-.147-.29-.187-.517-.1-.16.072-.238.186-.235.353.002.157.01.304.045.454l.604 3.406c.196 1.306.252 2.46.184 3.46-.018.3.105.448.377.447.126.006.233-.027.32-.11.08-.07.126-.176.133-.3.028-.41.02-.786-.017-1.137-.036-.308-.178-1.565-.442-3.768zM169.766 41.138c-.58.046-1.186.246-1.813.62-.18.1-.252.24-.222.41.024.1.07.177.147.212.07.036.15.044.24.006.21-.083.378-.078.49.028.058.057.128.208.215.433l.46 1.184c.19.51.342.905.443 1.19.434 1.19.795 2.21 1.08 3.067.055.154.113.255.18.31.077.07.187.088.32.058.1-.023.175-.084.222-.183.01-.037.03-.14.062-.304.028-.182-.08-.525-.323-1.048-.296-.59-.606-1.36-.933-2.313-.523-1.46-.802-2.246-.834-2.344-.088-.226-.11-.396-.05-.515.053-.117.21-.206.46-.263 1.184-.29 2.426-.216 3.71.234.675.247 1.066.754 1.183 1.526.072.5.02 1.004-.153 1.51-.322.924-.644 1.665-.973 2.223-.44.76-.968 1.37-1.59 1.84-.3.226-.35.466-.14.698.242.278.5.253.786-.075.306-.352.588-.732.853-1.145 1.074-1.64 1.68-3.096 1.808-4.363.13-1.346-.417-2.256-1.63-2.74-1.435-.565-2.77-.653-3.998-.257zM182.556 46.788c-.94.128-1.7.12-2.276-.012-.78-.172-1.42-.577-1.913-1.22-1.135-1.475-1.272-2.98-.403-4.512.256-.454.508-.775.76-.974.343-.272.75-.374 1.223-.316.347.052.526-.05.518-.312.005-.282-.14-.45-.43-.524-.66-.146-1.225 0-1.703.444-.95.92-1.52 1.876-1.695 2.873-.17.934-.097 1.786.207 2.567.306.79.834 1.467 1.583 2.04 1.29 1.002 2.863 1.176 4.74.534 1.543-.53 2.495-1.82 2.853-3.885.178-1.058-.19-2-1.123-2.83-.83-.73-1.76-1.13-2.79-1.21-.143-.002-.26.025-.35.09-.106.077-.18.173-.204.3-.06.278.06.452.37.53.122.034.28.068.48.092.246.04.41.063.483.073.6.116 1.103.352 1.51.705.413.37.678.827.795 1.37.2 1.008.01 1.946-.566 2.8-.56.82-1.246 1.276-2.068 1.378zM193.098 37.46c.22.036.374.132.472.286.73 1.252 1.144 1.974 1.24 2.162.164.322.222.537.175.636-.054.108-.267.22-.635.338-.373.14-.79.28-1.234.416-.18.06-.305.053-.394-.024-.077-.07-.104-.187-.085-.366l.46-3.45zm-1.6 7.5c.046.2.142.31.316.34.23.043.382-.062.45-.305.015-.048.03-.21.054-.487.07-.946.114-1.483.12-1.607.007-.43.23-.718.67-.872.925-.31 1.495-.51 1.72-.606.234-.09.422-.115.556-.066.154.052.278.208.378.448.043.112.37.8 1 2.077.137.285.325.374.565.267.224-.096.31-.29.277-.59-.006-.026-.082-.166-.238-.42-.41-.66-.62-1.006-.63-1.04-.03-.063-.086-.146-.155-.254-.09-.128-.147-.22-.17-.276-.116-.202-.15-.387-.097-.54.055-.143.19-.245.407-.295l.293-.067c.12-.01.22-.034.286-.057.09-.02.154-.053.184-.078.186-.148.225-.36.118-.632-.08-.192-.248-.233-.51-.11-.127.064-.223.103-.27.13-.46.178-.743.25-.857.216-.114-.035-.28-.26-.5-.675-.643-1.178-1.3-2.264-1.99-3.263-.118-.167-.216-.284-.3-.344-.127-.093-.273-.113-.432-.076-.247.074-.353.3-.32.67.053.61.002 1.377-.138 2.296-.218 1.34-.33 2.103-.343 2.28-.023.243-.072.412-.137.515-.088.152-.256.225-.497.21-.168-.005-.257.068-.275.222-.016.082 0 .15.04.21.032.063.092.093.165.102.312.052.486.196.536.412.023.1.005.324-.037.676-.012.1-.093.626-.24 1.59zM128.44 69.697c.102.292.2.76.313 1.393.152.92.248 1.487.296 1.695.068.336.234.482.49.44.237-.037.392-.204.458-.526.02-.146-.027-.347-.14-.61-.242-.505-.475-1.32-.685-2.457-.1-.504-.44-2.005-1.022-4.486-.005-.024-.077-.183-.218-.484-.124-.27-.282-.383-.464-.332-.197.064-.32.223-.373.48-.04.133.008.342.116.615.364.882.773 2.306 1.23 4.272zM131.386 67.282c.203.006.404.11.59.31l3.233 3.68c.236.262.346.394.342.378.154.13.316.146.49.062.17-.073.277-.212.335-.42.027-.11.045-.298.052-.572-.003-.087-.037-.273-.086-.56-.074-.395-.21-.978-.395-1.742-.183-.784-.316-1.358-.386-1.737-.263-1.36-.317-2.54-.157-3.56.024-.128-.014-.25-.1-.355-.093-.1-.213-.16-.37-.187-.286-.02-.463.125-.544.46-.032.13-.032.278-.002.447.097.644.24 1.603.438 2.874.19 1.27.34 2.228.433 2.856l.044.183c.02.083.024.143.026.186 0 .15-.078.273-.25.365-1.612-1.778-2.872-3.375-3.798-4.785-.036-.044-.095-.145-.173-.294l-.175-.292c-.122-.147-.29-.188-.517-.1-.16.07-.24.186-.235.352 0 .157.01.305.043.455l.605 3.405c.198 1.307.254 2.46.186 3.458-.018.303.104.45.377.45.125.005.232-.028.32-.11.08-.07.125-.177.13-.302.03-.41.022-.785-.016-1.137-.036-.308-.177-1.565-.44-3.768zM143.393 61.652c.93-.214 1.44-.33 1.53-.36.282-.074.468-.143.574-.22.185-.113.25-.286.197-.52-.065-.24-.206-.355-.427-.357-.133-.005-.324.048-.57.157-.226.096-1.16.328-2.8.697-.552.126-2.117.52-4.678 1.18-.198.063-.337.147-.418.253-.11.13-.122.274-.056.443.095.26.34.325.735.208.102-.023.57-.166 1.392-.425.542-.17.9-.225 1.073-.16.174.065.38.35.618.84.95 2.046 1.508 3.997 1.678 5.87.025.294.052.49.084.587.063.232.212.346.446.328.156-.01.287-.093.37-.26.16-.31.166-.697.04-1.16-.11-.36-.242-.857-.405-1.486l-.394-1.472c-.322-1.163-.66-2.13-1.005-2.892-.246-.532-.082-.85.476-.952l1.532-.352.01.05zM154.438 59.05c.063-.03.216-.057.443-.065.247-.004.426-.027.556-.075.19-.06.32-.18.385-.352.063-.155.06-.32 0-.5-.087-.225-.32-.277-.7-.137-.236.09-1.213.437-2.927 1.025-1.19.414-2.153.785-2.898 1.105-.6.26-1.082.39-1.452.386-.458 0-.72.05-.794.148-.082.106-.053.345.08.727.337 1.002.552 1.664.644 1.985.2.752.29 1.442.267 2.062-.002.255.105.45.33.582.144.09.267.315.38.692.028.117.1.346.21.672.082.28.152.51.2.674.138.52.466.682.97.496.213-.067.462-.168.756-.306 1.65-.712 2.864-1.14 3.633-1.282.473-.083.665-.355.56-.813-.043-.184-.154-.28-.316-.297-.09-.005-.242.02-.456.088-.46.15-.752.252-.878.316-.3.156-.735.327-1.307.52-.616.194-1.054.356-1.314.486-.413.2-.69.255-.848.186-.14-.065-.292-.31-.453-.738-.005-.017-.025-.065-.057-.163-.015-.066-.037-.122-.065-.168-.11-.21-.133-.382-.076-.518.05-.125.198-.247.445-.357 1.386-.634 2.494-1.1 3.343-1.39.335-.113.577-.248.722-.422.145-.174.162-.326.048-.476-.16-.193-.35-.254-.563-.187-.07.034-.168.074-.277.134-.14.084-.234.132-.282.152-1.33.577-2.3.985-2.913 1.23-.436.17-.722.228-.844.16-.127-.06-.247-.312-.368-.758-.047-.164-.113-.448-.197-.85-.085-.366-.15-.65-.206-.847-.083-.28-.08-.5.022-.663.086-.16.276-.292.553-.39l2.75-1.054c1.125-.434 2.087-.77 2.893-1.017zM163.242 63.318c.394-.01.984-.05 1.773-.108.78-.057 1.36-.094 1.753-.114 1.338-.045 2.485.078 3.442.366.22.073.377.107.464.104.16 0 .287-.092.386-.273.026-.04.065-.102.13-.196.06-.084.106-.156.13-.205.086-.16.076-.316-.01-.463-.135-.2-.422-.3-.862-.294-.235.01-1.278-.005-3.137-.042-1.273-.023-2.313.014-3.137.107-.547.074-.918-.007-1.127-.223-.037-.158 0-.307.09-.442.027-.04.078-.088.133-.153.078-.08.13-.126.14-.147 1.68-1.956 2.49-2.906 2.444-2.842.39-.52.498-.966.326-1.33-.18-.354-.598-.565-1.25-.643-1.364-.143-3.068-.005-5.114.404-.85.178-1.625.48-2.336.906-.156.088-.268.175-.32.25-.097.117-.104.242-.044.386.132.303.37.336.702.102.38-.263 1.082-.504 2.096-.728 1.46-.31 2.224-.476 2.308-.495.885-.134 1.666-.147 2.354-.033.35.06.555.153.623.295.068.143.02.356-.164.626-.202.31-1.14 1.315-2.825 3.018-.508-.715-.886-1.62-1.14-2.72-.058-.25-.18-.36-.36-.338-.155.018-.274.15-.353.38-.08.23-.06.497.05.822.302.852.48 1.32.538 1.412.16.27.228.605.213.995-.035.65-.05.968-.05.96.005.175.21.416.61.73.38.314.568.63.57.946.002.158.09.42.27.78.136.285.307.412.522.39.225-.017.412-.2.54-.555.067-.207.034-.463-.098-.766-.176-.38-.27-.666-.28-.866zM172.607 57.805c.204.005.405.11.593.31l3.23 3.68c.238.262.348.395.344.378.154.13.316.147.49.063.17-.074.277-.213.335-.42.026-.11.044-.3.05-.573 0-.087-.035-.272-.084-.56-.074-.394-.21-.978-.396-1.743-.18-.782-.314-1.357-.384-1.736-.263-1.36-.317-2.542-.157-3.56.023-.13-.015-.252-.1-.355-.094-.103-.214-.163-.37-.188-.287-.022-.464.124-.545.46-.032.128-.032.278-.002.446.096.645.24 1.603.437 2.874.19 1.272.34 2.23.433 2.857l.043.182c.02.084.024.144.025.187 0 .15-.076.272-.25.364-1.61-1.78-2.87-3.376-3.796-4.786-.036-.044-.095-.145-.173-.294-.072-.123-.13-.215-.173-.293-.123-.146-.29-.187-.517-.1-.16.072-.24.187-.235.352 0 .16.01.306.043.456l.605 3.405c.197 1.306.253 2.46.185 3.46-.018.302.104.45.377.448.125.007.232-.026.32-.108.08-.07.125-.178.13-.303.03-.41.022-.786-.016-1.137-.037-.308-.18-1.565-.443-3.768zM185.488 51.913c.064-.032.216-.058.443-.066.247-.004.426-.028.556-.075.19-.062.32-.18.386-.353.06-.155.058-.32-.002-.5-.087-.226-.32-.277-.7-.137-.236.09-1.212.436-2.927 1.023-1.19.414-2.153.785-2.898 1.105-.6.262-1.08.39-1.452.388-.458 0-.72.05-.794.147-.082.107-.053.346.08.727.337 1.002.552 1.663.644 1.984.2.753.29 1.443.267 2.062 0 .255.105.45.33.583.144.09.267.317.38.694.028.116.1.346.21.672.082.28.153.508.2.673.138.52.466.68.97.495.213-.066.463-.168.757-.305 1.65-.713 2.863-1.14 3.632-1.283.473-.082.666-.354.56-.813-.043-.183-.154-.28-.316-.296-.09-.006-.242.02-.456.088-.458.15-.752.25-.878.316-.298.155-.735.326-1.307.52-.615.193-1.054.355-1.314.485-.413.2-.69.256-.848.186-.138-.064-.292-.31-.453-.738-.005-.017-.025-.064-.056-.162-.016-.067-.038-.123-.066-.17-.11-.21-.133-.382-.076-.517.05-.126.198-.248.446-.357 1.386-.636 2.494-1.1 3.343-1.392.336-.113.578-.248.722-.42.145-.175.162-.328.05-.477-.16-.19-.35-.252-.564-.185-.072.033-.168.073-.278.133-.14.085-.233.133-.282.153-1.328.578-2.3.986-2.912 1.232-.437.17-.723.228-.845.16-.127-.06-.247-.312-.368-.758-.047-.165-.113-.448-.197-.85-.085-.367-.15-.65-.205-.848-.083-.28-.08-.5.022-.663.086-.16.276-.29.553-.39l2.75-1.054c1.125-.435 2.087-.77 2.893-1.017zM194.787 49.837c.928-.214 1.44-.33 1.53-.36.28-.074.468-.143.573-.22.186-.113.25-.286.197-.52-.064-.24-.206-.356-.426-.358-.133-.005-.323.048-.57.157-.225.096-1.158.328-2.8.696-.552.127-2.117.522-4.678 1.18-.197.064-.336.15-.417.255-.11.13-.12.273-.056.443.095.26.34.326.735.21.1-.025.57-.167 1.39-.426.543-.17.9-.224 1.074-.16.172.066.38.352.617.84.95 2.047 1.507 3.998 1.678 5.87.023.294.05.49.083.588.062.23.212.346.446.327.156-.01.287-.093.37-.262.158-.308.166-.696.04-1.158-.11-.36-.242-.857-.406-1.486l-.394-1.47c-.322-1.164-.66-2.13-1.005-2.894-.247-.53-.083-.85.475-.95l1.53-.353.012.05zM142.077 87.215c1.008-.1 1.54-.16 1.607-.176.28-.084.49-.28.627-.602.14-.313.152-.605.02-.864-.22-.423-.51-.532-.88-.306-.624.39-1.52.71-2.683.967-1.397.322-2.318.57-2.76.75-.836.35-1.394.11-1.662-.742-.024-.065-.155-.403-.398-.996-2.073-5.14-3.17-7.853-3.27-8.137-.123-.305-.25-.513-.365-.627-.18-.17-.4-.197-.653-.078-.415.192-.478.6-.194 1.22 1.7 3.716 3.092 7.143 4.17 10.272.21.602.43.946.683 1.045.24.085.686 0 1.33-.27 1.528-.624 3-1.11 4.427-1.457zM145.13 81.53c.144.43.292 1.108.454 2.036.22 1.335.37 2.162.44 2.47.095.487.33.704.705.645.356-.055.58-.308.667-.767.04-.21-.03-.502-.205-.883-.347-.736-.677-1.932-.99-3.58-.145-.747-.643-2.932-1.5-6.552-.008-.033-.114-.263-.312-.7-.18-.397-.413-.563-.678-.493-.287.092-.47.327-.55.705-.043.195.018.496.18.898.52 1.284 1.115 3.358 1.787 6.222zM153.06 82.444c-.386.01-.68-.08-.89-.26-.054-.05-.193-.228-.42-.526-.378-.528-1.287-1.75-2.72-3.675-.407-.538-.84-.622-1.31-.252-.245.198-.363.41-.345.643.017.224.132.452.36.672.637.625 1.406 1.51 2.297 2.656 1.122 1.454 1.855 2.374 2.2 2.76.016.03.09.128.217.292.09.128.174.223.248.276.21.188.454.21.736.094.41-.173.666-.583.778-1.24.014-.092.03-.21.03-.367.005-.204.002-.334.007-.388.31-3.984.905-7.605 1.793-10.845.1-.365.122-.65.057-.855-.09-.242-.31-.393-.658-.446-.632-.064-.945.298-.945 1.096-.02 1.163-.267 2.878-.726 5.15-.468 2.275-.707 4.016-.71 5.218zM166.613 78.96c.58-.01 1.438-.067 2.587-.165 1.135-.085 1.987-.132 2.563-.16 1.95-.062 3.62.115 5.015.54.325.11.555.154.676.144.238-.003.427-.134.563-.385.03-.06.097-.154.187-.297.094-.127.16-.222.195-.3.12-.238.11-.464-.016-.67-.19-.292-.613-.44-1.263-.43-.34.008-1.87-.01-4.577-.063-1.84-.033-3.36.018-4.563.155-.798.095-1.35-.006-1.65-.314-.054-.234-.01-.455.132-.645.04-.06.11-.138.202-.23.113-.122.175-.198.196-.22 2.442-2.843 3.638-4.223 3.57-4.137.563-.762.72-1.412.466-1.94-.26-.52-.864-.838-1.82-.934-1.987-.21-4.47-.01-7.45.588-1.245.25-2.378.688-3.413 1.312-.232.14-.39.256-.47.362-.138.172-.154.37-.062.576.197.428.542.472 1.028.132.556-.373 1.575-.73 3.05-1.052l3.367-.72c1.292-.202 2.434-.22 3.443-.047.496.09.8.23.908.424.1.205.022.513-.245.916-.3.455-1.667 1.928-4.115 4.403-.745-1.048-1.3-2.377-1.67-3.976-.082-.35-.262-.52-.53-.493-.22.033-.39.22-.503.563-.12.326-.097.725.074 1.194.446 1.24.702 1.928.787 2.066.23.386.334.87.307 1.44-.053.95-.076 1.42-.078 1.412.017.26.31.613.89 1.06.562.45.836.912.838 1.376 0 .23.125.612.388 1.14.2.41.447.6.758.57.338-.024.6-.295.79-.812.1-.295.047-.67-.147-1.125-.262-.554-.393-.97-.407-1.257zM188.418 64.778c.1-.058.314-.09.637-.103.36-.004.634-.04.812-.108.277-.098.467-.265.568-.516.09-.22.095-.46 0-.718-.13-.34-.472-.4-1.025-.204-.34.13-1.758.624-4.27 1.49-1.728.61-3.13 1.14-4.218 1.61-.87.386-1.577.574-2.124.568-.662-.005-1.05.067-1.158.214-.115.15-.078.5.123 1.06.496 1.456.807 2.42.934 2.89.29 1.1.426 2.105.39 3.017 0 .37.152.65.48.846.205.13.39.464.55 1.014.05.173.153.5.306.974.13.41.233.737.297.977.21.76.68.993 1.422.735.302-.105.67-.26 1.103-.447 2.4-1.043 4.166-1.677 5.29-1.883.696-.116.976-.504.822-1.17-.062-.268-.218-.408-.46-.43-.145-.01-.364.03-.67.118-.664.214-1.096.366-1.285.462-.433.222-1.07.475-1.904.754-.893.293-1.534.528-1.915.712-.594.286-1.006.372-1.233.266-.207-.093-.43-.445-.663-1.076-.004-.017-.032-.098-.073-.238-.032-.098-.068-.177-.1-.24-.16-.314-.2-.56-.113-.755.08-.185.297-.357.647-.517 2.02-.938 3.645-1.61 4.885-2.035.484-.155.833-.358 1.048-.61.207-.25.232-.483.07-.69-.233-.28-.51-.375-.82-.27-.106.043-.242.1-.408.182-.208.127-.35.203-.414.227-1.927.847-3.34 1.444-4.235 1.8-.638.25-1.052.328-1.242.23-.178-.09-.36-.46-.528-1.105-.075-.246-.17-.654-.286-1.233-.124-.533-.23-.948-.313-1.236-.122-.41-.11-.738.037-.982.13-.232.397-.416.803-.562l4.022-1.54c1.636-.62 3.045-1.12 4.213-1.476zM194.675 68.13c-.09-.278-.406-1.223-.96-2.85-.39-1.156-.72-2.116-.966-2.875-.062-.188-.137-.32-.225-.396-.11-.09-.263-.108-.455-.063-.38.105-.51.345-.405.724.03.135.102.364.228.678.094.294.165.523.202.68.05.218.35 1.132.898 2.734.36 1.1.544 2.042.54 2.824-.007.16.044.306.16.428.12.13.26.212.44.224.2.024.37-.042.503-.186.083-.098.176-.27.272-.502.08-.185.07-.42-.014-.707-.135-.39-.208-.628-.22-.713zm.39 5.175c-.517.24-.71.62-.596 1.12.05.216.147.37.29.46.15.105.338.123.554.065.57-.158.796-.517.682-1.087-.078-.333-.385-.517-.93-.558zM195.29 63.48c.093.1.17.276.216.52.055.31.11.51.156.595.084.21.17.347.26.432.122.112.28.146.468.085.216-.058.355-.178.436-.363.065-.174.06-.348-.028-.54-.09-.154-.37-.905-.855-2.24-.05-.147-.152-.24-.286-.286-.133-.04-.28-.024-.424.036-.12.045-.208.127-.254.233-.046.107-.055.223-.026.348.014.06.123.455.335 1.18zm3.682-.19c-.222-.73-.34-1.123-.355-1.19-.067-.134-.167-.225-.31-.27-.128-.024-.268-.018-.42.016-.12.046-.21.118-.255.226-.064.102-.072.218-.043.343.054.242.174.644.358 1.208.02.083.05.216.086.41.028.195.052.34.088.418.05.138.117.237.21.295.11.062.26.063.46.008.183-.042.304-.13.364-.25.05-.09.058-.207.04-.36-.02-.084-.054-.234-.12-.438-.058-.18-.1-.32-.104-.414z"/></g><path d="M161.887 102.78l15.783 9.655-1.622-19.31-14.16 9.655z"/><path d="M73.728 168.53h-.112c-3.125-5.11-6.92-7.662-11.384-7.662h-.11c-1.23 0-1.936 1.59-2.122 4.77 0 1.35.893 3.23 2.68 5.64 3.1 3.16 4.924 4.895 5.467 5.204l5.47 5.35c.87 1.445 1.428 2.168 1.673 2.168.298 0 .558-.24.78-.723v-.29l-.222-.866.112-.144c.573-1.272 2.284-3.778 5.134-7.518 2.284-3.71 3.586-6.747 3.906-9.108l-.223-2.17c-.558-2.12-1.45-3.18-2.68-3.18h-.557c-3.646 0-6.25 2.843-7.812 8.53zm.78 3.18c1.355-6.36 3.624-9.542 6.81-9.542h.78c.82 0 1.228 1.013 1.228 3.037v.145c0 1.01-1.005 3.42-3.013 7.23-2.292 2.986-4.115 5.588-5.47 7.805h-.11l-7.48-7.228c-3.384-2.863-5.244-5.32-5.58-7.374 0-1.446.15-2.362.448-2.747 3.72 0 6.81 1.735 9.264 5.205.982 2.025 1.8 3.326 2.455 3.904l.67-.433z" fill="#bbb"/><path d="M137.933 124.95c0-5.27 1.126-6.396 6.402-6.396H295.43c5.277 0 6.403 1.125 6.403 6.397v111.393h-163.9V124.95z" fill="#1c1c1c"/><path d="M144.443 126.203h150.88v102.492h-150.88V126.203z" fill="#fff"/><path d="M137.933 235.58l-30.635 10.707H334l-31.4-9.944-164.667-.764z" fill="#9f9f9f"/><path d="M152.485 237.108l-7.66 3.825h149.35l-7.66-3.825h-134.03z" fill="#1c1c1c"/><path d="M106.532 246.287h226.702v6.883s1.787 3.825-9.956 3.825H117.254s-9.772 2.24-10.722-5.354c-.255-2.04 0-5.353 0-5.353z" fill="#c9c9c9"/><path d="M196.906 241.697l-5.36 3.06h55.91l-4.596-3.06h-45.954z" fill="#c7c7c7"/><path d="M235.967 248.2c0 1.055-.858 1.91-1.915 1.91h-28.338c-1.057 0-1.915-.855-1.915-1.91h32.167z" fill="#858585"/><path fill="#737373" d="M308.726 252.49h8.425v.764h-8.424z"/><path opacity=".502" d="M220.625 126.215h75.057l-.064 102.567H220.56l.065-102.567z" fill="#fff"/><g><path d="M191.545 127.732l-14.552 19.122s1.34 27.153 1.532 27.535c.192.382 22.74 33.887 43.215 33.164 22.435-.792 37.586-17.676 41.033-39.284 3.446-21.607.19-36.904 0-37.478-.192-.574-71.228-3.06-71.228-3.06z" fill="#e9b989"/><path d="M190.013 154.503c-.04-.027.065-.143.287-.32 1.328-1.064 7.373-4.16 10.244-4.078 3.35.095 7.66 2.868 9.382 1.338 1.724-1.53-2.103-3.672-4.595-3.824-12.54-.766-15.03 7.074-15.317 6.883zM254.77 154.503c.042-.027-.064-.143-.286-.32-1.328-1.064-7.373-4.16-10.244-4.078-3.35.095-7.66 2.868-9.382 1.338-1.724-1.53 2.103-3.672 4.595-3.824 12.54-.766 15.03 7.074 15.318 6.883z" stroke="#ffffff00" fill="#402000"/><path d="M187.716 136.146c.67-.07 28.235 10.817 43.655 9.178 15.42-1.64 27.573-4.59 27.573-4.59s.09 11.474 0 16.828c-.09 5.354 0 5.354 0 5.354l.766 7.65 4.594-3.06s5.432-20.26 6.128-27.536c.695-7.274-3.276-14.394-3.83-14.532-.554-.138 3.83 1.53 3.83 1.53s-4.614-8.92-7.66-11.473c-3.045-2.553-3.063-3.825-3.063-3.825s1.92-.094 3.83 1.53c1.906 1.624 2.296 2.295 2.296 2.295s-1.865-6.17-7.66-9.944c-5.793-3.77-11.397-5.182-11.487-5.353-.09-.17 1.12-1.683 3.828-.764 2.71.918 2.298.764 2.298.764s-3.39-4.863-14.552-6.118c-11.16-1.257-17.218-.11-18.38 0-1.164.106-1.576-.86-1.533-.766.045.093.255-2.217.767-2.295.512-.08-11.308 1.58-17.615 6.883-6.308 5.303-10.783 7.72-10.723 7.648.054-.065-9.298 8.262-11.963 14.934-2.664 6.67-.292.365-.292.365s-4.695 7.837-4.978 14.15c-.284 6.31-.14 17.542.19 19.694 1.198 7.792 3.13 12.118 3.617 13.85.487 1.734 1.647-10.237 2.32-10.58.673-.344 5.716-4.058 5.744-4.226.028-.168.984-6.57.766-9.178-.218-2.607.862-8.345 1.532-8.414z" stroke="#ffffff00" fill="#402000"/><path stroke="#ffffff00" fill="#e9b989" d="M216.82 205.067h10.72v6.12h-10.72z"/><path d="M179.938 174.39c-.263-.12-.766-4.59-.766-4.59s.91 1.004 0 0-1.915-2.438-3.83-1.53c-1.914.91-2.68 3.395-1.53 5.355 1.148 1.96 4.786 3.943 6.126 3.824 1.34-.12.263-2.94 0-3.06z" stroke="#ffffff00" fill="#f8c19a"/><path d="M203.8 184.333s9.878 2.192 17.615 2.294c7.737.102 19.913-1.53 19.913-1.53s-5.904 8.18-8.425 9.944c-2.52 1.764-9.19 3.06-9.19 3.06l-9.957-.765s-4.822-3.106-6.893-6.12c-2.07-3.01-3.064-6.882-3.064-6.882z" stroke="#ffffff00" fill="#370201"/><path d="M209.926 206.514c-.062.38-23.123 1.77-26.04 1.53-2.917-.242-8.168-4-8.424-3.825-.257.173-1.532-.766-1.532-.766l-2.298 6.12s2.948 1.27 3.83 1.528c.88.26 5.314 1.705 5.314 1.705 5.38 1.718 14.306.173 19.194-.175 4.888-.346 6.395-1.713 6.893-1.53.498.184-1.532 15.298-1.532 15.298l-.765 2.295h32.167l-1.627-17.94 19.243-3.477c6.915-1.147 21.445-5.354 21.445-5.354l-6.127-8.413s-7.466 4.322-16.85 7.65c-6.556 2.325-18.07 4.99-18.07 4.99s-1.94.342-3.375-.4c-1.697-.88-7.77 2.455-9.96 3.207l-11.484-2.443z" stroke="#ffffff00" fill="#c6c6c6"/><path d="M203.69 167.796c0-3.317 1.35-6.006 3.014-6.006 1.664 0 3.012 2.69 3.012 6.006 0 3.317-1.348 6.007-3.012 6.007-1.665 0-3.013-2.69-3.013-6.007zM233.067 167.796c0-3.317 1.35-6.006 3.013-6.006 1.664 0 3.012 2.69 3.012 6.006 0 3.317-1.348 6.007-3.012 6.007s-3.013-2.69-3.013-6.007z"/><g opacity=".6"><path d="M251.91 156.596s6.106 1.07 6.182 5.812c.077 4.74-1.602 11.775-1.602 11.775s.38-.765 0 .23c-.382.993-1.756 3.822-5.42 4.357-3.663.536-12.06 1.147-15.34-.535-3.283-1.682-6.794-7.8-6.87-13.84-.076-6.04 3.053-7.187 9.846-8.105 6.793-.917 10.914 0 13.204.306z" fill="#e0f3f7"/><path d="M247.854 156.807c-1.62-.152-3.6-.23-5.988-.078l-8.17 20.68c.666.687 1.355 1.228 2.033 1.576.206.106.433.203.678.29l11.446-22.47z" fill="#f1fbfc"/></g><path d="M264.986 154.62c-2.772-.867-25.645-1.732-31.647-.408-6.006 1.325-8.415 3.365-11.57 3.365-3.155 0-6.58-3.058-13.093-3.466-6.515-.408-19.896-1.07-29.97.255 0 0-1.475.154-1.375 1.988.1 1.835.61 4.487.61 4.487s0 .917 1.018 1.018c1.02.1 1.425.307 2.036 1.224.61.918.833 16.953 8.014 18.504 5.547 1.198 19.973 2.09 23.737-2.09 3.764-4.18 5.19-9.48 5.9-11.42.716-1.936-.338-4.688 3.124-4.382 3.46.306 2.51 2.446 3.02 4.382.507 1.94 3.255 9.28 6.003 11.216 2.748 1.935 5.904 3.875 14.248 3.465 8.345-.407 12.518-1.425 14.045-6.013 1.526-4.588 3.053-12.44 3.053-12.44s.204-2.24 1.322-2.345c1.12-.102 1.325.103 1.73-.713l.407-.817.61-4.178s.1-1.22-1.22-1.633zm-57.276 24.366c-3.282 1.683-11.678 1.07-15.34.536-3.665-.536-5.04-3.365-5.42-4.36-.382-.993 0-.23 0-.23s-1.68-7.034-1.604-11.773c.077-4.743 6.183-5.813 6.183-5.813 2.288-.306 6.41-1.224 13.203-.306 6.793.92 9.922 2.066 9.846 8.106-.078 6.04-3.59 12.158-6.87 13.84zm48.78-4.053s.38-.764 0 .23c-.382.994-1.756 3.823-5.42 4.358-3.663.536-12.06 1.148-15.34-.534-3.283-1.682-6.794-7.8-6.87-13.84-.076-6.04 3.053-7.187 9.846-8.105 6.793-.916 10.914 0 13.204.307 0 0 6.106 1.07 6.182 5.812.077 4.738-1.602 11.773-1.602 11.773z" fill="#171518"/><g opacity=".6"><path d="M191.53 156.596s-6.107 1.07-6.184 5.812c-.076 4.74 1.603 11.775 1.603 11.775s-.382-.765 0 .23c.38.993 1.755 3.822 5.42 4.357 3.662.536 12.058 1.147 15.34-.535 3.28-1.682 6.792-7.8 6.87-13.84.075-6.04-3.054-7.187-9.847-8.105-6.793-.917-10.915 0-13.204.306z" fill="#e0f3f7"/><path d="M204.733 156.29c-2.764-.373-5.08-.44-7.015-.37l-6.042 22.715c.222.055.452.1.693.136 1.886.276 5.03.57 8.08.563l9.32-22.06c-1.373-.424-3.046-.713-5.037-.982zM212.295 159.22l-7.766 20.622c1.27-.17 2.377-.445 3.18-.856 3.28-1.682 6.792-7.8 6.87-13.84.036-2.98-.708-4.767-2.285-5.925z" fill="#f1fbfc"/></g><path d="M221.015 209.87l-.753.75 1.506 2.253 1.507-1.5-.754-1.503h-1.505z" fill="#13848a"/><path d="M222.425 211.474l-1.41-.102-.753 6.757-.743 10.565h4.5l-.745-10.566-.85-6.656z" fill="#13848a"/><path opacity=".4" d="M247.66 80.103l3.207.023-1.335 11.544-1.87-11.567zM259.65 80.556l2.63 1.6-6.407 10.85 3.776-12.45zM270.65 87.99l.807 3-11.65 5.47 10.844-8.47z"/><path d="M163.805 185.723c-.213-.12-2.068-.912-4.38-.486-2.31.426-6.78 3.678-7.783 5.35-1.004 1.672-1.885 5.106-1.46 6.81.426 1.7 1.582 4.893 1.46 4.862-.122-.03 8.27 0 8.27 0l.487-6.323.8 1.2.172.258s1.582.183 1.46 0c-.122-.182.76.06.973-1.945.213-2.006.487-3.404.487-3.404l1.46-4.377s-1.734-1.825-1.947-1.947z" stroke="#ffffff00" fill="#f4caa4"/><path d="M161.775 147.892l11.307 20.054 10.23 4.336 4.846 2.168s3.948 2.35 2.154 8.13c-1.795 5.782-5.295 8.04-7 7.588-1.705-.45-7-1.987-7-2.168 0-.18-9.242-2.89-9.69-2.71-.45.18-18.846 7.046-18.846 7.046l14-44.444z" stroke="#ffffff00" fill="#e0dbd7"/><path d="M182.774 172.824c-.068 1.084-.135 7.927-2.692 11.382-2.558 3.456-2.558 4.066-3.23 4.336-.674.272-2.155.542-2.155.542l-3.23 5.962s-4.37 9.374-4.437 9.17c-.067-.202-3.613-.21-3.613-.21l-3.257 5.132L168.236 188v-1.626l1.616-2.168 2.692-3.25s1.75-2.847 1.615-2.71c-.136.134.537-3.796.537-3.796v-4.878l-.538-1.626s8.68 3.795 8.614 4.878z" stroke="#ffffff00" fill="#e65051"/><path d="M181.876 183.394l6.282.812s-.18 3.614-3.23 3.794c-3.052.18-6.462 0-6.462 0l3.41-4.606zM159.622 178.245l11.306 2.71-2.153 2.71s-2.872.722-2.692.54c.18-.18-12.922 4.88-12.922 4.88l6.462-10.84z" stroke="#ffffff00" fill="#c9c7c8"/><path d="M176.724 180.22c-.42.348-.974.95-.563 1.44.325.387 1.05.168 1.63-.353.563-.507.397-1.145.137-1.333-.26-.188-.76-.123-1.203.245zM175.11 184.013c-.42.35-.976.95-.565 1.44.325.387 1.05.17 1.63-.35.563-.508.397-1.147.137-1.335-.26-.188-.762-.123-1.203.245zM168.775 185.833c-.067.203 1.346.948 1.615 1.084.27.135-3.77 6.503-3.77 6.503l-2.547 9.696s-3.432-1.898-3.23-2.168c.2-.27 3.086-7.528 3.086-7.528l2.153-4.878s.74-3.387.538-3.25c-.2.134 1.55-.747 1.616-.543.068.202 4.14-3.118 4.846-4.88.707-1.76 1.952-7.486 1.615-9.214-.336-1.727-1.615-2.71-1.615-2.71h.538s1.92 1.457 1.616 4.878c-.303 3.422-.812 5.57-1.784 7.59-1.043 2.167-4.61 5.215-4.677 5.42z" stroke="#ffffff00" fill="#e72c2c"/><path d="M148.315 135.97c18.53 4.117 16.894 23.543 15.524 30.32-1.78 8.794-4.61 14.652-7.987 19.223-4.973 6.727-8.678 9.214-14 8.45-5.32-.766-14.663-6.505-13.46-27.643 1.204-21.137 15.093-31.16 19.922-30.35z" stroke="#ffffff00" fill="#e72727"/><path d="M147.238 135.427c19.607 8.436 15.3 25.906 14.747 30.504-.938 7.803-4.08 14.043-7.21 18.276-4.972 6.728-8.677 9.98-13.998 9.214-5.32-.765-14.664-6.503-13.46-27.642 1.203-21.137 15.092-31.162 19.92-30.35z" stroke="#ffffff00" fill="#e65051"/><path d="M146.7 141.388s-6.46-.828-10.23 5.42c-3.77 6.25-6.493 13.168-6.46 21.138.03 7.97 1.772 15.942 4.844 17.887 3.073 1.944 3.58 2.072 6.46 1.625 2.884-.446 4.84-1.572 7.374-3.708s-1.988-42.362-1.988-42.362z" stroke="#ffffff00" fill="#c8c8c8"/><path d="M147.523 141.388c-1.9.574-6.334 6.345-7.823 11.924-1.488 5.58-3.23 11.83-2.692 16.26.538 4.432 1.964 11.51 3.77 14.092 1.804 2.583 2.69 3.253 2.69 3.253s9.06-4.305 11.308-13.01c2.25-8.702 2.937-17.15 1.393-22.476-1.996-6.885-7.127-9.563-8.647-10.042z" fill="#9d9d9d"/><path d="M156.93 161.984l-10.23-3.252s-2.29-.542-4.308 0c-2.02.542-2.826 3.66-3.23 5.42-.404 1.762-.135 5.556 2.153 7.046 2.29 1.49 10.77 6.504 10.77 6.504s2.422-4.065 3.23-7.046c.807-2.98 1.615-8.672 1.615-8.672z" fill="#e0dbd7"/><path d="M149.93 159.816s2.79 3.145 3.23 5.42c.442 2.276.663 6.692-.538 8.672-1.2 1.98-1.34 3.484-1.615 3.252-.274-.232 1.077.542 1.077.542s2.92-4.58 3.77-7.588c.847-3.007 1.13-8.4 1.076-8.13-.056.27-7-2.168-7-2.168z" fill="#c8c8c8"/><path d="M143.5 159.25c-1.376-.116-3.024 2.237-3.26 4.902-.24 2.666-.182 5.44 1.195 5.728 1.654.347 3.453-2.096 3.65-5.728.196-3.63-.446-4.53-1.584-4.902z" stroke="#ffffff00" fill="#c8c8c8"/><path d="M172.562 192.046s.45 4.118 0 5.35c-.448 1.23-2.232 6.174-2.432 6.81-.2.632-1.316 3.458-2.433 3.89-1.117.43-.973.486-.973.486h3.892s1.183-1.566 2.433-4.377c1.25-2.812 1.913-8.292 1.945-8.755.032-.462-2.433-3.89-2.433-3.89v.486z" stroke="#ffffff00" fill="#e9b989"/><path d="M159.426 192.046l1.946-.486s1.734 1.337 1.946 1.46c.213.12 1.52 2.673.487 3.89-.74.87-1.417 1.24-1.742 1.382-.13.057-.204.076-.204.076s-4.106-1.246-4.38-1.46c-.273-.212 1.946-4.862 1.946-4.862z" stroke="#ffffff00" fill="#fad3b2"/><path d="M160.958 185.927l1.946-.487s1.733 1.338 1.946 1.46c.213.12 1.52 2.674.487 3.89-.74.87-1.417 1.242-1.743 1.383-.13.057-.203.076-.203.076s-4.104-1.247-4.378-1.46c-.274-.212 1.946-4.863 1.946-4.863z" stroke="#ffffff00" fill="#f4caa4"/><path d="M156.02 202.26s1.638.818 2.92.485c.977-.254 1.05 2.104 1.774 1.41.226-.215 1.513-3.024 1.63-3.355.5-1.397 1.588-2.552-.972-3.89-2.56-1.34-5.287-1.38-6.81-.487-1.525.894-3.59 1.6-3.407 4.377.183 2.777 2.26 5.013 3.406 5.836 1.147.823 5.397 3.17 8.272 2.918 2.875-.25 4.19-.342 5.838-2.43 1.648-2.09 3.71-7.466 3.892-9.728.183-2.263.4-4.895 0-5.35-.4-.455-.973-.973-.973-.973s.25 2.603-.487 3.404c-.736.802-1.692 2.935-2.615 2.615-.923-.32.09.428.09.303.003-.125-.334 3.405-.334 3.405s-.252 4.06-.44 4.214c0 0-6.105-.916-5.8-.86.303.06-4.352-.88-4.524-.922-.17-.043-1.46-.973-1.46-.973z" stroke="#ffffff00" fill="#f7d3b2"/><path d="M156.02 202.745s2.03.333 3.406 0c1.378-.333 2.433-.972 2.433-.972h1.458s-.256.53-.973.972c-.716.444-2.36 1.163-3.892.973-1.533-.19-2.432-.486-2.432-.486v-.487z" stroke="#ffffff00" fill="#fbcaa9"/><path d="M172.562 196.91c-1.12 1.043-1.904 1.774-3.405.972-1.5-.802-2.15-1.637-2.433-2.918-.282-1.28-.155-3.3 0-4.378.155-1.076 1.317-3.5 3.406-3.403 2.09.095 3.217 2.49 3.406 3.403.188.913.147 5.28-.974 6.323z" stroke="#ffffff00" fill="#e9b989"/><path d="M171.103 195.45c-1.12 1.044-1.905 1.775-3.406.973-1.5-.802-2.15-1.637-2.433-2.918-.28-1.28-.154-3.3 0-4.377.156-1.077 1.317-3.5 3.406-3.405 2.09.095 3.218 2.492 3.406 3.405.188.912.147 5.278-.973 6.322z" stroke="#ffffff00" fill="#f7d3b2"/><path d="M173.164 202.69l2.298 2.294s-1.472 5.315-3.064 5.354c-1.592.04-3.83-1.53-3.83-1.53s2.374-.235 3.064-1.53c.69-1.294.766-1.53.766-1.53l.766-3.06z" stroke="#ffffff00" fill="#fff"/><path d="M216.82 206.514l4.595 2.294-3.83 2.294-6.127-4.588h5.36z" fill="#d6dfe0"/><path d="M156.994 187.67s1.733-1.004 3.405-.974c1.672.03 4.306 1.054 4.306 1.054s-.122-1.064 0-.973c.12.09-2.665-.506-4.307-.567-1.643-.06-3.406 1.458-3.406 1.458zM155.048 191.56c-.152 0 2.128-1.186 3.405-.974 1.277.213 3.862 1.642 4.38 2.433.516.79 1.033 1.153.972.97-.06-.18-1.155-2.522-2.92-3.404-1.763-.88-2.95-.7-3.89-.486-.944.213-1.795 1.46-1.947 1.46z" stroke="#ffffff00" fill="#e9b989"/><path d="M270.432 194.276c-.228-.227 1.344-1.532 2.01-2.067.175-.142.287-.23.287-.23l6.126 8.415-3.063 1.53s.048-.287 0 0c-.048.286-5.074-7.363-5.36-7.65z" stroke="#ffffff00" fill="#fff"/><g stroke="#ffffff00"><path d="M288.302 193.007s-1.085 1-2.16 1.026c-.818.02-1.777.135-2.5-.243-.226-.118-.428-.284-.596-.516-.708-.976-1.82-1.633-.138-3.242 1.682-1.608 3.795-2.245 5.187-1.887 1.39.357 3.16.45 3.656 2.65.5 2.2-.603 4.4-1.305 5.293-.702.894-3.47 3.66-5.763 4.103-2.294.442-3.34.663-5.102-.597-1.762-1.26-4.603-4.984-5.266-6.702-.663-1.718-1.437-3.718-1.23-4.16.205-.442 5.778-5.374 5.778-5.374s5.01 10.455 4.786 10.567c-.223.112 3.62.236 3.742.164.124-.07.912-1.08.912-1.08z" fill="#f7d3b2"/><path d="M278.44 181.87c.14-.14 1.4-1.166 3.296-1.347 1.895-.182 6.12 1.357 7.286 2.435 1.166 1.078 2.642 3.554 2.703 4.973.06 1.42-.104 4.157-.016 4.107.086-.05-6.436 1.833-6.436 1.833l-1.833-4.81-.346 1.11-.075.24s-1.19.493-1.136.324c.053-.17-.577.216-1.205-1.298-.628-1.512-1.163-2.54-1.163-2.54l-2.142-3.08s.928-1.803 1.066-1.945z" fill="#f4caa4"/><path d="M273.083 188.73s.6 3.302 1.23 4.16c.633.86 3.16 4.308 3.46 4.758.302.448 1.82 2.398 2.788 2.486.97.088.87.163.87.163l-3.028.863s-1.28-.956-2.9-2.866c-1.62-1.91-3.397-6.025-3.528-6.377-.13-.353.997-3.565.997-3.565l.113.377z" fill="#e9b989"/><path d="M283.302 185.818l-1.626.054s-1.04 1.424-1.178 1.565c-.137.143-.567 2.418.517 3.135.775.512 1.388.65 1.674.69.113.014.175.013.175.013s2.907-1.88 3.07-2.106c.164-.226-2.633-3.352-2.633-3.352z" fill="#fad3b2"/><path d="M287.545 193.223s-1.085 1-2.16 1.025c-.818.02-1.777.136-2.5-.243-.226-.118-.428-.283-.596-.515-.71-.976-1.822-1.633-.14-3.242 1.683-1.61 3.796-2.245 5.188-1.888 1.39.358 3.16.45 3.656 2.65.498 2.2-.604 4.4-1.306 5.294-.702.894-3.47 3.66-5.763 4.103-2.294.44-3.34.662-5.1-.598-1.765-1.26-4.605-4.985-5.268-6.704-.663-1.72-1.437-3.718-1.23-4.16.205-.443.532-.973.532-.973s.404 2.08 1.16 2.54c.758.46 1.993 1.907 2.637 1.454.644-.453.03.353 0 .257-.03-.097 1.043 2.573 1.043 2.573s.363 1.33.545 1.41c0 0 4.87-2.18 4.646-2.068-.222.11 3.62.235 3.744.163.123-.072.91-1.08.91-1.08z" fill="#f7d3b2"/><path d="M288.414 193.386s-1.5.708-2.65.755c-1.148.047-2.116-.217-2.116-.217l-1.135.324s.32.355.98.54c.66.186 2.103.38 3.252-.106 1.15-.486 1.78-.916 1.78-.916l-.11-.378z" fill="#e9b989"/><path d="M282.08 188.627s-1.26 3.16-.28 4.593c.976 1.433 1.048 2.16 1.048 2.16l-2.27.648s.13-.286-.293-2.378c-.423-2.09-2.51-3.6-2.367-3.837.144-.237-.78-5.894-.543-5.997.237-.104 2.004-.16 2.004-.16l2.7 4.97zM284.188 181.875s-1.58-.397-2.874-.002-1.557 1.674-1.557 1.674-.15-.855-.223-.756c-.074.1.405-.884 1.668-1.295 1.264-.412 2.986.38 2.986.38z" fill="#e9b989"/><path d="M286.597 184.47c.118-.034-1.93-.45-2.873-.002-.945.45-2.627 2.133-2.847 2.862-.22.73-.54 1.127-.534.972.006-.155.32-2.22 1.488-3.295 1.17-1.076 2.135-1.197 2.917-1.24.782-.044 1.732.736 1.85.703zM274.202 192.512c1.112.564 1.89.96 2.873.002.983-.956 1.297-1.75 1.22-2.808-.074-1.06-.637-2.6-1.006-3.405-.37-.802-1.83-2.43-3.434-1.892-1.603.537-1.93 2.65-1.866 3.403.063.752 1.1 4.14 2.212 4.702z" fill="#e9b989"/><path d="M275.002 191.054c1.11.564 1.89.96 2.873.002.983-.957 1.297-1.75 1.22-2.81-.074-1.058-.638-2.6-1.006-3.403-.37-.803-1.83-2.43-3.434-1.893-1.603.537-1.93 2.65-1.866 3.402.063.752 1.1 4.138 2.212 4.702z" fill="#f7d3b2"/></g><path d="M220.65 208.808l4.594 3.06 6.893-6.12s-4.152.908-4.595.766c-.444-.143-3.83 2.294-3.83 2.294h-3.063z" stroke="#ffffff00" fill="#d5dadd"/><path d="M206.097 185.097c.44-.002 9.292.68 16.084.765 6.793.084 16.85-.765 16.85-.765s-6.094 5.605-15.318 5.354c-9.223-.25-18.055-5.35-17.615-5.353z" stroke="#ffffff00" fill="#fefffd"/><path d="M212.99 197.335c-.042-.162 3.15-3.956 9.19-3.824 6.042.132 9.19 3.06 9.19 3.06s-4.25 3.142-8.947 2.863c-4.695-.28-9.39-1.936-9.433-2.098z" stroke="#ffffff00" fill="#fc706c"/><path d="M260.475 174.39c.263-.12.766-4.59.766-4.59s-.91 1.004 0 0 1.916-2.438 3.83-1.53c1.915.91 2.68 3.395 1.532 5.355-1.15 1.96-4.787 3.943-6.127 3.824-1.34-.12-.263-2.94 0-3.06z" stroke="#ffffff00" fill="#f4caa4"/></g></svg>