<svg xmlns="http://www.w3.org/2000/svg" width="300" height="215" viewBox="0 0 300 215"><g fill-rule="evenodd" clip-rule="evenodd"><path fill="#FFF" d="M69.746 166.243h-.22l.22.01v-.01zm37.98 1.28l-37.98-1.27-.22-.01h-1.29s-2.14 9.87-2.57 11.3c-.43 1.42-1.15 8.03-.86 9.38s-.29 3.9 4.29 4.47c4.58.57 15.09 1.64 15.45 1.71.36.07 5.44.49 7.51.42 2.08-.07 50 .43 50 .43l.86-.85c.28-.22-.43-.64-.43-.64l-3.01-.43s-19.48-1.522-26.392-2.34c-6.91-.83-6.44-10.022-6.44-10.022l1.082-12.148z"/><path fill="#DADADA" d="M69.746 166.243h-.22l.22.01v-.01zm-2.79 11.08c.35-2.13 2.57-11.08 2.57-11.08h-1.29s-2.14 9.87-2.57 11.3c-.43 1.42-1.15 8.03-.86 9.38s-.29 3.9 4.29 4.47c4.58.57 15.09 1.64 15.45 1.71.36.07 5.44.49 7.51.42 2.08-.07 50 .43 50 .43l.86-.85c-.29.21-50.22-.64-50.22-.64l-4.06-.32s-6.38-.04-10.1-.96c-3.72-.92-10.08-2.13-10.08-2.13s-2.08 0-2.58-2.35c-.5-2.34.72-7.25 1.08-9.38z"/><path fill="#DADADA" d="M68.905 166.453h-.22l.22.01v-.01zm-.22 0h-1.29s-2.14 9.88-2.57 11.3c-.35 1.16-.9 5.81-.92 8.2l43.1.1c-1.368-2.84-1.198-6.17-1.198-6.17l1.08-12.15-37.98-1.27-.222-.01zM13.096 164.753l-2.37-.17c-2.74-.07-8.28-.21-8.58-5.38-.29-5.16-3-148.146-3-148.146s.01-.78.21-1.27c.21-.5 3.12-4.82 3.12-4.82l7.54-.68 3.51 135.306 16.95 25.8-17.38-.64z"/><path fill="#FFF" d="M5.026 141.103l-.1 15.12s-1 7.67 6.87 8.31c7.86.64 103.65 3.41 103.65 3.41l82.18 2.99s6.3.35 6.01-4.05c-.288-4.41-2.33-15.53-2.33-15.53l-94.66-4.08-101.62-6.17z"/><path fill="#313133" d="M7.966 2.977s-6.8-2.42-6.87 3.62c-.07 6.04.43 24.51.43 24.51l2.57 109.566 196.55 11.73s-10.51-105.307-10.72-105.517c-.22-.21.16-5.28-5.8-6.4-5.95-1.12-176.16-37.51-176.16-37.51z"/><path fill="#10ADBC" d="M11.596 13.197l172.73 34.74 9.442 96.876-179.172-11.94"/></g><path fill-rule="evenodd" clip-rule="evenodd" fill="#6EA1A4" d="M203.117 105.504h.53-.53z"/><path fill-rule="evenodd" clip-rule="evenodd" fill="#1695A4" d="M107.696 32.237l78.322 16 8.01 96.006-82.892-5.23"/><g fill-rule="evenodd" clip-rule="evenodd"><path fill="#333" d="M26.277 125.89l2.947-.144-1.427-3.314M37.8 125.653l2.72.29-.83-3.27M16.093 126.362l2.67-.18-1.46-2.97"/><path fill="#E99432" d="M24.896 129.595l1.53-4.22h2.67l1.52 4.22M35.776 129.813l2.02-4.16 2.72.29 1.08 4.46M15.026 130.53l1.1-4.298 2.67-.18 1.95 4.09"/><path fill="#0A494D" d="M7.036 161.923c0-2.75 8.97-4.99 20.03-4.99 11.07 0 20.04 2.24 20.04 4.99 0 2.76-8.97 5-20.04 5-11.06 0-20.03-2.24-20.03-5z"/><path fill="#021819" d="M9.327 161.403c0-1.49 7.94-3.08 17.74-3.08 9.81 0 17.75 1.59 17.75 3.08 0 1.48-7.94 3.07-17.75 3.07-9.8 0-17.74-1.59-17.74-3.07z"/><path fill="#AB4B25" d="M24.896 129.522h5.72v45.32h-5.72z"/><path fill="#F2C300" d="M35.776 129.813l-4.69 44.8 5.66.37 4.85-44.58"/><path fill="#137F7F" d="M15.026 130.373l4.6 45 5.73-.39-4.61-44.99"/><path opacity=".1" d="M27.91 129.522h2.67v45.32h-2.67zM38.887 130.134l-4.78 44.68 2.64.17 4.85-44.58M18.077 130.173l4.6 44.99 2.68-.18-4.61-44.99"/><path fill="#063133" d="M47.126 161.543l-.02.01c-.02 2.75-8.98 3.98-20.04 3.98s-20.03-1.23-20.03-3.99c0 0 4.58 34.4 4.58 34.762 0 3.08 7 5.57 15.64 5.57 8.1 0 14.76-2.19 15.57-4.99l4.3-35.342z"/><path fill="#0A494D" d="M44.767 161.252c.018.05.05.1.05.15 0 1.48-7.94 3.07-17.75 3.07-9.8 0-17.74-1.59-17.74-3.07 0-.05.03-.1.048-.15h-2.1c-.072.143-.13.287-.152.434.404 2.67 9.19 4.8 19.992 4.8 10.813 0 19.596-2.133 20.002-4.798-.022-.147-.08-.292-.152-.436h-2.198z"/></g><g fill-rule="evenodd" clip-rule="evenodd"><path fill="#BEC3C7" d="M170.967 166.183c2.23-3.8.02.01.02.01.02 2.63 8.71 4.75 19.43 4.75 10.73 0 19.49-4.97 19.49-4.97.66 12.95-6.95 29.87-6.95 30.21 0 2.94-4.35 5.32-12.73 5.32-7.85 0-11.868-2.09-12.65-4.77 0 0-8.33-19.32-6.61-30.55z"/><path fill="#EAEFF2" d="M209.947 166.413c0-2.5-8.88-4.53-19.84-4.53-10.96 0-19.84 2.03-19.84 4.53s8.88 4.53 19.84 4.53c10.96 0 19.84-2.03 19.84-4.53z"/><path fill="#BEC3C7" d="M174.117 174.283c-1.17-1.14-8.01-4.44-9.23.38-1.03 4.08.26 9.35 9.78 11.21 9.51 1.87 4.07 0 4.07 0l-2.44-3.2s-8.17-1.48-8.15-4.81c.03-3.33 3.07-2.26 6.52 0 3.45 2.26-.55-3.58-.55-3.58z"/><path opacity=".3" fill="#FFF" d="M186.947 123.413c-.8 1.21-4.61 5.59 0 11.21 4.62 5.62 11.45 11.51 9.78 16.81-1.68 5.31-12.222 12.02-12.222 12.02s9.57-6.66 8.96-12.02c-.608-5.36-5.698-11.21-5.698-11.21s4.17 6.31 4.068 10.41c-.14 5.47-5.7 9.61-5.7 9.61s5.95-5.92 1.632-12.81c-2.73-4.36-10.4-18.11-.82-24.02z"/><path fill="#EAEFF2" d="M190.666 201.503v-30.56c10.62-.07 19.24-4.97 19.24-4.97.66 12.95-6.95 29.87-6.95 30.21 0 2.89-4.2 5.23-12.29 5.32z"/></g><path fill="#BD9372" d="M177.396 168.183c-8.74-1.46-5.65-3.55 5.72-4.22 9.05-.54 18.79.19 22.76 1.37 3.48 1.04 2.15 2.34-3.358 3.11-6.54.91-17.862.95-25.122-.26z"/><path fill="#452507" d="M179.357 167.923c-7.13-1.24-4.61-3 4.81-3.6 7.76-.49 16.38.1 19.98 1.14 3.22.92 2 2.08-3.02 2.75-5.84.78-15.67.76-21.77-.29z"/><path fill="#BD9372" d="M197.656 168.613c-.55-.18-.34-.45.44-.6.78-.15 1.82-.13 2.33.04.5.18.31.44-.43.59-.75.15-1.808.14-2.34-.03zM202.848 167.353c-.83-.34-.512-.81.7-1.02 1.18-.2 2.73-.09 3.47.25.738.33.45.76-.65.97-1.122.22-2.702.14-3.52-.2z"/><path fill="#BD9372" d="M202.957 167.293c-.14-.03-.09-.08.12-.11.21-.02.49-.01.63.02.13.04.08.09-.12.11-.21.03-.49.02-.63-.02zM202.938 167.013c-.09-.03-.05-.06.068-.07.13-.02.3-.01.38.01.09.022.052.05-.07.07-.128.01-.298.01-.378-.01zM202.406 167.793c-.4-.1-.25-.24.35-.32.58-.07 1.36-.05 1.74.04.38.1.23.24-.33.31-.568.08-1.36.06-1.76-.03zM200.727 166.793c-.4-.1-.25-.24.35-.32.58-.07 1.36-.05 1.74.04.38.1.23.24-.33.31-.57.08-1.36.06-1.76-.03zM204.256 167.193c-.39-.1-.238-.24.33-.31.55-.07 1.29-.04 1.65.06.36.1.22.23-.31.3-.54.07-1.29.05-1.67-.05zM193.688 167.543c.29-.14 1.21-.23 2.04-.2.82.03 1.25.15.98.29-.26.13-1.142.22-1.98.2-.86-.02-1.332-.16-1.04-.29zM190.527 168.474c.92-.02 1.64.08 1.63.21-.01.13-.75.26-1.66.28-.94.02-1.71-.07-1.7-.21.01-.14.79-.27 1.73-.28z"/><path fill-rule="evenodd" clip-rule="evenodd" fill="#F2C300" d="M24.387 28.327l39.42 7.23 1.81 44.74-40.03-5.25"/><path fill-rule="evenodd" clip-rule="evenodd" fill="#08565E" d="M26.496 82.157l34.66 4.26.16 3.9-34.71-4.11M26.687 89.256l14.04 1.62.13 4.01-14.07-1.55M26.996 101.526l34.89 3.54.07 1.968-34.9-3.45M70.225 37.287l30.58 5.59.1 1.78-30.6-5.52M71.286 61.526l30.81 4.75.1 1.82-30.83-4.69M72.405 87.177l31.06 3.85.1 1.85-31.08-3.78M118.825 50.066l27.463 4.86.12 1.71-27.472-4.81M72.826 96.796l31.15 3.52.1 1.86-31.17-3.44M119.366 58.896l27.52 4.57.13 1.72-27.55-4.52M120.226 73.137l27.64 4.11.13 1.73-27.66-4.05M120.776 82.117l27.71 3.81.12 1.74-27.72-3.75M120.505 77.617l27.67 3.96.12 1.74-27.678-3.9M121.046 86.626l8.24 1.09.11 1.79-8.24-1.07M71.076 56.836l30.77 4.91.1 1.81-30.79-4.85M72.195 82.387l31.02 4.03.1 1.84-31.04-3.95M118.557 45.677l27.43 5.01.12 1.69-27.442-4.95M27.137 106.674l34.94 3.34.07 1.98-34.96-3.26M70.425 41.917l30.63 5.42.1 1.8-30.65-5.37M71.485 66.237l30.87 4.59.1 1.83-30.89-4.53M72.616 91.977l31.11 3.69.1 1.85-31.13-3.61M119.096 54.477l27.49 4.72.122 1.7-27.502-4.66M73.036 101.637l31.2 3.34.1 1.867-31.21-3.268M27.267 111.833l18.77 1.69.07 2.03-18.79-1.65M73.676 116.253l31.34 2.81.1 1.89-31.35-2.74M70.626 46.557l16.43 2.82.09 1.83-16.44-2.79M71.726 71.387l24.6 3.52.09 1.85-24.6-3.47M73.286 106.914l9.29.95.09 1.92-9.3-.92M119.995 69.057l3 .47.11 1.78-3-.46"/><g fill-rule="evenodd" clip-rule="evenodd"><path fill="#2A2A28" d="M46.296 188.903c-1.39.74-3.77 1.59-3.36 2.52.42.93.06 1.73 2.52 1.68 2.46-.05 4.042.45 5.88-.84 1.84-1.29 5.84-3.82 7.56-5.04 1.72-1.21 9.9-.76 10.92-.84 1.02-.08 25.19 0 25.19 0s-1.11-1.2-.84-1.68c.28-.48-36.95-.84-36.95-.84s-9.4 4.23-10.92 5.04z"/><path fill="#2A2A28" d="M96.686 188.063s4.03 2.15 3.36 2.52c-.67.37-2.98 1.05-4.2 0-1.22-1.05-7.66-3.8-7.56-4.2.1-.39-39.47-.84-39.47-.84l.84-1.68 40.31.84 6.72 3.36z"/><path opacity=".2" fill="#FFF" d="M64.776 183.863s7 .38 7.56 3.36c.55 2.98-1.45 6.71-3.36 7.56-1.92.84-3.6.9-5.88.84-2.29-.06-6.21.41-8.4-3.36-2.19-3.77-1.82-5.68-.84-6.72.98-1.03 3.71-1.5 5.88-1.68 2.17-.18 5.04 0 5.04 0zM79.056 187.224s1.54 3.36 3.35 5.04c1.82 1.68 4.28 1.97 6.72 1.68 2.44-.29 3.97-1.42 4.2-3.36.24-1.94.32-2.83 0-3.36-.31-.52-1.52-1.81-3.36-2.52-1.83-.71-6.98-.52-8.39 0-1.42.53-2.63.818-2.52 2.52z"/><path fill="#141312" d="M74.855 186.384c.71-.23 2.5.96 2.53.87l-.01-.03.01.03c.32.56 4.42 6.98 7.54 7.53 3.33.58 9.01-.932 9.24-1.682.24-.75-.12-3.06 0-4.2.12-1.14.05-2.04.84-2.52.79-.47.49-1.37 0-1.68-.49-.3-.78-.51-5.04-.84-4.02-.31-9.85-.07-10.91 0-1.07.07-2.29.92-3.36.84-1.08-.07-3.96-1.25-5.88-1.68-1.93-.42-16.8 0-16.8 0h-1.68s-2.73.48-3.36.84c-.63.36.63 2.19 1.68 2.52 1.06.34.45.65.84.84.39.19 4.23 7.55 6.72 8.4 2.49.84 8.96 1.18 11.76 0 2.8-1.19 5.01-4.71 5.04-6.72.02-2.008.08-2.268.84-2.518zm4.2.84c-.11-1.7 1.1-1.99 2.52-2.52 1.41-.522 6.562-.71 8.39 0 1.84.71 3.05 2 3.362 2.52.32.53.24 1.42 0 3.36-.23 1.938-1.76 3.07-4.2 3.36-2.44.29-4.9 0-6.72-1.682-1.81-1.68-3.35-5.038-3.35-5.038zm-14.28-3.36s7 .38 7.56 3.36c.55 2.978-1.45 6.708-3.36 7.56-1.92.84-3.6.898-5.88.84-2.29-.06-6.21.41-8.4-3.36-2.188-3.77-1.818-5.68-.84-6.72.98-1.03 3.71-1.5 5.88-1.68 2.17-.18 5.04 0 5.04 0z"/></g></svg>