<svg viewBox="0 0 257 193" style="background-color:#ffffff00" xmlns="http://www.w3.org/2000/svg" width="257" height="199"><path d="M58.313 84.797l-3.17-1.584 5.812-1.056-.53 2.64h-2.112z" stroke="#ffffff00" fill="#ccc"/><path d="M148.425 165.027l37.977-1.27.217-.008h1.287s2.145 9.875 2.575 11.296c.43 1.42 1.144 8.03.858 9.38-.286 1.35.286 3.907-4.292 4.476-4.577.568-15.09 1.634-15.45 1.705-.357.072-5.435.498-7.51.427-2.073-.072-49.995.426-49.995.426l-.86-.853c-.285-.213.43-.64.43-.64l3.004-.425s19.484-1.52 26.393-2.345c6.91-.827 6.438-10.02 6.438-10.02l-1.073-12.15zm37.98-1.278h.214l-.218.006.003-.007z" fill="#fff"/><path d="M189.194 174.833c-.357-2.132-2.575-11.084-2.575-11.084h1.287s2.145 9.875 2.575 11.296c.43 1.42 1.144 8.03.858 9.38-.286 1.35.286 3.907-4.292 4.476-4.577.568-15.09 1.634-15.45 1.705-.357.072-5.435.498-7.51.427-2.073-.072-49.995.426-49.995.426l-.86-.853c.287.213 50.212-.64 50.212-.64l4.07-.316s6.373-.038 10.092-.962c3.72-.923 10.085-2.13 10.085-2.13s2.074 0 2.575-2.346c.5-2.345-.715-7.247-1.073-9.38zm-2.79-11.084h.215l-.218.006.003-.007z" fill="#dadada"/><path d="M186.62 163.962h1.287s2.145 9.876 2.575 11.298c.35 1.164.895 5.812.922 8.196l-43.108.1c1.373-2.83 1.202-6.165 1.202-6.165l-1.073-12.15 37.977-1.27.217-.008zm-.215 0h.214l-.218.007.003-.008z" fill="#dadada"/><path d="M243.053 162.256l2.37-.165c2.738-.067 8.282-.21 8.573-5.376.29-5.166 3.004-148.15 3.004-148.15s-.005-.787-.215-1.28c-.21-.49-3.118-4.814-3.118-4.814l-7.54-.68-3.504 135.313-16.95 25.792 17.38-.64z" stroke="#ffffff00" fill="#dadada"/><path d="M251.118 138.608l.102 15.12s1 7.676-6.867 8.315c-7.867.64-103.653 3.41-103.653 3.41l-82.182 2.985s-6.295.356-6.01-4.05c.287-4.406 2.33-15.525 2.33-15.525l94.66-4.086 101.62-6.17z" stroke="#ffffff00" fill="#fff"/><path d="M247.344.477s6.795-2.415 6.866 3.624c.072 6.04-.43 24.515-.43 24.515l-2.574 109.567-196.55 11.724S65.168 44.602 65.383 44.39c.215-.214-.16-5.277 5.793-6.396C77.132 36.874 247.344.477 247.344.477z" stroke="#ffffff00" fill="#313133"/><path d="M244.555 10.696L71.82 45.442l-9.44 96.878 179.17-11.937 3.005-119.687z" fill="#10adbc"/><path d="M148.737 28.904l96.077-19.927-3.053 120.84-96.465 6.39 3.442-107.303z" fill="#1695a4"/><path d="M230.05 60.508l4.217 1.404.188.064.35.116.065-.373c1.392-.865 2.598-1.72 3.93-2.788l-.613-5.242c1.313-1.232 2.364-2.373 3.48-3.78l5.498-.026c1.067-1.57 1.885-2.964 2.715-4.633l-3.362-3.633c.644-1.608 1.078-3.01 1.437-4.642l5.37-2.863c.22-1.72.285-3.177.22-4.842l-1.488-.276-2.455-1.753-.653 1.176-.59-.107c-.208-1.52-.516-2.776-1.016-4.16l3.73-4.836c-.64-1.278-1.286-2.32-2.125-3.412l.124-.277-4.228-1.585-1.717 3.433c-.942-.94-1.857-1.664-3.003-2.386l1.13-5.38c-1.36-.642-2.588-1.083-4.083-1.467l-4.358 4.163c-1.463-.227-2.76-.3-4.302-.243l-1.623-4.443-.02.003.01-.016-4.228-1.584-3.17 5.81 1.522-.305-.938 2.276c-1.536.575-2.835 1.177-4.306 1.995l-3.798-2.4c-1.484.982-2.71 1.91-4.074 3.08l.494 4.866c-1.218 1.2-2.192 2.303-3.226 3.653l-4.92.173c-.972 1.48-1.72 2.788-2.482 4.35l2.9 3.344c-.604 1.516-1.017 2.837-1.37 4.376l-4.788 2.674c-.23 1.61-.323 2.98-.305 4.55l4.558 1.005c.157 1.46.407 2.673.83 4.02l-2.647 3.49c-.398.02-.7.04-.7.04l-1.584 3.168 3.17 1.584.09-.42.21.316 5.074-1.636c.896 1.032 1.762 1.83 2.87 2.64l-1.142 5.32c1.27.733 2.428 1.26 3.85 1.75l4.255-3.96c1.083.24 2.082.388 3.167.46l-1.464 2.923s2.63.98 3.984 1.4l.152.445c1.656-.11 3.093-.32 4.775-.7l2.2-5.325c1.593-.513 2.95-1.073 4.493-1.856l-.28 1.284zm-6.442-35.718c6.945-1.34 12.373 3.157 12.015 10.092-.36 6.97-6.416 13.61-13.416 14.767-6.892 1.14-12.07-3.484-11.656-10.273.413-6.754 6.22-13.268 13.058-14.587zm10.796 37.216l.05-.03-.187-.064.137.094z" fill="#71797f"/><path d="M219.562 7.123c1.64-.474 3.05-.772 4.687-.99l1.622 4.443c1.54-.056 2.84.016 4.302.243l4.358-4.164c1.495.384 2.724.825 4.082 1.467l-1.13 5.38c1.197.753 2.14 1.51 3.126 2.51l5.52-1.924c.926 1.178 1.62 2.273 2.302 3.64l-3.73 4.835c.5 1.385.808 2.64 1.017 4.16l5.182.96c.066 1.666 0 3.123-.218 4.842l-5.37 2.864c-.36 1.633-.794 3.035-1.44 4.643l3.364 3.634c-.83 1.67-1.648 3.063-2.715 4.633l-5.497.026c-1.117 1.407-2.168 2.548-3.48 3.78l.61 5.242c-1.476 1.184-2.8 2.11-4.394 3.073l-4.074-2.78c-1.543.783-2.9 1.343-4.494 1.856l-2.2 5.326c-1.68.38-3.118.59-4.774.698l-1.605-4.72c-1.528-.036-2.806-.19-4.234-.508l-4.254 3.96c-1.422-.49-2.58-1.017-3.85-1.75l1.142-5.32c-1.108-.81-1.975-1.607-2.87-2.64l-5.073 1.637c-.808-1.193-1.405-2.285-1.983-3.635l3.443-4.543c-.422-1.348-.672-2.562-.83-4.02l-4.556-1.007c-.02-1.57.073-2.94.304-4.55l4.79-2.673c.35-1.54.764-2.86 1.37-4.376l-2.903-3.346c.765-1.56 1.512-2.87 2.484-4.348l4.92-.173c1.034-1.35 2.008-2.453 3.226-3.653l-.494-4.865c1.364-1.172 2.59-2.098 4.074-3.082l3.798 2.402c1.47-.82 2.77-1.42 4.306-1.995l2.138-5.194zm1.404 16.083c6.945-1.34 12.373 3.157 12.015 10.092-.36 6.97-6.415 13.61-13.415 14.767-6.892 1.14-12.07-3.484-11.656-10.273.41-6.754 6.217-13.267 13.056-14.586z" fill="#dbf1fe"/><path d="M178.857 21.652l-.467 1.015c-1.112.527-2.058 1.118-3.072 1.92l-3.56-.722c-.775.796-1.398 1.53-2.06 2.428l1.073 3.636c-.638 1.138-1.087 2.183-1.457 3.392l-3.674 2.416c-.164 1.025-.233 1.9-.228 2.893l3.41 1.064c.192 1.107.492 2.016.975 2.95l-.626 1.566c-.59.378-3.294 2.12-3.06 2.04.193-.063 1.498.523 2.2.848.478.566.96 1.025 1.557 1.49l3.81-2.16c.485.23.96.406 1.454.538-.59.888-1.192 1.925-1.093 1.925.136 0 2.565.938 3.678 1.37l.222.59c.963-.074 1.804-.22 2.784-.482l1.954-4.224c1.14-.51 2.11-1.092 3.156-1.89l3.732.845c.813-.812 1.466-1.562 2.162-2.486l-1.176-3.796c.664-1.17 1.13-2.248 1.508-3.493l3.896-2.5c.16-1.063.222-1.967.2-2.993l-3.65-1.046c-.214-1.124-.54-2.04-1.058-2.977l1.724-4.302c-.53-.607-1.045-1.08-1.674-1.543l-.02-.116-3.697-1.585-1.39 3.49c-.612-.18-1.238-.287-1.94-.336l-1.378-3.505-.23.028.18-.206-3.698-1.584-3.17 3.696 2.705 1.802zm2.135 6.11c3.42-.683 6.007 1.71 5.75 5.352-.258 3.653-3.274 7.142-6.707 7.775-3.405.626-5.928-1.8-5.658-5.405.27-3.593 3.222-7.047 6.615-7.724z" fill="#9a4321"/><path d="M176.612 16.912c.967-.295 1.8-.47 2.758-.58l1.38 3.502c1.085.077 1.992.292 2.943.698l3.917-2.284c.715.504 1.277 1.01 1.86 1.676l-1.725 4.3c.517.936.844 1.854 1.06 2.978l3.65 1.046c.02 1.026-.04 1.93-.202 2.992l-3.896 2.5c-.38 1.246-.844 2.322-1.508 3.494l1.175 3.796c-.696.924-1.35 1.674-2.162 2.485l-3.732-.846c-1.044.798-2.016 1.38-3.155 1.89l-1.953 4.224c-.98.263-1.82.408-2.783.482l-1.366-3.624c-1.074-.114-1.966-.36-2.895-.798l-3.812 2.16c-.68-.528-1.21-1.05-1.757-1.73l1.688-4.215c-.483-.934-.783-1.843-.976-2.95l-3.41-1.063c-.004-.994.065-1.868.228-2.893l3.674-2.416c.37-1.21.82-2.254 1.458-3.393l-1.074-3.636c.663-.9 1.286-1.633 2.06-2.43l3.56.722c1.015-.8 1.96-1.392 3.073-1.92l1.922-4.17zm.68 9.265c3.42-.682 6.008 1.71 5.75 5.352-.256 3.653-3.273 7.142-6.706 7.775-3.405.627-5.928-1.8-5.658-5.404.27-3.592 3.222-7.046 6.615-7.723z" fill="#ab4b25"/><path d="M168.087 128.57l.138.054.03-.023-.168-.03zm-.43-.078l.43.08.17.03c1.064.183 2.05.296 3.194.363l2.945-5.83c1.218-.028 2.268-.12 3.505-.31l.65 1.632-2.4 2.055 3.782 1.418.135.337c1.416-.307 2.62-.642 4.025-1.123l.944-6.354c1.226-.515 2.257-1.02 3.443-1.686l.433.416.45 2.24 2.908.968.32.305c1.326-.843 2.426-1.626 3.677-2.618l-1.294-5.974c1.055-.943 1.916-1.8 2.875-2.86l5.535 1.797c1.034-1.27 1.862-2.397 2.766-3.766l-3.423-4.697c.723-1.242 1.283-2.33 1.87-3.63l6.177-.638c.58-1.512 1.006-2.816 1.42-4.358l-5.084-2.707c.282-1.357.455-2.514.578-3.864l5.92-2.972c.037-1.388.005-2.575-.103-3.895l.164-.165-.186-.092-.012-.137-.292-.017-3.738-1.867-1.144 1.6-.83-.045c-.198-1.268-.434-2.322-.787-3.522l4.816-4.825c-.498-1.307-.99-2.378-1.645-3.58l-.104.036.224-.224-4.227-1.584-1.585 1.584 1.01 1.772-1.367.46c-.64-.996-1.24-1.798-2.008-2.676l3.07-5.923c-.818-.785-1.57-1.42-2.443-2.068l.152-.542s-4.58-1.496-4.755-1.584c-.157-.077-.105 4.018-.03 5.052l-1.05.808c-.978-.594-1.85-1.038-2.91-1.482l.985-6.147c-1.245-.397-2.335-.664-3.642-.892l-3.803 5.4c-1.17-.123-2.18-.162-3.382-.128l-1.094-5.39.13-.387-3.698-1.584-3.17 5.28 1.968-.18-1.086 3.362c-1.2.344-2.217.7-3.395 1.19l-2.976-4.216-.262.132-.064-.288-3.17-1.584-1.585 6.336h1.474l.05 3.227c-1.078.753-1.97 1.447-2.98 2.317l-4.372-2.417c-1.084 1.046-1.97 1.982-2.957 3.13l2.022 4.876c-.826 1.06-1.486 1.998-2.206 3.133l-5.184-.358c-.74 1.314-1.316 2.46-1.928 3.827l3.654 3.383c-.476 1.234-.827 2.298-1.172 3.557l-5.34 1.732c-.31 1.424-.512 2.64-.674 4.063l4.818 1.483c-.068 1.257-.066 2.32.006 3.548l-2.948 2.216-.23-.23s-4.58 4.05-4.756 4.224c-.138.14 2.556.712 3.713.95l.066.282 5.386-.63c.354 1.126.713 2.054 1.2 3.1l-1.514 2.107h-2.51l-1.586 4.224 3.485 1.306c.133.188.27.376.412.57l5.27-2.724c.742.847 1.423 1.52 2.275 2.245l-1.414 4.226-.515-.343-1.057 2.64 3.058.873c.314.186.638.367.982.55l4.438-4.543c1.046.45 1.97.768 3.086 1.065l.012 3.074-3.65 1.62 3.66 1.37v.082zm11.882-52.61c8.63-1.233 15.27 5.24 14.654 14.53-.62 9.357-8.332 17.746-17.047 18.653-8.54.89-14.77-5.776-14.068-14.805.695-8.97 8-17.168 16.46-18.377z" fill="#937500"/><path d="M175.267 55.59c1.368-.308 2.534-.5 3.898-.643l1.12 5.53c1.202-.035 2.214.004 3.383.128l3.803-5.4c1.308.227 2.398.494 3.643.892l-.985 6.147c1.06.444 1.932.887 2.91 1.482l5.257-4.042c1.063.757 1.92 1.468 2.868 2.377l-3.07 5.924c.768.878 1.37 1.68 2.01 2.677l6.048-2.043c.656 1.2 1.15 2.272 1.647 3.58l-4.815 4.825c.353 1.2.59 2.254.787 3.522l6.003.328c.135 1.48.176 2.764.137 4.288l-5.92 2.972c-.124 1.35-.297 2.507-.58 3.864l5.086 2.707c-.415 1.542-.84 2.846-1.42 4.358l-6.18.638c-.585 1.302-1.145 2.388-1.868 3.63l3.422 4.7c-.904 1.367-1.732 2.494-2.766 3.765l-5.535-1.796c-.96 1.06-1.82 1.915-2.876 2.86l1.294 5.974c-1.25.993-2.35 1.776-3.677 2.62l-4.11-3.93c-1.186.666-2.217 1.17-3.444 1.686l-.943 6.355c-1.405.48-2.61.816-4.024 1.123l-2.17-5.44c-1.236.19-2.285.28-3.504.306l-2.944 5.83c-1.355-.078-2.49-.22-3.794-.473l-.023-6.146c-1.117-.296-2.04-.615-3.086-1.064l-4.44 4.544c-1.123-.603-2.04-1.18-3.064-1.934l2.012-6.013c-.852-.726-1.533-1.398-2.275-2.245l-5.27 2.722c-.757-1.026-1.347-1.95-1.972-3.084l3.688-5.122c-.488-1.046-.847-1.974-1.2-3.1l-5.388.63c-.31-1.308-.512-2.448-.674-3.813l4.83-3.63c-.073-1.227-.075-2.29-.007-3.546l-4.82-1.483c.163-1.422.365-2.638.674-4.062l5.34-1.732c.346-1.26.697-2.323 1.173-3.557l-3.653-3.386c.61-1.367 1.187-2.512 1.927-3.826l5.185.357c.72-1.135 1.38-2.072 2.206-3.133l-2.022-4.876c.99-1.148 1.874-2.084 2.958-3.13l4.373 2.417c1.01-.87 1.9-1.565 2.978-2.32l-.09-5.786c1.252-.784 2.343-1.393 3.647-2.035l2.975 4.218c1.18-.49 2.195-.848 3.395-1.192l1.932-5.987zm.573 18.71c8.63-1.235 15.27 5.238 14.655 14.53-.62 9.355-8.332 17.744-17.047 18.65-8.54.89-14.77-5.775-14.068-14.804.697-8.97 8-17.168 16.46-18.377z" fill="#f2c300"/><path d="M222.894 28.077c5.03-.952 8.936 2.302 8.672 7.297-.265 5.014-4.624 9.794-9.683 10.65-5.002.85-8.777-2.472-8.484-7.39.292-4.9 4.52-9.615 9.494-10.557zm-.176 3.123c3.267-.607 5.79 1.517 5.615 4.754-.175 3.246-2.994 6.345-6.272 6.912-3.254.563-5.722-1.588-5.535-4.793.188-3.198 2.95-6.27 6.193-6.873z" fill="#71797f"/><path d="M220.78 26.493c5.03-.953 8.937 2.302 8.672 7.297-.265 5.014-4.624 9.794-9.683 10.65-5.003.848-8.778-2.472-8.484-7.39.292-4.9 4.52-9.615 9.494-10.557zm-.176 3.123c3.267-.607 5.79 1.516 5.615 4.754-.176 3.246-2.994 6.345-6.273 6.912-3.255.563-5.723-1.588-5.535-4.793.187-3.2 2.95-6.27 6.192-6.874z" fill="#dbf1fe"/><path d="M177.15 77.803c6.566-.91 11.58 4.013 11.104 11.04-.478 7.066-6.305 13.412-12.92 14.133-6.51.71-11.288-4.324-10.763-11.2.524-6.84 6.115-13.077 12.58-13.973zm-.156 2.166c5.422-.74 9.55 3.338 9.152 9.136-.4 5.82-5.197 11.058-10.652 11.667-5.385.6-9.35-3.55-8.92-9.245.43-5.67 5.066-10.83 10.42-11.56z" fill="#937500"/><path d="M175.565 76.747c6.565-.91 11.58 4.013 11.104 11.04-.48 7.066-6.306 13.412-12.92 14.133-6.51.71-11.29-4.323-10.764-11.2.523-6.84 6.113-13.077 12.58-13.973zm-.156 2.166c5.42-.737 9.547 3.34 9.15 9.136-.398 5.82-5.196 11.058-10.65 11.667-5.386.6-9.352-3.55-8.92-9.244.428-5.67 5.065-10.832 10.42-11.56z" fill="#fec110"/><path d="M179.126 25.959c-3.326-.55-6.273.904-8.08 5.058-1.806 4.152-1.256 7.862 3.048 8.46 6.215.792 32.46 5.455 42.437 5.788 4.3.58 10.45-2.92 12.26-8.488 1.9-5.848.577-10.464-7.543-10.963-6.92.585-35.85.647-42.12.143z" stroke="#15161e" fill="none"/><path d="M165.964 100.298c-5.534-4.3-3.194-14.764 1.71-19.38 4.716-6.248 38.898-42.75 43.382-48.186 5.4-6.543 10.515-8.378 14.546-6.19 4.745 2.578 4.003 7.273 1.294 11.31-6.99 12.798-41.985 58.34-41.985 58.34-4.533 6.49-13.048 8.457-18.946 4.106z" stroke="#15161e" fill="none"/><path d="M149.202 31.994l1.056 3.168-4.227.528 3.172-3.696z" fill="#ccc"/><g><path d="M105.08 52.03c6.658-1.245 11.54 3.95 10.8 11.66-.747 7.757-6.875 14.916-13.578 15.933-6.588 1-11.202-4.338-10.41-11.867.785-7.487 6.644-14.503 13.19-15.726zm-.4 3.97c4.717-.856 8.154 2.844 7.622 8.297-.534 5.475-4.854 10.54-9.593 11.283-4.682.734-7.984-3.038-7.427-8.4.554-5.338 4.738-10.33 9.398-11.18z" fill="#666d73"/><path d="M105.58 14.13l-4.748 11.802c-2.405 1.043-4.445 2.14-6.75 3.63l-6.68-4.697-.026-.263-4.227-1.585-1.058 4.224 1.387.015c-.87.79-1.727 1.615-2.628 2.52l.845 10.792c-1.86 2.205-3.345 4.224-4.912 6.68L67.26 48.37c-1.33 2.535-2.352 4.755-3.403 7.392l5.822 6.876c-.825 2.72-1.363 5.08-1.783 7.805L58.88 77.42c-.14 2.25-.16 4.198-.063 6.297l-1.033-1.032-2.114.528 3.17 1.584.035-.034.008.125 9.095 1.066c.452 2.49 1.022 4.54 1.888 6.778l-5.862 11.105c.192.36.383.71.576 1.05l-.983 2.615 3.604 1.353.362.464 9.802-5.372c1.66 1.52 3.234 2.64 5.204 3.702l-.582 12.252c2.135.79 4.044 1.29 6.352 1.662l7.367-10.726c2.444-.006 4.6-.248 7.128-.804l3.564 6.112-2.112 1.918 4.228 1.584.65-.355c2.252-.803 4.254-1.68 6.533-2.857l2.02-12.97c2.455-1.657 4.496-3.29 6.75-5.4l10.424 3.227c2.124-2.384 3.832-4.548 5.683-7.203l-4.634-10.697c1.582-2.806 2.764-5.312 3.908-8.287l11.852-4.54c.848-3.055 1.4-5.677 1.84-8.725l-9.92-4.426c.12-2.946.003-5.42-.385-8.18l9.094-10.555c-.725-2.584-1.51-4.683-2.613-6.988l-.38.106-3.834-1.916-.52 3.12-6.92 1.916c-1.336-2.04-2.662-3.612-4.384-5.203l3.482-12.52c-1.94-1.24-3.697-2.124-5.852-2.947l-9.5 9.22c-2.25-.52-4.266-.737-6.668-.723l-2.46-9.613.058-.148-.11-.055-.112-.442-.584.092-3.42-1.708-1.55 2.836c-.45.13-.912.27-1.385.422zm.496 28.546c11.59-2.312 20.25 6.61 18.997 20.1-1.265 13.628-12.088 26.146-23.818 27.77-11.382 1.575-19.23-7.777-17.83-20.718 1.387-12.82 11.397-24.907 22.65-27.152z" fill="#666d73"/></g><g><path d="M101.88 12.545c2.433-.773 4.518-1.267 6.94-1.64l2.623 10.256c2.402-.012 4.418.205 6.67.723l9.498-9.22c2.156.824 3.914 1.71 5.853 2.946l-3.483 12.52c1.722 1.592 3.048 3.164 4.384 5.204l11.654-3.226c1.103 2.305 1.888 4.404 2.612 6.986l-9.094 10.555c.388 2.76.505 5.234.384 8.18l9.92 4.427c-.438 3.048-.99 5.67-1.84 8.725l-11.85 4.54c-1.145 2.975-2.327 5.48-3.91 8.287l4.634 10.695c-1.85 2.656-3.56 4.82-5.683 7.204l-10.423-3.228c-2.254 2.11-4.295 3.743-6.75 5.4l-2.02 12.97c-2.537 1.31-4.733 2.25-7.31 3.128l-5.553-9.53c-2.53.556-4.684.798-7.13.804L84.64 119.98c-2.31-.373-4.218-.873-6.353-1.662l.582-12.252c-1.97-1.06-3.544-2.18-5.205-3.702l-9.802 5.37c-1.395-1.775-2.463-3.422-3.558-5.48l5.862-11.106c-.866-2.24-1.436-4.288-1.888-6.778l-9.096-1.066c-.166-2.565-.167-4.808-.002-7.468l9.016-6.978c.42-2.725.958-5.083 1.782-7.804l-5.822-6.876c1.05-2.637 2.073-4.857 3.404-7.392l9.524-1.124c1.567-2.456 3.052-4.474 4.912-6.68l-.845-10.79c1.995-2.007 3.78-3.613 5.937-5.342l7.292 5.128c2.306-1.49 4.346-2.587 6.75-3.63l4.748-11.803zm.497 28.547c11.59-2.312 20.25 6.61 18.997 20.1-1.265 13.628-12.088 26.146-23.818 27.77-11.382 1.575-19.23-7.776-17.83-20.72 1.387-12.817 11.397-24.905 22.65-27.15z" fill="#dbf1fe"/></g><g><path d="M101.382 50.445c6.657-1.244 11.54 3.95 10.798 11.66-.746 7.758-6.874 14.917-13.577 15.934-6.588.998-11.202-4.34-10.41-11.868.785-7.487 6.644-14.503 13.19-15.727zm-.4 3.972c4.716-.857 8.153 2.843 7.62 8.296-.533 5.475-4.853 10.54-9.592 11.283-4.682.735-7.983-3.038-7.426-8.4.554-5.338 4.738-10.33 9.398-11.18z" fill="#dbf1fe"/></g><path d="M.01 112.678L77.442 66.86l7.754 18.342L7.98 130.904.01 112.678z" fill="#063133"/><path opacity=".302" d="M.01 112.678L77.442 66.86l4.11 9.72-77.318 45.757-4.224-9.66z"/><path d="M68.802 78.54c5.42 12.787 20.06 18.546 32.72 12.898 9.69-4.322 15.444-14.082 15.22-24.17l-6.726 12.72-18.727.687-9.87-17.395 8.132-13.924s16.783-1.438 16.196-.796c-.185.204.89.285 2.45.297-6.984-6.088-17.097-7.926-26.204-3.86-12.728 5.686-18.626 20.72-13.192 33.544z" fill="#063133"/><path d="M15.826 86.468s.94-4.295 3.217-4.295c2.28 0 4.29 3.22 4.29 3.22s1.876-5.77 5.36-5.367c3.486.403 5.362 5.368 5.362 5.368s.536-6.71 5.362-6.442c4.825.27 6.433 5.37 6.433 5.37s-.67-7.383 4.29-7.517c4.96-.135 5.36 7.516 5.36 7.516l-1.07 15.034s6.566 3.49 7.505 5.37c.938 1.878-5.764 18.387-6.434 20.4-.67 2.014-2.948 8.322-7.505 11.81-4.557 3.492-22.518 3.223-22.518 3.223s-11.66-7.114-11.795-12.886c-.134-5.77 2.144-40.802 2.144-40.802z" stroke="#ffffff00" fill="#e9c094"/><path d="M54.614 134.014v11.008l-40.002-1v-10.008h40.002z" stroke="#ffffff00" stroke-width="2" fill="#f7f7f7"/><path d="M56.617 143.7l.05 48.462s-47.3.285-47.014 0c.287-.287 3.957-48.463 3.957-48.463h43.007z" stroke="#ffffff00" stroke-width="2" fill="#052729"/></svg>