<svg xmlns="http://www.w3.org/2000/svg" width="300" height="215" viewBox="0 0 300 215"><path fill="#313133" d="M18.836 47.14c0-6.53 1.393-7.922 7.926-7.922H213.82c6.53 0 7.926 1.393 7.926 7.92v106.663H18.836V47.14z"/><path fill="#45BFC4" d="M24.337 47.14h190.227v98.74H24.337V47.14z"/><path fill="#FFF" d="M92.815 166.475v13.73s-.085 2.972-8.983 6.863c-8.898 3.892-13.74 4.753-13.74 4.753v2.112H170.49v-2.11s-4.84-.862-13.735-4.754c-8.898-3.892-8.984-6.864-8.984-6.864v-13.73H92.814z"/><path fill="#DADADA" d="M70.093 192.348h100.395v2.112H70.093v-2.112zM92.815 166.475h54.954v13.73H92.814v-13.73z"/><path fill="#FFF" d="M18.836 153.273v8.89c0 5.814 3.78 9.59 9.598 9.59h183.714c5.816 0 9.598-3.776 9.598-9.59v-8.89H18.836z"/><path opacity=".502" fill="#13858A" d="M120.293 47.14h95.11v98.74h-95.11V47.14z"/><path fill="#F2C300" d="M35.326 58.803h37.112v39.603H35.326V58.803z"/><path fill="#225F62" d="M35.988 105.103h31.915v3.358H35.988zM35.988 110.98h12.6v3.358h-12.6zM35.988 121.057h31.915v1.68H35.988zM35.988 125.255h31.915v1.68H35.988zM35.988 129.453h16.798v1.68H35.988z"/><path fill="#EDEDED" d="M193.708 154.58c0 1.98.48 3.848 1.33 5.494-4.187 2.195-7.044 6.582-7.044 11.636 0 7.253 5.884 13.133 13.142 13.133 2.343 0 4.54-.61 6.446-1.685 2.29 3.102 5.973 5.11 10.125 5.11 4.404 0 8.28-2.26 10.525-5.687 2.084 4.057 6.31 6.83 11.188 6.83 4.637 0 8.69-2.508 10.868-6.24 1.847 1.064 3.988 1.672 6.273 1.672 6.943 0 12.572-5.624 12.572-12.562s-5.63-12.562-12.57-12.562c-4.638 0-8.69 2.507-10.87 6.24-1.845-1.064-3.987-1.673-6.272-1.673-4.404 0-8.28 2.262-10.525 5.688-2.084-4.056-6.31-6.83-11.188-6.83-1.617 0-3.163.308-4.583.863 2.79-2.195 4.583-5.603 4.583-9.428 0-6.622-5.373-11.99-12-11.99s-12 5.37-12 11.992z"/><path fill="#FFF" d="M270.057 164.287h.104c3.787 0 6.857-3.067 6.857-6.852s-3.07-6.852-6.856-6.852c-2.386 0-4.485 1.218-5.714 3.066v-.213c0-5.36-4.35-9.706-9.713-9.706-3.72 0-6.95 2.085-8.583 5.15-.305-9.202-8.112-16.57-17.702-16.57-7.717 0-14.28 4.773-16.708 11.432l-.435-.01c-5.364 0-9.713 4.345-9.713 9.705 0 1.28.246 2.506.697 3.626-5.073 1.82-8.698 6.667-8.698 12.36 0 7.255 5.884 13.135 13.143 13.135 2.197 0 4.27-.538 6.09-1.49 2.302 2.317 5.63 3.773 9.338 3.773 3.303 0 6.31-1.155 8.554-3.048 2.306 2.56 5.808 4.19 9.73 4.19l.6-.01.544.01c3.6 0 6.814-1.662 8.91-4.26 2.067 1.253 4.493 1.977 7.09 1.977 7.573 0 13.714-6.136 13.714-13.705 0-2.036-.45-3.97-1.247-5.708z"/><path fill="#EDEDED" d="M213.135 155.15l.006.293c.15-3.97 3.415-7.144 7.424-7.144 3.09 0 5.737 1.885 6.856 4.566.188.45.332.92.43 1.41.277-.477.61-.916.982-1.318 1.357-1.46 3.293-2.375 5.445-2.375 2.72 0 5.1 1.464 6.394 3.643.237.397.436.815.596 1.256.31-.23.643-.44.988-.622 1.03-.543 2.203-.85 3.45-.85 4.01 0 7.276 3.172 7.424 7.142l.005-.29c0-4.415-3.58-7.995-8-7.995-1.242 0-2.418.283-3.467.79-1.492-2.524-4.244-4.216-7.39-4.216-2.278 0-4.35.893-5.885 2.343-1.272-2.73-4.044-4.626-7.256-4.626-4.417 0-8 3.58-8 7.994z"/><g><path fill="#9EC0C2" d="M118.546 150.164c0-35.808 29.055-64.835 64.897-64.835 35.846 0 64.902 29.026 64.902 64.834 0 35.81-29.057 64.836-64.902 64.836-35.842 0-64.897-29.027-64.897-64.836z"/><path fill="#4D8343" d="M127.818 123.7c-.25.808-.02 1.014 0 1.324.062.934-3.753 16.1-3.974 19.848s2.428 7.277 2.65 9.262c.22 1.985 3.75 5.514 5.297 6.616s2.87 3.528 3.975 5.293c1.104 1.764 2.207-.883 2.648-1.323.443-.44-2.87-2.646-3.973-3.97s1.545-2.205 2.648-3.97c1.104-1.764-1.986 0-3.973 0-1.987 0-1.767-1.984-2.65-5.292-.883-3.31 2.43-2.646 5.3-2.646 2.87 0 1.765 2.867 2.647 2.646.884-.22 1.767-2.206 2.65-5.293.882-3.088 5.738-6.837 7.946-7.94 2.208-1.102 4.194-.66 6.623-2.645 2.43-1.984-2.87-.882-3.973-2.646-1.104-1.764 4.637-1.764 6.622-1.322 1.984.44 2.205-2.206 2.645-3.97.44-1.765-3.97-2.426-3.97-3.97s1.544-1.103 1.323-2.646-1.985.22-3.973 0-.662-1.984-1.325-2.646c-.662-.66-1.545 2.205-2.65 3.97-1.103 1.765-1.986 5.072-3.973 5.293-1.987.22-.442-2.206 0-2.646.44-.44-.442-.22 0-1.323.44-1.103-2.43-3.088-2.65-3.97-.22-.882 3.313-5.072 3.975-5.292.662-.22 4.857-1.765 5.298-1.324.44.44 2.65-2.646 2.65-2.646l-2.65-2.646 1.325-2.646-3.974 2.646v-2.646l1.326-3.97s-3.09-.66-2.65 0c.442.662-3.312 3.087-5.298 2.646-1.538-.342-.296-3.593.648-5.45-3.803 2.87-7.283 6.153-10.37 9.777.45 1.062.452 1.674.452 2.29 0 .88-1.324 1.322-1.324 1.322s-4.684 9.918-5.296 11.906z"/><path fill="#4D8343" d="M134.962 124.89c-.248.808-.02 1.015 0 1.324.063.934-3.752 16.1-3.973 19.848s2.427 7.277 2.647 9.263c.22 1.984 3.754 5.513 5.3 6.615 1.543 1.103 2.867 3.53 3.97 5.293 1.104 1.764 2.208-.883 2.65-1.323.44-.44-2.87-2.646-3.974-3.97-1.103-1.323 1.544-2.205 2.648-3.97 1.105-1.764-1.985 0-3.97 0-1.987 0-1.766-1.984-2.65-5.292-.883-3.31 2.43-2.646 5.297-2.646 2.87 0 1.766 2.867 2.65 2.646s1.765-2.206 2.647-5.293c.883-3.088 5.742-6.837 7.948-7.94 2.206-1.1 4.192-.66 6.62-2.645 2.427-1.984-2.87-.882-3.974-2.646-1.103-1.764 4.635-1.764 6.62-1.322 1.988.44 2.21-2.205 2.65-3.97s-3.974-2.426-3.974-3.97c0-1.543 1.545-1.103 1.324-2.646-.22-1.543-1.986.22-3.972 0s-.662-1.984-1.324-2.646c-.662-.66-1.546 2.206-2.648 3.97-1.103 1.765-1.985 5.072-3.97 5.293-1.99.22-.444-2.205 0-2.646.44-.44-.444-.22 0-1.323.44-1.103-2.43-3.087-2.65-3.97-.222-.882 3.312-5.07 3.973-5.292.662-.22 4.854-1.765 5.296-1.323.44.44 2.647-2.647 2.647-2.647l-2.647-2.646 1.324-2.646-3.973 2.647v-2.646l1.323-3.968s-3.088-.662-2.646 0c.44.662-3.31 3.087-5.297 2.646-1.54-.342-.298-3.592.648-5.45-3.804 2.87-7.284 6.153-10.368 9.777.447 1.063.45 1.674.45 2.29 0 .88-1.324 1.322-1.324 1.322s-4.682 9.915-5.296 11.904z"/><path fill="#4D8343" d="M159.604 103.854s-2.482 1.406-2.647 1.323c-.166-.083.91 1.736 1.324 2.646.414.91-.993 4.218-1.323 5.292-.332 1.076-.58 3.557 0 3.97.58.414.827 1.902 1.324 1.323.496-.578.993-3.64 1.324-3.97.33-.33 1.655-5.788 1.323-5.292l-1.323-5.292zM167.684 100.06c.006-.004-.03-.053-.135-.176-.458-.39.114.194.134.176zm12.894-3.873c.065.02.156-.035.217-.272-.372-.054-.335.233-.217.272zm-11.705 2.374c-1.158-.247-1.82.746-1.324 1.324.58.497.91 1.902 1.323 3.97s-.165 5.458 0 7.94c.166 2.48-1.324 5.29-2.648 6.614s.496 3.143 2.648 2.646 3.063-3.474 5.3-5.293c2.233-1.817 5.794-4.63 7.946-6.614 2.15-1.985 2.647-8.353 2.647-9.263 0-.91-.91-3.143-2.648-3.97s-1.16-.66-1.325 0c.58.084-1.076 1.572-2.65 1.324-1.572-.248-.827-2.232-2.648-2.646s-.828.828-1.324 2.647c-.497 1.82-.332.662-1.324 1.323-.995.662-1.41-1.736-1.326-2.646s1.076-2.315-1.324-2.646c-2.4-.33-.993.497-2.65 1.323-1.655.828-1.82 1.16-3.973 2.647-2.15 1.49-3.31 1.57-3.972 2.646s.166 1.075 0 1.323 2.234.496 2.648 0c.412-.496 2.648-2.398 2.648-2.646s2.815-1.405 2.65-1.323c-.167.083 2.648 0 2.648 0s-.166 1.572-1.325 1.324zM182.688 116.67c-.012.01.045.126.265.424.04-.08-.243-.44-.265-.423zm1.595-.908c-.826.197-1.336 1.33-1.33 1.332.643.87.77 1.563 1.33 1.314s.725.93 1.324 0c.6-.93 1.76-.6 1.325-1.323s-1.78-1.53-2.65-1.323zM215.232 94.59c.166.167-.828-.495-1.324 0-.496.498-.166 2.813 0 2.647.166-.165 2.98-.248 2.648 0-.33.25-1.49-2.81-1.324-2.646zM216.072 144.872c-.036-.02-.08-.016-.133 0 .16.057.237.052.132 0zm-2.648 1.323c1.18-.074 2.096-1.196 2.516-1.323-.345-.124-1.078-.53-1.19-1.323-.167-1.16 0-1.324 0-1.324s.08-1.406 1.323-1.323 1.16 1.57 2.65 2.646 2.482.743 3.973 1.322 1.986 1.9 1.324 2.646c-.576.646-1.402 1.293-1.39 1.343.08-.032.108-.04.065-.02s-.064.028-.066.02c-.543.217-3.477 1.448-3.908 1.304-.497-.165-1.325 0-1.325 0s-3.643-.082-3.973 0c-.332.083.33.744-1.324 1.324-1.656.578-1.325 0-1.325 0s-3.146-2.068-3.974-2.646c-.827-.58-2.648-2.316-3.973-1.323-1.325.99-4.884 3.803-6.623 3.97-1.738.164-5.96 4.795-6.622 5.29s-3.313 10.752-2.65 13.232c.663 2.48 6.707 4.88 9.272 5.293 2.566.414 7.533 1.406 9.272 3.97 1.738 2.563.993 18.44 1.324 19.848.33 1.405.58 5.54 2.648 3.97 2.07-1.57 5.38-5.54 6.623-6.616s8.28-11.743 9.272-14.555c.994-2.812 4.305-5.624 5.3-6.616.992-.992 4.222-4.962 2.647-6.615-1.573-1.653-3.146.745-3.974 0-.828-.744-1.904-3.308-2.65-3.97s-3.89-4.135-3.973-6.615c-.083-2.48-1.573-5.127 0-5.293 1.572-.165 1.904.496 2.648 1.323.747.827 1.988 8.436 2.65 9.263.487.607 2.046 2.067 2.577 2.566-.37-.58 1.854-1.463 2.72-2.566.912-1.158 2.153-5.955 2.65-7.94s-.083-2.976-1.324-2.645c-1.24.33-4.47.414-3.974-1.322.495-1.736 2.647-4.3 2.647-3.97s4.554 2.564 5.3 2.647c.744.083 3.394.248 3.973 1.324.58 1.075 1.325 13.73 1.325 13.232 0-.497 2.4-13.646 2.648-14.556.248-.91 2.318-1.736 2.648-1.322-.405-20.105-9.98-37.966-24.714-49.586-1.902-1.205-3.1-1.983-3.1-2.018 0-.165-2.235.745-2.65 1.323-.413.58-1.158 4.797-1.324 5.293-.165.496 2.65-1.323 3.975 0 1.324 1.323 2.566 1.654 2.648 2.646.083.992-.91 3.556-1.324 2.646-.413-.91-2.15-2.316-2.648-2.646-.497-.33-2.65 1.323-2.65 1.323-.826.248-1.654-.496-1.323 0s-1.243 3.226-1.325 3.97c-.083.744-1.324 2.646-1.324 2.646-1.075-.91-1.738-3.308-1.323-3.97.413-.66-2.98-1.818-5.3-1.322s-5.298 2.646-5.298 2.646v2.646s-.083.992-1.325 2.646-1.324 2.646-1.324 2.646-2.07-2.895-1.323 0c.744 2.895 3.973 5.376 5.298 5.293 1.324-.083 2.566-4.3 2.65-5.293.08-.992 1.075-5.623 1.323-5.292.248.33 1.324 2.066 1.324 2.646s2.484 1.985 2.65 2.646c.164.662.33 4.218 0 3.97s-1.077 1.82-1.326 2.646c-.248.827-3.23 2.315-3.973 2.646-.746.33-7.45.413-7.947 2.646-.497 2.232-2.318 3.473-2.65 5.292s1.656 3.31 1.325 3.97c-.33.662-3.725-.413-3.973 1.323-.248 1.737-2.152 2.067 0 3.97s3.726 4.55 5.3 1.323c1.57-3.226 1.323-6.12 3.972-6.616 2.648-.496 2.565-1.075 3.974 0 1.406 1.075 2.648 3.557 3.973 3.97 1.325.413.414-1.654 0-2.646s-1.738-3.556-1.324-3.97c.414-.413 1.904 1.158 2.65 1.323s1.327 6.697 2.65 6.615zM192.715 125.024c-.29.248-3.27 1.447-2.648 1.323s.828.992 1.324 1.323 3.064.454 2.65 0c-.414-.454-1.035-2.894-1.325-2.646zM142.387 160.75s.616-2.083 0-2.646c-.617-.563-2.648-1.323-2.648-1.323v1.324l1.324 1.323 1.323 1.323zM146.36 168.69c-.51-.39-4.13.648-3.973 1.32.156.675.026 2.588 0 3.97-.027 1.385-3.16 2.887-2.648 3.97.51 1.085 1.48 5.818 2.647 6.617 1.166.798 8.466 8.353 9.27 10.585s1.83 6.03 2.65 7.94c.818 1.907 5.72 5.542 6.62 6.614.35.417 1.142 1.214 2.012 1.992.843.28 1.696.547 2.556.793-1.505-1.51-4.69-3.846-4.57-4.106.167-.357-1.54-2.995 0-3.97 1.545-.976 3.19-3.464 3.975-5.293.784-1.828-1.717-3.632 1.325-3.97 3.04-.336 3.527-7.36 3.974-9.26.445-1.902-7.784-4.648-9.272-5.294-1.485-.646-8.052-6.24-9.27-7.94-1.217-1.695-4.788-3.578-5.298-3.967zM154.308 97.237c.41-.012-1.097-1.115-1.325 0-.23 1.116-.565 2.675 0 2.646.567-.027 3.145.82 2.65 0-.496-.82-1.736-2.633-1.325-2.646zM221.855 193.83c.02 0 .05-.007.08-.027-.306 0-.343.01-.08.026zm3.974-5.293c-.417-.32-3.232 4.835-3.895 5.266.244 0 .664.008 1.244.026 1.305.043 4.067-4.05 3.974-3.97-.096.08 1.834-4.39 1.324-3.97-.51.42-2.214 2.983-2.65 2.647zM145.035 163.396c-.05-.07 1.02-.063 1.285-.026-.01-.16.402-.908.04-1.297-.42-.45-1.24-.128-1.325 0-.085.128.06 1.408 0 1.323z"/></g><path fill="#FFF" d="M193.315 157.573c1.165 0 2.11.95 2.11 2.116s-.945 2.115-2.11 2.115-2.112-.95-2.112-2.116.947-2.117 2.112-2.117zm0-2.46c-2.522 0-4.565 2.05-4.565 4.576s2.043 4.574 4.565 4.574c2.52 0 4.565-2.048 4.565-4.575s-2.044-4.576-4.565-4.576zM158.312 179.826c1.164 0 2.11.95 2.11 2.116s-.946 2.116-2.11 2.116-2.11-.95-2.11-2.116.945-2.116 2.11-2.116zm0-2.46c-2.52 0-4.563 2.05-4.563 4.576 0 2.527 2.042 4.575 4.562 4.575 2.52 0 4.562-2.048 4.562-4.575 0-2.526-2.043-4.575-4.562-4.575zM141.516 138.504c1.165 0 2.11.95 2.11 2.116s-.946 2.117-2.11 2.117c-1.163 0-2.11-.95-2.11-2.117s.947-2.116 2.11-2.116zm0-2.46c-2.52 0-4.564 2.05-4.564 4.576 0 2.527 2.044 4.575 4.564 4.575s4.564-2.048 4.564-4.575c0-2.526-2.043-4.575-4.564-4.575z"/><path fill="#FFF" d="M137.44 139.012l1.664-1.808-22.35-31.68h-35.05v2.46h34.092l21.644 31.028zM236.19 62.525H81.706v2.46h154.528l-.042-2.46z"/><path fill="#FFF" d="M108.78 119.995l-27.44.003v2.46l26.468-.004 29.125 59.14h17.548v-2.46h-16.574l-29.125-59.14zM136.046 75.324l-54.706.003v2.46l53.734-.004 37.457 82.397h17.55v-2.46h-16.575l-37.46-82.396zM223.563 123.003c1.165 0 2.11.95 2.11 2.116s-.945 2.116-2.11 2.116c-1.164 0-2.11-.95-2.11-2.117s.945-2.117 2.11-2.117zm0-2.46c-2.52 0-4.565 2.05-4.565 4.576s2.044 4.575 4.565 4.575 4.564-2.05 4.564-4.576-2.043-4.576-4.564-4.576zM239.563 62.003c1.165 0 2.11.95 2.11 2.116s-.945 2.116-2.11 2.116c-1.164 0-2.11-.95-2.11-2.117s.945-2.117 2.11-2.117zm0-2.46c-2.52 0-4.565 2.05-4.565 4.576s2.044 4.575 4.565 4.575 4.564-2.048 4.564-4.576c0-2.528-2.043-4.576-4.564-4.576z"/><path fill="#FFF" d="M165.813 90.79l-84.473.002v2.46l83.5-.004 21.482 32.02h34.346v-2.46h-33.373L165.813 90.79z"/><g><path fill="#EDEDED" d="M189.31 181.683c0 1.632.392 3.173 1.087 4.53-3.425 1.81-5.762 5.428-5.762 9.595 0 5.98 4.813 10.83 10.748 10.83 1.917 0 3.715-.505 5.272-1.39 1.872 2.557 4.886 4.213 8.28 4.213 3.604 0 6.773-1.863 8.61-4.688 1.704 3.345 5.16 5.632 9.15 5.632 3.792 0 7.106-2.067 8.89-5.146 1.51.878 3.262 1.38 5.13 1.38 5.68 0 10.282-4.638 10.282-10.358s-4.603-10.358-10.28-10.358c-3.794 0-7.108 2.067-8.89 5.146-1.51-.88-3.263-1.38-5.132-1.38-3.603 0-6.772 1.864-8.608 4.69-1.705-3.346-5.162-5.632-9.15-5.632-1.322 0-2.588.252-3.75.71 2.283-1.81 3.75-4.62 3.75-7.772 0-5.46-4.395-9.888-9.815-9.888s-9.813 4.426-9.813 9.887z"/><path fill="#FFF" d="M250.914 189.687h.084c3.098 0 5.61-2.53 5.61-5.65 0-3.12-2.513-5.65-5.61-5.65-1.95 0-3.668 1.005-4.674 2.53v-.176c0-4.42-3.557-8.003-7.944-8.003-3.04 0-5.685 1.72-7.02 4.247-.25-7.588-6.635-13.663-14.48-13.663-6.31 0-11.678 3.937-13.664 9.427l-.355-.01c-4.388 0-7.944 3.584-7.944 8.004 0 1.058.2 2.067.57 2.99-4.148 1.502-7.113 5.5-7.113 10.194 0 5.98 4.813 10.83 10.75 10.83 1.797 0 3.492-.444 4.98-1.23 1.883 1.91 4.605 3.112 7.637 3.112 2.702 0 5.162-.954 6.997-2.515 1.886 2.11 4.75 3.457 7.96 3.457l.49-.01.443.01c2.943 0 5.572-1.37 7.286-3.513 1.692 1.033 3.677 1.63 5.8 1.63 6.195 0 11.217-5.06 11.217-11.3 0-1.68-.365-3.275-1.02-4.707z"/><path fill="#EDEDED" d="M205.197 182.153l.006.24c.12-3.273 2.79-5.89 6.07-5.89 2.527 0 4.693 1.555 5.608 3.766.154.37.272.76.352 1.162.227-.394.498-.757.804-1.087 1.11-1.205 2.694-1.96 4.454-1.96 2.225 0 4.17 1.208 5.23 3.005.19.327.354.673.484 1.035.255-.19.526-.362.81-.513.843-.448 1.802-.702 2.822-.702 3.278 0 5.95 2.617 6.07 5.89l.005-.24c0-3.64-2.928-6.59-6.542-6.59-1.016 0-1.98.232-2.836.65-1.22-2.08-3.47-3.476-6.043-3.476-1.865 0-3.56.734-4.815 1.93-1.04-2.25-3.308-3.813-5.936-3.813-3.613.002-6.543 2.953-6.543 6.593z"/></g></svg>