<?xml version="1.0" standalone="no"?><!-- Generator: Adobe Fireworks CS6, Export SVG Extension by Aaron Beall (http://fireworks.abeall.com) . Version: 0.6.1  --><!DOCTYPE svg PUBLIC "-//W3C//DTD SVG 1.1//EN" "http://www.w3.org/Graphics/SVG/1.1/DTD/svg11.dtd"><svg id="Untitled-Page%201" viewBox="0 0 334 258" style="background-color:#ffffff00" version="1.1"	xmlns="http://www.w3.org/2000/svg" xmlns:xlink="http://www.w3.org/1999/xlink" xml:space="preserve"	x="0px" y="0px" width="334px" height="258px">	<g id="Layer%201">		<g>			<g>				<path d="M 280.1097 104.1929 L 293.0961 85.4956 L 287.4387 81.687 L 275.3033 101.249 L 280.1097 104.1929 L 280.1097 104.1929 ZM 271.0419 113.0317 C 273.0302 114.1875 275.3102 113.3613 276.6606 111.2627 C 278.0831 109.0532 277.6396 106.8008 275.7949 105.6875 C 274.0654 104.6436 271.5834 105.1587 270.1016 107.3774 C 268.6947 109.4844 269.1258 111.918 271.0419 113.0317 L 271.0419 113.0317 Z" fill="#999999"/>			</g>			<g>				<path d="M 2.667 175.5376 L 0.167 175.5376 L 0.167 174.5376 L 2.667 174.5376 L 2.667 175.5376 Z" fill="#bababa"/>				<path d="M 237.7163 175.5376 L 233.7534 175.5376 L 233.7534 174.5376 L 237.7163 174.5376 L 237.7163 175.5376 ZM 230.8032 175.5376 L 226.8403 175.5376 L 226.8403 174.5376 L 230.8032 174.5376 L 230.8032 175.5376 ZM 223.8896 175.5376 L 219.9268 175.5376 L 219.9268 174.5376 L 223.8896 174.5376 L 223.8896 175.5376 ZM 216.9766 175.5376 L 213.0137 175.5376 L 213.0137 174.5376 L 216.9766 174.5376 L 216.9766 175.5376 ZM 210.0635 175.5376 L 206.1006 175.5376 L 206.1006 174.5376 L 210.0635 174.5376 L 210.0635 175.5376 ZM 203.1504 175.5376 L 199.1875 175.5376 L 199.1875 174.5376 L 203.1504 174.5376 L 203.1504 175.5376 ZM 196.2368 175.5376 L 192.2739 175.5376 L 192.2739 174.5376 L 196.2368 174.5376 L 196.2368 175.5376 ZM 189.3237 175.5376 L 185.3608 175.5376 L 185.3608 174.5376 L 189.3237 174.5376 L 189.3237 175.5376 ZM 182.4106 175.5376 L 178.4478 175.5376 L 178.4478 174.5376 L 182.4106 174.5376 L 182.4106 175.5376 ZM 175.4971 175.5376 L 171.5347 175.5376 L 171.5347 174.5376 L 175.4971 174.5376 L 175.4971 175.5376 ZM 168.584 175.5376 L 164.6211 175.5376 L 164.6211 174.5376 L 168.584 174.5376 L 168.584 175.5376 ZM 161.6709 175.5376 L 157.708 175.5376 L 157.708 174.5376 L 161.6709 174.5376 L 161.6709 175.5376 ZM 154.7578 175.5376 L 150.7949 175.5376 L 150.7949 174.5376 L 154.7578 174.5376 L 154.7578 175.5376 ZM 147.8442 175.5376 L 143.8818 175.5376 L 143.8818 174.5376 L 147.8442 174.5376 L 147.8442 175.5376 ZM 140.9312 175.5376 L 136.9683 175.5376 L 136.9683 174.5376 L 140.9312 174.5376 L 140.9312 175.5376 ZM 134.0181 175.5376 L 130.0552 175.5376 L 130.0552 174.5376 L 134.0181 174.5376 L 134.0181 175.5376 ZM 127.105 175.5376 L 123.1421 175.5376 L 123.1421 174.5376 L 127.105 174.5376 L 127.105 175.5376 ZM 120.1914 175.5376 L 116.2285 175.5376 L 116.2285 174.5376 L 120.1914 174.5376 L 120.1914 175.5376 ZM 113.2783 175.5376 L 109.3154 175.5376 L 109.3154 174.5376 L 113.2783 174.5376 L 113.2783 175.5376 ZM 106.3652 175.5376 L 102.4023 175.5376 L 102.4023 174.5376 L 106.3652 174.5376 L 106.3652 175.5376 ZM 99.4521 175.5376 L 95.4893 175.5376 L 95.4893 174.5376 L 99.4521 174.5376 L 99.4521 175.5376 ZM 92.5386 175.5376 L 88.5757 175.5376 L 88.5757 174.5376 L 92.5386 174.5376 L 92.5386 175.5376 ZM 57.9727 175.5376 L 54.0098 175.5376 L 54.0098 174.5376 L 57.9727 174.5376 L 57.9727 175.5376 ZM 51.0596 175.5376 L 47.0967 175.5376 L 47.0967 174.5376 L 51.0596 174.5376 L 51.0596 175.5376 ZM 44.146 175.5376 L 40.1831 175.5376 L 40.1831 174.5376 L 44.146 174.5376 L 44.146 175.5376 ZM 37.2329 175.5376 L 33.27 175.5376 L 33.27 174.5376 L 37.2329 174.5376 L 37.2329 175.5376 ZM 30.3198 175.5376 L 26.3569 175.5376 L 26.3569 174.5376 L 30.3198 174.5376 L 30.3198 175.5376 ZM 23.4063 175.5376 L 19.4438 175.5376 L 19.4438 174.5376 L 23.4063 174.5376 L 23.4063 175.5376 ZM 16.4932 175.5376 L 12.5303 175.5376 L 12.5303 174.5376 L 16.4932 174.5376 L 16.4932 175.5376 ZM 9.5801 175.5376 L 5.6172 175.5376 L 5.6172 174.5376 L 9.5801 174.5376 L 9.5801 175.5376 Z" fill="#bababa"/>				<path d="M 243.167 175.5376 L 240.667 175.5376 L 240.667 174.5376 L 243.167 174.5376 L 243.167 175.5376 Z" fill="#bababa"/>			</g>			<path id="Ellipse" d="M 105 52.3931 C 105 23.457 130.0312 0 160.9097 0 C 191.7882 0 216.8194 23.457 216.8194 52.3931 C 216.8194 81.3296 191.7882 104.7866 160.9097 104.7866 C 130.0312 104.7866 105 81.3296 105 52.3931 Z" fill="#000000"/>			<g>				<path d="M 138.8468 30.374 C 138.9613 30.4883 139.0431 30.6885 139.0901 30.9673 C 139.1629 31.3193 139.2253 31.5508 139.2755 31.6528 C 139.3649 31.8867 139.4641 32.0483 139.5728 32.1372 C 139.7099 32.2725 139.8842 32.3027 140.0979 32.2358 C 140.3469 32.1704 140.5096 32.0361 140.603 31.8306 C 140.6795 31.6289 140.6666 31.4209 140.5643 31.2075 C 140.4697 31.0273 140.1479 30.1714 139.6008 28.6475 C 139.537 28.4873 139.4225 28.373 139.2693 28.3203 C 139.1182 28.2759 138.9534 28.2876 138.7855 28.3613 C 138.6491 28.4189 138.5558 28.5107 138.4953 28.6299 C 138.4348 28.7495 138.4304 28.8818 138.4651 29.0317 C 138.4806 29.0986 138.6016 29.5444 138.8468 30.374 L 138.8468 30.374 ZM 143.0512 30.1533 C 142.806 29.3237 142.6747 28.8711 142.6489 28.7983 C 142.5768 28.6392 142.4558 28.5352 142.2943 28.4849 C 142.1469 28.457 141.9906 28.4668 141.8149 28.5073 C 141.6766 28.5566 141.5833 28.6479 141.5228 28.7676 C 141.4623 28.8867 141.4476 29.0132 141.4804 29.1543 C 141.5441 29.4292 141.6774 29.8901 141.8885 30.5347 C 141.9097 30.6265 141.9464 30.7847 141.9883 31.0029 C 142.0134 31.2256 142.0436 31.394 142.0836 31.4902 C 142.137 31.6445 142.2226 31.7476 142.3255 31.8115 C 142.4491 31.8887 142.626 31.8916 142.848 31.8232 C 143.0488 31.7769 143.1942 31.6821 143.2675 31.5425 C 143.3235 31.4419 143.3344 31.2988 143.3125 31.1284 C 143.2894 31.0288 143.2507 30.8618 143.1799 30.6328 C 143.1046 30.4219 143.0596 30.2656 143.0512 30.1533 L 143.0512 30.1533 Z" fill="#ffffff"/>				<path d="M 157.0693 25.8604 C 157.187 25.7979 157.4334 25.7588 157.8086 25.7427 C 158.2127 25.7378 158.5215 25.7017 158.7313 25.6187 C 159.0498 25.5103 159.2698 25.3188 159.3792 25.0308 C 159.4879 24.7773 159.4847 24.4976 159.3734 24.207 C 159.2305 23.8193 158.8425 23.7412 158.2093 23.9746 C 157.8213 24.1255 156.1992 24.6914 153.3262 25.6763 C 151.3541 26.3667 149.7519 26.981 148.503 27.5225 C 147.5121 27.9609 146.6981 28.1743 146.0798 28.1675 C 145.3218 28.166 144.8829 28.249 144.7549 28.4189 C 144.6249 28.5811 144.6739 28.9819 144.8934 29.6245 C 145.4547 31.2856 145.8157 32.3867 145.9683 32.9312 C 146.3036 34.1875 146.4537 35.3286 146.4139 36.373 C 146.4062 36.7959 146.5774 37.1167 146.9564 37.3452 C 147.1913 37.4839 147.405 37.874 147.5936 38.4971 C 147.6483 38.6953 147.7603 39.064 147.9418 39.6191 C 148.0853 40.0864 148.1973 40.4551 148.2713 40.7363 C 148.514 41.5933 149.0526 41.8643 149.8994 41.5645 C 150.243 41.4502 150.6605 41.2754 151.156 41.0562 C 153.9099 39.8613 155.9284 39.1431 157.2134 38.9092 C 158.0112 38.7778 158.3214 38.3296 158.1437 37.563 C 158.0742 37.2632 157.894 37.0942 157.6237 37.0688 C 157.4635 37.0615 157.2106 37.1108 156.8568 37.2188 C 156.1026 37.4624 155.6142 37.6357 155.3916 37.7397 C 154.8955 37.9941 154.1697 38.2842 153.2123 38.6006 C 152.1879 38.9326 151.4583 39.2056 151.0214 39.4111 C 150.3406 39.7432 149.8702 39.8423 149.6141 39.7261 C 149.3787 39.6221 149.1238 39.207 148.8535 38.4971 C 148.8477 38.4722 148.8181 38.3823 148.7711 38.2178 C 148.7357 38.103 148.6977 38.0151 148.6636 37.9443 C 148.4763 37.5923 148.4274 37.3052 148.5251 37.0811 C 148.6165 36.8672 148.8616 36.6704 149.2689 36.4888 C 151.577 35.4229 153.4339 34.6538 154.8463 34.1714 C 155.4035 33.9907 155.8056 33.749 156.0482 33.4648 C 156.2907 33.1812 156.3165 32.9121 156.1292 32.6743 C 155.8602 32.3501 155.5455 32.2466 155.1852 32.3647 C 155.0719 32.4087 154.9143 32.4883 154.7251 32.585 C 154.4935 32.7256 154.3359 32.8057 154.2542 32.833 C 152.0458 33.7969 150.4341 34.4834 149.4103 34.8945 C 148.6846 35.1841 148.2103 35.2671 147.9915 35.1592 C 147.7831 35.0581 147.5803 34.6396 147.3814 33.8955 C 147.3074 33.6143 147.1992 33.1479 147.0531 32.4795 C 146.9121 31.8716 146.8021 31.397 146.7081 31.0674 C 146.5665 30.6084 146.5774 30.2378 146.7408 29.9546 C 146.8913 29.6914 147.2014 29.4712 147.6647 29.3032 L 152.2531 27.5464 C 154.132 26.834 155.7374 26.2715 157.0693 25.8604 L 157.0693 25.8604 Z" fill="#ffffff"/>				<path d="M 170.0093 25.8857 C 170.2335 27.9927 170.3462 29.125 170.3539 29.2725 C 170.4615 31.0288 170.0074 32.8706 169.0018 34.8037 C 168.3026 36.1577 167.4094 36.2578 166.3186 35.0869 C 166.0838 34.834 165.9152 34.6006 165.8064 34.3975 C 164.2663 31.479 163.3575 28.6611 163.0715 25.9453 C 163.067 25.8501 163.0702 25.6738 163.0811 25.417 C 163.0959 25.1768 163.0971 24.9917 163.0785 24.8735 C 163.0314 24.4805 162.7786 24.3022 162.3198 24.3369 C 161.8945 24.3647 161.6551 24.5864 161.5998 24.9941 C 161.5728 25.1055 161.5954 25.4688 161.6508 26.0879 C 161.9503 29.3179 163.123 32.6279 165.1772 36.0166 C 165.7938 37.042 166.6033 37.5313 167.6122 37.4746 C 168.6045 37.4219 169.4158 36.8931 170.0553 35.8511 C 170.9393 34.4194 171.5009 32.3955 171.7529 29.7578 C 171.8319 28.959 171.7211 27.835 171.4269 26.376 C 171.1212 24.8672 170.9833 23.7402 171.0154 23.0049 C 171.0173 22.8994 170.8583 22.5933 170.5321 22.0981 C 170.0816 21.4473 169.608 21.2666 169.0927 21.5518 C 168.8423 21.688 168.722 21.8911 168.7336 22.1694 C 168.7304 22.3457 168.7947 22.585 168.9268 22.8887 C 169.6064 24.5659 169.9694 25.5615 170.0093 25.8857 L 170.0093 25.8857 Z" fill="#ffffff"/>				<path d="M 123.7256 51.7231 C 123.1458 51.769 122.5403 51.9692 121.913 52.3418 C 121.7341 52.4438 121.6607 52.5835 121.691 52.7524 C 121.7142 52.8521 121.7586 52.9297 121.8371 52.9648 C 121.9072 53.001 121.9883 53.0088 122.0764 52.9712 C 122.2862 52.8877 122.4548 52.8926 122.5674 52.998 C 122.6247 53.0552 122.6949 53.2061 122.7823 53.4316 L 123.2419 54.6157 C 123.4305 55.125 123.5837 55.52 123.6848 55.8037 C 124.1192 56.9937 124.4796 58.0161 124.7661 58.8716 C 124.8195 59.0259 124.878 59.1265 124.9437 59.1816 C 125.0215 59.2515 125.1316 59.2705 125.2654 59.2393 C 125.3658 59.2163 125.4398 59.1553 125.4874 59.0566 C 125.4964 59.0195 125.517 58.918 125.5492 58.7529 C 125.5775 58.5713 125.4713 58.2271 125.2267 57.7041 C 124.9313 57.1138 124.6204 56.3433 124.2941 55.3916 C 123.7708 53.9326 123.4915 53.146 123.4599 53.0474 C 123.3724 52.8218 123.3505 52.6519 123.4109 52.5327 C 123.4631 52.415 123.6188 52.3267 123.8697 52.269 C 125.0536 51.9795 126.2956 52.0532 127.5806 52.5039 C 128.255 52.7524 128.6456 53.2593 128.7628 54.0308 C 128.8349 54.5317 128.7841 55.0347 128.6104 55.5396 C 128.2875 56.4653 127.9659 57.2056 127.6371 57.7642 C 127.1964 58.5234 126.6688 59.1362 126.046 59.604 C 125.7462 59.8311 125.696 60.0703 125.9084 60.3022 C 126.149 60.5806 126.4077 60.5562 126.6927 60.2271 C 126.999 59.876 127.2808 59.4956 127.5465 59.0835 C 128.6196 57.4419 129.225 55.9863 129.3542 54.7197 C 129.4828 53.374 128.937 52.4644 127.7234 51.98 C 126.2884 51.4146 124.9552 51.3262 123.7256 51.7231 L 123.7256 51.7231 Z" fill="#ffffff"/>				<path d="M 137.285 49.5181 C 137.3481 49.4863 137.5006 49.46 137.7277 49.4517 C 137.9735 49.4478 138.153 49.4243 138.2831 49.377 C 138.4716 49.3159 138.6028 49.1978 138.6684 49.0249 C 138.7296 48.8701 138.7263 48.7046 138.6671 48.5249 C 138.5796 48.2993 138.3473 48.2476 137.9657 48.3877 C 137.7308 48.4771 136.7541 48.8242 135.04 49.4116 C 133.8496 49.8257 132.887 50.1963 132.1419 50.5166 C 131.5416 50.7773 131.0603 50.9053 130.6897 50.9033 C 130.2315 50.9033 129.9702 50.9541 129.8957 51.0503 C 129.8146 51.1567 129.8436 51.3955 129.9761 51.7778 C 130.3141 52.7788 130.5291 53.4404 130.6211 53.7617 C 130.8219 54.5137 130.9114 55.2041 130.8877 55.8237 C 130.8851 56.0786 130.992 56.2734 131.2166 56.4058 C 131.3607 56.4956 131.4836 56.7217 131.5975 57.0991 C 131.6246 57.2158 131.6954 57.4453 131.8061 57.771 C 131.8885 58.0503 131.9593 58.2793 132.0063 58.4443 C 132.1447 58.9653 132.4728 59.1265 132.976 58.9404 C 133.1897 58.874 133.4393 58.7729 133.7334 58.6353 C 135.3831 57.9224 136.5966 57.4941 137.3656 57.3525 C 137.8398 57.2695 138.0322 56.9976 137.926 56.5391 C 137.8835 56.356 137.7728 56.2588 137.6106 56.2432 C 137.5212 56.2373 137.3687 56.2637 137.1551 56.3306 C 136.6963 56.48 136.4029 56.5825 136.2768 56.6465 C 135.9782 56.8027 135.542 56.9736 134.9699 57.166 C 134.3542 57.3604 133.916 57.5225 133.6554 57.6528 C 133.2436 57.8525 132.9656 57.9077 132.8086 57.8384 C 132.6703 57.7739 132.5165 57.5283 132.3556 57.1006 C 132.3517 57.0835 132.3317 57.0356 132.3002 56.9375 C 132.2848 56.8711 132.2629 56.8149 132.2345 56.7686 C 132.1238 56.5571 132.102 56.3867 132.1586 56.251 C 132.2087 56.1255 132.3567 56.0034 132.6044 55.8936 C 133.9904 55.2593 135.0984 54.7939 135.9471 54.5024 C 136.2823 54.3901 136.5243 54.2559 136.669 54.082 C 136.8138 53.9082 136.8312 53.7554 136.7173 53.606 C 136.5583 53.4146 136.3678 53.3525 136.1542 53.4194 C 136.0828 53.4536 135.9863 53.4932 135.8769 53.5532 C 135.7379 53.6382 135.6433 53.686 135.5951 53.7061 C 134.2664 54.2832 133.2948 54.6914 132.6822 54.937 C 132.2459 55.1074 131.9596 55.1646 131.838 55.0962 C 131.71 55.0376 131.5896 54.7847 131.4686 54.3389 C 131.4216 54.1738 131.356 53.8906 131.2716 53.4888 C 131.1866 53.1226 131.121 52.8394 131.0663 52.6411 C 130.9839 52.3618 130.9858 52.1421 131.0887 51.978 C 131.1749 51.8179 131.3647 51.6865 131.6414 51.5879 L 134.3928 50.5342 C 135.5168 50.1001 136.4788 49.7651 137.285 49.5181 L 137.285 49.5181 Z" fill="#ffffff"/>				<path d="M 140.088 49.4092 C 140.2353 49.5508 140.3113 49.6118 140.3196 49.6104 C 140.8524 49.5142 141.2752 49.6274 141.5815 49.9609 C 141.7694 50.1631 141.9644 50.5483 142.1832 51.1123 L 142.6988 52.5376 C 142.7728 52.8188 143.1391 53.981 143.7994 56.0313 C 143.8741 56.2773 143.997 56.3892 144.1534 56.3799 C 144.3786 56.3633 144.5246 56.2329 144.5671 55.96 C 144.5947 55.8135 144.5632 55.6016 144.4641 55.3257 C 144.1744 54.5327 143.9698 53.9917 143.8584 53.7017 C 143.6949 53.3003 143.6479 53.0215 143.7007 52.8691 C 143.7534 52.7168 143.969 52.5439 144.3473 52.3516 C 144.3936 52.3237 144.5217 52.2676 144.7482 52.1807 C 145.7989 51.7725 146.4861 51.5444 146.8098 51.4961 C 147.006 51.4688 147.1495 51.3652 147.2319 51.1885 C 147.3181 51.0283 147.3148 50.8623 147.2286 50.6807 C 147.1462 50.5151 147.031 50.436 146.8933 50.4507 C 146.8682 50.4561 146.7402 50.5122 146.5092 50.6177 C 146.1984 50.7593 145.7512 50.959 145.1657 51.2075 C 144.557 51.4702 144.1098 51.6694 143.8203 51.7886 C 143.6459 51.8726 143.5101 51.895 143.4149 51.8643 C 143.3029 51.8374 143.207 51.7275 143.1394 51.5503 C 142.8788 50.8818 142.6349 50.3237 142.4077 49.876 C 142.3034 49.6543 142.2815 49.4839 142.3401 49.356 C 142.3941 49.2476 142.5292 49.1465 142.7538 49.0508 C 144.17 48.4707 144.8771 48.1763 144.8688 48.1782 C 145.1409 48.0981 145.7322 47.8745 146.6389 47.4907 C 147.3647 47.2007 147.9617 47.0024 148.4508 46.9072 C 148.6638 46.876 148.824 46.7686 148.9315 46.5859 C 149.0324 46.4141 149.0395 46.2544 148.9545 46.1162 C 148.8593 45.9712 148.7313 45.9126 148.5768 45.9307 C 148.5266 45.9424 148.4617 45.9663 148.3799 45.9937 C 148.275 46.0352 148.2101 46.0586 148.1766 46.0669 C 148.1033 46.0923 147.9649 46.1416 147.7719 46.2212 L 142.7524 48.3228 C 142.4713 48.4399 142.2679 48.5127 142.1489 48.5317 C 141.9275 48.5649 141.712 48.5093 141.5228 48.3774 C 141.4198 48.313 141.3078 48.2861 141.1824 48.3154 C 141.0466 48.3379 140.9726 48.3984 140.9604 48.498 C 140.9257 48.6899 140.7873 48.8535 140.5538 48.9863 C 140.2887 49.1348 140.1362 49.2754 140.088 49.4092 L 140.088 49.4092 Z" fill="#ffffff"/>				<path d="M 157.6283 44.8413 C 157.6914 44.8091 157.8439 44.7832 158.071 44.7744 C 158.3168 44.7705 158.4963 44.7471 158.6263 44.6997 C 158.8149 44.6387 158.9461 44.521 159.0117 44.3481 C 159.0729 44.1934 159.0696 44.0273 159.0104 43.8477 C 158.9229 43.6226 158.6906 43.5703 158.309 43.7109 C 158.0742 43.8003 157.0974 44.1475 155.3833 44.7344 C 154.1929 45.1489 153.2303 45.519 152.4852 45.8398 C 151.8849 46.1001 151.4036 46.2285 151.033 46.2261 C 150.5748 46.2261 150.3135 46.2773 150.239 46.3735 C 150.1579 46.4795 150.1869 46.7188 150.3195 47.1006 C 150.6573 48.1021 150.8724 48.7637 150.9644 49.0845 C 151.1652 49.8369 151.2548 50.5269 151.231 51.1465 C 151.2284 51.4019 151.3353 51.5962 151.5599 51.729 C 151.704 51.8188 151.8269 52.0449 151.9409 52.4224 C 151.9679 52.5391 152.0387 52.7681 152.1494 53.0938 C 152.2318 53.373 152.3026 53.6025 152.3495 53.7671 C 152.4879 54.2881 152.8162 54.4497 153.3193 54.2642 C 153.533 54.1973 153.7826 54.0957 154.0767 53.958 C 155.7264 53.2456 156.9399 52.8169 157.7089 52.6758 C 158.1831 52.5928 158.3755 52.3203 158.2692 51.8623 C 158.2267 51.6792 158.1161 51.5815 157.9539 51.5664 C 157.8645 51.5605 157.712 51.5869 157.4984 51.6533 C 157.0396 51.8027 156.7462 51.9053 156.6201 51.9692 C 156.3215 52.126 155.8853 52.2964 155.3132 52.4893 C 154.6975 52.6836 154.2593 52.8457 153.9987 52.9761 C 153.5869 53.1758 153.309 53.231 153.1519 53.1616 C 153.0135 53.0967 152.8597 52.8516 152.6989 52.4233 C 152.695 52.4067 152.675 52.3589 152.6435 52.2607 C 152.6281 52.1943 152.6061 52.1377 152.5778 52.0913 C 152.4672 51.8799 152.4453 51.71 152.5019 51.5737 C 152.552 51.4482 152.7 51.3267 152.9478 51.2168 C 154.3337 50.5825 155.4417 50.1172 156.2904 49.8252 C 156.6256 49.7134 156.8676 49.5786 157.0123 49.4053 C 157.157 49.2314 157.1744 49.0781 157.0605 48.9287 C 156.9016 48.7373 156.7111 48.6758 156.4975 48.7427 C 156.4261 48.7764 156.3296 48.8159 156.2202 48.8765 C 156.0812 48.9609 155.9866 49.0093 155.9384 49.0288 C 154.6096 49.6064 153.6381 50.0142 153.0255 50.2603 C 152.5892 50.4307 152.3029 50.4878 152.1813 50.4189 C 152.0532 50.3608 151.9329 50.1074 151.8119 49.6616 C 151.7649 49.4971 151.6992 49.2139 151.6149 48.812 C 151.5299 48.4458 151.4642 48.1626 151.4095 47.9644 C 151.3271 47.6851 151.329 47.4653 151.432 47.3013 C 151.5182 47.1411 151.708 47.0098 151.9847 46.9111 L 154.736 45.8569 C 155.8602 45.4233 156.8221 45.0884 157.6283 44.8413 L 157.6283 44.8413 Z" fill="#ffffff"/>				<path d="M 162.4139 46.6719 C 162.6179 46.6772 162.8181 46.7803 163.006 46.9834 L 166.2378 50.6621 C 166.4746 50.9238 166.5847 51.0562 166.5808 51.0396 C 166.7346 51.1709 166.8967 51.186 167.0711 51.1021 C 167.2391 51.0288 167.3478 50.8892 167.4056 50.6831 C 167.4327 50.5713 167.4507 50.3833 167.4578 50.1094 C 167.4551 50.0225 167.421 49.8374 167.3721 49.5503 C 167.298 49.1548 167.1628 48.5718 166.9769 47.8076 C 166.7953 47.0244 166.662 46.4497 166.5919 46.0708 C 166.3292 44.71 166.2757 43.5288 166.4359 42.5093 C 166.459 42.3813 166.4216 42.2578 166.3361 42.1548 C 166.2421 42.0537 166.1224 41.9937 165.9667 41.9678 C 165.6797 41.9463 165.5021 42.0923 165.4211 42.4268 C 165.3895 42.5566 165.3889 42.7061 165.4192 42.8745 C 165.5157 43.519 165.6587 44.478 165.8564 45.7485 C 166.0457 47.0215 166.197 47.9775 166.2897 48.606 L 166.3322 48.7891 C 166.3515 48.8721 166.3567 48.9326 166.358 48.9761 C 166.3574 49.1255 166.2801 49.2485 166.1077 49.3408 C 164.4969 47.5615 163.2369 45.9648 162.3108 44.5547 C 162.2741 44.5103 162.2156 44.4097 162.137 44.2607 C 162.0643 44.1372 162.0077 44.0449 161.9633 43.9673 C 161.8409 43.8203 161.673 43.7798 161.4465 43.8667 C 161.287 43.9385 161.2078 44.0532 161.2111 44.2197 C 161.2124 44.377 161.2201 44.5244 161.2549 44.6743 L 161.8594 48.0801 C 162.0564 49.3862 162.1125 50.54 162.0444 51.5386 C 162.0264 51.8408 162.1487 51.9883 162.4215 51.9868 C 162.5464 51.9932 162.6532 51.96 162.7401 51.8784 C 162.8204 51.8076 162.8661 51.7007 162.8726 51.5762 C 162.9008 51.166 162.8931 50.7905 162.8557 50.4395 C 162.8196 50.1318 162.678 48.875 162.4139 46.6719 L 162.4139 46.6719 Z" fill="#ffffff"/>				<path d="M 169.7656 41.1382 C 169.1859 41.1841 168.5804 41.3843 167.9531 41.7568 C 167.7742 41.8594 167.7008 41.999 167.7311 42.1675 C 167.7543 42.2676 167.7986 42.3452 167.8772 42.3799 C 167.9473 42.4165 168.0284 42.4238 168.1165 42.3862 C 168.3263 42.3027 168.4949 42.3081 168.6075 42.4136 C 168.6648 42.4707 168.7349 42.6216 168.8225 42.8472 L 169.282 44.0308 C 169.4706 44.5405 169.6238 44.9351 169.7249 45.2188 C 170.1593 46.4087 170.5197 47.4312 170.8062 48.2871 C 170.8596 48.4414 170.9182 48.542 170.9838 48.5972 C 171.0616 48.667 171.1716 48.6855 171.3055 48.6548 C 171.4059 48.6318 171.4799 48.5708 171.5275 48.4722 C 171.5365 48.4351 171.5571 48.3335 171.5892 48.168 C 171.6175 47.9863 171.5113 47.6426 171.2667 47.1196 C 170.9714 46.5293 170.6605 45.7588 170.3342 44.8071 C 169.8109 43.3477 169.5316 42.561 169.5 42.4629 C 169.4125 42.2373 169.3906 42.0669 169.451 41.9478 C 169.5032 41.8306 169.6589 41.7417 169.9098 41.6846 C 171.0938 41.3945 172.3356 41.4688 173.6207 41.9194 C 174.2951 42.1675 174.6857 42.6743 174.8029 43.4458 C 174.875 43.9473 174.8242 44.4502 174.6505 44.9551 C 174.3276 45.8804 174.0059 46.6211 173.6772 47.1792 C 173.2365 47.939 172.7089 48.5513 172.0861 49.0195 C 171.7863 49.2461 171.7361 49.4858 171.9484 49.7178 C 172.1891 49.9961 172.4478 49.9712 172.7328 49.6426 C 173.0391 49.2915 173.3209 48.9111 173.5865 48.4985 C 174.6597 46.8569 175.2651 45.4019 175.3943 44.1348 C 175.5229 42.7891 174.9771 41.8794 173.7635 41.395 C 172.3286 40.8301 170.9952 40.7417 169.7656 41.1382 L 169.7656 41.1382 Z" fill="#ffffff"/>				<path d="M 182.5557 46.7881 C 181.6162 46.916 180.8563 46.9067 180.2797 46.7759 C 179.4998 46.604 178.8596 46.1987 178.3672 45.5571 C 177.232 44.0811 177.0948 42.5771 177.964 41.0435 C 178.22 40.5898 178.4716 40.269 178.7251 40.0703 C 179.0674 39.7983 179.4753 39.6958 179.947 39.7539 C 180.2939 39.8057 180.4727 39.7036 180.465 39.4419 C 180.4701 39.1602 180.3253 38.9917 180.0351 38.918 C 179.3755 38.7715 178.8105 38.9185 178.3319 39.3623 C 177.3823 40.2822 176.8109 41.2383 176.6367 42.2349 C 176.4656 43.1694 176.5396 44.021 176.8441 44.8018 C 177.1505 45.5913 177.6775 46.2686 178.4272 46.8418 C 179.7168 47.8442 181.29 48.0176 183.1677 47.3755 C 184.71 46.8452 185.6622 45.5557 186.0204 43.4907 C 186.1979 42.4321 185.8297 41.4902 184.8973 40.6602 C 184.0671 39.9297 183.1373 39.5293 182.1058 39.4507 C 181.9642 39.4482 181.8471 39.4751 181.7564 39.54 C 181.6509 39.6167 181.5762 39.7129 181.5531 39.8408 C 181.4939 40.1182 181.6136 40.292 181.9225 40.3706 C 182.0448 40.4038 182.2024 40.438 182.4019 40.4619 C 182.649 40.5015 182.8131 40.5254 182.8858 40.5347 C 183.4855 40.6514 183.9894 40.8867 184.3973 41.2402 C 184.8092 41.6108 185.0737 42.0674 185.1909 42.6108 C 185.3892 43.6182 185.2014 44.5562 184.6236 45.4087 C 184.0652 46.2305 183.378 46.686 182.5557 46.7881 L 182.5557 46.7881 Z" fill="#ffffff"/>				<path d="M 193.0979 37.459 C 193.318 37.4961 193.4724 37.5923 193.5696 37.7456 C 194.3007 38.9985 194.7145 39.7197 194.811 39.9077 C 194.9739 40.23 195.0325 40.4448 194.9848 40.5435 C 194.9308 40.6523 194.7184 40.7627 194.3498 40.8823 C 193.9766 41.021 193.5596 41.1606 193.1156 41.2979 C 192.9355 41.3569 192.8107 41.3506 192.7225 41.2744 C 192.6446 41.2046 192.6176 41.0874 192.6375 40.9077 L 193.0979 37.459 L 193.0979 37.459 ZM 191.4977 44.96 C 191.544 45.1597 191.6399 45.2695 191.8143 45.2998 C 192.0447 45.3433 192.1965 45.2378 192.2634 44.9946 C 192.2788 44.9473 192.2943 44.7856 192.3181 44.5083 C 192.3894 43.562 192.4324 43.0254 192.4389 42.9014 C 192.4446 42.4697 192.6685 42.1816 193.1086 42.0278 C 194.0327 41.7188 194.6027 41.5176 194.8273 41.4224 C 195.0621 41.333 195.25 41.3071 195.3845 41.3555 C 195.5377 41.4082 195.6619 41.564 195.7617 41.8037 C 195.8054 41.9165 196.1323 42.605 196.7631 43.8813 C 196.8995 44.1655 197.0874 44.2544 197.3267 44.1465 C 197.5513 44.0513 197.6382 43.8555 197.6041 43.5562 C 197.5983 43.5313 197.5216 43.3906 197.3659 43.1372 C 196.9572 42.4766 196.7449 42.1309 196.7371 42.0972 C 196.705 42.0342 196.6502 41.9507 196.5814 41.8433 C 196.49 41.7153 196.4333 41.623 196.4115 41.5669 C 196.2944 41.3652 196.2603 41.1802 196.313 41.0278 C 196.3677 40.8838 196.5028 40.7822 196.7203 40.7324 L 197.013 40.665 C 197.134 40.6548 197.2344 40.6313 197.2994 40.6079 C 197.3914 40.5869 197.4545 40.5547 197.4841 40.5303 C 197.67 40.3823 197.7092 40.1714 197.6017 39.8979 C 197.522 39.7056 197.354 39.6655 197.0915 39.7871 C 196.9653 39.8516 196.8688 39.8911 196.8225 39.9194 C 196.3611 40.0957 196.0787 40.1694 195.9648 40.1343 C 195.8509 40.0986 195.6842 39.874 195.4648 39.4595 C 194.8218 38.2822 194.1647 37.1958 193.4749 36.1968 C 193.3571 36.0303 193.2593 35.9126 193.1749 35.853 C 193.0475 35.7598 192.9022 35.7402 192.7432 35.7769 C 192.4961 35.8511 192.39 36.0776 192.4228 36.4473 C 192.4763 37.0576 192.4249 37.8242 192.2853 38.7427 C 192.0673 40.0825 191.9536 40.8457 191.942 41.0239 C 191.9188 41.2661 191.8699 41.4351 191.8055 41.5376 C 191.7175 41.6895 191.5495 41.7632 191.3082 41.7485 C 191.1396 41.7432 191.0508 41.8164 191.0334 41.9697 C 191.0174 42.0522 191.0328 42.1187 191.0734 42.1797 C 191.1055 42.2427 191.1654 42.2725 191.2381 42.2822 C 191.5496 42.3335 191.7239 42.4775 191.7742 42.6943 C 191.7974 42.7944 191.7787 43.0176 191.7369 43.3696 C 191.7247 43.4688 191.6443 43.9961 191.4977 44.96 L 191.4977 44.96 Z" fill="#ffffff"/>				<path d="M 128.4387 69.6968 C 128.5417 69.9888 128.6414 70.457 128.7528 71.0898 C 128.9048 72.0112 129.0007 72.5771 129.049 72.7852 C 129.1179 73.1206 129.2839 73.2666 129.5388 73.2256 C 129.7768 73.188 129.9319 73.021 129.9981 72.6987 C 130.0174 72.5537 129.971 72.3535 129.8571 72.0903 C 129.6164 71.5845 129.3834 70.7695 129.1729 69.6333 C 129.0738 69.1294 128.7345 67.6279 128.1506 65.1475 C 128.1448 65.123 128.0728 64.9639 127.9325 64.6626 C 127.8083 64.3926 127.6499 64.2798 127.4679 64.3311 C 127.271 64.3936 127.1494 64.5532 127.0947 64.8115 C 127.0548 64.9434 127.1031 65.1519 127.2106 65.4253 C 127.5735 66.3066 127.9829 67.731 128.4387 69.6968 L 128.4387 69.6968 Z" fill="#ffffff"/>				<path d="M 131.3855 67.2817 C 131.5895 67.2876 131.7897 67.3906 131.9775 67.5933 L 135.2094 71.2725 C 135.4462 71.5337 135.5563 71.6665 135.5524 71.6499 C 135.7062 71.7813 135.8683 71.7964 136.0427 71.7124 C 136.2107 71.6387 136.3194 71.5 136.3773 71.2935 C 136.4043 71.1821 136.4223 70.9937 136.4294 70.7197 C 136.4268 70.6328 136.3926 70.4473 136.3437 70.1606 C 136.2697 69.7651 136.1345 69.1821 135.9485 68.4175 C 135.7669 67.6343 135.6337 67.0596 135.5635 66.6812 C 135.3008 65.3203 135.2473 64.1392 135.4074 63.1196 C 135.4306 62.9917 135.3932 62.8687 135.3077 62.7651 C 135.2137 62.6641 135.094 62.604 134.9383 62.5781 C 134.6513 62.5566 134.4737 62.7026 134.3927 63.0371 C 134.3611 63.167 134.3605 63.3164 134.3908 63.4849 C 134.4874 64.1294 134.6303 65.0884 134.828 66.3589 C 135.0173 67.6313 135.1686 68.5879 135.2613 69.2163 L 135.3038 69.3994 C 135.3231 69.4829 135.3282 69.543 135.3296 69.5864 C 135.3289 69.7358 135.2517 69.8589 135.0793 69.9512 C 133.4685 68.1719 132.2085 66.5752 131.2824 65.1646 C 131.2457 65.1206 131.1872 65.02 131.1086 64.8711 C 131.0359 64.7476 130.9793 64.6553 130.9349 64.5776 C 130.8126 64.4307 130.6446 64.3901 130.4181 64.4771 C 130.2586 64.5488 130.1794 64.6641 130.1827 64.8296 C 130.184 64.9873 130.1917 65.1348 130.2265 65.2847 L 130.831 68.6904 C 131.028 69.9966 131.0841 71.1504 131.016 72.1484 C 130.998 72.4512 131.1203 72.5986 131.3931 72.5972 C 131.518 72.6035 131.6248 72.5703 131.7116 72.4888 C 131.7921 72.418 131.8377 72.3105 131.8442 72.1865 C 131.8724 71.7764 131.8647 71.4009 131.8273 71.0493 C 131.7913 70.7422 131.6496 69.4849 131.3855 67.2817 L 131.3855 67.2817 Z" fill="#ffffff"/>				<path d="M 143.3933 61.6523 C 144.3218 61.4385 144.8321 61.3213 144.9222 61.292 C 145.2047 61.2183 145.3912 61.1494 145.4968 61.0723 C 145.6821 60.9595 145.7477 60.7861 145.6936 60.5532 C 145.6292 60.3135 145.4876 60.1968 145.267 60.1948 C 145.1337 60.1904 144.9433 60.2432 144.6956 60.3525 C 144.471 60.4482 143.538 60.6802 141.8966 61.0488 C 141.3445 61.1758 139.7796 61.5703 137.2187 62.2295 C 137.0218 62.2925 136.8828 62.377 136.8018 62.4834 C 136.6911 62.6138 136.6802 62.7568 136.7458 62.9263 C 136.8411 63.1851 137.0856 63.2515 137.4813 63.1343 C 137.5817 63.1108 138.0508 62.9683 138.8718 62.709 C 139.4142 62.541 139.7714 62.4849 139.9451 62.5503 C 140.1188 62.6152 140.326 62.9014 140.5629 63.3906 C 141.5128 65.4365 142.0709 67.3872 142.2409 69.2607 C 142.2648 69.5537 142.2925 69.749 142.324 69.8472 C 142.3865 70.0786 142.5364 70.1934 142.77 70.1748 C 142.9263 70.165 143.0569 70.082 143.1412 69.9136 C 143.2989 69.6055 143.3059 69.2183 143.181 68.7554 C 143.071 68.3945 142.9384 67.8984 142.7748 67.269 L 142.3809 65.7983 C 142.0584 64.6353 141.7198 63.6689 141.3755 62.9058 C 141.129 62.3745 141.2931 62.0562 141.851 61.9541 L 143.3817 61.6021 L 143.3933 61.6523 L 143.3933 61.6523 Z" fill="#ffffff"/>				<path d="M 154.4381 59.0513 C 154.5012 59.0195 154.6537 58.9932 154.8808 58.9849 C 155.1266 58.9814 155.3061 58.9575 155.4361 58.9097 C 155.6246 58.8491 155.7559 58.731 155.8215 58.5581 C 155.8826 58.4033 155.8794 58.2378 155.8202 58.0586 C 155.7326 57.833 155.5004 57.7808 155.1188 57.9214 C 154.884 58.0103 153.9072 58.3574 152.1931 58.9448 C 151.0027 59.3589 150.0401 59.7295 149.295 60.0498 C 148.6947 60.3105 148.2134 60.439 147.8428 60.436 C 147.3846 60.436 147.1234 60.4873 147.0487 60.584 C 146.9677 60.6904 146.9966 60.9292 147.1292 61.311 C 147.4672 62.3125 147.6821 62.9736 147.7742 63.2949 C 147.975 64.0469 148.0645 64.7373 148.0408 65.3569 C 148.0382 65.6118 148.1451 65.8066 148.3696 65.9395 C 148.5138 66.0288 148.6367 66.2554 148.7507 66.6323 C 148.7776 66.749 148.8485 66.9785 148.9592 67.3042 C 149.0416 67.5835 149.1124 67.813 149.1594 67.9775 C 149.2978 68.4985 149.6259 68.6602 150.1291 68.4741 C 150.3427 68.4072 150.5924 68.3062 150.8864 68.168 C 152.5362 67.4556 153.7497 67.0278 154.5186 66.8857 C 154.9929 66.8032 155.1852 66.5308 155.079 66.0728 C 155.0366 65.8892 154.9259 65.792 154.7637 65.7764 C 154.6743 65.771 154.5218 65.7969 154.3082 65.8638 C 153.8494 66.0132 153.556 66.1157 153.4298 66.1797 C 153.1313 66.3359 152.695 66.5068 152.123 66.6997 C 151.5073 66.894 151.069 67.0562 150.8085 67.186 C 150.3967 67.3862 150.1187 67.4409 149.9617 67.3721 C 149.8233 67.3071 149.6696 67.062 149.5086 66.6338 C 149.5048 66.6172 149.4848 66.5688 149.4533 66.4712 C 149.4378 66.4043 149.416 66.3481 149.3876 66.3018 C 149.2769 66.0908 149.2551 65.9199 149.3116 65.7842 C 149.3618 65.6587 149.5098 65.5366 149.7575 65.4272 C 151.1435 64.793 152.2515 64.3276 153.1002 64.0356 C 153.4354 63.9238 153.6774 63.7891 153.8221 63.6152 C 153.9669 63.4414 153.9843 63.2886 153.8703 63.1392 C 153.7114 62.9473 153.5209 62.8862 153.3073 62.9526 C 153.2359 62.9868 153.1393 63.0269 153.03 63.0869 C 152.891 63.1714 152.7964 63.2192 152.7481 63.2393 C 151.4194 63.8169 150.4479 64.2246 149.8353 64.4707 C 149.399 64.6406 149.1127 64.6978 148.9911 64.6294 C 148.863 64.5713 148.7427 64.3179 148.6217 63.8721 C 148.5747 63.7075 148.509 63.4238 148.4247 63.0225 C 148.3397 62.6558 148.274 62.3726 148.2194 62.1748 C 148.137 61.8955 148.1389 61.6753 148.2418 61.5117 C 148.328 61.3511 148.5178 61.2197 148.7945 61.1211 L 151.5458 60.0679 C 152.6699 59.6338 153.6318 59.2983 154.4381 59.0513 L 154.4381 59.0513 Z" fill="#ffffff"/>				<path d="M 163.2424 63.3184 C 163.6362 63.3066 164.2263 63.2681 165.0145 63.2095 C 165.7944 63.1528 166.376 63.1157 166.7679 63.0957 C 168.1057 63.0513 169.253 63.1738 170.2098 63.4624 C 170.4293 63.5352 170.5869 63.5688 170.6744 63.5664 C 170.8327 63.5654 170.9614 63.4741 171.0604 63.2935 C 171.0862 63.2524 171.1248 63.1909 171.191 63.0967 C 171.2509 63.0127 171.296 62.9409 171.3198 62.8916 C 171.4059 62.7314 171.3963 62.5757 171.3094 62.4292 C 171.1755 62.2314 170.8879 62.1309 170.4484 62.1357 C 170.2129 62.146 169.1699 62.1309 167.3109 62.0938 C 166.0369 62.0708 164.997 62.1079 164.1727 62.2007 C 163.6258 62.2739 163.2545 62.1929 163.046 61.9771 C 163.0093 61.8188 163.0453 61.6704 163.1373 61.5352 C 163.1631 61.4941 163.2139 61.4473 163.2692 61.3818 C 163.3477 61.3022 163.3986 61.2559 163.4114 61.2354 C 165.09 59.2788 165.9007 58.3291 165.8538 58.3926 C 166.2443 57.8726 166.3524 57.4268 166.1799 57.0625 C 166.0009 56.709 165.582 56.4985 164.9295 56.4204 C 163.566 56.2773 161.8621 56.4146 159.816 56.8237 C 158.9673 57.0015 158.1913 57.3027 157.4796 57.7295 C 157.3239 57.8179 157.212 57.9048 157.1586 57.979 C 157.0627 58.0972 157.0563 58.2217 157.1161 58.3657 C 157.2481 58.6685 157.4849 58.7021 157.8182 58.4678 C 158.1978 58.2046 158.8998 57.9644 159.9139 57.7402 C 161.3751 57.4307 162.1383 57.2637 162.2219 57.2446 C 163.1073 57.1113 163.8885 57.0981 164.5757 57.2124 C 164.9245 57.2725 165.131 57.3652 165.1993 57.5073 C 165.2675 57.6499 165.2198 57.8628 165.0359 58.1333 C 164.8345 58.4429 163.8958 59.4482 162.2114 61.1514 C 161.7017 60.4351 161.3245 59.5303 161.0696 58.4307 C 161.0117 58.1807 160.8887 58.0688 160.7092 58.0923 C 160.5548 58.1104 160.4357 58.2427 160.3566 58.4717 C 160.2775 58.7007 160.2955 58.9688 160.4063 59.2939 C 160.7094 60.1455 160.8883 60.6133 160.945 60.7056 C 161.1046 60.9761 161.1735 61.311 161.1581 61.7007 C 161.1234 62.3491 161.1093 62.668 161.1073 62.6597 C 161.1125 62.8345 161.3184 63.0762 161.7168 63.3887 C 162.0983 63.7041 162.2863 64.021 162.2889 64.3359 C 162.2902 64.4937 162.3771 64.7549 162.5579 65.1167 C 162.6944 65.4014 162.8649 65.5283 163.0798 65.5054 C 163.305 65.4888 163.4916 65.3057 163.6209 64.9512 C 163.6871 64.7427 163.6544 64.4873 163.5224 64.1841 C 163.3461 63.8037 163.2534 63.5176 163.2424 63.3184 L 163.2424 63.3184 Z" fill="#ffffff"/>				<path d="M 172.6075 57.8047 C 172.8115 57.8105 173.0116 57.9141 173.1995 58.1162 L 176.4313 61.7954 C 176.6682 62.0566 176.7782 62.1895 176.7743 62.1729 C 176.9281 62.3042 177.0903 62.3198 177.2646 62.2358 C 177.4326 62.1616 177.5413 62.0229 177.5992 61.8164 C 177.6262 61.7051 177.6442 61.5166 177.6512 61.2432 C 177.6487 61.1558 177.6146 60.9707 177.5656 60.6836 C 177.4916 60.2886 177.3564 59.7051 177.1704 58.9404 C 176.9889 58.1577 176.8556 57.583 176.7855 57.2041 C 176.5228 55.8433 176.4692 54.6621 176.6293 53.6431 C 176.6525 53.5142 176.6152 53.3916 176.5296 53.2886 C 176.4356 53.187 176.316 53.127 176.1603 53.1016 C 175.8732 53.0796 175.6956 53.2256 175.6146 53.5605 C 175.5831 53.6904 175.5825 53.8398 175.6127 54.0083 C 175.7093 54.6528 175.8522 55.6113 176.0499 56.8818 C 176.2392 58.1543 176.3905 59.1113 176.4832 59.7388 L 176.5257 59.9224 C 176.545 60.0059 176.5502 60.0659 176.5515 60.1094 C 176.5508 60.2588 176.4736 60.3818 176.3012 60.4741 C 174.6905 58.6948 173.4304 57.0981 172.5043 55.688 C 172.4677 55.6436 172.4091 55.543 172.3306 55.3945 C 172.2579 55.271 172.2012 55.1787 172.1568 55.1011 C 172.0345 54.9536 171.8666 54.9131 171.6401 55.0005 C 171.4805 55.0723 171.4014 55.187 171.4046 55.3525 C 171.4059 55.5107 171.4136 55.6577 171.4484 55.8081 L 172.053 59.2134 C 172.2499 60.519 172.306 61.6733 172.2379 62.6719 C 172.22 62.9746 172.3422 63.1216 172.6151 63.1206 C 172.7399 63.127 172.8467 63.0938 172.9335 63.0122 C 173.014 62.9409 173.0597 62.834 173.0661 62.7095 C 173.0944 62.2993 173.0866 61.9238 173.0493 61.5728 C 173.0132 61.2651 172.8715 60.0078 172.6075 57.8047 L 172.6075 57.8047 Z" fill="#ffffff"/>				<path d="M 185.4884 51.9131 C 185.5515 51.8813 185.704 51.8545 185.9311 51.8467 C 186.1769 51.8428 186.3564 51.8188 186.4864 51.7715 C 186.6749 51.7104 186.8062 51.5923 186.8718 51.4194 C 186.9329 51.2651 186.9297 51.0991 186.8705 50.9199 C 186.783 50.6943 186.5506 50.6426 186.1691 50.7827 C 185.9342 50.8716 184.9575 51.2192 183.2433 51.8062 C 182.053 52.2202 181.0904 52.5908 180.3453 52.9111 C 179.745 53.1724 179.2637 53.3003 178.893 53.2979 C 178.4349 53.2979 178.1736 53.3491 178.0991 53.4453 C 178.0179 53.5518 178.0469 53.7905 178.1796 54.1724 C 178.5174 55.1743 178.7324 55.835 178.8245 56.1563 C 179.0253 56.9087 179.1148 57.5986 179.0911 58.2183 C 179.0885 58.4731 179.1953 58.6685 179.4199 58.8008 C 179.5641 58.8906 179.687 59.1167 179.8009 59.4941 C 179.8279 59.6104 179.8987 59.8403 180.0095 60.1655 C 180.0919 60.4448 180.1627 60.6743 180.2097 60.8389 C 180.348 61.3599 180.6763 61.5215 181.1794 61.3354 C 181.393 61.2686 181.6426 61.1675 181.9367 61.0298 C 183.5865 60.3174 184.8 59.8892 185.569 59.7471 C 186.0432 59.6646 186.2355 59.3926 186.1293 58.9341 C 186.0869 58.751 185.9761 58.6533 185.814 58.6382 C 185.7245 58.6323 185.572 58.6587 185.3585 58.7256 C 184.8997 58.875 184.6063 58.9771 184.4802 59.0415 C 184.1816 59.1973 183.7454 59.3682 183.1733 59.561 C 182.5576 59.7554 182.1193 59.9175 181.8588 60.0474 C 181.447 60.2476 181.169 60.3027 181.012 60.2334 C 180.8737 60.1689 180.7198 59.9233 180.5589 59.4951 C 180.5551 59.4785 180.5351 59.4307 180.5035 59.3325 C 180.4882 59.2656 180.4662 59.2095 180.4379 59.1636 C 180.3272 58.9521 180.3053 58.7813 180.3619 58.6455 C 180.4121 58.52 180.5601 58.3984 180.8078 58.2891 C 182.1938 57.6543 183.3018 57.189 184.1505 56.8975 C 184.4857 56.7852 184.7276 56.6504 184.8724 56.4766 C 185.0172 56.3032 185.0345 56.1499 184.9207 56.0005 C 184.7617 55.8091 184.5712 55.7476 184.3576 55.8145 C 184.2861 55.8481 184.1896 55.8882 184.0803 55.9482 C 183.9413 56.0327 183.8467 56.0811 183.7985 56.1006 C 182.4697 56.6782 181.4981 57.0859 180.8856 57.332 C 180.4493 57.5024 180.163 57.5596 180.0414 57.4912 C 179.9133 57.4326 179.793 57.1797 179.6719 56.7339 C 179.625 56.5688 179.5593 56.2856 179.475 55.8843 C 179.39 55.5171 179.3243 55.2344 179.2697 55.0361 C 179.1873 54.7568 179.1891 54.5371 179.2921 54.373 C 179.3783 54.2129 179.5681 54.0815 179.8448 53.9829 L 182.5961 52.9292 C 183.7203 52.4951 184.6822 52.1597 185.4884 51.9131 L 185.4884 51.9131 Z" fill="#ffffff"/>				<path d="M 194.7869 49.8369 C 195.7154 49.623 196.2256 49.5059 196.3157 49.4766 C 196.5982 49.4028 196.7848 49.334 196.8903 49.2568 C 197.0756 49.144 197.1412 48.9707 197.0872 48.7378 C 197.0228 48.498 196.8812 48.3813 196.6605 48.3794 C 196.5273 48.375 196.3369 48.4277 196.0891 48.5371 C 195.8646 48.6328 194.9316 48.8647 193.2902 49.2334 C 192.738 49.3604 191.1732 49.7549 188.6122 50.4141 C 188.4153 50.4771 188.2764 50.5615 188.1953 50.668 C 188.0847 50.7983 188.0737 50.9414 188.1394 51.1108 C 188.2346 51.3696 188.4792 51.436 188.8749 51.3188 C 188.9753 51.2954 189.4443 51.1528 190.2654 50.8936 C 190.8078 50.7251 191.1649 50.6699 191.3387 50.7349 C 191.5125 50.7998 191.7196 51.0859 191.9565 51.5752 C 192.9064 53.6206 193.4645 55.5718 193.6346 57.4453 C 193.6584 57.7383 193.6861 57.9336 193.7177 58.0317 C 193.78 58.2632 193.93 58.3779 194.1636 58.3594 C 194.3199 58.3496 194.4506 58.2666 194.5348 58.0981 C 194.6924 57.79 194.6995 57.4023 194.5746 56.9399 C 194.4645 56.5791 194.3319 56.083 194.1685 55.4536 L 193.7745 53.9829 C 193.452 52.8198 193.1134 51.8535 192.7691 51.0903 C 192.5226 50.5591 192.6867 50.2407 193.2446 50.1387 L 194.7753 49.7866 L 194.7869 49.8369 L 194.7869 49.8369 Z" fill="#ffffff"/>				<path d="M 142.0773 87.2153 C 143.085 87.1152 143.6171 87.0542 143.684 87.0391 C 143.9646 86.9565 144.1743 86.7593 144.3113 86.4385 C 144.4503 86.1255 144.4619 85.8335 144.3312 85.5737 C 144.1098 85.1509 143.8203 85.042 143.4496 85.2676 C 142.8261 85.6567 141.9311 85.9766 140.7665 86.2354 C 139.3696 86.5566 138.4488 86.8037 138.0061 86.9839 C 137.1709 87.334 136.613 87.0938 136.3452 86.2432 C 136.3214 86.1782 136.1901 85.8398 135.9468 85.2466 C 133.8744 80.1074 132.7784 77.394 132.6773 77.1104 C 132.5537 76.8052 132.4262 76.5972 132.3117 76.4834 C 132.1315 76.3145 131.9134 76.2856 131.6592 76.4053 C 131.2455 76.5972 131.1819 77.0063 131.4663 77.6255 C 133.1648 81.3413 134.5582 84.7676 135.6363 87.8975 C 135.8461 88.4985 136.0669 88.8428 136.3191 88.9424 C 136.5591 89.0273 137.0063 88.9424 137.6485 88.6719 C 139.1779 88.0483 140.6508 87.5605 142.0773 87.2153 L 142.0773 87.2153 Z" fill="#ffffff"/>				<path d="M 145.1294 81.5298 C 145.2736 81.9614 145.4216 82.6382 145.5839 83.5664 C 145.8053 84.9014 145.9528 85.7275 146.0242 86.0356 C 146.1195 86.5229 146.355 86.7402 146.7288 86.6812 C 147.086 86.625 147.3092 86.3721 147.3967 85.9131 C 147.4359 85.7021 147.3683 85.4111 147.192 85.0303 C 146.8451 84.2939 146.5149 83.0977 146.2032 81.4497 C 146.0565 80.7026 145.5589 78.5181 144.7021 74.8984 C 144.6943 74.8647 144.5882 74.6353 144.39 74.1978 C 144.2097 73.8008 143.9774 73.6348 143.7117 73.7046 C 143.4247 73.7974 143.2414 74.0322 143.1616 74.4102 C 143.1185 74.6045 143.1797 74.9063 143.3432 75.3076 C 143.8612 76.5923 144.4567 78.666 145.1294 81.5298 L 145.1294 81.5298 Z" fill="#ffffff"/>				<path d="M 153.0595 82.4438 C 152.674 82.4536 152.38 82.3633 152.1708 82.1836 C 152.1155 82.1348 151.9772 81.9561 151.7493 81.6577 C 151.3716 81.1304 150.4628 79.9092 149.0297 77.9834 C 148.623 77.4453 148.1893 77.3608 147.7202 77.7314 C 147.4751 77.9282 147.3567 78.1396 147.3754 78.3726 C 147.3921 78.5967 147.5067 78.8247 147.7339 79.0449 C 148.3723 79.6699 149.1412 80.5547 150.0325 81.7012 C 151.1536 83.1543 151.8866 84.0737 152.2316 84.4595 C 152.2476 84.4912 152.3229 84.5879 152.449 84.752 C 152.5405 84.8799 152.6241 84.9746 152.6981 85.0278 C 152.9092 85.2163 153.1525 85.2393 153.4336 85.1221 C 153.8428 84.9487 154.1002 84.5391 154.2121 83.8813 C 154.2263 83.7905 154.2429 83.6724 154.2416 83.5146 C 154.2474 83.3115 154.2435 83.1812 154.2487 83.127 C 154.5585 79.1426 155.1552 75.522 156.0429 72.2822 C 156.1432 71.917 156.1651 71.6313 156.1001 71.4268 C 156.0087 71.1846 155.7886 71.0337 155.4418 70.9814 C 154.8099 70.916 154.4972 71.2778 154.4973 72.0762 C 154.4761 73.2393 154.2305 74.9536 153.7706 77.2266 C 153.3024 79.5015 153.0626 81.2417 153.0595 82.4438 L 153.0595 82.4438 Z" fill="#ffffff"/>				<path d="M 166.6131 78.9595 C 167.1922 78.9497 168.0512 78.8926 169.2004 78.7949 C 170.3348 78.7095 171.1874 78.6626 171.7627 78.6357 C 173.713 78.5732 175.3841 78.7505 176.7779 79.1758 C 177.1028 79.2856 177.3332 79.3291 177.4542 79.3188 C 177.6916 79.3169 177.8814 79.1855 178.0172 78.9351 C 178.0474 78.875 178.1136 78.7813 178.2037 78.6377 C 178.2977 78.5107 178.364 78.4165 178.3987 78.3384 C 178.5197 78.1001 178.5112 77.874 178.3838 77.6665 C 178.1933 77.3765 177.7712 77.228 177.1213 77.2368 C 176.7797 77.2456 175.2514 77.228 172.543 77.1753 C 170.7028 77.1421 169.1816 77.1934 167.9796 77.3296 C 167.1824 77.4248 166.6303 77.3237 166.3298 77.0156 C 166.2757 76.7822 166.3214 76.561 166.4622 76.3711 C 166.5009 76.3096 166.571 76.2319 166.6642 76.1401 C 166.7769 76.0176 166.8386 75.9424 166.8599 75.9199 C 169.3022 73.0771 170.4976 71.6968 170.4294 71.7827 C 170.993 71.021 171.1506 70.3711 170.8957 69.8418 C 170.6345 69.3228 170.0321 69.0049 169.0759 68.9087 C 167.0889 68.6987 164.6071 68.9009 161.6266 69.498 C 160.3809 69.7495 159.2484 70.1855 158.2125 70.8096 C 157.9809 70.9507 157.8226 71.0659 157.7415 71.1724 C 157.6051 71.3442 157.5891 71.541 157.6811 71.748 C 157.8774 72.1763 158.2223 72.2202 158.7075 71.8804 C 159.264 71.5068 160.2825 71.1494 161.7587 70.8281 L 165.1246 70.1069 C 166.4172 69.9058 167.5588 69.8892 168.5677 70.061 C 169.0638 70.1489 169.3694 70.2891 169.4763 70.4839 C 169.5767 70.689 169.4982 70.9966 169.2306 71.4004 C 168.9308 71.855 167.5629 73.3276 165.1148 75.8032 C 164.3696 74.7549 163.8148 73.4263 163.444 71.8267 C 163.3629 71.4766 163.1827 71.3076 162.9156 71.334 C 162.6943 71.3672 162.5264 71.5552 162.4119 71.8975 C 162.2935 72.2231 162.3154 72.6216 162.486 73.0913 C 162.932 74.3311 163.1882 75.0181 163.2731 75.1563 C 163.5035 75.542 163.6072 76.0273 163.5802 76.5947 C 163.5275 77.5454 163.5045 78.0161 163.5024 78.0078 C 163.5186 78.2671 163.8121 78.6211 164.3912 79.0669 C 164.9537 79.5166 165.2284 79.98 165.2304 80.4443 C 165.2304 80.6729 165.3547 81.0562 165.6179 81.5835 C 165.8187 81.9937 166.0651 82.1831 166.3759 82.1553 C 166.7137 82.1304 166.9769 81.8594 167.1654 81.3418 C 167.2645 81.0474 167.213 80.6729 167.0192 80.2173 C 166.7585 79.6631 166.6266 79.2461 166.6131 78.9595 L 166.6131 78.9595 Z" fill="#ffffff"/>				<path d="M 188.418 64.7778 C 188.519 64.7197 188.7321 64.688 189.0551 64.6753 C 189.4154 64.6714 189.6888 64.6348 189.8671 64.5674 C 190.1438 64.4692 190.3342 64.3022 190.4346 64.0513 C 190.524 63.8286 190.5305 63.5903 190.4352 63.3315 C 190.3038 62.9932 189.9634 62.9312 189.4101 63.1284 C 189.0704 63.2593 187.6516 63.752 185.1389 64.6191 C 183.4119 65.2266 182.0112 65.7593 180.9218 66.229 C 180.0507 66.6138 179.3454 66.8022 178.7978 66.7964 C 178.1357 66.791 177.7471 66.8628 177.6403 67.0103 C 177.5251 67.1597 177.5624 67.5107 177.7626 68.0698 C 178.2589 69.5264 178.5704 70.4902 178.6972 70.9609 C 178.9875 72.061 179.1234 73.0649 179.0881 73.9771 C 179.0855 74.3462 179.2387 74.627 179.5663 74.8232 C 179.7722 74.9517 179.9556 75.2871 180.1184 75.8374 C 180.1674 76.0103 180.2697 76.3379 180.4235 76.811 C 180.5535 77.2202 180.6559 77.5474 180.7203 77.7871 C 180.9314 78.5459 181.3998 78.7803 182.1417 78.522 C 182.4435 78.4175 182.8129 78.2622 183.2452 78.0752 C 185.6465 77.0317 187.4115 76.3979 188.5356 76.1924 C 189.2312 76.0762 189.511 75.6875 189.3566 75.0205 C 189.2947 74.7539 189.139 74.6143 188.8958 74.5913 C 188.7523 74.5806 188.5329 74.6221 188.2272 74.71 C 187.5632 74.9243 187.1315 75.0757 186.9423 75.1724 C 186.5093 75.3945 185.8716 75.6465 185.0377 75.9258 C 184.1453 76.2188 183.5038 76.4541 183.1235 76.6382 C 182.5289 76.9238 182.1171 77.0098 181.89 76.9038 C 181.6834 76.811 181.4608 76.459 181.2265 75.8281 C 181.2226 75.8115 181.1949 75.73 181.1537 75.5903 C 181.1222 75.4922 181.0862 75.4126 181.054 75.3501 C 180.8931 75.0361 180.8538 74.791 180.9406 74.5952 C 181.0211 74.4102 181.2366 74.2378 181.5873 74.0781 C 183.6077 73.1396 185.2318 72.4683 186.4723 72.0425 C 186.9561 71.8877 187.3055 71.6846 187.5204 71.4331 C 187.7269 71.1841 187.752 70.9497 187.5892 70.7417 C 187.3569 70.4619 187.0795 70.3677 186.7694 70.4741 C 186.6645 70.5156 186.5281 70.5732 186.3621 70.6553 C 186.1536 70.7822 186.0127 70.8584 185.9478 70.8823 C 184.0206 71.729 182.6083 72.3257 181.7126 72.6807 C 181.075 72.9326 180.6613 73.0098 180.4714 72.9131 C 180.2919 72.8232 180.1091 72.4526 179.9417 71.8066 C 179.8671 71.561 179.7725 71.1528 179.6559 70.5737 C 179.5323 70.041 179.4274 69.6265 179.3431 69.3384 C 179.2214 68.9277 179.2336 68.6001 179.3796 68.356 C 179.5109 68.124 179.7766 67.9404 180.1833 67.7939 L 184.2054 66.2554 C 185.8411 65.6333 187.2496 65.1343 188.418 64.7778 L 188.418 64.7778 Z" fill="#ffffff"/>				<path d="M 194.6754 68.1299 C 194.5847 67.8521 194.2686 66.9072 193.7151 65.2798 C 193.3237 64.124 192.9955 63.1641 192.749 62.4048 C 192.6878 62.2168 192.6132 62.085 192.525 62.0088 C 192.4163 61.9199 192.2625 61.9023 192.0701 61.9468 C 191.6891 62.0518 191.5598 62.292 191.6654 62.6714 C 191.6963 62.8047 191.7671 63.0342 191.8926 63.3477 C 191.9872 63.6416 192.058 63.8706 192.0947 64.0288 C 192.145 64.2456 192.4449 65.1597 192.9926 66.7622 C 193.3537 67.8633 193.5366 68.8042 193.5327 69.5859 C 193.5257 69.7456 193.5772 69.8916 193.6937 70.0137 C 193.8121 70.1445 193.9543 70.2261 194.1332 70.2378 C 194.3326 70.2617 194.5026 70.1963 194.6364 70.0518 C 194.7194 69.9536 194.812 69.7832 194.9078 69.5503 C 194.9882 69.3652 194.978 69.1309 194.8936 68.8433 C 194.7591 68.4526 194.6863 68.2153 194.6754 68.1299 L 194.6754 68.1299 ZM 195.0646 73.3047 C 194.5479 73.5464 194.3536 73.9243 194.4694 74.4243 C 194.5197 74.6406 194.6168 74.7939 194.761 74.8838 C 194.909 74.9902 195.0981 75.0078 195.3137 74.9497 C 195.8851 74.792 196.1103 74.4331 195.9957 73.8628 C 195.9185 73.5298 195.6115 73.3457 195.0646 73.3047 L 195.0646 73.3047 Z" fill="#ffffff"/>				<path d="M 195.2888 63.479 C 195.3828 63.5801 195.4587 63.7559 195.5063 63.999 C 195.5611 64.3115 195.6158 64.5093 195.6622 64.5952 C 195.7458 64.8042 195.8307 64.9424 195.9208 65.0269 C 196.0438 65.1392 196.2014 65.1733 196.39 65.1123 C 196.6055 65.0537 196.7451 64.9341 196.8255 64.749 C 196.8912 64.5757 196.886 64.4019 196.7978 64.2114 C 196.709 64.0562 196.429 63.3047 195.9431 61.9688 C 195.8916 61.8228 195.7912 61.7314 195.6567 61.6836 C 195.5242 61.6436 195.3781 61.6597 195.2333 61.7197 C 195.1118 61.7651 195.0248 61.8467 194.9792 61.9531 C 194.9335 62.0605 194.9251 62.1763 194.9541 62.3013 C 194.9676 62.3599 195.077 62.7554 195.2888 63.479 L 195.2888 63.479 ZM 198.972 63.2905 C 198.7499 62.5605 198.6321 62.1665 198.6167 62.0996 C 198.5504 61.9658 198.45 61.875 198.3071 61.8286 C 198.1785 61.8057 198.0388 61.8115 197.8882 61.8462 C 197.7667 61.8916 197.6779 61.9644 197.6322 62.0718 C 197.5679 62.1738 197.5595 62.29 197.5885 62.4155 C 197.6445 62.6567 197.7642 63.0591 197.9476 63.6226 C 197.9669 63.7056 197.9978 63.8389 198.0339 64.0322 C 198.0616 64.2275 198.0861 64.3716 198.1221 64.4507 C 198.1716 64.5884 198.2386 64.6875 198.3312 64.7451 C 198.4426 64.8071 198.5925 64.8076 198.7913 64.7534 C 198.9753 64.7109 199.0956 64.6216 199.1561 64.5024 C 199.2057 64.4121 199.214 64.2964 199.196 64.1426 C 199.1767 64.0591 199.1419 63.9092 199.0769 63.7051 C 199.0177 63.5254 198.9765 63.3857 198.972 63.2905 L 198.972 63.2905 Z" fill="#ffffff"/>			</g>			<path d="M 161.8875 102.7798 L 177.6696 112.4351 L 176.0481 93.124 L 161.8875 102.7798 Z" fill="#000000"/>			<g>				<path d="M 73.7277 168.5298 L 73.6161 168.5298 C 70.4911 163.4214 66.6964 160.8677 62.2321 160.8677 L 62.1206 160.8677 C 60.8929 160.8677 60.186 162.458 60 165.6387 C 60 166.9878 60.8929 168.8677 62.6786 171.2769 C 65.7813 174.439 67.6042 176.1733 68.1473 176.4819 L 73.6161 181.8315 C 74.4866 183.2769 75.0446 184 75.2902 184 C 75.5878 184 75.8481 183.7593 76.0714 183.2769 L 76.0714 182.9878 L 75.8481 182.1206 L 75.9598 181.9761 C 76.5327 180.7036 78.2441 178.1978 81.0938 174.458 C 83.378 170.7471 84.6801 167.7109 85 165.3496 L 84.7769 163.1807 C 84.2188 161.0601 83.3259 160 82.0981 160 L 81.5402 160 C 77.8943 160 75.2902 162.8433 73.7277 168.5298 L 73.7277 168.5298 ZM 74.5089 171.7109 C 75.8631 165.3496 78.1324 162.1685 81.3169 162.1685 L 82.0981 162.1685 C 82.9167 162.1685 83.3259 163.1807 83.3259 165.2051 L 83.3259 165.3496 C 83.3259 166.3613 82.3214 168.771 80.3125 172.5786 C 78.0209 175.5664 76.1979 178.1685 74.8438 180.3853 L 74.7321 180.3853 L 67.2544 173.1567 C 63.8691 170.2939 62.0089 167.8364 61.6741 165.7832 C 61.6741 164.3374 61.8229 163.4214 62.1206 163.0361 C 65.8408 163.0361 68.9286 164.771 71.3839 168.2407 C 72.366 170.2651 73.1846 171.5664 73.8394 172.1445 L 74.5089 171.7109 L 74.5089 171.7109 Z" fill="#bbbbbb"/>			</g>			<g>				<path d="M 137.9331 124.9512 C 137.9331 119.6787 139.0586 118.5542 144.3354 118.5542 L 295.4304 118.5542 C 300.7073 118.5542 301.8328 119.6787 301.8328 124.9512 L 301.8328 236.3433 L 137.9331 236.3433 L 137.9331 124.9512 Z" fill="#1c1c1c"/>				<path d="M 144.4431 126.2026 L 295.3228 126.2026 L 295.3228 228.6948 L 144.4431 228.6948 L 144.4431 126.2026 Z" fill="#ffffff"/>				<path d="M 137.9331 235.5786 L 107.2977 246.2866 L 334 246.2866 L 302.5986 236.3433 L 137.9331 235.5786 Z" fill="#9f9f9f"/>				<path d="M 152.4849 237.1079 L 144.8261 240.9326 L 294.1739 240.9326 L 286.5151 237.1079 L 152.4849 237.1079 Z" fill="#1c1c1c"/>				<path d="M 106.5318 246.2866 L 333.2341 246.2866 L 333.2341 253.1704 C 333.2341 253.1704 335.0212 256.9946 323.2776 256.9946 C 311.534 256.9946 117.2542 256.9946 117.2542 256.9946 C 117.2542 256.9946 107.4822 259.2344 106.5318 251.6406 C 106.2766 249.6011 106.5318 246.2866 106.5318 246.2866 Z" fill="#c9c9c9"/>				<path d="M 196.9064 241.6973 L 191.5452 244.7568 L 247.4548 244.7568 L 242.8596 241.6973 L 196.9064 241.6973 Z" fill="#c7c7c7"/>				<path d="M 235.9666 248.1987 C 235.9666 249.2549 235.1093 250.1108 234.0518 250.1108 L 205.7141 250.1108 C 204.6566 250.1108 203.7993 249.2549 203.7993 248.1987 L 235.9666 248.1987 Z" fill="#858585"/>				<rect x="308.7256" y="252.4888" width="8.4247" height="0.7646" fill="#737373"/>			</g>			<path opacity="0.502" d="M 220.6249 126.2148 L 295.6818 126.2148 L 295.618 228.7822 L 220.5612 228.7822 L 220.6249 126.2148 Z" fill="#ffffff"/>			<g>				<path d="M 191.5452 127.7324 L 176.9933 146.854 C 176.9933 146.854 178.3336 174.0068 178.5251 174.3892 C 178.7166 174.7715 201.2644 208.2769 221.7402 207.5542 C 244.1746 206.7622 259.3261 189.8779 262.7726 168.2705 C 266.2191 146.6626 262.9641 131.3657 262.7726 130.792 C 262.5811 130.2183 191.5452 127.7324 191.5452 127.7324 Z" fill="#e9b989"/>				<path d="M 190.0134 154.5029 C 189.9722 154.4756 190.0784 154.3599 190.3004 154.1821 C 191.628 153.1187 197.6735 150.0229 200.5443 150.1045 C 203.8951 150.2002 208.2032 152.9731 209.9264 151.4434 C 211.6497 149.9136 207.8228 147.771 205.3311 147.6191 C 192.7897 146.854 190.3006 154.6938 190.0134 154.5029 Z" stroke="#ffffff00" stroke-width="1" fill="#402000"/>				<path d="M 254.7708 154.5029 C 254.812 154.4756 254.7057 154.3599 254.4838 154.1821 C 253.1562 153.1187 247.1107 150.0229 244.2399 150.1045 C 240.8891 150.2002 236.581 152.9731 234.8577 151.4434 C 233.1345 149.9136 236.9614 147.771 239.4531 147.6191 C 251.9944 146.854 254.4836 154.6938 254.7708 154.5029 Z" stroke="#ffffff00" stroke-width="1" fill="#402000"/>				<path d="M 187.7157 136.146 C 188.386 136.0771 215.9514 146.9634 231.3712 145.3242 C 246.7911 143.6851 258.9431 140.7354 258.9431 140.7354 C 258.9431 140.7354 259.0334 152.208 258.9431 157.562 C 258.8529 162.916 258.9431 162.916 258.9431 162.916 L 259.709 170.5649 L 264.3043 167.5054 C 264.3043 167.5054 269.7364 147.2446 270.4315 139.9702 C 271.1265 132.6958 267.1563 125.5762 266.602 125.438 C 266.0478 125.2998 270.4315 126.9678 270.4315 126.9678 C 270.4315 126.9678 265.8184 118.0474 262.7726 115.4946 C 259.7268 112.9419 259.709 111.6704 259.709 111.6704 C 259.709 111.6704 261.6312 111.5757 263.5385 113.2002 C 265.4457 114.8242 265.8361 115.4946 265.8361 115.4946 C 265.8361 115.4946 263.9713 109.3237 258.1772 105.5513 C 252.3832 101.7788 246.7787 100.3682 246.689 100.1973 C 246.5992 100.0269 247.8088 98.5137 250.5184 99.4326 C 253.228 100.3511 252.816 100.1973 252.816 100.1973 C 252.816 100.1973 249.4255 95.334 238.2642 94.0786 C 227.103 92.8228 221.0463 93.9712 219.8829 94.0786 C 218.7196 94.1855 218.3076 93.2202 218.3512 93.3135 C 218.3947 93.4067 218.6047 91.0972 219.1171 91.019 C 219.6294 90.9404 207.8092 92.5986 201.5016 97.9028 C 195.1942 103.2065 190.7186 105.624 190.7792 105.5513 C 190.8344 105.4854 181.4823 113.812 178.8175 120.4839 C 176.1528 127.1553 178.5251 120.8486 178.5251 120.8486 C 178.5251 120.8486 173.8304 128.6865 173.5468 134.9985 C 173.2632 141.3105 173.4078 152.542 173.7383 154.6938 C 174.935 162.4858 176.8672 166.812 177.3543 168.5449 C 177.8414 170.2778 179.0015 158.3071 179.6745 157.9634 C 180.3474 157.6196 185.3901 153.9058 185.418 153.7378 C 185.446 153.5698 186.402 147.1665 186.184 144.5596 C 185.9659 141.9526 187.0455 136.2148 187.7157 136.146 Z" stroke="#ffffff00" stroke-width="1" fill="#402000"/>				<rect x="216.8191" y="205.0674" width="10.7224" height="6.1187" stroke="#ffffff00" stroke-width="1" fill="#e9b989"/>				<path d="M 179.938 174.3892 C 179.6747 174.2695 179.1721 169.7998 179.1721 169.7998 C 179.1721 169.7998 180.0816 170.8037 179.1721 169.7998 C 178.2626 168.7959 177.2574 167.3618 175.3427 168.2705 C 173.428 169.1787 172.6621 171.6646 173.8109 173.6245 C 174.9598 175.5845 178.5977 177.5684 179.938 177.4487 C 181.2783 177.3291 180.2013 174.5088 179.938 174.3892 Z" stroke="#ffffff00" stroke-width="1" fill="#f8c19a"/>				<path d="M 203.7993 184.3325 C 203.7993 184.3325 213.6779 186.5249 221.4147 186.627 C 229.1516 186.729 241.3278 185.0972 241.3278 185.0972 C 241.3278 185.0972 235.4241 193.2769 232.903 195.0405 C 230.3819 196.8042 223.7124 198.1001 223.7124 198.1001 L 213.7559 197.335 C 213.7559 197.335 208.9335 194.229 206.8629 191.2163 C 204.7922 188.2036 203.7993 184.3325 203.7993 184.3325 Z" stroke="#ffffff00" stroke-width="1" fill="#370201"/>				<path d="M 209.9264 206.5137 C 209.8637 206.8931 186.8032 208.2847 183.8863 208.0435 C 180.9694 207.8018 175.7182 204.0449 175.4615 204.2188 C 175.2049 204.3931 173.9297 203.4541 173.9297 203.4541 L 171.6321 209.5728 C 171.6321 209.5728 174.5804 210.8438 175.4615 211.1025 C 176.3426 211.3618 180.776 212.8071 180.776 212.8071 C 186.1566 214.5254 195.082 212.9795 199.9699 212.6323 C 204.8577 212.2856 206.3651 210.9194 206.8629 211.1025 C 207.3607 211.2861 205.3311 226.3999 205.3311 226.3999 L 204.5652 228.6948 L 236.7324 228.6948 L 235.1054 210.7563 L 254.3478 207.2783 C 261.2634 206.1309 275.7927 201.9243 275.7927 201.9243 L 269.6655 193.5107 C 269.6655 193.5107 262.2 197.832 252.816 201.1597 C 246.2595 203.4849 234.7466 206.1514 234.7466 206.1514 C 234.7466 206.1514 232.8074 206.4922 231.3712 205.7485 C 229.6725 204.8696 223.601 208.2051 221.4109 208.957 L 209.9264 206.5137 Z" stroke="#ffffff00" stroke-width="1" fill="#c6c6c6"/>				<path id="Ellipse2" d="M 203.6906 167.7964 C 203.6906 164.479 205.0395 161.79 206.7036 161.79 C 208.3676 161.79 209.7164 164.479 209.7164 167.7964 C 209.7164 171.1133 208.3676 173.8027 206.7036 173.8027 C 205.0395 173.8027 203.6906 171.1133 203.6906 167.7964 Z" fill="#000000"/>				<path id="Ellipse3" d="M 233.0667 167.7964 C 233.0667 164.479 234.4156 161.79 236.0797 161.79 C 237.7438 161.79 239.0925 164.479 239.0925 167.7964 C 239.0925 171.1133 237.7438 173.8027 236.0797 173.8027 C 234.4156 173.8027 233.0667 171.1133 233.0667 167.7964 Z" fill="#000000"/>				<g>					<g opacity="0.6">						<path d="M 251.9103 156.5962 C 251.9103 156.5962 258.0161 157.6665 258.0923 162.4077 C 258.1688 167.1479 256.4896 174.1826 256.4896 174.1826 C 256.4896 174.1826 256.8713 173.418 256.4896 174.4121 C 256.1078 175.4063 254.7343 178.2354 251.0706 178.7705 C 247.4068 179.3057 239.0113 179.9175 235.7294 178.2354 C 232.4473 176.5532 228.9364 170.436 228.8604 164.3955 C 228.7838 158.3555 231.9131 157.208 238.706 156.2905 C 245.4988 155.373 249.6204 156.2905 251.9103 156.5962 Z" fill="#e0f3f7"/>						<path d="M 247.8539 156.8066 C 246.2333 156.6548 244.2527 156.5776 241.866 156.7285 L 233.696 177.4102 C 234.3621 178.0972 235.0505 178.6377 235.7294 178.9863 C 235.9361 179.0923 236.1633 179.189 236.4082 179.2773 L 247.8539 156.8066 Z" fill="#f1fbfc"/>					</g>					<path d="M 264.986 154.6191 C 262.2139 153.7534 239.3411 152.8882 233.3387 154.2119 C 227.3337 155.5366 224.925 157.5767 221.7713 157.5767 C 218.6146 157.5767 215.1894 154.5186 208.6774 154.1113 C 202.1624 153.7017 188.7809 153.041 178.7065 154.3652 C 178.7065 154.3652 177.2317 154.5186 177.3324 156.353 C 177.4333 158.1885 177.943 160.8398 177.943 160.8398 C 177.943 160.8398 177.943 161.7573 178.9597 161.8584 C 179.9794 161.9595 180.3854 162.1646 180.9961 163.082 C 181.6067 163.9995 181.8293 180.0352 189.0101 181.5859 C 194.5574 182.7842 208.9827 183.6748 212.747 179.4966 C 216.5112 175.3159 217.937 170.0156 218.6485 168.0762 C 219.3627 166.1401 218.3093 163.3877 221.7713 163.6938 C 225.2304 163.9995 224.2808 166.1401 224.7904 168.0762 C 225.2974 170.0156 228.045 177.356 230.7927 179.2915 C 233.5405 181.2275 236.697 183.167 245.0409 182.7573 C 253.3849 182.3501 257.5582 181.3315 259.0847 176.7441 C 260.611 172.1563 262.1376 164.3052 262.1376 164.3052 C 262.1376 164.3052 262.342 162.0635 263.4595 161.9595 C 264.58 161.8584 264.7845 162.0635 265.1907 161.2471 L 265.5966 160.4302 L 266.2073 156.2524 C 266.2073 156.2524 266.308 155.0317 264.986 154.6191 ZM 207.7097 178.9863 C 204.4276 180.6685 196.032 180.0562 192.3685 179.5215 C 188.7048 178.9863 187.3309 176.1572 186.9492 175.1626 C 186.5678 174.1689 186.9492 174.9331 186.9492 174.9331 C 186.9492 174.9331 185.2701 167.8984 185.3464 163.1587 C 185.4227 158.4175 191.5289 157.3472 191.5289 157.3472 C 193.8185 157.041 197.94 156.1235 204.7327 157.041 C 211.5257 157.959 214.655 159.106 214.5788 165.146 C 214.5025 171.187 210.9915 177.3037 207.7097 178.9863 ZM 256.4896 174.9331 C 256.4896 174.9331 256.8713 174.1689 256.4896 175.1626 C 256.1078 176.1572 254.7343 178.9863 251.0706 179.5215 C 247.4068 180.0562 239.0113 180.6685 235.7294 178.9863 C 232.4473 177.3037 228.9364 171.187 228.8604 165.146 C 228.7838 159.106 231.9131 157.959 238.706 157.041 C 245.4988 156.1235 249.6204 157.041 251.9103 157.3472 C 251.9103 157.3472 258.0161 158.4175 258.0923 163.1587 C 258.1688 167.8984 256.4896 174.9331 256.4896 174.9331 Z" fill="#171518"/>					<g opacity="0.6">						<path d="M 191.5289 156.5962 C 191.5289 156.5962 185.4227 157.6665 185.3464 162.4077 C 185.2701 167.1479 186.9492 174.1826 186.9492 174.1826 C 186.9492 174.1826 186.5678 173.418 186.9492 174.4121 C 187.3309 175.4063 188.7048 178.2354 192.3685 178.7705 C 196.032 179.3057 204.4276 179.9175 207.7097 178.2354 C 210.9915 176.5532 214.5025 170.436 214.5788 164.3955 C 214.655 158.3555 211.5257 157.208 204.7327 156.2905 C 197.94 155.373 193.8185 156.2905 191.5289 156.5962 Z" fill="#e0f3f7"/>						<path d="M 204.7327 156.2905 C 201.9688 155.9175 199.6541 155.8496 197.7178 155.9194 L 191.6764 178.6353 C 191.8978 178.6895 192.1275 178.7349 192.3685 178.7705 C 194.2557 179.0464 197.3987 179.3413 200.4514 179.3335 L 209.77 157.2744 C 208.3971 156.8491 206.7236 156.5596 204.7327 156.2905 Z" fill="#f1fbfc"/>						<path d="M 212.2951 159.2212 L 204.5293 179.8423 C 205.7988 179.6709 206.9072 179.397 207.7097 178.9863 C 210.9915 177.3037 214.5025 171.187 214.5788 165.146 C 214.6161 162.167 213.8724 160.3789 212.2951 159.2212 Z" fill="#f1fbfc"/>					</g>				</g>				<path d="M 221.015 209.8701 L 220.2618 210.6206 L 221.7682 212.873 L 223.2747 211.3716 L 222.5215 209.8701 L 221.015 209.8701 Z" fill="#13848a"/>				<path d="M 222.425 211.4736 L 221.015 211.3716 L 220.2618 218.1289 L 219.5192 228.6948 L 224.0187 228.6948 L 223.2747 218.1289 L 222.425 211.4736 Z" fill="#13848a"/>				<path opacity="0.4" d="M 247.6605 80.103 L 250.8673 80.1255 L 249.5324 91.6699 L 247.6605 80.103 Z" fill="#000000"/>				<path opacity="0.4" d="M 259.6494 80.5557 L 262.2808 82.1567 L 255.8729 93.0063 L 259.6494 80.5557 Z" fill="#000000"/>				<path opacity="0.4" d="M 270.6513 87.9902 L 271.4572 90.9888 L 259.8072 96.4609 L 270.6513 87.9902 Z" fill="#000000"/>				<path d="M 163.8051 185.7231 C 163.5922 185.6021 161.7373 184.811 159.4263 185.2368 C 157.1154 185.6626 152.6454 188.915 151.642 190.5864 C 150.6385 192.2588 149.7567 195.6934 150.1824 197.3955 C 150.6082 199.0981 151.7635 202.2896 151.642 202.2588 C 151.5203 202.2285 159.9129 202.2588 159.9129 202.2588 L 160.3994 195.9365 L 161.1993 197.1362 L 161.3724 197.3955 C 161.3724 197.3955 162.9536 197.5781 162.832 197.3955 C 162.7103 197.2134 163.5922 197.4565 163.8051 195.4502 C 164.0179 193.4438 164.2916 192.0459 164.2916 192.0459 L 165.7511 187.6685 C 165.7511 187.6685 164.0179 185.8452 163.8051 185.7231 Z" stroke="#ffffff00" stroke-width="1" fill="#f4caa4"/>				<g>					<path d="M 161.7755 147.8921 L 173.0822 167.9463 L 183.3121 172.2822 L 188.158 174.4502 C 188.158 174.4502 192.1063 176.7988 190.3115 182.5806 C 188.5168 188.3618 185.0172 190.6201 183.3121 190.1685 C 181.6071 189.7168 176.3127 188.1812 176.3127 188.0005 C 176.3127 187.8198 167.0698 185.1099 166.6211 185.2905 C 166.1725 185.4712 147.7765 192.3364 147.7765 192.3364 L 161.7755 147.8921 Z" stroke="#ffffff00" stroke-width="1" fill="#e0dbd7"/>					<path d="M 182.7737 172.8242 C 182.7063 173.9082 182.6391 180.7515 180.0815 184.2061 C 177.5242 187.6616 177.5242 188.2715 176.851 188.542 C 176.178 188.8135 174.6974 189.0845 174.6974 189.0845 L 171.4669 195.0459 C 171.4669 195.0459 167.0972 204.4204 167.0298 204.2173 C 166.9626 204.0137 163.4174 204.0073 163.4174 204.0073 L 160.1601 209.1382 L 168.2364 188.0005 L 168.2364 186.374 L 169.8516 184.2061 L 172.5438 180.9546 C 172.5438 180.9546 174.2936 178.1089 174.159 178.2446 C 174.0244 178.3799 174.6974 174.4502 174.6974 174.4502 L 174.6974 169.5723 L 174.159 167.9463 C 174.159 167.9463 182.8411 171.7407 182.7737 172.8242 Z" stroke="#ffffff00" stroke-width="1" fill="#e65051"/>					<path d="M 181.8763 183.3936 L 188.158 184.2061 C 188.158 184.2061 187.9785 187.8198 184.9274 188.0005 C 181.8763 188.1812 178.4664 188.0005 178.4664 188.0005 L 181.8763 183.3936 Z" stroke="#ffffff00" stroke-width="1" fill="#c9c7c8"/>					<path d="M 147.7765 141.9307 " stroke="#ffffff00" stroke-width="1" fill="none"/>					<path d="M 159.6216 178.2446 L 170.9285 180.9546 L 168.7748 183.6641 C 168.7748 183.6641 165.9033 184.3867 166.0827 184.2061 C 166.2621 184.0259 153.1607 189.0845 153.1607 189.0845 L 159.6216 178.2446 Z" stroke="#ffffff00" stroke-width="1" fill="#c9c7c8"/>					<path d="M 176.7241 180.2192 C 176.305 180.5679 175.7495 181.1689 176.1606 181.6597 C 176.4848 182.0469 177.2114 181.8281 177.7902 181.3071 C 178.3528 180.8003 178.1868 180.1616 177.9271 179.9736 C 177.6676 179.7856 177.1657 179.8506 176.7241 180.2192 Z" stroke="#ffffff00" stroke-width="1" fill="#e72c2c"/>					<path d="M 175.1089 184.0127 C 174.6899 184.3618 174.1342 184.9634 174.5453 185.4541 C 174.8696 185.8403 175.5962 185.6226 176.1749 185.1016 C 176.7375 184.5947 176.5716 183.9556 176.312 183.7676 C 176.0524 183.5796 175.5505 183.645 175.1089 184.0127 Z" stroke="#ffffff00" stroke-width="1" fill="#e72c2c"/>					<path d="M 173.6205 167.9463 " stroke="#ffffff00" stroke-width="1" fill="none"/>					<path d="M 168.7748 185.8325 C 168.7075 186.0356 170.1208 186.7808 170.39 186.9165 C 170.6592 187.0518 166.6211 193.4204 166.6211 193.4204 L 164.0731 203.1157 C 164.0731 203.1157 160.6406 201.2183 160.8426 200.9478 C 161.0444 200.6768 163.9291 193.4204 163.9291 193.4204 L 166.0827 188.542 C 166.0827 188.542 166.8231 185.1548 166.6211 185.2905 C 166.4192 185.4258 168.1692 184.5454 168.2364 184.7485 C 168.3037 184.9517 172.3755 181.6318 173.0822 179.8701 C 173.7888 178.1089 175.0339 172.3838 174.6974 170.6563 C 174.361 168.9287 173.0822 167.9463 173.0822 167.9463 L 173.6205 167.9463 C 173.6205 167.9463 175.5387 169.4028 175.2358 172.8242 C 174.9329 176.2456 174.4241 178.3926 173.4524 180.4126 C 172.4092 182.5806 168.8421 185.6289 168.7748 185.8325 Z" stroke="#ffffff00" stroke-width="1" fill="#e72c2c"/>					<path d="M 148.3149 135.9688 C 166.8445 140.0874 165.209 159.5132 163.8385 166.2891 C 162.0596 175.084 159.2314 180.9419 155.8527 185.5132 C 150.8802 192.2402 147.1748 194.7275 141.8539 193.9624 C 136.5331 193.1973 127.1899 187.4585 128.3934 166.3203 C 129.597 145.1826 143.486 135.1587 148.3149 135.9688 Z" stroke="#ffffff00" stroke-width="1" fill="#e72727"/>					<path d="M 147.238 135.4268 C 166.8445 143.8633 162.5371 161.3335 161.9847 165.9307 C 161.0471 173.7329 157.9048 179.9731 154.776 184.2061 C 149.8034 190.9336 146.0978 194.1851 140.777 193.4204 C 135.4562 192.6553 126.1131 186.9165 127.3165 165.7783 C 128.5201 144.6406 142.4091 134.6162 147.238 135.4268 Z" stroke="#ffffff00" stroke-width="1" fill="#e65051"/>					<path d="M 146.6996 141.3882 C 146.6996 141.3882 140.2386 140.5596 136.4697 146.8086 C 132.7007 153.0576 129.9769 159.9761 130.0087 167.9463 C 130.0404 175.917 131.7823 183.8877 134.8544 185.8325 C 137.9266 187.7773 138.4333 187.9048 141.3155 187.4585 C 144.1976 187.0122 146.1539 185.8862 148.6877 183.75 C 151.2215 181.6138 146.6996 141.3882 146.6996 141.3882 Z" stroke="#ffffff00" stroke-width="1" fill="#c8c8c8"/>					<path d="M 147.5231 141.3882 C 145.6228 141.9624 141.1888 147.7334 139.7002 153.3125 C 138.2116 158.8916 136.4697 165.1406 137.0081 169.5723 C 137.5465 174.0039 138.9718 181.0815 140.777 183.6641 C 142.5823 186.2471 143.4691 186.9165 143.4691 186.9165 C 143.4691 186.9165 152.5272 182.6123 154.776 173.9082 C 157.0247 165.2046 157.7128 156.7583 156.1695 151.4312 C 154.1741 144.5449 149.0434 141.8667 147.5231 141.3882 Z" fill="#9d9d9d"/>					<path d="M 156.9296 161.9844 L 146.6996 158.7324 C 146.6996 158.7324 144.4114 158.1904 142.3923 158.7324 C 140.3733 159.2744 139.5657 162.3911 139.1618 164.1523 C 138.758 165.9141 139.0272 169.7075 141.3155 171.1982 C 143.6038 172.689 152.0839 177.7021 152.0839 177.7021 C 152.0839 177.7021 154.5068 173.6372 155.3144 170.6563 C 156.1219 167.6753 156.9296 161.9844 156.9296 161.9844 Z" fill="#e0dbd7"/>					<path d="M 149.9302 159.8164 C 149.9302 159.8164 152.7189 162.9609 153.1607 165.2363 C 153.6024 167.5117 153.823 171.9282 152.6222 173.9082 C 151.4216 175.8887 151.2811 177.3921 151.007 177.1602 C 150.7329 176.9282 152.0839 177.7021 152.0839 177.7021 C 152.0839 177.7021 155.004 173.1216 155.8527 170.1143 C 156.7015 167.1074 156.9855 161.7144 156.9296 161.9844 C 156.8737 162.2544 149.9302 159.8164 149.9302 159.8164 Z" fill="#c8c8c8"/>					<path d="M 143.5015 159.25 C 142.1242 159.1343 140.4765 161.4868 140.2386 164.1523 C 140.0008 166.8184 140.0581 169.5913 141.4355 169.8804 C 143.0889 170.2271 144.8881 167.7837 145.0844 164.1523 C 145.2808 160.521 144.6388 159.6211 143.5015 159.25 Z" stroke="#ffffff00" stroke-width="1" fill="#c8c8c8"/>				</g>				<path d="M 161.8589 201.7725 " stroke="#ffffff00" stroke-width="1" fill="none"/>				<path d="M 172.5624 192.0459 C 172.5624 192.0459 173.0106 196.1641 172.5624 197.3955 C 172.1143 198.6274 170.3298 203.5703 170.1299 204.2046 C 169.9298 204.8384 168.8141 207.6636 167.6972 208.0952 C 166.5804 208.5264 166.7242 208.5815 166.7242 208.5815 L 170.6164 208.5815 C 170.6164 208.5815 171.7992 207.0156 173.049 204.2046 C 174.2988 201.3931 174.9632 195.9126 174.995 195.4502 C 175.0269 194.9878 172.5624 191.5596 172.5624 191.5596 L 172.5624 192.0459 Z" stroke="#ffffff00" stroke-width="1" fill="#e9b989"/>				<path d="M 159.4263 192.0459 L 161.3724 191.5596 C 161.3724 191.5596 163.1057 192.897 163.3185 193.0186 C 163.5314 193.1401 164.839 195.6934 163.8051 196.9092 C 163.0656 197.7788 162.3884 198.1509 162.0626 198.2925 C 161.9329 198.3486 161.8589 198.3682 161.8589 198.3682 C 161.8589 198.3682 157.7539 197.1221 157.4802 196.9092 C 157.2066 196.6963 159.4263 192.0459 159.4263 192.0459 Z" stroke="#ffffff00" stroke-width="1" fill="#fad3b2"/>				<path d="M 160.9581 185.9268 L 162.9042 185.4404 C 162.9042 185.4404 164.6374 186.7778 164.8503 186.8999 C 165.0632 187.021 166.3707 189.5742 165.3369 190.7905 C 164.5974 191.6597 163.9202 192.0317 163.5944 192.1733 C 163.4647 192.23 163.3907 192.249 163.3907 192.249 C 163.3907 192.249 159.2856 191.0029 159.012 190.7905 C 158.7383 190.5776 160.9581 185.9268 160.9581 185.9268 Z" stroke="#ffffff00" stroke-width="1" fill="#f4caa4"/>				<path d="M 156.0206 202.2588 C 156.0206 202.2588 157.6585 203.0781 158.9398 202.7451 C 159.917 202.4912 159.9894 204.8491 160.7142 204.1553 C 160.9398 203.9395 162.2275 201.1313 162.3455 200.8003 C 162.8425 199.4033 163.9315 198.248 161.3724 196.9092 C 158.8134 195.5703 156.0855 195.5288 154.5611 196.4233 C 153.0367 197.3174 150.9732 198.0229 151.1555 200.8003 C 151.3376 203.5771 153.4156 205.8135 154.5611 206.6362 C 155.7065 207.459 159.9574 209.8057 162.832 209.5542 C 165.7066 209.3027 167.0224 209.2124 168.6703 207.1226 C 170.3182 205.0327 172.3795 199.6577 172.5624 197.3955 C 172.7454 195.1333 172.962 192.5005 172.5624 192.0459 C 172.1628 191.5908 171.5894 191.0732 171.5894 191.0732 C 171.5894 191.0732 171.8391 193.6763 171.1028 194.4775 C 170.3668 195.2788 169.4105 197.4116 168.4878 197.0918 C 167.5651 196.7715 168.5773 197.5205 168.579 197.3955 C 168.5808 197.2705 168.2445 200.8003 168.2445 200.8003 C 168.2445 200.8003 167.9917 204.8594 167.8038 205.0137 C 167.8038 205.0137 161.6993 204.0981 162.0032 204.1553 C 162.3071 204.2129 157.652 203.2749 157.4802 203.2319 C 157.3086 203.1885 156.0206 202.2588 156.0206 202.2588 Z" stroke="#ffffff00" stroke-width="1" fill="#f7d3b2"/>				<path d="M 156.0206 202.7451 C 156.0206 202.7451 158.049 203.0781 159.4263 202.7451 C 160.8036 202.4121 161.8589 201.7725 161.8589 201.7725 L 163.3185 201.7725 C 163.3185 201.7725 163.0621 202.3022 162.3455 202.7451 C 161.6288 203.1885 159.9864 203.9077 158.4533 203.7183 C 156.9202 203.5283 156.0206 203.2319 156.0206 203.2319 L 156.0206 202.7451 Z" stroke="#ffffff00" stroke-width="1" fill="#fbcaa9"/>				<path d="M 172.5624 196.9092 C 171.4423 197.9531 170.6577 198.6841 169.1568 197.8818 C 167.6559 197.0796 167.0061 196.2446 166.7242 194.9639 C 166.4424 193.6831 166.5692 191.6636 166.7242 190.5864 C 166.8792 189.5098 168.0407 187.0869 170.1299 187.1826 C 172.2191 187.2778 173.3471 189.6743 173.5355 190.5864 C 173.7239 191.4995 173.6826 195.8652 172.5624 196.9092 Z" stroke="#ffffff00" stroke-width="1" fill="#e9b989"/>				<path d="M 171.1028 195.4502 C 169.9827 196.4941 169.1981 197.2251 167.6972 196.4233 C 166.1963 195.6211 165.5465 194.7856 165.2645 193.5049 C 164.9828 192.2236 165.1096 190.2051 165.2645 189.1279 C 165.4196 188.0508 166.5811 185.6279 168.6703 185.7231 C 170.7595 185.8184 171.8875 188.2148 172.0759 189.1279 C 172.2643 190.04 172.223 194.4063 171.1028 195.4502 Z" stroke="#ffffff00" stroke-width="1" fill="#f7d3b2"/>				<path d="M 173.1639 202.689 L 175.4615 204.9839 C 175.4615 204.9839 173.9902 210.2988 172.398 210.3379 C 170.8057 210.377 168.5685 208.8081 168.5685 208.8081 C 168.5685 208.8081 170.9416 208.5728 171.6321 207.2783 C 172.3226 205.9839 172.398 205.7485 172.398 205.7485 L 173.1639 202.689 Z" stroke="#ffffff00" stroke-width="1" fill="#ffffff"/>				<path d="M 216.8194 206.5137 L 221.4147 208.8081 L 217.5853 211.1025 L 211.4582 206.5137 L 216.8194 206.5137 Z" fill="#d6dfe0"/>				<path d="M 156.9937 187.6685 C 156.9937 187.6685 158.7269 186.6655 160.3994 186.6963 C 162.0718 186.7266 164.7059 187.7495 164.7059 187.7495 C 164.7059 187.7495 164.5841 186.686 164.7059 186.7773 C 164.8274 186.8682 162.0413 186.2705 160.3994 186.2095 C 158.7573 186.1489 156.9937 187.6685 156.9937 187.6685 Z" stroke="#ffffff00" stroke-width="1" fill="#e9b989"/>				<path d="M 155.0475 191.5596 C 154.8956 191.5596 157.1762 190.374 158.4533 190.5864 C 159.7304 190.7993 162.3151 192.2285 162.832 193.0186 C 163.3489 193.8091 163.8659 194.1733 163.8051 193.9912 C 163.7442 193.8091 162.6496 191.4683 160.8859 190.5864 C 159.1223 189.7051 157.9364 189.8872 156.9937 190.1001 C 156.0511 190.313 155.1996 191.5596 155.0475 191.5596 Z" stroke="#ffffff00" stroke-width="1" fill="#e9b989"/>				<path d="M 270.4315 194.2759 C 270.2042 194.0488 271.7757 192.7437 272.4412 192.2095 C 272.6166 192.0684 272.7291 191.981 272.7291 191.981 L 278.8562 200.3945 L 275.7927 201.9243 C 275.7927 201.9243 275.8405 201.6377 275.7927 201.9243 C 275.7448 202.2109 270.7186 194.5625 270.4315 194.2759 Z" stroke="#ffffff00" stroke-width="1" fill="#ffffff"/>				<g>					<path d="M 288.3021 193.0073 C 288.3021 193.0073 287.2166 194.0073 286.1431 194.0327 C 285.3244 194.0518 284.3649 194.168 283.6415 193.7896 C 283.4164 193.6719 283.2141 193.5059 283.046 193.2739 C 282.338 192.2983 281.2249 191.6411 282.9076 190.0322 C 284.5902 188.4238 286.7029 187.7871 288.0946 188.145 C 289.4863 188.5024 291.2542 188.5942 291.7513 190.7944 C 292.2487 192.9941 291.1467 195.1943 290.445 196.0879 C 289.7432 196.9819 286.9761 199.749 284.6821 200.1909 C 282.3878 200.6323 281.3434 200.8535 279.5804 199.5933 C 277.8175 198.333 274.9769 194.6094 274.314 192.8906 C 273.6511 191.1719 272.8766 189.1719 273.0829 188.7295 C 273.2891 188.2876 278.8624 183.356 278.8624 183.356 C 278.8624 183.356 283.8716 193.811 283.6482 193.9233 C 283.4249 194.0347 287.2668 194.1587 287.3905 194.0874 C 287.5142 194.0156 288.3021 193.0073 288.3021 193.0073 Z" stroke="#ffffff00" stroke-width="1" fill="#f7d3b2"/>					<path d="M 278.4409 181.8711 C 278.5785 181.7295 279.8397 180.7036 281.7355 180.5225 C 283.6312 180.3413 287.8572 181.8804 289.0225 182.9585 C 290.188 184.0361 291.6644 186.5122 291.725 187.9307 C 291.7855 189.3486 291.621 192.0874 291.7086 192.0366 C 291.7962 191.9863 285.2741 193.8696 285.2741 193.8696 L 283.4407 189.0601 L 283.0944 190.1704 L 283.0195 190.4106 C 283.0195 190.4106 281.8313 190.9028 281.884 190.7339 C 281.9366 190.5654 281.3066 190.9497 280.6793 189.4365 C 280.0521 187.9238 279.5173 186.8965 279.5173 186.8965 L 277.3745 183.8159 C 277.3745 183.8159 278.3033 182.0132 278.4409 181.8711 Z" stroke="#ffffff00" stroke-width="1" fill="#f4caa4"/>					<path d="M 283.6482 193.9233 " stroke="#ffffff00" stroke-width="1" fill="none"/>					<path d="M 273.0829 188.7295 C 273.0829 188.7295 273.6819 192.0317 274.314 192.8906 C 274.9462 193.749 277.4719 197.1982 277.7734 197.6475 C 278.075 198.0962 279.5931 200.0464 280.5613 200.1343 C 281.5294 200.2222 281.4302 200.2969 281.4302 200.2969 L 278.4022 201.1597 C 278.4022 201.1597 277.1217 200.2036 275.5024 198.2944 C 273.8832 196.3848 272.105 192.2695 271.9739 191.917 C 271.8426 191.564 272.9709 188.3516 272.9709 188.3516 L 273.0829 188.7295 Z" stroke="#ffffff00" stroke-width="1" fill="#e9b989"/>					<path d="M 283.3023 185.8184 L 281.6765 185.8716 C 281.6765 185.8716 280.6358 187.2959 280.4982 187.4375 C 280.3606 187.5796 279.931 189.855 281.0151 190.5718 C 281.7904 191.084 282.4029 191.2231 282.6889 191.2612 C 282.8027 191.2759 282.8647 191.2754 282.8647 191.2754 C 282.8647 191.2754 285.7716 189.396 285.9356 189.1694 C 286.0995 188.9438 283.3023 185.8184 283.3023 185.8184 Z" stroke="#ffffff00" stroke-width="1" fill="#fad3b2"/>					<path d="M 287.5452 193.2227 C 287.5452 193.2227 286.4596 194.2236 285.386 194.248 C 284.5674 194.2671 283.608 194.3838 282.8845 194.0054 C 282.6594 193.8872 282.4569 193.7217 282.2889 193.4897 C 281.5809 192.5142 280.4679 191.8569 282.1506 190.248 C 283.8333 188.6392 285.9459 188.0029 287.3376 188.3604 C 288.7293 188.7178 290.4971 188.8096 290.9944 191.0103 C 291.4916 193.21 290.3897 195.4102 289.688 196.3042 C 288.9862 197.1978 286.2192 199.9648 283.925 200.4067 C 281.6309 200.8481 280.5864 201.0688 278.8235 199.8091 C 277.0604 198.5488 274.2199 194.8252 273.5571 193.1064 C 272.8942 191.3872 272.1197 189.3877 272.326 188.9453 C 272.532 188.5029 272.8591 187.9731 272.8591 187.9731 C 272.8591 187.9731 273.2639 190.0527 274.021 190.5132 C 274.7781 190.9736 276.0129 192.4204 276.657 191.9668 C 277.3011 191.5137 276.686 192.3203 276.6559 192.2236 C 276.6259 192.127 277.6997 194.7969 277.6997 194.7969 C 277.6997 194.7969 278.0628 196.1274 278.2446 196.2056 C 278.2446 196.2056 283.1146 194.0264 282.8913 194.1387 C 282.668 194.2505 286.5098 194.3745 286.6336 194.3027 C 286.7572 194.2314 287.5452 193.2227 287.5452 193.2227 Z" stroke="#ffffff00" stroke-width="1" fill="#f7d3b2"/>					<path d="M 288.4141 193.3857 C 288.4141 193.3857 286.9128 194.0942 285.7647 194.1406 C 284.6164 194.1865 283.6482 193.9233 283.6482 193.9233 L 282.5128 194.2466 C 282.5128 194.2466 282.8341 194.6016 283.4936 194.7871 C 284.1531 194.9731 285.5964 195.1685 286.7454 194.6812 C 287.8944 194.1938 288.5261 193.7642 288.5261 193.7642 L 288.4141 193.3857 Z" stroke="#ffffff00" stroke-width="1" fill="#e9b989"/>					<path d="M 282.0813 188.6274 C 282.0813 188.6274 280.8212 191.7856 281.7986 193.2197 C 282.7758 194.6528 282.8485 195.3813 282.8485 195.3813 L 280.5776 196.0278 C 280.5776 196.0278 280.707 195.7417 280.2845 193.6504 C 279.8622 191.5596 277.7739 190.0503 277.9179 189.813 C 278.0619 189.5762 277.1375 183.9189 277.3745 183.8159 C 277.6116 183.7124 279.379 183.6548 279.379 183.6548 L 282.0813 188.6274 Z" stroke="#ffffff00" stroke-width="1" fill="#e9b989"/>					<path d="M 284.1876 181.875 C 284.1876 181.875 282.6083 181.4785 281.3143 181.873 C 280.0201 182.2676 279.7574 183.5469 279.7574 183.5469 C 279.7574 183.5469 279.6073 182.6924 279.5336 182.7905 C 279.46 182.8887 279.9388 181.9058 281.2023 181.4946 C 282.4657 181.0835 284.1876 181.875 284.1876 181.875 Z" stroke="#ffffff00" stroke-width="1" fill="#e9b989"/>					<path d="M 286.5969 184.4697 C 286.7151 184.436 284.6682 184.0195 283.7236 184.4678 C 282.7789 184.9165 281.097 186.6006 280.8767 187.3301 C 280.6565 188.0591 280.3382 188.4575 280.3434 188.3022 C 280.3489 188.1465 280.6619 186.0835 281.8311 185.0073 C 283.0003 183.9307 283.9648 183.8096 284.7471 183.7661 C 285.5295 183.7231 286.4786 184.5034 286.5969 184.4697 Z" stroke="#ffffff00" stroke-width="1" fill="#e9b989"/>					<path d="M 274.2021 192.5122 C 275.3138 193.0762 276.0924 193.4707 277.0754 192.5142 C 278.0585 191.5576 278.3719 190.7642 278.2964 189.7056 C 278.2209 188.647 277.6575 187.1045 277.2891 186.3008 C 276.9207 185.4976 275.4595 183.8706 273.8561 184.4077 C 272.2527 184.9448 271.9266 187.0591 271.9901 187.8105 C 272.0535 188.562 273.0903 191.9487 274.2021 192.5122 Z" stroke="#ffffff00" stroke-width="1" fill="#e9b989"/>					<path d="M 275.0018 191.0542 C 276.1135 191.6177 276.8921 192.0127 277.8752 191.0557 C 278.8582 190.0991 279.1716 189.3062 279.0961 188.2471 C 279.0206 187.1885 278.4573 185.646 278.0888 184.8428 C 277.7205 184.0396 276.2593 182.4126 274.6559 182.9497 C 273.0526 183.4868 272.7264 185.6006 272.7899 186.3521 C 272.8533 187.104 273.8901 190.4902 275.0018 191.0542 Z" stroke="#ffffff00" stroke-width="1" fill="#f7d3b2"/>				</g>				<path d="M 220.6488 208.8081 L 225.2441 211.8677 L 232.1371 205.7485 C 232.1371 205.7485 227.9854 206.6563 227.5418 206.5137 C 227.0982 206.3706 223.7124 208.8081 223.7124 208.8081 L 220.6488 208.8081 Z" stroke="#ffffff00" stroke-width="1" fill="#d5dadd"/>				<path d="M 206.097 185.0972 C 206.5367 185.0952 215.3886 185.7783 222.1806 185.8623 C 228.9726 185.9458 239.0301 185.0972 239.0301 185.0972 C 239.0301 185.0972 232.9361 190.7021 223.7124 190.4512 C 214.4886 190.2002 205.6573 185.0996 206.097 185.0972 Z" stroke="#ffffff00" stroke-width="1" fill="#fefffd"/>				<path d="M 212.99 197.335 C 212.9477 197.1733 216.1392 193.3794 222.1806 193.5107 C 228.222 193.6421 231.3712 196.5703 231.3712 196.5703 C 231.3712 196.5703 227.1187 199.7124 222.4235 199.4331 C 217.7282 199.1538 213.0322 197.4971 212.99 197.335 Z" stroke="#ffffff00" stroke-width="1" fill="#fc706c"/>				<path d="M 260.4749 174.3892 C 260.7382 174.2695 261.2408 169.7998 261.2408 169.7998 C 261.2408 169.7998 260.3313 170.8037 261.2408 169.7998 C 262.1503 168.7959 263.1555 167.3618 265.0703 168.2705 C 266.9849 169.1787 267.7509 171.6646 266.602 173.6245 C 265.4532 175.5845 261.8152 177.5684 260.4749 177.4487 C 259.1346 177.3291 260.2117 174.5088 260.4749 174.3892 Z" stroke="#ffffff00" stroke-width="1" fill="#f4caa4"/>			</g>		</g>	</g></svg>